<?xml version="1.0" encoding="UTF-8" standalone="no"?>
<!-- Created with Inkscape (http://www.inkscape.org/) -->

<svg
   xmlns:dc="http://purl.org/dc/elements/1.1/"
   xmlns:cc="http://creativecommons.org/ns#"
   xmlns:rdf="http://www.w3.org/1999/02/22-rdf-syntax-ns#"
   xmlns:svg="http://www.w3.org/2000/svg"
   xmlns="http://www.w3.org/2000/svg"
   xmlns:sodipodi="http://sodipodi.sourceforge.net/DTD/sodipodi-0.dtd"
   xmlns:inkscape="http://www.inkscape.org/namespaces/inkscape"
   width="742mm"
   height="418mm"
   viewBox="0 0 742 418"
   version="1.1"
   id="svg8"
   inkscape:version="0.92.4 (5da689c313, 2019-01-14)"
   sodipodi:docname="SADC_road_sign_IN9.svg">
  <defs
     id="defs2" />
  <sodipodi:namedview
     id="base"
     pagecolor="#ffffff"
     bordercolor="#666666"
     borderopacity="1.0"
     inkscape:pageopacity="0.0"
     inkscape:pageshadow="2"
     inkscape:zoom="0.2784233"
     inkscape:cx="1511.7879"
     inkscape:cy="779.59802"
     inkscape:document-units="mm"
     inkscape:current-layer="layer1"
     showgrid="false"
     fit-margin-top="0"
     fit-margin-left="0"
     fit-margin-right="0"
     fit-margin-bottom="0"
     inkscape:window-width="1920"
     inkscape:window-height="1057"
     inkscape:window-x="-8"
     inkscape:window-y="-8"
     inkscape:window-maximized="1"
     inkscape:snap-global="false"
     showguides="false" />
  <metadata
     id="metadata5">
    <rdf:RDF>
      <cc:Work
         rdf:about="">
        <dc:format>image/svg+xml</dc:format>
        <dc:type
           rdf:resource="http://purl.org/dc/dcmitype/StillImage" />
        <dc:title></dc:title>
      </cc:Work>
    </rdf:RDF>
  </metadata>
  <g
     inkscape:label="Layer 1"
     inkscape:groupmode="layer"
     id="layer1"
     transform="translate(0,121)">
    <path
       style="opacity:1;fill:#000000;fill-opacity:1;fill-rule:nonzero;stroke:none;stroke-width:0.19743672;stroke-linecap:butt;stroke-linejoin:miter;stroke-miterlimit:4;stroke-dasharray:none;stroke-opacity:1;paint-order:stroke fill markers"
       d="M 271,-37.499999 371.00002,87.499991 271,212.5 Z"
       id="rect821"
       inkscape:connector-curvature="0"
       sodipodi:nodetypes="cccc" />
    <path
       d="m 195.9938,273.1521 c -1.0613,2.7108 -2.064,5.3966 -3.7436,7.8229 l 1.5626,1.2383 h -9.6982 c 0,-13.8729 -10.259,-22.8454 -23.7309,-22.8454 -12.2336,0 -22.846,14.7288 -19.6924,26.2984 H 55.6741 l 0.3342,-4.0747 c 0,-10.4483 -9.1969,-22.2254 -20.3107,-22.2254 -15.1816,0 -25.2634,11.1864 -23.1409,26.2984 -2.9163,-2.9535 -4.4539,-6.434 -6.8688,-9.7105 H 1 v -3.1291 c 0.084,-0.3347 0.1671,-0.6694 0.3343,-0.9455 l 0.9442,-1.5645 1.2368,-0.9455 c -0.6686,-3.422 -1.2368,-7.0866 -1.2368,-10.6258 0,-1.6817 0.4178,-3.6562 0.585,-5.3128 0.1671,-0.4184 0.752,-1.1797 1.2367,-1.2718 l 25.3219,-23.4653 c 0.7521,-0.5857 1.6796,-1.4475 2.5069,-1.8909 0.9693,-0.502 3.777,-1.2383 4.9803,-1.5646 h 3.1252 C 47.5802,224.0586 55.8654,224 63.4705,224 H 80.981 c 11.4973,0 23.5537,1.2718 34.9917,2.51 2.3899,0.059 6.0416,1.9495 7.8131,3.422 l 20.3107,17.2372 46.9011,7.2038 2.181,0.5856 1.5626,1.5646 c 0.4178,0.5857 0.8523,1.2718 1.2367,1.8574 0.8356,2.6272 1.2702,5.7229 1.2702,8.4714 h 0.9108 c 0.8356,0 1.9721,0.6693 2.5069,1.2382 0.084,0.4184 0.3342,1.1212 0.3342,1.5646 0,0.4184 -0.2507,1.1212 -0.3342,1.5646 -0.585,0.8367 -1.6796,1.1546 -2.5069,1.5646 l -2.181,0.3346"
       style="fill:#000000;fill-opacity:1;fill-rule:nonzero;stroke:none;stroke-width:29.49747849"
       id="path1104"
       inkscape:connector-curvature="0" />
    <path
       d="m 147.5593,281.2687 c 0,-8.4119 6.8104,-14.3741 15.0053,-14.3741 6.3675,0 11.6144,4.0161 13.4419,10.1238 l 0.5849,2.0666 v 3.4554 c 0,5.9906 -6.6599,13.4596 -12.8235,13.4596 h -3.4177 c -3.7686,0 -9.0498,-3.7483 -10.9366,-6.8775 -1.2702,-2.0331 -1.8885,-5.4634 -1.8885,-7.848"
       style="fill:#000000;fill-opacity:1;fill-rule:nonzero;stroke:none;stroke-width:29.49747849"
       id="path1116"
       inkscape:connector-curvature="0" />
    <path
       d="m 19.4439,281.2687 c 0,-8.1743 7.0193,-14.3741 14.9752,-14.3741 6.3926,0 11.6152,4.0161 13.4427,10.1238 l 0.585,2.0666 v 3.4554 c 0,6.1663 -4.7798,11.2751 -10.4946,12.8396 l -2.298,0.5857 H 32.529 c -7.2783,0 -13.1185,-7.9066 -13.1185,-14.7288"
       style="fill:#000000;fill-opacity:1;fill-rule:nonzero;stroke:none;stroke-width:29.49747849"
       id="path1118"
       inkscape:connector-curvature="0" />
    <path
       d="m 73.1838,230.5897 -0.585,-1.5646 -1.2701,-0.9455 -1.8551,-0.3346 c -6.6934,0.084 -14.7104,-0.3347 -21.2541,0.5856 -1.1532,0.03 -3.7436,0.6694 -4.6879,1.2718 -0.6685,0.4183 -1.5292,1.3303 -2.181,1.8574 -2.3898,2.7108 -10.3174,9.9464 -10.3174,13.7842 0,2.1837 2.8578,4.6937 4.9803,4.6937 h 35.9636 l 1.8551,-0.3346 1.2701,-1.2383 0.585,-1.5646 v -1.2383 l -2.5069,-15.0241"
       style="fill:#ffffff;fill-opacity:1;fill-rule:nonzero;stroke:none;stroke-width:29.49747849"
       id="path1128"
       inkscape:connector-curvature="0" />
    <path
       d="m 125.3618,249.9821 1.5626,-0.3347 1.5626,-1.2383 0.4179,-1.0374 0.2506,-2.0917 -0.9442,-1.5646 -10.6425,-10.6559 c -0.1671,-0.1673 -2.0891,-1.7988 -2.181,-1.8574 -0.7521,-0.4183 -3.9525,-1.2968 -5.0138,-1.5646 -9.8762,-0.8367 -19.7809,-1.506 -29.6855,-1.8909 -0.8858,0.059 -2.1225,0.6694 -2.7993,1.2718 -0.585,0.753 -0.9109,2.2172 -0.9443,3.1291 0.5014,2.6272 1.3286,17.8279 5.6321,17.8279 h 42.804"
       style="fill:#ffffff;fill-opacity:1;fill-rule:nonzero;stroke:none;stroke-width:29.49747849"
       id="path1130"
       inkscape:connector-curvature="0" />
    <path
       inkscape:connector-curvature="0"
       id="path5168"
       style="fill:#000000;fill-opacity:1;fill-rule:nonzero;stroke:none;stroke-width:29.49747849"
       d="m 195.9938,101.15209 c -1.0613,2.7108 -2.064,5.3966 -3.7436,7.8229 l 1.5626,1.2383 h -9.6982 c 0,-13.872899 -10.259,-22.845399 -23.7309,-22.845399 -12.2336,0 -22.846,14.728799 -19.6924,26.298409 H 55.6741 l 0.3342,-4.07471 c 0,-10.448299 -9.1969,-22.225399 -20.3107,-22.225399 -15.1816,0 -25.2634,11.1864 -23.1409,26.298409 -2.9163,-2.95351 -4.4539,-6.43401 -6.8688,-9.71051 H 1 v -3.1291 c 0.084,-0.3347 0.1671,-0.6694 0.3343,-0.945499 l 0.9442,-1.5645 1.2368,-0.9455 c -0.6686,-3.422 -1.2368,-7.0866 -1.2368,-10.6258 0,-1.6817 0.4178,-3.6562 0.585,-5.3128 0.1671,-0.4184 0.752,-1.1797 1.2367,-1.2718 l 25.3219,-23.4653 c 0.7521,-0.5857 1.6796,-1.4475 2.5069,-1.8909 0.9693,-0.502 3.777,-1.2383 4.9803,-1.5646 h 3.1252 c 7.5457,-1.1797 15.8309,-1.2383 23.436,-1.2383 H 80.981 c 11.4973,0 23.5537,1.2718 34.9917,2.51 2.3899,0.059 6.0416,1.9495 7.8131,3.422 l 20.3107,17.2372 46.9011,7.2038 2.181,0.5856 1.5626,1.5646 c 0.4178,0.5857 0.8523,1.2718 1.2367,1.8574 0.8356,2.6272 1.2702,5.7229 1.2702,8.4714 h 0.9108 c 0.8356,0 1.9721,0.6693 2.5069,1.2382 0.084,0.4184 0.3342,1.1212 0.3342,1.5646 0,0.4184 -0.2507,1.1212 -0.3342,1.5646 -0.585,0.836699 -1.6796,1.154599 -2.5069,1.564599 l -2.181,0.3346" />
    <path
       inkscape:connector-curvature="0"
       id="path5170"
       style="fill:#000000;fill-opacity:1;fill-rule:nonzero;stroke:none;stroke-width:29.49747849"
       d="m 147.5593,109.26869 c 0,-8.4119 6.8104,-14.374099 15.0053,-14.374099 6.3675,0 11.6144,4.0161 13.4419,10.123799 l 0.5849,2.0666 v 3.4554 C 176.5914,116.531 169.9315,124 163.7679,124 h -3.4177 c -3.7686,0 -9.0498,-3.7483 -10.9366,-6.8775 -1.2702,-2.0331 -1.8885,-5.4634 -1.8885,-7.84801" />
    <path
       inkscape:connector-curvature="0"
       id="path5172"
       style="fill:#000000;fill-opacity:1;fill-rule:nonzero;stroke:none;stroke-width:29.49747849"
       d="m 19.4439,109.26869 c 0,-8.1743 7.0193,-14.374099 14.9752,-14.374099 6.3926,0 11.6152,4.0161 13.4427,10.123799 l 0.585,2.0666 v 3.4554 c 0,6.16631 -4.7798,11.27511 -10.4946,12.83961 l -2.298,0.5857 H 32.529 c -7.2783,0 -13.1185,-7.9066 -13.1185,-14.72881" />
    <path
       inkscape:connector-curvature="0"
       id="path5174"
       style="fill:#ffffff;fill-opacity:1;fill-rule:nonzero;stroke:none;stroke-width:29.49747849"
       d="m 73.1838,58.589691 -0.585,-1.5646 -1.2701,-0.9455 -1.8551,-0.3346 c -6.6934,0.084 -14.7104,-0.3347 -21.2541,0.5856 -1.1532,0.03 -3.7436,0.6694 -4.6879,1.2718 -0.6685,0.4183 -1.5292,1.3303 -2.181,1.8574 -2.3898,2.7108 -10.3174,9.9464 -10.3174,13.7842 0,2.1837 2.8578,4.6937 4.9803,4.6937 h 35.9636 l 1.8551,-0.3346 1.2701,-1.2383 0.585,-1.5646 v -1.2383 l -2.5069,-15.0241" />
    <path
       inkscape:connector-curvature="0"
       id="path5176"
       style="fill:#ffffff;fill-opacity:1;fill-rule:nonzero;stroke:none;stroke-width:29.49747849"
       d="m 125.3618,77.982091 1.5626,-0.3347 1.5626,-1.2383 0.4179,-1.0374 0.2506,-2.0917 -0.9442,-1.5646 -10.6425,-10.6559 c -0.1671,-0.1673 -2.0891,-1.7988 -2.181,-1.8574 -0.7521,-0.4183 -3.9525,-1.2968 -5.0138,-1.5646 -9.8762,-0.8367 -19.7809,-1.506 -29.6855,-1.8909 -0.8858,0.059 -2.1225,0.6694 -2.7993,1.2718 -0.585,0.753 -0.9109,2.2172 -0.9443,3.1291 0.5014,2.6272 1.3286,17.8279 5.6321,17.8279 h 42.804" />
    <path
       d="m 195.9938,-70.847899 c -1.0613,2.7108 -2.064,5.3966 -3.7436,7.8229 l 1.5626,1.2383 h -9.6982 c 0,-13.8729 -10.259,-22.8454 -23.7309,-22.8454 -12.2336,0 -22.846,14.7288 -19.6924,26.2984 H 55.6741 l 0.3342,-4.0747 c 0,-10.4483 -9.1969,-22.2254 -20.3107,-22.2254 -15.1816,0 -25.2634,11.1864 -23.1409,26.2984 -2.9163,-2.9535 -4.4539,-6.434 -6.8688,-9.7105 H 1 v -3.1291 c 0.084,-0.3347 0.1671,-0.6694 0.3343,-0.9455 l 0.9442,-1.5645 1.2368,-0.9455 c -0.6686,-3.422 -1.2368,-7.0866 -1.2368,-10.6258 0,-1.6817 0.4178,-3.6562 0.585,-5.3128 0.1671,-0.4184 0.752,-1.1797 1.2367,-1.2718 L 29.4221,-115.3062 c 0.7521,-0.5857 1.6796,-1.4475 2.5069,-1.8909 0.9693,-0.502 3.777,-1.2383 4.9803,-1.5646 h 3.1252 C 47.5802,-119.9414 55.8654,-120 63.4705,-120 H 80.981 c 11.4973,0 23.5537,1.2718 34.9917,2.51 2.3899,0.059 6.0416,1.9495 7.8131,3.422 l 20.3107,17.237201 46.9011,7.2038 2.181,0.5856 1.5626,1.5646 c 0.4178,0.5857 0.8523,1.2718 1.2367,1.8574 0.8356,2.6272 1.2702,5.7229 1.2702,8.4714 h 0.9108 c 0.8356,0 1.9721,0.6693 2.5069,1.2382 0.084,0.4184 0.3342,1.1212 0.3342,1.5646 0,0.4184 -0.2507,1.1212 -0.3342,1.5646 -0.585,0.8367 -1.6796,1.1546 -2.5069,1.5646 l -2.181,0.3346"
       style="fill:#000000;fill-opacity:1;fill-rule:nonzero;stroke:none;stroke-width:29.49747849"
       id="path5178"
       inkscape:connector-curvature="0" />
    <path
       d="m 147.5593,-62.731299 c 0,-8.4119 6.8104,-14.3741 15.0053,-14.3741 6.3675,0 11.6144,4.0161 13.4419,10.1238 l 0.5849,2.0666 v 3.4554 c 0,5.9906 -6.6599,13.4596 -12.8235,13.4596 h -3.4177 c -3.7686,0 -9.0498,-3.7483 -10.9366,-6.8775 -1.2702,-2.0331 -1.8885,-5.4634 -1.8885,-7.848"
       style="fill:#000000;fill-opacity:1;fill-rule:nonzero;stroke:none;stroke-width:29.49747849"
       id="path5180"
       inkscape:connector-curvature="0" />
    <path
       d="m 19.4439,-62.731299 c 0,-8.1743 7.0193,-14.3741 14.9752,-14.3741 6.3926,0 11.6152,4.0161 13.4427,10.1238 l 0.585,2.0666 v 3.4554 c 0,6.1663 -4.7798,11.2751 -10.4946,12.8396 l -2.298,0.5857 H 32.529 c -7.2783,0 -13.1185,-7.9066 -13.1185,-14.7288"
       style="fill:#000000;fill-opacity:1;fill-rule:nonzero;stroke:none;stroke-width:29.49747849"
       id="path5182"
       inkscape:connector-curvature="0" />
    <path
       d="m 73.1838,-113.4103 -0.585,-1.5646 -1.2701,-0.9455 -1.8551,-0.3346 c -6.6934,0.084 -14.7104,-0.3347 -21.2541,0.5856 -1.1532,0.03 -3.7436,0.6694 -4.6879,1.2718 -0.6685,0.4183 -1.5292,1.3303 -2.181,1.8574 -2.3898,2.7108 -10.3174,9.9464 -10.3174,13.784201 0,2.1837 2.8578,4.6937 4.9803,4.6937 h 35.9636 l 1.8551,-0.3346 1.2701,-1.2383 0.585,-1.5646 v -1.2383 L 73.1804,-113.4622"
       style="fill:#ffffff;fill-opacity:1;fill-rule:nonzero;stroke:none;stroke-width:29.49747849"
       id="path5184"
       inkscape:connector-curvature="0" />
    <path
       d="m 125.3618,-94.017899 1.5626,-0.3347 1.5626,-1.2383 0.4179,-1.0374 0.2506,-2.0917 -0.9442,-1.564601 -10.6425,-10.6559 c -0.1671,-0.1673 -2.0891,-1.7988 -2.181,-1.8574 -0.7521,-0.4183 -3.9525,-1.2968 -5.0138,-1.5646 -9.8762,-0.8367 -19.7809,-1.506 -29.6855,-1.8909 -0.8858,0.059 -2.1225,0.6694 -2.7993,1.2718 -0.585,0.753 -0.9109,2.2172 -0.9443,3.1291 0.5014,2.6272 1.3286,17.827901 5.6321,17.827901 h 42.804"
       style="fill:#ffffff;fill-opacity:1;fill-rule:nonzero;stroke:none;stroke-width:29.49747849"
       id="path5186"
       inkscape:connector-curvature="0" />
    <path
       style="opacity:1;fill:#000000;fill-opacity:1;stroke:none;stroke-width:15.31669521;stroke-linejoin:round;stroke-miterlimit:4;stroke-dasharray:none;stroke-opacity:1"
       d="m 421.00006,107.90263 7.51673,-161.073799 c 0.49917,-10.6965 8.62089,-19.3289 19.32891,-19.3289 h 266.30875 c 10.70821,0 19.32886,8.6207 19.32886,19.3289 l 7.51675,161.073799 -8.69797,55.839 8.69797,6.4429 v 44.0268 h -27.91943 v 33.2886 H 660.4632 v -33.2886 H 501.53705 v 33.2886 h -52.61742 v -33.2886 h -27.91957 v -44.0268 l 8.69814,-6.4429 z"
       id="rect62424"
       inkscape:connector-curvature="0"
       sodipodi:nodetypes="csssscccccccccccccccc" />
    <path
       inkscape:connector-curvature="0"
       id="path62466"
       style="fill:#ffffff;fill-opacity:1;fill-rule:evenodd;stroke:none;stroke-width:8.1068325"
       d="m 500.46197,-62.303669 h 161.07635 v 35.8691 H 500.46197 Z" />
    <path
       inkscape:connector-curvature="0"
       id="path62472"
       style="fill:#ffffff;fill-opacity:1;fill-rule:evenodd;stroke:none;stroke-width:8.06811428"
       d="M 451.07289,161.16543 H 710.9274 v 11.6 H 451.07289 Z" />
    <path
       style="opacity:1;fill:#ffffff;fill-opacity:1;stroke:none;stroke-width:11.65412235;stroke-linejoin:round;stroke-miterlimit:4;stroke-dasharray:none;stroke-opacity:1"
       d="m 448.07055,-16.230869 h 124.12959 v 103.7309 H 444.41939 c -6.54368,0 -12.04859,-5.2725 -11.81192,-11.8121 l 2.89938,-80.1068 c 0.23639,-6.5396 6.01975,-11.812 12.5637,-11.812 z"
       id="rect62516"
       inkscape:connector-curvature="0"
       sodipodi:nodetypes="sccssss" />
    <circle
       style="opacity:1;fill:#ffffff;fill-opacity:1;stroke:none;stroke-width:3.80764866;stroke-linejoin:round;stroke-miterlimit:4;stroke-dasharray:none;stroke-opacity:1"
       id="path62560"
       cx="453.53461"
       cy="137.43088"
       r="12.134543" />
    <circle
       r="12.134543"
       cy="137.43088"
       cx="488.97467"
       id="circle5127"
       style="opacity:1;fill:#ffffff;fill-opacity:1;stroke:none;stroke-width:3.80764866;stroke-linejoin:round;stroke-miterlimit:4;stroke-dasharray:none;stroke-opacity:1" />
    <circle
       r="12.134543"
       cy="137.43088"
       cx="673.02557"
       id="circle5131"
       style="opacity:1;fill:#ffffff;fill-opacity:1;stroke:none;stroke-width:3.80764866;stroke-linejoin:round;stroke-miterlimit:4;stroke-dasharray:none;stroke-opacity:1" />
    <circle
       style="opacity:1;fill:#ffffff;fill-opacity:1;stroke:none;stroke-width:3.80764866;stroke-linejoin:round;stroke-miterlimit:4;stroke-dasharray:none;stroke-opacity:1"
       id="circle5133"
       cx="708.46545"
       cy="137.43088"
       r="12.134543" />
    <path
       sodipodi:nodetypes="sccssss"
       inkscape:connector-curvature="0"
       id="path5155"
       d="M 713.92972,-16.230869 H 589.8001 v 103.7309 h 127.78061 c 6.54383,0 12.04866,-5.2725 11.812,-11.8121 l -2.89932,-80.1068 c -0.23667,-6.5396 -6.01982,-11.812 -12.56367,-11.812 z"
       style="opacity:1;fill:#ffffff;fill-opacity:1;stroke:none;stroke-width:11.65412235;stroke-linejoin:round;stroke-miterlimit:4;stroke-dasharray:none;stroke-opacity:1" />
  </g>
</svg>
