<?xml version="1.0" encoding="UTF-8" standalone="no"?>
<!-- Created with Inkscape (http://www.inkscape.org/) -->

<svg
   xmlns:dc="http://purl.org/dc/elements/1.1/"
   xmlns:cc="http://creativecommons.org/ns#"
   xmlns:rdf="http://www.w3.org/1999/02/22-rdf-syntax-ns#"
   xmlns:svg="http://www.w3.org/2000/svg"
   xmlns="http://www.w3.org/2000/svg"
   xmlns:sodipodi="http://sodipodi.sourceforge.net/DTD/sodipodi-0.dtd"
   xmlns:inkscape="http://www.inkscape.org/namespaces/inkscape"
   width="534mm"
   height="602mm"
   viewBox="0 0 534 602"
   version="1.1"
   id="svg850"
   inkscape:version="0.92.2 (5c3e80d, 2017-08-06)"
   sodipodi:docname="22.svg">
  <defs
     id="defs844">
    <pattern
       y="0"
       x="0"
       height="6"
       width="6"
       patternUnits="userSpaceOnUse"
       id="EMFhbasepattern" />
    <pattern
       y="0"
       x="0"
       height="6"
       width="6"
       patternUnits="userSpaceOnUse"
       id="EMFhbasepattern-3" />
  </defs>
  <sodipodi:namedview
     id="base"
     pagecolor="#ffffff"
     bordercolor="#666666"
     borderopacity="1.0"
     inkscape:pageopacity="0.0"
     inkscape:pageshadow="2"
     inkscape:zoom="0.23125"
     inkscape:cx="1616.21"
     inkscape:cy="870.49227"
     inkscape:document-units="mm"
     inkscape:current-layer="layer1"
     showgrid="false"
     fit-margin-top="0"
     fit-margin-left="0"
     fit-margin-right="0"
     fit-margin-bottom="0"
     inkscape:window-width="1920"
     inkscape:window-height="1057"
     inkscape:window-x="-8"
     inkscape:window-y="-8"
     inkscape:window-maximized="1"
     inkscape:snap-global="true"
     inkscape:lockguides="true"
     inkscape:measure-start="0,0"
     inkscape:measure-end="0,0" />
  <metadata
     id="metadata847">
    <rdf:RDF>
      <cc:Work
         rdf:about="">
        <dc:format>image/svg+xml</dc:format>
        <dc:type
           rdf:resource="http://purl.org/dc/dcmitype/StillImage" />
        <dc:title></dc:title>
      </cc:Work>
    </rdf:RDF>
  </metadata>
  <g
     inkscape:label="Layer 1"
     inkscape:groupmode="layer"
     id="layer1"
     transform="translate(-65.889884,311.83554)">
    <path
       style="opacity:1;fill:#000000;fill-opacity:1;stroke:none;stroke-width:29.03138161;stroke-linejoin:round;stroke-miterlimit:4;stroke-dasharray:none;stroke-opacity:1"
       d="M 591.89648,-62.585579 564.17259,-270.0856 c -2.75128,-20.59163 -11.48854,-35.24591 -32.21975,-36.24994 l -92.9127,-4.5 H 226.73973 l -92.91277,4.5 c -20.73121,1.00403 -29.46843,15.65831 -32.21971,36.24994 L 73.883364,-62.585579 V 109.16446 l -6.99348,12 v 60 h 11.48926 l 13.48731,13.75001 v 94.24999 h 74.929566 v -94.24999 h 332.18776 v 94.24999 h 74.92961 v -94.24999 l 13.48734,-13.75001 h 11.48915 v -60 l -6.9934,-12 z"
       id="rect24224"
       inkscape:connector-curvature="0"
       sodipodi:nodetypes="cssccsscccccccccccccccccc" />
    <path
       d="m 255.46271,158.16455 v -30 H 100.60823 v -9 h 464.56342 v 9 H 410.31716 v 30 z"
       style="fill:#ffffff;fill-opacity:1;fill-rule:evenodd;stroke:none;stroke-width:19.11389351"
       id="path24260"
       inkscape:connector-curvature="0"
       sodipodi:nodetypes="ccccccccc" />
    <rect
       style="opacity:1;fill:#ffffff;fill-opacity:1;stroke:none;stroke-width:17.95809555;stroke-linejoin:round;stroke-miterlimit:4;stroke-dasharray:none;stroke-opacity:1"
       id="rect24296"
       width="89.415955"
       height="48.25"
       x="100.60789"
       y="52.414421" />
    <rect
       y="52.414421"
       x="475.75546"
       height="48.25"
       width="89.415955"
       id="rect24309"
       style="opacity:1;fill:#ffffff;fill-opacity:1;stroke:none;stroke-width:17.95809555;stroke-linejoin:round;stroke-miterlimit:4;stroke-dasharray:none;stroke-opacity:1" />
    <path
       style="opacity:1;fill:#ffffff;fill-opacity:1;stroke:none;stroke-width:37.25982285;stroke-linejoin:round;stroke-miterlimit:4;stroke-dasharray:none;stroke-opacity:1"
       d="m 530.95341,-285.83545 -109.89665,-5.00006 H 246.22142 l -109.89676,5.00006 c -5.52908,0.25125 -9.23142,4.51237 -9.99058,9.99994 l -24.90231,180 c -0.75894,5.48767 4.45584,9.99997 9.99057,9.99997 h 444.43338 c 5.53473,0 10.74974,-4.5123 9.99054,-9.99997 l -24.90224,-180 c -0.75901,-5.48768 -4.45576,-9.99994 -9.99061,-9.99994 z"
       id="rect24332"
       inkscape:connector-curvature="0"
       sodipodi:nodetypes="sccssssssss" />
    <path
       style="fill:#000000;fill-opacity:1;stroke:none;stroke-width:0.86895263"
       d="m 193.77105,-115.83543 c -41.66712,-0.0566 -50.03077,29.9604 -65.18915,29.99989 h -27.22404 v 9.999981 h 184.8263 v -9.999981 h -27.224 c -15.15828,-0.0379 -23.52193,-30.05261 -65.18911,-29.99989 z"
       id="path16"
       inkscape:connector-curvature="0"
       sodipodi:nodetypes="cccccccc" />
  </g>
</svg>
