<svg xmlns="http://www.w3.org/2000/svg" viewBox="0 0 963 963" version="1.1">
  <g transform="translate(-105.6,500)">
    <g fill="#000">
      <circle cx="299.2" cy="392" r="72"/>
      <circle cx="726.4" cy="392" r="72"/>
      <path d="m 990.2,-398.6 c 0,0 -5.5,5.5 -11,5.5 -60.3,131.7 -192,455.4 -164.6,658.4 1,14 0.3,27.5 -16.5,27.4 H 249.4 c -25.1,0 -21.6,-16.5 -21.8,-25.9 -0.1,-11.5 3.7,-23.3 21.8,-23.4 h 499.4 c 8.3,0.3 16.5,-17.6 16.5,-27.5 V 150.1 L 748.8,128.1 H 244.2 c -26.7,0 -39.6,-12.8 -49.4,-38.4 0,0 -87.8,-252 -87.8,-257.5 0.3,-39.4 29.7,-44 43.9,-44.3 l 718.6,-87.8 c 11.9,-1.6 28.8,-12 38.4,-38.4 l 22,-71.3 c 5.5,-12.3 6.2,-13.6 16.5,-22 0,0 80.3,-65.8 93.2,-65.8 h 11 l 16.5,27.5 -5.5,5.4 c 0,5.5 -5.5,11 -5.5,11 l -11,11 z"/>
    </g>
    <g fill="#FFF">
      <path d="m 167.4,-145.6 h 109.7 v 98.7 h -76.8 l -32.9,-87.8 z"/>
      <path d="m 238.7,56.8 L 211.2,-14.4 h 65.8 V 78.7 h -16.5 c -11.5,0.2 -15.5,-4.8 -21.9,-21.9 z"/>
      <path d="m 304.5,-47.5 h 87.8 V -146.2 H 304.5 z"/>
      <path d="m 304.5,78.7 h 87.8 V -14.6 H 304.5 z"/>
      <path d="m 392.3,-195.6 v 22 H 304.5 v -11 z"/>
      <path d="m 419.7,-47.5 h 87.8 v -98.7 h -87.8 z"/>
      <path d="m 419.7,78.7 h 87.8 V -14.6 h -87.8 z"/>
      <path d="m 507.5,-206.6 v 32.9 h -87.8 v -22 z"/>
      <path d="m 534.9,-47.5 h 87.8 v -98.7 h -87.8 z"/>
      <path d="m 534.9,78.7 h 87.8 V -14.6 h -87.8 z"/>
      <path d="m 622.7,-223 v 49.4 h -87.8 v -38.4 z"/>
      <path d="m 650.1,-47.5 h 87.8 v -98.7 h -87.8 z"/>
      <path d="m 650.1,78.7 h 87.8 V -14.6 h -87.8 z"/>
      <path d="m 737.8,-234 v 60.3 h -87.8 v -49.4 z"/>
      <path id="top-rig" d="m 765.3,-239.5 76.8,-11 c 16.8,-2 27.4,3.1 27.4,16.5 v 16.5 l -11,43.9 h -93.3 z"/>
      <path id="bot-rig" d="m 809.1,-14.4 L 787.2,40.3 c 0,5.5 0,5.5 0,11 l -11,11 c 0,0 -5.5,5.5 -11,5.5 V -14.4 z"/>
      <path id="mid-rig" d="m 847.6,-146.2 l -32.9,98.7 h -49.4 v -99.2 z"/>
    </g>
  </g>
</svg>