<?xml version="1.0" encoding="UTF-8" standalone="no"?>
<!-- Created with Inkscape (http://www.inkscape.org/) -->

<svg
   xmlns:dc="http://purl.org/dc/elements/1.1/"
   xmlns:cc="http://creativecommons.org/ns#"
   xmlns:rdf="http://www.w3.org/1999/02/22-rdf-syntax-ns#"
   xmlns:svg="http://www.w3.org/2000/svg"
   xmlns="http://www.w3.org/2000/svg"
   xmlns:sodipodi="http://sodipodi.sourceforge.net/DTD/sodipodi-0.dtd"
   xmlns:inkscape="http://www.inkscape.org/namespaces/inkscape"
   width="602mm"
   height="562mm"
   viewBox="0 0 602 562"
   version="1.1"
   id="svg850"
   inkscape:version="0.92.2 (5c3e80d, 2017-08-06)"
   sodipodi:docname="22.svg">
  <defs
     id="defs844">
    <pattern
       y="0"
       x="0"
       height="6"
       width="6"
       patternUnits="userSpaceOnUse"
       id="EMFhbasepattern" />
    <pattern
       y="0"
       x="0"
       height="6"
       width="6"
       patternUnits="userSpaceOnUse"
       id="EMFhbasepattern-3" />
    <pattern
       y="0"
       x="0"
       height="6"
       width="6"
       patternUnits="userSpaceOnUse"
       id="EMFhbasepattern-5" />
    <pattern
       y="0"
       x="0"
       height="6"
       width="6"
       patternUnits="userSpaceOnUse"
       id="EMFhbasepattern-1" />
  </defs>
  <sodipodi:namedview
     id="base"
     pagecolor="#ffffff"
     bordercolor="#666666"
     borderopacity="1.0"
     inkscape:pageopacity="0.0"
     inkscape:pageshadow="2"
     inkscape:zoom="0.25783343"
     inkscape:cx="1140.0663"
     inkscape:cy="1059.8714"
     inkscape:document-units="mm"
     inkscape:current-layer="layer1"
     showgrid="false"
     fit-margin-top="0"
     fit-margin-left="0"
     fit-margin-right="0"
     fit-margin-bottom="0"
     inkscape:window-width="1920"
     inkscape:window-height="1057"
     inkscape:window-x="-8"
     inkscape:window-y="-8"
     inkscape:window-maximized="1"
     inkscape:snap-global="false"
     inkscape:lockguides="true"
     inkscape:measure-start="0,0"
     inkscape:measure-end="0,0" />
  <metadata
     id="metadata847">
    <rdf:RDF>
      <cc:Work
         rdf:about="">
        <dc:format>image/svg+xml</dc:format>
        <dc:type
           rdf:resource="http://purl.org/dc/dcmitype/StillImage" />
        <dc:title></dc:title>
      </cc:Work>
    </rdf:RDF>
  </metadata>
  <g
     inkscape:label="Layer 1"
     inkscape:groupmode="layer"
     id="layer1"
     transform="translate(-65.889884,271.83554)">
    <path
       d="m 286.39951,-135.52267 c 5.09112,-2.40744 8.49037,-9.43663 8.49037,-14.8311 0,-7.34125 -10.07359,-14.88906 -16.97454,-14.88906 -11.82755,0 -26.17427,7.44528 -41.45074,7.44528 -11.61024,0 -29.0225,-11.01187 -37.67431,-18.61171 -11.11354,-9.70411 -68.88381,-36.22622 -83.83277,-36.22622 -9.68555,0 -21.027258,4.29478 -30.171104,7.44528 -5.696459,6.13752 -11.004893,13.15182 -15.056052,20.44551 1.6453,3.77466 -2.84048,7.92083 -2.84048,12.05214 l 1.924701,3.71519 c 5.696459,3.61119 12.262139,2.77898 18.781273,2.77898 h 5.696458 c 15.226804,-8.38151 16.482504,-12.05213 34.880384,-12.05213 2.25066,0 26.83084,13.16669 34.82608,15.78071 43.58653,14.31097 57.54986,13.93945 101.73862,13.93945 1.08652,0 2.68525,0.74304 3.77178,0.89166 l 2.84047,2.77896 v 4.66631 c -2.07991,2.77898 -6.56568,3.87867 -7.55906,5.55794 l 22.61513,-0.89164"
       style="fill:#000000;fill-opacity:1;fill-rule:nonzero;stroke:none;stroke-width:53.57873535"
       id="path2200"
       inkscape:connector-curvature="0" />
    <path
       style="fill:#000000;fill-opacity:1;fill-rule:nonzero;stroke:none;stroke-width:53.78922653"
       d="m 618.88971,-100.8355 c -12.12334,34.773291 -14.2999,71.138129 -14.2999,107.6001462 0,83.4780518 34.6091,203.9355138 62.30007,282.3998138 H 396.88981 C 424.5808,210.70016 459.1899,90.242698 459.1899,6.7646462 459.1899,-29.697371 457.01334,-66.062206 444.89,-100.8355 Z"
       id="path2202"
       inkscape:connector-curvature="0"
       sodipodi:nodetypes="csccscc" />
    <path
       d="m 506.41754,-206.58493 c 25.32536,-1.72708 95.27234,4.61548 95.27234,41.91308 0,14.75467 -38.866,28.83637 -49.99343,28.83637 h -45.27891 c 16.77428,-6.04479 38.20714,-11.86627 51.85654,-24.16133 l 0.93234,-5.62791 c 0,-25.42091 -82.82876,-18.64508 -98.12375,-19.5384 -39.79832,-2.30775 -71.15279,-23.268 -111.28055,-23.268 -15.78755,0 -29.38258,7.39966 -44.34657,10.2434 -26.80623,5.09193 -65.34436,1.8313 -93.35639,1.8313 -13.59658,0 -46.92294,-20.11757 -82.06114,-23.268 -13.98505,-1.1911 -44.348136,-13.3998 -44.348136,-30.72723 0,-15.91451 32.780936,-20.48383 44.348136,-20.48383 44.62162,0 38.70128,29.83391 132.98846,29.83391 3.01455,0 15.56691,3.67751 16.99338,6.50634 2.14437,1.04221 5.2677,3.09685 7.5053,3.67751 2.57946,0.74442 11.01711,1.19108 14.14044,0.89333 10.51985,-2.67997 22.20048,-4.6304 33.05442,-4.6304 h 12.22915 c 8.22009,0 26.47679,9.93076 33.00004,14.8589 23.84606,6.67012 52.51695,14.91696 77.34818,14.91696 h 26.42242 c 7.28776,0 15.29031,-1.1911 22.64023,-1.89086"
       style="fill:#000000;fill-opacity:1;fill-rule:nonzero;stroke:none;stroke-width:53.65865707"
       id="path2204"
       inkscape:connector-curvature="0" />
    <rect
       style="opacity:1;fill:#000000;fill-opacity:1;fill-rule:nonzero;stroke:none;stroke-width:0.18069868;stroke-linecap:butt;stroke-linejoin:miter;stroke-miterlimit:4;stroke-dasharray:none;stroke-opacity:1;paint-order:stroke fill markers"
       id="rect2110"
       width="200"
       height="13"
       x="431.88989"
       y="-127.83548" />
    <path
       sodipodi:nodetypes="csccscc"
       inkscape:connector-curvature="0"
       id="path2130"
       d="m 348.88971,-100.8355 c -12.12335,34.773291 -14.29991,71.138129 -14.29991,107.6001462 0,83.4780518 34.60911,203.9355138 62.30008,282.3998138 H 126.88981 C 154.58079,210.70016 189.1899,90.242698 189.1899,6.7646462 c 0,-36.4620172 -2.17657,-72.8268522 -14.29991,-107.6001462 z"
       style="fill:#000000;fill-opacity:1;fill-rule:nonzero;stroke:none;stroke-width:53.78922653" />
    <rect
       y="-127.83548"
       x="161.88986"
       height="13"
       width="200"
       id="rect2132"
       style="opacity:1;fill:#000000;fill-opacity:1;fill-rule:nonzero;stroke:none;stroke-width:0.18069868;stroke-linecap:butt;stroke-linejoin:miter;stroke-miterlimit:4;stroke-dasharray:none;stroke-opacity:1;paint-order:stroke fill markers" />
  </g>
</svg>
