<?xml version="1.0" encoding="UTF-8" standalone="no"?>
<!-- Created with Inkscape (http://www.inkscape.org/) -->

<svg
   xmlns:dc="http://purl.org/dc/elements/1.1/"
   xmlns:cc="http://creativecommons.org/ns#"
   xmlns:rdf="http://www.w3.org/1999/02/22-rdf-syntax-ns#"
   xmlns:svg="http://www.w3.org/2000/svg"
   xmlns="http://www.w3.org/2000/svg"
   xmlns:sodipodi="http://sodipodi.sourceforge.net/DTD/sodipodi-0.dtd"
   xmlns:inkscape="http://www.inkscape.org/namespaces/inkscape"
   width="602mm"
   height="562mm"
   viewBox="0 0 602 562"
   version="1.1"
   id="svg850"
   inkscape:version="0.92.2 (5c3e80d, 2017-08-06)"
   sodipodi:docname="22.svg">
  <defs
     id="defs844">
    <pattern
       y="0"
       x="0"
       height="6"
       width="6"
       patternUnits="userSpaceOnUse"
       id="EMFhbasepattern" />
    <pattern
       y="0"
       x="0"
       height="6"
       width="6"
       patternUnits="userSpaceOnUse"
       id="EMFhbasepattern-3" />
    <pattern
       y="0"
       x="0"
       height="6"
       width="6"
       patternUnits="userSpaceOnUse"
       id="EMFhbasepattern-5" />
    <pattern
       y="0"
       x="0"
       height="6"
       width="6"
       patternUnits="userSpaceOnUse"
       id="EMFhbasepattern-1" />
  </defs>
  <sodipodi:namedview
     id="base"
     pagecolor="#ffffff"
     bordercolor="#666666"
     borderopacity="1.0"
     inkscape:pageopacity="0.0"
     inkscape:pageshadow="2"
     inkscape:zoom="0.32411692"
     inkscape:cx="912.27781"
     inkscape:cy="1118.353"
     inkscape:document-units="mm"
     inkscape:current-layer="layer1"
     showgrid="false"
     fit-margin-top="0"
     fit-margin-left="0"
     fit-margin-right="0"
     fit-margin-bottom="0"
     inkscape:window-width="1920"
     inkscape:window-height="1057"
     inkscape:window-x="-8"
     inkscape:window-y="-8"
     inkscape:window-maximized="1"
     inkscape:snap-global="false"
     inkscape:lockguides="true"
     inkscape:measure-start="0,0"
     inkscape:measure-end="0,0" />
  <metadata
     id="metadata847">
    <rdf:RDF>
      <cc:Work
         rdf:about="">
        <dc:format>image/svg+xml</dc:format>
        <dc:type
           rdf:resource="http://purl.org/dc/dcmitype/StillImage" />
        <dc:title></dc:title>
      </cc:Work>
    </rdf:RDF>
  </metadata>
  <g
     inkscape:label="Layer 1"
     inkscape:groupmode="layer"
     id="layer1"
     transform="translate(-65.889884,271.83554)">
    <path
       id="path837"
       d="M 66.889884,289.16446 H 666.88988 v -230.4 l -149.4,-80 -55,80 -146,-80 -55,80 -146,-80 -48.599996,80 z"
       style="fill:#000000;fill-opacity:1;fill-rule:nonzero;stroke:none;stroke-width:40.26984406"
       inkscape:connector-curvature="0"
       sodipodi:nodetypes="cccccccccc" />
    <path
       id="path839"
       d="m 216.06988,-130.03554 -6.48,134.4 51.9,28.8 -6.5,-163.2 z"
       style="fill:#000000;fill-opacity:1;fill-rule:nonzero;stroke:none;stroke-width:40.26984406"
       inkscape:connector-curvature="0"
       sodipodi:nodetypes="ccccc" />
    <path
       id="path841"
       d="m 384.76988,-190.83554 -6.48,176 48.6,28.8 -3.2,-204.8 z"
       style="fill:#000000;fill-opacity:1;fill-rule:nonzero;stroke:none;stroke-width:40.26984406"
       inkscape:connector-curvature="0"
       sodipodi:nodetypes="ccccc" />
    <path
       id="path843"
       d="m 280.9056,-242.04107 c -16.21593,-3.2051 -29.18806,-6.39508 -42.16173,-6.39508 -3.2484,0 -9.72987,3.2051 -12.97827,3.2051 h -12.97826 c 0,0 -12.97827,-3.2051 -12.97827,-3.2051 -19.45972,-12.80527 -42.16326,-19.20034 -64.86526,-22.39939 -9.72987,0 -38.919467,0 -45.40553,9.60017 l -3.248396,6.39507 c 6.481463,15.99979 22.701986,31.99957 38.919466,31.99957 12.97825,0 19.45972,-6.39507 29.18959,-6.39507 9.72987,0 22.70201,25.59996 45.40554,25.59996 16.21594,0 32.43187,-9.60018 45.40553,-9.60018 12.97827,0 25.9458,9.60018 42.16175,9.60018 9.72985,0 29.18959,-9.60018 42.16326,-9.60018 35.67567,0 51.8916,19.20034 84.32499,19.20034 3.2484,0 6.48148,-3.2051 9.72987,-6.39507 v -6.39507 l -6.48147,-3.2051 c -19.45973,-9.60018 -25.94733,-3.2051 -48.64932,-19.20035 -9.72987,-6.39507 -22.70354,-12.80526 -38.91947,-12.80526 -9.72987,0 -19.45974,6.39506 -32.43187,6.39506 -3.2484,0 -12.97827,-3.20509 -16.21747,-6.39506 z"
       style="fill:#000000;fill-opacity:1;fill-rule:nonzero;stroke:none;stroke-width:40.27000809"
       inkscape:connector-curvature="0" />
    <path
       id="path845"
       d="m 99.232344,-210.05018 c -6.479108,3.20503 -16.210024,6.39492 -22.695249,12.80495 -3.247211,3.20502 -3.247211,6.39493 -3.247211,12.80497 3.247211,9.59994 9.726318,9.59994 19.452626,9.59994 9.72631,0 16.21155,-9.59994 29.17895,-9.59994 3.24721,0 6.4791,0 9.72631,0 9.72632,6.39492 12.97353,12.80496 25.93633,15.99939 25.93787,9.59994 19.45264,-3.20502 51.8742,22.40037 6.47911,6.39492 6.47911,9.59994 16.21002,12.80496 l 22.69525,-3.20502 3.24721,3.20502 c 3.24721,-3.20502 6.4791,-6.39492 6.4791,-9.59995 0,-3.20501 -3.24721,-6.39492 -6.4791,-6.39492 -25.93634,0 -29.17895,-3.20501 -48.63158,-22.40035 -3.24721,-3.20502 -6.47911,-6.39492 -9.72632,-9.59995 -12.97353,-9.59993 -42.14788,-25.59934 -58.3579,-28.79981 -3.24721,0 -12.97352,-3.20502 -19.45263,-3.20502 -3.24721,0 -9.72631,3.20502 -16.210006,3.20502 z"
       style="fill:#000000;fill-opacity:1;fill-rule:nonzero;stroke:none;stroke-width:40.26216888"
       inkscape:connector-curvature="0" />
    <rect
       style="opacity:1;fill:#ffffff;fill-opacity:1;fill-rule:nonzero;stroke:none;stroke-width:0.13408081;stroke-linecap:butt;stroke-linejoin:miter;stroke-miterlimit:4;stroke-dasharray:none;stroke-opacity:1;paint-order:stroke fill markers"
       id="rect868"
       width="100"
       height="100"
       x="134.88988"
       y="122.16446" />
    <rect
       y="122.16446"
       x="498.88989"
       height="100"
       width="100"
       id="rect899"
       style="opacity:1;fill:#ffffff;fill-opacity:1;fill-rule:nonzero;stroke:none;stroke-width:0.13408081;stroke-linecap:butt;stroke-linejoin:miter;stroke-miterlimit:4;stroke-dasharray:none;stroke-opacity:1;paint-order:stroke fill markers" />
    <rect
       style="opacity:1;fill:#ffffff;fill-opacity:1;fill-rule:nonzero;stroke:none;stroke-width:0.13408081;stroke-linecap:butt;stroke-linejoin:miter;stroke-miterlimit:4;stroke-dasharray:none;stroke-opacity:1;paint-order:stroke fill markers"
       id="rect910"
       width="100"
       height="100"
       x="316.88989"
       y="122.16446" />
  </g>
</svg>
