<?xml version="1.0" encoding="UTF-8" standalone="no"?>
<!-- Created with Inkscape (http://www.inkscape.org/) -->

<svg
   xmlns:dc="http://purl.org/dc/elements/1.1/"
   xmlns:cc="http://creativecommons.org/ns#"
   xmlns:rdf="http://www.w3.org/1999/02/22-rdf-syntax-ns#"
   xmlns:svg="http://www.w3.org/2000/svg"
   xmlns="http://www.w3.org/2000/svg"
   xmlns:sodipodi="http://sodipodi.sourceforge.net/DTD/sodipodi-0.dtd"
   xmlns:inkscape="http://www.inkscape.org/namespaces/inkscape"
   width="602mm"
   height="602mm"
   viewBox="0 0 602.00002 602.00001"
   version="1.1"
   id="svg850"
   inkscape:version="0.92.2 (5c3e80d, 2017-08-06)"
   sodipodi:docname="22.svg">
  <defs
     id="defs844">
    <pattern
       y="0"
       x="0"
       height="6"
       width="6"
       patternUnits="userSpaceOnUse"
       id="EMFhbasepattern" />
    <pattern
       y="0"
       x="0"
       height="6"
       width="6"
       patternUnits="userSpaceOnUse"
       id="EMFhbasepattern-3" />
    <pattern
       y="0"
       x="0"
       height="6"
       width="6"
       patternUnits="userSpaceOnUse"
       id="EMFhbasepattern-5" />
    <pattern
       y="0"
       x="0"
       height="6"
       width="6"
       patternUnits="userSpaceOnUse"
       id="EMFhbasepattern-1" />
    <pattern
       y="0"
       x="0"
       height="6"
       width="6"
       patternUnits="userSpaceOnUse"
       id="EMFhbasepattern-18" />
  </defs>
  <sodipodi:namedview
     id="base"
     pagecolor="#ffffff"
     bordercolor="#666666"
     borderopacity="1.0"
     inkscape:pageopacity="0.0"
     inkscape:pageshadow="2"
     inkscape:zoom="0.18231577"
     inkscape:cx="1694.7308"
     inkscape:cy="723.51477"
     inkscape:document-units="mm"
     inkscape:current-layer="layer1"
     showgrid="false"
     fit-margin-top="0"
     fit-margin-left="0"
     fit-margin-right="0"
     fit-margin-bottom="0"
     inkscape:window-width="1920"
     inkscape:window-height="1057"
     inkscape:window-x="-8"
     inkscape:window-y="-8"
     inkscape:window-maximized="1"
     inkscape:snap-global="false"
     inkscape:lockguides="true"
     inkscape:measure-start="0,0"
     inkscape:measure-end="0,0" />
  <metadata
     id="metadata847">
    <rdf:RDF>
      <cc:Work
         rdf:about="">
        <dc:format>image/svg+xml</dc:format>
        <dc:type
           rdf:resource="http://purl.org/dc/dcmitype/StillImage" />
        <dc:title></dc:title>
      </cc:Work>
    </rdf:RDF>
  </metadata>
  <g
     inkscape:label="Layer 1"
     inkscape:groupmode="layer"
     id="layer1"
     transform="translate(-425.88988,464.43554)">
    <path
       id="path850"
       d="M 566.88988,136.56446 V 0.96445697 h 142.6 V 17.964456 l -72.6,13.6 V 136.56446 Z"
       style="fill:#000000;fill-opacity:1;fill-rule:nonzero;stroke:none;stroke-width:42.98422241"
       inkscape:connector-curvature="0"
       sodipodi:nodetypes="ccccccc" />
    <path
       id="path858"
       d="m 904.88988,-151.43554 7,-14 48.8,-3 v -30.6 c 0.20817,-7.39985 1.0098,-10.2 10.4,-10.2 h 27.8 c 11.59692,0.03 10.37292,3.53467 10.60002,10.2 v 6.8 h 17.4 v 67.8 h -14 c -6.9661,-6.77626 -17.34241,-10.2 -27.80002,-10.2 -6.96625,0 -20.91524,3.41987 -24.4,6.8 v -23.6 z"
       style="fill:#000000;fill-opacity:1;fill-rule:evenodd;stroke:none;stroke-width:42.97511673"
       inkscape:connector-curvature="0"
       sodipodi:nodetypes="ccccsccccccsccc" />
    <path
       id="path860"
       d="m 804.28988,-43.235544 45.4,-10.2 v -34 h -62.8 v -10 l 62.8,-3.599996 v -30.4 c 0.30594,-6.82381 2.84289,-10.17404 10.4,-10.2 h 34.8 c 7.1948,0.005 6.95229,4.92597 7,10.2 v 3.4 h 14.00002 v 91.599996 l -35,3.4 v 17 h -76.6 z"
       style="fill:#000000;fill-opacity:1;fill-rule:nonzero;stroke:none;stroke-width:43.01210022"
       inkscape:connector-curvature="0"
       sodipodi:nodetypes="ccccccccccccccccc" />
    <path
       id="path864"
       d="m 426.88988,-463.43554 400,40 v 220 L 573.40092,-90.561314 v -23.729016 l 97.67405,-88.13389 -31.39559,-33.89678 -87.2895,50.88546 0.0807,-13.60476 c 0.16077,-27.11727 -27.90759,-51.06383 -52.32596,-50.84678 -18.77174,0.16685 -67.42734,11.85752 -55.80831,71.45154 h -17.44149 z"
       style="fill:#000000;fill-opacity:1;fill-rule:nonzero;stroke:none;stroke-width:42.98422241"
       inkscape:connector-curvature="0"
       sodipodi:nodetypes="ccccccccssccc" />
    <path
       style="opacity:1;fill:#000000;fill-opacity:1;fill-rule:nonzero;stroke:none;stroke-width:0.26574233;stroke-linecap:butt;stroke-linejoin:miter;stroke-miterlimit:4;stroke-dasharray:none;stroke-opacity:1;paint-order:stroke fill markers"
       d="m 544.38988,-160.43554 h -94 c -7.202,0 -13,5.798 -13,13 v 113.999996 l 20,20 V 136.56446 h 79.99999 V -13.435544 l 20,-20 V -147.43554 c 0,-7.202 -5.798,-13 -12.99999,-13 z"
       id="path1003"
       inkscape:connector-curvature="0"
       sodipodi:nodetypes="sssccccccss" />
    <circle
       style="opacity:1;fill:#000000;fill-opacity:1;fill-rule:nonzero;stroke:none;stroke-width:0.26307097;stroke-linecap:butt;stroke-linejoin:miter;stroke-miterlimit:4;stroke-dasharray:none;stroke-opacity:1;paint-order:stroke fill markers"
       id="circle1005"
       cx="497.38989"
       cy="-195.43553"
       r="38.000004" />
    <path
       inkscape:connector-curvature="0"
       style="fill:#000000;fill-opacity:1;fill-rule:evenodd;stroke:none;stroke-width:42.98422241"
       d="m 555.95949,-124.45969 90.69779,-77.96453 -10.46519,-10.16935 -98.54045,54.83768 z"
       id="path893"
       sodipodi:nodetypes="ccccc" />
    <path
       inkscape:connector-curvature="0"
       style="fill:#000000;fill-opacity:1;fill-rule:nonzero;stroke:none;stroke-width:42.98422241"
       d="m 719.68988,-53.235544 v 30.4 l -62.8,3.4 v 10.200001 h 62.8 v 33.999999 l -62.8,13.5 v 98.300004 h 7 c 10.97684,0 14,-16.9 14,-16.9 l 7,-57.700004 h 10.4 v 10.19994 h 91.6 v -118.59994 h -14.9 v -6.8 c -0.0321,-4.44636 0.5677,-10.18548 -6.9,-10.2 h -38.4 c -5.97706,0.0197 -6.9554,5.3213 -7,10.2 z"
       id="path913"
       sodipodi:nodetypes="ccccccccsccccccccccc" />
    <path
       sodipodi:nodetypes="ccccccc"
       inkscape:connector-curvature="0"
       style="fill:#000000;fill-opacity:1;fill-rule:nonzero;stroke:none;stroke-width:42.98422241"
       d="M 806.88988,136.56446 V 0.96445697 h 142.6 V 17.964456 l -72.6,13.6 V 136.56446 Z"
       id="path944" />
    <path
       sodipodi:nodetypes="ccccccccsccccccccccc"
       id="path946"
       d="m 959.68988,-53.235544 v 30.4 l -62.8,3.4 v 10.200001 h 62.8 v 33.999999 l -62.8,13.5 v 98.300004 h 7 c 10.97684,0 14,-16.9 14,-16.9 l 7,-57.700004 h 10.4 v 10.19994 h 91.60002 v -118.59994 h -14.9 v -6.8 c -0.032,-4.44636 0.5677,-10.18548 -6.9,-10.2 h -38.40002 c -5.97706,0.0197 -6.9554,5.3213 -7,10.2 z"
       style="fill:#000000;fill-opacity:1;fill-rule:nonzero;stroke:none;stroke-width:42.98422241"
       inkscape:connector-curvature="0" />
    <circle
       r="25.5"
       cy="-91.935555"
       cx="985.38989"
       id="circle948"
       style="opacity:1;fill:#000000;fill-opacity:1;fill-rule:nonzero;stroke:none;stroke-width:0.21131948;stroke-linecap:butt;stroke-linejoin:miter;stroke-miterlimit:4;stroke-dasharray:none;stroke-opacity:1;paint-order:stroke fill markers" />
    <circle
       r="25.5"
       cy="-91.935555"
       cx="745.38989"
       id="circle986"
       style="opacity:1;fill:#000000;fill-opacity:1;fill-rule:nonzero;stroke:none;stroke-width:0.21131948;stroke-linecap:butt;stroke-linejoin:miter;stroke-miterlimit:4;stroke-dasharray:none;stroke-opacity:1;paint-order:stroke fill markers" />
    <circle
       style="opacity:1;fill:#000000;fill-opacity:1;fill-rule:nonzero;stroke:none;stroke-width:0.21131948;stroke-linecap:butt;stroke-linejoin:miter;stroke-miterlimit:4;stroke-dasharray:none;stroke-opacity:1;paint-order:stroke fill markers"
       id="circle988"
       cx="875.18988"
       cy="-170.53554"
       r="25.5" />
    <circle
       style="opacity:1;fill:#000000;fill-opacity:1;fill-rule:nonzero;stroke:none;stroke-width:0.21131948;stroke-linecap:butt;stroke-linejoin:miter;stroke-miterlimit:4;stroke-dasharray:none;stroke-opacity:1;paint-order:stroke fill markers"
       id="circle1017"
       cx="986.18988"
       cy="-237.93556"
       r="25.5" />
  </g>
</svg>
