<?xml version="1.0" encoding="UTF-8" standalone="no"?>
<!-- Created with Inkscape (http://www.inkscape.org/) -->

<svg
   xmlns:dc="http://purl.org/dc/elements/1.1/"
   xmlns:cc="http://creativecommons.org/ns#"
   xmlns:rdf="http://www.w3.org/1999/02/22-rdf-syntax-ns#"
   xmlns:svg="http://www.w3.org/2000/svg"
   xmlns="http://www.w3.org/2000/svg"
   xmlns:sodipodi="http://sodipodi.sourceforge.net/DTD/sodipodi-0.dtd"
   xmlns:inkscape="http://www.inkscape.org/namespaces/inkscape"
   width="602mm"
   height="602mm"
   viewBox="0 0 602 602"
   version="1.1"
   id="svg850"
   inkscape:version="0.92.2 (5c3e80d, 2017-08-06)"
   sodipodi:docname="22.svg">
  <defs
     id="defs844">
    <pattern
       y="0"
       x="0"
       height="6"
       width="6"
       patternUnits="userSpaceOnUse"
       id="EMFhbasepattern" />
  </defs>
  <sodipodi:namedview
     id="base"
     pagecolor="#ffffff"
     bordercolor="#666666"
     borderopacity="1.0"
     inkscape:pageopacity="0.0"
     inkscape:pageshadow="2"
     inkscape:zoom="0.25"
     inkscape:cx="2912.8027"
     inkscape:cy="1097.6378"
     inkscape:document-units="mm"
     inkscape:current-layer="layer1"
     showgrid="false"
     fit-margin-top="0"
     fit-margin-left="0"
     fit-margin-right="0"
     fit-margin-bottom="0"
     inkscape:window-width="1920"
     inkscape:window-height="1057"
     inkscape:window-x="-8"
     inkscape:window-y="-8"
     inkscape:window-maximized="1"
     inkscape:snap-global="true"
     inkscape:lockguides="true" />
  <metadata
     id="metadata847">
    <rdf:RDF>
      <cc:Work
         rdf:about="">
        <dc:format>image/svg+xml</dc:format>
        <dc:type
           rdf:resource="http://purl.org/dc/dcmitype/StillImage" />
        <dc:title></dc:title>
      </cc:Work>
    </rdf:RDF>
  </metadata>
  <g
     inkscape:label="Layer 1"
     inkscape:groupmode="layer"
     id="layer1"
     transform="translate(-65.889884,311.83554)">
    <path
       style="fill:#000000;fill-opacity:1;fill-rule:nonzero;stroke:none;stroke-width:57.23757553"
       d="m 66.889884,-9.4353996 c 0.0462,14.2407479 47.243026,28.5352326 56.161936,30.6399936 12.1894,2.807308 38.83795,2.960026 38.83795,2.960026 h 84.20002 l 184.80009,264.99984 h 60.99989 C 466.30888,233.46391 400.89017,91.164659 400.89017,91.164659 V 24.16462 l 179.99986,-12.00031 35.99986,63.000292 h 29.0003 l -8.00003,-83.0000927 28.99979,-2.9998193 -28.99979,-2.999819 8.00003,-83.000108 h -29.0003 L 580.89003,-33.83546 400.89017,-45.83524 v -67.00004 c 0,0 65.41871,-142.29926 90.9996,-197.9998 h -60.9999 L 246.08979,-45.83524 h -84.20002 c 0,0 -26.64855,0.152718 -38.83795,2.960026 -8.91891,2.104761 -56.115736,16.399246 -56.161936,30.639994 v 1.39991 z"
       id="path2086"
       inkscape:connector-curvature="0" />
  </g>
</svg>
