<?xml version="1.0" encoding="UTF-8" standalone="no"?>
<!-- Created with Inkscape (http://www.inkscape.org/) -->

<svg
   xmlns:dc="http://purl.org/dc/elements/1.1/"
   xmlns:cc="http://creativecommons.org/ns#"
   xmlns:rdf="http://www.w3.org/1999/02/22-rdf-syntax-ns#"
   xmlns:svg="http://www.w3.org/2000/svg"
   xmlns="http://www.w3.org/2000/svg"
   xmlns:sodipodi="http://sodipodi.sourceforge.net/DTD/sodipodi-0.dtd"
   xmlns:inkscape="http://www.inkscape.org/namespaces/inkscape"
   width="602mm"
   height="602mm"
   viewBox="0 0 602 602"
   version="1.1"
   id="svg850"
   inkscape:version="0.92.2 (5c3e80d, 2017-08-06)"
   sodipodi:docname="22.svg">
  <defs
     id="defs844">
    <pattern
       y="0"
       x="0"
       height="6"
       width="6"
       patternUnits="userSpaceOnUse"
       id="EMFhbasepattern" />
    <pattern
       y="0"
       x="0"
       height="6"
       width="6"
       patternUnits="userSpaceOnUse"
       id="EMFhbasepattern-3" />
    <pattern
       y="0"
       x="0"
       height="6"
       width="6"
       patternUnits="userSpaceOnUse"
       id="EMFhbasepattern-5" />
    <pattern
       y="0"
       x="0"
       height="6"
       width="6"
       patternUnits="userSpaceOnUse"
       id="EMFhbasepattern-1" />
  </defs>
  <sodipodi:namedview
     id="base"
     pagecolor="#ffffff"
     bordercolor="#666666"
     borderopacity="1.0"
     inkscape:pageopacity="0.0"
     inkscape:pageshadow="2"
     inkscape:zoom="0.25783343"
     inkscape:cx="1974.8455"
     inkscape:cy="836.64352"
     inkscape:document-units="mm"
     inkscape:current-layer="layer1"
     showgrid="false"
     fit-margin-top="0"
     fit-margin-left="0"
     fit-margin-right="0"
     fit-margin-bottom="0"
     inkscape:window-width="1920"
     inkscape:window-height="1057"
     inkscape:window-x="-8"
     inkscape:window-y="-8"
     inkscape:window-maximized="1"
     inkscape:snap-global="false"
     inkscape:lockguides="true"
     inkscape:measure-start="0,0"
     inkscape:measure-end="0,0" />
  <metadata
     id="metadata847">
    <rdf:RDF>
      <cc:Work
         rdf:about="">
        <dc:format>image/svg+xml</dc:format>
        <dc:type
           rdf:resource="http://purl.org/dc/dcmitype/StillImage" />
        <dc:title></dc:title>
      </cc:Work>
    </rdf:RDF>
  </metadata>
  <g
     inkscape:label="Layer 1"
     inkscape:groupmode="layer"
     id="layer1"
     transform="translate(-65.889884,311.83554)">
    <path
       inkscape:connector-curvature="0"
       id="path872"
       style="fill:#000000;fill-opacity:1;fill-rule:nonzero;stroke:none;stroke-width:57.18941116"
       d="m 428.57941,-148.19866 c 59.4179,-16.37176 120.2074,-30.56904 182.2521,-28.05058 -31.4906,-37.51425 -121.4627,-28.12429 -123.4059,-28.05057 -39.9144,1.51414 -101.7517,22.09677 -134.54651,36.46608 0.48585,-70.52726 -57.36108,-143.00181 -131.80466,-143.00181 -73.01518,0 -143.001916,55.58675 -143.001916,131.7806 v 30.85628 c 0,34.34841 42.848756,80.661226 70.101716,98.120226 h 2.80175 C 108.63474,-20.588082 67.402974,37.88304 66.889884,104.08617 l 2.80174,22.4408 c 0.97171,4.00814 -1.13365,6.36111 2.80174,11.21309 9.50033,3.12119 32.266156,14.97651 28.049746,47.69701 17.9392,21.52556 73.81359,39.21335 100.95157,39.21335 h 19.59757 c 4.34027,0 21.53774,-2.40164 25.25124,-5.61465 -3.20987,-12.95134 -11.20217,-40.44529 0,-78.49327 -37.76351,18.03346 -80.27054,31.2571 -120.54914,42.07587 l -5.65205,-14.02042 c 46.90559,-18.20382 93.86951,-36.46607 140.20342,-56.04435 31.37949,-45.121284 84.44782,-44.988674 112.13909,-30.848184 -1.4191,-36.68371 9.6801,-54.94261 19.6445,-72.9451302 l 16.7975,8.4219802 c -14.2559,12.8781 -28.4301,32.50186 -25.1978,64.52315 27.877,-18.03989 68.3723,-3.98066 78.5004,5.54975 23.3387,-42.30801 82.955,-31.17169 89.6896,-25.18645 3.4698,-8.97952 2.5017,-36.39207 -22.4496,-56.1092902 l 16.8542,-5.61464996 c 16.2229,19.99197016 16.7816,40.17892016 13.9924,61.73205016 l 11.2556,-2.80733 c 30.8515,-30.85629 49.4594,-46.55903 64.5015,-89.70473 10.5565,-28.50818 20.7343,-66.28253 2.7369,-109.341426 -14.284,23.98563 -40.2785,54.785106 -61.6463,72.875346 -19.6526,25.07285 -136.3165,102.52757 -168.2548,120.56101 l 16.8542,-33.662 c 9.0854,-6.58828 81.1856,-57.64599 84.099,-61.65415 43.1355,-27.19213 93.6396,-67.607956 123.3493,-109.339786 -0.6477,-1.2982 -1.9919,-4.57611 -8.4052,-11.22932 -36.9068,0 -75.9854,3.94324 -112.1504,11.22932 -110.8937,21.12311 -240.01323,92.909606 -328.05415,162.578466 -48.33398,32.45953 -64.04638,65.60549 -84.09904,117.756934 v 5.61465 l -8.405216,-11.21308 c 3.48194,-17.68944 11.028816,-48.889754 19.595966,-64.459874 4.04875,-7.38343 33.19328,-44.02316 42.04872,-47.68729 L 170.59621,-2.4268442 C 234.47096,-62.821744 345.02129,-120.01014 428.55031,-148.17593"
       sodipodi:nodetypes="ccscsssccccccsscccccccccccccccccccccccccccccccc" />
    <path
       inkscape:connector-curvature="0"
       id="path883"
       style="fill:#ffffff;fill-opacity:1;fill-rule:evenodd;stroke:none;stroke-width:57.18941116"
       d="m 251.92592,-120.14807 -16.85414,11.16439 -16.79584,8.42201 -13.99249,11.213076 -11.25552,5.61467 22.45275,-64.459876 11.19075,-2.80732 28.05138,30.85467 h -2.80174" />
    <path
       inkscape:connector-curvature="0"
       id="path885"
       style="fill:#ffffff;fill-opacity:1;fill-rule:nonzero;stroke:none;stroke-width:57.18941116"
       d="m 246.3273,-285.59067 c -2.68835,-0.48681 -26.90961,-5.61466 -28.05136,-5.61466 -27.93801,0 -57.24772,9.67149 -78.50043,28.05058 l 64.50308,70.06966 c 7.07722,2.28806 13.49045,-1.13592 13.99249,-2.80734 l 28.05137,-89.70635" />
    <path
       inkscape:connector-curvature="0"
       id="path887"
       style="fill:#ffffff;fill-opacity:1;fill-rule:nonzero;stroke:none;stroke-width:57.18941116"
       d="m 330.42637,-201.4941 c -5.65208,-16.6022 -16.56912,-37.21092 -28.05139,-50.43457 -10.68871,-12.36524 -29.99477,-24.38807 -44.84881,-30.8563 l -27.99631,89.70474 v 8.422 c 1.9434,1.29817 5.83019,3.32659 8.4052,2.80731 l 92.49777,-19.63507" />
    <path
       inkscape:connector-curvature="0"
       id="path889"
       style="fill:#ffffff;fill-opacity:1;fill-rule:nonzero;stroke:none;stroke-width:57.18941116"
       d="m 265.92326,-128.56358 50.50574,-25.24486 16.79747,-5.61466 v -28.05059 l -2.80174,-2.80733 -92.49778,19.63509 -5.65205,11.2131 30.85149,33.66037 2.80174,-2.80734" />
    <path
       inkscape:connector-curvature="0"
       id="path891"
       style="fill:#ffffff;fill-opacity:1;fill-rule:nonzero;stroke:none;stroke-width:57.18941116"
       d="m 100.52528,-142.58886 c 3.88681,9.96359 19.13927,43.450306 25.25288,50.434566 5.76542,6.70188 32.90825,23.64323 42.04872,28.05058 l 8.4052,-5.61468 28.053,-81.289216 -2.80174,-8.42198 c -2.00818,-1.29819 -5.87877,-3.3753 -8.4538,-2.80733 l -92.49777,19.63507" />
    <path
       inkscape:connector-curvature="0"
       id="path893"
       style="fill:#ffffff;fill-opacity:1;fill-rule:nonzero;stroke:none;stroke-width:57.18941116"
       d="m 131.37678,-257.53845 c -25.36624,26.84812 -37.306806,67.20714 -33.649986,103.73001 l 95.296286,-19.63507 5.65205,-11.2131 -67.30158,-72.87375" />
    <path
       inkscape:connector-curvature="0"
       id="path895"
       style="fill:#000000;fill-opacity:1;fill-rule:nonzero;stroke:none;stroke-width:57.18941116"
       d="m 221.07444,-128.56358 2.80172,-11.21308 5.65206,2.80732 5.53869,11.2131 -11.19075,5.61465 -2.80172,-8.42199" />
    <path
       inkscape:connector-curvature="0"
       id="path897"
       style="fill:#000000;fill-opacity:1;fill-rule:evenodd;stroke:none;stroke-width:57.18941116"
       d="m 173.42711,-142.58886 8.40522,-2.80734 v 5.61468 l -5.60348,8.42198 -8.40521,-8.42198 5.60347,-2.80734" />
    <path
       inkscape:connector-curvature="0"
       id="path899"
       style="fill:#000000;fill-opacity:1;fill-rule:nonzero;stroke:none;stroke-width:57.18941116"
       d="m 257.52617,-153.80844 -8.40522,-5.61466 5.60348,-2.80734 c 2.10535,-0.32455 8.7453,0 11.19075,0 v 11.22932 l -8.4052,-2.80732" />
    <path
       inkscape:connector-curvature="0"
       id="path901"
       style="fill:#000000;fill-opacity:1;fill-rule:evenodd;stroke:none;stroke-width:57.18941116"
       d="m 254.72604,-201.4941 -11.19075,2.80732 v -5.61466 l 5.60348,-8.422 8.40521,2.80734 -2.80174,8.422" />
    <path
       inkscape:connector-curvature="0"
       id="path903"
       style="fill:#000000;fill-opacity:1;fill-rule:nonzero;stroke:none;stroke-width:57.18941116"
       d="m 212.67733,-221.13082 -2.80174,8.42199 -5.60346,-2.80732 -5.60349,-11.22931 11.19075,-2.80734 2.80174,8.42198" />
    <path
       inkscape:connector-curvature="0"
       id="path905"
       style="fill:#000000;fill-opacity:1;fill-rule:nonzero;stroke:none;stroke-width:57.18941116"
       d="m 179.02573,-184.66474 -5.60348,-8.42198 h -2.80174 l -8.45379,2.80734 0.9717,0.32454 1.9434,5.25766 8.40522,2.80732 5.60346,-2.80732" />
    <path
       inkscape:connector-curvature="0"
       id="path949"
       style="fill:#000000;fill-opacity:1;fill-rule:nonzero;stroke:none;stroke-width:57.18941116"
       d="m 470.62971,118.16987 c -11.9357,-15.91901 -33.3083,-28.050574 -53.3042,-28.050574 -13.1342,0 -29.9948,3.82965 -39.2502,13.971734 -10.802,-9.379394 -27.93801,-13.971734 -42.05034,-13.971734 -63.58807,0 -81.52727,57.704434 -78.4988,112.145514 7.16011,52.69919 61.4644,87.0684 89.76081,86.89903 h 30.79483 c 67.6866,0 100.8372,-42.91447 109.3583,-78.48677 0.9717,-8.98995 2.8504,-19.11906 2.8504,-28.05058 0,-25.13129 -8.049,-42.99109 -19.6543,-64.45823"
       sodipodi:nodetypes="cscsccscsc" />
    <path
       style="fill:#000000;fill-opacity:1;fill-rule:nonzero;stroke:none;stroke-width:57.18941116"
       d="m 596.77731,67.672096 c -5.7701,-0.0398 -33.1932,10.98581 -39.2501,14.02034 -5.0852,-3.31039 -26.0576,-11.21327 -30.8514,-11.21327 -18.5108,0 -42.6721,9.39238 -53.2474,25.24648 l 11.2554,13.971774 c 16.2258,17.00139 22.3962,53.12356 22.3962,75.73637 0,1.08722 -5.1178,25.30802 -5.6037,28.05045 l -5.6517,16.77414 c 16.2812,13.57407 33.4678,19.47136 56.0994,19.62566 103.6593,0 114.5472,-70.53538 114.9552,-95.31294 0.4121,-25.01268 -10.9625,-86.490834 -70.1019,-86.899004 z"
       id="path951"
       inkscape:connector-curvature="0"
       sodipodi:nodetypes="scsccscccss" />
  </g>
</svg>
