<?xml version="1.0" encoding="UTF-8" standalone="no"?>
<!-- Created with Inkscape (http://www.inkscape.org/) -->

<svg
   xmlns:dc="http://purl.org/dc/elements/1.1/"
   xmlns:cc="http://creativecommons.org/ns#"
   xmlns:rdf="http://www.w3.org/1999/02/22-rdf-syntax-ns#"
   xmlns:svg="http://www.w3.org/2000/svg"
   xmlns="http://www.w3.org/2000/svg"
   xmlns:sodipodi="http://sodipodi.sourceforge.net/DTD/sodipodi-0.dtd"
   xmlns:inkscape="http://www.inkscape.org/namespaces/inkscape"
   width="802mm"
   height="602mm"
   viewBox="0 0 802 602"
   version="1.1"
   id="svg850"
   inkscape:version="0.92.2 (5c3e80d, 2017-08-06)"
   sodipodi:docname="22.svg">
  <defs
     id="defs844">
    <pattern
       y="0"
       x="0"
       height="6"
       width="6"
       patternUnits="userSpaceOnUse"
       id="EMFhbasepattern" />
    <pattern
       y="0"
       x="0"
       height="6"
       width="6"
       patternUnits="userSpaceOnUse"
       id="EMFhbasepattern-3" />
    <pattern
       y="0"
       x="0"
       height="6"
       width="6"
       patternUnits="userSpaceOnUse"
       id="EMFhbasepattern-5" />
    <pattern
       y="0"
       x="0"
       height="6"
       width="6"
       patternUnits="userSpaceOnUse"
       id="EMFhbasepattern-1" />
  </defs>
  <sodipodi:namedview
     id="base"
     pagecolor="#ffffff"
     bordercolor="#666666"
     borderopacity="1.0"
     inkscape:pageopacity="0.0"
     inkscape:pageshadow="2"
     inkscape:zoom="0.22918527"
     inkscape:cx="1762.3191"
     inkscape:cy="856.22813"
     inkscape:document-units="mm"
     inkscape:current-layer="layer1"
     showgrid="false"
     fit-margin-top="0"
     fit-margin-left="0"
     fit-margin-right="0"
     fit-margin-bottom="0"
     inkscape:window-width="1920"
     inkscape:window-height="1057"
     inkscape:window-x="-8"
     inkscape:window-y="-8"
     inkscape:window-maximized="1"
     inkscape:snap-global="true"
     inkscape:lockguides="true"
     inkscape:measure-start="0,0"
     inkscape:measure-end="0,0" />
  <metadata
     id="metadata847">
    <rdf:RDF>
      <cc:Work
         rdf:about="">
        <dc:format>image/svg+xml</dc:format>
        <dc:type
           rdf:resource="http://purl.org/dc/dcmitype/StillImage" />
        <dc:title></dc:title>
      </cc:Work>
    </rdf:RDF>
  </metadata>
  <g
     inkscape:label="Layer 1"
     inkscape:groupmode="layer"
     id="layer1"
     transform="translate(-65.889884,311.83554)">
    <path
       d="m 510.88988,-15.035539 12.6,12.5999998 -142.6,173.5999992 h -25"
       style="fill:#000000;fill-opacity:1;fill-rule:nonzero;stroke:none;stroke-width:57.24742889"
       id="path2050"
       inkscape:connector-curvature="0"
       sodipodi:nodetypes="cccc" />
    <circle
       style="opacity:1;fill:#000000;fill-opacity:1;fill-rule:nonzero;stroke:none;stroke-width:0.17875047;stroke-linecap:butt;stroke-linejoin:miter;stroke-miterlimit:4;stroke-dasharray:none;stroke-opacity:1;paint-order:stroke fill markers"
       id="path858"
       cx="212.88988"
       cy="243.16446"
       r="46" />
    <circle
       r="46"
       cy="243.16446"
       cx="577.88989"
       id="circle878"
       style="opacity:1;fill:#000000;fill-opacity:1;fill-rule:nonzero;stroke:none;stroke-width:0.17875047;stroke-linecap:butt;stroke-linejoin:miter;stroke-miterlimit:4;stroke-dasharray:none;stroke-opacity:1;paint-order:stroke fill markers" />
    <circle
       style="opacity:1;fill:#000000;fill-opacity:1;fill-rule:nonzero;stroke:none;stroke-width:0.17875047;stroke-linecap:butt;stroke-linejoin:miter;stroke-miterlimit:4;stroke-dasharray:none;stroke-opacity:1;paint-order:stroke fill markers"
       id="circle889"
       cx="682.88989"
       cy="243.16446"
       r="46" />
    <path
       sodipodi:nodetypes="ccccsccccccccccccccccccccccccscc"
       inkscape:connector-curvature="0"
       id="path891"
       style="fill:#000000;fill-opacity:1;fill-rule:nonzero;stroke:none;stroke-width:57.24742889"
       d="m 66.889884,204.16446 h 16.8 v -84 C 87.925294,99.784201 98.649701,18.126509 112.92761,1.8414768 c 5.75338,-5.5976531 5.14434,-4.7260624 20.96227,-4.677016 h 143 c 11.7914,0.1242668 15.17577,7.4858149 16,18.0000002 l 8,117.999999 v 42 h 448.8 l -297.4,-253.599999 -12.6,4.2 -12.6,-8.4 62.8,-71.800001 54.4,-126.8 -16.6,-29.6 46,33.8 -33.4,80.2 305.6,257.800001 9,-10.4 12,10.4 -104.6,122.599999 v 59.6 h -12.6 v -51 h -238.8 v 51 H 276.32826 c 0,0 -4.48978,-59.93011 -42.43838,-60 h -39 c -34.70366,0 -48.4263,60 -48.4263,60 H 66.889884" />
    <path
       inkscape:connector-curvature="0"
       id="path902"
       style="fill:#ffffff;fill-opacity:1;fill-rule:nonzero;stroke:none;stroke-width:57.24742889"
       d="m 120.88988,31.164461 c 2.79843,-14.128119 12.16877,-16.867933 21.4,-17 h 75.4 c 6.50758,0.06194 8.45209,7.442031 8.2,13.039156 v 75.960843 h -87 c -10.08634,0.28635 -14,22 -14,22 h -22"
       sodipodi:nodetypes="cccccccc" />
    <rect
       style="opacity:1;fill:#ffffff;fill-opacity:1;fill-rule:nonzero;stroke:none;stroke-width:0.23454244;stroke-linecap:butt;stroke-linejoin:miter;stroke-miterlimit:4;stroke-dasharray:none;stroke-opacity:1;paint-order:stroke fill markers"
       id="rect928"
       width="40"
       height="100"
       x="238.88988"
       y="13.264461"
       rx="11" />
  </g>
</svg>
