<?xml version="1.0" encoding="UTF-8" standalone="no"?>
<!-- Created with Inkscape (http://www.inkscape.org/) -->

<svg
   xmlns:dc="http://purl.org/dc/elements/1.1/"
   xmlns:cc="http://creativecommons.org/ns#"
   xmlns:rdf="http://www.w3.org/1999/02/22-rdf-syntax-ns#"
   xmlns:svg="http://www.w3.org/2000/svg"
   xmlns="http://www.w3.org/2000/svg"
   xmlns:sodipodi="http://sodipodi.sourceforge.net/DTD/sodipodi-0.dtd"
   xmlns:inkscape="http://www.inkscape.org/namespaces/inkscape"
   width="602mm"
   height="602mm"
   viewBox="0 0 602.00002 602.00002"
   version="1.1"
   id="svg850"
   inkscape:version="0.92.2 (5c3e80d, 2017-08-06)"
   sodipodi:docname="22.svg">
  <defs
     id="defs844">
    <pattern
       y="0"
       x="0"
       height="6"
       width="6"
       patternUnits="userSpaceOnUse"
       id="EMFhbasepattern" />
    <pattern
       y="0"
       x="0"
       height="6"
       width="6"
       patternUnits="userSpaceOnUse"
       id="EMFhbasepattern-3" />
    <pattern
       y="0"
       x="0"
       height="6"
       width="6"
       patternUnits="userSpaceOnUse"
       id="EMFhbasepattern-5" />
    <pattern
       y="0"
       x="0"
       height="6"
       width="6"
       patternUnits="userSpaceOnUse"
       id="EMFhbasepattern-1" />
    <pattern
       y="0"
       x="0"
       height="6"
       width="6"
       patternUnits="userSpaceOnUse"
       id="EMFhbasepattern-18" />
    <pattern
       y="0"
       x="0"
       height="6"
       width="6"
       patternUnits="userSpaceOnUse"
       id="EMFhbasepattern-7" />
    <pattern
       y="0"
       x="0"
       height="6"
       width="6"
       patternUnits="userSpaceOnUse"
       id="EMFhbasepattern-9" />
    <pattern
       y="0"
       x="0"
       height="6"
       width="6"
       patternUnits="userSpaceOnUse"
       id="EMFhbasepattern-96" />
  </defs>
  <sodipodi:namedview
     id="base"
     pagecolor="#ffffff"
     bordercolor="#666666"
     borderopacity="1.0"
     inkscape:pageopacity="0.0"
     inkscape:pageshadow="2"
     inkscape:zoom="0.25783343"
     inkscape:cx="1526.2557"
     inkscape:cy="923.42671"
     inkscape:document-units="mm"
     inkscape:current-layer="layer1"
     showgrid="false"
     fit-margin-top="0"
     fit-margin-left="0"
     fit-margin-right="0"
     fit-margin-bottom="0"
     inkscape:window-width="1920"
     inkscape:window-height="1057"
     inkscape:window-x="-8"
     inkscape:window-y="-8"
     inkscape:window-maximized="1"
     inkscape:snap-global="false"
     inkscape:lockguides="true"
     inkscape:measure-start="0,0"
     inkscape:measure-end="0,0" />
  <metadata
     id="metadata847">
    <rdf:RDF>
      <cc:Work
         rdf:about="">
        <dc:format>image/svg+xml</dc:format>
        <dc:type
           rdf:resource="http://purl.org/dc/dcmitype/StillImage" />
        <dc:title></dc:title>
      </cc:Work>
    </rdf:RDF>
  </metadata>
  <g
     inkscape:label="Layer 1"
     inkscape:groupmode="layer"
     id="layer1"
     transform="translate(-425.88988,464.43554)">
    <path
       id="path836"
       d="m 594.88988,-294.63554 c 14.00563,-10.12507 24.45022,-16.87494 41.94982,-27 l -27.95443,-33.80128 c -14.70192,-19.97887 -3.45904,-36.48985 0,-40.49394 24.49909,-26.99968 59.4999,-47.24983 94.49908,-64.12443 l 3.50553,-3.38035 h -10.50007 c -59.49993,3.38035 -108.49976,20.25016 -150.5001,67.5 L 426.88988,-264.3111 c 10.5001,37.12635 41.78698,64.12604 80.28674,70.87556 h 3.81362 c 4.45578,0.005 7.01774,-4.00801 6.91635,-6.76068 0,-40.50033 6.99454,-84.37463 24.49909,-121.50098 2.41319,-4.65015 10.59112,-11.12279 17.50123,-10.12506 0,0 5.72017,1.0305 10.5001,6.74474 z"
       style="fill:#000000;fill-opacity:1;fill-rule:evenodd;stroke:none;stroke-width:42.96197891"
       inkscape:connector-curvature="0"
       sodipodi:nodetypes="cccccccccccccccc" />
    <path
       id="path842"
       d="M 984.88988,106.20628 946.53102,136.56446 848.88988,18.505407 c 20.92333,0 41.84666,-3.378458 59.28221,-6.740947 z"
       style="fill:#000000;fill-opacity:1;fill-rule:nonzero;stroke:none;stroke-width:42.87127304"
       inkscape:connector-curvature="0"
       sodipodi:nodetypes="ccccc" />
    <path
       inkscape:connector-curvature="0"
       style="fill:#000000;fill-opacity:1;fill-rule:nonzero;stroke:none;stroke-width:42.8217926"
       d="m 506.88988,18.56446 c 76.69338,-23.5638789 160.36008,-40.397041 240.54013,-40.397041 24.40168,0 66.23503,20.1985191 101.09672,20.1985191 48.80503,0 108.06834,-13.4709891 149.90172,-40.3970371 5.84985,-4.278766 10.60145,-9.298117 10.45825,-20.198518 -0.1253,-9.539032 -4.427,-13.289587 -10.45825,-16.831599 l -69.72169,-33.663144 c -10.56634,-5.44214 -16.88086,-14.30303 -20.91668,-20.20328 v -13.45508 c -3.49159,-90.89178 -83.66669,-175.05282 -177.79009,-175.05282 -90.63839,0 -163.84673,57.22861 -184.76343,144.75504 z"
       id="path856"
       sodipodi:nodetypes="csscsccccscc" />
    <path
       d="m 467.88988,105.56756 38.95497,30.9969 103.04503,-125 C 582.7208,16.276152 555.20285,23.35961 528.9043,31.554144"
       style="fill:#000000;fill-opacity:1;fill-rule:nonzero;stroke:none;stroke-width:57.09629059"
       id="path2182"
       inkscape:connector-curvature="0"
       sodipodi:nodetypes="cccc" />
    <path
       sodipodi:nodetypes="cccccccccccccccc"
       inkscape:connector-curvature="0"
       style="fill:#000000;fill-opacity:1;fill-rule:evenodd;stroke:none;stroke-width:42.96197891"
       d="m 858.8899,-294.63554 c -14.00563,-10.12507 -24.45022,-16.87494 -41.94982,-27 l 27.95443,-33.80128 c 14.70192,-19.97887 3.45904,-36.48985 0,-40.49394 -24.49909,-26.99968 -59.4999,-47.24983 -94.49913,-64.12443 l -3.5055,-3.38035 h 10.5001 c 59.49992,3.38035 108.49975,20.25016 150.50009,67.5 l 118.99983,131.62444 c -10.5001,37.12635 -41.78698,64.12604 -80.28674,70.87556 h -3.81362 c -4.45578,0.005 -7.01774,-4.00801 -6.91635,-6.76068 0,-40.50033 -6.99454,-84.37463 -24.49909,-121.50098 -2.41319,-4.65015 -10.59112,-11.12279 -17.50123,-10.12506 0,0 -5.72017,1.0305 -10.5001,6.74474 z"
       id="path946" />
  </g>
</svg>
