<?xml version="1.0" encoding="UTF-8" standalone="no"?>
<!-- Created with Inkscape (http://www.inkscape.org/) -->

<svg
   xmlns:dc="http://purl.org/dc/elements/1.1/"
   xmlns:cc="http://creativecommons.org/ns#"
   xmlns:rdf="http://www.w3.org/1999/02/22-rdf-syntax-ns#"
   xmlns:svg="http://www.w3.org/2000/svg"
   xmlns="http://www.w3.org/2000/svg"
   xmlns:sodipodi="http://sodipodi.sourceforge.net/DTD/sodipodi-0.dtd"
   xmlns:inkscape="http://www.inkscape.org/namespaces/inkscape"
   width="832mm"
   height="832mm"
   viewBox="0 0 832 832"
   version="1.1"
   id="svg821"
   inkscape:version="0.92.2 (5c3e80d, 2017-08-06)"
   sodipodi:docname="22.svg">
  <defs
     id="defs815" />
  <sodipodi:namedview
     id="base"
     pagecolor="#ffffff"
     bordercolor="#666666"
     borderopacity="1.0"
     inkscape:pageopacity="0.0"
     inkscape:pageshadow="2"
     inkscape:zoom="0.175"
     inkscape:cx="151.16287"
     inkscape:cy="1276.4741"
     inkscape:document-units="mm"
     inkscape:current-layer="layer1"
     showgrid="false"
     fit-margin-top="0"
     fit-margin-left="0"
     fit-margin-right="0"
     fit-margin-bottom="0"
     inkscape:window-width="1920"
     inkscape:window-height="1057"
     inkscape:window-x="-8"
     inkscape:window-y="-8"
     inkscape:window-maximized="1"
     inkscape:snap-global="false" />
  <metadata
     id="metadata818">
    <rdf:RDF>
      <cc:Work
         rdf:about="">
        <dc:format>image/svg+xml</dc:format>
        <dc:type
           rdf:resource="http://purl.org/dc/dcmitype/StillImage" />
        <dc:title></dc:title>
      </cc:Work>
    </rdf:RDF>
  </metadata>
  <g
     inkscape:label="Layer 1"
     inkscape:groupmode="layer"
     id="layer1"
     transform="translate(-38,595)">
    <path
       inkscape:connector-curvature="0"
       id="path1462"
       style="fill:#00783a;fill-opacity:1;fill-rule:nonzero;stroke:none;stroke-width:55.36474609"
       d="M 101.7397,157.9919 C 95.7645,145.962 39,34.4412 39,32.2252 v -155.9611 c 0,-54.2401 32.1439,-93.4098 47.6355,-140.8357 16.2114,-49.4752 14.9929,-107.3714 31.4255,-157.17972 62.4636,-189.14723 147.942,-142.77522 296.436,-157.12486 C 469.3811,-584.20009 514.8584,-594 571.4018,-594 c 24.2882,0 53.2232,12.73669 77.8988,15.12382 83.54317,8.04101 131.56587,0.62833 188.33027,79.17181 8.5786,46.20705 31.3691,110.64127 31.3691,155.96107 0,24.4338 -13.7226,54.2951 -16.2649,79.1717 -13.2207,127.5384 21.6316,266.2694 -15.1026,391.0939 C 749.00017,229.517 701.52957,236 571.4033,236 c -24.2332,0 -53.2231,-12.7995 -77.8988,-15.1867 -73.3617,-7.0357 -155.6878,0 -229.7694,0 -14.2243,0 -22.461,2.5442 -36.4031,0 -5.2538,-0.942 -111.3726,-55.7368 -125.5907,-62.8276" />
    <path
       d="m 349.32671,-289.84868 -11.56627,30.03182 v 3.44592 c 4.83766,3.38303 175.21959,1.10144 193.06538,1.10144 l 6.94921,-19.59476 -2.28489,-4.65752 -43.91717,-9.22068 -2.33217,-3.44601 3.45097,-3.49319 3.45097,-1.10146 h 77.49247 l 4.66432,1.10146 2.28489,3.49319 v 6.87623 l -1.10305,3.49309 c -1.82791,0.94412 -3.67158,2.28158 -5.78314,2.28158 h -11.56627 l -3.45097,1.10145 c -2.66307,4.217 -7.16982,17.76324 -9.28138,23.09273 l 28.96296,72.77266 c 8.44621,-3.82356 19.73515,-4.65753 28.85107,-4.65753 49.30951,0 101.78636,43.24125 101.78636,94.697776 0,46.295497 -21.01311,85.8186149 -66.32013,102.027218 -2.72611,0.944098 -19.62327,6.498548 -21.56779,6.498548 -55.25811,0 -101.23011,-21.9251166 -113.29433,-80.766083 h -47.47372 c -3.45097,-1.101445 -10.84142,-5.884876 -13.83541,-8.103511 l -2.33216,-3.493162 -122.57572,-136.219296 -10.40018,33.47148 c 30.57341,8.93739 61.31543,54.17704 61.31543,85.429912 C 372.51599,-30.46067 334.71445,16 268.45104,16 217.75326,16 169,-29.29471 169,-80.974675 c 0,-63.114545 46.52983,-106.244145 108.67884,-106.244145 4.94798,0 11.23537,1.66792 16.17703,2.32876 l 38.19077,-110.85299 c 4.88493,-14.1457 19.95576,-24.20193 34.68778,-24.25695 h 28.90781 l 4.61706,1.10135 3.45097,3.44602 1.10305,4.65751 c -0.94547,2.83236 -3.34067,6.32545 -5.78314,8.05635 h -32.35405 l -6.94921,1.10146 -5.78314,4.61034 c -1.60731,1.66793 -3.16734,5.11384 -4.61706,6.9391"
       style="fill:#ffffff;fill-opacity:1;fill-rule:nonzero;stroke:none;stroke-width:55.54986191"
       id="path4822"
       inkscape:connector-curvature="0" />
    <path
       d="m 565.5719,-155.90307 c -24.95888,14.42898 -40.46934,44.46229 -41.63701,72.717627 h 73.99107 l -28.90624,-73.883647 -3.45097,1.10146"
       style="fill:#00783a;fill-opacity:1;fill-rule:nonzero;stroke:none;stroke-width:55.54986191"
       id="path4824"
       inkscape:connector-curvature="0" />
    <path
       d="m 261.43879,-85.462255 v 4.610311 l 2.28489,4.610349 4.66433,2.328771 h 5.78313 c 1.41821,-1.101445 4.11281,-3.886532 4.61706,-5.774731 l 25.45998,-79.656755 c 5.27889,1.10145 10.06928,5.38133 14.22936,8.43389 23.23654,16.87426 34.29857,41.40983 34.29857,70.052178 0,39.689911 -40.58123,77.3799185 -79.77104,77.3799185 -38.41296,0 -83.27402,-32.4172135 -83.27402,-73.9386765 0,-50.51243 30.18419,-88.8696 83.27402,-88.8696 4.88494,0 10.11655,0.78679 15.00148,1.10146 l -26.57249,79.655143"
       style="fill:#00783a;fill-opacity:1;fill-rule:nonzero;stroke:none;stroke-width:55.54986191"
       id="path4826"
       inkscape:connector-curvature="0" />
    <path
       d="m 528.5488,-64.646491 c 7.34316,33.749957 42.9717,61.1713064 77.49403,61.1713064 52.64388,0 82.10637,-41.1878774 82.10637,-90.0906024 0,-42.687493 -44.02748,-72.717633 -83.27402,-72.717633 -4.39645,0 -15.39544,0.62935 -19.68,2.32876 l 32.4092,80.767637 4.61705,2.328781 3.45097,4.610351 v 4.65755 l -2.28489,4.610351 c -1.4182,0.9441 -5.23161,2.879499 -6.94921,2.328781 h -87.88792"
       style="fill:#00783a;fill-opacity:1;fill-rule:nonzero;stroke:none;stroke-width:55.54986191"
       id="path4828"
       inkscape:connector-curvature="0" />
    <path
       d="m 536.66568,-221.73822 3.45097,-8.05635 20.79093,53.12287 -3.45097,2.28157 c -23.84796,12.54085 -44.58374,40.96603 -50.86482,66.99958 -1.89094,7.773065 -1.95398,16.265269 -3.49825,24.203527 H 483.47027 L 536.66883,-221.7398"
       style="fill:#00783a;fill-opacity:1;fill-rule:nonzero;stroke:none;stroke-width:55.54986191"
       id="path4830"
       inkscape:connector-curvature="0" />
    <path
       d="M 463.78713,-83.185443 523.93489,-236.72583 H 333.14968 l -3.49824,1.10146 -1.10305,3.49319 c 0.63032,3.11555 124.35477,136.941568 135.3065,148.876504"
       style="fill:#00783a;fill-opacity:1;fill-rule:nonzero;stroke:none;stroke-width:55.54986191"
       id="path4832"
       inkscape:connector-curvature="0" />
  </g>
</svg>
