<?xml version="1.0" encoding="UTF-8" standalone="no"?>
<!-- Created with Inkscape (http://www.inkscape.org/) -->

<svg
   xmlns:dc="http://purl.org/dc/elements/1.1/"
   xmlns:cc="http://creativecommons.org/ns#"
   xmlns:rdf="http://www.w3.org/1999/02/22-rdf-syntax-ns#"
   xmlns:svg="http://www.w3.org/2000/svg"
   xmlns="http://www.w3.org/2000/svg"
   xmlns:sodipodi="http://sodipodi.sourceforge.net/DTD/sodipodi-0.dtd"
   xmlns:inkscape="http://www.inkscape.org/namespaces/inkscape"
   width="832mm"
   height="832mm"
   viewBox="0 0 832 832"
   version="1.1"
   id="svg821"
   inkscape:version="0.92.2 (5c3e80d, 2017-08-06)"
   sodipodi:docname="22.svg">
  <defs
     id="defs815" />
  <sodipodi:namedview
     id="base"
     pagecolor="#ffffff"
     bordercolor="#666666"
     borderopacity="1.0"
     inkscape:pageopacity="0.0"
     inkscape:pageshadow="2"
     inkscape:zoom="0.175"
     inkscape:cx="2936.8771"
     inkscape:cy="1276.4741"
     inkscape:document-units="mm"
     inkscape:current-layer="layer1"
     showgrid="false"
     fit-margin-top="0"
     fit-margin-left="0"
     fit-margin-right="0"
     fit-margin-bottom="0"
     inkscape:window-width="1920"
     inkscape:window-height="1057"
     inkscape:window-x="-8"
     inkscape:window-y="-8"
     inkscape:window-maximized="1"
     inkscape:snap-global="false" />
  <metadata
     id="metadata818">
    <rdf:RDF>
      <cc:Work
         rdf:about="">
        <dc:format>image/svg+xml</dc:format>
        <dc:type
           rdf:resource="http://purl.org/dc/dcmitype/StillImage" />
        <dc:title></dc:title>
      </cc:Work>
    </rdf:RDF>
  </metadata>
  <g
     inkscape:label="Layer 1"
     inkscape:groupmode="layer"
     id="layer1"
     transform="translate(-38,595)">
    <path
       inkscape:connector-curvature="0"
       id="path1462"
       style="fill:#00783a;fill-opacity:1;fill-rule:nonzero;stroke:none;stroke-width:55.36474609"
       d="M 101.7397,157.9919 C 95.7645,145.962 39,34.4412 39,32.2252 v -155.9611 c 0,-54.2401 32.1439,-93.4098 47.6355,-140.8357 16.2114,-49.4752 14.9929,-107.3714 31.4255,-157.17972 62.4636,-189.14723 147.942,-142.77522 296.436,-157.12486 C 469.3811,-584.20009 514.8584,-594 571.4018,-594 c 24.2882,0 53.2232,12.73669 77.8988,15.12382 83.54317,8.04101 131.56587,0.62833 188.33027,79.17181 8.5786,46.20705 31.3691,110.64127 31.3691,155.96107 0,24.4338 -13.7226,54.2951 -16.2649,79.1717 -13.2207,127.5384 21.6316,266.2694 -15.1026,391.0939 C 749.00017,229.517 701.52957,236 571.4033,236 c -24.2332,0 -53.2231,-12.7995 -77.8988,-15.1867 -73.3617,-7.0357 -155.6878,0 -229.7694,0 -14.2243,0 -22.461,2.5442 -36.4031,0 -5.2538,-0.942 -111.3726,-55.7368 -125.5907,-62.8276" />
    <path
       d="M 237.19621,-96.016001 H 607.64878 V -124.91964 H 237.19621 Z"
       style="fill:#ffffff;fill-opacity:1;fill-rule:nonzero;stroke:none;stroke-width:47.70574188"
       id="path1948"
       inkscape:connector-curvature="0" />
    <path
       d="m 704,-411.87339 v -17.12663 H 349.5911 l -26.76197,18.22332 v 20.32207 l 32.10626,-21.41876 H 704"
       style="fill:#ffffff;fill-opacity:1;fill-rule:nonzero;stroke:none;stroke-width:47.70574188"
       id="path1950"
       inkscape:connector-curvature="0" />
    <path
       d="M 676.13997,-365.83774 V 71 H 648.32726 V -22.168008 H 601.19291 L 519.85489,71 h -22.51712 l 82.43609,-93.168008 h -215.202 L 469.52505,71 h -24.6172 L 360.32564,-3.9446998 V 71 H 332.46561 V -22.168008 H 303.55483 L 314.29208,71 H 298.21595 L 287.53279,-22.168008 228.61588,71 H 204 V 48.483193 L 286.43608,-85.330293 H 648.33402 V -199.87109 h -66.40731 c 9.1145,19.03468 13.97871,42.02887 12.8739,63.16228 h -28.95677 c 0.4057,-7.01834 -0.67614,-14.40718 -1.08183,-21.42011 l -64.21253,16.07725 2.15016,5.3415 H 379.5702 l 2.09607,-5.3415 -21.37308,-7.49163 v 12.83313 h -27.86005 v -22.46948 l -12.8333,-5.39558 c -2.67755,8.01901 -3.19142,19.55934 -3.19142,27.85965 h -30.00614 c 3.19142,-40.64547 14.40603,-81.00425 46.03628,-109.19793 v -119.93098 h -16.03014 v -8.53289 l 40.64602,-26.76296 h 346.91853 l -27.86005,35.3026"
       style="fill:#ffffff;fill-opacity:1;fill-rule:evenodd;stroke:none;stroke-width:47.70574188"
       id="path1952"
       inkscape:connector-curvature="0" />
    <path
       d="M 381.69737,-365.83774 H 631.2004 l -91.02317,77.09211 -158.47986,-77.09211"
       style="fill:#00783a;fill-opacity:1;fill-rule:nonzero;stroke:none;stroke-width:47.70574188"
       id="path1956"
       inkscape:connector-curvature="0" />
    <path
       d="m 433.12525,-261.98401 v 83.53301 c -2.24482,0.27048 -5.39567,0.4057 -7.49173,1.08185 -4.28677,1.35225 -8.73584,3.6241 -12.87387,5.34149 l -32.10626,-73.84799 c 15.12275,-10.58836 34.72972,-12.98188 52.47591,-16.07725"
       style="fill:#00783a;fill-opacity:1;fill-rule:nonzero;stroke:none;stroke-width:47.70574188"
       id="path1958"
       inkscape:connector-curvature="0" />
    <path
       d="m 449.15405,-261.98401 c 19.79763,0.54091 48.51774,10.39903 64.25985,22.46949 l -40.69336,68.55245 c -7.20774,-3.48887 -15.69475,-6.05819 -23.56649,-7.49162 v -83.53302"
       style="fill:#00783a;fill-opacity:1;fill-rule:nonzero;stroke:none;stroke-width:47.70574188"
       id="path1960"
       inkscape:connector-curvature="0" />
    <path
       d="m 391.38252,-155.98152 7.43764,-7.49161 -33.15563,-73.89533 -5.34159,5.3956 v 64.21165 l 31.05689,11.77836"
       style="fill:#00783a;fill-opacity:1;fill-rule:nonzero;stroke:none;stroke-width:47.70574188"
       id="path1962"
       inkscape:connector-curvature="0" />
    <path
       d="m 526.24721,-228.78012 c 13.54867,13.02244 29.95881,36.11262 34.25235,54.57529 l -69.60276,17.12529 -4.24624,-4.24619 39.59665,-67.45576"
       style="fill:#00783a;fill-opacity:1;fill-rule:nonzero;stroke:none;stroke-width:47.70574188"
       id="path1964"
       inkscape:connector-curvature="0" />
    <path
       d="m 332.46561,-177.40161 v -22.46948 c -0.94662,4.28674 -6.49103,14.83719 -8.5871,19.27269 l 8.5871,3.19139"
       style="fill:#00783a;fill-opacity:1;fill-rule:nonzero;stroke:none;stroke-width:47.70574188"
       id="path1966"
       inkscape:connector-curvature="0" />
    <path
       d="m 360.32564,-268.37623 v -97.46151 l 172.36256,83.48434 -14.98078,11.83245 c -8.05966,-7.30231 -50.28111,-20.37075 -61.06301,-20.37075 h -20.32368 c -25.66526,0 -54.19334,8.87096 -75.99509,22.51682"
       style="fill:#00783a;fill-opacity:1;fill-rule:nonzero;stroke:none;stroke-width:47.70574188"
       id="path1968"
       inkscape:connector-curvature="0" />
    <path
       d="m 648.32726,-365.83774 v 129.56733 l -99.56295,-48.18172 99.56295,-81.38561"
       style="fill:#00783a;fill-opacity:1;fill-rule:nonzero;stroke:none;stroke-width:47.70574188"
       id="path1970"
       inkscape:connector-curvature="0" />
    <path
       d="m 526.24721,-265.17944 14.9794,-12.88722 102.8071,49.27977 h -79.2406 c -9.58779,-13.78649 -24.3292,-27.57434 -38.5459,-36.39932"
       style="fill:#00783a;fill-opacity:1;fill-rule:nonzero;stroke:none;stroke-width:47.70574188"
       id="path1972"
       inkscape:connector-curvature="0" />
  </g>
</svg>
