<?xml version="1.0" encoding="UTF-8" standalone="no"?>
<!-- Created with Inkscape (http://www.inkscape.org/) -->

<svg
   xmlns:dc="http://purl.org/dc/elements/1.1/"
   xmlns:cc="http://creativecommons.org/ns#"
   xmlns:rdf="http://www.w3.org/1999/02/22-rdf-syntax-ns#"
   xmlns:svg="http://www.w3.org/2000/svg"
   xmlns="http://www.w3.org/2000/svg"
   xmlns:sodipodi="http://sodipodi.sourceforge.net/DTD/sodipodi-0.dtd"
   xmlns:inkscape="http://www.inkscape.org/namespaces/inkscape"
   width="832mm"
   height="832mm"
   viewBox="0 0 832 832"
   version="1.1"
   id="svg821"
   inkscape:version="0.92.2 (5c3e80d, 2017-08-06)"
   sodipodi:docname="22.svg">
  <defs
     id="defs815" />
  <sodipodi:namedview
     id="base"
     pagecolor="#ffffff"
     bordercolor="#666666"
     borderopacity="1.0"
     inkscape:pageopacity="0.0"
     inkscape:pageshadow="2"
     inkscape:zoom="0.12374369"
     inkscape:cx="907.04124"
     inkscape:cy="739.02117"
     inkscape:document-units="mm"
     inkscape:current-layer="layer1"
     showgrid="false"
     fit-margin-top="0"
     fit-margin-left="0"
     fit-margin-right="0"
     fit-margin-bottom="0"
     inkscape:window-width="1920"
     inkscape:window-height="1057"
     inkscape:window-x="-8"
     inkscape:window-y="-8"
     inkscape:window-maximized="1"
     inkscape:snap-global="false" />
  <metadata
     id="metadata818">
    <rdf:RDF>
      <cc:Work
         rdf:about="">
        <dc:format>image/svg+xml</dc:format>
        <dc:type
           rdf:resource="http://purl.org/dc/dcmitype/StillImage" />
        <dc:title></dc:title>
      </cc:Work>
    </rdf:RDF>
  </metadata>
  <g
     inkscape:label="Layer 1"
     inkscape:groupmode="layer"
     id="layer1"
     transform="translate(-38,595)">
    <path
       inkscape:connector-curvature="0"
       id="path1462"
       style="fill:#00559b;fill-opacity:1;fill-rule:nonzero;stroke:none;stroke-width:55.36474609"
       d="M 101.73976,157.9919 C 95.76456,145.962 39,34.4412 39,32.2252 v -155.9611 c 0,-54.2401 32.14391,-93.4098 47.63547,-140.8357 16.21142,-49.4752 14.99295,-107.3714 31.42554,-157.17972 C 180.52464,-610.89855 266.00298,-564.52654 414.497,-578.87618 469.3811,-584.20009 514.85846,-594 571.40186,-594 c 24.28815,0 53.22319,12.73669 77.89871,15.12382 83.54321,8.04101 131.56595,0.62833 188.33037,79.17181 C 846.20949,-453.49732 869,-389.0631 869,-343.7433 c 0,24.4338 -13.72257,54.2951 -16.26484,79.1717 C 839.51445,-137.0332 874.36673,1.6978 837.63252,126.5223 749.00025,229.517 701.52957,236 571.40336,236 c -24.23328,0 -53.22319,-12.7995 -77.89881,-15.1867 -73.36174,-7.0357 -155.68779,0 -229.7694,0 -14.22435,0 -22.46105,2.5442 -36.40314,0 -5.25382,-0.942 -111.37263,-55.7368 -125.59065,-62.8276" />
    <path
       id="path837"
       d="m 154,101 h 600 v -230.40002 l -149.4,-80 -55,80 -146,-80 -55,80 -146,-80 -48.6,80 z"
       style="fill:#ffffff;fill-opacity:1;fill-rule:nonzero;stroke:none;stroke-width:40.26984406"
       inkscape:connector-curvature="0"
       sodipodi:nodetypes="cccccccccc" />
    <path
       id="path839"
       d="m 303.18,-318.20002 -6.48,134.4 51.9,28.80001 -6.5,-163.20001 z"
       style="fill:#ffffff;fill-opacity:1;fill-rule:nonzero;stroke:none;stroke-width:40.26984406"
       inkscape:connector-curvature="0"
       sodipodi:nodetypes="ccccc" />
    <path
       id="path841"
       d="m 471.88,-379.00002 -6.48,176 48.6,28.80001 -3.2,-204.80001 z"
       style="fill:#ffffff;fill-opacity:1;fill-rule:nonzero;stroke:none;stroke-width:40.26984406"
       inkscape:connector-curvature="0"
       sodipodi:nodetypes="ccccc" />
    <path
       id="path843"
       d="m 368.0157,-430.20554 c -16.2159,-3.2051 -29.1881,-6.3951 -42.1617,-6.3951 -3.2484,0 -9.7299,3.2051 -12.9783,3.2051 h -12.9783 c 0,0 -12.9782,-3.2051 -12.9782,-3.2051 -19.4597,-12.8053 -42.1633,-19.2003 -64.8653,-22.3994 -9.7299,0 -38.9195,0 -45.4055,9.6002 l -3.2484,6.3951 c 6.4815,15.9997 22.702,31.99953 38.9195,31.99953 12.9782,0 19.4597,-6.39507 29.1895,-6.39507 9.7299,0 22.7021,25.59996 45.4056,25.59996 16.2159,0 32.4319,-9.60018 45.4055,-9.60018 12.9783,0 25.9458,9.60018 42.1618,9.60018 9.7298,0 29.1896,-9.60018 42.1632,-9.60018 35.6757,0 51.8916,19.20034 84.325,19.20034 3.2484,0 6.4815,-3.2051 9.7299,-6.39507 v -6.39507 l -6.4815,-3.2051 c -19.4597,-9.60018 -25.9473,-3.2051 -48.6493,-19.20035 -9.7299,-6.39509 -22.7035,-12.80529 -38.9195,-12.80529 -9.7298,0 -19.4597,6.3951 -32.4318,6.3951 -3.2484,0 -12.9783,-3.2051 -16.2175,-6.3951 z"
       style="fill:#ffffff;fill-opacity:1;fill-rule:nonzero;stroke:none;stroke-width:40.2700119"
       inkscape:connector-curvature="0" />
    <path
       id="path845"
       d="m 186.3424,-398.21466 c -6.4791,3.20503 -16.21,6.39492 -22.6952,12.80495 -3.2472,3.20502 -3.2472,6.39493 -3.2472,12.80497 3.2472,9.59994 9.7263,9.59994 19.4526,9.59994 9.7263,0 16.2116,-9.59994 29.179,-9.59994 3.2472,0 6.4791,0 9.7263,0 9.7263,6.39492 12.9735,12.80496 25.9363,15.99939 25.9379,9.59994 19.4526,-3.20502 51.8742,22.40037 6.4791,6.39492 6.4791,9.59994 16.21,12.80496 l 22.6953,-3.20502 3.2472,3.20502 c 3.2472,-3.20502 6.4791,-6.39492 6.4791,-9.59995 0,-3.20501 -3.2472,-6.39492 -6.4791,-6.39492 -25.9364,0 -29.179,-3.20501 -48.6316,-22.40035 -3.2472,-3.20502 -6.4791,-6.39492 -9.7263,-9.59995 -12.9735,-9.59993 -42.1479,-25.59934 -58.3579,-28.79981 -3.2472,0 -12.9735,-3.20502 -19.4526,-3.20502 -3.2473,0 -9.7264,3.20502 -16.2101,3.20502 z"
       style="fill:#ffffff;fill-opacity:1;fill-rule:nonzero;stroke:none;stroke-width:40.26216888"
       inkscape:connector-curvature="0" />
    <rect
       style="opacity:1;fill:#00559b;fill-opacity:1;fill-rule:nonzero;stroke:none;stroke-width:0.13408081;stroke-linecap:butt;stroke-linejoin:miter;stroke-miterlimit:4;stroke-dasharray:none;stroke-opacity:1;paint-order:stroke fill markers"
       id="rect868"
       width="100"
       height="100"
       x="221.99994"
       y="-65.999977" />
    <rect
       y="-65.999977"
       x="586.00006"
       height="100"
       width="100"
       id="rect899"
       style="opacity:1;fill:#00559b;fill-opacity:1;fill-rule:nonzero;stroke:none;stroke-width:0.13408081;stroke-linecap:butt;stroke-linejoin:miter;stroke-miterlimit:4;stroke-dasharray:none;stroke-opacity:1;paint-order:stroke fill markers" />
    <rect
       style="opacity:1;fill:#00559b;fill-opacity:1;fill-rule:nonzero;stroke:none;stroke-width:0.13408081;stroke-linecap:butt;stroke-linejoin:miter;stroke-miterlimit:4;stroke-dasharray:none;stroke-opacity:1;paint-order:stroke fill markers"
       id="rect910"
       width="100"
       height="100"
       x="404.00003"
       y="-65.999977" />
  </g>
</svg>
