<?xml version="1.0" encoding="UTF-8" standalone="no"?>
<!-- Created with Inkscape (http://www.inkscape.org/) -->

<svg
   xmlns:dc="http://purl.org/dc/elements/1.1/"
   xmlns:cc="http://creativecommons.org/ns#"
   xmlns:rdf="http://www.w3.org/1999/02/22-rdf-syntax-ns#"
   xmlns:svg="http://www.w3.org/2000/svg"
   xmlns="http://www.w3.org/2000/svg"
   xmlns:sodipodi="http://sodipodi.sourceforge.net/DTD/sodipodi-0.dtd"
   xmlns:inkscape="http://www.inkscape.org/namespaces/inkscape"
   width="1177mm"
   height="832mm"
   viewBox="0 0 1177 832"
   version="1.1"
   id="svg821"
   inkscape:version="0.92.2 (5c3e80d, 2017-08-06)"
   sodipodi:docname="22.svg">
  <defs
     id="defs815" />
  <sodipodi:namedview
     id="base"
     pagecolor="#ffffff"
     bordercolor="#666666"
     borderopacity="1.0"
     inkscape:pageopacity="0.0"
     inkscape:pageshadow="2"
     inkscape:zoom="0.12374369"
     inkscape:cx="907.0411"
     inkscape:cy="1178.7506"
     inkscape:document-units="mm"
     inkscape:current-layer="layer1"
     showgrid="false"
     fit-margin-top="0"
     fit-margin-left="0"
     fit-margin-right="0"
     fit-margin-bottom="0"
     inkscape:window-width="1920"
     inkscape:window-height="1057"
     inkscape:window-x="-8"
     inkscape:window-y="-8"
     inkscape:window-maximized="1"
     inkscape:snap-global="false" />
  <metadata
     id="metadata818">
    <rdf:RDF>
      <cc:Work
         rdf:about="">
        <dc:format>image/svg+xml</dc:format>
        <dc:type
           rdf:resource="http://purl.org/dc/dcmitype/StillImage" />
        <dc:title></dc:title>
      </cc:Work>
    </rdf:RDF>
  </metadata>
  <g
     inkscape:label="Layer 1"
     inkscape:groupmode="layer"
     id="layer1"
     transform="translate(-38,595)">
    <path
       d="M 118.76379,220.82628 72.270948,149.30436 C 66.284056,137.27961 51.066796,47.506405 51.066796,45.323545 L 58.787094,-83.7284 c 0,-54.28595 -30.939276,-168.28475 -15.442196,-215.68575 34.128367,-104.0363 -33.34489,-248.143 106.860732,-279.4835 46.21292,-10.2956 108.59492,4.6957 157.10189,0 24.72885,-2.3479 53.70998,-15.1024 77.99146,-15.1024 h 77.99146 c 16.78431,0 174.222,20.4834 180.37634,27.9267 19.80554,-23.9528 145.35275,-9.4548 180.3762,-12.818 24.67307,-2.3478 53.65414,-15.1023 77.99146,-15.1023 h 77.93562 c 24.67304,0 54.10164,12.7069 79.16634,15.1023 81.2923,7.8367 89.5167,29.6606 143.3387,108.0658 9.9026,45.7797 11.5249,121.8894 11.5249,167.5565 0,24.6809 -9.1191,103.9253 -11.5249,128.9965 -12.1973,126.81512 0.555,200.575405 -38.5482,323.58327 C 1118.3853,204.88317 1133.9948,236 1059.1364,236 h -79.16634 c -24.28149,0 -53.31839,-12.75449 -77.93562,-15.16579 -85.15271,-8.21744 -180.65597,0 -266.53614,0 l -9.28718,-4.64809 c -2.51845,5.82201 -76.36907,19.81229 -84.98511,19.81229 h -77.93537 c -24.28138,0 -53.3184,-12.75449 -77.99146,-15.16578 -85.15292,-8.21745 -180.65618,0 -266.53619,0"
       style="fill:#00783a;fill-opacity:1;fill-rule:nonzero;stroke:none;stroke-width:55.95595169"
       id="path4874"
       inkscape:connector-curvature="0" />
    <path
       style="opacity:1;fill:#ffffff;fill-opacity:1;fill-rule:nonzero;stroke:none;stroke-width:0.28476453;stroke-linecap:butt;stroke-linejoin:miter;stroke-miterlimit:4;stroke-dasharray:none;stroke-opacity:1;paint-order:stroke fill markers"
       d="M 468.42313,-360.00967 612.65392,-179.7212 468.42313,0.567282 Z"
       id="rect821"
       inkscape:connector-curvature="0"
       sodipodi:nodetypes="cccc" />
    <path
       d="m 360.24107,88.046278 c -1.53072,3.909832 -2.97692,7.783562 -5.39942,11.283042 l 2.25375,1.78601 h -13.98779 c 0,-20.00899 -14.79663,-32.950125 -34.22726,-32.950125 -17.64462,0 -32.95096,21.243505 -28.4025,37.930415 H 157.85689 l 0.48202,-5.877 c 0,-15.06965 -13.26477,-32.055853 -29.29428,-32.055853 -21.89655,0 -36.43761,16.134232 -33.37631,37.930413 -4.2062,-4.25988 -6.4239,-9.27982 -9.90693,-14.00557 H 79 v -4.513111 c 0.12115,-0.482741 0.24101,-0.965481 0.48216,-1.363688 l 1.36183,-2.256505 1.78385,-1.363687 C 81.66351,77.655027 80.84399,72.36956 80.84399,67.264945 c 0,-2.425558 0.6026,-5.273351 0.84375,-7.662693 0.24101,-0.60349 1.08462,-1.70149 1.7837,-1.834327 l 36.52198,-33.844214 c 1.08476,-0.844731 2.42251,-2.087711 3.61573,-2.727245 1.39803,-0.724039 5.44758,-1.786024 7.18311,-2.25662 h 4.5075 c 10.88322,-1.701491 22.83303,-1.78601 33.80193,-1.78601 h 25.25553 c 16.58264,0 33.97168,1.834313 50.4688,3.620178 3.44697,0.0851 8.71385,2.811779 11.26889,4.935606 l 29.29429,24.861319 67.64582,10.390112 3.14567,0.844615 2.25375,2.25662 c 0.6026,0.844774 1.22928,1.834327 1.7837,2.678943 1.20519,3.789245 1.83202,8.254197 1.83202,12.218365 h 1.31366 c 1.20519,0 2.84437,0.965323 3.61572,1.785866 0.12115,0.603476 0.48202,1.617115 0.48202,2.256649 0,0.603447 -0.36159,1.617116 -0.48202,2.25662 -0.84375,1.206808 -2.4225,1.665303 -3.61572,2.25665 l -3.14568,0.482581"
       style="fill:#ffffff;fill-opacity:1;fill-rule:nonzero;stroke:none;stroke-width:42.54444122"
       id="path1104"
       inkscape:connector-curvature="0" />
    <path
       d="m 290.38362,99.75291 c 0,-12.132546 9.82269,-20.731873 21.64226,-20.731873 9.18389,0 16.75154,5.792466 19.38736,14.601633 l 0.8436,2.98069 v 4.98377 c 0,8.64027 -9.60562,19.41287 -18.49543,19.41287 h -4.92938 c -5.43548,0 -13.05259,-5.40621 -15.77394,-9.91948 -1.83202,-2.93237 -2.7238,-7.87991 -2.7238,-11.31926"
       style="fill:#ffffff;fill-opacity:1;fill-rule:nonzero;stroke:none;stroke-width:42.54444122"
       id="path1116"
       inkscape:connector-curvature="0" />
    <path
       d="m 105.60178,99.75291 c 0,-11.789853 10.12399,-20.731873 21.59885,-20.731873 9.22011,0 16.75271,5.792466 19.38852,14.601633 l 0.84374,2.98069 v 4.98377 c 0,8.8937 -6.89394,16.26213 -15.13644,18.51864 l -3.31441,0.84473 h -4.5075 c -10.49757,0 -18.92093,-11.40374 -18.92093,-21.24347"
       style="fill:#ffffff;fill-opacity:1;fill-rule:nonzero;stroke:none;stroke-width:42.54444122"
       id="path1118"
       inkscape:connector-curvature="0" />
    <path
       d="m 183.11126,26.658182 -0.84375,-2.25662 -1.83188,-1.363673 -2.67562,-0.482625 c -9.65395,0.121154 -21.21691,-0.48274 -30.65496,0.844615 -1.66327,0.04327 -5.39942,0.965481 -6.76138,1.834327 -0.9642,0.603318 -2.20559,1.918702 -3.14567,2.678943 -3.44684,3.909822 -14.88087,14.34577 -14.88087,19.881073 0,3.149554 4.12182,6.769732 7.18311,6.769732 h 51.87058 l 2.67563,-0.482582 1.83187,-1.786009 0.84375,-2.256621 v -1.78601 l -3.61572,-21.669376"
       style="fill:#00783a;fill-opacity:1;fill-rule:nonzero;stroke:none;stroke-width:42.54444122"
       id="path1128"
       inkscape:connector-curvature="0" />
    <path
       d="m 258.36799,54.628021 2.25375,-0.482726 2.25375,-1.786024 0.60274,-1.49625 0.36144,-3.016905 -1.36182,-2.256605 -15.34976,-15.369102 c -0.24101,-0.241298 -3.01313,-2.594424 -3.14568,-2.678943 -1.08476,-0.603288 -5.70072,-1.870399 -7.23144,-2.25662 -14.24452,-1.206765 -28.53014,-2.17213 -42.81563,-2.72726 -1.27759,0.0851 -3.06129,0.965481 -4.03745,1.834327 -0.84375,1.086058 -1.3138,3.197856 -1.36197,4.513111 0.72317,3.789245 1.91625,25.713305 8.12322,25.713305 h 61.73654"
       style="fill:#00783a;fill-opacity:1;fill-rule:nonzero;stroke:none;stroke-width:42.54444122"
       id="path1130"
       inkscape:connector-curvature="0" />
    <path
       inkscape:connector-curvature="0"
       id="path5168"
       style="fill:#ffffff;fill-opacity:1;fill-rule:nonzero;stroke:none;stroke-width:42.54444122"
       d="m 360.24107,-160.03067 c -1.53072,3.90981 -2.97692,7.78356 -5.39942,11.28303 l 2.25375,1.78601 h -13.98779 c 0,-20.00899 -14.79663,-32.9501 -34.22726,-32.9501 -17.64462,0 -32.95096,21.24347 -28.4025,37.93039 H 157.85689 l 0.48202,-5.87697 c 0,-15.06967 -13.26477,-32.05587 -29.29428,-32.05587 -21.89655,0 -36.43761,16.13423 -33.37631,37.93039 -4.2062,-4.25986 -6.4239,-9.27981 -9.90693,-14.00553 H 79 v -4.51313 c 0.12115,-0.48274 0.24101,-0.96548 0.48216,-1.3637 l 1.36183,-2.25649 1.78385,-1.3637 c -0.96433,-4.93558 -1.78385,-10.22106 -1.78385,-15.32568 0,-2.42552 0.6026,-5.27336 0.84375,-7.66269 0.24101,-0.60346 1.08462,-1.70149 1.7837,-1.83433 l 36.52198,-33.84418 c 1.08476,-0.84476 2.42251,-2.08774 3.61573,-2.72726 1.39803,-0.72404 5.44758,-1.78601 7.18311,-2.25663 h 4.5075 c 10.88322,-1.7015 22.83303,-1.78601 33.80193,-1.78601 h 25.25553 c 16.58264,0 33.97168,1.83432 50.4688,3.62019 3.44697,0.0851 8.71385,2.81178 11.26889,4.93558 l 29.29429,24.86134 67.64582,10.3901 3.14567,0.84461 2.25375,2.25664 c 0.6026,0.84476 1.22928,1.83433 1.7837,2.67894 1.20519,3.78923 1.83202,8.25419 1.83202,12.21837 h 1.31366 c 1.20519,0 2.84437,0.96533 3.61572,1.78586 0.12115,0.60347 0.48202,1.61712 0.48202,2.25664 0,0.60346 -0.36159,1.61711 -0.48202,2.25663 -0.84375,1.20678 -2.4225,1.66529 -3.61572,2.25664 l -3.14568,0.48259" />
    <path
       inkscape:connector-curvature="0"
       id="path5170"
       style="fill:#ffffff;fill-opacity:1;fill-rule:nonzero;stroke:none;stroke-width:42.54444122"
       d="m 290.38362,-148.32403 c 0,-12.13255 9.82269,-20.73188 21.64226,-20.73188 9.18389,0 16.75154,5.79245 19.38736,14.60164 l 0.8436,2.98067 v 4.98375 c 0,8.64029 -9.60562,19.41289 -18.49543,19.41289 h -4.92938 c -5.43548,0 -13.05259,-5.40621 -15.77394,-9.91948 -1.83202,-2.93235 -2.7238,-7.8799 -2.7238,-11.31923" />
    <path
       inkscape:connector-curvature="0"
       id="path5172"
       style="fill:#ffffff;fill-opacity:1;fill-rule:nonzero;stroke:none;stroke-width:42.54444122"
       d="m 105.60178,-148.32403 c 0,-11.78986 10.12399,-20.73188 21.59885,-20.73188 9.22011,0 16.75271,5.79245 19.38852,14.60164 l 0.84374,2.98067 v 4.98375 c 0,8.8937 -6.89394,16.26216 -15.13644,18.51865 l -3.31441,0.84476 h -4.5075 c -10.49757,0 -18.92093,-11.40375 -18.92093,-21.24346" />
    <path
       inkscape:connector-curvature="0"
       id="path5174"
       style="fill:#00783a;fill-opacity:1;fill-rule:nonzero;stroke:none;stroke-width:42.54444122"
       d="m 183.11126,-221.41875 -0.84375,-2.25663 -1.83188,-1.36371 -2.67562,-0.48259 c -9.65395,0.12115 -21.21691,-0.48274 -30.65496,0.84461 -1.66327,0.0433 -5.39942,0.96548 -6.76138,1.83433 -0.9642,0.60332 -2.20559,1.9187 -3.14567,2.67894 -3.44684,3.90981 -14.88087,14.34577 -14.88087,19.88106 0,3.14957 4.12182,6.76976 7.18311,6.76976 h 51.87058 l 2.67563,-0.48259 1.83187,-1.78601 0.84375,-2.25664 v -1.78601 l -3.61572,-21.66937" />
    <path
       inkscape:connector-curvature="0"
       id="path5176"
       style="fill:#00783a;fill-opacity:1;fill-rule:nonzero;stroke:none;stroke-width:42.54444122"
       d="m 258.36799,-193.44894 2.25375,-0.48274 2.25375,-1.78601 0.60274,-1.49625 0.36144,-3.01688 -1.36182,-2.25663 -15.34976,-15.36909 c -0.24101,-0.2413 -3.01313,-2.59442 -3.14568,-2.67894 -1.08476,-0.60332 -5.70072,-1.87038 -7.23144,-2.25663 -14.24452,-1.20678 -28.53014,-2.17212 -42.81563,-2.72726 -1.27759,0.0851 -3.06129,0.96548 -4.03745,1.83432 -0.84375,1.08606 -1.3138,3.19789 -1.36197,4.51313 0.72317,3.78923 1.91625,25.71332 8.12322,25.71332 h 61.73654" />
    <path
       d="m 360.24107,-408.10761 c -1.53072,3.90981 -2.97692,7.78356 -5.39942,11.28303 l 2.25375,1.78601 h -13.98779 c 0,-20.00893 -14.79663,-32.95004 -34.22726,-32.95004 -17.64462,0 -32.95096,21.24341 -28.4025,37.93033 H 157.85689 l 0.48202,-5.87697 c 0,-15.06961 -13.26477,-32.05581 -29.29428,-32.05581 -21.89655,0 -36.43761,16.13423 -33.37631,37.93033 -4.2062,-4.25986 -6.4239,-9.27981 -9.90693,-14.00553 H 79 v -4.51313 c 0.12115,-0.48268 0.24101,-0.96542 0.48216,-1.36364 l 1.36183,-2.25649 1.78385,-1.3637 c -0.96433,-4.93558 -1.78385,-10.22106 -1.78385,-15.32568 0,-2.42553 0.6026,-5.27336 0.84375,-7.66269 0.24101,-0.60346 1.08462,-1.70149 1.7837,-1.83433 l 36.52198,-33.84418 c 1.08476,-0.84476 2.42251,-2.08774 3.61573,-2.72726 1.39803,-0.72404 5.44758,-1.78601 7.18311,-2.25664 h 4.5075 c 10.88322,-1.70149 22.83303,-1.786 33.80193,-1.786 h 25.25553 c 16.58264,0 33.97168,1.83432 50.4688,3.62019 3.44697,0.0851 8.71385,2.81178 11.26889,4.93557 l 29.29429,24.86135 67.64582,10.3901 3.14567,0.84461 2.25375,2.25664 c 0.6026,0.84476 1.22928,1.83433 1.7837,2.67894 1.20519,3.78923 1.83202,8.25419 1.83202,12.21837 h 1.31366 c 1.20519,0 2.84437,0.96533 3.61572,1.78586 0.12115,0.60347 0.48202,1.61712 0.48202,2.25664 0,0.60346 -0.36159,1.61711 -0.48202,2.25663 -0.84375,1.20678 -2.4225,1.66529 -3.61572,2.25658 l -3.14568,0.4826"
       style="fill:#ffffff;fill-opacity:1;fill-rule:nonzero;stroke:none;stroke-width:42.54444122"
       id="path5178"
       inkscape:connector-curvature="0" />
    <path
       d="m 290.38362,-396.40097 c 0,-12.13255 9.82269,-20.73182 21.64226,-20.73182 9.18389,0 16.75154,5.79245 19.38736,14.60158 l 0.8436,2.98067 v 4.98375 c 0,8.64029 -9.60562,19.41289 -18.49543,19.41289 h -4.92938 c -5.43548,0 -13.05259,-5.4062 -15.77394,-9.91947 -1.83202,-2.93236 -2.7238,-7.87991 -2.7238,-11.31924"
       style="fill:#ffffff;fill-opacity:1;fill-rule:nonzero;stroke:none;stroke-width:42.54444122"
       id="path5180"
       inkscape:connector-curvature="0" />
    <path
       d="m 105.60178,-396.40097 c 0,-11.78986 10.12399,-20.73182 21.59885,-20.73182 9.22011,0 16.75271,5.79245 19.38852,14.60158 l 0.84374,2.98067 v 4.98375 c 0,8.8937 -6.89394,16.26217 -15.13644,18.51866 l -3.31441,0.84476 h -4.5075 c -10.49757,0 -18.92093,-11.40375 -18.92093,-21.24347"
       style="fill:#ffffff;fill-opacity:1;fill-rule:nonzero;stroke:none;stroke-width:42.54444122"
       id="path5182"
       inkscape:connector-curvature="0" />
    <path
       d="m 183.11126,-469.49563 -0.84375,-2.25663 -1.83188,-1.36371 -2.67562,-0.48259 c -9.65395,0.12115 -21.21691,-0.48274 -30.65496,0.84461 -1.66327,0.0433 -5.39942,0.96548 -6.76138,1.83433 -0.9642,0.60332 -2.20559,1.9187 -3.14567,2.67894 -3.44684,3.90981 -14.88087,14.34577 -14.88087,19.88106 0,3.14957 4.12182,6.76976 7.18311,6.76976 h 51.87058 l 2.67563,-0.48259 1.83187,-1.78601 0.84375,-2.25664 v -1.78601 l -3.61572,-21.66938"
       style="fill:#00783a;fill-opacity:1;fill-rule:nonzero;stroke:none;stroke-width:42.54444122"
       id="path5184"
       inkscape:connector-curvature="0" />
    <path
       d="m 258.36799,-441.52582 2.25375,-0.48274 2.25375,-1.78601 0.60274,-1.49625 0.36144,-3.01688 -1.36182,-2.25663 -15.34976,-15.36909 c -0.24101,-0.2413 -3.01313,-2.59442 -3.14568,-2.67894 -1.08476,-0.60332 -5.70072,-1.87038 -7.23144,-2.25663 -14.24452,-1.20678 -28.53014,-2.17212 -42.81563,-2.72726 -1.27759,0.0851 -3.06129,0.96548 -4.03745,1.83432 -0.84375,1.08606 -1.3138,3.19789 -1.36197,4.51313 0.72317,3.78923 1.91625,25.71332 8.12322,25.71332 h 61.73654"
       style="fill:#00783a;fill-opacity:1;fill-rule:nonzero;stroke:none;stroke-width:42.54444122"
       id="path5186"
       inkscape:connector-curvature="0" />
    <path
       style="opacity:1;fill:#ffffff;fill-opacity:1;stroke:none;stroke-width:22.09139061;stroke-linejoin:round;stroke-miterlimit:4;stroke-dasharray:none;stroke-opacity:1"
       d="m 684.76935,-150.29433 10.84144,-232.31799 c 0.71996,-15.42765 12.43398,-27.87821 27.87827,-27.87821 h 384.09904 c 15.4447,0 27.8783,12.43369 27.8783,27.87821 l 10.8415,232.31799 -12.5452,80.537031 12.5452,9.29264 V 3.035532 h -40.2685 v 48.012422 h -75.8905 V 3.035532 H 800.92851 V 51.047954 H 725.03797 V 3.035532 h -40.26862 v -63.500191 l 12.54541,-9.29264 z"
       id="rect62424"
       inkscape:connector-curvature="0"
       sodipodi:nodetypes="csssscccccccccccccccc" />
    <path
       inkscape:connector-curvature="0"
       id="path62466"
       style="fill:#00783a;fill-opacity:1;fill-rule:evenodd;stroke:none;stroke-width:11.6925478"
       d="m 799.37791,-395.7842 h 232.32159 v 51.73428 H 799.37791 Z" />
    <path
       inkscape:connector-curvature="0"
       id="path62472"
       style="fill:#00783a;fill-opacity:1;fill-rule:evenodd;stroke:none;stroke-width:11.63670444"
       d="m 728.14363,-73.472969 h 374.79017 v 16.73077 H 728.14363 Z" />
    <path
       style="opacity:1;fill:#00783a;fill-opacity:1;stroke:none;stroke-width:16.80883217;stroke-linejoin:round;stroke-miterlimit:4;stroke-dasharray:none;stroke-opacity:1"
       d="m 723.81335,-329.33304 h 179.03306 v 149.61188 H 718.54724 c -9.43801,0 -17.37779,-7.60456 -17.03644,-17.03668 l 4.18181,-115.53866 c 0.34096,-9.43212 8.68232,-17.03654 18.12074,-17.03654 z"
       id="rect62516"
       inkscape:connector-curvature="0"
       sodipodi:nodetypes="sccssss" />
    <circle
       style="opacity:1;fill:#00783a;fill-opacity:1;stroke:none;stroke-width:5.49180126;stroke-linejoin:round;stroke-miterlimit:4;stroke-dasharray:none;stroke-opacity:1"
       id="path62560"
       cx="731.69415"
       cy="-107.70554"
       r="17.501747" />
    <circle
       r="17.501747"
       cy="-107.70554"
       cx="782.80969"
       id="circle5127"
       style="opacity:1;fill:#00783a;fill-opacity:1;stroke:none;stroke-width:5.49180126;stroke-linejoin:round;stroke-miterlimit:4;stroke-dasharray:none;stroke-opacity:1" />
    <circle
       r="17.501747"
       cy="-107.70554"
       cx="1048.2678"
       id="circle5131"
       style="opacity:1;fill:#00783a;fill-opacity:1;stroke:none;stroke-width:5.49180126;stroke-linejoin:round;stroke-miterlimit:4;stroke-dasharray:none;stroke-opacity:1" />
    <circle
       style="opacity:1;fill:#00783a;fill-opacity:1;stroke:none;stroke-width:5.49180126;stroke-linejoin:round;stroke-miterlimit:4;stroke-dasharray:none;stroke-opacity:1"
       id="circle5133"
       cx="1099.3829"
       cy="-107.70554"
       r="17.501747" />
    <path
       sodipodi:nodetypes="sccssss"
       inkscape:connector-curvature="0"
       id="path5155"
       d="M 1107.2641,-329.33304 H 928.23101 v 149.61188 h 184.29889 c 9.4382,0 17.378,-7.60456 17.0366,-17.03668 l -4.1817,-115.53866 c -0.3414,-9.43212 -8.6824,-17.03654 -18.1207,-17.03654 z"
       style="opacity:1;fill:#00783a;fill-opacity:1;stroke:none;stroke-width:16.80883217;stroke-linejoin:round;stroke-miterlimit:4;stroke-dasharray:none;stroke-opacity:1" />
  </g>
</svg>
