<?xml version="1.0" encoding="UTF-8" standalone="no"?>
<!-- Created with Inkscape (http://www.inkscape.org/) -->

<svg
   xmlns:dc="http://purl.org/dc/elements/1.1/"
   xmlns:cc="http://creativecommons.org/ns#"
   xmlns:rdf="http://www.w3.org/1999/02/22-rdf-syntax-ns#"
   xmlns:svg="http://www.w3.org/2000/svg"
   xmlns="http://www.w3.org/2000/svg"
   xmlns:sodipodi="http://sodipodi.sourceforge.net/DTD/sodipodi-0.dtd"
   xmlns:inkscape="http://www.inkscape.org/namespaces/inkscape"
   width="832mm"
   height="832mm"
   viewBox="0 0 832 832"
   version="1.1"
   id="svg821"
   inkscape:version="0.92.2 (5c3e80d, 2017-08-06)"
   sodipodi:docname="22.svg">
  <defs
     id="defs815" />
  <sodipodi:namedview
     id="base"
     pagecolor="#ffffff"
     bordercolor="#666666"
     borderopacity="1.0"
     inkscape:pageopacity="0.0"
     inkscape:pageshadow="2"
     inkscape:zoom="0.12374369"
     inkscape:cx="907.04124"
     inkscape:cy="739.02117"
     inkscape:document-units="mm"
     inkscape:current-layer="layer1"
     showgrid="false"
     fit-margin-top="0"
     fit-margin-left="0"
     fit-margin-right="0"
     fit-margin-bottom="0"
     inkscape:window-width="1920"
     inkscape:window-height="1057"
     inkscape:window-x="-8"
     inkscape:window-y="-8"
     inkscape:window-maximized="1"
     inkscape:snap-global="false" />
  <metadata
     id="metadata818">
    <rdf:RDF>
      <cc:Work
         rdf:about="">
        <dc:format>image/svg+xml</dc:format>
        <dc:type
           rdf:resource="http://purl.org/dc/dcmitype/StillImage" />
        <dc:title></dc:title>
      </cc:Work>
    </rdf:RDF>
  </metadata>
  <g
     inkscape:label="Layer 1"
     inkscape:groupmode="layer"
     id="layer1"
     transform="translate(-38,595)">
    <path
       inkscape:connector-curvature="0"
       id="path1462"
       style="fill:#00559b;fill-opacity:1;fill-rule:nonzero;stroke:none;stroke-width:55.36474609"
       d="M 101.73976,157.9919 C 95.76456,145.962 39,34.4412 39,32.2252 v -155.9611 c 0,-54.2401 32.14391,-93.4098 47.63547,-140.8357 16.21142,-49.4752 14.99295,-107.3714 31.42554,-157.17972 C 180.52464,-610.89855 266.00298,-564.52654 414.497,-578.87618 469.3811,-584.20009 514.85846,-594 571.40186,-594 c 24.28815,0 53.22319,12.73669 77.89871,15.12382 83.54321,8.04101 131.56595,0.62833 188.33037,79.17181 C 846.20949,-453.49732 869,-389.0631 869,-343.7433 c 0,24.4338 -13.72257,54.2951 -16.26484,79.1717 C 839.51445,-137.0332 874.36673,1.6978 837.63252,126.5223 749.00025,229.517 701.52957,236 571.40336,236 c -24.23328,0 -53.22319,-12.7995 -77.89881,-15.1867 -73.36174,-7.0357 -155.68779,0 -229.7694,0 -14.22435,0 -22.46105,2.5442 -36.40314,0 -5.25382,-0.942 -111.37263,-55.7368 -125.59065,-62.8276" />
    <path
       style="fill:#ffffff;fill-opacity:1;fill-rule:nonzero;stroke:none;stroke-width:57.01173782"
       d="M 372.2002,17.000148 359.1436,33.600159 H 316 v 16.60002 h 30.0871 l -16.5959,21.10001 H 274 v 22.49993 h 37.7941 L 290.4,121 h 37.3998 L 344.9042,93.800119 H 563.0955 L 580.1999,121 h 37.3998 L 596.2056,93.800119 h 37.7941 v -22.49993 h -55.4912 l -16.5959,-21.10001 h 30.0871 V 33.600159 H 548.8561 L 535.7995,17.000148 h -20.9998 l 10.4387,16.600011 H 382.7613 L 393.2,17.000148 Z m 0.122,33.200031 h 163.3553 l 13.269,21.10001 H 359.0532 Z"
       id="path880"
       inkscape:connector-curvature="0"
       sodipodi:nodetypes="cccccccccccccccccccccccccccccccccc" />
    <path
       style="opacity:1;fill:#ffffff;fill-opacity:1;fill-rule:nonzero;stroke:none;stroke-width:0.23689643;stroke-linecap:butt;stroke-linejoin:miter;stroke-miterlimit:4;stroke-dasharray:none;stroke-opacity:1;paint-order:stroke fill markers"
       d="M 343.9999,0.3997785 C 331.5915,-3.838611 312.7426,-13.800811 300.7999,-44.499801 L 274,-104.99996 v -285.00022 c 0,-24.92996 20.0698,-44.99986 44.9998,-44.99986 h 270.0001 c 24.93,0 45.0003,20.0699 45.0003,44.99986 v 285.00022 l -26.8004,60.500159 c -11.9427,30.69899 -30.7916,40.66119 -43.2,44.8995795 H 535.8 V 11.000068 h -21 V 0.3997785 H 393.2 V 11.000068 h -21 V 0.3997785 Z"
       id="rect931"
       inkscape:connector-curvature="0"
       sodipodi:nodetypes="cccsssscccccccccccc" />
    <path
       inkscape:connector-curvature="0"
       id="path967"
       style="fill:#ffffff;fill-opacity:1;fill-rule:nonzero;stroke:none;stroke-width:57.00553131"
       d="M 549.9999,-446.00004 H 358 l 41,-33 h 109.9999"
       sodipodi:nodetypes="cccc" />
    <circle
       style="opacity:1;fill:#00559b;fill-opacity:1;fill-rule:nonzero;stroke:none;stroke-width:0.11215937;stroke-linecap:butt;stroke-linejoin:miter;stroke-miterlimit:4;stroke-dasharray:none;stroke-opacity:1;paint-order:stroke fill markers"
       id="path978"
       cx="454.00006"
       cy="-380.00003"
       r="27.000002" />
    <rect
       style="opacity:1;fill:#00559b;fill-opacity:1;fill-rule:nonzero;stroke:none;stroke-width:0.22178544;stroke-linecap:butt;stroke-linejoin:miter;stroke-miterlimit:4;stroke-dasharray:none;stroke-opacity:1;paint-order:stroke fill markers"
       id="rect989"
       width="274"
       height="33"
       x="317.00006"
       y="-137.99998" />
    <rect
       y="-325.00003"
       x="300.80011"
       height="160"
       width="142"
       id="rect1004"
       style="opacity:1;fill:#00559b;fill-opacity:1;fill-rule:nonzero;stroke:none;stroke-width:0.18959387;stroke-linecap:butt;stroke-linejoin:miter;stroke-miterlimit:4;stroke-dasharray:none;stroke-opacity:1;paint-order:stroke fill markers"
       rx="11"
       ry="11" />
    <rect
       ry="11"
       rx="11"
       style="opacity:1;fill:#00559b;fill-opacity:1;fill-rule:nonzero;stroke:none;stroke-width:0.11799441;stroke-linecap:butt;stroke-linejoin:miter;stroke-miterlimit:4;stroke-dasharray:none;stroke-opacity:1;paint-order:stroke fill markers"
       id="rect1033"
       width="55.000004"
       height="160"
       x="552.20013"
       y="-325.00003" />
  </g>
</svg>
