<?xml version="1.0" encoding="UTF-8" standalone="no"?>
<!-- Created with Inkscape (http://www.inkscape.org/) -->

<svg
   xmlns:dc="http://purl.org/dc/elements/1.1/"
   xmlns:cc="http://creativecommons.org/ns#"
   xmlns:rdf="http://www.w3.org/1999/02/22-rdf-syntax-ns#"
   xmlns:svg="http://www.w3.org/2000/svg"
   xmlns="http://www.w3.org/2000/svg"
   xmlns:sodipodi="http://sodipodi.sourceforge.net/DTD/sodipodi-0.dtd"
   xmlns:inkscape="http://www.inkscape.org/namespaces/inkscape"
   width="832mm"
   height="832mm"
   viewBox="0 0 832 832"
   version="1.1"
   id="svg821"
   inkscape:version="0.92.2 (5c3e80d, 2017-08-06)"
   sodipodi:docname="22.svg">
  <defs
     id="defs815" />
  <sodipodi:namedview
     id="base"
     pagecolor="#ffffff"
     bordercolor="#666666"
     borderopacity="1.0"
     inkscape:pageopacity="0.0"
     inkscape:pageshadow="2"
     inkscape:zoom="0.175"
     inkscape:cx="178.04407"
     inkscape:cy="1276.4741"
     inkscape:document-units="mm"
     inkscape:current-layer="layer1"
     showgrid="false"
     fit-margin-top="0"
     fit-margin-left="0"
     fit-margin-right="0"
     fit-margin-bottom="0"
     inkscape:window-width="1920"
     inkscape:window-height="1057"
     inkscape:window-x="-8"
     inkscape:window-y="-8"
     inkscape:window-maximized="1"
     inkscape:snap-global="false" />
  <metadata
     id="metadata818">
    <rdf:RDF>
      <cc:Work
         rdf:about="">
        <dc:format>image/svg+xml</dc:format>
        <dc:type
           rdf:resource="http://purl.org/dc/dcmitype/StillImage" />
        <dc:title></dc:title>
      </cc:Work>
    </rdf:RDF>
  </metadata>
  <g
     inkscape:label="Layer 1"
     inkscape:groupmode="layer"
     id="layer1"
     transform="translate(-38,595)">
    <path
       inkscape:connector-curvature="0"
       id="path1462"
       style="fill:#00783a;fill-opacity:1;fill-rule:nonzero;stroke:none;stroke-width:55.36474609"
       d="M 101.7397,157.9919 C 95.7645,145.962 39,34.4412 39,32.2252 v -155.9611 c 0,-54.2401 32.1439,-93.4098 47.6355,-140.8357 16.2114,-49.4752 14.9929,-107.3714 31.4255,-157.17972 62.4636,-189.14723 147.942,-142.77522 296.436,-157.12486 C 469.3811,-584.20009 514.8584,-594 571.4018,-594 c 24.2882,0 53.2232,12.73669 77.8988,15.12382 83.54317,8.04101 131.56587,0.62833 188.33027,79.17181 8.5786,46.20705 31.3691,110.64127 31.3691,155.96107 0,24.4338 -13.7226,54.2951 -16.2649,79.1717 -13.2207,127.5384 21.6316,266.2694 -15.1026,391.0939 C 749.00017,229.517 701.52957,236 571.4033,236 c -24.2332,0 -53.2231,-12.7995 -77.8988,-15.1867 -73.3617,-7.0357 -155.6878,0 -229.7694,0 -14.2243,0 -22.461,2.5442 -36.4031,0 -5.2538,-0.942 -111.3726,-55.7368 -125.5907,-62.8276" />
    <path
       style="opacity:1;fill:#ffffff;fill-opacity:1;stroke:none;stroke-width:29.03138161;stroke-linejoin:round;stroke-miterlimit:4;stroke-dasharray:none;stroke-opacity:1"
       d="M 714.00659,-230.75006 686.2827,-438.25008 c -2.75127,-20.59163 -11.48853,-35.24591 -32.21974,-36.24994 l -92.9127,-4.5 H 348.8498 l -92.9127,4.5 c -20.7312,1.00403 -29.4685,15.65831 -32.2197,36.24994 l -27.7239,207.50002 V -59.000008 L 189,-47.000018 v 60.00001 h 11.4893 l 13.4873,13.75 V 121 h 74.9295 V 26.749992 H 621.09389 V 121 h 74.9296 V 26.749992 l 13.48735,-13.75 H 721 v -60.00001 l -6.99341,-11.99999 z"
       id="rect24224"
       inkscape:connector-curvature="0"
       sodipodi:nodetypes="cssccsscccccccccccccccccc" />
    <path
       d="M 377.5728,-9.9999181 V -39.999908 H 222.7183 v -9.00002 h 464.56346 v 9.00002 H 532.42728 v 29.9999899 z"
       style="fill:#00783a;fill-opacity:1;fill-rule:evenodd;stroke:none;stroke-width:19.11389351"
       id="path24260"
       inkscape:connector-curvature="0"
       sodipodi:nodetypes="ccccccccc" />
    <rect
       style="opacity:1;fill:#00783a;fill-opacity:1;stroke:none;stroke-width:17.95809555;stroke-linejoin:round;stroke-miterlimit:4;stroke-dasharray:none;stroke-opacity:1"
       id="rect24296"
       width="89.415955"
       height="48.250004"
       x="222.71796"
       y="-115.75005" />
    <rect
       y="-115.75005"
       x="597.86554"
       height="48.250004"
       width="89.415955"
       id="rect24309"
       style="opacity:1;fill:#00783a;fill-opacity:1;stroke:none;stroke-width:17.95809555;stroke-linejoin:round;stroke-miterlimit:4;stroke-dasharray:none;stroke-opacity:1" />
    <path
       style="opacity:1;fill:#00783a;fill-opacity:1;stroke:none;stroke-width:37.25982285;stroke-linejoin:round;stroke-miterlimit:4;stroke-dasharray:none;stroke-opacity:1"
       d="m 653.06352,-453.99993 -109.89665,-5.00006 H 368.3315 l -109.8967,5.00006 c -5.5291,0.25125 -9.2315,4.51237 -9.9906,9.99994 l -24.9023,180 c -0.759,5.48767 4.4558,9.99997 9.9905,9.99997 h 444.43344 c 5.53471,0 10.74973,-4.5123 9.99053,-9.99997 l -24.90224,-180 c -0.75901,-5.48768 -4.45577,-9.99994 -9.99061,-9.99994 z"
       id="rect24332"
       inkscape:connector-curvature="0"
       sodipodi:nodetypes="sccssssssss" />
    <path
       style="fill:#ffffff;fill-opacity:1;stroke:none;stroke-width:0.86895263"
       d="m 315.8812,-283.99991 c -41.6672,-0.0566 -50.0308,29.9604 -65.1892,29.99989 h -27.224 v 9.99998 h 184.82627 v -9.99998 H 381.0703 c -15.1583,-0.0379 -23.522,-30.05261 -65.1891,-29.99989 z"
       id="path16"
       inkscape:connector-curvature="0"
       sodipodi:nodetypes="cccccccc" />
  </g>
</svg>
