<?xml version="1.0" encoding="UTF-8" standalone="no"?>
<!-- Created with Inkscape (http://www.inkscape.org/) -->

<svg
   xmlns:dc="http://purl.org/dc/elements/1.1/"
   xmlns:cc="http://creativecommons.org/ns#"
   xmlns:rdf="http://www.w3.org/1999/02/22-rdf-syntax-ns#"
   xmlns:svg="http://www.w3.org/2000/svg"
   xmlns="http://www.w3.org/2000/svg"
   xmlns:sodipodi="http://sodipodi.sourceforge.net/DTD/sodipodi-0.dtd"
   xmlns:inkscape="http://www.inkscape.org/namespaces/inkscape"
   width="832mm"
   height="832mm"
   viewBox="0 0 832 832"
   version="1.1"
   id="svg821"
   inkscape:version="0.92.2 (5c3e80d, 2017-08-06)"
   sodipodi:docname="22.svg">
  <defs
     id="defs815" />
  <sodipodi:namedview
     id="base"
     pagecolor="#ffffff"
     bordercolor="#666666"
     borderopacity="1.0"
     inkscape:pageopacity="0.0"
     inkscape:pageshadow="2"
     inkscape:zoom="0.12374369"
     inkscape:cx="907.04124"
     inkscape:cy="739.02117"
     inkscape:document-units="mm"
     inkscape:current-layer="layer1"
     showgrid="false"
     fit-margin-top="0"
     fit-margin-left="0"
     fit-margin-right="0"
     fit-margin-bottom="0"
     inkscape:window-width="1920"
     inkscape:window-height="1057"
     inkscape:window-x="-8"
     inkscape:window-y="-8"
     inkscape:window-maximized="1"
     inkscape:snap-global="false" />
  <metadata
     id="metadata818">
    <rdf:RDF>
      <cc:Work
         rdf:about="">
        <dc:format>image/svg+xml</dc:format>
        <dc:type
           rdf:resource="http://purl.org/dc/dcmitype/StillImage" />
        <dc:title></dc:title>
      </cc:Work>
    </rdf:RDF>
  </metadata>
  <g
     inkscape:label="Layer 1"
     inkscape:groupmode="layer"
     id="layer1"
     transform="translate(-38,595)">
    <path
       inkscape:connector-curvature="0"
       id="path1462"
       style="fill:#00559b;fill-opacity:1;fill-rule:nonzero;stroke:none;stroke-width:55.36474609"
       d="M 101.73976,157.9919 C 95.76456,145.962 39,34.4412 39,32.2252 v -155.9611 c 0,-54.2401 32.14391,-93.4098 47.63547,-140.8357 16.21142,-49.4752 14.99295,-107.3714 31.42554,-157.17972 C 180.52464,-610.89855 266.00298,-564.52654 414.497,-578.87618 469.3811,-584.20009 514.85846,-594 571.40186,-594 c 24.28815,0 53.22319,12.73669 77.89871,15.12382 83.54321,8.04101 131.56595,0.62833 188.33037,79.17181 C 846.20949,-453.49732 869,-389.0631 869,-343.7433 c 0,24.4338 -13.72257,54.2951 -16.26484,79.1717 C 839.51445,-137.0332 874.36673,1.6978 837.63252,126.5223 749.00025,229.517 701.52957,236 571.40336,236 c -24.23328,0 -53.22319,-12.7995 -77.89881,-15.1867 -73.36174,-7.0357 -155.68779,0 -229.7694,0 -14.22435,0 -22.46105,2.5442 -36.40314,0 -5.25382,-0.942 -111.37263,-55.7368 -125.59065,-62.8276" />
    <circle
       style="opacity:1;fill:#ffffff;fill-opacity:1;fill-rule:nonzero;stroke:none;stroke-width:0.21931499;stroke-linecap:butt;stroke-linejoin:miter;stroke-miterlimit:4;stroke-dasharray:none;stroke-opacity:1;paint-order:stroke fill markers"
       id="path896"
       cx="273.90012"
       cy="76.5"
       r="44.5" />
    <circle
       r="44.5"
       cy="76.5"
       cx="541.30005"
       id="circle916"
       style="opacity:1;fill:#ffffff;fill-opacity:1;fill-rule:nonzero;stroke:none;stroke-width:0.21931499;stroke-linecap:butt;stroke-linejoin:miter;stroke-miterlimit:4;stroke-dasharray:none;stroke-opacity:1;paint-order:stroke fill markers" />
    <path
       inkscape:connector-curvature="0"
       style="fill:#ffffff;fill-opacity:1;fill-rule:nonzero;stroke:none;stroke-width:42.85956955"
       d="m 705.97449,-417.25905 c 0,0 -3.43378,3.4345 -6.85149,3.4345 -37.71259,82.29754 -119.99579,284.61026 -102.85399,411.4845937 0.6103,8.76435 0.2005,17.1684703 -10.2854,17.1399203 h -342.9836 c -15.7107,-0.0101 -13.529,-10.2875603 -13.6,-16.1999903 -0.087,-7.21267 2.3417,-14.5597297 13.6,-14.5999997 h 312.129 c 5.211,0.19809 10.3016,-11.01302 10.3016,-17.20154 v -41.14877 l -10.3016,-13.72166 h -315.4119 c -16.663,0 -24.7765,-8.00669 -30.8562,-24.008854 0,0 -54.887,-157.48482 -54.8609,-160.91919 0.1871,-24.62615 18.5791,-27.50097 27.4272,-27.68806 l 449.127,-54.86558 c 7.4563,-1.00231 18.0178,-7.50487 24.0047,-23.99752 l 13.71918,-44.57835 c 3.43389,-7.7109 3.88231,-8.5001 10.28541,-13.7217 0,0 50.18379,-41.1488 58.23649,-41.1488 H 743.7 l 10.29999,17.2 -3.43378,3.3744 c 0,3.4345 -3.43393,6.8527 -3.43393,6.8527 l -6.85149,6.8528 z"
       id="path918"
       sodipodi:nodetypes="cccccsccsccscscccccscccccc" />
    <path
       inkscape:connector-curvature="0"
       style="fill:#00559b;fill-opacity:1;fill-rule:nonzero;stroke:none;stroke-width:42.85617447"
       d="m 404.27221,-297.27108 v 20.5695 h -54.856 v -13.71948 z"
       id="path920" />
    <path
       inkscape:connector-curvature="0"
       style="fill:#00559b;fill-opacity:1;fill-rule:nonzero;stroke:none;stroke-width:42.85617447"
       d="m 616.83491,-259.55788 -20.5708,61.71176 h -30.8562 v -61.71176 z"
       id="path924" />
    <path
       inkscape:connector-curvature="0"
       style="fill:#00559b;fill-opacity:1;fill-rule:nonzero;stroke:none;stroke-width:42.85617447"
       d="m 592.83511,-177.27497 -13.7192,34.28576 c 0,3.43392 0,3.43392 0,6.85165 l -6.8516,6.85165 c 0,0 -3.4338,3.4339 -6.8515,3.4339 v -51.42781 z"
       id="path926" />
    <path
       inkscape:connector-curvature="0"
       style="fill:#00559b;fill-opacity:1;fill-rule:nonzero;stroke:none;stroke-width:42.85617447"
       d="m 548.26611,-314.41478 v 37.7132 h -54.856 v -30.85507 z"
       id="path928" />
    <path
       inkscape:connector-curvature="0"
       style="fill:#00559b;fill-opacity:1;fill-rule:nonzero;stroke:none;stroke-width:42.85617447"
       d="m 493.41011,-197.84612 h 54.856 v -61.71176 h -54.856 z"
       id="path930" />
    <path
       inkscape:connector-curvature="0"
       style="fill:#00559b;fill-opacity:1;fill-rule:nonzero;stroke:none;stroke-width:42.85617447"
       d="m 476.26831,-307.55665 v 30.85507 h -54.8543 v -23.99857 z"
       id="path932" />
    <path
       inkscape:connector-curvature="0"
       style="fill:#00559b;fill-opacity:1;fill-rule:nonzero;stroke:none;stroke-width:42.85617447"
       d="m 421.41401,-197.84612 h 54.8543 v -61.71176 h -54.8543 z"
       id="path934" />
    <path
       inkscape:connector-curvature="0"
       style="fill:#00559b;fill-opacity:1;fill-rule:nonzero;stroke:none;stroke-width:42.85617447"
       d="m 349.41621,-197.84612 h 54.856 v -61.71176 h -54.856 z"
       id="path936" />
    <path
       inkscape:connector-curvature="0"
       style="fill:#00559b;fill-opacity:1;fill-rule:nonzero;stroke:none;stroke-width:42.85617447"
       d="m 332.27441,-290.41458 v 13.71949 h -54.8561 v -6.85165 z"
       id="path938" />
    <path
       inkscape:connector-curvature="0"
       style="fill:#00559b;fill-opacity:1;fill-rule:nonzero;stroke:none;stroke-width:42.85617447"
       d="m 277.41831,-197.84612 h 54.8561 v -61.71176 h -54.8561 z"
       id="path940" />
    <path
       inkscape:connector-curvature="0"
       style="fill:#00559b;fill-opacity:1;fill-rule:nonzero;stroke:none;stroke-width:42.85617447"
       d="m 191.70781,-259.55788 h 68.5688 v 61.71176 h -47.998 l -20.5708,-54.85526 z"
       id="path942" />
    <path
       inkscape:connector-curvature="0"
       style="fill:#00559b;fill-opacity:1;fill-rule:nonzero;stroke:none;stroke-width:42.85617447"
       d="m 493.41011,-118.99065 h 54.856 v -58.28432 h -54.856 z"
       id="path946" />
    <path
       inkscape:connector-curvature="0"
       style="fill:#00559b;fill-opacity:1;fill-rule:nonzero;stroke:none;stroke-width:42.85617447"
       d="m 421.41401,-118.99065 h 54.8543 v -58.28432 h -54.8543 z"
       id="path948" />
    <path
       inkscape:connector-curvature="0"
       style="fill:#00559b;fill-opacity:1;fill-rule:nonzero;stroke:none;stroke-width:42.85617447"
       d="m 349.41621,-118.99065 h 54.856 v -58.28432 h -54.856 z"
       id="path950" />
    <path
       inkscape:connector-curvature="0"
       style="fill:#00559b;fill-opacity:1;fill-rule:nonzero;stroke:none;stroke-width:42.85617447"
       d="m 277.41831,-118.99065 h 54.8561 v -58.28432 h -54.8561 z"
       id="path952" />
    <path
       id="path980"
       d="m 565.40791,-317.84222 47.998,-6.85166 c 10.5085,-1.27698 17.1364,1.92795 17.137,10.28557 v 10.28557 l -6.8516,27.42765 h -58.2834 z"
       style="fill:#00559b;fill-opacity:1;fill-rule:nonzero;stroke:none;stroke-width:42.85617447"
       inkscape:connector-curvature="0"
       sodipodi:nodetypes="ccccccc" />
    <path
       id="path1000"
       d="m 236.27841,-132.70364 -17.1434,-44.57133 h 41.1416 v 58.28432 h -10.2854 c -7.2052,0.12948 -9.6836,-3.0548 -13.7031,-13.71947 z"
       style="fill:#00559b;fill-opacity:1;fill-rule:nonzero;stroke:none;stroke-width:42.85617447"
       inkscape:connector-curvature="0"
       sodipodi:nodetypes="ccccccc" />
  </g>
</svg>
