<?xml version="1.0" encoding="UTF-8" standalone="no"?>
<!-- Created with Inkscape (http://www.inkscape.org/) -->

<svg
   xmlns:dc="http://purl.org/dc/elements/1.1/"
   xmlns:cc="http://creativecommons.org/ns#"
   xmlns:rdf="http://www.w3.org/1999/02/22-rdf-syntax-ns#"
   xmlns:svg="http://www.w3.org/2000/svg"
   xmlns="http://www.w3.org/2000/svg"
   xmlns:sodipodi="http://sodipodi.sourceforge.net/DTD/sodipodi-0.dtd"
   xmlns:inkscape="http://www.inkscape.org/namespaces/inkscape"
   width="1177mm"
   height="832mm"
   viewBox="0 0 1177 832"
   version="1.1"
   id="svg821"
   inkscape:version="0.92.2 (5c3e80d, 2017-08-06)"
   sodipodi:docname="22.svg">
  <defs
     id="defs815" />
  <sodipodi:namedview
     id="base"
     pagecolor="#ffffff"
     bordercolor="#666666"
     borderopacity="1.0"
     inkscape:pageopacity="0.0"
     inkscape:pageshadow="2"
     inkscape:zoom="0.12374369"
     inkscape:cx="773.45933"
     inkscape:cy="1178.7506"
     inkscape:document-units="mm"
     inkscape:current-layer="layer1"
     showgrid="false"
     fit-margin-top="0"
     fit-margin-left="0"
     fit-margin-right="0"
     fit-margin-bottom="0"
     inkscape:window-width="1920"
     inkscape:window-height="1057"
     inkscape:window-x="-8"
     inkscape:window-y="-8"
     inkscape:window-maximized="1"
     inkscape:snap-global="false" />
  <metadata
     id="metadata818">
    <rdf:RDF>
      <cc:Work
         rdf:about="">
        <dc:format>image/svg+xml</dc:format>
        <dc:type
           rdf:resource="http://purl.org/dc/dcmitype/StillImage" />
        <dc:title></dc:title>
      </cc:Work>
    </rdf:RDF>
  </metadata>
  <g
     inkscape:label="Layer 1"
     inkscape:groupmode="layer"
     id="layer1"
     transform="translate(-38,595)">
    <path
       d="M 118.76379,220.82628 72.270948,149.30436 C 66.284056,137.27961 51.066796,47.506405 51.066796,45.323545 L 58.787094,-83.7284 c 0,-54.28595 -30.939276,-168.28475 -15.442196,-215.68575 34.128367,-104.0363 -33.34489,-248.143 106.860732,-279.4835 46.21292,-10.2956 108.59492,4.6957 157.10189,0 24.72885,-2.3479 53.70998,-15.1024 77.99146,-15.1024 h 77.99146 c 16.78431,0 174.222,20.4834 180.37634,27.9267 19.80554,-23.9528 145.35275,-9.4548 180.3762,-12.818 24.67307,-2.3478 53.65414,-15.1023 77.99146,-15.1023 h 77.93562 c 24.67304,0 54.10164,12.7069 79.16634,15.1023 81.2923,7.8367 89.5167,29.6606 143.3387,108.0658 9.9026,45.7797 11.5249,121.8894 11.5249,167.5565 0,24.6809 -9.1191,103.9253 -11.5249,128.9965 -12.1973,126.81512 0.555,200.575405 -38.5482,323.58327 C 1118.3853,204.88317 1133.9948,236 1059.1364,236 h -79.16634 c -24.28149,0 -53.31839,-12.75449 -77.93562,-15.16579 -85.15271,-8.21744 -180.65597,0 -266.53614,0 l -9.28718,-4.64809 c -2.51845,5.82201 -76.36907,19.81229 -84.98511,19.81229 h -77.93537 c -24.28138,0 -53.3184,-12.75449 -77.99146,-15.16578 -85.15292,-8.21745 -180.65618,0 -266.53619,0"
       style="fill:#00783a;fill-opacity:1;fill-rule:nonzero;stroke:none;stroke-width:55.95595169"
       id="path4874"
       inkscape:connector-curvature="0" />
    <path
       style="opacity:1;fill:#ffffff;fill-opacity:1;fill-rule:nonzero;stroke:none;stroke-width:0.2847645;stroke-linecap:butt;stroke-linejoin:miter;stroke-miterlimit:4;stroke-dasharray:none;stroke-opacity:1;paint-order:stroke fill markers"
       d="M 468.42309,-360.00969 612.65393,-179.72118 468.42309,0.56729 Z"
       id="rect821"
       inkscape:connector-curvature="0"
       sodipodi:nodetypes="cccc" />
    <path
       d="m 360.2411,88.04628 c -1.5308,3.90984 -2.977,7.78356 -5.3995,11.28305 l 2.2538,1.78601 h -13.9878 c 0,-20.00899 -14.7966,-32.95013 -34.2273,-32.95013 -17.6446,0 -32.9509,21.24351 -28.4025,37.93041 H 157.8569 l 0.482,-5.877 c 0,-15.06964 -13.2648,-32.05585 -29.2943,-32.05585 -21.8965,0 -36.4376,16.13423 -33.3763,37.93042 -4.2062,-4.25989 -6.4239,-9.27983 -9.9069,-14.00558 H 79 V 87.5745 c 0.1212,-0.48274 0.241,-0.96548 0.4822,-1.36368 l 1.3618,-2.25651 1.7838,-1.36369 C 81.6635,77.65503 80.844,72.36957 80.844,67.26495 c 0,-2.42556 0.6026,-5.27335 0.8437,-7.66269 0.2411,-0.60349 1.0847,-1.70149 1.7837,-1.83433 l 36.522,-33.84421 c 1.0848,-0.84473 2.4225,-2.08771 3.6157,-2.72725 1.3981,-0.72403 5.4476,-1.78602 7.1832,-2.25662 h 4.5075 c 10.8832,-1.70149 22.833,-1.78601 33.8019,-1.78601 h 25.2555 c 16.5827,0 33.9717,1.83432 50.4688,3.62018 3.447,0.0851 8.7139,2.81178 11.2689,4.93561 l 29.2943,24.86132 67.6458,10.39011 3.1457,0.84461 2.2537,2.25662 c 0.6026,0.84478 1.2293,1.83433 1.7837,2.67894 1.2052,3.78925 1.8321,8.2542 1.8321,12.21837 h 1.3136 c 1.2052,0 2.8444,0.96532 3.6157,1.78587 0.1212,0.60347 0.482,1.61711 0.482,2.25664 0,0.60345 -0.3615,1.61712 -0.482,2.25662 -0.8437,1.20681 -2.4225,1.66531 -3.6157,2.25665 l -3.1457,0.48259"
       style="fill:#ffffff;fill-opacity:1;fill-rule:nonzero;stroke:none;stroke-width:42.54444122"
       id="path1104"
       inkscape:connector-curvature="0" />
    <path
       d="m 290.3836,99.75292 c 0,-12.13255 9.8227,-20.73188 21.6423,-20.73188 9.1839,0 16.7515,5.79247 19.3873,14.60164 l 0.8436,2.98068 v 4.98377 C 332.2568,110.2274 322.6512,121 313.7614,121 h -4.9294 c -5.4355,0 -13.0526,-5.4062 -15.7739,-9.91947 -1.832,-2.93237 -2.7238,-7.87992 -2.7238,-11.31926"
       style="fill:#ffffff;fill-opacity:1;fill-rule:nonzero;stroke:none;stroke-width:42.54444122"
       id="path1116"
       inkscape:connector-curvature="0" />
    <path
       d="m 105.6018,99.75292 c 0,-11.78986 10.124,-20.73188 21.5988,-20.73188 9.2201,0 16.7527,5.79247 19.3885,14.60164 l 0.8438,2.98068 v 4.98377 c 0,8.8937 -6.894,16.26213 -15.1365,18.51864 l -3.3144,0.84473 h -4.5075 c -10.4975,0 -18.9209,-11.40374 -18.9209,-21.24346"
       style="fill:#ffffff;fill-opacity:1;fill-rule:nonzero;stroke:none;stroke-width:42.54444122"
       id="path1118"
       inkscape:connector-curvature="0" />
    <path
       d="m 183.1113,26.65819 -0.8438,-2.25662 -1.8319,-1.36367 -2.6756,-0.48263 c -9.6539,0.12116 -21.2169,-0.48274 -30.655,0.84462 -1.6632,0.0433 -5.3994,0.96548 -6.7613,1.83432 -0.9642,0.60332 -2.2056,1.91871 -3.1457,2.67895 -3.4468,3.90982 -14.8809,14.34577 -14.8809,19.88107 0,3.14955 4.1218,6.76973 7.1831,6.76973 h 51.8706 l 2.6756,-0.48258 1.8319,-1.78601 0.8438,-2.25662 v -1.78601 l -3.6158,-21.66938"
       style="fill:#00783a;fill-opacity:1;fill-rule:nonzero;stroke:none;stroke-width:42.54444122"
       id="path1128"
       inkscape:connector-curvature="0" />
    <path
       d="m 258.368,54.62803 2.2537,-0.48273 2.2538,-1.78602 0.6027,-1.49625 0.3615,-3.01691 -1.3619,-2.2566 -15.3497,-15.3691 c -0.241,-0.2413 -3.0131,-2.59443 -3.1457,-2.67895 -1.0848,-0.60328 -5.7007,-1.8704 -7.2314,-2.25662 -14.2446,-1.20676 -28.5302,-2.17213 -42.8157,-2.72726 -1.2776,0.0851 -3.0613,0.96548 -4.0374,1.83433 -0.8438,1.08606 -1.3138,3.19786 -1.362,4.51311 0.7232,3.78925 1.9163,25.7133 8.1232,25.7133 h 61.7366"
       style="fill:#00783a;fill-opacity:1;fill-rule:nonzero;stroke:none;stroke-width:42.54444122"
       id="path1130"
       inkscape:connector-curvature="0" />
    <path
       inkscape:connector-curvature="0"
       id="path5168"
       style="fill:#ffffff;fill-opacity:1;fill-rule:nonzero;stroke:none;stroke-width:42.54444122"
       d="m 360.2411,-160.03065 c -1.5308,3.90981 -2.977,7.78356 -5.3995,11.28303 l 2.2538,1.78601 h -13.9878 c 0,-20.00899 -14.7966,-32.95009 -34.2273,-32.95009 -17.6446,0 -32.9509,21.24346 -28.4025,37.93038 H 157.8569 l 0.482,-5.87697 c 0,-15.06966 -13.2648,-32.05587 -29.2943,-32.05587 -21.8965,0 -36.4376,16.13423 -33.3763,37.93039 -4.2062,-4.25986 -6.4239,-9.27981 -9.9069,-14.00553 H 79 v -4.51313 c 0.1212,-0.48274 0.241,-0.96548 0.4822,-1.3637 l 1.3618,-2.25649 1.7838,-1.3637 c -0.9643,-4.93558 -1.7838,-10.22106 -1.7838,-15.32567 0,-2.42553 0.6026,-5.27337 0.8437,-7.6627 0.2411,-0.60346 1.0847,-1.70149 1.7837,-1.83432 l 36.522,-33.84419 c 1.0848,-0.84476 2.4225,-2.08774 3.6157,-2.72726 1.3981,-0.72403 5.4476,-1.78603 7.1832,-2.25663 h 4.5075 c 10.8832,-1.7015 22.833,-1.786 33.8019,-1.786 h 25.2555 c 16.5827,0 33.9717,1.8343 50.4688,3.6202 3.447,0.085 8.7139,2.81176 11.2689,4.93556 l 29.2943,24.86135 67.6458,10.39009 3.1457,0.84462 2.2537,2.25663 c 0.6026,0.84476 1.2293,1.83433 1.7837,2.67895 1.2052,3.78923 1.8321,8.25418 1.8321,12.21836 h 1.3136 c 1.2052,0 2.8444,0.96534 3.6157,1.78587 0.1212,0.60346 0.482,1.61711 0.482,2.25663 0,0.60346 -0.3615,1.61712 -0.482,2.25664 -0.8437,1.20677 -2.4225,1.66528 -3.6157,2.25663 l -3.1457,0.4826" />
    <path
       inkscape:connector-curvature="0"
       id="path5170"
       style="fill:#ffffff;fill-opacity:1;fill-rule:nonzero;stroke:none;stroke-width:42.54444122"
       d="m 290.3836,-148.32401 c 0,-12.13255 9.8227,-20.73188 21.6423,-20.73188 9.1839,0 16.7515,5.79246 19.3873,14.60164 l 0.8436,2.98067 v 4.98375 c 0,8.64029 -9.6056,19.41289 -18.4954,19.41289 h -4.9294 c -5.4355,0 -13.0526,-5.40621 -15.7739,-9.91947 -1.832,-2.93236 -2.7238,-7.87991 -2.7238,-11.31924" />
    <path
       inkscape:connector-curvature="0"
       id="path5172"
       style="fill:#ffffff;fill-opacity:1;fill-rule:nonzero;stroke:none;stroke-width:42.54444122"
       d="m 105.6018,-148.32401 c 0,-11.78986 10.124,-20.73188 21.5988,-20.73188 9.2201,0 16.7527,5.79246 19.3885,14.60164 l 0.8438,2.98067 v 4.98375 c 0,8.8937 -6.894,16.26217 -15.1365,18.51866 l -3.3144,0.84476 h -4.5075 c -10.4975,0 -18.9209,-11.40375 -18.9209,-21.24347" />
    <path
       inkscape:connector-curvature="0"
       id="path5174"
       style="fill:#00783a;fill-opacity:1;fill-rule:nonzero;stroke:none;stroke-width:42.54444122"
       d="m 183.1113,-221.41872 -0.8438,-2.25664 -1.8319,-1.3637 -2.6756,-0.4826 c -9.6539,0.12116 -21.2169,-0.48274 -30.655,0.84462 -1.6632,0.0433 -5.3994,0.96548 -6.7613,1.83433 -0.9642,0.60331 -2.2056,1.9187 -3.1457,2.67894 -3.4468,3.90981 -14.8809,14.34577 -14.8809,19.88106 0,3.14956 4.1218,6.76976 7.1831,6.76976 h 51.8706 l 2.6756,-0.4826 1.8319,-1.78601 0.8438,-2.25664 v -1.786 l -3.6158,-21.66938" />
    <path
       inkscape:connector-curvature="0"
       id="path5176"
       style="fill:#00783a;fill-opacity:1;fill-rule:nonzero;stroke:none;stroke-width:42.54444122"
       d="m 258.368,-193.44892 2.2537,-0.48274 2.2538,-1.78601 0.6027,-1.49625 0.3615,-3.01687 -1.3619,-2.25664 -15.3497,-15.36908 c -0.241,-0.2413 -3.0131,-2.59443 -3.1457,-2.67895 -1.0848,-0.60331 -5.7007,-1.87038 -7.2314,-2.25663 -14.2446,-1.20678 -28.5302,-2.17212 -42.8157,-2.72726 -1.2776,0.0851 -3.0613,0.96548 -4.0374,1.83433 -0.8438,1.08606 -1.3138,3.19788 -1.362,4.51312 0.7232,3.78923 1.9163,25.71332 8.1232,25.71332 h 61.7366" />
    <path
       d="m 360.2411,-408.10759 c -1.5308,3.9099 -2.977,7.7836 -5.3995,11.2831 l 2.2538,1.786 h -13.9878 c 0,-20.009 -14.7966,-32.9501 -34.2273,-32.9501 -17.6446,0 -32.9509,21.2434 -28.4025,37.9304 H 157.8569 l 0.482,-5.877 c 0,-15.0697 -13.2648,-32.0559 -29.2943,-32.0559 -21.8965,0 -36.4376,16.1343 -33.3763,37.9304 -4.2062,-4.2598 -6.4239,-9.2798 -9.9069,-14.0055 H 79 v -4.5131 c 0.1212,-0.4828 0.241,-0.9655 0.4822,-1.3637 l 1.3618,-2.2565 1.7838,-1.3637 c -0.9643,-4.9356 -1.7838,-10.2211 -1.7838,-15.3257 0,-2.4255 0.6026,-5.2734 0.8437,-7.6627 0.2411,-0.6035 1.0847,-1.7015 1.7837,-1.8343 l 36.522,-33.8442 c 1.0848,-0.8448 2.4225,-2.0877 3.6157,-2.7273 1.3981,-0.724 5.4476,-1.786 7.1832,-2.2566 h 4.5075 c 10.8832,-1.7015 22.833,-1.786 33.8019,-1.786 h 25.2555 c 16.5827,0 33.9717,1.8343 50.4688,3.6202 3.447,0.085 8.7139,2.8118 11.2689,4.9356 l 29.2943,24.8613 67.6458,10.3901 3.1457,0.8446 2.2537,2.2567 c 0.6026,0.8447 1.2293,1.8343 1.7837,2.6789 1.2052,3.7892 1.8321,8.2542 1.8321,12.2184 h 1.3136 c 1.2052,0 2.8444,0.9653 3.6157,1.7858 0.1212,0.6035 0.482,1.6171 0.482,2.2567 0,0.6034 -0.3615,1.6171 -0.482,2.2566 -0.8437,1.2068 -2.4225,1.6653 -3.6157,2.2566 l -3.1457,0.4826"
       style="fill:#ffffff;fill-opacity:1;fill-rule:nonzero;stroke:none;stroke-width:42.54444122"
       id="path5178"
       inkscape:connector-curvature="0" />
    <path
       d="m 290.3836,-396.40089 c 0,-12.1326 9.8227,-20.7319 21.6423,-20.7319 9.1839,0 16.7515,5.7925 19.3873,14.6016 l 0.8436,2.9807 v 4.9838 c 0,8.6402 -9.6056,19.4128 -18.4954,19.4128 h -4.9294 c -5.4355,0 -13.0526,-5.4062 -15.7739,-9.9194 -1.832,-2.9324 -2.7238,-7.8799 -2.7238,-11.3193"
       style="fill:#ffffff;fill-opacity:1;fill-rule:nonzero;stroke:none;stroke-width:42.54444122"
       id="path5180"
       inkscape:connector-curvature="0" />
    <path
       d="m 105.6018,-396.40089 c 0,-11.7899 10.124,-20.7319 21.5988,-20.7319 9.2201,0 16.7527,5.7925 19.3885,14.6016 l 0.8438,2.9807 v 4.9838 c 0,8.8937 -6.894,16.2621 -15.1365,18.5186 l -3.3144,0.8447 h -4.5075 c -10.4975,0 -18.9209,-11.4037 -18.9209,-21.2434"
       style="fill:#ffffff;fill-opacity:1;fill-rule:nonzero;stroke:none;stroke-width:42.54444122"
       id="path5182"
       inkscape:connector-curvature="0" />
    <path
       d="m 183.1113,-469.49559 -0.8438,-2.2567 -1.8319,-1.3637 -2.6756,-0.4826 c -9.6539,0.1212 -21.2169,-0.4827 -30.655,0.8446 -1.6632,0.043 -5.3994,0.9655 -6.7613,1.8344 -0.9642,0.6033 -2.2056,1.9187 -3.1457,2.6789 -3.4468,3.9098 -14.8809,14.3458 -14.8809,19.8811 0,3.1495 4.1218,6.7697 7.1831,6.7697 h 51.8706 l 2.6756,-0.4826 1.8319,-1.786 0.8438,-2.2566 v -1.786 l -3.6158,-21.6694"
       style="fill:#00783a;fill-opacity:1;fill-rule:nonzero;stroke:none;stroke-width:42.54444122"
       id="path5184"
       inkscape:connector-curvature="0" />
    <path
       d="m 258.368,-441.52579 2.2537,-0.4828 2.2538,-1.786 0.6027,-1.4962 0.3615,-3.0169 -1.3619,-2.2566 -15.3497,-15.3691 c -0.241,-0.2413 -3.0131,-2.5944 -3.1457,-2.679 -1.0848,-0.6033 -5.7007,-1.8704 -7.2314,-2.2566 -14.2446,-1.2068 -28.5302,-2.1721 -42.8157,-2.7273 -1.2776,0.085 -3.0613,0.9655 -4.0374,1.8344 -0.8438,1.086 -1.3138,3.1979 -1.362,4.5131 0.7232,3.7892 1.9163,25.7133 8.1232,25.7133 h 61.7366"
       style="fill:#00783a;fill-opacity:1;fill-rule:nonzero;stroke:none;stroke-width:42.54444122"
       id="path5186"
       inkscape:connector-curvature="0" />
    <path
       style="opacity:1;fill:#ffffff;fill-opacity:1;fill-rule:nonzero;stroke:none;stroke-width:0.73727238;stroke-linecap:butt;stroke-linejoin:miter;stroke-miterlimit:4;stroke-dasharray:none;stroke-opacity:1;paint-order:stroke fill markers"
       d="M 835.92383,3.4518 V -6.64446 h -25.673 c -9.33,-0.0548 -28.47034,-11.91694 -39.37521,-33.75018 l -29.8558,-67.21109 v -274.03896 c 0,-23.9711 19.29844,-43.2688 43.26957,-43.2688 h 262.49891 c 23.9711,0 43.2695,19.2977 43.2695,43.2688 v 274.03896 l -29.8558,67.21109 c -10.9048,21.83324 -30.0444,33.69548 -39.3744,33.75018 H 995.15457 V 3.4518 H 973.80823 V -6.64446 H 857.27017 V 3.4518 Z"
       id="rect5188"
       inkscape:connector-curvature="0"
       sodipodi:nodetypes="cccccsssscccccccccc" />
    <path
       style="opacity:1;fill:#ffffff;fill-opacity:1;fill-rule:nonzero;stroke:none;stroke-width:0.31215748;stroke-linecap:butt;stroke-linejoin:miter;stroke-miterlimit:4;stroke-dasharray:none;stroke-opacity:1;paint-order:stroke fill markers"
       d="M 968.90401,-468.18279 H 862.17367 l -40.38463,33.173 h 187.49956 z"
       id="rect5251"
       inkscape:connector-curvature="0"
       sodipodi:nodetypes="ccccc" />
    <rect
       style="opacity:1;fill:#00783a;fill-opacity:1;fill-rule:nonzero;stroke:none;stroke-width:0.34542033;stroke-linecap:butt;stroke-linejoin:miter;stroke-miterlimit:4;stroke-dasharray:none;stroke-opacity:1;paint-order:stroke fill markers"
       id="rect5272"
       width="265.38464"
       height="31.73077"
       x="782.84668"
       y="-139.62515" />
    <circle
       style="opacity:1;fill:#00783a;fill-opacity:1;fill-rule:nonzero;stroke:none;stroke-width:0.22370064;stroke-linecap:butt;stroke-linejoin:miter;stroke-miterlimit:4;stroke-dasharray:none;stroke-opacity:1;paint-order:stroke fill markers"
       id="path5283"
       cx="915.539"
       cy="-371.54837"
       r="25.961538" />
    <rect
       style="opacity:1;fill:#00783a;fill-opacity:1;fill-rule:nonzero;stroke:none;stroke-width:0.35519999;stroke-linecap:butt;stroke-linejoin:miter;stroke-miterlimit:4;stroke-dasharray:none;stroke-opacity:1;paint-order:stroke fill markers"
       id="rect5294"
       width="137.01924"
       height="152.88461"
       x="766.98132"
       y="-319.62527"
       rx="11.538462"
       ry="11.538462" />
    <rect
       y="-319.62527"
       x="1010.7313"
       height="152.88461"
       width="51.923077"
       id="rect5296"
       style="opacity:1;fill:#00783a;fill-opacity:1;fill-rule:nonzero;stroke:none;stroke-width:0.2186565;stroke-linecap:butt;stroke-linejoin:miter;stroke-miterlimit:4;stroke-dasharray:none;stroke-opacity:1;paint-order:stroke fill markers"
       ry="11.538462"
       rx="11.538462" />
    <path
       style="fill:#ffffff;fill-opacity:1;fill-rule:nonzero;stroke:none;stroke-width:42.5253067"
       d="m 835.92383,8.06735 -12.6826,16.15357 h -40.39481 v 15.86523 h 27.93957 L 794.25302,61.144 h -53.2332 v 21.3463 h 36.47439 l -20.60923,26.25 h 37.21149 l 16.47261,-26.25 h 209.93952 l 16.4726,26.25 h 37.2115 l -20.6092,-26.25 h 36.4744 V 61.144 h -53.2332 l -16.533,-21.05785 h 27.9395 V 24.22092 h -40.3948 L 995.15382,8.06735 h -21.34634 l 10.13653,16.15357 H 847.13363 L 857.27017,8.06735 Z m 1.25439,32.0188 h 156.7212 L 1007.1135,61.144 H 823.96423 Z"
       id="path5325"
       inkscape:connector-curvature="0"
       sodipodi:nodetypes="cccccccccccccccccccccccccccccccccc" />
  </g>
</svg>
