<?xml version="1.0" encoding="UTF-8" standalone="no"?>
<svg
   xmlns:dc="http://purl.org/dc/elements/1.1/"
   xmlns:cc="http://creativecommons.org/ns#"
   xmlns:rdf="http://www.w3.org/1999/02/22-rdf-syntax-ns#"
   xmlns:svg="http://www.w3.org/2000/svg"
   xmlns="http://www.w3.org/2000/svg"
   xmlns:sodipodi="http://sodipodi.sourceforge.net/DTD/sodipodi-0.dtd"
   xmlns:inkscape="http://www.inkscape.org/namespaces/inkscape"
   width="900"
   height="750"
   viewBox="0 0 900 750"
   version="1.1"
   id="svg8"
   sodipodi:docname="SADC_road_sign_GE19-05.svg"
   inkscape:version="0.92.4 (5da689c313, 2019-01-14)">
  <metadata
     id="metadata14">
    <rdf:RDF>
      <cc:Work
         rdf:about="">
        <dc:format>image/svg+xml</dc:format>
        <dc:type
           rdf:resource="http://purl.org/dc/dcmitype/StillImage" />
        <dc:title />
      </cc:Work>
    </rdf:RDF>
  </metadata>
  <defs
     id="defs12" />
  <sodipodi:namedview
     pagecolor="#ffffff"
     bordercolor="#666666"
     borderopacity="1"
     objecttolerance="10"
     gridtolerance="10"
     guidetolerance="10"
     inkscape:pageopacity="0"
     inkscape:pageshadow="2"
     inkscape:window-width="1920"
     inkscape:window-height="1057"
     id="namedview10"
     showgrid="false"
     inkscape:zoom="0.728"
     inkscape:cx="450"
     inkscape:cy="375"
     inkscape:window-x="-8"
     inkscape:window-y="-8"
     inkscape:window-maximized="1"
     inkscape:current-layer="svg8" />
  <path
     d="M 825 0 Q 900 0 900 75 L 900 675 Q 900 750 825 750 L 75 750 Q 0 750 0 675 L 0 75 Q 0 0 75 0 Z"
     id="background"
     fill="#ff6900" />
  <path
     d="M 450 40 L 59.3972712981828628696052380752 138.12702696655406127909917189818 Q 40 143 40 163L 40 587 Q 40 607 59.3972712981828628696052380752 611.87297303344593872090082810182 L 450 710 L 840.6027287018171371303947619248 611.87297303344593872090082810182Q 860 607 860 587 L 860 163 Q 860 143 840.6027287018171371303947619248 138.12702696655406127909917189818 L 450 40"
     id="border"
     fill="#00559b" />
  <g
     aria-label="16"
     style="font-style:normal;font-variant:normal;font-weight:normal;font-stretch:normal;font-size:569.6607666px;line-height:1.25;font-family:'DIN 1451 Mittelschrift';-inkscape-font-specification:'DIN 1451 Mittelschrift';letter-spacing:0px;word-spacing:0px;fill:#000000;fill-opacity:1;stroke:none;stroke-width:14.24151993"
     id="text14">
    <path
       d="M 302.71617,576.10584 V 231.47221 L 244.86,273.75172 v -61.75034 l 57.85617,-42.00136 h 58.41248 v 406.10582 z"
       style="stroke-width:14.24151993;fill:#ff6900;fill-opacity:1;stroke:none"
       id="path27" />
    <path
       d="M 437.62118,388.6296 546.65781,170.55633 h 64.81004 l -85.39348,171.62144 h 1.11262 q 12.79511,-5.28494 30.87516,-5.28494 37.82904,0 67.59159,26.981 29.4844,27.25916 29.4844,86.22795 0,70.09497 -37.27273,100.13568 -37.27273,29.76255 -82.61194,29.76255 -43.11397,0 -78.16146,-32.82225 -35.04749,-32.82225 -35.04749,-90.67842 0,-36.99458 15.57666,-67.86974 z m 100.97015,0 q -24.75577,0 -41.44505,16.13297 -16.96743,16.96743 -16.96743,50.62415 0,66.75712 58.41248,66.75712 20.02713,0 39.21981,-15.29851 18.91451,-15.02035 18.91451,-51.45861 0,-33.93487 -16.96743,-50.62415 -16.96744,-16.13297 -41.16689,-16.13297 z"
       style="stroke-width:14.24151993;fill:#ff6900;fill-opacity:1;stroke:none"
       id="path29" />
  </g>
</svg>
