<?xml version="1.0" encoding="UTF-8" standalone="no"?>
<svg
   xmlns:dc="http://purl.org/dc/elements/1.1/"
   xmlns:cc="http://creativecommons.org/ns#"
   xmlns:rdf="http://www.w3.org/1999/02/22-rdf-syntax-ns#"
   xmlns:svg="http://www.w3.org/2000/svg"
   xmlns="http://www.w3.org/2000/svg"
   xmlns:sodipodi="http://sodipodi.sourceforge.net/DTD/sodipodi-0.dtd"
   xmlns:inkscape="http://www.inkscape.org/namespaces/inkscape"
   width="900"
   height="750"
   viewBox="0 0 900 750"
   version="1.1"
   id="svg8"
   sodipodi:docname="SADC road sign GE19-07.svg"
   inkscape:version="0.92.4 (5da689c313, 2019-01-14)">
  <metadata
     id="metadata14">
    <rdf:RDF>
      <cc:Work
         rdf:about="">
        <dc:format>image/svg+xml</dc:format>
        <dc:type
           rdf:resource="http://purl.org/dc/dcmitype/StillImage" />
        <dc:title></dc:title>
      </cc:Work>
    </rdf:RDF>
  </metadata>
  <defs
     id="defs12" />
  <sodipodi:namedview
     pagecolor="#ffffff"
     bordercolor="#666666"
     borderopacity="1"
     objecttolerance="10"
     gridtolerance="10"
     guidetolerance="10"
     inkscape:pageopacity="0"
     inkscape:pageshadow="2"
     inkscape:window-width="1366"
     inkscape:window-height="715"
     id="namedview10"
     showgrid="false"
     inkscape:zoom="0.728"
     inkscape:cx="450"
     inkscape:cy="375"
     inkscape:window-x="-8"
     inkscape:window-y="-8"
     inkscape:window-maximized="1"
     inkscape:current-layer="svg8" />
  <path
     d="M 825 0 Q 900 0 900 75 L 900 675 Q 900 750 825 750 L 75 750 Q 0 750 0 675 L 0 75 Q 0 0 75 0 Z"
     fill="#ff6900"
     id="background" />
  <path
     d="M 450 40 L 59.3972712981828628696052380752 138.12702696655406127909917189818 Q 40 143 40 163L 40 587 Q 40 607 59.3972712981828628696052380752 611.87297303344593872090082810182 L 450 710 L 840.6027287018171371303947619248 611.87297303344593872090082810182Q 860 607 860 587 L 860 163 Q 860 143 840.6027287018171371303947619248 138.12702696655406127909917189818 L 450 40"
     fill="#00559b"
     id="border" />
  <g
     aria-label="07"
     style="font-style:normal;font-variant:normal;font-weight:normal;font-stretch:normal;font-size:566.58569336px;line-height:1.25;font-family:'DIN 1451 Mittelschrift';-inkscape-font-specification:'DIN 1451 Mittelschrift';letter-spacing:0px;word-spacing:0px;fill:#ff6900;fill-opacity:1;stroke:none;stroke-width:14.16464138"
     id="route-number">
    <path
       d="M 366.72728,460.7626 V 289.51429 q 0,-29.04859 -15.76923,-45.37112 -15.49258,-16.32254 -40.94467,-16.32254 -25.72874,0 -41.22132,16.32254 -15.49258,16.32253 -15.49258,45.37112 V 460.7626 q 0,29.32524 15.49258,45.64777 15.49258,16.04589 41.22132,16.04589 25.45209,0 40.94467,-16.04589 15.76923,-16.32253 15.76923,-45.64777 z m -171.24831,3.31984 V 286.19445 q 0,-55.60729 34.8583,-85.76248 34.8583,-30.43185 79.67611,-30.43185 44.54116,0 79.39946,30.43185 35.13495,30.15519 35.13495,85.76248 v 177.88799 q 0,55.60729 -35.13495,85.76248 -34.8583,30.1552 -79.39946,30.1552 -44.81781,0 -79.67611,-30.1552 -34.8583,-30.15519 -34.8583,-85.76248 z"
       style="stroke-width:14.16464138"
       id="path3734" />
    <path
       d="M 475.17532,289.51429 V 173.59661 H 704.5208 v 57.82051 L 568.13078,576.68028 H 503.39394 L 640.06061,231.41712 H 532.99583 v 58.09717 z"
       style="stroke-width:14.16464138"
       id="path3736" />
  </g>
</svg>
