<?xml version="1.0" encoding="UTF-8" standalone="no"?>
<svg
   xmlns:dc="http://purl.org/dc/elements/1.1/"
   xmlns:cc="http://creativecommons.org/ns#"
   xmlns:rdf="http://www.w3.org/1999/02/22-rdf-syntax-ns#"
   xmlns:svg="http://www.w3.org/2000/svg"
   xmlns="http://www.w3.org/2000/svg"
   xmlns:sodipodi="http://sodipodi.sourceforge.net/DTD/sodipodi-0.dtd"
   xmlns:inkscape="http://www.inkscape.org/namespaces/inkscape"
   width="900"
   height="750"
   viewBox="0 0 900 750"
   version="1.1"
   id="svg8"
   sodipodi:docname="19.svg"
   inkscape:version="0.92.4 (5da689c313, 2019-01-14)">
  <metadata
     id="metadata14">
    <rdf:RDF>
      <cc:Work
         rdf:about="">
        <dc:format>image/svg+xml</dc:format>
        <dc:type
           rdf:resource="http://purl.org/dc/dcmitype/StillImage" />
        <dc:title />
      </cc:Work>
    </rdf:RDF>
  </metadata>
  <defs
     id="defs12" />
  <sodipodi:namedview
     pagecolor="#ffffff"
     bordercolor="#666666"
     borderopacity="1"
     objecttolerance="10"
     gridtolerance="10"
     guidetolerance="10"
     inkscape:pageopacity="0"
     inkscape:pageshadow="2"
     inkscape:window-width="1920"
     inkscape:window-height="1057"
     id="namedview10"
     showgrid="false"
     inkscape:zoom="0.728"
     inkscape:cx="449.875"
     inkscape:cy="375"
     inkscape:window-x="-8"
     inkscape:window-y="-8"
     inkscape:window-maximized="1"
     inkscape:current-layer="svg8" />
  <path
     d="M 825 0 Q 900 0 900 75 L 900 675 Q 900 750 825 750 L 75 750 Q 0 750 0 675 L 0 75 Q 0 0 75 0 Z"
     id="background"
     fill="#ff6900" />
  <path
     d="M 450 40 L 59.3972712981828628696052380752 138.12702696655406127909917189818 Q 40 143 40 163L 40 587 Q 40 607 59.3972712981828628696052380752 611.87297303344593872090082810182 L 450 710 L 840.6027287018171371303947619248 611.87297303344593872090082810182Q 860 607 860 587 L 860 163 Q 860 143 840.6027287018171371303947619248 138.12702696655406127909917189818 L 450 40"
     id="border"
     fill="#00559b" />
  <g
     aria-label="19"
     style="font-style:normal;font-variant:normal;font-weight:normal;font-stretch:normal;font-size:570.04754639px;line-height:1.25;font-family:'DIN 1451 Mittelschrift';-inkscape-font-specification:'DIN 1451 Mittelschrift';letter-spacing:0px;word-spacing:0px;fill:#ff6900;fill-opacity:1;stroke:none;stroke-width:14.25118828"
     id="text838">
    <path
       d="M 302.61745,579.44333 V 234.5757 L 244.722,276.88391 v -61.79226 l 57.89545,-42.02987 h 58.45214 v 406.38155 z"
       style="fill:#ff6900;fill-opacity:1;stroke-width:14.25118828;stroke:none"
       id="path10" />
    <path
       d="M 639.69147,361.77869 530.5808,580.00002 h -65.13238 l 85.72981,-171.73796 h -1.11338 q -13.91717,5.28853 -30.89613,5.28853 -38.96809,0 -67.91582,-26.99933 -29.22607,-26.72097 -29.22607,-86.28649 0,-69.86422 37.01969,-99.92533 Q 496.34455,170 541.99289,170 q 42.30822,0 77.93619,33.40122 35.34963,33.40123 35.34963,90.73999 0,37.01969 -15.58724,67.63748 z m -101.0387,0 q 24.21588,0 41.19484,-16.14392 16.97895,-15.58724 16.97895,-50.38018 0,-67.08079 -58.17379,-67.08079 -20.31908,0 -39.24644,15.30889 -19.2057,15.58724 -19.2057,51.7719 0,34.5146 16.97895,50.38018 16.70061,16.14392 41.47319,16.14392 z"
       style="fill:#ff6900;fill-opacity:1;stroke-width:14.25118828;stroke:none"
       id="path12" />
  </g>
</svg>
