<?xml version="1.0" encoding="UTF-8" standalone="no"?>
<svg
   xmlns:dc="http://purl.org/dc/elements/1.1/"
   xmlns:cc="http://creativecommons.org/ns#"
   xmlns:rdf="http://www.w3.org/1999/02/22-rdf-syntax-ns#"
   xmlns:svg="http://www.w3.org/2000/svg"
   xmlns="http://www.w3.org/2000/svg"
   xmlns:sodipodi="http://sodipodi.sourceforge.net/DTD/sodipodi-0.dtd"
   xmlns:inkscape="http://www.inkscape.org/namespaces/inkscape"
   width="900"
   height="750"
   viewBox="0 0 900 750"
   version="1.1"
   id="svg8"
   sodipodi:docname="21.svg"
   inkscape:version="0.92.4 (5da689c313, 2019-01-14)">
  <metadata
     id="metadata14">
    <rdf:RDF>
      <cc:Work
         rdf:about="">
        <dc:format>image/svg+xml</dc:format>
        <dc:type
           rdf:resource="http://purl.org/dc/dcmitype/StillImage" />
        <dc:title></dc:title>
      </cc:Work>
    </rdf:RDF>
  </metadata>
  <defs
     id="defs12" />
  <sodipodi:namedview
     pagecolor="#ffffff"
     bordercolor="#666666"
     borderopacity="1"
     objecttolerance="10"
     gridtolerance="10"
     guidetolerance="10"
     inkscape:pageopacity="0"
     inkscape:pageshadow="2"
     inkscape:window-width="1920"
     inkscape:window-height="1057"
     id="namedview10"
     showgrid="false"
     inkscape:zoom="0.728"
     inkscape:cx="450"
     inkscape:cy="375"
     inkscape:window-x="-8"
     inkscape:window-y="-8"
     inkscape:window-maximized="1"
     inkscape:current-layer="svg8" />
  <path
     d="M 825 0 Q 900 0 900 75 L 900 675 Q 900 750 825 750 L 75 750 Q 0 750 0 675 L 0 75 Q 0 0 75 0 Z"
     id="background"
     fill="#ff6900" />
  <path
     d="M 450 40 L 59.3972712981828628696052380752 138.12702696655406127909917189818 Q 40 143 40 163L 40 587 Q 40 607 59.3972712981828628696052380752 611.87297303344593872090082810182 L 450 710 L 840.6027287018171371303947619248 611.87297303344593872090082810182Q 860 607 860 587 L 860 163 Q 860 143 840.6027287018171371303947619248 138.12702696655406127909917189818 L 450 40"
     id="border"
     fill="#00559b" />
  <g
     aria-label="21"
     style="font-style:normal;font-variant:normal;font-weight:normal;font-stretch:normal;font-size:570.04754639px;line-height:1.25;font-family:'DIN 1451 Mittelschrift';-inkscape-font-specification:'DIN 1451 Mittelschrift';letter-spacing:0px;word-spacing:0px;fill:#ff6900;fill-opacity:1;stroke:none;stroke-width:14.25118828"
     id="text13">
    <path
       d="M 245.278,579.16494 V 524.60961 L 403.93381,326.15067 q 9.18534,-11.69043 11.96877,-21.43245 2.78344,-9.74202 2.78344,-18.92736 0,-21.15411 -15.03055,-39.24644 -15.03055,-18.37067 -40.9165,-18.37067 -23.6592,0 -40.63816,15.86558 -16.70061,15.58724 -18.64901,42.86491 H 245.278 q 0.27834,-49.26681 33.67957,-82.94638 33.40122,-33.95791 79.3279,-33.95791 50.65852,0 84.33809,34.23626 33.95791,33.95791 33.95791,82.11134 0,41.19484 -24.21589,71.25594 l -130.54311,163.666 h 154.759 v 57.89545 z"
       style="stroke-width:14.25118828;fill:#ff6900;fill-opacity:1;stroke:none"
       id="path834" />
    <path
       d="M 596.2692,579.99997 V 235.13234 l -57.89545,42.30822 v -61.79227 l 57.89545,-42.02987 h 58.45214 v 406.38155 z"
       style="stroke-width:14.25118828;fill:#ff6900;fill-opacity:1;stroke:none"
       id="path836" />
  </g>
</svg>
