<?xml version="1.0" encoding="UTF-8" standalone="no"?>
<svg
   xmlns:dc="http://purl.org/dc/elements/1.1/"
   xmlns:cc="http://creativecommons.org/ns#"
   xmlns:rdf="http://www.w3.org/1999/02/22-rdf-syntax-ns#"
   xmlns:svg="http://www.w3.org/2000/svg"
   xmlns="http://www.w3.org/2000/svg"
   xmlns:sodipodi="http://sodipodi.sourceforge.net/DTD/sodipodi-0.dtd"
   xmlns:inkscape="http://www.inkscape.org/namespaces/inkscape"
   width="900"
   height="750"
   viewBox="0 0 900 750"
   version="1.1"
   id="svg8"
   sodipodi:docname="31.svg"
   inkscape:version="0.92.4 (5da689c313, 2019-01-14)">
  <metadata
     id="metadata14">
    <rdf:RDF>
      <cc:Work
         rdf:about="">
        <dc:format>image/svg+xml</dc:format>
        <dc:type
           rdf:resource="http://purl.org/dc/dcmitype/StillImage" />
        <dc:title></dc:title>
      </cc:Work>
    </rdf:RDF>
  </metadata>
  <defs
     id="defs12" />
  <sodipodi:namedview
     pagecolor="#ffffff"
     bordercolor="#666666"
     borderopacity="1"
     objecttolerance="10"
     gridtolerance="10"
     guidetolerance="10"
     inkscape:pageopacity="0"
     inkscape:pageshadow="2"
     inkscape:window-width="1920"
     inkscape:window-height="1057"
     id="namedview10"
     showgrid="false"
     inkscape:zoom="0.728"
     inkscape:cx="450"
     inkscape:cy="375"
     inkscape:window-x="-8"
     inkscape:window-y="-8"
     inkscape:window-maximized="1"
     inkscape:current-layer="svg8" />
  <path
     d="M 825 0 Q 900 0 900 75 L 900 675 Q 900 750 825 750 L 75 750 Q 0 750 0 675 L 0 75 Q 0 0 75 0 Z"
     id="background"
     fill="#ff6900" />
  <path
     d="M 450 40 L 59.3972712981828628696052380752 138.12702696655406127909917189818 Q 40 143 40 163L 40 587 Q 40 607 59.3972712981828628696052380752 611.87297303344593872090082810182 L 450 710 L 840.6027287018171371303947619248 611.87297303344593872090082810182Q 860 607 860 587 L 860 163 Q 860 143 840.6027287018171371303947619248 138.12702696655406127909917189818 L 450 40"
     id="border"
     fill="#00559b" />
  <g
     aria-label="31"
     style="font-style:normal;font-variant:normal;font-weight:normal;font-stretch:normal;font-size:566.58569336px;line-height:1.25;font-family:'DIN 1451 Mittelschrift';-inkscape-font-specification:'DIN 1451 Mittelschrift';letter-spacing:0px;word-spacing:0px;fill:#ff6900;fill-opacity:1;stroke:none;stroke-width:14.16464233"
     id="text886">
    <path
       d="m 333.52915,394.36572 v -50.90419 h 19.91903 q 28.77193,0 45.37112,-16.04588 16.87585,-16.32254 16.87585,-41.22132 0,-24.62213 -17.42915,-41.49798 -17.42915,-16.87584 -41.49798,-16.87584 -18.25911,0 -34.58165,12.17274 -16.32253,12.17274 -21.02564,36.51822 h -57.82051 q 3.31984,-42.60459 35.68826,-74.41971 Q 311.3969,170 354.5548,170 q 53.94736,0 86.31578,35.68825 32.64508,35.41161 32.64508,79.39946 0,23.23887 -9.12956,45.37112 -9.12955,21.85561 -34.02834,37.90149 25.4521,16.32254 36.51822,40.11471 11.06613,23.79217 11.06613,48.13765 0,56.43725 -35.41161,89.91228 -35.4116,33.47503 -86.86909,33.47503 -40.94467,0 -73.8664,-26.28205 -32.64507,-26.5587 -40.66801,-77.18623 h 57.82051 q 8.02294,20.74899 21.57895,33.47503 13.556,12.4494 38.45479,12.4494 24.06882,0 42.60458,-16.87585 18.53577,-17.15249 18.53577,-47.03104 0,-30.15519 -18.53577,-47.03104 -18.2591,-17.15249 -43.7112,-17.15249 z"
       style="stroke-width:14.16464233;fill:#ff6900;fill-opacity:1;stroke:none"
       id="path899" />
    <path
       d="M 600.77611,577.51012 V 234.73684 l -57.54386,42.05128 v -61.417 l 57.54386,-41.77463 h 58.09717 v 403.91363 z"
       style="stroke-width:14.16464233;fill:#ff6900;fill-opacity:1;stroke:none"
       id="path901" />
  </g>
</svg>
