<?xml version="1.0" encoding="UTF-8" standalone="no"?>
<svg
   xmlns:dc="http://purl.org/dc/elements/1.1/"
   xmlns:cc="http://creativecommons.org/ns#"
   xmlns:rdf="http://www.w3.org/1999/02/22-rdf-syntax-ns#"
   xmlns:svg="http://www.w3.org/2000/svg"
   xmlns="http://www.w3.org/2000/svg"
   xmlns:sodipodi="http://sodipodi.sourceforge.net/DTD/sodipodi-0.dtd"
   xmlns:inkscape="http://www.inkscape.org/namespaces/inkscape"
   width="900"
   height="750"
   viewBox="0 0 900 750"
   version="1.1"
   id="svg8"
   sodipodi:docname="422.svg"
   inkscape:version="0.92.4 (5da689c313, 2019-01-14)">
  <metadata
     id="metadata14">
    <rdf:RDF>
      <cc:Work
         rdf:about="">
        <dc:format>image/svg+xml</dc:format>
        <dc:type
           rdf:resource="http://purl.org/dc/dcmitype/StillImage" />
        <dc:title></dc:title>
      </cc:Work>
    </rdf:RDF>
  </metadata>
  <defs
     id="defs12" />
  <sodipodi:namedview
     pagecolor="#ffffff"
     bordercolor="#666666"
     borderopacity="1"
     objecttolerance="10"
     gridtolerance="10"
     guidetolerance="10"
     inkscape:pageopacity="0"
     inkscape:pageshadow="2"
     inkscape:window-width="1920"
     inkscape:window-height="1057"
     id="namedview10"
     showgrid="false"
     inkscape:zoom="0.51477374"
     inkscape:cx="906.02902"
     inkscape:cy="227.71187"
     inkscape:window-x="-8"
     inkscape:window-y="-8"
     inkscape:window-maximized="1"
     inkscape:current-layer="svg8" />
  <path
     d="M 825 0 Q 900 0 900 75 L 900 675 Q 900 750 825 750 L 75 750 Q 0 750 0 675 L 0 75 Q 0 0 75 0 Z"
     id="background"
     fill="#ff6900" />
  <path
     d="M 450 40 L 59.3972712981828628696052380752 138.12702696655406127909917189818 Q 40 143 40 163L 40 587 Q 40 607 59.3972712981828628696052380752 611.87297303344593872090082810182 L 450 710 L 840.6027287018171371303947619248 611.87297303344593872090082810182Q 860 607 860 587 L 860 163 Q 860 143 840.6027287018171371303947619248 138.12702696655406127909917189818 L 450 40"
     id="border"
     fill="#00559b" />
  <g
     aria-label="31"
     style="font-style:normal;font-variant:normal;font-weight:normal;font-stretch:normal;font-size:566.58569336px;line-height:1.25;font-family:'DIN 1451 Mittelschrift';-inkscape-font-specification:'DIN 1451 Mittelschrift';letter-spacing:0px;word-spacing:0px;fill:#ff6900;fill-opacity:1;stroke:none;stroke-width:14.16464233"
     id="text886" />
  <g
     aria-label="122"
     style="font-style:normal;font-variant:normal;font-weight:normal;font-stretch:normal;font-size:528.33673096px;line-height:1.25;font-family:'DIN 1451 Mittelschrift';-inkscape-font-specification:'DIN 1451 Mittelschrift';letter-spacing:0px;word-spacing:0px;fill:#ff6900;fill-opacity:1;stroke:none;stroke-width:13.20841789"
     id="text843" />
  <g
     aria-label="131"
     style="font-style:normal;font-variant:normal;font-weight:normal;font-stretch:normal;font-size:525.12823486px;line-height:1.25;font-family:'DIN 1451 Mittelschrift';-inkscape-font-specification:'DIN 1451 Mittelschrift';letter-spacing:0px;word-spacing:0px;fill:#ff6900;fill-opacity:1;stroke:none;stroke-width:13.12820435"
     id="text877" />
  <g
     aria-label="301"
     style="font-style:normal;font-variant:normal;font-weight:normal;font-stretch:normal;font-size:525.12823486px;line-height:1.25;font-family:'DIN 1451 Mittelschrift';-inkscape-font-specification:'DIN 1451 Mittelschrift';letter-spacing:0px;word-spacing:0px;fill:#ff6900;fill-opacity:1;stroke:none;stroke-width:13.1282053"
     id="text899" />
  <g
     aria-label="303"
     style="font-style:normal;font-variant:normal;font-weight:normal;font-stretch:normal;font-size:525.12823486px;line-height:1.25;font-family:'DIN 1451 Mittelschrift';-inkscape-font-specification:'DIN 1451 Mittelschrift';letter-spacing:0px;word-spacing:0px;fill:#ff6900;fill-opacity:1;stroke:none;stroke-width:13.1282053"
     id="text921" />
  <g
     aria-label="421"
     style="font-style:normal;font-variant:normal;font-weight:normal;font-stretch:normal;font-size:528.33673096px;line-height:1.25;font-family:'DIN 1451 Mittelschrift';-inkscape-font-specification:'DIN 1451 Mittelschrift';letter-spacing:0px;word-spacing:0px;fill:#ff6900;fill-opacity:1;stroke:none;stroke-width:13.20841789"
     id="text943" />
  <g
     aria-label="422"
     style="font-style:normal;font-variant:normal;font-weight:normal;font-stretch:normal;font-size:529.41497803px;line-height:1.25;font-family:'DIN 1451 Mittelschrift';-inkscape-font-specification:'DIN 1451 Mittelschrift';letter-spacing:0px;word-spacing:0px;fill:#ff6900;fill-opacity:1;stroke:none;stroke-width:13.23537445"
     id="text965">
    <path
       d="M 82.924999,509.16328 V 458.23811 L 209.07466,188.36056 h 60.2313 L 141.86378,458.23811 h 98.23129 V 349.66668 h 54.02721 v 108.57143 h 30.2449 v 50.92517 h -30.2449 v 55.83674 h -54.02721 v -55.83674 z"
       style="stroke-width:13.23537445;fill:#ff6900;fill-opacity:1;stroke:none"
       id="path967" />
    <path
       d="M 347.89099,565.00002 V 514.33335 L 495.23794,330.02042 q 8.53061,-10.85714 11.11564,-19.90476 2.58504,-9.04762 2.58504,-17.57823 0,-19.64626 -13.95919,-36.44898 -13.95918,-17.06123 -38,-17.06123 -21.97279,0 -37.7415,14.7347 -15.5102,14.47619 -17.31972,39.80952 h -54.02722 q 0.25851,-45.7551 31.27892,-77.03401 31.02041,-31.53742 73.67347,-31.53742 47.04762,0 78.32653,31.79592 31.53742,31.53742 31.53742,76.25851 0,38.2585 -22.4898,66.17687 l -121.2381,152 h 143.7279 v 53.76871 z"
       style="stroke-width:13.23537445;fill:#ff6900;fill-opacity:1;stroke:none"
       id="path969" />
    <path
       d="M 602.25835,565.00002 V 514.33335 L 749.60529,330.02042 q 8.53061,-10.85714 11.11565,-19.90476 2.58503,-9.04762 2.58503,-17.57823 0,-19.64626 -13.95918,-36.44898 -13.95919,-17.06123 -38,-17.06123 -21.97279,0 -37.7415,14.7347 -15.5102,14.47619 -17.31973,39.80952 h -54.02721 q 0.2585,-45.7551 31.27891,-77.03401 31.02041,-31.53742 73.67347,-31.53742 47.04762,0 78.32654,31.79592 31.53741,31.53742 31.53741,76.25851 0,38.2585 -22.4898,66.17687 l -121.23809,152 h 143.72789 v 53.76871 z"
       style="stroke-width:13.23537445;fill:#ff6900;fill-opacity:1;stroke:none"
       id="path971" />
  </g>
</svg>
