<?xml version="1.0" encoding="UTF-8" standalone="no"?>
<svg
   xmlns:dc="http://purl.org/dc/elements/1.1/"
   xmlns:cc="http://creativecommons.org/ns#"
   xmlns:rdf="http://www.w3.org/1999/02/22-rdf-syntax-ns#"
   xmlns:svg="http://www.w3.org/2000/svg"
   xmlns="http://www.w3.org/2000/svg"
   xmlns:sodipodi="http://sodipodi.sourceforge.net/DTD/sodipodi-0.dtd"
   xmlns:inkscape="http://www.inkscape.org/namespaces/inkscape"
   width="900"
   height="750"
   viewBox="0 0 900 750"
   version="1.1"
   id="svg8"
   sodipodi:docname="122.svg"
   inkscape:version="0.92.4 (5da689c313, 2019-01-14)">
  <metadata
     id="metadata14">
    <rdf:RDF>
      <cc:Work
         rdf:about="">
        <dc:format>image/svg+xml</dc:format>
        <dc:type
           rdf:resource="http://purl.org/dc/dcmitype/StillImage" />
        <dc:title></dc:title>
      </cc:Work>
    </rdf:RDF>
  </metadata>
  <defs
     id="defs12" />
  <sodipodi:namedview
     pagecolor="#ffffff"
     bordercolor="#666666"
     borderopacity="1"
     objecttolerance="10"
     gridtolerance="10"
     guidetolerance="10"
     inkscape:pageopacity="0"
     inkscape:pageshadow="2"
     inkscape:window-width="1920"
     inkscape:window-height="1057"
     id="namedview10"
     showgrid="false"
     inkscape:zoom="0.51477374"
     inkscape:cx="906.02902"
     inkscape:cy="227.71187"
     inkscape:window-x="-8"
     inkscape:window-y="-8"
     inkscape:window-maximized="1"
     inkscape:current-layer="svg8" />
  <path
     d="M 825 0 Q 900 0 900 75 L 900 675 Q 900 750 825 750 L 75 750 Q 0 750 0 675 L 0 75 Q 0 0 75 0 Z"
     id="background"
     fill="#ff6900" />
  <path
     d="M 450 40 L 59.3972712981828628696052380752 138.12702696655406127909917189818 Q 40 143 40 163L 40 587 Q 40 607 59.3972712981828628696052380752 611.87297303344593872090082810182 L 450 710 L 840.6027287018171371303947619248 611.87297303344593872090082810182Q 860 607 860 587 L 860 163 Q 860 143 840.6027287018171371303947619248 138.12702696655406127909917189818 L 450 40"
     id="border"
     fill="#00559b" />
  <g
     aria-label="31"
     style="font-style:normal;font-variant:normal;font-weight:normal;font-stretch:normal;font-size:566.58569336px;line-height:1.25;font-family:'DIN 1451 Mittelschrift';-inkscape-font-specification:'DIN 1451 Mittelschrift';letter-spacing:0px;word-spacing:0px;fill:#ff6900;fill-opacity:1;stroke:none;stroke-width:14.16464233"
     id="text886" />
  <g
     aria-label="122"
     style="font-style:normal;font-variant:normal;font-weight:normal;font-stretch:normal;font-size:528.33673096px;line-height:1.25;font-family:'DIN 1451 Mittelschrift';-inkscape-font-specification:'DIN 1451 Mittelschrift';letter-spacing:0px;word-spacing:0px;fill:#ff6900;fill-opacity:1;stroke:none;stroke-width:13.20841789"
     id="text843">
    <path
       d="M 189.1852,564.99999 V 245.36658 L 135.526,284.57907 V 227.3082 l 53.6592,-38.95452 h 54.17515 v 376.64631 z"
       style="fill:#ff6900;fill-opacity:1;stroke-width:13.20841789;stroke:none"
       id="path857" />
    <path
       d="M 296.24563,564.22606 V 513.66258 L 443.29247,329.72504 q 8.51324,-10.83503 11.09301,-19.86423 2.57977,-9.02919 2.57977,-17.54243 0,-19.60624 -13.93076,-36.37474 -13.93075,-17.02648 -37.9226,-17.02648 -21.92804,0 -37.66463,14.70468 -15.47862,14.44671 -17.28446,39.72845 h -53.91717 q 0.25797,-45.66191 31.2152,-76.87712 30.95724,-31.47319 73.52343,-31.47319 46.9518,0 78.167,31.73117 31.47319,31.47318 31.47319,76.10319 0,38.18058 -22.44399,66.04209 L 367.18928,510.56686 h 143.43517 v 53.6592 z"
       style="fill:#ff6900;fill-opacity:1;stroke-width:13.20841789;stroke:none"
       id="path859" />
    <path
       d="M 550.09492,564.22606 V 513.66258 L 697.14176,329.72504 q 8.51324,-10.83503 11.09301,-19.86423 2.57977,-9.02919 2.57977,-17.54243 0,-19.60624 -13.93076,-36.37474 -13.93075,-17.02648 -37.9226,-17.02648 -21.92804,0 -37.66463,14.70468 -15.47862,14.44671 -17.28446,39.72845 h -53.91717 q 0.25797,-45.66191 31.2152,-76.87712 30.95723,-31.47319 73.52343,-31.47319 46.9518,0 78.167,31.73117 31.47319,31.47318 31.47319,76.10319 0,38.18058 -22.444,66.04209 L 621.03857,510.56686 h 143.43517 v 53.6592 z"
       style="fill:#ff6900;fill-opacity:1;stroke-width:13.20841789;stroke:none"
       id="path861" />
  </g>
</svg>
