<?xml version="1.0" encoding="UTF-8" standalone="no"?>
<svg
   xmlns:dc="http://purl.org/dc/elements/1.1/"
   xmlns:cc="http://creativecommons.org/ns#"
   xmlns:rdf="http://www.w3.org/1999/02/22-rdf-syntax-ns#"
   xmlns:svg="http://www.w3.org/2000/svg"
   xmlns="http://www.w3.org/2000/svg"
   xmlns:sodipodi="http://sodipodi.sourceforge.net/DTD/sodipodi-0.dtd"
   xmlns:inkscape="http://www.inkscape.org/namespaces/inkscape"
   width="900"
   height="750"
   viewBox="0 0 900 750"
   version="1.1"
   id="svg8"
   sodipodi:docname="SADC road sign GE19-05.svg"
   inkscape:version="0.92.4 (5da689c313, 2019-01-14)">
  <metadata
     id="metadata14">
    <rdf:RDF>
      <cc:Work
         rdf:about="">
        <dc:format>image/svg+xml</dc:format>
        <dc:type
           rdf:resource="http://purl.org/dc/dcmitype/StillImage" />
        <dc:title />
      </cc:Work>
    </rdf:RDF>
  </metadata>
  <defs
     id="defs12" />
  <sodipodi:namedview
     pagecolor="#ffffff"
     bordercolor="#666666"
     borderopacity="1"
     objecttolerance="10"
     gridtolerance="10"
     guidetolerance="10"
     inkscape:pageopacity="0"
     inkscape:pageshadow="2"
     inkscape:window-width="1366"
     inkscape:window-height="715"
     id="namedview10"
     showgrid="false"
     inkscape:zoom="0.728"
     inkscape:cx="450"
     inkscape:cy="375"
     inkscape:window-x="-8"
     inkscape:window-y="-8"
     inkscape:window-maximized="1"
     inkscape:current-layer="svg8" />
  <path
     d="M 825 0 Q 900 0 900 75 L 900 675 Q 900 750 825 750 L 75 750 Q 0 750 0 675 L 0 75 Q 0 0 75 0 Z"
     fill="#ff6900"
     id="background" />
  <path
     d="M 450 40 L 59.3972712981828628696052380752 138.12702696655406127909917189818 Q 40 143 40 163L 40 587 Q 40 607 59.3972712981828628696052380752 611.87297303344593872090082810182 L 450 710 L 840.6027287018171371303947619248 611.87297303344593872090082810182Q 860 607 860 587 L 860 163 Q 860 143 840.6027287018171371303947619248 138.12702696655406127909917189818 L 450 40"
     fill="#00559b"
     id="border" />
  <g
     aria-label="05"
     style="font-style:normal;font-variant:normal;font-weight:normal;font-stretch:normal;font-size:538.9473877px;line-height:1.25;font-family:'DIN 1451 Mittelschrift';-inkscape-font-specification:'DIN 1451 Mittelschrift';letter-spacing:0px;word-spacing:0px;fill:#ff6900;fill-opacity:1;stroke:none;stroke-width:13.47368336"
     id="route-number"
     transform="matrix(1.0512823,0,0,1.051282,-23.077375,-29.743276)">
    <path
       d="M 374.21084,466.57867 V 303.68393 q 0,-27.63158 -15,-43.1579 -14.73684,-15.52631 -38.94737,-15.52631 -24.47368,0 -39.21052,15.52631 -14.73685,15.52632 -14.73685,43.1579 v 162.89474 q 0,27.89474 14.73685,43.42105 14.73684,15.26316 39.21052,15.26316 24.21053,0 38.94737,-15.26316 15,-15.52631 15,-43.42105 z m -162.89474,3.1579 V 300.52603 q 0,-52.89474 33.1579,-81.57895 33.15789,-28.94737 75.78947,-28.94737 42.36843,0 75.52632,28.94737 33.42106,28.68421 33.42106,81.57895 v 169.21054 q 0,52.89473 -33.42106,81.57895 -33.15789,28.68421 -75.52632,28.68421 -42.63158,0 -75.78947,-28.68421 -33.1579,-28.68422 -33.1579,-81.57895 z"
       style="stroke-width:13.47368336"
       id="path817"
       inkscape:connector-curvature="0" />
    <path
       d="M 476.84244,400.78919 V 193.42077 h 204.21053 v 55 H 528.68454 v 86.57895 q 26.31579,-21.05263 61.3158,-21.05263 21.8421,0 39.73684,8.42105 18.15789,8.42105 28.68421,19.73684 15.78947,17.10527 22.89474,37.36842 7.36842,20 7.36842,67.63159 0,38.68421 -5.78947,57.63158 -5.52632,18.68421 -17.89474,34.47368 -11.84211,15 -33.1579,27.89474 -21.31579,12.89474 -50,12.89474 -37.10526,0 -71.57895,-22.89474 -34.47369,-22.89474 -40.52632,-76.57895 h 55 q 9.73685,44.73684 55.00001,44.73684 40.26316,0 47.10526,-27.63158 6.84211,-27.63158 6.84211,-54.73684 0,-31.84211 -10.78948,-52.89474 -10.78947,-21.05263 -44.73684,-21.05263 -31.84211,0 -49.47369,31.8421 z"
       style="stroke-width:13.47368336"
       id="path819"
       inkscape:connector-curvature="0" />
  </g>
</svg>
