<?xml version="1.0" encoding="UTF-8" standalone="no"?>
<svg
   xmlns:dc="http://purl.org/dc/elements/1.1/"
   xmlns:cc="http://creativecommons.org/ns#"
   xmlns:rdf="http://www.w3.org/1999/02/22-rdf-syntax-ns#"
   xmlns:svg="http://www.w3.org/2000/svg"
   xmlns="http://www.w3.org/2000/svg"
   xmlns:sodipodi="http://sodipodi.sourceforge.net/DTD/sodipodi-0.dtd"
   xmlns:inkscape="http://www.inkscape.org/namespaces/inkscape"
   width="900"
   height="750"
   viewBox="0 0 900 750"
   version="1.1"
   id="svg8"
   sodipodi:docname="SADC road sign GE19-30.svg"
   inkscape:version="0.92.4 (5da689c313, 2019-01-14)">
  <metadata
     id="metadata14">
    <rdf:RDF>
      <cc:Work
         rdf:about="">
        <dc:format>image/svg+xml</dc:format>
        <dc:type
           rdf:resource="http://purl.org/dc/dcmitype/StillImage" />
        <dc:title />
      </cc:Work>
    </rdf:RDF>
  </metadata>
  <defs
     id="defs12" />
  <sodipodi:namedview
     pagecolor="#ffffff"
     bordercolor="#666666"
     borderopacity="1"
     objecttolerance="10"
     gridtolerance="10"
     guidetolerance="10"
     inkscape:pageopacity="0"
     inkscape:pageshadow="2"
     inkscape:window-width="1366"
     inkscape:window-height="715"
     id="namedview10"
     showgrid="false"
     inkscape:zoom="0.728"
     inkscape:cx="450"
     inkscape:cy="375"
     inkscape:window-x="-8"
     inkscape:window-y="-8"
     inkscape:window-maximized="1"
     inkscape:current-layer="svg8" />
  <path
     d="M 825 0 Q 900 0 900 75 L 900 675 Q 900 750 825 750 L 75 750 Q 0 750 0 675 L 0 75 Q 0 0 75 0 Z"
     fill="#ff6900"
     id="background" />
  <path
     d="M 450 40 L 59.3972712981828628696052380752 138.12702696655406127909917189818 Q 40 143 40 163L 40 587 Q 40 607 59.3972712981828628696052380752 611.87297303344593872090082810182 L 450 710 L 840.6027287018171371303947619248 611.87297303344593872090082810182Q 860 607 860 587 L 860 163 Q 860 143 840.6027287018171371303947619248 138.12702696655406127909917189818 L 450 40"
     fill="#00559b"
     id="border" />
  <g
     aria-label="30"
     style="font-style:normal;font-variant:normal;font-weight:normal;font-stretch:normal;font-size:538.9473877px;line-height:1.25;font-family:'DIN 1451 Mittelschrift';-inkscape-font-specification:'DIN 1451 Mittelschrift';letter-spacing:0px;word-spacing:0px;fill:#ff6900;fill-opacity:1;stroke:none;stroke-width:13.47368336"
     id="route-number"
     transform="matrix(1.0512823,0,0,1.051282,-23.077164,-29.743465)">
    <path
       d="M 292.76328,403.42096 V 354.9999 h 18.94737 q 27.36842,0 43.1579,-15.26316 16.05263,-15.52631 16.05263,-39.21052 0,-23.42106 -16.57895,-39.47369 -16.57895,-16.05263 -39.47368,-16.05263 -17.36842,0 -32.89474,11.57895 -15.52632,11.57894 -20,34.73684 h -55 q 3.15789,-40.52632 33.94737,-70.78948 30.78947,-30.52631 71.8421,-30.52631 51.3158,0 82.10527,33.94737 31.05263,33.68421 31.05263,75.52631 0,22.10527 -8.68421,43.1579 -8.68421,20.78948 -32.36842,36.05263 24.21053,15.52632 34.73684,38.1579 10.52632,22.63158 10.52632,45.78947 0,53.68422 -33.68421,85.52632 -33.68421,31.84211 -82.63158,31.84211 -38.94737,0 -70.26316,-25 -31.05264,-25.26316 -38.68422,-73.42106 h 55.00001 q 7.63157,19.73685 20.52631,31.84211 12.89474,11.84211 36.57895,11.84211 22.89474,0 40.52632,-16.05264 17.63158,-16.31579 17.63158,-44.73684 0,-28.68421 -17.63158,-44.73684 -17.36842,-16.31579 -41.57895,-16.31579 z"
       style="stroke-width:13.47368336"
       id="path10"
       inkscape:connector-curvature="0" />
    <path
       d="M 640.13173,466.57885 V 303.68411 q 0,-27.63158 -15,-43.1579 -14.73685,-15.52631 -38.94737,-15.52631 -24.47369,0 -39.21053,15.52631 -14.73684,15.52632 -14.73684,43.1579 v 162.89474 q 0,27.89474 14.73684,43.42106 14.73684,15.26316 39.21053,15.26316 24.21052,0 38.94737,-15.26316 15,-15.52632 15,-43.42106 z m -162.89475,3.1579 V 300.52622 q 0,-52.89474 33.1579,-81.57895 33.1579,-28.94737 75.78948,-28.94737 42.36842,0 75.52632,28.94737 33.42105,28.68421 33.42105,81.57895 v 169.21053 q 0,52.89474 -33.42105,81.57895 -33.1579,28.68421 -75.52632,28.68421 -42.63158,0 -75.78948,-28.68421 -33.1579,-28.68421 -33.1579,-81.57895 z"
       style="stroke-width:13.47368336"
       id="path12"
       inkscape:connector-curvature="0" />
  </g>
</svg>
