<?xml version="1.0" encoding="UTF-8" standalone="no"?>
<svg
   xmlns:dc="http://purl.org/dc/elements/1.1/"
   xmlns:cc="http://creativecommons.org/ns#"
   xmlns:rdf="http://www.w3.org/1999/02/22-rdf-syntax-ns#"
   xmlns:svg="http://www.w3.org/2000/svg"
   xmlns="http://www.w3.org/2000/svg"
   xmlns:sodipodi="http://sodipodi.sourceforge.net/DTD/sodipodi-0.dtd"
   xmlns:inkscape="http://www.inkscape.org/namespaces/inkscape"
   width="900"
   height="750"
   viewBox="0 0 900 750"
   version="1.1"
   id="svg8"
   sodipodi:docname="106.svg"
   inkscape:version="0.92.4 (5da689c313, 2019-01-14)">
  <metadata
     id="metadata14">
    <rdf:RDF>
      <cc:Work
         rdf:about="">
        <dc:format>image/svg+xml</dc:format>
        <dc:type
           rdf:resource="http://purl.org/dc/dcmitype/StillImage" />
        <dc:title></dc:title>
      </cc:Work>
    </rdf:RDF>
  </metadata>
  <defs
     id="defs12" />
  <sodipodi:namedview
     pagecolor="#ffffff"
     bordercolor="#666666"
     borderopacity="1"
     objecttolerance="10"
     gridtolerance="10"
     guidetolerance="10"
     inkscape:pageopacity="0"
     inkscape:pageshadow="2"
     inkscape:window-width="1920"
     inkscape:window-height="1057"
     id="namedview10"
     showgrid="false"
     inkscape:zoom="0.51477374"
     inkscape:cx="906.02902"
     inkscape:cy="227.71187"
     inkscape:window-x="-8"
     inkscape:window-y="-8"
     inkscape:window-maximized="1"
     inkscape:current-layer="svg8" />
  <path
     d="M 825 0 Q 900 0 900 75 L 900 675 Q 900 750 825 750 L 75 750 Q 0 750 0 675 L 0 75 Q 0 0 75 0 Z"
     id="background"
     fill="#ff6900" />
  <path
     d="M 450 40 L 59.3972712981828628696052380752 138.12702696655406127909917189818 Q 40 143 40 163L 40 587 Q 40 607 59.3972712981828628696052380752 611.87297303344593872090082810182 L 450 710 L 840.6027287018171371303947619248 611.87297303344593872090082810182Q 860 607 860 587 L 860 163 Q 860 143 840.6027287018171371303947619248 138.12702696655406127909917189818 L 450 40"
     id="border"
     fill="#00559b" />
  <g
     aria-label="31"
     style="font-style:normal;font-variant:normal;font-weight:normal;font-stretch:normal;font-size:566.58569336px;line-height:1.25;font-family:'DIN 1451 Mittelschrift';-inkscape-font-specification:'DIN 1451 Mittelschrift';letter-spacing:0px;word-spacing:0px;fill:#ff6900;fill-opacity:1;stroke:none;stroke-width:14.16464233"
     id="text886" />
  <g
     aria-label="105"
     style="font-style:normal;font-variant:normal;font-weight:normal;font-stretch:normal;font-size:525.12823486px;line-height:1.25;font-family:'DIN 1451 Mittelschrift';-inkscape-font-specification:'DIN 1451 Mittelschrift';letter-spacing:0px;word-spacing:0px;fill:#ff6900;fill-opacity:1;stroke:none;stroke-width:13.1282053"
     id="text4632" />
  <g
     aria-label="106"
     style="font-style:normal;font-variant:normal;font-weight:normal;font-stretch:normal;font-size:523.36248779px;line-height:1.25;font-family:'DIN 1451 Mittelschrift';-inkscape-font-specification:'DIN 1451 Mittelschrift';letter-spacing:0px;word-spacing:0px;fill:#ff6900;fill-opacity:1;stroke:none;stroke-width:13.08406162"
     id="text4666">
    <path
       d="M 188.957,561.42234 V 244.79826 l -53.154,38.84331 v -56.73168 l 53.154,-38.58776 h 53.6651 v 373.10021 z"
       style="fill:#ff6900;fill-opacity:1;stroke-width:13.08406162;stroke:none"
       id="path4668"
       inkscape:connector-curvature="0" />
    <path
       d="M 456.26031,453.58104 V 295.39678 q 0,-26.83255 -14.56624,-41.90989 -14.3107,-15.07734 -37.82112,-15.07734 -23.76597,0 -38.07667,15.07734 -14.31069,15.07734 -14.31069,41.90989 v 158.18426 q 0,27.0881 14.31069,42.16544 14.3107,14.82179 38.07667,14.82179 23.51042,0 37.82112,-14.82179 14.56624,-15.07734 14.56624,-42.16544 z m -158.18427,3.06658 V 292.3302 q 0,-51.36517 32.19906,-79.21991 Q 362.47416,185 403.87295,185 q 41.14324,0 73.3423,28.11029 32.45461,27.85474 32.45461,79.21991 v 164.31742 q 0,51.36517 -32.45461,79.21991 -32.19906,27.85474 -73.3423,27.85474 -41.39879,0 -73.59785,-27.85474 -32.19906,-27.85474 -32.19906,-79.21991 z"
       style="fill:#ff6900;fill-opacity:1;stroke-width:13.08406162;stroke:none"
       id="path4670"
       inkscape:connector-curvature="0" />
    <path
       d="M 564.35713,389.18293 664.53199,188.83322 h 59.5427 L 645.62143,346.5064 h 1.02219 q 11.75521,-4.85542 28.36584,-4.85542 34.75454,0 62.09818,24.78817 27.0881,25.04371 27.0881,79.2199 0,64.39812 -34.24344,91.99732 -34.24345,27.34364 -75.89779,27.34364 -39.60995,0 -71.80901,-30.15467 -32.19906,-30.15468 -32.19906,-83.30868 0,-33.9879 14.31069,-62.35373 z m 92.76396,0 q -22.74378,0 -38.07666,14.82179 -15.58844,15.58843 -15.58844,46.50975 0,61.33154 53.6651,61.33154 18.39946,0 36.03228,-14.05515 17.37727,-13.79959 17.37727,-47.27639 0,-31.17687 -15.58843,-46.50975 -15.58844,-14.82179 -37.82112,-14.82179 z"
       style="fill:#ff6900;fill-opacity:1;stroke-width:13.08406162;stroke:none"
       id="path4672"
       inkscape:connector-curvature="0" />
  </g>
</svg>
