<?xml version="1.0" encoding="UTF-8" standalone="no"?>
<svg
   xmlns:dc="http://purl.org/dc/elements/1.1/"
   xmlns:cc="http://creativecommons.org/ns#"
   xmlns:rdf="http://www.w3.org/1999/02/22-rdf-syntax-ns#"
   xmlns:svg="http://www.w3.org/2000/svg"
   xmlns="http://www.w3.org/2000/svg"
   xmlns:sodipodi="http://sodipodi.sourceforge.net/DTD/sodipodi-0.dtd"
   xmlns:inkscape="http://www.inkscape.org/namespaces/inkscape"
   width="900"
   height="750"
   viewBox="0 0 900 750"
   version="1.1"
   id="svg8"
   sodipodi:docname="29.svg"
   inkscape:version="0.92.4 (5da689c313, 2019-01-14)">
  <metadata
     id="metadata14">
    <rdf:RDF>
      <cc:Work
         rdf:about="">
        <dc:format>image/svg+xml</dc:format>
        <dc:type
           rdf:resource="http://purl.org/dc/dcmitype/StillImage" />
        <dc:title></dc:title>
      </cc:Work>
    </rdf:RDF>
  </metadata>
  <defs
     id="defs12" />
  <sodipodi:namedview
     pagecolor="#ffffff"
     bordercolor="#666666"
     borderopacity="1"
     objecttolerance="10"
     gridtolerance="10"
     guidetolerance="10"
     inkscape:pageopacity="0"
     inkscape:pageshadow="2"
     inkscape:window-width="1920"
     inkscape:window-height="1057"
     id="namedview10"
     showgrid="false"
     inkscape:zoom="0.728"
     inkscape:cx="450"
     inkscape:cy="375"
     inkscape:window-x="-8"
     inkscape:window-y="-8"
     inkscape:window-maximized="1"
     inkscape:current-layer="svg8" />
  <path
     d="M 825 0 Q 900 0 900 75 L 900 675 Q 900 750 825 750 L 75 750 Q 0 750 0 675 L 0 75 Q 0 0 75 0 Z"
     id="background"
     fill="#ff6900" />
  <path
     d="M 450 40 L 59.3972712981828628696052380752 138.12702696655406127909917189818 Q 40 143 40 163L 40 587 Q 40 607 59.3972712981828628696052380752 611.87297303344593872090082810182 L 450 710 L 840.6027287018171371303947619248 611.87297303344593872090082810182Q 860 607 860 587 L 860 163 Q 860 143 840.6027287018171371303947619248 138.12702696655406127909917189818 L 450 40"
     id="border"
     fill="#00559b" />
  <g
     aria-label="29"
     style="font-style:normal;font-variant:normal;font-weight:normal;font-stretch:normal;font-size:569.27459717px;line-height:1.25;font-family:'DIN 1451 Mittelschrift';-inkscape-font-specification:'DIN 1451 Mittelschrift';letter-spacing:0px;word-spacing:0px;fill:#ff6900;fill-opacity:1;stroke:none;stroke-width:14.23186398"
     id="text866">
    <path
       d="M 194.82701,578.61018 V 524.12882 L 353.26769,325.93898 q 9.17288,-11.67457 11.95254,-21.40339 2.77966,-9.72881 2.77966,-18.90169 0,-21.12543 -15.01017,-39.19322 -15.01017,-18.34577 -40.86101,-18.34577 -23.62712,0 -40.58306,15.84407 -16.67796,15.5661 -18.62373,42.80678 h -58.09491 q 0.27796,-49.2 33.6339,-82.8339 Q 261.81684,170 307.68125,170 q 50.58983,0 84.22373,34.18983 33.91187,33.91186 33.91187,82 0,41.13899 -24.18306,71.15933 l -130.3661,163.44407 h 154.54916 v 57.81695 z"
       style="stroke-width:14.23186398;fill:#ff6900;fill-opacity:1;stroke:none"
       id="path879" />
    <path
       d="M 689.60668,362.07458 580.64396,580.00001 h -65.04407 l 85.61356,-171.50509 h -1.11186 q -13.89831,5.28136 -30.85424,5.28136 -38.91525,0 -67.82373,-26.96272 -29.18644,-26.68474 -29.18644,-86.16949 0,-69.7695 36.96949,-99.78984 37.24746,-30.2983 82.8339,-30.2983 42.25085,0 77.83051,33.35593 35.3017,33.35594 35.3017,90.61695 0,36.9695 -15.5661,67.54577 z m -100.9017,0 q 24.18305,0 41.13898,-16.12204 16.95594,-15.5661 16.95594,-50.31186 0,-66.98983 -58.09492,-66.98983 -20.29153,0 -39.19322,15.28813 -19.17966,15.5661 -19.17966,51.7017 0,34.4678 16.95593,50.31186 16.67797,16.12204 41.41695,16.12204 z"
       style="stroke-width:14.23186398;fill:#ff6900;fill-opacity:1;stroke:none"
       id="path881" />
  </g>
</svg>
