<?xml version="1.0" encoding="UTF-8" standalone="no"?>
<svg
   xmlns:dc="http://purl.org/dc/elements/1.1/"
   xmlns:cc="http://creativecommons.org/ns#"
   xmlns:rdf="http://www.w3.org/1999/02/22-rdf-syntax-ns#"
   xmlns:svg="http://www.w3.org/2000/svg"
   xmlns="http://www.w3.org/2000/svg"
   xmlns:sodipodi="http://sodipodi.sourceforge.net/DTD/sodipodi-0.dtd"
   xmlns:inkscape="http://www.inkscape.org/namespaces/inkscape"
   width="900"
   height="750"
   viewBox="0 0 900 750"
   version="1.1"
   id="svg8"
   sodipodi:docname="SADC road sign GE19-06.svg"
   inkscape:version="0.92.4 (5da689c313, 2019-01-14)">
  <metadata
     id="metadata14">
    <rdf:RDF>
      <cc:Work
         rdf:about="">
        <dc:format>image/svg+xml</dc:format>
        <dc:type
           rdf:resource="http://purl.org/dc/dcmitype/StillImage" />
        <dc:title></dc:title>
      </cc:Work>
    </rdf:RDF>
  </metadata>
  <defs
     id="defs12" />
  <sodipodi:namedview
     pagecolor="#ffffff"
     bordercolor="#666666"
     borderopacity="1"
     objecttolerance="10"
     gridtolerance="10"
     guidetolerance="10"
     inkscape:pageopacity="0"
     inkscape:pageshadow="2"
     inkscape:window-width="1366"
     inkscape:window-height="715"
     id="namedview10"
     showgrid="false"
     inkscape:zoom="0.728"
     inkscape:cx="450"
     inkscape:cy="375"
     inkscape:window-x="-8"
     inkscape:window-y="-8"
     inkscape:window-maximized="1"
     inkscape:current-layer="svg8" />
  <path
     d="M 825 0 Q 900 0 900 75 L 900 675 Q 900 750 825 750 L 75 750 Q 0 750 0 675 L 0 75 Q 0 0 75 0 Z"
     fill="#ff6900"
     id="background" />
  <path
     d="M 450 40 L 59.3972712981828628696052380752 138.12702696655406127909917189818 Q 40 143 40 163L 40 587 Q 40 607 59.3972712981828628696052380752 611.87297303344593872090082810182 L 450 710 L 840.6027287018171371303947619248 611.87297303344593872090082810182Q 860 607 860 587 L 860 163 Q 860 143 840.6027287018171371303947619248 138.12702696655406127909917189818 L 450 40"
     fill="#00559b"
     id="border" />
  <g
     aria-label="06"
     style="font-style:normal;font-variant:normal;font-weight:normal;font-stretch:normal;font-size:564.68054199px;line-height:1.25;font-family:'DIN 1451 Mittelschrift';-inkscape-font-specification:'DIN 1451 Mittelschrift';letter-spacing:0px;word-spacing:0px;fill:#ff6900;fill-opacity:1;stroke:none;stroke-width:14.11701393"
     id="route-number">
    <path
       d="M 369.2129,459.78505 V 289.11256 q 0,-28.9509 -15.71621,-45.21856 -15.44048,-16.26765 -40.80699,-16.26765 -25.64223,0 -41.08271,16.26765 -15.44049,16.26766 -15.44049,45.21856 v 170.67249 q 0,29.22663 15.44049,45.49428 15.44048,15.99193 41.08271,15.99193 25.36651,0 40.80699,-15.99193 15.71621,-16.26765 15.71621,-45.49428 z m -170.67249,3.30868 V 285.80389 q 0,-55.42031 34.74109,-85.47411 34.74109,-30.32952 79.4082,-30.32952 44.39139,0 79.13248,30.32952 35.01681,30.0538 35.01681,85.47411 v 177.28984 q 0,55.4203 -35.01681,85.4741 -34.74109,30.0538 -79.13248,30.0538 -44.66711,0 -79.4082,-30.0538 -34.74109,-30.0538 -34.74109,-85.4741 z"
       style="stroke-width:14.11701393"
       id="path3721" />
    <path
       d="M 485.84368,390.30287 593.92707,174.1361 h 64.24344 l -84.64694,170.12105 h 1.10289 q 12.68326,-5.23874 30.60525,-5.23874 37.49831,0 67.00067,26.74512 29.22663,27.02085 29.22663,85.47411 0,69.48218 -36.94688,99.26025 -36.94687,29.50235 -81.8897,29.50235 -42.73706,0 -77.47814,-32.5353 -34.74109,-32.53531 -34.74109,-89.88567 0,-36.67115 15.44048,-67.2764 z m 100.08742,0 q -24.53934,0 -41.08271,15.99193 -16.8191,16.8191 -16.8191,50.18158 0,66.1735 57.90181,66.1735 19.85205,0 38.87693,-15.16476 18.74916,-14.88904 18.74916,-51.00874 0,-33.6382 -16.8191,-50.18158 Q 609.919,390.30287 585.9311,390.30287 Z"
       style="stroke-width:14.11701393"
       id="path3723" />
  </g>
</svg>
