<?xml version="1.0" encoding="UTF-8" standalone="no"?>
<svg
   xmlns:dc="http://purl.org/dc/elements/1.1/"
   xmlns:cc="http://creativecommons.org/ns#"
   xmlns:rdf="http://www.w3.org/1999/02/22-rdf-syntax-ns#"
   xmlns:svg="http://www.w3.org/2000/svg"
   xmlns="http://www.w3.org/2000/svg"
   xmlns:sodipodi="http://sodipodi.sourceforge.net/DTD/sodipodi-0.dtd"
   xmlns:inkscape="http://www.inkscape.org/namespaces/inkscape"
   width="900"
   height="750"
   viewBox="0 0 900 750"
   version="1.1"
   id="svg8"
   sodipodi:docname="28.svg"
   inkscape:version="0.92.4 (5da689c313, 2019-01-14)">
  <metadata
     id="metadata14">
    <rdf:RDF>
      <cc:Work
         rdf:about="">
        <dc:format>image/svg+xml</dc:format>
        <dc:type
           rdf:resource="http://purl.org/dc/dcmitype/StillImage" />
        <dc:title></dc:title>
      </cc:Work>
    </rdf:RDF>
  </metadata>
  <defs
     id="defs12" />
  <sodipodi:namedview
     pagecolor="#ffffff"
     bordercolor="#666666"
     borderopacity="1"
     objecttolerance="10"
     gridtolerance="10"
     guidetolerance="10"
     inkscape:pageopacity="0"
     inkscape:pageshadow="2"
     inkscape:window-width="1920"
     inkscape:window-height="1057"
     id="namedview10"
     showgrid="false"
     inkscape:zoom="0.728"
     inkscape:cx="450"
     inkscape:cy="375"
     inkscape:window-x="-8"
     inkscape:window-y="-8"
     inkscape:window-maximized="1"
     inkscape:current-layer="svg8" />
  <path
     d="M 825 0 Q 900 0 900 75 L 900 675 Q 900 750 825 750 L 75 750 Q 0 750 0 675 L 0 75 Q 0 0 75 0 Z"
     id="background"
     fill="#ff6900" />
  <path
     d="M 450 40 L 59.3972712981828628696052380752 138.12702696655406127909917189818 Q 40 143 40 163L 40 587 Q 40 607 59.3972712981828628696052380752 611.87297303344593872090082810182 L 450 710 L 840.6027287018171371303947619248 611.87297303344593872090082810182Q 860 607 860 587 L 860 163 Q 860 143 840.6027287018171371303947619248 138.12702696655406127909917189818 L 450 40"
     id="border"
     fill="#00559b" />
  <g
     aria-label="28"
     style="font-style:normal;font-weight:normal;font-size:566.58569336px;line-height:1.25;font-family:sans-serif;letter-spacing:0px;word-spacing:0px;fill:#ff6900;fill-opacity:1;stroke:none;stroke-width:14.16464233"
     id="text842">
    <path
       d="M 193.542,576.68016 V 522.45614 L 351.23431,325.20242 q 9.12956,-11.61943 11.89609,-21.30229 2.76653,-9.68286 2.76653,-18.81242 0,-21.02564 -14.93927,-39.00809 -14.93927,-18.25911 -40.66802,-18.25911 -23.51552,0 -40.39136,15.76923 -16.59919,15.49258 -18.53576,42.60459 H 193.542 q 0.27666,-48.96761 33.47504,-82.44265 Q 260.21542,170 305.86319,170 q 50.35088,0 83.82591,34.02834 33.75169,33.75168 33.75169,81.61268 0,40.94467 -24.06883,70.82321 L 269.62163,519.1363 h 153.81916 v 57.54386 z"
       style="font-style:normal;font-variant:normal;font-weight:normal;font-stretch:normal;font-family:'DIN 1451 Mittelschrift';-inkscape-font-specification:'DIN 1451 Mittelschrift';stroke-width:14.16464233;fill:#ff6900;fill-opacity:1;stroke:none"
       id="path859" />
    <path
       d="m 525.80246,285.64102 q 0,28.49528 17.7058,43.1579 17.98246,14.66261 40.11471,14.66261 22.13225,0 39.83806,-14.66261 17.98245,-14.66262 17.98245,-43.1579 0,-28.21862 -17.98245,-42.88124 -17.70581,-14.93927 -39.83806,-14.93927 -22.13225,0 -40.11471,14.93927 -17.7058,14.66262 -17.7058,42.88124 z m -65.0135,173.46154 q 0,-58.92713 47.58435,-90.74224 -17.98246,-16.04588 -29.32524,-35.41161 -11.06613,-19.64237 -11.06613,-46.20108 0,-48.69095 33.19838,-82.71929 Q 534.65536,170 583.62297,170 q 48.96761,0 82.16599,34.02834 33.47503,34.02834 33.47503,82.71929 0,26.55871 -11.34278,46.20108 -11.34278,19.36573 -28.77193,35.41161 47.3077,32.09177 47.3077,90.74224 0,53.67071 -36.51822,87.4224 -36.24157,33.47503 -86.31579,33.47503 -50.35088,0 -86.59244,-33.47503 -36.24157,-33.75169 -36.24157,-87.4224 z m 57.82051,-0.55331 q 0,27.66532 19.36573,45.92443 19.64237,17.98246 45.64777,17.98246 25.72874,0 45.37112,-17.98246 19.91903,-18.25911 19.91903,-45.92443 0,-27.66531 -19.91903,-45.92442 -19.64238,-18.25911 -45.37112,-18.25911 -26.0054,0 -45.64777,18.25911 -19.36573,18.25911 -19.36573,45.92442 z"
       style="font-style:normal;font-variant:normal;font-weight:normal;font-stretch:normal;font-family:'DIN 1451 Mittelschrift';-inkscape-font-specification:'DIN 1451 Mittelschrift';stroke-width:14.16464233;fill:#ff6900;fill-opacity:1;stroke:none"
       id="path861" />
  </g>
</svg>
