<?xml version="1.0" encoding="UTF-8" standalone="no"?>
<svg
   xmlns:dc="http://purl.org/dc/elements/1.1/"
   xmlns:cc="http://creativecommons.org/ns#"
   xmlns:rdf="http://www.w3.org/1999/02/22-rdf-syntax-ns#"
   xmlns:svg="http://www.w3.org/2000/svg"
   xmlns="http://www.w3.org/2000/svg"
   xmlns:sodipodi="http://sodipodi.sourceforge.net/DTD/sodipodi-0.dtd"
   xmlns:inkscape="http://www.inkscape.org/namespaces/inkscape"
   width="900"
   height="750"
   viewBox="0 0 900 750"
   version="1.1"
   id="svg8"
   sodipodi:docname="36.svg"
   inkscape:version="0.92.4 (5da689c313, 2019-01-14)">
  <metadata
     id="metadata14">
    <rdf:RDF>
      <cc:Work
         rdf:about="">
        <dc:format>image/svg+xml</dc:format>
        <dc:type
           rdf:resource="http://purl.org/dc/dcmitype/StillImage" />
        <dc:title></dc:title>
      </cc:Work>
    </rdf:RDF>
  </metadata>
  <defs
     id="defs12" />
  <sodipodi:namedview
     pagecolor="#ffffff"
     bordercolor="#666666"
     borderopacity="1"
     objecttolerance="10"
     gridtolerance="10"
     guidetolerance="10"
     inkscape:pageopacity="0"
     inkscape:pageshadow="2"
     inkscape:window-width="1920"
     inkscape:window-height="1057"
     id="namedview10"
     showgrid="false"
     inkscape:zoom="0.728"
     inkscape:cx="450"
     inkscape:cy="375"
     inkscape:window-x="-8"
     inkscape:window-y="-8"
     inkscape:window-maximized="1"
     inkscape:current-layer="svg8" />
  <path
     d="M 825 0 Q 900 0 900 75 L 900 675 Q 900 750 825 750 L 75 750 Q 0 750 0 675 L 0 75 Q 0 0 75 0 Z"
     id="background"
     fill="#ff6900" />
  <path
     d="M 450 40 L 59.3972712981828628696052380752 138.12702696655406127909917189818 Q 40 143 40 163L 40 587 Q 40 607 59.3972712981828628696052380752 611.87297303344593872090082810182 L 450 710 L 840.6027287018171371303947619248 611.87297303344593872090082810182Q 860 607 860 587 L 860 163 Q 860 143 840.6027287018171371303947619248 138.12702696655406127909917189818 L 450 40"
     id="border"
     fill="#00559b" />
  <g
     aria-label="31"
     style="font-style:normal;font-variant:normal;font-weight:normal;font-stretch:normal;font-size:566.58569336px;line-height:1.25;font-family:'DIN 1451 Mittelschrift';-inkscape-font-specification:'DIN 1451 Mittelschrift';letter-spacing:0px;word-spacing:0px;fill:#ff6900;fill-opacity:1;stroke:none;stroke-width:14.16464233"
     id="text886" />
  <g
     aria-label="36"
     style="font-style:normal;font-variant:normal;font-weight:normal;font-stretch:normal;font-size:564.68054199px;line-height:1.25;font-family:'DIN 1451 Mittelschrift';-inkscape-font-specification:'DIN 1451 Mittelschrift';letter-spacing:0px;word-spacing:0px;fill:#ff6900;fill-opacity:1;stroke:none;stroke-width:14.11701393"
     id="text862">
    <path
       d="m 283.60146,393.61131 v -50.73302 h 19.85205 q 28.67519,0 45.21856,-15.99193 16.8191,-16.26765 16.8191,-41.08272 0,-24.53934 -17.37054,-41.35843 -17.37055,-16.8191 -41.35844,-16.8191 -18.19772,0 -34.46537,12.13181 -16.26765,12.1318 -20.95494,36.39542 h -57.62609 q 3.30867,-42.46133 35.56826,-74.16946 32.25958,-31.98386 75.27235,-31.98386 53.76597,0 86.02556,35.56825 32.5353,35.29254 32.5353,79.13248 0,23.16073 -9.09886,45.21856 -9.09885,21.78211 -33.91392,37.77404 25.36651,16.26765 36.39543,39.97982 11.02892,23.71218 11.02892,47.97579 0,56.24748 -35.29254,89.60995 -35.29253,33.36248 -86.57699,33.36248 -40.807,0 -73.61802,-26.19368 -32.53531,-26.4694 -40.53127,-76.9267 h 57.62609 q 7.99596,20.67922 21.50638,33.36248 13.51043,12.40753 38.32549,12.40753 23.98789,0 42.46133,-16.8191 18.47344,-17.09482 18.47344,-46.8729 0,-30.0538 -18.47344,-46.87289 -18.19771,-17.09482 -43.56422,-17.09482 z"
       style="stroke-width:14.11701393;fill:#ff6900;fill-opacity:1;stroke:none"
       id="path875" />
    <path
       d="M 492.87514,390.30263 600.95853,174.13586 h 64.24344 L 580.55503,344.2569 h 1.1029 q 12.68325,-5.23873 30.60524,-5.23873 37.49832,0 67.00067,26.74512 29.22663,27.02085 29.22663,85.47411 0,69.48217 -36.94687,99.26025 Q 634.59673,580 589.65389,580 q -42.73705,0 -77.47814,-32.5353 -34.74109,-32.53531 -34.74109,-89.88568 0,-36.67115 15.44048,-67.27639 z m 100.08743,0 q -24.53934,0 -41.08272,15.99193 -16.8191,16.8191 -16.8191,50.18157 0,66.1735 57.90182,66.1735 19.85205,0 38.87693,-15.16476 18.74916,-14.88904 18.74916,-51.00874 0,-33.6382 -16.8191,-50.18157 -16.8191,-15.99193 -40.80699,-15.99193 z"
       style="stroke-width:14.11701393;fill:#ff6900;fill-opacity:1;stroke:none"
       id="path877" />
  </g>
</svg>
