<?xml version="1.0" encoding="UTF-8" standalone="no"?>
<!-- Created with Inkscape (http://www.inkscape.org/) -->

<svg
   xmlns:dc="http://purl.org/dc/elements/1.1/"
   xmlns:cc="http://creativecommons.org/ns#"
   xmlns:rdf="http://www.w3.org/1999/02/22-rdf-syntax-ns#"
   xmlns:svg="http://www.w3.org/2000/svg"
   xmlns="http://www.w3.org/2000/svg"
   xmlns:sodipodi="http://sodipodi.sourceforge.net/DTD/sodipodi-0.dtd"
   xmlns:inkscape="http://www.inkscape.org/namespaces/inkscape"
   width="1550mm"
   height="780mm"
   viewBox="0 0 1550 780"
   version="1.1"
   id="svg8"
   inkscape:version="0.92.4 (5da689c313, 2019-01-14)"
   sodipodi:docname="77.svg">
  <defs
     id="defs2" />
  <sodipodi:namedview
     id="base"
     pagecolor="#ffffff"
     bordercolor="#666666"
     borderopacity="1.0"
     inkscape:pageopacity="0.0"
     inkscape:pageshadow="2"
     inkscape:zoom="0.12374369"
     inkscape:cx="3314.0815"
     inkscape:cy="747.52097"
     inkscape:document-units="mm"
     inkscape:current-layer="text864"
     showgrid="false"
     fit-margin-top="0"
     fit-margin-left="0"
     fit-margin-right="0"
     fit-margin-bottom="0"
     inkscape:window-width="1920"
     inkscape:window-height="1057"
     inkscape:window-x="-8"
     inkscape:window-y="-8"
     inkscape:window-maximized="1" />
  <metadata
     id="metadata5">
    <rdf:RDF>
      <cc:Work
         rdf:about="">
        <dc:format>image/svg+xml</dc:format>
        <dc:type
           rdf:resource="http://purl.org/dc/dcmitype/StillImage" />
        <dc:title></dc:title>
      </cc:Work>
    </rdf:RDF>
  </metadata>
  <g
     inkscape:label="Layer 1"
     inkscape:groupmode="layer"
     id="layer1"
     transform="translate(0,483)">
    <rect
       style="opacity:1;fill:#782d00;fill-opacity:1;fill-rule:nonzero;stroke:none;stroke-width:245.39123535;stroke-linecap:square;stroke-linejoin:round;stroke-miterlimit:4;stroke-dasharray:none;stroke-dashoffset:21.31999969;stroke-opacity:1;paint-order:stroke fill markers"
       id="rect815"
       width="1550"
       height="780"
       x="0"
       y="-483" />
    <rect
       y="-483"
       x="0"
       height="780"
       width="1550"
       id="rect843"
       style="opacity:1;fill:#ffffff;fill-opacity:1;fill-rule:nonzero;stroke:none;stroke-width:245.39123535;stroke-linecap:square;stroke-linejoin:round;stroke-miterlimit:4;stroke-dasharray:none;stroke-dashoffset:21.31999969;stroke-opacity:1;paint-order:stroke fill markers"
       rx="120"
       ry="120" />
    <rect
       y="-453"
       x="30"
       height="720"
       width="1490"
       id="rect845"
       style="opacity:1;fill:#782d00;fill-opacity:1;fill-rule:nonzero;stroke:none;stroke-width:231.15605164;stroke-linecap:square;stroke-linejoin:round;stroke-miterlimit:4;stroke-dasharray:none;stroke-dashoffset:21.31999969;stroke-opacity:1;paint-order:stroke fill markers"
       rx="90"
       ry="90" />
    <circle
       r="225"
       cy="-93"
       cx="375"
       id="circle856"
       style="opacity:1;fill:#ffd70a;fill-opacity:1;fill-rule:nonzero;stroke:none;stroke-width:0.24132201;stroke-linecap:butt;stroke-linejoin:miter;stroke-miterlimit:4;stroke-dasharray:none;stroke-opacity:1;paint-order:stroke fill markers" />
    <path
       inkscape:connector-curvature="0"
       id="path858"
       style="fill:#000000;fill-opacity:1;fill-rule:nonzero;stroke:none;stroke-width:42.88575363"
       d="m 187.1702,-135.51521 c 2.0182,42.409004 12.2234,87.092204 33.4959,124.484604 20.1163,35.1631 46.7941,68.7825 78.5321,94.7683 6.0424,4.0721 13.9826,10.7211 20.3728,14.1513 l 13.596,5.664496 6.7719,2.8321 c 14.5395,4.9352 31.2237,7.0745 46.5352,7.0745 5.6655,0 11.8417,-0.9724 17.4999,-1.41 3.0395,-0.6078 13.8101,-2.4433 15.9972,-4.2423 2.4438,-1.41 14.9262,-8.192696 15.9985,-9.906596 5.7871,-4.6798 17.7139,-14.8806 21.8305,-21.227 l 1.4589,-4.2422 -1.7993,-1.2399 0.3647,-0.1215 -75.7005,-49.4859 -4.3281,1.4101 -13.0818,19.7683 c -5.1914,7.1595 -15.9972,11.3167 -24.7472,11.3167 l -8.7536,-2.8322 c -3.4285,-2.1394 -7.0759,-6.9043 -10.1639,-9.9067 L 233.7686,-124.13901 c -1.5441,-3.1239 -2.9179,-11.0249 -1.9331,-16.981 l 1.9331,-5.6644 c 2.5288,-4.5826 8.5834,-9.9432 13.0818,-12.7353 l 10.1639,-1.41 h 18.9576 l 4.3282,-2.8322 1.4589,-4.2422 -5.7871,-84.9054 -7.2947,-5.6158 c -22.7739,2.5769 -56.4425,23.3711 -64.0338,45.2399 -2.699,6.175 -15.9122,41.5958 -14.5407,46.6986 l -2.9179,31.1324" />
    <path
       inkscape:connector-curvature="0"
       id="path860"
       style="fill:#000000;fill-opacity:1;fill-rule:nonzero;stroke:none;stroke-width:42.88575363"
       d="m 302.1148,-251.51041 c -0.3647,1.7625 -4.3768,19.0827 -4.3768,19.7683 v 19.812 c 0,4.8865 6.3464,38.4646 10.2126,39.6218 l -11.6715,9.9066 -4.3768,-2.8322 -7.2461,-91.9373 4.3768,-2.8687 13.0818,8.5331" />
    <path
       inkscape:connector-curvature="0"
       id="path862"
       style="fill:#000000;fill-opacity:1;fill-rule:nonzero;stroke:none;stroke-width:42.88575363"
       d="m 467.9702,61.095894 -1.4589,-15.5662 c -10.8083,-4.2423 -21.4877,-9.2138 -31.9957,-14.1501 -4.5956,-1.41 -17.4999,-11.1951 -20.3728,-14.1088 -3.003,-3.1361 -7.5014,-10.4171004 -10.1639,-14.1501004 h -4.3768 l -10.2126,5.6644 v 4.2058004 l 78.5746,48.1123" />
    <path
       inkscape:connector-curvature="0"
       id="path864"
       style="fill:#000000;fill-opacity:1;fill-rule:nonzero;stroke:none;stroke-width:42.93487549"
       d="m 469.8354,-47.728906 c -2.495,16.4009 -13.3097,38.0400996 -32.8884,38.0400996 h -11.3308 l -6.7789,-2.5313996 c -15.6282,-5.8784 -24.8595,-18.4615 -24.8595,-35.5063 v -83.637004 c 0.044,-4.9412 2.4462,-16.2294 5.0629,-20.309 3.4321,-5.3185 20.2225,-17.7324 26.5768,-17.7324 13.6528,0 30.0977,5.6228 37.9111,17.7324 2.0568,3.2252 5.5376,16.1868 6.3165,20.309 v 83.637004" />
    <path
       inkscape:connector-curvature="0"
       id="path866"
       style="fill:#ffd70a;fill-opacity:1;fill-rule:nonzero;stroke:none;stroke-width:42.93487549"
       d="m 447.0802,-47.728906 -1.2901,7.5944 c -1.6795,2.5314 -8.2395,7.643 -11.3307,7.643 h -6.3531 c -0.3651,0 -5.6228,-2.2758 -6.3165,-2.5314 -2.2272,-2.1055 -6.3165,-9.8703 -6.3165,-12.7085 v -83.637004 c 1.6796,-6.5234 6.2313,-12.7948 12.6233,-15.1997 h 6.353 c 4.0406,1.8012 8.6289,5.3185 11.3308,8.8479 l 1.29,6.353 v 83.637004" />
    <g
       transform="matrix(0.9,0,0,0.9,-56.2798,-7.2299064)"
       id="g870"
       style="font-style:normal;font-variant:normal;font-weight:bold;font-stretch:normal;font-size:263.32843018px;line-height:0;font-family:'DIN 1451 Engschrift';-inkscape-font-specification:'DIN 1451 Engschrift Bold';letter-spacing:0px;word-spacing:0px;fill:#000000;fill-opacity:1;stroke:none;stroke-width:1.37150216"
       aria-label="S0S">
      <path
         inkscape:connector-curvature="0"
         id="path868"
         style="fill:#000000;fill-opacity:1;stroke:none;stroke-width:1.37150216"
         d="m 421.47953,-46.592494 q 0,5.003241 0.26332,7.636525 0.52666,2.369959 3.94993,7.636529 3.6866,5.00324 13.16642,5.00324 5.26657,0 9.74315,-2.10663 4.47659,-2.36996 6.58321,-5.79323 2.10663,-3.6866 2.10663,-7.373193 0.26333,-3.949927 0.26333,-5.266569 v -12.376436 q 0,-5.266569 -0.52666,-7.899853 -0.26333,-2.633284 -3.15994,-5.529897 -2.63328,-3.159941 -7.89985,-5.529897 -5.00324,-2.633284 -17.90633,-7.373196 -12.63977,-4.739912 -21.32961,-14.746389 -8.68983,-10.26981 -8.68983,-27.91282 v -7.89985 q 0,-17.90633 11.84977,-30.80943 12.11311,-13.16642 30.01945,-13.16642 18.16966,0 30.28276,12.90309 12.37644,12.63977 12.37644,31.07276 v 7.89985 h -25.0162 v -7.89985 q 0,-3.6866 -0.52666,-6.31988 -0.52665,-2.63329 -4.21325,-7.63653 -3.6866,-5.00324 -12.37644,-5.00324 -7.63652,0 -12.63976,5.5299 -4.73991,5.26657 -4.73991,13.42975 v 7.89985 q 0,5.00324 0.26332,7.3732 0.52666,2.10663 2.89662,5.00324 2.36995,2.89661 6.84654,5.00324 4.47658,2.10663 17.11634,6.84654 12.9031,4.476582 22.64625,15.009719 9.74315,10.269809 9.74315,28.176142 v 14.219735 q 0,8.689834 -1.8433,15.273054 -1.57997,6.58321 -10.53314,18.43299 Q 461.24212,-1.3 439.38586,-1.3 416.73961,-1.3 406.4698,-16.0464 396.2,-31.05612 396.2,-46.592494 v -6.319882 h 25.27953 z" />
    </g>
    <g
       transform="matrix(0.9,0,0,0.9,130.7402,-7.2299064)"
       aria-label="S0S"
       style="font-style:normal;font-variant:normal;font-weight:bold;font-stretch:normal;font-size:263.32843018px;line-height:0;font-family:'DIN 1451 Engschrift';-inkscape-font-specification:'DIN 1451 Engschrift Bold';letter-spacing:0px;word-spacing:0px;fill:#000000;fill-opacity:1;stroke:none;stroke-width:1.37150216"
       id="g874">
      <path
         d="m 421.47953,-46.592494 q 0,5.003241 0.26332,7.636525 0.52666,2.369959 3.94993,7.636529 3.6866,5.00324 13.16642,5.00324 5.26657,0 9.74315,-2.10663 4.47659,-2.36996 6.58321,-5.79323 2.10663,-3.6866 2.10663,-7.373193 0.26333,-3.949927 0.26333,-5.266569 v -12.376436 q 0,-5.266569 -0.52666,-7.899853 -0.26333,-2.633284 -3.15994,-5.529897 -2.63328,-3.159941 -7.89985,-5.529897 -5.00324,-2.633284 -17.90633,-7.373196 -12.63977,-4.739912 -21.32961,-14.746389 -8.68983,-10.26981 -8.68983,-27.91282 v -7.89985 q 0,-17.90633 11.84977,-30.80943 12.11311,-13.16642 30.01945,-13.16642 18.16966,0 30.28276,12.90309 12.37644,12.63977 12.37644,31.07276 v 7.89985 h -25.0162 v -7.89985 q 0,-3.6866 -0.52666,-6.31988 -0.52665,-2.63329 -4.21325,-7.63653 -3.6866,-5.00324 -12.37644,-5.00324 -7.63652,0 -12.63976,5.5299 -4.73991,5.26657 -4.73991,13.42975 v 7.89985 q 0,5.00324 0.26332,7.3732 0.52666,2.10663 2.89662,5.00324 2.36995,2.89661 6.84654,5.00324 4.47658,2.10663 17.11634,6.84654 12.9031,4.476582 22.64625,15.009719 9.74315,10.269809 9.74315,28.176142 v 14.219735 q 0,8.689834 -1.8433,15.273054 -1.57997,6.58321 -10.53314,18.43299 Q 461.24212,-1.3 439.38586,-1.3 416.73961,-1.3 406.4698,-16.0464 396.2,-31.05612 396.2,-46.592494 v -6.319882 h 25.27953 z"
         style="fill:#000000;fill-opacity:1;stroke:none;stroke-width:1.37150216"
         id="path872"
         inkscape:connector-curvature="0" />
    </g>
    <g
       aria-label="Every"
       style="font-style:normal;font-variant:normal;font-weight:bold;font-stretch:normal;font-size:292.77127075px;line-height:0;font-family:'DIN 1451 Mittelschrift';-inkscape-font-specification:'DIN 1451 Mittelschrift Bold';letter-spacing:0px;word-spacing:0px;fill:#ffffff;fill-opacity:1;stroke:none;stroke-width:1.52485049"
       id="text864"
       transform="translate(2504.0476,618.27843)">
      <path
         d="m -1784.0475,-772.9934 v -208.28503 h 133.2338 v 29.87753 h -101.6408 v 59.32622 h 86.6306 v 28.16208 h -86.6306 v 61.18462 h 101.6408 v 29.73458 z"
         style="font-style:normal;font-variant:normal;font-weight:bold;font-stretch:normal;font-family:'DIN 1451 Mittelschrift';-inkscape-font-specification:'DIN 1451 Mittelschrift Bold';fill:#ffffff;fill-opacity:1;stroke:none;stroke-width:1.52485049"
         id="path1067"
         inkscape:connector-curvature="0" />
      <path
         d="m -1590.3438,-772.9934 -54.3228,-148.387 h 31.593 l 34.738,103.92808 h 0.5718 l 34.8809,-103.92808 h 31.593 l -54.4657,148.387 z"
         style="font-style:normal;font-variant:normal;font-weight:bold;font-stretch:normal;font-family:'DIN 1451 Mittelschrift';-inkscape-font-specification:'DIN 1451 Mittelschrift Bold';fill:#ffffff;fill-opacity:1;stroke:none;stroke-width:1.52485049"
         id="path1069"
         inkscape:connector-curvature="0" />
      <path
         d="m -1378.9138,-835.89348 h -92.3487 q 0,18.29821 9.8638,27.44731 10.0069,9.1491 25.446,9.1491 18.4411,0 32.5936,-14.29547 l 21.5862,18.44116 q -11.0075,12.86592 -24.8741,18.44116 -13.7237,5.43228 -28.7339,5.43228 -22.8728,0 -44.316,-14.72434 -21.4432,-14.86729 -21.4432,-60.6128 0,-43.31528 19.7278,-59.89803 19.8707,-16.58275 41.4568,-16.58275 24.4453,0 42.7435,17.01161 18.2982,16.86866 18.2982,45.60256 z m -92.3487,-24.58821 h 62.6141 q -0.7147,-16.7257 -9.435,-25.5889 -8.7202,-8.86319 -21.8721,-8.86319 -13.2947,0 -22.1579,8.86319 -8.7203,8.8632 -9.1491,25.5889 z"
         style="font-style:normal;font-variant:normal;font-weight:bold;font-stretch:normal;font-family:'DIN 1451 Mittelschrift';-inkscape-font-specification:'DIN 1451 Mittelschrift Bold';fill:#ffffff;fill-opacity:1;stroke:none;stroke-width:1.52485049"
         id="path1071"
         inkscape:connector-curvature="0" />
      <path
         d="m -1347.4637,-772.9934 v -148.387 h 29.8775 v 15.86797 h 0.5718 q 13.8666,-17.58343 38.5978,-17.58343 16.2968,0 31.0212,11.43638 l -21.5862,25.73185 q -9.7209,-7.29069 -19.7277,-7.29069 -11.0076,0 -20.0137,7.43364 -8.8632,7.2907 -8.8632,23.58753 v 89.20375 z"
         style="font-style:normal;font-variant:normal;font-weight:bold;font-stretch:normal;font-family:'DIN 1451 Mittelschrift';-inkscape-font-specification:'DIN 1451 Mittelschrift Bold';fill:#ffffff;fill-opacity:1;stroke:none;stroke-width:1.52485049"
         id="path1073"
         inkscape:connector-curvature="0" />
      <path
         d="m -1184.8173,-778.71159 -53.1792,-142.66881 h 31.4501 l 35.1668,103.92808 h 0.5718 l 35.1669,-103.92808 h 31.593 l -63.7578,179.12227 q -6.29,17.15452 -17.2975,23.15862 -11.0075,6.1471 -24.5882,6.1471 h -10.0069 v -28.16209 h 8.8632 q 13.4378,0 17.8694,-12.86592 z"
         style="font-style:normal;font-variant:normal;font-weight:bold;font-stretch:normal;font-family:'DIN 1451 Mittelschrift';-inkscape-font-specification:'DIN 1451 Mittelschrift Bold';fill:#ffffff;fill-opacity:1;stroke:none;stroke-width:1.52485049"
         id="path1075"
         inkscape:connector-curvature="0" />
      <g
         aria-label="2 km"
         style="font-style:normal;font-variant:normal;font-weight:bold;font-stretch:normal;font-size:292.57144165px;line-height:0;font-family:'DIN 1451 Mittelschrift';-inkscape-font-specification:'DIN 1451 Mittelschrift Bold';letter-spacing:0px;word-spacing:0px;fill:#000000;fill-opacity:1;stroke:none;stroke-width:2.3235817"
         id="text1080">
        <path
           d="m -1686.0478,-441.27843 v -28 l 81.4286,-101.8571 q 4.7142,-6 6.1428,-11 1.4286,-5 1.4286,-9.7143 0,-10.8572 -7.7143,-20.1429 -7.7143,-9.4285 -21,-9.4285 -12.1429,0 -20.8571,8.1428 -8.5715,8 -9.5715,22 h -29.8571 q 0.1428,-25.2857 17.2857,-42.5714 17.1429,-17.4286 40.7143,-17.4286 26,0 43.2857,17.5714 17.4286,17.4286 17.4286,42.1429 0,21.1429 -12.4286,36.5714 l -67,84 h 79.4286 v 29.7143 z"
           style="font-style:normal;font-variant:normal;font-weight:bold;font-stretch:normal;font-family:'DIN 1451 Mittelschrift';-inkscape-font-specification:'DIN 1451 Mittelschrift Bold';fill:#ffffff;fill-opacity:1;stroke:none;stroke-width:2.3235817"
           id="path1082"
           inkscape:connector-curvature="0" />
        <path
           d="m -1464.9047,-441.27843 v -208.1428 h 29.8571 v 129.5714 h 0.5714 l 57,-69.7143 h 35.7143 l -51.1428,58 58.1428,90.2857 h -37.4286 l -39.4285,-69.2857 -23.4286,26.7143 v 42.5714 z"
           style="font-style:normal;font-variant:normal;font-weight:bold;font-stretch:normal;font-family:'DIN 1451 Mittelschrift';-inkscape-font-specification:'DIN 1451 Mittelschrift Bold';fill:#ffffff;fill-opacity:1;stroke:none;stroke-width:2.3235817"
           id="path1084"
           inkscape:connector-curvature="0" />
        <path
           d="m -1311.1904,-441.27843 v -148.2857 h 29.8571 v 15.8571 h 0.5714 q 14.1429,-17.5714 38.5715,-17.5714 15.5714,0 24.7142,5.5714 9.1429,5.5715 17.1429,13.7143 17.5714,-19.2857 46.8571,-19.2857 17.2858,0 33.2858,13.1429 16.1428,13.1428 16.1428,38.2857 v 98.5714 h -29.8571 v -88.2857 q 0,-15 -8.4286,-23.4286 -8.4286,-8.4285 -20.8571,-8.4285 -12.8572,0 -21.2858,8.4285 -8.2857,8.4286 -8.2857,23.4286 v 88.2857 h -29.7143 v -88.2857 q 0,-15 -8.4285,-23.4286 -8.4286,-8.4285 -20.8572,-8.4285 -12.8571,0 -21.2857,8.4285 -8.2857,8.4286 -8.2857,23.4286 v 88.2857 z"
           style="font-style:normal;font-variant:normal;font-weight:bold;font-stretch:normal;font-family:'DIN 1451 Mittelschrift';-inkscape-font-specification:'DIN 1451 Mittelschrift Bold';fill:#ffffff;fill-opacity:1;stroke:none;stroke-width:2.3235817"
           id="path1086"
           inkscape:connector-curvature="0" />
      </g>
    </g>
  </g>
</svg>
