<?xml version="1.0" encoding="UTF-8" standalone="no"?>
<!-- Created with Inkscape (http://www.inkscape.org/) -->

<svg
   xmlns:dc="http://purl.org/dc/elements/1.1/"
   xmlns:cc="http://creativecommons.org/ns#"
   xmlns:rdf="http://www.w3.org/1999/02/22-rdf-syntax-ns#"
   xmlns:svg="http://www.w3.org/2000/svg"
   xmlns="http://www.w3.org/2000/svg"
   xmlns:sodipodi="http://sodipodi.sourceforge.net/DTD/sodipodi-0.dtd"
   xmlns:inkscape="http://www.inkscape.org/namespaces/inkscape"
   width="900mm"
   height="1200mm"
   viewBox="0 0 900 1200"
   version="1.1"
   id="svg8"
   inkscape:version="0.92.4 (5da689c313, 2019-01-14)"
   sodipodi:docname="drawing.svg">
  <defs
     id="defs2" />
  <sodipodi:namedview
     id="base"
     pagecolor="#ffffff"
     bordercolor="#666666"
     borderopacity="1.0"
     inkscape:pageopacity="0.0"
     inkscape:pageshadow="2"
     inkscape:zoom="0.12374369"
     inkscape:cx="1215.0683"
     inkscape:cy="1591.729"
     inkscape:document-units="mm"
     inkscape:current-layer="layer1"
     showgrid="false"
     fit-margin-top="0"
     fit-margin-left="0"
     fit-margin-right="0"
     fit-margin-bottom="0"
     inkscape:window-width="1920"
     inkscape:window-height="1057"
     inkscape:window-x="-8"
     inkscape:window-y="-8"
     inkscape:window-maximized="1"
     showguides="false" />
  <metadata
     id="metadata5">
    <rdf:RDF>
      <cc:Work
         rdf:about="">
        <dc:format>image/svg+xml</dc:format>
        <dc:type
           rdf:resource="http://purl.org/dc/dcmitype/StillImage" />
        <dc:title></dc:title>
      </cc:Work>
    </rdf:RDF>
  </metadata>
  <g
     inkscape:label="Layer 1"
     inkscape:groupmode="layer"
     id="layer1"
     transform="translate(0,903)">
    <rect
       style="opacity:1;fill:#782d00;fill-opacity:1;fill-rule:nonzero;stroke:none;stroke-width:231.93045044;stroke-linecap:square;stroke-linejoin:round;stroke-miterlimit:4;stroke-dasharray:none;stroke-dashoffset:21.31999969;stroke-opacity:1;paint-order:stroke fill markers"
       id="rect815"
       width="900"
       height="1200"
       x="0"
       y="-903" />
    <rect
       y="-903"
       x="0"
       height="1200"
       width="900"
       id="rect843"
       style="opacity:1;fill:#ffffff;fill-opacity:1;fill-rule:nonzero;stroke:none;stroke-width:231.93045044;stroke-linecap:square;stroke-linejoin:round;stroke-miterlimit:4;stroke-dasharray:none;stroke-dashoffset:21.31999969;stroke-opacity:1;paint-order:stroke fill markers"
       rx="120"
       ry="120" />
    <rect
       y="-873"
       x="30"
       height="1140"
       width="840"
       id="rect845"
       style="opacity:1;fill:#782d00;fill-opacity:1;fill-rule:nonzero;stroke:none;stroke-width:218.3926239;stroke-linecap:square;stroke-linejoin:round;stroke-miterlimit:4;stroke-dasharray:none;stroke-dashoffset:21.31999969;stroke-opacity:1;paint-order:stroke fill markers"
       rx="90"
       ry="90" />
    <circle
       r="300"
       cy="-483"
       cx="450"
       id="circle856"
       style="opacity:1;fill:#ffd70a;fill-opacity:1;fill-rule:nonzero;stroke:none;stroke-width:0.32176268;stroke-linecap:butt;stroke-linejoin:miter;stroke-miterlimit:4;stroke-dasharray:none;stroke-opacity:1;paint-order:stroke fill markers" />
    <path
       inkscape:connector-curvature="0"
       id="path858"
       style="fill:#000000;fill-opacity:1;fill-rule:nonzero;stroke:none;stroke-width:57.18100357"
       d="m 199.56004,-539.68698 c 2.6909,56.54528 16.2979,116.12288 44.6612,165.97947 26.8217,46.88415 62.3922,91.71001 104.7094,126.35773 8.0566,5.42941 18.6436,14.29475 27.1638,18.86843 l 18.128,7.55256 9.0292,3.77625 c 19.386,6.58016 41.6316,9.4326 62.0469,9.4326 7.554,0 15.7889,-1.29657 23.3333,-1.88004 4.0526,-0.81036 18.4133,-3.25765 21.3296,-5.65633 3.2583,-1.88 19.9015,-10.92361 21.3312,-13.20882 7.7161,-6.23979 23.6186,-19.84086 29.1074,-28.30265 l 1.9453,-5.65629 -2.3992,-1.65313 0.4863,-0.16209 -100.934,-65.98111 -5.7708,1.88004 -17.4425,26.35776 c -6.9218,9.54605 -21.3296,15.0889 -32.9962,15.0889 l -11.6715,-3.77628 c -4.5713,-2.85245 -9.4344,-9.2057 -13.5518,-13.20886 l -116.3744,-220.63984 c -2.0587,-4.16523 -3.8905,-14.69991 -2.5775,-22.64143 l 2.5775,-7.55255 c 3.3717,-6.11012 11.4445,-13.25749 17.4423,-16.98028 l 13.5519,-1.88003 h 25.2769 l 5.7709,-3.77627 1.9452,-5.65632 -7.7161,-113.20723 -9.7262,-7.48771 c -30.3653,3.43592 -75.2568,31.16156 -85.3785,60.31992 -3.5987,8.23326 -21.2162,55.46101 -19.3876,62.26478 l -3.8905,41.50986" />
    <path
       inkscape:connector-curvature="0"
       id="path860"
       style="fill:#000000;fill-opacity:1;fill-rule:nonzero;stroke:none;stroke-width:57.18100357"
       d="m 352.81954,-694.34733 c -0.4863,2.35003 -5.8357,25.44367 -5.8357,26.35775 v 26.4161 c 0,6.51528 8.4618,51.28603 13.6167,52.82896 l -15.562,13.20886 -5.8357,-3.77629 -9.6614,-122.58308 5.8357,-3.82492 17.4424,11.37748" />
    <path
       inkscape:connector-curvature="0"
       id="path862"
       style="fill:#000000;fill-opacity:1;fill-rule:nonzero;stroke:none;stroke-width:57.18100357"
       d="m 573.96004,-277.53891 -1.9453,-20.75492 c -14.411,-5.65633 -28.6502,-12.28506 -42.6608,-18.86681 -6.1276,-1.88 -23.3333,-14.92681 -27.1638,-18.81168 -4.0039,-4.18145 -10.0018,-13.88954 -13.5519,-18.86681 h -5.8357 l -13.6167,7.55257 v 5.60769 l 104.7661,64.1497" />
    <path
       inkscape:connector-curvature="0"
       id="path864"
       style="fill:#000000;fill-opacity:1;fill-rule:nonzero;stroke:none;stroke-width:57.24650192"
       d="m 576.44694,-422.63865 c -3.3266,21.86797 -17.7462,50.72022 -43.8512,50.72022 h -15.1076 l -9.0387,-3.37529 c -20.8376,-7.83783 -33.146,-24.6153 -33.146,-47.34169 v -111.516 c 0.058,-6.58832 3.2617,-21.63918 6.7506,-27.07859 4.5761,-7.09136 26.9634,-23.64326 35.4357,-23.64326 18.2038,0 40.1302,7.49703 50.5482,23.64326 2.7424,4.30025 7.3834,21.58237 8.422,27.07859 v 111.516" />
    <path
       inkscape:connector-curvature="0"
       id="path866"
       style="fill:#ffd70a;fill-opacity:1;fill-rule:nonzero;stroke:none;stroke-width:57.24650192"
       d="m 546.10664,-422.63865 -1.7201,10.12588 c -2.2394,3.37527 -10.9859,10.19076 -15.1076,10.19076 h -8.4707 c -0.4869,0 -7.4971,-3.0345 -8.422,-3.37528 -2.9696,-2.80734 -8.422,-13.16041 -8.422,-16.9446 v -111.51602 c 2.2393,-8.69786 8.3084,-17.05982 16.831,-20.26634 h 8.4707 c 5.3874,2.40164 11.5052,7.09135 15.1077,11.79728 l 1.72,8.47068 v 111.51602" />
    <g
       transform="matrix(1.2,0,0,1.2,-125.03996,-368.63993)"
       id="g870"
       style="font-style:normal;font-variant:normal;font-weight:bold;font-stretch:normal;font-size:263.32843018px;line-height:0;font-family:'DIN 1451 Engschrift';-inkscape-font-specification:'DIN 1451 Engschrift Bold';letter-spacing:0px;word-spacing:0px;fill:#000000;fill-opacity:1;stroke:none;stroke-width:1.37150216"
       aria-label="S0S">
      <path
         inkscape:connector-curvature="0"
         id="path868"
         style="fill:#000000;fill-opacity:1;stroke:none;stroke-width:1.37150216"
         d="m 421.47953,-46.592494 q 0,5.003241 0.26332,7.636525 0.52666,2.369959 3.94993,7.636529 3.6866,5.00324 13.16642,5.00324 5.26657,0 9.74315,-2.10663 4.47659,-2.36996 6.58321,-5.79323 2.10663,-3.6866 2.10663,-7.373193 0.26333,-3.949927 0.26333,-5.266569 v -12.376436 q 0,-5.266569 -0.52666,-7.899853 -0.26333,-2.633284 -3.15994,-5.529897 -2.63328,-3.159941 -7.89985,-5.529897 -5.00324,-2.633284 -17.90633,-7.373196 -12.63977,-4.739912 -21.32961,-14.746389 -8.68983,-10.26981 -8.68983,-27.91282 v -7.89985 q 0,-17.90633 11.84977,-30.80943 12.11311,-13.16642 30.01945,-13.16642 18.16966,0 30.28276,12.90309 12.37644,12.63977 12.37644,31.07276 v 7.89985 h -25.0162 v -7.89985 q 0,-3.6866 -0.52666,-6.31988 -0.52665,-2.63329 -4.21325,-7.63653 -3.6866,-5.00324 -12.37644,-5.00324 -7.63652,0 -12.63976,5.5299 -4.73991,5.26657 -4.73991,13.42975 v 7.89985 q 0,5.00324 0.26332,7.3732 0.52666,2.10663 2.89662,5.00324 2.36995,2.89661 6.84654,5.00324 4.47658,2.10663 17.11634,6.84654 12.9031,4.476582 22.64625,15.009719 9.74315,10.269809 9.74315,28.176142 v 14.219735 q 0,8.689834 -1.8433,15.273054 -1.57997,6.58321 -10.53314,18.43299 Q 461.24212,-1.3 439.38586,-1.3 416.73961,-1.3 406.4698,-16.0464 396.2,-31.05612 396.2,-46.592494 v -6.319882 h 25.27953 z" />
    </g>
    <g
       transform="matrix(1.2,0,0,1.2,124.32004,-368.63993)"
       aria-label="S0S"
       style="font-style:normal;font-variant:normal;font-weight:bold;font-stretch:normal;font-size:263.32843018px;line-height:0;font-family:'DIN 1451 Engschrift';-inkscape-font-specification:'DIN 1451 Engschrift Bold';letter-spacing:0px;word-spacing:0px;fill:#000000;fill-opacity:1;stroke:none;stroke-width:1.37150216"
       id="g874">
      <path
         d="m 421.47953,-46.592494 q 0,5.003241 0.26332,7.636525 0.52666,2.369959 3.94993,7.636529 3.6866,5.00324 13.16642,5.00324 5.26657,0 9.74315,-2.10663 4.47659,-2.36996 6.58321,-5.79323 2.10663,-3.6866 2.10663,-7.373193 0.26333,-3.949927 0.26333,-5.266569 v -12.376436 q 0,-5.266569 -0.52666,-7.899853 -0.26333,-2.633284 -3.15994,-5.529897 -2.63328,-3.159941 -7.89985,-5.529897 -5.00324,-2.633284 -17.90633,-7.373196 -12.63977,-4.739912 -21.32961,-14.746389 -8.68983,-10.26981 -8.68983,-27.91282 v -7.89985 q 0,-17.90633 11.84977,-30.80943 12.11311,-13.16642 30.01945,-13.16642 18.16966,0 30.28276,12.90309 12.37644,12.63977 12.37644,31.07276 v 7.89985 h -25.0162 v -7.89985 q 0,-3.6866 -0.52666,-6.31988 -0.52665,-2.63329 -4.21325,-7.63653 -3.6866,-5.00324 -12.37644,-5.00324 -7.63652,0 -12.63976,5.5299 -4.73991,5.26657 -4.73991,13.42975 v 7.89985 q 0,5.00324 0.26332,7.3732 0.52666,2.10663 2.89662,5.00324 2.36995,2.89661 6.84654,5.00324 4.47658,2.10663 17.11634,6.84654 12.9031,4.476582 22.64625,15.009719 9.74315,10.269809 9.74315,28.176142 v 14.219735 q 0,8.689834 -1.8433,15.273054 -1.57997,6.58321 -10.53314,18.43299 Q 461.24212,-1.3 439.38586,-1.3 416.73961,-1.3 406.4698,-16.0464 396.2,-31.05612 396.2,-46.592494 v -6.319882 h 25.27953 z"
         style="fill:#000000;fill-opacity:1;stroke:none;stroke-width:1.37150216"
         id="path872"
         inkscape:connector-curvature="0" />
    </g>
    <path
       style="color:#000000;font-style:normal;font-variant:normal;font-weight:normal;font-stretch:normal;font-size:medium;line-height:normal;font-family:sans-serif;font-variant-ligatures:normal;font-variant-position:normal;font-variant-caps:normal;font-variant-numeric:normal;font-variant-alternates:normal;font-feature-settings:normal;text-indent:0;text-align:start;text-decoration:none;text-decoration-line:none;text-decoration-style:solid;text-decoration-color:#000000;letter-spacing:normal;word-spacing:normal;text-transform:none;writing-mode:lr-tb;direction:ltr;text-orientation:mixed;dominant-baseline:auto;baseline-shift:baseline;text-anchor:start;white-space:normal;shape-padding:0;clip-rule:nonzero;display:inline;overflow:visible;visibility:visible;opacity:1;isolation:auto;mix-blend-mode:normal;color-interpolation:sRGB;color-interpolation-filters:linearRGB;solid-color:#000000;solid-opacity:1;vector-effect:none;fill:#ffffff;fill-opacity:1;fill-rule:nonzero;stroke:none;stroke-width:29.97513199;stroke-linecap:square;stroke-linejoin:round;stroke-miterlimit:4;stroke-dasharray:none;stroke-dashoffset:21.31999969;stroke-opacity:1;paint-order:stroke fill markers;color-rendering:auto;image-rendering:auto;shape-rendering:auto;text-rendering:auto;enable-background:accumulate"
       d="m 150,177 219.2642,-12.61843 c 14.699,-0.964 19.3442,-20.33191 6.6792,-27.84788 L 299.4604,91.14 415,-24.399711 351.3997,-88.000011 235.8603,27.539917 190.4663,-48.94337 c -7.516,-12.665076 -26.8839,-8.019848 -27.8479,6.679134 z"
       id="rect865"
       inkscape:connector-curvature="0"
       sodipodi:nodetypes="cccccccccc" />
  </g>
</svg>
