<?xml version="1.0" encoding="UTF-8" standalone="no"?>
<!-- Created with Inkscape (http://www.inkscape.org/) -->

<svg
   xmlns:dc="http://purl.org/dc/elements/1.1/"
   xmlns:cc="http://creativecommons.org/ns#"
   xmlns:rdf="http://www.w3.org/1999/02/22-rdf-syntax-ns#"
   xmlns:svg="http://www.w3.org/2000/svg"
   xmlns="http://www.w3.org/2000/svg"
   xmlns:sodipodi="http://sodipodi.sourceforge.net/DTD/sodipodi-0.dtd"
   xmlns:inkscape="http://www.inkscape.org/namespaces/inkscape"
   width="1364mm"
   height="780mm"
   viewBox="0 0 1364 780"
   version="1.1"
   id="svg8"
   inkscape:version="0.92.4 (5da689c313, 2019-01-14)"
   sodipodi:docname="77.svg">
  <defs
     id="defs2" />
  <sodipodi:namedview
     id="base"
     pagecolor="#ffffff"
     bordercolor="#666666"
     borderopacity="1.0"
     inkscape:pageopacity="0.0"
     inkscape:pageshadow="2"
     inkscape:zoom="0.12374369"
     inkscape:cx="1817.7142"
     inkscape:cy="1288.6799"
     inkscape:document-units="mm"
     inkscape:current-layer="layer1"
     showgrid="false"
     fit-margin-top="0"
     fit-margin-left="0"
     fit-margin-right="0"
     fit-margin-bottom="0"
     inkscape:window-width="1920"
     inkscape:window-height="1057"
     inkscape:window-x="-8"
     inkscape:window-y="-8"
     inkscape:window-maximized="1" />
  <metadata
     id="metadata5">
    <rdf:RDF>
      <cc:Work
         rdf:about="">
        <dc:format>image/svg+xml</dc:format>
        <dc:type
           rdf:resource="http://purl.org/dc/dcmitype/StillImage" />
        <dc:title></dc:title>
      </cc:Work>
    </rdf:RDF>
  </metadata>
  <g
     inkscape:label="Layer 1"
     inkscape:groupmode="layer"
     id="layer1"
     transform="translate(0,483)">
    <rect
       style="opacity:1;fill:#782d00;fill-opacity:1;fill-rule:nonzero;stroke:none;stroke-width:230.1973877;stroke-linecap:square;stroke-linejoin:round;stroke-miterlimit:4;stroke-dasharray:none;stroke-dashoffset:21.31999969;stroke-opacity:1;paint-order:stroke fill markers"
       id="rect815"
       width="1364"
       height="780"
       x="0"
       y="-483" />
    <rect
       y="-483"
       x="0"
       height="780"
       width="1364"
       id="rect843"
       style="opacity:1;fill:#ffffff;fill-opacity:1;fill-rule:nonzero;stroke:none;stroke-width:230.1973877;stroke-linecap:square;stroke-linejoin:round;stroke-miterlimit:4;stroke-dasharray:none;stroke-dashoffset:21.31999969;stroke-opacity:1;paint-order:stroke fill markers"
       rx="120"
       ry="120" />
    <rect
       y="-453"
       x="30"
       height="720"
       width="1304"
       id="rect845"
       style="opacity:1;fill:#782d00;fill-opacity:1;fill-rule:nonzero;stroke:none;stroke-width:216.24742126;stroke-linecap:square;stroke-linejoin:round;stroke-miterlimit:4;stroke-dasharray:none;stroke-dashoffset:21.31999969;stroke-opacity:1;paint-order:stroke fill markers"
       rx="90"
       ry="90" />
    <circle
       r="225"
       cy="-93"
       cx="989"
       id="circle856"
       style="opacity:1;fill:#ffd70a;fill-opacity:1;fill-rule:nonzero;stroke:none;stroke-width:0.24132201;stroke-linecap:butt;stroke-linejoin:miter;stroke-miterlimit:4;stroke-dasharray:none;stroke-opacity:1;paint-order:stroke fill markers" />
    <path
       inkscape:connector-curvature="0"
       id="path858"
       style="fill:#000000;fill-opacity:1;fill-rule:nonzero;stroke:none;stroke-width:42.88575363"
       d="m 801.17021,-135.51524 c 2.0182,42.408998 12.2234,87.092198 33.4959,124.484598 20.1163,35.1631 46.7941,68.78248 78.5321,94.76828 6.0424,4.0721 13.9826,10.7211 20.3728,14.1513 l 13.596,5.664492 6.7719,2.8321 c 14.5395,4.9352 31.2237,7.0745 46.53519,7.0745 5.6655,0 11.8417,-0.9724 17.4999,-1.41 3.0395,-0.6078 13.8101,-2.4433 15.9972,-4.2423 2.4438,-1.41 14.9262,-8.192692 15.9985,-9.906592 5.7871,-4.6798 17.7139,-14.8806 21.8305,-21.227 l 1.4589,-4.2422 -1.7993,-1.2399 0.3647,-0.1215 -75.70049,-49.48588 -4.3281,1.4101 -13.0818,19.76828 c -5.1914,7.1595 -15.9972,11.3167 -24.7472,11.3167 l -8.7536,-2.8322 c -3.4285,-2.1394 -7.0759,-6.9043 -10.1639,-9.9067 l -87.2808,-165.479878 c -1.5441,-3.1239 -2.9179,-11.0249 -1.9331,-16.981 l 1.9331,-5.6644 c 2.5288,-4.5826 8.5834,-9.9432 13.0818,-12.7353 l 10.1639,-1.41 h 18.9576 l 4.3282,-2.8322 1.4589,-4.2422 -5.7871,-84.9054 -7.2947,-5.6158 c -22.7739,2.5769 -56.4425,23.3711 -64.0338,45.2399 -2.699,6.175 -15.9122,41.5958 -14.5407,46.6986 l -2.9179,31.1324" />
    <path
       inkscape:connector-curvature="0"
       id="path860"
       style="fill:#000000;fill-opacity:1;fill-rule:nonzero;stroke:none;stroke-width:42.88575363"
       d="m 916.11481,-251.51044 c -0.3647,1.7625 -4.3768,19.0827 -4.3768,19.7683 v 19.812 c 0,4.8865 6.3464,38.4646 10.2126,39.6218 l -11.6715,9.9066 -4.3768,-2.8322 -7.2461,-91.9373 4.3768,-2.8687 13.0818,8.5331" />
    <path
       inkscape:connector-curvature="0"
       id="path862"
       style="fill:#000000;fill-opacity:1;fill-rule:nonzero;stroke:none;stroke-width:42.88575363"
       d="m 1081.9702,61.095838 -1.4589,-15.5662 c -10.8083,-4.2423 -21.4877,-9.2138 -31.9957,-14.1501 -4.5956,-1.41 -17.4999,-11.19508 -20.3728,-14.10878 -3.003,-3.1361 -7.5014,-10.4171002 -10.1639,-14.1501002 h -4.3768 l -10.2126,5.6644 v 4.2058002 l 78.5746,48.11228" />
    <path
       inkscape:connector-curvature="0"
       id="path864"
       style="fill:#000000;fill-opacity:1;fill-rule:nonzero;stroke:none;stroke-width:42.93487549"
       d="m 1083.8354,-47.728942 c -2.495,16.4009 -13.3097,38.0400998 -32.8884,38.0400998 h -11.3308 l -6.7789,-2.5313998 c -15.6282,-5.8784 -24.8595,-18.4615 -24.8595,-35.5063 v -83.636998 c 0.044,-4.9412 2.4462,-16.2294 5.0629,-20.309 3.4321,-5.3185 20.2225,-17.7324 26.5768,-17.7324 13.6528,0 30.0977,5.6228 37.9111,17.7324 2.0568,3.2252 5.5376,16.1868 6.3165,20.309 v 83.636998" />
    <path
       inkscape:connector-curvature="0"
       id="path866"
       style="fill:#ffd70a;fill-opacity:1;fill-rule:nonzero;stroke:none;stroke-width:42.93487549"
       d="m 1061.0802,-47.728942 -1.2901,7.5944 c -1.6795,2.5314 -8.2395,7.643 -11.3307,7.643 h -6.3531 c -0.3651,0 -5.6228,-2.2758 -6.3165,-2.5314 -2.2272,-2.1055 -6.3165,-9.8703 -6.3165,-12.7085 v -83.636998 c 1.6796,-6.5234 6.2313,-12.7948 12.6233,-15.1997 h 6.353 c 4.0406,1.8012 8.6289,5.3185 11.3308,8.8479 l 1.29,6.353 v 83.636998" />
    <g
       transform="matrix(0.9,0,0,0.9,557.72021,-7.2299422)"
       id="g870"
       style="font-style:normal;font-variant:normal;font-weight:bold;font-stretch:normal;font-size:263.32843018px;line-height:0;font-family:'DIN 1451 Engschrift';-inkscape-font-specification:'DIN 1451 Engschrift Bold';letter-spacing:0px;word-spacing:0px;fill:#000000;fill-opacity:1;stroke:none;stroke-width:1.37150216"
       aria-label="S0S">
      <path
         inkscape:connector-curvature="0"
         id="path868"
         style="fill:#000000;fill-opacity:1;stroke:none;stroke-width:1.37150216"
         d="m 421.47953,-46.592494 q 0,5.003241 0.26332,7.636525 0.52666,2.369959 3.94993,7.636529 3.6866,5.00324 13.16642,5.00324 5.26657,0 9.74315,-2.10663 4.47659,-2.36996 6.58321,-5.79323 2.10663,-3.6866 2.10663,-7.373193 0.26333,-3.949927 0.26333,-5.266569 v -12.376436 q 0,-5.266569 -0.52666,-7.899853 -0.26333,-2.633284 -3.15994,-5.529897 -2.63328,-3.159941 -7.89985,-5.529897 -5.00324,-2.633284 -17.90633,-7.373196 -12.63977,-4.739912 -21.32961,-14.746389 -8.68983,-10.26981 -8.68983,-27.91282 v -7.89985 q 0,-17.90633 11.84977,-30.80943 12.11311,-13.16642 30.01945,-13.16642 18.16966,0 30.28276,12.90309 12.37644,12.63977 12.37644,31.07276 v 7.89985 h -25.0162 v -7.89985 q 0,-3.6866 -0.52666,-6.31988 -0.52665,-2.63329 -4.21325,-7.63653 -3.6866,-5.00324 -12.37644,-5.00324 -7.63652,0 -12.63976,5.5299 -4.73991,5.26657 -4.73991,13.42975 v 7.89985 q 0,5.00324 0.26332,7.3732 0.52666,2.10663 2.89662,5.00324 2.36995,2.89661 6.84654,5.00324 4.47658,2.10663 17.11634,6.84654 12.9031,4.476582 22.64625,15.009719 9.74315,10.269809 9.74315,28.176142 v 14.219735 q 0,8.689834 -1.8433,15.273054 -1.57997,6.58321 -10.53314,18.43299 Q 461.24212,-1.3 439.38586,-1.3 416.73961,-1.3 406.4698,-16.0464 396.2,-31.05612 396.2,-46.592494 v -6.319882 h 25.27953 z" />
    </g>
    <g
       transform="matrix(0.9,0,0,0.9,744.74021,-7.2299422)"
       aria-label="S0S"
       style="font-style:normal;font-variant:normal;font-weight:bold;font-stretch:normal;font-size:263.32843018px;line-height:0;font-family:'DIN 1451 Engschrift';-inkscape-font-specification:'DIN 1451 Engschrift Bold';letter-spacing:0px;word-spacing:0px;fill:#000000;fill-opacity:1;stroke:none;stroke-width:1.37150216"
       id="g874">
      <path
         d="m 421.47953,-46.592494 q 0,5.003241 0.26332,7.636525 0.52666,2.369959 3.94993,7.636529 3.6866,5.00324 13.16642,5.00324 5.26657,0 9.74315,-2.10663 4.47659,-2.36996 6.58321,-5.79323 2.10663,-3.6866 2.10663,-7.373193 0.26333,-3.949927 0.26333,-5.266569 v -12.376436 q 0,-5.266569 -0.52666,-7.899853 -0.26333,-2.633284 -3.15994,-5.529897 -2.63328,-3.159941 -7.89985,-5.529897 -5.00324,-2.633284 -17.90633,-7.373196 -12.63977,-4.739912 -21.32961,-14.746389 -8.68983,-10.26981 -8.68983,-27.91282 v -7.89985 q 0,-17.90633 11.84977,-30.80943 12.11311,-13.16642 30.01945,-13.16642 18.16966,0 30.28276,12.90309 12.37644,12.63977 12.37644,31.07276 v 7.89985 h -25.0162 v -7.89985 q 0,-3.6866 -0.52666,-6.31988 -0.52665,-2.63329 -4.21325,-7.63653 -3.6866,-5.00324 -12.37644,-5.00324 -7.63652,0 -12.63976,5.5299 -4.73991,5.26657 -4.73991,13.42975 v 7.89985 q 0,5.00324 0.26332,7.3732 0.52666,2.10663 2.89662,5.00324 2.36995,2.89661 6.84654,5.00324 4.47658,2.10663 17.11634,6.84654 12.9031,4.476582 22.64625,15.009719 9.74315,10.269809 9.74315,28.176142 v 14.219735 q 0,8.689834 -1.8433,15.273054 -1.57997,6.58321 -10.53314,18.43299 Q 461.24212,-1.3 439.38586,-1.3 416.73961,-1.3 406.4698,-16.0464 396.2,-31.05612 396.2,-46.592494 v -6.319882 h 25.27953 z"
         style="fill:#000000;fill-opacity:1;stroke:none;stroke-width:1.37150216"
         id="path872"
         inkscape:connector-curvature="0" />
    </g>
    <g
       aria-label="Every"
       style="font-style:normal;font-variant:normal;font-weight:bold;font-stretch:normal;font-size:292.77127075px;line-height:0;font-family:'DIN 1451 Mittelschrift';-inkscape-font-specification:'DIN 1451 Mittelschrift Bold';letter-spacing:0px;word-spacing:0px;fill:#ffffff;fill-opacity:1;stroke:none;stroke-width:1.52485049"
       id="text864"
       transform="translate(2504.0476,618.27843)">
      <g
         aria-label="Last"
         style="font-style:normal;font-variant:normal;font-weight:bold;font-stretch:normal;font-size:291.97555542px;line-height:0;font-family:'DIN 1451 Mittelschrift';-inkscape-font-specification:'DIN 1451 Mittelschrift Bold';letter-spacing:0.09789583px;word-spacing:0px;fill:#000000;fill-opacity:1;stroke:none;stroke-width:2.31884933"
         id="text872"
         transform="translate(-1128.6179,194.57217)">
        <path
           d="m -1225.4301,-968.13172 v -207.71888 h 31.5071 v 178.06511 h 101.3646 v 29.65377 z"
           style="font-style:normal;font-variant:normal;font-weight:bold;font-stretch:normal;font-family:'DIN 1451 Mittelschrift';-inkscape-font-specification:'DIN 1451 Mittelschrift Bold';letter-spacing:0.09789583px;fill:#ffffff;stroke:none;stroke-width:2.31884933"
           id="path874"
           inkscape:connector-curvature="0" />
        <path
           d="m -986.96151,-967.56146 v -13.11609 h -0.5703 q -4.1344,7.69858 -12.4033,11.12017 -8.83909,3.70672 -23.09569,3.70672 -24.5214,-0.57027 -37.0672,-13.11609 -13.6863,-12.54583 -13.6863,-32.07735 0,-18.5336 11.8329,-31.0794 11.833,-12.5459 34.9288,-12.831 h 40.06109 v -15.6823 q 0.1425,-19.6741 -29.51119,-19.1038 -10.2648,0 -17.108,2.281 -6.7006,2.9939 -10.1222,9.2668 l -22.8106,-17.9633 q 16.5377,-22.0978 48.6151,-21.5275 26.94499,-0.2852 43.34009,10.5499 16.11,11.2627 16.3951,38.2077 v 101.36454 z m 0,-52.03664 v -10.835 h -34.64359 q -25.3768,0.7128 -25.0917,17.9633 0,7.4134 6.5581,12.83095 6.2729,5.84522 20.6721,5.84522 18.2484,0.28513 25.66189,-4.41956 6.8432,-4.70471 6.8432,-21.38491 z"
           style="font-style:normal;font-variant:normal;font-weight:bold;font-stretch:normal;font-family:'DIN 1451 Mittelschrift';-inkscape-font-specification:'DIN 1451 Mittelschrift Bold';letter-spacing:0.09789583px;fill:#ffffff;stroke:none;stroke-width:2.31884933"
           id="path876"
           inkscape:connector-curvature="0" />
        <path
           d="m -941.38501,-992.79567 20.8146,-20.52953 q 19.389,18.9613 46.6192,18.9613 12.6884,0 20.9572,-4.70468 8.2688,-4.84722 8.2688,-14.25662 0,-12.9735 -18.1059,-14.5417 l -26.2321,-2.4236 q -18.3911,-1.4257 -30.5092,-12.1182 -12.1181,-10.6924 -12.1181,-29.7963 0,-22.5255 15.8248,-34.0733 15.8249,-11.5479 39.3483,-11.5479 19.389,0 33.2179,5.5601 13.8289,5.4175 24.8065,14.5417 l -18.391,21.6701 q -8.8391,-5.9878 -18.2485,-9.8371 -9.4094,-3.8492 -21.3849,-3.8492 -14.2566,0 -19.8167,5.1323 -5.5601,4.9899 -5.5601,12.6884 0,4.8473 4.1344,8.9817 4.1344,4.1344 15.3972,4.9898 l 24.5214,1.7108 q 22.9531,1.5682 32.9327,14.2566 9.9797,12.5459 9.9797,30.0815 0,21.81259 -17.8208,33.64558 -17.8208,11.83299 -43.4827,11.83299 -36.9246,0 -65.1527,-26.37474 z"
           style="font-style:normal;font-variant:normal;font-weight:bold;font-stretch:normal;font-family:'DIN 1451 Mittelschrift';-inkscape-font-specification:'DIN 1451 Mittelschrift Bold';letter-spacing:0.09789583px;fill:#ffffff;stroke:none;stroke-width:2.31884933"
           id="path878"
           inkscape:connector-curvature="0" />
        <path
           d="m -782.89611,-1116.1154 v -44.9083 h 29.7963 v 44.9083 h 21.6701 v 22.8106 h -21.6701 v 86.11 q 0,11.12011 10.5499,11.12011 h 11.1202 v 27.94297 h -15.5397 q -15.5397,0 -25.8045,-9.40937 -10.1222,-9.40937 -10.1222,-26.94501 v -88.8187 h -14.8269 v -22.8106 z"
           style="font-style:normal;font-variant:normal;font-weight:bold;font-stretch:normal;font-family:'DIN 1451 Mittelschrift';-inkscape-font-specification:'DIN 1451 Mittelschrift Bold';letter-spacing:0.09789583px;fill:#ffffff;stroke:none;stroke-width:2.31884933"
           id="path880"
           inkscape:connector-curvature="0" />
      </g>
      <g
         aria-label="1 km"
         transform="translate(-4547.9768,322.49913)"
         style="font-style:normal;font-variant:normal;font-weight:bold;font-stretch:normal;font-size:294.5753479px;line-height:0;font-family:'DIN 1451 Mittelschrift';-inkscape-font-specification:'DIN 1451 Mittelschrift Bold';letter-spacing:0px;word-spacing:0px;fill:#000000;fill-opacity:1;stroke:none;stroke-width:2.33949661"
         id="text898">
        <path
           d="m 2223.847,-763.77756 v -178.2123 l -29.9178,21.863 v -31.9315 l 29.9178,-21.7192 h 30.2055 v 210 z"
           style="font-style:normal;font-variant:normal;font-weight:bold;font-stretch:normal;font-family:'DIN 1451 Mittelschrift';-inkscape-font-specification:'DIN 1451 Mittelschrift Bold';fill:#ffffff;fill-opacity:1;stroke:none;stroke-width:2.33949661"
           id="path900"
           inkscape:connector-curvature="0" />
        <path
           d="m 2324.6004,-764.20906 v -209.5685 h 30.0616 v 130.4589 h 0.5754 l 57.3904,-70.1918 h 35.9589 l -51.4932,58.3973 58.5411,90.9041 h -37.6849 l -39.6986,-69.7603 -23.5891,26.8973 v 42.863 z"
           style="font-style:normal;font-variant:normal;font-weight:bold;font-stretch:normal;font-family:'DIN 1451 Mittelschrift';-inkscape-font-specification:'DIN 1451 Mittelschrift Bold';fill:#ffffff;fill-opacity:1;stroke:none;stroke-width:2.33949661"
           id="path902"
           inkscape:connector-curvature="0" />
        <path
           d="m 2479.3675,-764.20906 v -149.3014 h 30.0617 v 15.9658 h 0.5753 q 14.2397,-17.6918 38.8356,-17.6918 15.6781,0 24.8836,5.6096 9.2055,5.6096 17.2603,13.8082 17.6917,-19.4178 47.178,-19.4178 17.4041,0 33.5137,13.2329 16.2535,13.2328 16.2535,38.5479 v 99.2466 h -30.0617 v -88.8904 q 0,-15.1028 -8.4863,-23.5891 -8.4863,-8.4863 -21,-8.4863 -12.9452,0 -21.4315,8.4863 -8.3425,8.4863 -8.3425,23.5891 v 88.8904 h -29.9178 v -88.8904 q 0,-15.1028 -8.4863,-23.5891 -8.4863,-8.4863 -21,-8.4863 -12.9452,0 -21.4315,8.4863 -8.3424,8.4863 -8.3424,23.5891 v 88.8904 z"
           style="font-style:normal;font-variant:normal;font-weight:bold;font-stretch:normal;font-family:'DIN 1451 Mittelschrift';-inkscape-font-specification:'DIN 1451 Mittelschrift Bold';fill:#ffffff;fill-opacity:1;stroke:none;stroke-width:2.33949661"
           id="path904"
           inkscape:connector-curvature="0" />
      </g>
    </g>
  </g>
</svg>
