<?xml version="1.0" encoding="UTF-8" standalone="no"?>
<!-- Created with Inkscape (http://www.inkscape.org/) -->

<svg
   xmlns:dc="http://purl.org/dc/elements/1.1/"
   xmlns:cc="http://creativecommons.org/ns#"
   xmlns:rdf="http://www.w3.org/1999/02/22-rdf-syntax-ns#"
   xmlns:svg="http://www.w3.org/2000/svg"
   xmlns="http://www.w3.org/2000/svg"
   xmlns:sodipodi="http://sodipodi.sourceforge.net/DTD/sodipodi-0.dtd"
   xmlns:inkscape="http://www.inkscape.org/namespaces/inkscape"
   width="978mm"
   height="602mm"
   viewBox="0 0 978 602.00001"
   version="1.1"
   id="svg8781"
   inkscape:version="0.92.2 (5c3e80d, 2017-08-06)"
   sodipodi:docname="22.svg">
  <defs
     id="defs8775">
    <pattern
       y="0"
       x="0"
       height="6"
       width="6"
       patternUnits="userSpaceOnUse"
       id="EMFhbasepattern" />
    <pattern
       y="0"
       x="0"
       height="6"
       width="6"
       patternUnits="userSpaceOnUse"
       id="EMFhbasepattern-3" />
    <pattern
       y="0"
       x="0"
       height="6"
       width="6"
       patternUnits="userSpaceOnUse"
       id="EMFhbasepattern-2" />
    <pattern
       y="0"
       x="0"
       height="6"
       width="6"
       patternUnits="userSpaceOnUse"
       id="EMFhbasepattern-33" />
    <pattern
       y="0"
       x="0"
       height="6"
       width="6"
       patternUnits="userSpaceOnUse"
       id="EMFhbasepattern-1" />
    <pattern
       y="0"
       x="0"
       height="6"
       width="6"
       patternUnits="userSpaceOnUse"
       id="EMFhbasepattern-4" />
    <pattern
       y="0"
       x="0"
       height="6"
       width="6"
       patternUnits="userSpaceOnUse"
       id="EMFhbasepattern-7" />
    <pattern
       y="0"
       x="0"
       height="6"
       width="6"
       patternUnits="userSpaceOnUse"
       id="EMFhbasepattern-71" />
  </defs>
  <sodipodi:namedview
     id="base"
     pagecolor="#ffffff"
     bordercolor="#666666"
     borderopacity="1.0"
     inkscape:pageopacity="0.0"
     inkscape:pageshadow="2"
     inkscape:zoom="0.18958994"
     inkscape:cx="1154.1053"
     inkscape:cy="633.13979"
     inkscape:document-units="mm"
     inkscape:current-layer="layer1"
     showgrid="false"
     showguides="true"
     inkscape:window-width="1920"
     inkscape:window-height="1057"
     inkscape:window-x="-8"
     inkscape:window-y="-8"
     inkscape:window-maximized="1"
     inkscape:snap-global="false"
     fit-margin-top="0"
     fit-margin-left="0"
     fit-margin-right="0"
     fit-margin-bottom="0" />
  <metadata
     id="metadata8778">
    <rdf:RDF>
      <cc:Work
         rdf:about="">
        <dc:format>image/svg+xml</dc:format>
        <dc:type
           rdf:resource="http://purl.org/dc/dcmitype/StillImage" />
        <dc:title></dc:title>
      </cc:Work>
    </rdf:RDF>
  </metadata>
  <g
     inkscape:label="Layer 1"
     inkscape:groupmode="layer"
     id="layer1"
     transform="translate(-84.340927,375.44855)">
    <path
       d="m 223.27441,214.58796 -93.87853,-6.56338 C 125.09475,199.36591 87.007499,79.86934 87.007499,78.30273 V -34.481989 c 0,-39.20962 -6.118714,-187.777961 5.09199,-222.093481 24.669091,-75.14032 -4.99487,-111.21812 153.937631,-106.91102 34.21346,0.9714 78.5096,3.3719 113.60409,0 17.8178,-1.7206 38.81567,-10.9621 56.33793,-10.9621 h 56.3865 c 12.18193,0 125.98858,14.8322 130.44234,20.2175 14.29364,-17.3784 105.08922,-6.8548 130.39377,-9.2554 17.86637,-1.7206 38.81567,-10.9621 56.3865,-10.9621 h 56.3865 c 17.8178,0 39.10842,9.1999 57.21898,10.9621 58.78542,5.6337 96.57158,0.5551 135.43587,57.22496 7.2008,33.04171 22.7113,79.74163 22.7113,112.73616 0,17.86683 -9.1572,39.11248 -10.9193,57.22353 -8.8104,91.637591 16.4941,193.84874 -11.7934,282.7458 -12.3762,52.18236 -36.2697,72.05706 -135.43586,79.1061 h -57.21898 c -17.57083,0 -38.52014,-9.19983 -56.3865,-10.9621 -61.57422,-5.96671 -130.5894,0 -192.70195,0 l -6.70146,-3.33025 c -1.85919,4.20445 -55.2127,14.29374 -61.42853,14.29374 h -56.3865 c -17.57222,0 -38.52152,-9.19984 -56.3865,-10.9621 -61.52566,-5.96671 -130.58941,0 -192.70335,0"
       style="fill:#782d00;fill-opacity:1;fill-rule:nonzero;stroke:none;stroke-width:48.9491539"
       id="path7430"
       inkscape:connector-curvature="0" />
    <path
       d="m 994.34093,160.46371 v 17.08219 h -855 v -15.37008 l 0.83244,-4.30109 c 1.85909,-2.40027 4.93909,-4.74505 7.68611,-5.966 H 259.01127 V -96.050884 h -85.50458 v -11.945886 l 393.26279,-227.45178 393.31412,227.45178 v 11.945886 H 874.57764 V 151.90873 h 109.43837 l 4.31476,0.83247 c 2.34469,1.85917 4.74486,4.93929 5.96577,7.72806 v 17.08219 -17.08219"
       style="fill:#ffffff;fill-opacity:1;fill-rule:evenodd;stroke:none;stroke-width:48.94488525"
       id="path7432"
       inkscape:connector-curvature="0" />
    <path
       d="M 558.30088,49.307333 H 335.99731 l -4.25928,-0.832462 c -1.9146,-2.150534 -3.03838,-4.30107 -4.3009,-6.853967 V -70.367929 l 0.83243,-4.259445 c 2.15045,-1.914673 4.3009,-2.983006 6.85369,-4.259455 h 223.13462 l 4.25927,0.832471 c 1.91459,2.150535 2.98288,5.189036 4.25928,7.686429 V 40.788443 l -0.83244,4.259445 c -2.15044,1.956298 -5.18882,3.038499 -7.68611,4.30107"
       style="fill:#782d00;fill-opacity:1;fill-rule:nonzero;stroke:none;stroke-width:48.94488525"
       id="path7434"
       inkscape:connector-curvature="0" />
    <path
       d="m 772.03874,143.33156 h -94.0703 l -4.25927,-0.83246 c -1.9146,-2.15054 -2.98288,-4.30107 -4.25927,-6.85398 V -70.417873 l 0.83243,-4.259455 c 2.15044,-1.914663 4.30089,-2.982996 6.85368,-4.259446 h 94.90134 l 4.25927,0.832462 c 1.95622,2.150535 3.03838,5.189036 4.25928,7.686439 V 134.81267 l -0.83244,4.25945 c -2.15044,1.91466 -5.13332,2.983 -7.68611,4.25944"
       style="fill:#782d00;fill-opacity:1;fill-rule:nonzero;stroke:none;stroke-width:48.94488525"
       id="path7436"
       inkscape:connector-curvature="0" />
  </g>
</svg>
