<?xml version="1.0" encoding="UTF-8" standalone="no"?>
<!-- Created with Inkscape (http://www.inkscape.org/) -->

<svg
   xmlns:dc="http://purl.org/dc/elements/1.1/"
   xmlns:cc="http://creativecommons.org/ns#"
   xmlns:rdf="http://www.w3.org/1999/02/22-rdf-syntax-ns#"
   xmlns:svg="http://www.w3.org/2000/svg"
   xmlns="http://www.w3.org/2000/svg"
   xmlns:sodipodi="http://sodipodi.sourceforge.net/DTD/sodipodi-0.dtd"
   xmlns:inkscape="http://www.inkscape.org/namespaces/inkscape"
   width="978mm"
   height="602mm"
   viewBox="0 0 978 602.00001"
   version="1.1"
   id="svg8781"
   inkscape:version="0.92.2 (5c3e80d, 2017-08-06)"
   sodipodi:docname="22.svg">
  <defs
     id="defs8775">
    <pattern
       y="0"
       x="0"
       height="6"
       width="6"
       patternUnits="userSpaceOnUse"
       id="EMFhbasepattern" />
    <pattern
       y="0"
       x="0"
       height="6"
       width="6"
       patternUnits="userSpaceOnUse"
       id="EMFhbasepattern-3" />
  </defs>
  <sodipodi:namedview
     id="base"
     pagecolor="#ffffff"
     bordercolor="#666666"
     borderopacity="1.0"
     inkscape:pageopacity="0.0"
     inkscape:pageshadow="2"
     inkscape:zoom="0.18958994"
     inkscape:cx="1522.634"
     inkscape:cy="886.14281"
     inkscape:document-units="mm"
     inkscape:current-layer="layer1"
     showgrid="false"
     showguides="true"
     inkscape:window-width="1920"
     inkscape:window-height="1057"
     inkscape:window-x="-8"
     inkscape:window-y="-8"
     inkscape:window-maximized="1"
     inkscape:snap-global="true"
     fit-margin-top="0"
     fit-margin-left="0"
     fit-margin-right="0"
     fit-margin-bottom="0" />
  <metadata
     id="metadata8778">
    <rdf:RDF>
      <cc:Work
         rdf:about="">
        <dc:format>image/svg+xml</dc:format>
        <dc:type
           rdf:resource="http://purl.org/dc/dcmitype/StillImage" />
        <dc:title></dc:title>
      </cc:Work>
    </rdf:RDF>
  </metadata>
  <g
     inkscape:label="Layer 1"
     inkscape:groupmode="layer"
     id="layer1"
     transform="translate(-84.340927,375.44855)">
    <path
       d="m 223.30195,214.60415 -90.8552,-45.4375 c -4.3649,-8.6365 -45.427597,-89.2918 -45.427597,-90.875 v -112.7546 c 0,-39.2477 -6.1462,-187.843 5.0856,-222.102 24.656897,-75.1852 -4.9904,-111.2177 153.936797,-106.9484 34.2026,0.952 78.4785,3.3593 113.5445,0 17.8934,-1.7273 38.8558,-10.9351 56.4133,-10.9351 h 56.3643 c 12.1428,0 125.9702,14.7786 130.4316,20.1999 14.343,-17.3696 105.1016,-6.814 130.3827,-9.2621 17.8444,-1.7273 38.8558,-10.9351 56.4119,-10.9351 h 56.3657 c 17.8444,0 39.0951,9.167 57.2278,10.9351 58.763,5.6579 96.5635,0.544 135.46695,57.1926 7.1524,33.1071 22.6907,79.7918 22.6907,112.8022 0,17.8497 -9.2058,39.105 -10.9327,57.2416 -8.825,91.5944 16.501,193.8411 -11.7485,282.7494 -12.4284,52.1549 -36.2654,72.0189 -135.46695,79.0722 h -57.2278 c -17.5575,0 -38.5199,-9.1669 -56.3657,-10.935 -61.5926,-5.9435 -130.622,0 -192.696,0 l -6.7173,-3.3594 c -1.8221,4.2163 -55.2126,14.2985 -61.4486,14.2985 h -56.3656 c -17.5562,0 -38.5199,-9.1669 -56.3644,-10.935 -61.5451,-5.9436 -130.622,0 -192.696,0"
       style="fill:#782d00;fill-opacity:1;fill-rule:nonzero;stroke:none;stroke-width:47.97531128"
       id="path6315"
       inkscape:connector-curvature="0" />
    <path
       d="m 258.69096,35.957621 c -1.56784,1.248035 -3.7184,2.74567 -5.092,4.257174 l -3.42703,5.130801 c -0.27749,0.554678 -0.97123,6.559096 -0.83248,7.682322 v 48.674622 h -39.3041 V 53.027918 c 0.41624,-2.246452 -2.8443,-11.052009 -4.25951,-12.813123 -1.24873,-1.414434 -3.7184,-3.078478 -5.13362,-4.257174 -17.76787,-10.469591 -29.12288,-29.6462919 -29.12288,-50.437112 0,-29.40085 25.1589,-58.116667 55.60265,-58.116667 25.99136,0 48.50713,12.965663 57.02339,38.45185 0.55498,1.802713 3.67678,12.327785 3.67678,13.700619 v 11.1074796 c 0,15.9484504 -15.71165,37.5213744 -29.07432,45.3007654"
       style="fill:#ffffff;fill-opacity:1;fill-rule:nonzero;stroke:none;stroke-width:48.93320084"
       id="path6956"
       inkscape:connector-curvature="0" />
    <path
       d="M 922.21253,111.978 C 877.96489,109.13526 843.26163,101.31426 805.91526,76.070746 740.52267,33.46156 661.76741,8.6104826 583.59905,8.6104826 490.74716,8.6104826 432.7456,34.342112 352.7666,76.070746 322.07727,97.840577 274.1584,112.56595 236.46932,111.978 h -84.62839 v 55.57345 H 1006.8409 L 978.64764,111.978 h -56.43511"
       style="fill:#ffffff;fill-opacity:1;fill-rule:nonzero;stroke:none;stroke-width:48.93320084"
       id="path6958"
       inkscape:connector-curvature="0" />
    <path
       d="M 874.29366,-93.973553 943.60167,97.449521 H 922.21253 C 870.62243,94.371042 842.87038,82.577151 799.94361,55.573903 L 746.93415,-92.260974 855.49768,-155.46544 c 1.24872,-0.27735 3.08017,-0.83203 4.30114,-0.83203 h 4.25952 c 2.20607,1.95525 4.39826,4.35424 5.96609,6.8503 v 29.88897 l 0.27751,4.29879 0.55497,8.51433 c 0.69373,3.86891 2.34482,9.055171 3.37155,12.813137"
       style="fill:#ffffff;fill-opacity:1;fill-rule:nonzero;stroke:none;stroke-width:48.93320084"
       id="path6960"
       inkscape:connector-curvature="0" />
    <path
       d="m 695.63818,-17.022698 v -9.443445 l 0.83249,-4.257165 2.53906,-3.425157 c 1.24872,-0.554678 4.64801,-2.107782 6.0216,-1.719514 h 9.39313 l 5.13362,0.832027 3.42703,2.537661 c 0.55499,1.109366 2.10896,4.645453 1.70659,5.962818 V 5.9480124 l -0.83248,4.2987746 c -0.97123,0.970696 -2.30319,2.63473 -3.37154,3.369687 l -4.30114,1.705644 -4.30113,-0.832027 C 674.09919,3.9234299 635.9689,-5.2246395 596.46917,-6.0067426 l 43.61078,-25.6831044 c 1.24873,-0.277339 3.08017,-0.832017 4.30115,-0.832017 5.34173,1.109356 6.02159,2.246452 9.39313,4.257174 l 9.39313,16.242438 2.53907,3.4251469 c 0.83247,0.277349 4.39826,2.0107226 5.13361,1.7195137 h 14.53785 l 4.25952,-0.832017 c 2.20607,-1.7056437 4.89775,-6.8919146 6.0216,-9.3879756"
       style="fill:#ffffff;fill-opacity:1;fill-rule:nonzero;stroke:none;stroke-width:48.93320084"
       id="path6962"
       inkscape:connector-curvature="0" />
    <path
       d="M 557.11929,-5.9179969 878.60035,-191.3727 h 19.67703 L 577.6274,-5.9179969 h -20.50811"
       style="fill:#ffffff;fill-opacity:1;fill-rule:nonzero;stroke:none;stroke-width:48.93320084"
       id="path6964"
       inkscape:connector-curvature="0" />
    <path
       d="m 826.42336,-166.57015 c 0.41624,-3.23102 2.84431,-8.86103 5.13362,-11.10748 3.17729,-3.17555 10.91935,-5.92122 15.41889,-5.14466 h 5.09199 c 2.20609,-1.24804 4.80064,-3.81344 6.0216,-6.01829 0.2775,-1.51151 0.83248,-3.6193 0.83248,-5.0892 0,-3.42515 -1.85919,-7.87646 -4.2595,-10.27546 -0.97123,-0.83202 -4.74514,-2.74567 -5.9661,-3.13394 l -3.42704,-1.10937 c -1.91471,0 -6.65984,0.83203 -8.56066,1.71951 l -71.80545,41.87423 14.53786,24.75402 46.98787,-26.46521"
       style="fill:#ffffff;fill-opacity:1;fill-rule:nonzero;stroke:none;stroke-width:48.93320084"
       id="path6966"
       inkscape:connector-curvature="0" />
    <path
       d="m 559.6639,-69.171 c -1.38747,1.386695 -2.40031,4.104635 -2.53905,5.962818 l 1.70657,2.53766 3.42704,0.832017 c 2.8443,-0.277339 26.72534,-14.773911 30.78783,-17.073065 l 1.72046,-2.59313 v -2.537671 l -1.72046,-2.59313 c -1.4152,-0.693348 -3.62128,-1.109356 -5.13362,-0.832017 l -28.24183,16.242437"
       style="fill:#ffffff;fill-opacity:1;fill-rule:nonzero;stroke:none;stroke-width:48.93320084"
       id="path6968"
       inkscape:connector-curvature="0" />
    <path
       d="m 756.33144,-159.77115 14.53785,24.80254 -224.86081,129.88264 c -28.83013,2.0107126 -57.46323,8.7500878 -85.50944,15.409031 l 295.8324,-170.094211"
       style="fill:#ffffff;fill-opacity:1;fill-rule:nonzero;stroke:none;stroke-width:48.93320084"
       id="path6970"
       inkscape:connector-curvature="0" />
  </g>
</svg>
