<?xml version="1.0" encoding="UTF-8" standalone="no"?>
<!-- Created with Inkscape (http://www.inkscape.org/) -->

<svg
   xmlns:dc="http://purl.org/dc/elements/1.1/"
   xmlns:cc="http://creativecommons.org/ns#"
   xmlns:rdf="http://www.w3.org/1999/02/22-rdf-syntax-ns#"
   xmlns:svg="http://www.w3.org/2000/svg"
   xmlns="http://www.w3.org/2000/svg"
   xmlns:sodipodi="http://sodipodi.sourceforge.net/DTD/sodipodi-0.dtd"
   xmlns:inkscape="http://www.inkscape.org/namespaces/inkscape"
   width="602mm"
   height="602mm"
   viewBox="0 0 602 601.99999"
   version="1.1"
   id="svg8781"
   inkscape:version="0.92.2 (5c3e80d, 2017-08-06)"
   sodipodi:docname="11.svg">
  <defs
     id="defs8775">
    <pattern
       y="0"
       x="0"
       height="6"
       width="6"
       patternUnits="userSpaceOnUse"
       id="EMFhbasepattern" />
    <pattern
       y="0"
       x="0"
       height="6"
       width="6"
       patternUnits="userSpaceOnUse"
       id="EMFhbasepattern-2" />
    <pattern
       y="0"
       x="0"
       height="6"
       width="6"
       patternUnits="userSpaceOnUse"
       id="EMFhbasepattern-6" />
    <pattern
       y="0"
       x="0"
       height="6"
       width="6"
       patternUnits="userSpaceOnUse"
       id="EMFhbasepattern-8" />
    <pattern
       y="0"
       x="0"
       height="6"
       width="6"
       patternUnits="userSpaceOnUse"
       id="EMFhbasepattern-0" />
    <pattern
       y="0"
       x="0"
       height="6"
       width="6"
       patternUnits="userSpaceOnUse"
       id="EMFhbasepattern-7" />
    <pattern
       y="0"
       x="0"
       height="6"
       width="6"
       patternUnits="userSpaceOnUse"
       id="EMFhbasepattern-5" />
    <pattern
       y="0"
       x="0"
       height="6"
       width="6"
       patternUnits="userSpaceOnUse"
       id="EMFhbasepattern-82" />
    <pattern
       y="0"
       x="0"
       height="6"
       width="6"
       patternUnits="userSpaceOnUse"
       id="EMFhbasepattern-84" />
    <pattern
       y="0"
       x="0"
       height="6"
       width="6"
       patternUnits="userSpaceOnUse"
       id="EMFhbasepattern-86" />
    <pattern
       y="0"
       x="0"
       height="6"
       width="6"
       patternUnits="userSpaceOnUse"
       id="EMFhbasepattern-23" />
    <pattern
       y="0"
       x="0"
       height="6"
       width="6"
       patternUnits="userSpaceOnUse"
       id="EMFhbasepattern-06" />
  </defs>
  <sodipodi:namedview
     id="base"
     pagecolor="#ffffff"
     bordercolor="#666666"
     borderopacity="1.0"
     inkscape:pageopacity="0.0"
     inkscape:pageshadow="2"
     inkscape:zoom="0.2414452"
     inkscape:cx="1043.6795"
     inkscape:cy="795.44964"
     inkscape:document-units="mm"
     inkscape:current-layer="layer1"
     showgrid="false"
     showguides="true"
     inkscape:window-width="1920"
     inkscape:window-height="1057"
     inkscape:window-x="-8"
     inkscape:window-y="-8"
     inkscape:window-maximized="1"
     inkscape:snap-global="false"
     inkscape:measure-start="0,0"
     inkscape:measure-end="0,0"
     fit-margin-top="0"
     fit-margin-left="0"
     fit-margin-right="0"
     fit-margin-bottom="0" />
  <metadata
     id="metadata8778">
    <rdf:RDF>
      <cc:Work
         rdf:about="">
        <dc:format>image/svg+xml</dc:format>
        <dc:type
           rdf:resource="http://purl.org/dc/dcmitype/StillImage" />
        <dc:title></dc:title>
      </cc:Work>
    </rdf:RDF>
  </metadata>
  <g
     inkscape:label="Layer 1"
     inkscape:groupmode="layer"
     id="layer1"
     transform="translate(-179.2,397.3)">
    <path
       d="m 197.40882,154.5619 c -1.3527,-9.4252 -16.1876,-104.27777 -16.1876,-105.83387 V -62.10594 c 0,-38.57928 -4.35,-74.09289 6.5912,-107.76699 11.4584,-35.1367 -21.8479,-121.77655 0,-151.8196 84.9634,-116.72832 153.6449,-53.7184 258.4906,-63.85886 38.7849,-3.77009 70.8804,-10.74876 110.7885,-10.74876 17.124,0 37.5687,9.05088 54.9725,10.74876 77.5711,-17.92128 118.64894,-11.36374 158.64994,44.4282 6.0873,32.82516 -3.5542,90.45936 -3.5542,122.67086 0,17.3572 -9.6415,38.5806 -11.4584,56.2666 -9.363,90.59969 43.1825,193.13276 17.2168,281.84753 -9.8272,98.0049 -123.98164,73.8109 -215.82134,73.8109 -17.1239,0 -54.5521,10.2273 -72.05,10.2273 -53.897,0 -92.8688,-20.9881 -145.1293,-20.9881 -10.0526,0 -34.2466,10.468 -44.0711,8.6364 -46.1771,0 -92.028,7.6872 -98.4376,-36.7878"
       style="fill:#782d00;fill-opacity:1;fill-rule:nonzero;stroke:none;stroke-width:46.97400665"
       id="path6282"
       inkscape:connector-curvature="0" />
    <path
       style="fill:#ffffff;fill-opacity:1;fill-rule:nonzero;stroke:none;stroke-width:47.69868469"
       d="m 270.96925,-92.130098 -26.67147,26.6715 c -9.58235,9.7105 -14.09425,23.6959 -14.09778,35.90531 -0.005,16.4076 11.29559,32.0518904 24.98182,40.0118 24.97513,12.26719 47.9321,29.791 67.97201,50.28771 20.49666,20.03989 38.02055,42.996878 50.28776,67.971988 7.95985,13.68631 23.60416,24.98658 40.01175,24.98179 12.20937,0 26.19481,-4.5154 35.90531,-14.09768 l 26.67148,-26.67151 -6.77392,-4.22849 -25.84163,25.8 c -4.21935,3.6545 -13.03452,10.3533 -25.8091,10.8376 -22.56722,1.76458 -32.87513,-13.10421 -37.48096,-20.833 C 364.25019,98.065412 347.73125,75.379612 328.34408,55.556022 308.52043,36.168812 285.83464,19.649902 259.39313,3.7755024 251.66432,-0.83027762 236.79549,-11.138188 238.56015,-33.705398 c 0.48428,-12.77458 7.18305,-21.58979 10.83764,-25.8091 l 25.79997,-25.8417 z"
       id="path955"
       inkscape:connector-curvature="0" />
    <path
       inkscape:connector-curvature="0"
       id="path969"
       d="m 270.96925,-100.47 -26.67147,-26.6714 c -9.58235,-9.7106 -14.09425,-23.696 -14.09778,-35.9053 -0.005,-16.4077 11.29559,-32.052 24.98182,-40.0118 24.97513,-12.2672 47.9321,-29.7911 67.97201,-50.2878 20.49666,-20.0399 38.02055,-42.9969 50.28776,-67.972 7.95985,-13.6862 23.60416,-24.98654 40.01175,-24.98178 12.20937,0.004 26.19481,4.51538 35.90531,14.09778 l 26.67148,26.6715 -6.77392,4.2285 -25.84163,-25.8 c -4.21935,-3.6546 -13.03452,-10.35337 -25.8091,-10.83765 -22.56722,-1.76464 -32.87513,13.10415 -37.48096,20.83295 -15.87433,26.4415 -32.39327,49.1273 -51.78044,68.951 -19.82365,19.3871 -42.50944,35.9061 -68.95095,51.7804 -7.72881,4.6058 -22.59764,14.9137 -20.83298,37.481 0.48428,12.7746 7.18305,21.5897 10.83764,25.8091 l 25.79997,25.8416 z"
       style="fill:#ffffff;fill-opacity:1;fill-rule:nonzero;stroke:none;stroke-width:47.69868469" />
    <path
       inkscape:connector-curvature="0"
       id="path971"
       d="m 689.43089,-92.130098 26.67145,26.6715 c 9.58237,9.7105 14.09428,23.6959 14.0978,35.90531 0.005,16.4076 -11.29559,32.0518904 -24.98183,40.0118 -24.97513,12.26719 -47.9321,29.791 -67.97201,50.28771 -20.49666,20.03989 -38.02055,42.996878 -50.28774,67.971988 -7.95986,13.68631 -23.60417,24.98658 -40.01178,24.98179 -12.20935,0 -26.1948,-4.5154 -35.9053,-14.09768 l -26.67147,-26.67151 6.77391,-4.22849 25.84163,25.8 c 4.21937,3.6545 13.03452,10.3533 25.8091,10.8376 22.56721,1.76458 32.87514,-13.10421 37.48096,-20.833 15.87433,-26.441508 32.39328,-49.127308 51.78044,-68.950898 19.82366,-19.38721 42.50944,-35.90612 68.95097,-51.7805196 7.72879,-4.60578002 22.59764,-14.9136904 20.83297,-37.4809004 -0.48429,-12.77458 -7.18306,-21.58979 -10.83765,-25.8091 l -25.79997,-25.8417 z"
       style="fill:#ffffff;fill-opacity:1;fill-rule:nonzero;stroke:none;stroke-width:47.69868469" />
    <path
       style="fill:#ffffff;fill-opacity:1;fill-rule:nonzero;stroke:none;stroke-width:47.69868469"
       d="m 689.43089,-100.47 26.67145,-26.6714 c 9.58237,-9.7106 14.09428,-23.696 14.0978,-35.9053 0.005,-16.4077 -11.29559,-32.052 -24.98183,-40.0118 -24.97513,-12.2672 -47.9321,-29.7911 -67.97201,-50.2878 -20.49666,-20.0399 -38.02055,-42.9969 -50.28774,-67.972 -7.95986,-13.6862 -23.60417,-24.98654 -40.01178,-24.98178 -12.20935,0.004 -26.1948,4.51538 -35.9053,14.09778 l -26.67147,26.6715 6.77391,4.2285 25.84163,-25.8 c 4.21937,-3.6546 13.03452,-10.35337 25.8091,-10.83765 22.56721,-1.76464 32.87514,13.10415 37.48096,20.83295 15.87433,26.4415 32.39328,49.1273 51.78044,68.951 19.82366,19.3871 42.50944,35.9061 68.95097,51.7804 7.72879,4.6058 22.59764,14.9137 20.83297,37.481 -0.48429,12.7746 -7.18306,21.5897 -10.83765,25.8091 l -25.79997,25.8416 z"
       id="path973"
       inkscape:connector-curvature="0" />
    <path
       style="opacity:1;fill:#ffffff;fill-opacity:1;fill-rule:nonzero;stroke:none;stroke-width:0.62217534;stroke-linecap:butt;stroke-linejoin:miter;stroke-miterlimit:4;stroke-dasharray:none;stroke-opacity:1;paint-order:stroke fill markers"
       d="m 495.70014,-285.57392 v 55.2545 a 135,135 0 0 1 118.4392,118.51937 h 55.285 a 190,190 0 0 0 -173.7242,-173.77387 z m -31.00021,0.0496 a 190,190 0 0 0 -173.7739,173.72427 h 55.2545 a 135,135 0 0 1 118.5194,-118.43875 z m -173.7243,204.724432 a 190,190 0 0 0 173.7243,173.77392 v -55.25346 a 135,135 0 0 1 -118.4393,-118.52046 z m 323.2444,0 A 135,135 0 0 1 495.70014,37.639952 v 55.2845 a 190,190 0 0 0 173.77389,-173.72434 z"
       id="path984"
       inkscape:connector-curvature="0" />
    <rect
       style="opacity:1;fill:#ffffff;fill-opacity:1;fill-rule:nonzero;stroke:none;stroke-width:0.18592919;stroke-linecap:butt;stroke-linejoin:miter;stroke-miterlimit:4;stroke-dasharray:none;stroke-opacity:1;paint-order:stroke fill markers"
       id="rect1021"
       width="15.8"
       height="80"
       x="472.30011"
       y="24.974014"
       rx="7.9000001"
       ry="7.9000001" />
    <rect
       ry="7.9000001"
       rx="7.9000001"
       y="-297.57391"
       x="472.30011"
       height="80"
       width="15.8"
       id="rect1050"
       style="opacity:1;fill:#ffffff;fill-opacity:1;fill-rule:nonzero;stroke:none;stroke-width:0.18592919;stroke-linecap:butt;stroke-linejoin:miter;stroke-miterlimit:4;stroke-dasharray:none;stroke-opacity:1;paint-order:stroke fill markers" />
    <rect
       style="opacity:1;fill:#ffffff;fill-opacity:1;fill-rule:nonzero;stroke:none;stroke-width:0.18592919;stroke-linecap:butt;stroke-linejoin:miter;stroke-miterlimit:4;stroke-dasharray:none;stroke-opacity:1;paint-order:stroke fill markers"
       id="rect1061"
       width="80"
       height="15.8"
       x="278.92599"
       y="-104.2"
       rx="7.9000001"
       ry="7.9000001" />
    <rect
       ry="7.9000001"
       rx="7.9000001"
       y="-104.2"
       x="601.47406"
       height="15.8"
       width="80"
       id="rect1065"
       style="opacity:1;fill:#ffffff;fill-opacity:1;fill-rule:nonzero;stroke:none;stroke-width:0.18592919;stroke-linecap:butt;stroke-linejoin:miter;stroke-miterlimit:4;stroke-dasharray:none;stroke-opacity:1;paint-order:stroke fill markers" />
  </g>
</svg>
