<?xml version="1.0" encoding="UTF-8" standalone="no"?>
<!-- Created with Inkscape (http://www.inkscape.org/) -->

<svg
   xmlns:dc="http://purl.org/dc/elements/1.1/"
   xmlns:cc="http://creativecommons.org/ns#"
   xmlns:rdf="http://www.w3.org/1999/02/22-rdf-syntax-ns#"
   xmlns:svg="http://www.w3.org/2000/svg"
   xmlns="http://www.w3.org/2000/svg"
   xmlns:sodipodi="http://sodipodi.sourceforge.net/DTD/sodipodi-0.dtd"
   xmlns:inkscape="http://www.inkscape.org/namespaces/inkscape"
   width="978mm"
   height="602mm"
   viewBox="0 0 978 602.00001"
   version="1.1"
   id="svg8781"
   inkscape:version="0.92.2 (5c3e80d, 2017-08-06)"
   sodipodi:docname="22.svg">
  <defs
     id="defs8775">
    <pattern
       y="0"
       x="0"
       height="6"
       width="6"
       patternUnits="userSpaceOnUse"
       id="EMFhbasepattern" />
    <pattern
       y="0"
       x="0"
       height="6"
       width="6"
       patternUnits="userSpaceOnUse"
       id="EMFhbasepattern-3" />
  </defs>
  <sodipodi:namedview
     id="base"
     pagecolor="#ffffff"
     bordercolor="#666666"
     borderopacity="1.0"
     inkscape:pageopacity="0.0"
     inkscape:pageshadow="2"
     inkscape:zoom="0.18958994"
     inkscape:cx="2379.747"
     inkscape:cy="886.14281"
     inkscape:document-units="mm"
     inkscape:current-layer="layer1"
     showgrid="false"
     showguides="true"
     inkscape:window-width="1920"
     inkscape:window-height="1057"
     inkscape:window-x="-8"
     inkscape:window-y="-8"
     inkscape:window-maximized="1"
     inkscape:snap-global="true"
     fit-margin-top="0"
     fit-margin-left="0"
     fit-margin-right="0"
     fit-margin-bottom="0" />
  <metadata
     id="metadata8778">
    <rdf:RDF>
      <cc:Work
         rdf:about="">
        <dc:format>image/svg+xml</dc:format>
        <dc:type
           rdf:resource="http://purl.org/dc/dcmitype/StillImage" />
        <dc:title></dc:title>
      </cc:Work>
    </rdf:RDF>
  </metadata>
  <g
     inkscape:label="Layer 1"
     inkscape:groupmode="layer"
     id="layer1"
     transform="translate(-84.340927,375.44855)">
    <path
       d="m 223.30195,214.60415 -90.8552,-45.4375 c -4.3649,-8.6365 -45.427597,-89.2918 -45.427597,-90.875 v -112.7546 c 0,-39.2477 -6.1462,-187.843 5.0856,-222.102 24.656897,-75.1852 -4.9904,-111.2177 153.936797,-106.9484 34.2026,0.952 78.4785,3.3593 113.5445,0 17.8934,-1.7273 38.8558,-10.9351 56.4133,-10.9351 h 56.3643 c 12.1428,0 125.9702,14.7786 130.4316,20.1999 14.343,-17.3696 105.1016,-6.814 130.3827,-9.2621 17.8444,-1.7273 38.8558,-10.9351 56.4119,-10.9351 h 56.3657 c 17.8444,0 39.0951,9.167 57.2278,10.9351 58.763,5.6579 96.5635,0.544 135.46695,57.1926 7.1524,33.1071 22.6907,79.7918 22.6907,112.8022 0,17.8497 -9.2058,39.105 -10.9327,57.2416 -8.825,91.5944 16.501,193.8411 -11.7485,282.7494 -12.4284,52.1549 -36.2654,72.0189 -135.46695,79.0722 h -57.2278 c -17.5575,0 -38.5199,-9.1669 -56.3657,-10.935 -61.5926,-5.9435 -130.622,0 -192.696,0 l -6.7173,-3.3594 c -1.8221,4.2163 -55.2126,14.2985 -61.4486,14.2985 h -56.3656 c -17.5562,0 -38.5199,-9.1669 -56.3644,-10.935 -61.5451,-5.9436 -130.622,0 -192.696,0"
       style="fill:#782d00;fill-opacity:1;fill-rule:nonzero;stroke:none;stroke-width:47.97531128"
       id="path6315"
       inkscape:connector-curvature="0" />
    <path
       style="fill:#ffffff;fill-opacity:1;fill-rule:nonzero;stroke:none;stroke-width:48.92128372"
       d="m 448.34083,-345.44824 -204.9999,204.99988 136.6,307.99981 h 136.7999 l 136.6,-307.99981 z"
       id="path883"
       inkscape:connector-curvature="0"
       sodipodi:nodetypes="cccccc" />
    <path
       style="fill:#ffffff;fill-opacity:1;fill-rule:nonzero;stroke:none;stroke-width:48.93356323"
       d="m 653.94103,-208.44834 51.1999,68.39997 c -31.2763,40.01633 -51.1999,90.678447 -51.1999,141.7996 0,60.36781 23.3681,124.2183 68.3999,165.80022 h 102.6005 c 45.0318,-41.58192 68.3999,-105.43241 68.3999,-165.80022 0,-51.121153 -19.9236,-101.78327 -51.1999,-141.7996 l 51.1999,-68.39997 z"
       id="path885"
       inkscape:connector-curvature="0"
       sodipodi:nodetypes="ccsccsccc" />
    <path
       style="fill:#782d00;fill-opacity:1;fill-rule:nonzero;stroke:none;stroke-width:48.92128372"
       d="m 448.34083,-140.24837 -52.9999,118.000037 52.9999,34.199963 52.9999,-34.199963 z"
       id="path887"
       inkscape:connector-curvature="0" />
    <path
       style="fill:#782d00;fill-opacity:1;fill-rule:nonzero;stroke:none;stroke-width:48.92128372"
       d="m 397.14083,-276.24833 -17.9999,17.99993 69.1999,69.19991 69.1999,-69.19991 -17.9999,-17.99993 -51.2,51.39996 z"
       id="path897"
       inkscape:connector-curvature="0" />
    <path
       style="fill:#782d00;fill-opacity:1;fill-rule:nonzero;stroke:none;stroke-width:48.92128372"
       d="m 377.44073,16.15139 -12.7997,30.00023 83.6998,52.99988 83.7003,-52.99988 -12.8002,-30.00023 -70.8996,44.50012 z"
       id="path899"
       inkscape:connector-curvature="0"
       sodipodi:nodetypes="ccccccc" />
    <path
       style="fill:#782d00;fill-opacity:1;fill-rule:nonzero;stroke:none;stroke-width:48.92128372"
       d="m 379.14093,133.35146 9.3999,21.40024 h 119.6 l 9.3999,-21.40024 z"
       id="path901"
       inkscape:connector-curvature="0"
       sodipodi:nodetypes="ccccc" />
    <path
       inkscape:connector-curvature="0"
       id="path903"
       style="fill:#782d00;fill-opacity:1;fill-rule:nonzero;stroke:none;stroke-width:48.66470337"
       d="m 876.25233,-11.051263 -30.7871,-30.38539 -29.9047,30.38539 -30.7871,-30.38539 -29.9547,30.38539 -29.9061,-30.38539 -30.7871,30.38539 -29.9048,-30.38539 c 1.5124,-7.63955 4.5092,-15.33811 6.854,-22.83777 l 23.0535,22.83777 30.7858,-29.61184 29.9061,29.61184 29.9547,-29.61184 30.7871,29.61184 29.9047,-29.61184 30.7871,29.61184 5.1335,-5.89771 5.1335,25.35453 -10.2808,10.93134" />
    <path
       d="m 303.34093,-150.44843 h 85.4 l -42.7,-34.2"
       style="fill:#782d00;fill-opacity:1;fill-rule:nonzero;stroke:none;stroke-width:48.91485596"
       id="path947"
       inkscape:connector-curvature="0"
       sodipodi:nodetypes="ccc" />
    <path
       style="fill:#782d00;fill-opacity:1;fill-rule:nonzero;stroke:none;stroke-width:48.939785"
       d="m 346.04123,-140.24861 c -16.5649,0.0102 -34.8335,9.80768 -42.7003,24.40006 7.8668,14.59238 26.1354,24.389867 42.7003,24.400057 16.5649,-0.0102 34.8334,-9.807677 42.7002,-24.400057 -7.8668,-14.59238 -26.1353,-24.38988 -42.7002,-24.40006 z"
       id="path949"
       inkscape:connector-curvature="0" />
    <path
       sodipodi:nodetypes="ccc"
       inkscape:connector-curvature="0"
       id="path976"
       style="fill:#782d00;fill-opacity:1;fill-rule:nonzero;stroke:none;stroke-width:48.91485596"
       d="m 593.34073,-150.44843 h -85.4 l 42.7,-34.2" />
    <path
       inkscape:connector-curvature="0"
       id="path978"
       d="m 550.64053,-140.24861 c 16.5649,0.0102 34.8334,9.80768 42.7002,24.40006 -7.8668,14.59238 -26.1353,24.389867 -42.7002,24.400057 -16.5649,-0.0102 -34.8335,-9.807677 -42.7003,-24.400057 7.8668,-14.59238 26.1354,-24.38988 42.7003,-24.40006 z"
       style="fill:#782d00;fill-opacity:1;fill-rule:nonzero;stroke:none;stroke-width:48.939785" />
  </g>
</svg>
