<?xml version="1.0" encoding="UTF-8" standalone="no"?>
<!-- Created with Inkscape (http://www.inkscape.org/) -->

<svg
   xmlns:dc="http://purl.org/dc/elements/1.1/"
   xmlns:cc="http://creativecommons.org/ns#"
   xmlns:rdf="http://www.w3.org/1999/02/22-rdf-syntax-ns#"
   xmlns:svg="http://www.w3.org/2000/svg"
   xmlns="http://www.w3.org/2000/svg"
   xmlns:sodipodi="http://sodipodi.sourceforge.net/DTD/sodipodi-0.dtd"
   xmlns:inkscape="http://www.inkscape.org/namespaces/inkscape"
   width="978mm"
   height="602mm"
   viewBox="0 0 978 602"
   version="1.1"
   id="svg8781"
   inkscape:version="0.92.2 (5c3e80d, 2017-08-06)"
   sodipodi:docname="11.svg">
  <defs
     id="defs8775" />
  <sodipodi:namedview
     id="base"
     pagecolor="#ffffff"
     bordercolor="#666666"
     borderopacity="1.0"
     inkscape:pageopacity="0.0"
     inkscape:pageshadow="2"
     inkscape:zoom="0.24748737"
     inkscape:cx="1669.7601"
     inkscape:cy="901.88415"
     inkscape:document-units="mm"
     inkscape:current-layer="layer1"
     showgrid="false"
     showguides="false"
     inkscape:window-width="1920"
     inkscape:window-height="1057"
     inkscape:window-x="-8"
     inkscape:window-y="-8"
     inkscape:window-maximized="1" />
  <metadata
     id="metadata8778">
    <rdf:RDF>
      <cc:Work
         rdf:about="">
        <dc:format>image/svg+xml</dc:format>
        <dc:type
           rdf:resource="http://purl.org/dc/dcmitype/StillImage" />
        <dc:title></dc:title>
      </cc:Work>
    </rdf:RDF>
  </metadata>
  <g
     inkscape:label="Layer 1"
     inkscape:groupmode="layer"
     id="layer1"
     transform="translate(0,305)">
    <path
       d="M 138.95428,285.05841 48.10353,239.62064 C 43.738838,230.93651 2.6781501,150.32863 2.6781501,148.74523 V 35.990708 c 0,-39.24831 -6.1459113,-187.844398 5.0853375,-222.102698 24.6557254,-75.18563 -4.9901532,-111.21925 153.9279524,-106.94886 34.20093,0.91125 78.52358,3.35804 113.58792,0 C 293.12427,-294.78816 314.08565,-304 331.64229,-304 h 56.36157 c 12.18305,0 125.96269,14.77811 130.42392,20.15194 14.34228,-17.32106 105.09785,-6.81266 130.42527,-9.21184 17.84355,-1.72731 38.80492,-10.93915 56.36156,-10.93915 h 56.36157 c 17.84492,0 39.09455,9.16424 57.22636,10.93915 58.7601,5.61306 96.55884,0.53043 135.4603,57.19296 7.1521,33.10659 22.73716,79.79183 22.73716,112.80253 0,17.84891 -9.20528,39.056268 -10.93211,57.192968 -8.82456,91.64317 16.45392,193.889962 -11.80233,282.798282 -12.4278,52.15495 -36.26362,72.01896 -135.4603,79.07207 H 761.5789 c -17.55528,0 -38.51801,-9.16423 -56.36157,-10.93914 -61.54208,-5.949 -130.61562,0 -192.68664,0 l -6.717,-3.35805 C 503.99167,285.92342 450.60244,296 444.36679,296 h -56.36157 c -17.55664,0 -38.51802,-9.16424 -56.36157,-10.93914 -61.54345,-5.94901 -130.617,0 -192.68665,0"
       style="fill:#782d00;fill-opacity:1;fill-rule:nonzero;stroke:none;stroke-width:47.97421265"
       id="path6267"
       inkscape:connector-curvature="0" />
    <path
       d="m 103.62937,206.08223 -0.81605,-3.40701 v -0.85685 h -2.58416 l -1.672897,-3.40701 -1.7273,-3.40701 -1.72731,-3.45461 -0.81605,-3.407 -0.81605,-2.59096 v -2.54335 l -0.81605,-1.72731 2.54336,-1.6797 3.45461,-0.85685 5.086697,-0.85686 h 0.95206 l 1.6729,0.85686 1.72731,2.54335 1.6729,3.40701 0.81605,2.59096 0.81605,2.59095 v 2.54336 l -0.81605,0.85685 -3.40021,0.81605 -1.7273,-0.81605 h -1.72731 l -0.81605,0.81605 v 1.77491 l 0.81605,2.54335 0.95206,3.40701 0.81605,2.59095 2.59776,3.40701 1.6729,-0.87045 1.72731,-2.54336 1.7273,-1.7273 2.54335,-0.85685 1.72731,-1.72731 5.12751,-1.6797 0.81605,-2.54335 v -3.45461 l -0.81605,-11.13092 1.6865,-6.81265 3.45461,5.13431 1.6729,10.26862 3.45461,8.53996 -1.7273,8.53996 v 2.54335 l 12.81198,0.85685 v -2.54335 l -2.54336,-5.13431 c -0.81605,-5.27848 -2.01292,-10.93914 -1.7273,-16.2655 2.63856,-12.1877 2.01292,-10.6032 0,-23.0787 v -5.99796 l 0.81605,-2.54335 7.68446,-7.72527 v -2.54336 l 4.27066,1.72731 h 5.18192 c 1.48249,1.10166 3.07378,4.12649 5.0867,4.27066 -0.68004,3.16627 2.58416,7.10099 2.58416,10.21966 0,18.37662 -5.46753,16.9371 -10.26862,31.66721 l 3.41381,1.6797 c 6.52839,-5.18192 17.12888,-21.73562 17.12888,-29.8923 v -15.40185 c 0,-3.02346 -3.83544,-18.56853 -5.99797,-20.53575 l 0.81605,-5.13431 c -1.36008,-2.06325 -1.44169,-4.75077 -2.58416,-6.81266 -4.32506,-7.82047 -14.01021,-6.95682 -20.48692,-12.81061 h -3.45461 l -1.6729,5.08535 -3.41381,1.7273 -10.26862,-4.27066 h -1.72731 l -12.85278,-0.87045 0.81605,4.27066 1.72731,3.45461 0.81605,1.6797 0.81605,4.27066 -1.72731,1.7273 -8.54132,4.27066 -27.396137,4.27066 -3.4138,2.59096 -5.12752,4.27066 -5.99796,9.40497 c -10.70385,19.24027 4.51547,20.53575 -5.12751,47.02104 8.44611,-11.75519 2.92418,-6.66984 7.72527,-19.67209 v 7.6763 l -0.81605,6.86162 -0.81605,11.13091 0.81605,10.21966 0.81605,1.72731 h 13.67563 v -2.54336 l -2.54336,-3.407 -0.81605,-1.72731 -0.81605,-3.407 2.54336,-7.72527 v -2.542 l 1.7273,-1.7273 c 5.71235,8.78069 5.23632,14.3943 9.39817,23.07869 l 11.125477,-3.407 0.81605,-0.85685"
       style="fill:#ffffff;fill-opacity:1;fill-rule:nonzero;stroke:none;stroke-width:47.98068619"
       id="path6269"
       inkscape:connector-curvature="0" />
    <path
       d="m 564.62798,11.136698 c 0.40803,-10.26862 -9.45257,-43.42254 -15.40157,-50.47565 4.74668,-31.42743 -17.56139,-39.39221 -17.12888,-51.29144 -13.00239,-9.739548 -30.75555,-3.07106 -51.29143,-24.805998 l -9.39817,1.6797 -5.99797,16.265498 -10.26862,1.72731 -31.6192,-11.994568 -2.58415,-0.81605 -41.02281,-0.85685 4.27066,12.810618 5.14111,10.26862 -5.14111,-10.26862 5.99796,11.99456 3.40021,16.21736 v 3.407 l -1.72731,2.59096 -2.54335,0.81605 -25.6702,12.85822 -82.09459,10.26726 -11.99592,10.26727 c -83.63148,78.35272 -13.72324,96.05759 -47.88579,180.407602 18.71338,-30.56364 14.97043,-23.99036 23.12684,-59.831942 l -0.81605,23.078842 -2.58415,20.53561 -0.81605,34.21029 2.54335,33.34664 2.54336,2.54336 c 6.52839,-0.28562 13.1928,-0.85686 19.67223,-0.85686 7.09963,0 14.34615,0.57124 21.39818,0.85686 l 1.7273,-3.40701 -1.7273,-4.27066 -6.86842,-11.13092 -4.27066,-5.99796 -1.6729,-8.53996 7.67087,-22.21504 v -8.58892 l 4.27066,-5.08671 c 9.45257,15.49787 24.18227,48.94039 25.66884,67.55693 l 4.27066,1.6797 32.48285,-10.21966 2.58415,-3.45461 -1.7273,-9.40361 -2.58416,-2.59096 h -4.27066 l -2.54335,-0.81604 C 327.5996,160.50681 321.12833,140.06708 318.3456,117.99594 l 6.86842,-3.40701 10.26862,-4.27066 15.40158,-2.59096 5.94356,3.45461 5.99796,6.81266 5.14111,11.13227 2.58416,6.86162 2.54335,6.81265 1.72731,10.26726 -2.58416,1.72731 -7.68447,0.85685 -9.39817,-0.85685 -4.27065,-0.85685 -3.45461,1.7273 c 2.16253,11.08332 5.46753,19.00036 7.72526,31.6192 l 2.54336,8.58892 1.7273,0.81605 1.72731,1.72731 h 1.6729 l 5.14111,-0.85686 1.72731,-1.6797 3.4138,-6.86161 5.12751,-4.31827 6.85482,-3.407 6.81401,-4.27066 13.67427,-8.53996 3.45461,-6.81265 0.81605,-4.31827 -0.81605,-5.13431 -0.81605,-35.0738 2.54336,-18.808452 11.12547,16.265502 5.99797,29.9399 8.54132,26.4853 -4.27066,25.66965 -0.81605,7.72527 37.61716,1.6797 v -7.67766 l -6.81401,-13.72242 -0.81605,-3.40701 c -2.29854,-8.92486 -3.41381,-19.00035 -3.41381,-28.2126 0,-5.949 1.08807,-11.94696 0.81605,-17.94479 7.05883,-29.2683 2.73376,-41.887142 0.81605,-70.147752 l -0.81605,-11.08331 v -6.86162 l 1.7273,-8.53996 21.39954,-22.26305 3.41381,-6.81266 c 7.57566,0.19041 15.59334,4.46243 23.07788,5.949 l 4.27066,-2.54335 c 1.08806,6.81265 9.60218,9.64434 9.39817,17.94479 l 5.18191,-4.22169 c -1.22407,5.47025 6.81401,23.89433 6.81401,30.75554 0,59.736052 -11.46549,47.932712 -29.93949,95.769532 l 11.12547,5.99797 c 5.61714,-13.4349 18.52025,-22.9348 27.34854,-34.21029 21.78308,-27.828792 25.33426,-64.006302 23.94289,-98.312482 6.5284,-0.38082 19.09556,-2.15845 24.80519,-5.18192 2.25774,-1.15607 4.80109,-3.55117 6.86842,-5.13431 1.97212,-1.48793 5.18191,-3.31044 6.81401,-5.08535 2.88337,-3.07106 5.61714,-8.20537 7.72527,-11.99456 -6.66441,4.02992 -14.24959,9.06767 -21.39954,11.99456 -3.60422,1.43897 -8.1605,2.30262 -11.94152,3.40701 l -2.59776,0.81605 h -7.67087 c -1.22407,-0.62564 -4.08025,-2.73513 -4.27066,-4.2217"
       style="fill:#ffffff;fill-opacity:1;fill-rule:nonzero;stroke:none;stroke-width:47.98068619"
       id="path6271"
       inkscape:connector-curvature="0" />
    <path
       d="m 197.71988,244.56277 h 487.4835 c 49.32475,-39.29619 95.52947,-84.97388 131.70631,-136.84103 14.39511,-10.603212 23.94289,-46.925032 23.94289,-64.102192 0,-22.11902 -6.09317,-39.96793 -17.12888,-59.01616 -1.91771,-3.69398 -13.00239,-15.20993 -16.21762,-17.94479 -2.58416,-2.15845 -5.80755,-4.07889 -8.59572,-5.99796 -98.45638,-53.88239 -187.17184,-84.973878 -298.43883,-100.903438 1.36008,1.87148 4.08025,4.84598 5.12751,6.81266 2.78817,5.27848 4.9915,15.44972 4.27066,21.3994 16.457,6.86162 34.40193,9.98028 51.29143,15.401848 25.7178,8.15641 51.4356,18.28059 76.14558,29.07625 23.17445,8.8759 46.15712,20.77567 67.55666,33.3465 10.45904,6.09317 23.55799,14.97002 30.75555,24.80614 2.63856,3.35804 5.14111,7.6763 5.14111,11.94696 0,3.11867 -0.95206,7.5335 -2.54336,10.26727 -9.49337,13.96233 -22.26319,28.0687 -36.80111,36.75323 -50.09184,32.24294 -103.06297,61.751152 -157.3289,86.413122 -9.8334,9.11663 -19.96058,21.97526 -25.6702,34.21029 l -23.07788,-12.85822 -28.21355,11.13092 2.54335,12.81061 7.72527,14.58607 v 19.62409 l -54.74604,-2.54335 0.81605,-17.08114 1.6865,-11.17988 c -75.37849,25.18995 -149.17249,45.58167 -227.47653,59.87994"
       style="fill:#ffffff;fill-opacity:1;fill-rule:nonzero;stroke:none;stroke-width:47.98068619"
       id="path6273"
       inkscape:connector-curvature="0" />
    <path
       d="m 796.37516,-80.362442 c -2.10812,-5.70963 -3.45461,-12.76302 -3.45461,-18.85646 0,-8.252978 3.40021,-21.927248 7.72527,-29.076248 3.45461,-5.99797 14.68209,-20.24796 21.39954,-22.21518 3.83543,-1.00646 8.44611,-3.88576 11.08467,-6.81266 2.97858,-3.26283 5.71235,-9.45257 6.86842,-13.72241 h -11.99593 c -1.48249,1.7273 -4.17545,3.79055 -5.94356,5.13431 l -1.7273,2.59096 -19.67224,14.53819 -3.4002,2.54335 c -2.25774,3.11867 -6.75961,4.75077 -10.26863,5.99797 l -5.14111,-0.85685 -15.40157,-23.94235 -8.54132,4.27066 c 3.79463,5.99796 8.92214,12.47467 11.94152,18.80844 4.61068,9.64435 6.09317,22.07115 7.72527,32.53086 0.0966,0.72085 0,1.77491 0,2.54336 -1.22407,-1.00646 -4.21625,-3.26284 -5.14111,-4.27066 l -3.40021,-5.13431 -2.58415,4.27066 c 12.37675,17.464948 12.81198,33.490528 12.81198,53.882388 l 17.12887,10.26726 2.54336,-3.45461 10.26862,9.45257 2.58416,-4.31826 c -3.54982,-1.43897 -8.01089,-4.55763 -10.26862,-7.6763 -2.29854,-3.16628 -4.36587,-9.73955 -5.14112,-13.67455 v -12.81061"
       style="fill:#ffffff;fill-opacity:1;fill-rule:nonzero;stroke:none;stroke-width:47.98068619"
       id="path6275"
       inkscape:connector-curvature="0" />
    <path
       d="m 780.97223,-163.32109 2.58416,0.81605 4.27066,-0.81605 2.54335,-1.7273 c 14.39375,-5.42129 29.45939,-10.36383 44.47742,-13.67454 2.69296,-0.28562 5.95716,0.0479 8.54132,0.85685 3.07378,2.59096 5.84835,6.3339 6.85481,10.26862 l -0.81605,2.54336 c 0.0476,3.07106 1.6321,7.82047 3.41381,10.26726 l 2.88338,2.83033 5.65794,3.16627 c 1.78171,0.76165 3.45461,1.67971 5.18191,2.54336 h 11.94153 c 5.12751,0.72084 10.36383,1.39136 15.40157,2.59096 2.88338,0.47602 8.54132,-0.34002 11.13908,-1.72731 5.46753,-3.02346 11.08467,-11.65863 11.08467,-17.94479 0,-2.83033 -1.22407,-6.90922 -2.54335,-9.40497 l -4.27066,-4.27066 c -1.36009,-1.39137 -2.44815,-4.12649 -2.58416,-5.99797 0.40803,-1.43896 0.95206,-3.02346 1.72731,-4.31826 4.31146,-2.83033 7.67086,-10.21966 7.67086,-15.35383 0,-3.11867 -0.95206,-7.19756 -1.6729,-10.26863 l -3.45461,-3.407 -1.6865,-8.58892 c 0.27201,-2.35159 0,-5.47026 -0.81605,-7.67631 -1.08807,-1.00646 -2.29854,-2.59096 -3.41381,-3.40701 l -2.58416,-0.85685 c -2.54335,-0.91125 -9.45257,-2.59096 -11.12547,-3.40701 l -4.27066,-3.45461 c -1.22407,-1.43896 -2.63856,-4.12649 -3.41381,-5.949 l -1.7273,-2.59095 c -0.95206,-0.76165 -5.61714,-2.54336 -6.81402,-2.54336 -0.95205,0 -4.27065,1.06087 -5.14111,1.6797 -7.91568,1.15607 -16.64877,-3.16627 -22.26319,-8.54131 -2.88337,-4.31827 -10.21422,-7.67631 -15.35261,-7.67631 -2.54335,0 -7.34445,0.91126 -9.45257,2.54335 -4.27066,0.91126 -8.48692,0.85686 -12.81198,0.85686 -2.10813,-0.53044 -10.55424,-2.30262 -11.95513,-3.40701 -2.44815,-0.28562 -5.37232,0.14961 -7.72527,0.81605 l -4.27065,4.31826 c -4.99151,3.64638 -16.02586,9.40497 -22.21423,9.40497 h -8.58212 l -2.54336,-0.85685 c -0.81605,-0.24482 -2.58415,-0.57123 -3.4138,-0.85685 l -3.45461,-1.72731 h -3.40021 l -4.27066,3.45461 -3.40021,0.85685 c -6.28358,0.81605 -15.06563,3.59878 -20.53588,6.81266 l -8.58212,3.407 c -1.5369,2.39919 -3.41381,6.52568 -3.41381,9.40498 v 4.27065 l 1.7273,2.59096 v 5.13431 c -1.22407,4.6066 -4.55627,8.58892 -8.54131,11.13092 h -6.85482 c -3.60422,0.28562 -7.72527,1.39136 -11.13908,2.54335 l -4.27065,1.72731 -6.81402,8.53996 -0.81605,4.27066 v 4.27065 c 0,1.43897 3.16899,8.30059 4.27066,9.40361 0.27202,0.34003 4.9915,2.97451 5.99797,3.45461 7.57565,4.07889 17.12887,5.13432 25.62123,5.95037 1.87691,-0.24482 4.17545,-0.85686 5.99796,-0.85686 2.06733,0 13.86605,5.56546 16.26523,6.86162 2.25774,2.06325 6.37879,3.40701 9.39817,3.40701 h 5.12751 l 6.86842,-3.40701 c 9.79259,-2.59096 19.57567,-5.80619 29.07584,-9.40497 l 7.67087,-1.72731 h 2.54335 l 1.72731,2.59096 c -2.06733,0.85685 -4.21626,2.01564 -5.99797,3.40701 l -0.81605,2.59096 1.72731,4.27065"
       style="fill:#ffffff;fill-opacity:1;fill-rule:nonzero;stroke:none;stroke-width:47.98068619"
       id="path6277"
       inkscape:connector-curvature="0" />
  </g>
</svg>
