<?xml version="1.0" encoding="UTF-8" standalone="no"?>
<!-- Created with Inkscape (http://www.inkscape.org/) -->

<svg
   xmlns:dc="http://purl.org/dc/elements/1.1/"
   xmlns:cc="http://creativecommons.org/ns#"
   xmlns:rdf="http://www.w3.org/1999/02/22-rdf-syntax-ns#"
   xmlns:svg="http://www.w3.org/2000/svg"
   xmlns="http://www.w3.org/2000/svg"
   xmlns:sodipodi="http://sodipodi.sourceforge.net/DTD/sodipodi-0.dtd"
   xmlns:inkscape="http://www.inkscape.org/namespaces/inkscape"
   width="602mm"
   height="602mm"
   viewBox="0 0 602 601.99999"
   version="1.1"
   id="svg8781"
   inkscape:version="0.92.2 (5c3e80d, 2017-08-06)"
   sodipodi:docname="11.svg">
  <defs
     id="defs8775">
    <pattern
       y="0"
       x="0"
       height="6"
       width="6"
       patternUnits="userSpaceOnUse"
       id="EMFhbasepattern" />
    <pattern
       y="0"
       x="0"
       height="6"
       width="6"
       patternUnits="userSpaceOnUse"
       id="EMFhbasepattern-2" />
    <pattern
       y="0"
       x="0"
       height="6"
       width="6"
       patternUnits="userSpaceOnUse"
       id="EMFhbasepattern-6" />
    <pattern
       y="0"
       x="0"
       height="6"
       width="6"
       patternUnits="userSpaceOnUse"
       id="EMFhbasepattern-8" />
    <pattern
       y="0"
       x="0"
       height="6"
       width="6"
       patternUnits="userSpaceOnUse"
       id="EMFhbasepattern-0" />
    <pattern
       y="0"
       x="0"
       height="6"
       width="6"
       patternUnits="userSpaceOnUse"
       id="EMFhbasepattern-7" />
    <pattern
       y="0"
       x="0"
       height="6"
       width="6"
       patternUnits="userSpaceOnUse"
       id="EMFhbasepattern-5" />
    <pattern
       y="0"
       x="0"
       height="6"
       width="6"
       patternUnits="userSpaceOnUse"
       id="EMFhbasepattern-82" />
    <pattern
       y="0"
       x="0"
       height="6"
       width="6"
       patternUnits="userSpaceOnUse"
       id="EMFhbasepattern-84" />
    <pattern
       y="0"
       x="0"
       height="6"
       width="6"
       patternUnits="userSpaceOnUse"
       id="EMFhbasepattern-86" />
  </defs>
  <sodipodi:namedview
     id="base"
     pagecolor="#ffffff"
     bordercolor="#666666"
     borderopacity="1.0"
     inkscape:pageopacity="0.0"
     inkscape:pageshadow="2"
     inkscape:zoom="0.2414452"
     inkscape:cx="739.55833"
     inkscape:cy="990.79751"
     inkscape:document-units="mm"
     inkscape:current-layer="layer1"
     showgrid="false"
     showguides="true"
     inkscape:window-width="1920"
     inkscape:window-height="1057"
     inkscape:window-x="-8"
     inkscape:window-y="-8"
     inkscape:window-maximized="1"
     inkscape:snap-global="false"
     inkscape:measure-start="0,0"
     inkscape:measure-end="0,0"
     fit-margin-top="0"
     fit-margin-left="0"
     fit-margin-right="0"
     fit-margin-bottom="0" />
  <metadata
     id="metadata8778">
    <rdf:RDF>
      <cc:Work
         rdf:about="">
        <dc:format>image/svg+xml</dc:format>
        <dc:type
           rdf:resource="http://purl.org/dc/dcmitype/StillImage" />
        <dc:title></dc:title>
      </cc:Work>
    </rdf:RDF>
  </metadata>
  <g
     inkscape:label="Layer 1"
     inkscape:groupmode="layer"
     id="layer1"
     transform="translate(-179.2,397.3)">
    <path
       d="m 197.40882,154.5619 c -1.3527,-9.4252 -16.1876,-104.277708 -16.1876,-105.833808 v -110.83397 c 0,-38.579282 -4.35,-74.092892 6.5912,-107.766992 11.4584,-35.1367 -21.8479,-121.77655 0,-151.8196 84.9634,-116.72832 153.6449,-53.7184 258.4906,-63.85886 38.7849,-3.77009 70.8804,-10.74876 110.7885,-10.74876 17.124,0 37.5687,9.05088 54.9725,10.74876 77.5711,-17.92128 118.6489,-11.36374 158.6499,44.4282 6.0873,32.82516 -3.5542,90.45936 -3.5542,122.67086 0,17.3572 -9.6415,38.5806 -11.4584,56.2666 -9.363,90.599692 43.1825,193.132762 17.2168,281.84747 -9.8272,98.0049 -123.9816,73.8109 -215.8213,73.8109 -17.1239,0 -54.5521,10.2273 -72.05,10.2273 -53.897,0 -92.8688,-20.9881 -145.1293,-20.9881 -10.0526,0 -34.2466,10.468 -44.0711,8.6364 -46.1771,0 -92.028,7.6872 -98.4376,-36.7878"
       style="fill:#782d00;fill-opacity:1;fill-rule:nonzero;stroke:none;stroke-width:46.97400665"
       id="path6282"
       inkscape:connector-curvature="0" />
    <path
       d="m 559.59035,-43.013366 -2.77405,-1.663276 -2.53048,-4.192002 c -0.40595,-1.081806 -0.54127,-2.96145 -0.8119,-4.15144 l -3.3424,1.676807 -4.1543,-0.811357 c -0.0474,9.357625 -4.1949,21.563111 -10.87967,28.33657 0.27064,2.05543 0.81192,4.530063 0.81192,6.626064 l -0.81192,7.4915124 c -0.6766,2.3394089 -6.49532,10.2501157 -8.30861,11.683514 -2.62519,2.0554293 -9.97302,4.5300628 -13.36954,5.0033488 L 490.9361,-13.050034 468.40273,-29.699033 c -11.46155,-9.060136 -33.84471,-14.978968 -48.3577,-14.978968 -1.47498,0 -3.53184,0.540908 -5.00682,0.811357 -5.00681,0.540898 -14.70379,3.813369 -18.3317,7.491513 -0.94724,1.217031 -5.58869,7.532074 -5.87286,8.343431 l -0.81191,6.680155 c 0,2.772124 3.15293,8.776156 5.00681,10.831586 -37.52269,-3.908022 -65.01957,-33.870006 -65.06693,-71.6521 -14.27348,-11.683514 -23.34394,-32.535341 -23.34394,-50.854381 0,-4.28665 2.2869,-9.11421 1.66443,-13.36031 l 25.8257,-5.8147 c 0.0961,9.06012 5.58868,20.17839 13.36954,24.99648 7.82145,-11.39953 18.85674,-21.84843 30.02735,-30.00525 15.94332,-3.81337 32.74727,-8.30287 49.21698,-8.30287 44.11003,0 92.61117,12.58953 125.07292,44.17557 l 11.69159,1.62272 c 4.24902,1.0818 9.16112,1.90668 13.31542,3.34007 6.72536,2.43406 32.50911,15.31432 32.50911,25.045174 0,2.812695 -0.81192,7.302197 -3.3424,9.154789 4.58733,0.946582 10.59551,3.583481 14.17876,6.626064 5.77813,4.962787 11.12325,16.50566 10.02716,24.186489 l -0.81192,1.676807 -2.47634,3.340072 -3.34238,1.676797 0.81191,0.811357 c 0.27064,1.77146 0.81192,4.056777 0.81192,5.868798 l -1.67796,5.814716 v 0.811358 l -2.47634,3.340072 -4.1949,0.811358 h -0.81192 c -2.81464,-0.04737 -8.6875,-2.677471 -10.83907,-4.15143 -1.38026,-0.946582 -2.9635,-2.96145 -4.1543,-4.15144 -0.40597,1.379306 -2.2869,3.285991 -3.3424,4.15144 -1.21787,0.270449 -3.00408,0.811347 -4.19489,0.811347 -1.08256,0 -2.96349,-0.676123 -4.1543,-0.811347 l -3.34239,-2.474634 -3.34239,-5.003358 -0.81192,-5.003359 -0.8119,3.340082 c -0.81192,0.676133 -1.96214,2.434063 -2.47635,3.340073 h -3.34239 c -1.35319,-1.622705 -3.28825,-3.002011 -5.00681,-4.15143 l -1.66443,-5.003349 -0.81191,2.474624 -2.47635,1.663286 h -4.19489 l -1.38026,-0.811357"
       style="fill:#ffffff;fill-opacity:1;fill-rule:nonzero;stroke:none;stroke-width:47.72114182"
       id="path7130"
       inkscape:connector-curvature="0" />
    <path
       d="m 334.1254,-288.83633 1.08255,-2.24475 2.2463,-4.43541 v -8.34343 l -2.53048,-3.34008 -3.34238,-0.81135 -5.00681,-0.81135 -4.96622,0.81135 c -4.24903,-0.40568 -15.2762,1.21703 -20.05026,1.66328 h -1.66443 l -1.66442,-2.47463 c 2.43574,0.54089 17.61586,-3.48883 20.86217,-4.20553 l 1.66443,-2.47463 -23.34393,3.28599 -0.81192,-2.47463 2.47634,-1.66328 c 5.62928,-1.6768 13.94059,-6.11221 18.33171,-9.96614 h 0.81192 l 4.1543,-5.0034 0.81191,-0.81133 3.28826,-3.28598 c 2.38162,-0.94653 5.96758,-2.81272 8.34921,-3.34004 2.62519,-0.67613 7.21251,-0.67613 10.02715,-0.81143 4.05958,-0.81133 10.36546,2.43408 13.31542,5.00337 2.19218,2.19065 6.59005,7.96483 7.49669,10.83161 l 0.81192,6.68016 c 0,1.77146 -0.54129,4.05677 -0.81192,5.81471 -2.34103,8.54627 -7.30725,17.03034 -12.5035,24.18649 -14.79853,17.98504 -29.98,53.95375 -29.98,77.47223 v 16.649 c 0,5.34142 6.77951,32.86799 6.63065,33.34533 l -19.14226,4.15144 c -3.00409,-12.30555 -4.1949,-25.61718 -4.1949,-38.30677 0,-35.77805 12.59822,-63.68461 27.49688,-94.97992"
       style="fill:#ffffff;fill-opacity:1;fill-rule:nonzero;stroke:none;stroke-width:47.72114182"
       id="path7132"
       inkscape:connector-curvature="0" />
    <path
       d="M 633.53557,131.96749 635.2,129.43876 c -4.4926,-9.3441 -10.69022,-18.84371 -19.19098,-24.99784 C 592.3322,87.791915 577.6284,67.517514 563.49837,43.617702 c -1.66444,-2.379981 -4.9121,-6.058115 -7.53729,-7.491513 h -4.1543 c -1.21787,0.270449 -3.00409,0.811357 -4.1949,0.811357 l -5.81873,-0.811357 -5.00681,-3.340083 -20.81346,-18.319041 c -27.49688,-24.901834 -58.04928,-55.0031 -97.57605,-55.0031 -14.08267,0 -23.34257,8.248779 -23.34257,21.657765 0,2.718042 5.81873,9.641605 7.21252,11.3995443 16.89867,21.8957567 37.33054,30.3392577 63.68125,35.2533687 25.10986,4.868124 40.05181,13.306219 61.67719,20.036409 4.62792,1.379307 15.51435,6.004023 17.51979,10.831585 6.68477,7.058788 15.0854,6.680156 22.53202,11.642943 1.43438,0.946582 32.46174,36.25675 35.85149,40.02549 4.81737,5.39551 7.59141,8.83025 7.49669,16.64765 -6.11643,0.94658 -13.31542,4.00269 -18.33035,7.49151 -5.72401,4.05678 -15.32491,14.07295 -17.51979,20.84641 v 2.47463 L 576.8395,160.3 h 3.34238 l 2.47634,-2.52873 c 2.09745,-1.35225 4.49261,-3.09666 6.68477,-4.15143 2.24631,-1.0818 5.15567,-1.71736 7.4967,-2.52872 l -0.81192,2.52872 0.81192,1.66328 c 4.91209,1.08181 22.1017,-9.45228 25.87304,-11.6835 1.908,-1.96078 2.2869,-2.90736 2.48988,-3.34009 v -2.47463 c 0.81191,-0.94658 1.62383,-2.43406 2.53047,-3.34007 0.27064,-0.27046 5.25039,-2.28532 5.81873,-2.47464"
       style="fill:#ffffff;fill-opacity:1;fill-rule:evenodd;stroke:none;stroke-width:47.72114182"
       id="path7134"
       inkscape:connector-curvature="0" />
    <path
       d="m 430.0776,20.289896 c 3.19354,1.622705 25.15856,10.736932 27.49688,10.020228 3.58596,4.394838 12.93653,24.70982 10.83908,30.005263 -0.94724,2.434062 -1.75916,5.152104 -4.15431,6.626063 l -4.19489,0.811358 c -4.15431,-3.191338 -57.71503,-16.696336 -67.50133,-16.696336 -7.1178,0 -20.28842,11.548289 -25.06249,15.026294 l -2.47634,1.663276 -2.53047,0.811358 -3.28826,-0.811358 -1.66442,-4.15143 c 1.21787,-2.244755 3.62655,-4.678817 5.81872,-5.868808 -12.93652,3.002022 -20.24105,16.409659 -33.36838,19.176376 -0.67659,-0.405673 -2.47635,-3.772797 -2.47635,-4.192001 0,-1.77146 0.0487,-5.395512 1.66444,-6.626064 l 36.66341,-28.33657 c 4.43846,-3.380644 11.97575,-6.680156 17.51978,-6.680156 h 7.49669 c 0.40596,0 6.77949,2.285317 7.53728,2.528726 l 43.34549,9.966146 -11.651,-23.327806"
       style="fill:#ffffff;fill-opacity:1;fill-rule:nonzero;stroke:none;stroke-width:47.72114182"
       id="path7136"
       inkscape:connector-curvature="0" />
  </g>
</svg>
