<?xml version="1.0" encoding="UTF-8" standalone="no"?>
<!-- Created with Inkscape (http://www.inkscape.org/) -->

<svg
   xmlns:dc="http://purl.org/dc/elements/1.1/"
   xmlns:cc="http://creativecommons.org/ns#"
   xmlns:rdf="http://www.w3.org/1999/02/22-rdf-syntax-ns#"
   xmlns:svg="http://www.w3.org/2000/svg"
   xmlns="http://www.w3.org/2000/svg"
   xmlns:sodipodi="http://sodipodi.sourceforge.net/DTD/sodipodi-0.dtd"
   xmlns:inkscape="http://www.inkscape.org/namespaces/inkscape"
   width="602mm"
   height="602mm"
   viewBox="0 0 602 601.99999"
   version="1.1"
   id="svg8781"
   inkscape:version="0.92.2 (5c3e80d, 2017-08-06)"
   sodipodi:docname="11.svg">
  <defs
     id="defs8775">
    <pattern
       y="0"
       x="0"
       height="6"
       width="6"
       patternUnits="userSpaceOnUse"
       id="EMFhbasepattern" />
    <pattern
       y="0"
       x="0"
       height="6"
       width="6"
       patternUnits="userSpaceOnUse"
       id="EMFhbasepattern-2" />
    <pattern
       y="0"
       x="0"
       height="6"
       width="6"
       patternUnits="userSpaceOnUse"
       id="EMFhbasepattern-6" />
    <pattern
       y="0"
       x="0"
       height="6"
       width="6"
       patternUnits="userSpaceOnUse"
       id="EMFhbasepattern-8" />
    <pattern
       y="0"
       x="0"
       height="6"
       width="6"
       patternUnits="userSpaceOnUse"
       id="EMFhbasepattern-0" />
    <pattern
       y="0"
       x="0"
       height="6"
       width="6"
       patternUnits="userSpaceOnUse"
       id="EMFhbasepattern-7" />
    <pattern
       y="0"
       x="0"
       height="6"
       width="6"
       patternUnits="userSpaceOnUse"
       id="EMFhbasepattern-5" />
    <pattern
       y="0"
       x="0"
       height="6"
       width="6"
       patternUnits="userSpaceOnUse"
       id="EMFhbasepattern-82" />
    <pattern
       y="0"
       x="0"
       height="6"
       width="6"
       patternUnits="userSpaceOnUse"
       id="EMFhbasepattern-84" />
    <pattern
       y="0"
       x="0"
       height="6"
       width="6"
       patternUnits="userSpaceOnUse"
       id="EMFhbasepattern-86" />
  </defs>
  <sodipodi:namedview
     id="base"
     pagecolor="#ffffff"
     bordercolor="#666666"
     borderopacity="1.0"
     inkscape:pageopacity="0.0"
     inkscape:pageshadow="2"
     inkscape:zoom="0.2414452"
     inkscape:cx="1412.5889"
     inkscape:cy="990.79751"
     inkscape:document-units="mm"
     inkscape:current-layer="layer1"
     showgrid="false"
     showguides="true"
     inkscape:window-width="1920"
     inkscape:window-height="1057"
     inkscape:window-x="-8"
     inkscape:window-y="-8"
     inkscape:window-maximized="1"
     inkscape:snap-global="false"
     inkscape:measure-start="0,0"
     inkscape:measure-end="0,0"
     fit-margin-top="0"
     fit-margin-left="0"
     fit-margin-right="0"
     fit-margin-bottom="0" />
  <metadata
     id="metadata8778">
    <rdf:RDF>
      <cc:Work
         rdf:about="">
        <dc:format>image/svg+xml</dc:format>
        <dc:type
           rdf:resource="http://purl.org/dc/dcmitype/StillImage" />
        <dc:title></dc:title>
      </cc:Work>
    </rdf:RDF>
  </metadata>
  <g
     inkscape:label="Layer 1"
     inkscape:groupmode="layer"
     id="layer1"
     transform="translate(-179.2,397.3)">
    <path
       d="m 197.40882,154.5619 c -1.3527,-9.4252 -16.1876,-104.277708 -16.1876,-105.833808 v -110.83397 c 0,-38.579282 -4.35,-74.092892 6.5912,-107.766992 11.4584,-35.1367 -21.8479,-121.77655 0,-151.8196 84.9634,-116.72832 153.6449,-53.7184 258.4906,-63.85886 38.7849,-3.77009 70.8804,-10.74876 110.7885,-10.74876 17.124,0 37.5687,9.05088 54.9725,10.74876 77.5711,-17.92128 118.6489,-11.36374 158.6499,44.4282 6.0873,32.82516 -3.5542,90.45936 -3.5542,122.67086 0,17.3572 -9.6415,38.5806 -11.4584,56.2666 -9.363,90.599692 43.1825,193.132762 17.2168,281.84747 -9.8272,98.0049 -123.9816,73.8109 -215.8213,73.8109 -17.1239,0 -54.5521,10.2273 -72.05,10.2273 -53.897,0 -92.8688,-20.9881 -145.1293,-20.9881 -10.0526,0 -34.2466,10.468 -44.0711,8.6364 -46.1771,0 -92.028,7.6872 -98.4376,-36.7878"
       style="fill:#782d00;fill-opacity:1;fill-rule:nonzero;stroke:none;stroke-width:46.97400665"
       id="path6282"
       inkscape:connector-curvature="0" />
    <path
       d="m 643.70341,145.05721 c -3.77048,2.1902 -20.97677,12.73559 -25.8392,11.64049 l -0.81085,-1.67645 0.81085,-2.47411 c -4.81105,1.37902 -9.95998,3.96128 -14.16018,6.67875 l -2.4731,2.47411 h -3.33802 l -1.66225,-2.47411 v -2.52819 c 2.1893,-6.77338 11.77088,-16.78879 17.49686,-20.84201 5.00025,-3.48809 12.25739,-6.58411 18.30635,-7.48993 0.0973,-7.77384 -2.6623,-11.30249 -7.48687,-16.64548 -3.33802,-3.77201 -34.37476,-39.013876 -35.80457,-39.968374 -7.48688,-5.0023 -15.82785,-4.583183 -22.50252,-11.681039 -0.67571,-0.946386 -1.6217,-2.582272 -2.4731,-3.33938 l -6.67602,-5.00229 c -1.86496,-0.946386 -6.14897,-1.811645 -8.33826,-2.47411 -21.59709,-6.678749 -36.56678,-15.167785 -61.59646,-19.984864 -26.31623,-4.961738 -46.72135,-13.357489 -63.59924,-35.2945894 -1.35143,-1.7575945 -7.20309,-8.6796716 -7.20309,-11.3970886 0,-13.398061 9.24373,-21.65322 23.31203,-21.65322 39.47502,0 69.98742,30.0949083 97.4483,54.991466 l 20.83486,18.315169 4.95973,3.33938 5.81111,0.811179 c 1.21629,0 3.00016,-0.675983 4.1894,-0.811179 h 4.14887 c 2.62175,1.43309 5.86517,5.110451 7.48688,7.530481 14.15885,23.847445 28.84339,44.117569 52.48922,60.810379 8.48692,6.11092 14.68454,15.64368 19.16586,24.99257 l -1.67577,2.47411 c -0.54057,0.27039 -5.48677,2.14964 -5.81111,2.47411 -0.946,0.94638 -1.75685,2.33891 -2.52716,3.33937 v 2.52819 c -0.13514,0.40559 -0.54058,1.35198 -2.4731,3.33937"
       style="fill:#ffffff;fill-opacity:1;fill-rule:nonzero;stroke:none;stroke-width:47.68486786"
       id="path7114"
       inkscape:connector-curvature="0" />
    <path
       d="m 569.56847,-134.05082 -55.77993,-16.64549 -51.63242,-25.85099 c -1.5271,-0.27045 -3.5272,-0.81126 -5.00025,-0.81126 l -5.00026,0.81126 -4.14886,2.47404 -2.52717,4.19118 -34.99371,90.810641 c 2.37851,0.270353 5.14892,0.811159 7.52742,0.811159 0.946,0 1.52711,-0.270353 2.4731,-0.540806 6.81117,-1.473654 10.05458,-2.812031 15.017,-7.719748 1.08114,-1.216789 2.5677,-2.622804 3.33801,-4.204659 l 26.65004,-54.132947 59.92743,35.81778 c 3.18936,2.1902 12.78446,4.15061 16.68601,4.15061 l 4.95971,-1.08162 c 13.20339,-2.96079 24.88644,-15.45308 22.50253,-29.71365 v 1.66298"
       style="fill:#ffffff;fill-opacity:1;fill-rule:evenodd;stroke:none;stroke-width:47.68486786"
       id="path7116"
       inkscape:connector-curvature="0" />
    <path
       d="m 483.80184,-272.36567 c 0,-15.59635 -14.01694,-27.4721 -29.17718,-27.4721 -10.4465,0 -24.98238,13.49267 -24.98238,24.13405 v 7.48996 l 1.66225,5.01582 c 3.1488,9.49083 14.15883,17.50401 24.17152,17.50401 3.86507,0 11.67628,-1.47366 14.9697,-3.33945 7.20308,-4.0559 13.35204,-15.07173 13.35204,-23.3229"
       style="fill:#ffffff;fill-opacity:1;fill-rule:nonzero;stroke:none;stroke-width:47.68486786"
       id="path7118"
       inkscape:connector-curvature="0" />
    <path
       d="m 356.3655,-305.70401 2.52715,3.33945 c -0.27028,2.37942 -0.27028,6.05676 -0.81085,8.34158 l -1.66226,4.43454 -0.81084,2.24425 c -14.9224,31.28732 -27.50819,59.23669 -27.50819,94.95986 0,12.68152 1.21628,25.99436 4.20292,38.34597 l 19.11721,-4.19107 c 0.13515,-0.54081 -6.62197,-27.94937 -6.62197,-33.29099 v -16.69285 c 0,-24.46795 14.82781,-58.5688 29.94075,-77.45585 5.24352,-7.24658 10.39243,-16.31149 12.54119,-24.99256 0.27029,-1.52771 0.81086,-3.52868 0.81086,-5.00234 l -0.81086,-6.67869 c -0.94599,-2.81214 -5.33811,-8.63911 -7.52741,-10.82931 -2.95962,-2.52819 -9.24372,-5.81349 -13.298,-5.00233 -2.81095,0.27045 -7.39226,0.27045 -10.01402,0.81126 -2.3785,0.5407 -5.95977,2.37942 -8.29773,3.2853 l -4.20293,4.19107 -4.14885,5.00233 h -0.81086 c -4.39212,3.86657 -12.67634,8.30111 -18.30771,9.964 l -2.4731,1.67646 0.81085,2.52819 23.31337,-3.33935 -1.66225,2.47404 c -4.24346,0.81126 -17.54415,2.5282 -20.7862,4.15061 l 1.66224,2.52819 h 1.62171 c 3.2434,-0.27045 17.83065,-1.21678 20.02401,-2.52819 h 5.00026 l 4.95972,0.81116 3.33801,0.81116"
       style="fill:#ffffff;fill-opacity:1;fill-rule:evenodd;stroke:none;stroke-width:47.68486786"
       id="path7120"
       inkscape:connector-curvature="0" />
    <path
       d="m 476.31631,-245.70342 c 3.67588,-4.39389 11.77089,-7.48996 17.44957,-7.48996 0.67571,0 7.82473,1.96041 9.20318,2.47414 l 6.62196,4.20466 c 23.55122,11.24832 50.63102,40.30228 57.49623,65.81807 2.52716,6.39476 4.95973,15.59636 4.95973,22.46438 0,5.48899 -1.43251,12.05959 -2.47311,17.50391 l -52.44192,-13.30334 c -7.63553,-20.74605 -13.35204,-30.95343 -29.17718,-46.6444 -2.71637,-2.6229 -9.73024,-4.00184 -13.29799,-4.20465 -3.37855,0.94633 -7.58148,3.24473 -10.01404,5.86754 l -57.44893,50.7936 -2.52716,0.81116 -4.14887,0.81125 c -1.81089,-0.94643 -5.00025,-3.96128 -5.81111,-5.81348 l -0.81085,-4.19118 0.81085,-3.33935 1.62171,-1.66288 79.99875,-84.13324"
       style="fill:#ffffff;fill-opacity:1;fill-rule:nonzero;stroke:none;stroke-width:47.68486786"
       id="path7122"
       inkscape:connector-curvature="0" />
    <path
       d="m 567.08996,-50.72873 c -0.0474,9.342166 -4.1894,21.558607 -10.82489,28.283264 0.27029,2.095586 0.81085,4.623776 0.81085,6.678799 l -0.81085,7.4898582 C 553.83251,-0.50291017 542.53463,7.7968381 534.57206,8.4174013 L 512.11818,-11.567503 489.61431,-28.260254 c -11.44654,-9.017663 -33.80041,-14.97582 -48.2944,-14.97582 -1.47306,0 -3.52721,0.540806 -5.00026,0.811159 -5.00026,0.675982 -14.73185,3.866668 -18.3077,7.489958 -0.94601,1.216788 -5.58138,7.530521 -5.86517,8.34168 l -0.81086,6.678699 c 0,2.771568 3.14881,8.774385 5.00026,10.8293077 -37.71142,-3.9071307 -64.93446,-33.5775277 -64.98176,-71.6382597 -14.25479,-11.681129 -23.31336,-32.52719 -23.31336,-50.84236 0,-4.24512 2.2839,-9.05822 1.66224,-13.30334 l 25.83917,-5.81349 c 0,9.05822 5.52732,20.17407 13.298,24.99117 5.71651,-7.96313 12.67633,-15.97761 19.97536,-22.51164 3.62181,4.4885 8.33827,7.48986 14.1602,7.48986 3.43261,0 7.58147,-1.75749 10.01404,-4.15051 l 17.49685,-15.83433 5.00025,-0.81116 -32.51385,86.660034 c 0.67572,0.135277 7.29768,2.528191 7.48688,2.528191 h 8.33827 c 10.96003,0 19.69021,-6.151381 25.84053,-15.023077 l 23.31202,-48.315468 54.97042,32.47983 c 3.58127,2.09559 11.73035,5.015822 15.82785,5.015822 14.15885,0 28.79609,-7.963122 34.13555,-21.654522 l 11.63575,0.81116 c 9.29778,2.24425 45.81455,16.59814 45.81455,29.189038 0,2.960895 -1.35142,6.96274 -3.33802,9.152839 4.58133,0.946436 10.63569,3.62329 14.16019,6.624748 5.77058,4.961668 11.10869,16.502126 10.01404,24.181311 l -0.81085,1.676469 -2.52716,3.339349 -3.33801,1.676469 0.81085,0.811159 c 0.27028,1.811645 0.81085,4.055995 0.81085,5.813489 l -1.66224,5.86764 v 0.811159 l -2.4731,3.33935 -4.14887,0.811159 h -0.81085 c -2.77042,-0.09691 -8.67613,-2.676855 -10.8249,-4.191072 -1.37844,-0.946435 -2.9596,-2.906744 -4.14884,-4.150608 -0.2703,1.351965 -2.24337,2.866182 -3.33802,4.150608 l -4.14886,0.81116 -4.18941,-1.662881 -3.33801,-1.662981 c -1.75685,-3.001359 -3.28396,-6.624649 -4.14887,-10.018149 l -0.81085,3.33945 c -0.81086,0.675982 -1.95956,2.47404 -2.4731,3.339349 h -3.33802 c -1.35141,-1.568267 -3.28395,-3.001358 -5.00025,-4.150608 l -1.66225,-5.002231 v 2.47404 l -3.33801,1.662981 h -4.14887 l -1.37845,-0.811159 -2.77042,-1.662981 -2.52716,-4.191071 c -0.40542,-1.081612 -0.54056,-2.906745 -0.81085,-4.150609 l -3.338,1.662981 -4.14887,-0.811159"
       style="fill:#ffffff;fill-opacity:1;fill-rule:evenodd;stroke:none;stroke-width:47.68486786"
       id="path7124"
       inkscape:connector-curvature="0" />
    <path
       d="m 478.79483,31.734871 c 3.58127,4.393906 12.91958,24.705942 10.82489,30.000275 -0.946,2.433547 -1.75686,5.151015 -4.14887,6.678739 l -4.1894,0.811189 C 477.13258,66.034419 423.64196,52.57958 413.82119,52.57958 c -7.05443,0 -20.21457,11.491772 -24.98239,14.9758 l -2.4731,1.662931 -2.52716,0.811179 -3.28395,-0.811179 -1.66225,-4.150559 c 1.21627,-2.24427 3.62181,-4.623746 5.81112,-5.813479 -12.86554,2.960815 -20.21457,16.406183 -33.32471,19.125009 -0.6757,-0.405599 -2.4731,-3.772004 -2.4731,-4.150558 0,-1.811645 0.096,-5.434936 1.66225,-6.678749 l 36.66272,-28.330581 c 4.39211,-3.379932 11.91953,-6.624668 17.4482,-6.624668 h 7.48687 c 0.40543,0 6.77062,2.24427 7.52742,2.47411 l 43.28873,10.018118 -11.63573,-23.370201 c 3.18935,1.622368 25.12562,10.734664 27.46089,10.018118"
       style="fill:#ffffff;fill-opacity:1;fill-rule:nonzero;stroke:none;stroke-width:47.68486786"
       id="path7126"
       inkscape:connector-curvature="0" />
  </g>
</svg>
