<?xml version="1.0" encoding="UTF-8" standalone="no"?>
<!-- Created with Inkscape (http://www.inkscape.org/) -->

<svg
   xmlns:dc="http://purl.org/dc/elements/1.1/"
   xmlns:cc="http://creativecommons.org/ns#"
   xmlns:rdf="http://www.w3.org/1999/02/22-rdf-syntax-ns#"
   xmlns:svg="http://www.w3.org/2000/svg"
   xmlns="http://www.w3.org/2000/svg"
   xmlns:sodipodi="http://sodipodi.sourceforge.net/DTD/sodipodi-0.dtd"
   xmlns:inkscape="http://www.inkscape.org/namespaces/inkscape"
   width="602mm"
   height="602mm"
   viewBox="0 0 602 601.99999"
   version="1.1"
   id="svg8781"
   inkscape:version="0.92.2 (5c3e80d, 2017-08-06)"
   sodipodi:docname="11.svg">
  <defs
     id="defs8775">
    <pattern
       y="0"
       x="0"
       height="6"
       width="6"
       patternUnits="userSpaceOnUse"
       id="EMFhbasepattern" />
    <pattern
       y="0"
       x="0"
       height="6"
       width="6"
       patternUnits="userSpaceOnUse"
       id="EMFhbasepattern-2" />
    <pattern
       y="0"
       x="0"
       height="6"
       width="6"
       patternUnits="userSpaceOnUse"
       id="EMFhbasepattern-6" />
    <pattern
       y="0"
       x="0"
       height="6"
       width="6"
       patternUnits="userSpaceOnUse"
       id="EMFhbasepattern-8" />
    <pattern
       y="0"
       x="0"
       height="6"
       width="6"
       patternUnits="userSpaceOnUse"
       id="EMFhbasepattern-0" />
    <pattern
       y="0"
       x="0"
       height="6"
       width="6"
       patternUnits="userSpaceOnUse"
       id="EMFhbasepattern-7" />
    <pattern
       y="0"
       x="0"
       height="6"
       width="6"
       patternUnits="userSpaceOnUse"
       id="EMFhbasepattern-5" />
    <pattern
       y="0"
       x="0"
       height="6"
       width="6"
       patternUnits="userSpaceOnUse"
       id="EMFhbasepattern-82" />
  </defs>
  <sodipodi:namedview
     id="base"
     pagecolor="#ffffff"
     bordercolor="#666666"
     borderopacity="1.0"
     inkscape:pageopacity="0.0"
     inkscape:pageshadow="2"
     inkscape:zoom="0.2414452"
     inkscape:cx="839.12553"
     inkscape:cy="1226.6196"
     inkscape:document-units="mm"
     inkscape:current-layer="layer1"
     showgrid="false"
     showguides="true"
     inkscape:window-width="1920"
     inkscape:window-height="1057"
     inkscape:window-x="-8"
     inkscape:window-y="-8"
     inkscape:window-maximized="1"
     inkscape:snap-global="false"
     inkscape:measure-start="0,0"
     inkscape:measure-end="0,0"
     fit-margin-top="0"
     fit-margin-left="0"
     fit-margin-right="0"
     fit-margin-bottom="0" />
  <metadata
     id="metadata8778">
    <rdf:RDF>
      <cc:Work
         rdf:about="">
        <dc:format>image/svg+xml</dc:format>
        <dc:type
           rdf:resource="http://purl.org/dc/dcmitype/StillImage" />
        <dc:title></dc:title>
      </cc:Work>
    </rdf:RDF>
  </metadata>
  <g
     inkscape:label="Layer 1"
     inkscape:groupmode="layer"
     id="layer1"
     transform="translate(-179.2,397.3)">
    <path
       d="m 197.40882,154.5619 c -1.3527,-9.4252 -16.1876,-104.27771 -16.1876,-105.83381 V -62.10588 c 0,-38.57928 -4.35,-74.09289 6.5912,-107.76699 11.4584,-35.1367 -21.8479,-121.77655 0,-151.8196 84.9634,-116.72832 153.6449,-53.7184 258.4906,-63.85886 38.7849,-3.77009 70.88045,-10.74876 110.78855,-10.74876 17.124,0 37.5687,9.05088 54.9725,10.74876 77.57111,-17.92128 118.64891,-11.36374 158.64991,44.4282 6.0873,32.82516 -3.5542,90.45936 -3.5542,122.67086 0,17.3572 -9.6415,38.5806 -11.4584,56.2666 -9.363,90.59969 43.1825,193.13276 17.2168,281.84747 -9.8272,98.0049 -123.98161,73.8109 -215.82131,73.8109 -17.1239,0 -54.55215,10.2273 -72.05005,10.2273 -53.897,0 -92.8688,-20.9881 -145.1293,-20.9881 -10.0526,0 -34.2466,10.468 -44.0711,8.6364 -46.1771,0 -92.028,7.6872 -98.4376,-36.7878"
       style="fill:#782d00;fill-opacity:1;fill-rule:nonzero;stroke:none;stroke-width:46.97400665"
       id="path6282"
       inkscape:connector-curvature="0" />
    <path
       d="m 420.20862,-287.63312 c 6.4368,1.96082 14.07306,3.34015 20.84793,3.34015 11.02099,0 29.09947,-6.6804 36.68435,-14.97947 10.39895,7.2484 25.47538,12.87395 38.30706,11.64331 0.27046,-3.24552 0.81136,-6.73447 0.81136,-9.96639 0,-21.85055 -21.75259,-46.70448 -44.12723,-46.70448 h -10.02031 c -0.54091,0 -8.30293,2.24482 -9.15486,2.52882 -21.41993,6.82911 -38.64108,31.00961 -33.34695,54.14755"
       style="fill:#ffffff;fill-opacity:1;fill-rule:nonzero;stroke:none;stroke-width:47.70560837"
       id="path6836"
       inkscape:connector-curvature="0" />
    <path
       d="m 478.55226,-288.44455 c 8.5869,4.81422 21.70661,9.30385 31.67689,9.15506 -8.01895,13.83544 -20.03657,24.13999 -36.6857,24.13999 h -9.15485 l -6.11226,-2.19074 c -10.26371,-3.71884 -17.9365,-9.30384 -23.9,-18.605 16.36245,-0.54092 30.43552,-2.96152 44.17457,-12.49522"
       style="fill:#ffffff;fill-opacity:1;fill-rule:nonzero;stroke:none;stroke-width:47.70560837"
       id="path6838"
       inkscape:connector-curvature="0" />
    <path
       d="m 285.20352,-150.95603 65.02249,-87.49256 c 7.01828,-9.68248 19.51189,-17.88959 30.81685,-21.65846 l 17.50783,-5.81489 c 2.6775,-0.54093 6.53146,-1.66333 9.15486,-1.66333 h 9.15486 c 3.28601,0 17.03046,6.86968 17.50782,6.62627 l 49.18336,32.4877 -7.53213,12.49526 -1.66329,1.66333 -4.15147,1.66333 h -4.15146 l -10.02032,-3.34018 -6.6802,-1.67686 -6.62612,1.67686 -18.36652,5.86898 c -3.28601,1.56867 -7.30225,4.09747 -9.96621,6.62629 l -31.67689,40.88413 c -3.00204,2.71812 -4.15147,7.73517 -4.15147,11.64331 0,5.72024 2.37999,12.6846 6.62612,16.69823 l 16.69646,14.97944 -30.8182,23.328553 c -5.05749,0.676154 -10.45304,-0.81138 -15.3131,-1.676852 -29.29013,-5.192841 -57.24558,-26.572731 -70.55596,-53.336121"
       style="fill:#ffffff;fill-opacity:1;fill-rule:nonzero;stroke:none;stroke-width:47.70560837"
       id="path6840"
       inkscape:connector-curvature="0" />
    <path
       d="m 515.23795,-99.289987 16.64914,-4.151573 7.49157,-16.69687 -100.84815,-36.63791 30.86554,-45.84572 -15.83778,-5.8149 c -1.21703,-0.13523 -3.96215,-0.81138 -5.01691,-0.81138 l -3.34011,0.81138 -18.31918,5.8149 c -1.35227,0.81138 -2.90738,1.56867 -4.15146,2.47471 l -1.71738,1.66333 -31.62821,40.83681 -2.52875,4.19213 v 5.00351 c 0,1.21708 2.24476,6.30174 3.34011,7.49176 l 13.36041,11.64332 5.00339,4.19213 4.15146,0.81138 102.5182,24.997291"
       style="fill:#ffffff;fill-opacity:1;fill-rule:nonzero;stroke:none;stroke-width:47.70560837"
       id="path6842"
       inkscape:connector-curvature="0" />
    <path
       d="m 370.2139,-87.602052 c 2.43409,7.342999 7.96487,14.980801 16.64913,14.980801 0.94659,0 5.77419,-0.54092 6.68021,-0.81138 28.14612,-8.73587 57.1036,-15.504143 86.68042,-16.696865 L 285.20488,-37.60611 c -13.30632,-3.434846 -29.1468,-34.395786 -29.1468,-47.514466 v -11.643317 c 0,-10.209877 5.90941,-23.471897 11.64303,-31.676307 l 11.6836,-15.02813 c 16.31513,28.09948 35.30233,41.12214 65.26049,51.66603 6.05816,2.150159 18.9872,4.962952 25.57006,4.192134"
       style="fill:#ffffff;fill-opacity:1;fill-rule:nonzero;stroke:none;stroke-width:47.70560837"
       id="path6844"
       inkscape:connector-curvature="0" />
    <path
       d="m 463.57318,9.862388 c 2.71805,3.28609 5.39555,6.923784 8.30292,10.020547 1.08183,1.08185 2.90739,2.285395 4.15147,3.340193 L 692.7043,-34.26322 c 25.99871,-4.719533 37.4957,-30.484934 37.4957,-54.19483 0,-21.75313 -26.57073,-44.17564 -47.46598,-44.17564 -49.90007,0 -382.59469,99.706552 -452.52996,118.358842 v 50.807322 c 9.73633,4.340888 21.08592,6.680374 31.67689,6.680374 26.14205,0 53.14281,-11.305244 68.36124,-33.346403 15.16975,22.03981 42.12317,33.346403 68.31256,33.346403 22.46929,0 52.71414,-13.930059 65.02249,-33.346403"
       style="fill:#ffffff;fill-opacity:1;fill-rule:nonzero;stroke:none;stroke-width:47.70560837"
       id="path6846"
       inkscape:connector-curvature="0" />
    <path
       d="M 730.19594,22.361703 V 55.708116 C 715.02619,77.70059 688.07277,89.05452 661.88339,89.05452 c -22.4693,0 -52.71414,-13.93006 -65.02249,-33.346404 -15.16976,21.992474 -42.12318,33.346404 -68.31392,33.346404 -22.4693,0 -52.71413,-13.93006 -64.9738,-33.346404 -15.21843,21.992474 -42.17185,33.346404 -68.36124,33.346404 -22.4693,0 -52.71414,-13.93006 -64.9738,-33.346404 C 315.0197,77.70059 288.01895,89.05452 261.8769,89.05452 c -10.58827,0 -21.94463,-2.339486 -31.6769,-6.680375 V 49.027742 c 9.73633,4.38146 21.08593,6.680374 31.6769,6.680374 26.14205,0 53.1428,-11.305244 68.36124,-33.346413 15.16975,22.03982 42.12317,33.346413 68.31255,33.346413 22.46929,0 52.71414,-13.93006 65.02249,-33.346413 15.16975,22.03982 42.12317,33.346413 68.31391,33.346413 22.4693,0 52.71413,-13.93006 64.97381,-33.346413 15.21842,22.03982 42.17184,33.346413 68.36124,33.346413 22.46929,0 52.71414,-13.93006 64.9738,-33.346413"
       style="fill:#ffffff;fill-opacity:1;fill-rule:evenodd;stroke:none;stroke-width:47.70560837"
       id="path6848"
       inkscape:connector-curvature="0" />
    <path
       d="m 596.8609,122.40092 c 12.30564,19.36902 42.55319,33.29908 65.02249,33.29908 26.18938,0 53.1428,-11.30524 68.31255,-33.29908 v -33.3464 c -12.26508,19.41634 -42.50451,33.3464 -64.9738,33.3464 -26.1894,0 -53.14282,-11.35934 -68.36124,-33.3464 -12.26508,19.41634 -42.50451,33.3464 -64.97381,33.3464 -26.19074,0 -53.14416,-11.35934 -68.31391,-33.3464 -12.30565,19.41634 -42.5532,33.3464 -65.02249,33.3464 -26.18938,0 -53.1428,-11.35934 -68.31255,-33.3464 -15.21844,21.99248 -42.21919,33.3464 -68.36124,33.3464 -10.58827,0 -21.94463,-2.33949 -31.6769,-6.68037 v 33.34641 c 9.73633,4.34089 21.08593,6.62627 31.6769,6.62627 26.14205,0 53.1428,-11.30524 68.36124,-33.29907 12.26507,19.36901 42.5045,33.29907 64.9738,33.29907 26.18939,0 53.14281,-11.30524 68.36124,-33.29907 12.26507,19.36901 42.5045,33.29907 64.9738,33.29907 26.19074,0 53.14416,-11.30524 68.31392,-33.29907"
       style="fill:#ffffff;fill-opacity:1;fill-rule:nonzero;stroke:none;stroke-width:47.70560837"
       id="path6850"
       inkscape:connector-curvature="0" />
  </g>
</svg>
