<?xml version="1.0" encoding="UTF-8" standalone="no"?>
<!-- Created with Inkscape (http://www.inkscape.org/) -->

<svg
   xmlns:dc="http://purl.org/dc/elements/1.1/"
   xmlns:cc="http://creativecommons.org/ns#"
   xmlns:rdf="http://www.w3.org/1999/02/22-rdf-syntax-ns#"
   xmlns:svg="http://www.w3.org/2000/svg"
   xmlns="http://www.w3.org/2000/svg"
   xmlns:sodipodi="http://sodipodi.sourceforge.net/DTD/sodipodi-0.dtd"
   xmlns:inkscape="http://www.inkscape.org/namespaces/inkscape"
   width="978mm"
   height="602mm"
   viewBox="0 0 978 602.00001"
   version="1.1"
   id="svg8781"
   inkscape:version="0.92.2 (5c3e80d, 2017-08-06)"
   sodipodi:docname="22.svg">
  <defs
     id="defs8775">
    <pattern
       y="0"
       x="0"
       height="6"
       width="6"
       patternUnits="userSpaceOnUse"
       id="EMFhbasepattern" />
    <pattern
       y="0"
       x="0"
       height="6"
       width="6"
       patternUnits="userSpaceOnUse"
       id="EMFhbasepattern-3" />
  </defs>
  <sodipodi:namedview
     id="base"
     pagecolor="#ffffff"
     bordercolor="#666666"
     borderopacity="1.0"
     inkscape:pageopacity="0.0"
     inkscape:pageshadow="2"
     inkscape:zoom="0.13406033"
     inkscape:cx="1426.3772"
     inkscape:cy="1163.2727"
     inkscape:document-units="mm"
     inkscape:current-layer="layer1"
     showgrid="false"
     showguides="true"
     inkscape:window-width="1920"
     inkscape:window-height="1057"
     inkscape:window-x="-8"
     inkscape:window-y="-8"
     inkscape:window-maximized="1"
     inkscape:snap-global="true"
     fit-margin-top="0"
     fit-margin-left="0"
     fit-margin-right="0"
     fit-margin-bottom="0" />
  <metadata
     id="metadata8778">
    <rdf:RDF>
      <cc:Work
         rdf:about="">
        <dc:format>image/svg+xml</dc:format>
        <dc:type
           rdf:resource="http://purl.org/dc/dcmitype/StillImage" />
        <dc:title></dc:title>
      </cc:Work>
    </rdf:RDF>
  </metadata>
  <g
     inkscape:label="Layer 1"
     inkscape:groupmode="layer"
     id="layer1"
     transform="translate(-84.340927,375.44855)">
    <path
       d="m 223.30196,214.60415 -90.85521,-45.4375 c -4.3649,-8.6365 -45.427597,-89.2918 -45.427597,-90.875 v -112.7546 c 0,-39.2477 -6.1462,-187.843 5.0856,-222.102 24.656897,-75.1852 -4.9904,-111.2177 153.936807,-106.9484 34.2026,0.952 78.4785,3.3593 113.5445,0 17.8934,-1.7273 38.8558,-10.9351 56.4133,-10.9351 h 56.3643 c 12.1428,0 125.9702,14.7786 130.4316,20.1999 14.343,-17.3696 105.1016,-6.814 130.3827,-9.2621 17.8444,-1.7273 38.8558,-10.9351 56.4119,-10.9351 h 56.3657 c 17.8444,0 39.0951,9.167 57.22783,10.9351 58.763,5.6579 96.5635,0.544 135.46691,57.1926 7.1524,33.1071 22.6907,79.7918 22.6907,112.8022 0,17.8497 -9.2058,39.105 -10.9327,57.2416 -8.825,91.5944 16.501,193.8411 -11.7485,282.7494 -12.4284,52.1549 -36.2654,72.0189 -135.46691,79.0722 h -57.22783 c -17.5575,0 -38.5199,-9.1669 -56.3657,-10.935 -61.5926,-5.9435 -130.622,0 -192.696,0 l -6.7173,-3.3594 c -1.8221,4.2163 -55.2126,14.2985 -61.4486,14.2985 h -56.3656 c -17.5562,0 -38.5199,-9.1669 -56.3644,-10.935 -61.5451,-5.9436 -130.622,0 -192.696,0"
       style="fill:#782d00;fill-opacity:1;fill-rule:nonzero;stroke:none;stroke-width:47.97531128"
       id="path6315"
       inkscape:connector-curvature="0" />
    <path
       d="m 719.53241,-59.842201 c 0,-38.373721 -31.22579,-68.376969 -69.25529,-68.376969 -38.4707,0 -67.54327,32.500702 -67.54327,70.0905 0,38.030954 33.38039,66.7134291 70.13766,66.7134291 36.3161,0 66.6609,-32.8433651 66.6609,-68.4269601"
       style="fill:#ffffff;fill-opacity:1;fill-rule:nonzero;stroke:none;stroke-width:48.94467545"
       id="path6190"
       inkscape:connector-curvature="0" />
    <path
       d="m 244.19063,-182.93957 -5.13331,25.64667 330.02747,75.229588 c 1.91459,-7.880725 5.77151,-17.179308 10.225,-23.934638 l -335.11778,-76.94162"
       style="fill:#ffffff;fill-opacity:1;fill-rule:nonzero;stroke:none;stroke-width:48.94467545"
       id="path6192"
       inkscape:connector-curvature="0" />
    <path
       d="M 999.09944,-10.259385 993.1337,14.554871 734.95454,-44.42362 c 0.55495,-4.301077 1.70648,-9.448469 1.70648,-13.707849 0,-4.203986 -0.55495,-8.615952 -0.83243,-12.819938 l 263.31802,60.693422"
       style="fill:#ffffff;fill-opacity:1;fill-rule:nonzero;stroke:none;stroke-width:48.94467545"
       id="path6194"
       inkscape:connector-curvature="0" />
    <path
       d="m 468.20552,-271.87422 106.01258,-61.57433 8.51853,14.53747 -89.76218,52.17596 534.36645,122.26636 -56.43166,105.135638 -241.09633,-54.673314 c -11.69563,-26.332104 -42.87425,-51.343444 -72.68213,-51.343444 -22.07324,0 -44.68478,5.28618 -61.5706,20.55767 l -165.86974,-37.63968 c -79.3374,-18.55008 -137.13987,-73.36898 -154.71105,-153.88465"
       style="fill:#ffffff;fill-opacity:1;fill-rule:nonzero;stroke:none;stroke-width:48.94467545"
       id="path6196"
       inkscape:connector-curvature="0"
       sodipodi:nodetypes="cccccccsccc" />
    <path
       d="M 172.34093,115.43252 V -98.313012 L 1016.2295,94.092367 c -18.40368,16.396713 -50.06927,25.598183 -74.39422,25.598183 -33.47751,0 -61.3278,-13.51362 -85.50569,-35.8763 -24.17789,22.41679 -51.97824,35.8763 -85.5043,35.8763 -33.42896,0 -61.32642,-13.51362 -85.50431,-35.8763 -24.17928,22.41679 -51.97824,35.8763 -85.45575,35.8763 -33.47751,0 -61.32641,-13.51362 -85.50569,-35.8763 -23.24835,21.53577 -53.00491,36.85583 -85.50431,35.8763"
       style="fill:#ffffff;fill-opacity:1;fill-rule:nonzero;stroke:none;stroke-width:48.94467545"
       id="path6198"
       inkscape:connector-curvature="0"
       sodipodi:nodetypes="cccscscscc" />
    <path
       d="m 685.32098,106.86649 c -21.48637,23.34776 -54.13284,35.92625 -85.45575,35.92625 -32.00966,0 -63.57813,-12.08457 -85.50569,-35.92625 v 36.80726 c 24.17928,22.36824 52.02818,35.8777 85.50569,35.8777 33.47751,0 61.27647,-13.45812 85.45575,-35.8777 24.17789,22.36824 52.07535,35.8777 85.50431,35.8777 33.52606,0 61.32641,-13.45812 85.5043,-35.8777 24.17789,22.36824 52.02818,35.8777 85.50569,35.8777 33.52607,0 61.27652,-13.45812 85.50442,-35.8777 v -36.80726 c -20.6055,22.36823 -55.20957,36.80726 -85.50442,36.80726 -31.03156,0 -64.41056,-13.90071 -85.50569,-36.80726 -20.60539,22.36823 -55.1595,36.80726 -85.5043,36.80726 -30.98161,0 -64.41057,-13.90071 -85.50431,-36.80726"
       style="fill:#ffffff;fill-opacity:1;fill-rule:nonzero;stroke:none;stroke-width:48.94467545"
       id="path6200"
       inkscape:connector-curvature="0" />
  </g>
</svg>
