<?xml version="1.0" encoding="UTF-8" standalone="no"?>
<!-- Created with Inkscape (http://www.inkscape.org/) -->

<svg
   xmlns:dc="http://purl.org/dc/elements/1.1/"
   xmlns:cc="http://creativecommons.org/ns#"
   xmlns:rdf="http://www.w3.org/1999/02/22-rdf-syntax-ns#"
   xmlns:svg="http://www.w3.org/2000/svg"
   xmlns="http://www.w3.org/2000/svg"
   xmlns:sodipodi="http://sodipodi.sourceforge.net/DTD/sodipodi-0.dtd"
   xmlns:inkscape="http://www.inkscape.org/namespaces/inkscape"
   width="602mm"
   height="602mm"
   viewBox="0 0 602 601.99999"
   version="1.1"
   id="svg8781"
   inkscape:version="0.92.2 (5c3e80d, 2017-08-06)"
   sodipodi:docname="11.svg">
  <defs
     id="defs8775">
    <pattern
       y="0"
       x="0"
       height="6"
       width="6"
       patternUnits="userSpaceOnUse"
       id="EMFhbasepattern" />
    <pattern
       y="0"
       x="0"
       height="6"
       width="6"
       patternUnits="userSpaceOnUse"
       id="EMFhbasepattern-2" />
    <pattern
       y="0"
       x="0"
       height="6"
       width="6"
       patternUnits="userSpaceOnUse"
       id="EMFhbasepattern-6" />
    <pattern
       y="0"
       x="0"
       height="6"
       width="6"
       patternUnits="userSpaceOnUse"
       id="EMFhbasepattern-8" />
    <pattern
       y="0"
       x="0"
       height="6"
       width="6"
       patternUnits="userSpaceOnUse"
       id="EMFhbasepattern-0" />
    <pattern
       y="0"
       x="0"
       height="6"
       width="6"
       patternUnits="userSpaceOnUse"
       id="EMFhbasepattern-7" />
    <pattern
       y="0"
       x="0"
       height="6"
       width="6"
       patternUnits="userSpaceOnUse"
       id="EMFhbasepattern-5" />
    <pattern
       y="0"
       x="0"
       height="6"
       width="6"
       patternUnits="userSpaceOnUse"
       id="EMFhbasepattern-82" />
    <pattern
       y="0"
       x="0"
       height="6"
       width="6"
       patternUnits="userSpaceOnUse"
       id="EMFhbasepattern-84" />
    <pattern
       y="0"
       x="0"
       height="6"
       width="6"
       patternUnits="userSpaceOnUse"
       id="EMFhbasepattern-86" />
    <pattern
       y="0"
       x="0"
       height="6"
       width="6"
       patternUnits="userSpaceOnUse"
       id="EMFhbasepattern-23" />
    <pattern
       y="0"
       x="0"
       height="6"
       width="6"
       patternUnits="userSpaceOnUse"
       id="EMFhbasepattern-06" />
  </defs>
  <sodipodi:namedview
     id="base"
     pagecolor="#ffffff"
     bordercolor="#666666"
     borderopacity="1.0"
     inkscape:pageopacity="0.0"
     inkscape:pageshadow="2"
     inkscape:zoom="0.2414452"
     inkscape:cx="1184.4477"
     inkscape:cy="1036.5812"
     inkscape:document-units="mm"
     inkscape:current-layer="layer1"
     showgrid="false"
     showguides="true"
     inkscape:window-width="1920"
     inkscape:window-height="1057"
     inkscape:window-x="-8"
     inkscape:window-y="-8"
     inkscape:window-maximized="1"
     inkscape:snap-global="false"
     inkscape:measure-start="0,0"
     inkscape:measure-end="0,0"
     fit-margin-top="0"
     fit-margin-left="0"
     fit-margin-right="0"
     fit-margin-bottom="0" />
  <metadata
     id="metadata8778">
    <rdf:RDF>
      <cc:Work
         rdf:about="">
        <dc:format>image/svg+xml</dc:format>
        <dc:type
           rdf:resource="http://purl.org/dc/dcmitype/StillImage" />
        <dc:title></dc:title>
      </cc:Work>
    </rdf:RDF>
  </metadata>
  <g
     inkscape:label="Layer 1"
     inkscape:groupmode="layer"
     id="layer1"
     transform="translate(-179.2,397.3)">
    <path
       d="m 197.40882,154.5619 c -1.3527,-9.4252 -16.1876,-104.27777 -16.1876,-105.83387 V -62.10594 c 0,-38.57928 -4.35,-74.09289 6.5912,-107.76699 11.4584,-35.1367 -21.8479,-121.77655 0,-151.8196 84.9634,-116.72832 153.6449,-53.7184 258.4906,-63.85886 38.7849,-3.77009 70.8804,-10.74876 110.7885,-10.74876 17.124,0 37.5687,9.05088 54.9725,10.74876 77.5711,-17.92128 118.64894,-11.36374 158.64994,44.4282 6.0873,32.82516 -3.5542,90.45936 -3.5542,122.67086 0,17.3572 -9.6415,38.5806 -11.4584,56.2666 -9.363,90.59969 43.1825,193.13276 17.2168,281.84753 -9.8272,98.0049 -123.98164,73.8109 -215.82134,73.8109 -17.1239,0 -54.5521,10.2273 -72.05,10.2273 -53.897,0 -92.8688,-20.9881 -145.1293,-20.9881 -10.0526,0 -34.2466,10.468 -44.0711,8.6364 -46.1771,0 -92.028,7.6872 -98.4376,-36.7878"
       style="fill:#782d00;fill-opacity:1;fill-rule:nonzero;stroke:none;stroke-width:46.97400665"
       id="path6282"
       inkscape:connector-curvature="0" />
    <circle
       style="opacity:1;fill:#ffd70a;fill-opacity:1;fill-rule:nonzero;stroke:none;stroke-width:0.26813558;stroke-linecap:butt;stroke-linejoin:miter;stroke-miterlimit:4;stroke-dasharray:none;stroke-opacity:1;paint-order:stroke fill markers"
       id="path892"
       cx="480.20001"
       cy="-96.300041"
       r="250" />
    <path
       d="m 271.5,-143.53919 c 2.24243,47.121057 13.5816,96.769084 37.21769,138.3162108 22.35143,39.0701382 51.99348,76.4250102 87.25784,105.2981292 6.71379,4.5245 15.5363,11.91228 22.63645,15.72368 l 15.10672,6.29379 7.52433,3.14689 c 16.155,5.48344 34.69294,7.86049 51.70574,7.86049 6.29503,0 13.15743,-1.08048 19.44436,-1.5667 3.37716,-0.6753 15.34448,-2.7147 17.77468,-4.71359 2.71525,-1.5667 16.58458,-9.10304 17.77605,-11.00738 6.43011,-5.19981 19.68212,-16.53404 24.25615,-23.585518 l 1.62103,-4.713595 -1.99927,-1.377606 0.40525,-0.135062 -84.11165,-54.984248 -4.80909,1.566701 -14.53531,21.964791 c -5.76819,7.955032 -17.77469,12.574075 -27.49687,12.574075 l -9.72623,-3.146894 c -3.80945,-2.377053 -7.86204,-7.671406 -11.29324,-11.007385 L 323.27597,-130.89893 c -1.71558,-3.47104 -3.24207,-12.24994 -2.14787,-18.86787 l 2.14787,-6.29379 c 2.80981,-5.09177 9.53713,-11.04791 14.53532,-14.15024 l 11.29324,-1.56669 h 21.06405 l 4.80908,-3.14689 1.62104,-4.7136 -6.43012,-94.33936 -8.10519,-6.23976 c -25.30442,2.86327 -62.71395,25.96797 -71.14875,50.2666 -2.99892,6.86105 -17.68014,46.21751 -16.15636,51.88732 l -3.24208,34.59155"
       style="fill:#000000;fill-opacity:1;fill-rule:nonzero;stroke:none;stroke-width:47.65083694"
       id="path6376"
       inkscape:connector-curvature="0" />
    <path
       d="m 399.21625,-272.42282 c -0.40526,1.95836 -4.86312,21.20306 -4.86312,21.96479 v 22.01342 c 0,5.4294 7.05152,42.73836 11.34727,44.02413 l -12.96831,11.00739 -4.86311,-3.14691 -8.05116,-102.15257 4.86312,-3.18743 14.53531,9.48123"
       style="fill:#000000;fill-opacity:1;fill-rule:nonzero;stroke:none;stroke-width:47.65083694"
       id="path6378"
       inkscape:connector-curvature="0" />
    <path
       d="M 583.5,74.917529 581.87896,57.621758 C 569.86976,52.908163 558.00376,47.384216 546.32823,41.89943 541.22195,40.33274 526.88386,29.460417 523.69177,26.223025 520.35513,22.738481 515.35693,14.648396 512.39853,10.500697 h -4.86312 l -11.34727,6.293799 v 4.673076 l 87.30511,53.458067"
       style="fill:#000000;fill-opacity:1;fill-rule:nonzero;stroke:none;stroke-width:47.65083694"
       id="path6380"
       inkscape:connector-curvature="0" />
    <path
       d="m 585.57242,-45.99892 c -2.77217,18.22332 -14.78853,42.26686 -36.54265,42.26686 h -12.58973 l -7.53219,-2.81275 c -17.36463,-6.53151 -27.62167,-20.51273 -27.62167,-39.4514 v -92.93001 c 0.0487,-5.49026 2.71808,-18.03265 5.62549,-22.56549 3.81342,-5.90947 22.46947,-19.70272 29.52973,-19.70272 15.16987,0 33.44187,6.24753 42.12351,19.70272 2.28535,3.58354 6.15287,17.98531 7.01833,22.56549 v 92.93001"
       style="fill:#000000;fill-opacity:1;fill-rule:nonzero;stroke:none;stroke-width:47.70541763"
       id="path6384"
       inkscape:connector-curvature="0" />
    <path
       d="m 560.28885,-45.99892 -1.43342,8.43823 c -1.86614,2.81274 -9.15493,8.49231 -12.58972,8.49231 h -7.0589 c -0.40569,0 -6.24753,-2.52876 -7.01833,-2.81274 -2.47467,-2.33944 -7.01833,-10.96699 -7.01833,-14.1205 v -92.93001 c 1.86614,-7.24822 6.92367,-14.21652 14.02584,-16.88862 h 7.0589 c 4.48957,2.00137 9.58766,5.90946 12.58972,9.83107 l 1.43342,7.0589 v 92.93001"
       style="fill:#ffd70a;fill-opacity:1;fill-rule:nonzero;stroke:none;stroke-width:47.70541763"
       id="path6388"
       inkscape:connector-curvature="0" />
    <g
       aria-label="S0S"
       style="font-style:normal;font-variant:normal;font-weight:bold;font-stretch:normal;font-size:263.32843018px;line-height:0;font-family:'DIN 1451 Engschrift';-inkscape-font-specification:'DIN 1451 Engschrift Bold';letter-spacing:0px;word-spacing:0px;fill:#000000;fill-opacity:1;stroke:none;stroke-width:1.37150216"
       id="text872"
       transform="translate(1.0000001,-1)">
      <path
         d="m 421.47953,-46.592494 q 0,5.003241 0.26332,7.636525 0.52666,2.369959 3.94993,7.636529 3.6866,5.00324 13.16642,5.00324 5.26657,0 9.74315,-2.10663 4.47659,-2.36996 6.58321,-5.79323 2.10663,-3.6866 2.10663,-7.373193 0.26333,-3.949927 0.26333,-5.266569 v -12.376436 q 0,-5.266569 -0.52666,-7.899853 -0.26333,-2.633284 -3.15994,-5.529897 -2.63328,-3.159941 -7.89985,-5.529897 -5.00324,-2.633284 -17.90633,-7.373196 -12.63977,-4.739912 -21.32961,-14.746389 -8.68983,-10.26981 -8.68983,-27.91282 v -7.89985 q 0,-17.90633 11.84977,-30.80943 12.11311,-13.16642 30.01945,-13.16642 18.16966,0 30.28276,12.90309 12.37644,12.63977 12.37644,31.07276 v 7.89985 h -25.0162 v -7.89985 q 0,-3.6866 -0.52666,-6.31988 -0.52665,-2.63329 -4.21325,-7.63653 -3.6866,-5.00324 -12.37644,-5.00324 -7.63652,0 -12.63976,5.5299 -4.73991,5.26657 -4.73991,13.42975 v 7.89985 q 0,5.00324 0.26332,7.3732 0.52666,2.10663 2.89662,5.00324 2.36995,2.89661 6.84654,5.00324 4.47658,2.10663 17.11634,6.84654 12.9031,4.476582 22.64625,15.009719 9.74315,10.269809 9.74315,28.176142 v 14.219735 q 0,8.689834 -1.8433,15.273054 -1.57997,6.58321 -10.53314,18.43299 Q 461.24212,-1.3 439.38586,-1.3 416.73961,-1.3 406.4698,-16.0464 396.2,-31.05612 396.2,-46.592494 v -6.319882 h 25.27953 z"
         style="fill:#000000;fill-opacity:1;stroke:none;stroke-width:1.37150216"
         id="path874"
         inkscape:connector-curvature="0" />
    </g>
    <g
       id="g928"
       style="font-style:normal;font-variant:normal;font-weight:bold;font-stretch:normal;font-size:263.32843018px;line-height:0;font-family:'DIN 1451 Engschrift';-inkscape-font-specification:'DIN 1451 Engschrift Bold';letter-spacing:0px;word-spacing:0px;fill:#000000;fill-opacity:1;stroke:none;stroke-width:1.37150216"
       aria-label="S0S"
       transform="translate(208.8,-1)">
      <path
         inkscape:connector-curvature="0"
         id="path926"
         style="fill:#000000;fill-opacity:1;stroke:none;stroke-width:1.37150216"
         d="m 421.47953,-46.592494 q 0,5.003241 0.26332,7.636525 0.52666,2.369959 3.94993,7.636529 3.6866,5.00324 13.16642,5.00324 5.26657,0 9.74315,-2.10663 4.47659,-2.36996 6.58321,-5.79323 2.10663,-3.6866 2.10663,-7.373193 0.26333,-3.949927 0.26333,-5.266569 v -12.376436 q 0,-5.266569 -0.52666,-7.899853 -0.26333,-2.633284 -3.15994,-5.529897 -2.63328,-3.159941 -7.89985,-5.529897 -5.00324,-2.633284 -17.90633,-7.373196 -12.63977,-4.739912 -21.32961,-14.746389 -8.68983,-10.26981 -8.68983,-27.91282 v -7.89985 q 0,-17.90633 11.84977,-30.80943 12.11311,-13.16642 30.01945,-13.16642 18.16966,0 30.28276,12.90309 12.37644,12.63977 12.37644,31.07276 v 7.89985 h -25.0162 v -7.89985 q 0,-3.6866 -0.52666,-6.31988 -0.52665,-2.63329 -4.21325,-7.63653 -3.6866,-5.00324 -12.37644,-5.00324 -7.63652,0 -12.63976,5.5299 -4.73991,5.26657 -4.73991,13.42975 v 7.89985 q 0,5.00324 0.26332,7.3732 0.52666,2.10663 2.89662,5.00324 2.36995,2.89661 6.84654,5.00324 4.47658,2.10663 17.11634,6.84654 12.9031,4.476582 22.64625,15.009719 9.74315,10.269809 9.74315,28.176142 v 14.219735 q 0,8.689834 -1.8433,15.273054 -1.57997,6.58321 -10.53314,18.43299 Q 461.24212,-1.3 439.38586,-1.3 416.73961,-1.3 406.4698,-16.0464 396.2,-31.05612 396.2,-46.592494 v -6.319882 h 25.27953 z" />
    </g>
  </g>
</svg>
