<?xml version="1.0" encoding="UTF-8" standalone="no"?>
<!-- Created with Inkscape (http://www.inkscape.org/) -->

<svg
   xmlns:dc="http://purl.org/dc/elements/1.1/"
   xmlns:cc="http://creativecommons.org/ns#"
   xmlns:rdf="http://www.w3.org/1999/02/22-rdf-syntax-ns#"
   xmlns:svg="http://www.w3.org/2000/svg"
   xmlns="http://www.w3.org/2000/svg"
   xmlns:sodipodi="http://sodipodi.sourceforge.net/DTD/sodipodi-0.dtd"
   xmlns:inkscape="http://www.inkscape.org/namespaces/inkscape"
   width="978mm"
   height="602mm"
   viewBox="0 0 978 602.00001"
   version="1.1"
   id="svg8781"
   inkscape:version="0.92.2 (5c3e80d, 2017-08-06)"
   sodipodi:docname="22.svg">
  <defs
     id="defs8775">
    <pattern
       y="0"
       x="0"
       height="6"
       width="6"
       patternUnits="userSpaceOnUse"
       id="EMFhbasepattern" />
    <pattern
       y="0"
       x="0"
       height="6"
       width="6"
       patternUnits="userSpaceOnUse"
       id="EMFhbasepattern-3" />
  </defs>
  <sodipodi:namedview
     id="base"
     pagecolor="#ffffff"
     bordercolor="#666666"
     borderopacity="1.0"
     inkscape:pageopacity="0.0"
     inkscape:pageshadow="2"
     inkscape:zoom="0.18958994"
     inkscape:cx="1737.9238"
     inkscape:cy="957.80679"
     inkscape:document-units="mm"
     inkscape:current-layer="layer1"
     showgrid="false"
     showguides="true"
     inkscape:window-width="1920"
     inkscape:window-height="1057"
     inkscape:window-x="-8"
     inkscape:window-y="-8"
     inkscape:window-maximized="1"
     inkscape:snap-global="true"
     fit-margin-top="0"
     fit-margin-left="0"
     fit-margin-right="0"
     fit-margin-bottom="0" />
  <metadata
     id="metadata8778">
    <rdf:RDF>
      <cc:Work
         rdf:about="">
        <dc:format>image/svg+xml</dc:format>
        <dc:type
           rdf:resource="http://purl.org/dc/dcmitype/StillImage" />
        <dc:title></dc:title>
      </cc:Work>
    </rdf:RDF>
  </metadata>
  <g
     inkscape:label="Layer 1"
     inkscape:groupmode="layer"
     id="layer1"
     transform="translate(-84.340927,375.44855)">
    <path
       d="m 223.30196,214.60415 -90.85521,-45.4375 c -4.3649,-8.6365 -45.427597,-89.2918 -45.427597,-90.875 v -112.7546 c 0,-39.2477 -6.1462,-187.843 5.0856,-222.102 24.656897,-75.1852 -4.9904,-111.2177 153.936807,-106.9484 34.2026,0.952 78.4785,3.3593 113.5445,0 17.8934,-1.7273 38.8558,-10.9351 56.4133,-10.9351 h 56.3643 c 12.1428,0 125.9702,14.7786 130.4316,20.1999 14.343,-17.3696 105.1016,-6.814 130.3827,-9.2621 17.8444,-1.7273 38.8558,-10.9351 56.4119,-10.9351 h 56.3657 c 17.8444,0 39.0951,9.167 57.22783,10.9351 58.763,5.6579 96.5635,0.544 135.46691,57.1926 7.1524,33.1071 22.6907,79.7918 22.6907,112.8022 0,17.8497 -9.2058,39.105 -10.9327,57.2416 -8.825,91.5944 16.501,193.8411 -11.7485,282.7494 -12.4284,52.1549 -36.2654,72.0189 -135.46691,79.0722 h -57.22783 c -17.5575,0 -38.5199,-9.1669 -56.3657,-10.935 -61.5926,-5.9435 -130.622,0 -192.696,0 l -6.7173,-3.3594 c -1.8221,4.2163 -55.2126,14.2985 -61.4486,14.2985 h -56.3656 c -17.5562,0 -38.5199,-9.1669 -56.3644,-10.935 -61.5451,-5.9436 -130.622,0 -192.696,0"
       style="fill:#782d00;fill-opacity:1;fill-rule:nonzero;stroke:none;stroke-width:47.97531128"
       id="path6315"
       inkscape:connector-curvature="0" />
    <path
       d="m 673.9402,-239.80635 c -9.29702,-6.06424 -18.79804,-23.98774 -18.79804,-35.05188 v -10.28288 c 0,-2.63658 5.53656,-19.53331 7.68736,-20.51168 2.10922,-6.27242 3.42741,-13.84912 3.42741,-20.51287 0,-3.0391 -1.24888,-7.24378 -1.70671,-10.28289 1.4708,5.24545 5.34229,14.53887 8.56153,18.84766 1.95653,2.59508 6.161,5.32886 8.51997,7.68792 13.55704,10.67141 23.98632,24.86896 23.98632,42.73836 0,6.66094 -1.38756,14.24616 -3.42741,20.51163 l -3.42741,11.11543 -17.13289,4.30194 -7.68735,-8.56213"
       style="fill:#ffffff;fill-opacity:1;fill-rule:nonzero;stroke:none;stroke-width:48.95348358"
       id="path6292"
       inkscape:connector-curvature="0" />
    <path
       d="m 891.13954,-182.52904 -51.30154,68.43858 c 31.08394,31.135824 51.30154,79.895437 51.30154,124.003519 0,72.356053 -38.42728,133.940791 -102.60307,166.740461 H 685.8834 c -36.71354,-20.21735 -68.97286,-47.53422 -85.47019,-87.23775 34.41422,-42.44415 58.79185,-91.6923163 70.09957,-145.347728 5.92508,-16.839737 9.39414,-33.485201 9.39414,-51.353172 0,-28.83506 -9.54683,-49.49375 -20.51038,-75.24391 h 231.73882"
       style="fill:#ffffff;fill-opacity:1;fill-rule:nonzero;stroke:none;stroke-width:48.95348358"
       id="path6294"
       inkscape:connector-curvature="0" />
    <path
       d="m 268.6176,65.476598 c 5.57821,13.613351 21.73423,25.653027 36.76206,25.653027 h 9.39423 c 10.47649,0 24.77032,-10.962824 29.95861,-19.680367 l 49.58918,-80.3353767 c 2.84463,-5.3426183 13.36278,-14.9802133 18.79665,-17.1339273 1.8594,-0.693956 15.51774,-2.53947 17.9655,-2.53947 11.11476,0 25.89563,8.464907 31.62375,17.966503 1.8594,2.9835898 3.2748,7.9793141 4.31551,11.3514598 l 1.70671,5.7311636 v 9.3947186 c 0,4.107575 -3.23315,13.363584 -5.13412,17.085403 l -49.58927,80.383908 c -2.98332,4.30184 -6.02221,12.7252 -6.02221,17.9665 v 9.39481 c 0,5.28713 8.17301,21.83407 11.98895,25.70154 6.95195,6.8969 24.42763,13.32194 34.21864,11.94811 36.61502,-5.48142 65.44832,-17.42813 91.49109,-44.50081 65.54675,-67.704446 91.53961,-99.084546 117.14107,-192.392101 6.31369,-15.518689 8.51997,-33.779391 8.51997,-50.423449 0,-46.45885 -25.7486,-89.78419 -64.07726,-114.60463 -0.97141,-0.55482 -1.81785,-1.80403 -2.59489,-2.53947 l -44.4481,-27.36549 c -21.88266,-10.96278 -43.51844,-19.68036 -68.43582,-19.68036 -47.92412,0 -72.69306,13.07217 -107.74284,44.4508 -60.70124,51.01185 -97.36625,116.41562 -117.14255,192.44209 -6.27195,15.470085 -8.56153,33.7793908 -8.56153,50.423464 0,18.113653 4.10733,34.51353 10.28223,51.304734"
       style="fill:#ffffff;fill-opacity:1;fill-rule:nonzero;stroke:none;stroke-width:48.95348358"
       id="path6296"
       inkscape:connector-curvature="0" />
    <path
       d="m 777.4244,-191.04674 h -26.5326 l 48.75665,-41.90576 11.11485,12.82234 -33.33611,29.07924"
       style="fill:#ffffff;fill-opacity:1;fill-rule:nonzero;stroke:none;stroke-width:48.95348358"
       id="path6298"
       inkscape:connector-curvature="0" />
    <path
       d="m 691.90561,-191.04674 -7.68735,-32.50687 16.20314,-4.26029 9.44971,36.76577 h -17.9655"
       style="fill:#ffffff;fill-opacity:1;fill-rule:nonzero;stroke:none;stroke-width:48.95348358"
       id="path6300"
       inkscape:connector-curvature="0" />
    <path
       d="m 805.62075,-238.92516 c 0.55479,-2.05379 2.3035,-9.74169 3.42741,-11.1571 6.4663,-23.20516 27.658,-42.49275 53.89643,-40.192 9.99084,-0.27742 20.65742,-5.53687 28.19634,-11.9481 -3.81594,3.81616 -10.47649,11.55958 -12.82156,16.25279 -1.47088,2.88639 -2.34505,7.97923 -3.42741,11.11544 -0.41652,6.11971 -2.24792,14.19755 -5.09255,19.68042 -7.20179,13.6549 -25.50442,26.53281 -41.0707,27.36538 -2.63644,-0.41655 -9.297,1.11016 -11.98902,1.72081 l -11.11477,-12.82242"
       style="fill:#ffffff;fill-opacity:1;fill-rule:evenodd;stroke:none;stroke-width:48.95348358"
       id="path6302"
       inkscape:connector-curvature="0" />
    <path
       d="m 508.04099,-251.75167 c -1.11008,-0.69396 -2.3034,-1.11016 -3.42741,-1.70689 -15.32209,-6.11974 -22.32118,-11.05997 -30.78984,5.96709 -0.13826,0.97145 -0.97131,4.35742 -0.83218,5.13452 l 0.83218,9.39471 1.70679,4.26028 3.42741,2.59497 12.82156,29.91191 3.42741,0.83222 -3.42741,-0.83222 2.59489,0.83222 3.42741,0.83224 c 2.20627,-0.27742 4.7456,-0.83224 6.79926,-1.7069 l 7.68744,-9.39471 c 0.55478,-0.41656 4.89829,-3.17788 5.18968,-3.42762 1.41532,-1.4155 5.09255,-8.1736 5.09255,-10.28287 v -5.96709 c 0,-5.28714 -5.18968,-10.18573 -9.39414,-12.82234 l -5.13421,-13.655"
       style="fill:#782d00;fill-opacity:1;fill-rule:evenodd;stroke:none;stroke-width:48.95348358"
       id="path6304"
       inkscape:connector-curvature="0" />
    <path
       d="m 396.03961,-183.36161 -3.42741,-1.70691 -14.53949,-5.13451 -2.53932,-0.83223 -4.30159,0.83223 -2.53932,1.70689 c -0.83304,0.97138 -3.2748,2.74767 -4.26002,3.42762 l -2.5948,5.9671 c -0.13913,0.97137 -0.9714,4.35742 -0.83219,5.13452 l 0.83219,9.39472 0.83217,4.26019 3.42742,2.59504 11.94738,6.85525 3.42741,0.83223 -3.42741,-0.83223 c 2.98341,0.97137 6.31369,1.38766 9.39414,1.72072 0.83218,0.13915 8.22858,1.66525 8.56162,1.66525 h 8.56153 c 2.94176,0 12.08616,-4.84311 14.48957,-6.79977 0.41653,-0.69395 1.47079,-2.6366 1.7067,-3.42762 l -1.7067,-2.59495 -23.05527,-23.05806"
       style="fill:#782d00;fill-opacity:1;fill-rule:evenodd;stroke:none;stroke-width:48.95348358"
       id="path6306"
       inkscape:connector-curvature="0" />
    <path
       d="m 414.00502,-234.66636 -3.42741,0.83224 c -0.97131,0.83223 -2.7475,3.275 -3.42741,4.30185 l -3.42741,5.9671 c -0.13913,0.83309 -0.97132,3.58032 -0.83219,4.26028 l 0.83219,10.28286 1.70679,3.42762 6.85482,5.13443 c 0.41652,3.42762 3.03889,11.01839 5.13421,13.65501 3.67716,4.64883 14.48948,11.11543 20.5103,11.11543 4.55142,0 10.1851,-1.11007 14.53948,-2.53947 l 3.42741,-2.59495 2.53933,-3.37215 0.83217,-4.30185 -1.7067,-4.26028 -18.84665,-35.05192 -2.53931,-1.7068 -16.25175,-6.02266 c -0.83219,0 -1.81775,-0.0974 -2.53933,0 -1.11008,0.13913 -2.34514,0.55481 -3.42741,0.83222"
       style="fill:#782d00;fill-opacity:1;fill-rule:nonzero;stroke:none;stroke-width:48.95348358"
       id="path6308"
       inkscape:connector-curvature="0" />
    <path
       d="m 291.72279,-6.3396882 c 1.66514,-2.345197 7.00743,-10.4216478 8.51997,-11.9897528 1.51244,-1.512541 4.20445,-2.98351 5.96673,-4.260205 0.69391,-0.277409 6.70222,-2.53947 6.85482,-2.53947 h 7.68736 l 4.60689,1.110164 c 6.89648,1.706804 10.82346,6.369467 14.83227,11.9481 l 2.84462,4.0104486 0.83218,7.68781454 c 0,3.13620986 -3.46906,15.12736186 -3.37193,15.37154886 l -10.28216,16.252737 c -2.88627,4.301858 -12.53024,12.822339 -17.9655,12.822339 h -7.68734 c -11.75312,0 -23.10528,-13.557778 -23.10528,-24.771828 0,-5.287134 1.60966,-10.5742778 3.42741,-15.4200821 l 6.85483,-10.2273745"
       style="fill:#782d00;fill-opacity:1;fill-rule:nonzero;stroke:none;stroke-width:48.95348358"
       id="path6310"
       inkscape:connector-curvature="0" />
  </g>
</svg>
