<?xml version="1.0" encoding="UTF-8" standalone="no"?>
<!-- Created with Inkscape (http://www.inkscape.org/) -->

<svg
   xmlns:dc="http://purl.org/dc/elements/1.1/"
   xmlns:cc="http://creativecommons.org/ns#"
   xmlns:rdf="http://www.w3.org/1999/02/22-rdf-syntax-ns#"
   xmlns:svg="http://www.w3.org/2000/svg"
   xmlns="http://www.w3.org/2000/svg"
   xmlns:sodipodi="http://sodipodi.sourceforge.net/DTD/sodipodi-0.dtd"
   xmlns:inkscape="http://www.inkscape.org/namespaces/inkscape"
   width="602mm"
   height="602mm"
   viewBox="0 0 602 601.99999"
   version="1.1"
   id="svg8781"
   inkscape:version="0.92.2 (5c3e80d, 2017-08-06)"
   sodipodi:docname="11.svg">
  <defs
     id="defs8775">
    <pattern
       y="0"
       x="0"
       height="6"
       width="6"
       patternUnits="userSpaceOnUse"
       id="EMFhbasepattern" />
    <pattern
       y="0"
       x="0"
       height="6"
       width="6"
       patternUnits="userSpaceOnUse"
       id="EMFhbasepattern-2" />
    <pattern
       y="0"
       x="0"
       height="6"
       width="6"
       patternUnits="userSpaceOnUse"
       id="EMFhbasepattern-6" />
  </defs>
  <sodipodi:namedview
     id="base"
     pagecolor="#ffffff"
     bordercolor="#666666"
     borderopacity="1.0"
     inkscape:pageopacity="0.0"
     inkscape:pageshadow="2"
     inkscape:zoom="0.21461795"
     inkscape:cx="1145.7619"
     inkscape:cy="1113.7229"
     inkscape:document-units="mm"
     inkscape:current-layer="layer1"
     showgrid="false"
     showguides="false"
     inkscape:window-width="1920"
     inkscape:window-height="1057"
     inkscape:window-x="-8"
     inkscape:window-y="-8"
     inkscape:window-maximized="1"
     inkscape:snap-global="false"
     inkscape:measure-start="0,0"
     inkscape:measure-end="0,0"
     fit-margin-top="0"
     fit-margin-left="0"
     fit-margin-right="0"
     fit-margin-bottom="0" />
  <metadata
     id="metadata8778">
    <rdf:RDF>
      <cc:Work
         rdf:about="">
        <dc:format>image/svg+xml</dc:format>
        <dc:type
           rdf:resource="http://purl.org/dc/dcmitype/StillImage" />
        <dc:title></dc:title>
      </cc:Work>
    </rdf:RDF>
  </metadata>
  <g
     inkscape:label="Layer 1"
     inkscape:groupmode="layer"
     id="layer1"
     transform="translate(-179.2,397.3)">
    <path
       d="m 197.40882,154.5619 c -1.3527,-9.4252 -16.1876,-104.27769 -16.1876,-105.83379 V -62.10583 c 0,-38.5793 -4.35,-74.09291 6.5912,-107.76701 11.4584,-35.1367 -21.8479,-121.77655 0,-151.8196 84.9634,-116.72832 153.6449,-53.7184 258.4906,-63.85886 38.7849,-3.77009 70.8804,-10.74876 110.7885,-10.74876 17.124,0 37.5687,9.05088 54.9725,10.74876 77.5711,-17.92128 118.6489,-11.36374 158.6499,44.4282 6.0873,32.82516 -3.5542,90.45936 -3.5542,122.67086 0,17.3572 -9.6415,38.5806 -11.4584,56.2666 -9.363,90.59971 43.1825,193.13275 17.2168,281.84744 -9.8272,98.0049 -123.9816,73.8109 -215.8213,73.8109 -17.1239,0 -54.5521,10.2273 -72.05,10.2273 -53.897,0 -92.8688,-20.9881 -145.1293,-20.9881 -10.0526,0 -34.2466,10.468 -44.0711,8.6364 -46.1771,0 -92.028,7.6872 -98.4376,-36.7878"
       style="fill:#782d00;fill-opacity:1;fill-rule:nonzero;stroke:none;stroke-width:46.97400665"
       id="path6282"
       inkscape:connector-curvature="0" />
    <path
       d="M 404.32897,-64.164377 C 387.43911,5.3676345 369.97089,75.333374 345.47775,142.60513 l -2.49624,5.91982 c -1.22766,1.58226 -9.00282,6.9292 -10.92616,7.55664 L 325.31687,156.9 c -2.16886,-0.2728 -5.5381,-0.13639 -7.55692,-0.81841 -1.36407,-0.4092 -10.96708,-6.64275 -11.78552,-7.55664 -0.68203,-0.8184 -3.71025,-7.65212 -4.18768,-9.00249 l -1.67779,-4.47396 v -6.73822 l 0.81843,-2.49615 c 3.17827,-37.244359 37.82415,-125.97757018 55.4847,-160.526711 l 15.15749,-35.319793 2.49624,-0.818355 -2.49624,-0.818455 -6.73847,0.818455 1.67779,-1.732317 -7.59784,1.732317 4.22861,-3.410031 -10.10772,3.410031 c -0.27283,-4.665015 0.40921,-9.670855 0.81843,-14.338572 l 1.39134,-2.496168 2.79634,-5.046842 c 1.44591,-1.882328 5.5381,-5.483272 7.55691,-7.556609 l -52.11545,-12.60346 c -8.90734,-2.11424 -17.90062,-5.9608 -26.89936,-8.41597 l -5.86548,-2.49617 -2.49623,-2.49617 c -0.27283,-2.40066 -0.81845,-5.19685 -0.81845,-7.59752 0,-6.58823 4.03763,-15.73526 9.23472,-20.16145 l 9.23472,4.22838 c 9.6303,3.36913 19.48976,6.92917 29.45017,9.23442 l 57.16795,13.42181 58.80483,-65.53814 c 4.76058,-5.72879 13.76205,-13.18998 20.20999,-16.84283 35.56254,-19.43992 76.89779,-31.13221 117.6574,-26.89833 2.30528,-0.68204 4.56963,-1.58221 6.73848,-2.49617 l 1.67781,-3.36913 10.10772,-35.27059 c 3.46472,-12.69896 11.59454,-29.4982 20.16224,-39.55507 4.62417,-5.38786 10.96708,-9.86187 15.97593,-15.10923 7.55692,-5.63338 19.29743,-11.49858 28.58398,-13.4764 4.62417,-0.54565 14.14808,-2.16875 18.47898,-1.67772 1.69144,0.27282 4.28316,0.27282 5.86547,0.81835 l 4.22861,2.49616 3.31468,5.04686 c 0.95484,1.97783 2.16887,6.16532 1.67779,8.41596 l -2.49623,24.39676 c -0.27282,1.22759 1.09125,5.76979 1.6778,6.68365 0.68203,1.09127 2.49624,3.12361 3.36925,4.22849 l 3.36923,2.49616 2.49624,3.36903 0.81844,4.18758 -4.2286,17.6599 c 1.58231,0.40924 5.34713,0.95477 6.73848,1.67772 l 4.18768,3.36912 2.49624,5.04685 c -9.52118,4.71951 -21.31761,7.99314 -31.90548,9.23432 -0.0968,3.90117 -4.43322,8.62059 -8.41629,12.60355 l -5.86547,1.69132 c -5.44262,19.87375 -12.65852,39.98751 -21.02842,58.80128 -6.01553,14.7737 -20.83746,32.67362 -33.63784,42.05666 -32.33652,23.09685 -71.89304,41.285989 -109.23432,54.615092 6.26106,3.219117 29.16099,16.024486 32.77029,21.029025 l 13.47697,12.603553 c 2.64629,2.591576 20.59601,20.690703 22.6653,21.027625 l 16.84211,12.603454 0.81844,5.0468416 c -1.88241,3.1782154 -3.71026,7.1201824 -5.86548,10.0527811 -2.35984,3.1782153 -5.72907,6.3017273 -8.41628,9.2344253 -33.15496,-29.063069 -73.52855,-56.53973 -110.96668,-79.830308 -16.12051,3.08271 -34.83958,5.960703 -51.24927,5.046841 l -2.5508,3.369129 -3.36925,-0.818455 -1.67779,-5.046843 h -2.49624"
       style="fill:#ffffff;fill-opacity:1;fill-rule:nonzero;stroke:none;stroke-width:48.12027359"
       id="path5884"
       inkscape:connector-curvature="0" />
    <circle
       style="opacity:1;fill:#782d00;fill-opacity:1;fill-rule:nonzero;stroke:none;stroke-width:0.08453856;stroke-linecap:butt;stroke-linejoin:miter;stroke-miterlimit:4;stroke-dasharray:none;stroke-opacity:1;paint-order:stroke fill markers"
       id="path853"
       cx="666.59998"
       cy="-270.89999"
       r="5" />
  </g>
</svg>
