<?xml version="1.0" encoding="UTF-8" standalone="no"?>
<!-- Created with Inkscape (http://www.inkscape.org/) -->

<svg
   xmlns:dc="http://purl.org/dc/elements/1.1/"
   xmlns:cc="http://creativecommons.org/ns#"
   xmlns:rdf="http://www.w3.org/1999/02/22-rdf-syntax-ns#"
   xmlns:svg="http://www.w3.org/2000/svg"
   xmlns="http://www.w3.org/2000/svg"
   xmlns:sodipodi="http://sodipodi.sourceforge.net/DTD/sodipodi-0.dtd"
   xmlns:inkscape="http://www.inkscape.org/namespaces/inkscape"
   width="602mm"
   height="602mm"
   viewBox="0 0 602 602"
   version="1.1"
   id="svg8781"
   inkscape:version="0.92.2 (5c3e80d, 2017-08-06)"
   sodipodi:docname="SADC_road_sign_GFS_A3-1.svg">
  <defs
     id="defs8775" />
  <sodipodi:namedview
     id="base"
     pagecolor="#ffffff"
     bordercolor="#666666"
     borderopacity="1.0"
     inkscape:pageopacity="0.0"
     inkscape:pageshadow="2"
     inkscape:zoom="0.35"
     inkscape:cx="690.71389"
     inkscape:cy="1539.3179"
     inkscape:document-units="mm"
     inkscape:current-layer="layer1"
     showgrid="false"
     showguides="true"
     inkscape:window-width="1920"
     inkscape:window-height="1057"
     inkscape:window-x="-8"
     inkscape:window-y="-8"
     inkscape:window-maximized="1"
     inkscape:snap-global="false" />
  <metadata
     id="metadata8778">
    <rdf:RDF>
      <cc:Work
         rdf:about="">
        <dc:format>image/svg+xml</dc:format>
        <dc:type
           rdf:resource="http://purl.org/dc/dcmitype/StillImage" />
        <dc:title></dc:title>
      </cc:Work>
    </rdf:RDF>
  </metadata>
  <g
     inkscape:label="Layer 1"
     inkscape:groupmode="layer"
     id="layer1"
     transform="translate(0,305)">
    <path
       d="M 18.209834,246.8609 C 16.857104,237.4357 2.0221746,142.58318 2.0221746,141.02708 V 30.19318 c 0,-38.5793 -4.34995,-74.0929 6.59124,-107.767 11.4584094,-35.1367 -21.8478906,-121.77652 0,-151.81957 84.9633194,-116.72832 153.6448154,-53.7184 258.4905654,-63.85886 38.7849,-3.77009 70.8804,-10.74876 110.7885,-10.74876 17.124,0 37.5687,9.05088 54.9725,10.74876 77.5711,-17.92128 118.6489,-11.36374 158.6499,44.4282 6.0873,32.82516 -3.5542,90.45936 -3.5542,122.67083 0,17.3572 -9.6415,38.5806 -11.4584,56.2666 -9.363,90.5997 43.1825,193.1327 17.2168,281.84742 -9.8272,98.0049 -123.9816,73.8109 -215.8213,73.8109 -17.1239,0 -54.5521,10.2273 -72.05,10.2273 -53.897,0 -92.86885,-20.9881 -145.12928,-20.9881 -10.05264,0 -34.24659,10.468 -44.07111,8.6364 -46.177126,0 -92.028006,7.6872 -98.437556,-36.7878"
       style="fill:#782d00;fill-opacity:1;fill-rule:nonzero;stroke:none;stroke-width:46.97400665"
       id="path6282"
       inkscape:connector-curvature="0" />
    <path
       d="m 272.65464,-141.10614 c -1.88471,-3.20826 -3.39515,-8.02065 -3.39515,-11.73689 0,-9.66489 6.84376,-18.06252 15.98524,-20.18398 l 72.28845,-16.83535 -30.2729,-44.51865 -168.11566,128.5965 c -1.41688,2.40619 -1.20301,3.54245 -0.80201,4.19747 l 18.48481,18.486271 1.6441,2.499773 c -0.26733,0.802062 -0.53466,1.844749 -0.802,2.539873 l -10.09185,10.092661 -3.39514,0.802062 -2.49958,-1.697702 -21.87995,-32.775068 -0.802,-2.49977 0.802,-3.39542 c 1.45697,-1.88485 179.05364,-136.9901 179.05364,-136.9901 -0.26734,-1.2031 -0.80201,-3.02111 -0.80201,-4.19748 v -5.03964 l 0.80201,-2.53987 c 1.20299,-0.93575 2.83374,-2.59335 4.19714,-3.34195 l 5.03925,-1.6576 c 1.51043,0 3.54217,0.53472 5.03924,0.80207 2.68671,0.26736 5.70758,0.80206 8.39429,0.80206 2.68671,0 5.70758,-0.5347 8.39428,-0.80206 h 5.89472 l 1.69757,2.55324 42.01422,56.30767 0.80199,3.34194 c -0.26733,0.80206 -1.33667,2.64681 -1.69756,3.39541 -0.40101,0.80207 -1.41688,4.29105 -1.69758,4.99954 0.80201,1.45709 1.75104,3.76971 2.53967,5.03965 l 5.89472,5.09311 1.65747,2.49978 v 2.49976 l -5.05261,6.73736 c -0.93567,0.80206 -5.42688,2.59334 -6.69672,3.34193 l -26.92588,10.09266 40.36476,104.220379 -84.87854,-15.137647 -51.25729,-75.642792"
       style="fill:#ffffff;fill-opacity:1;fill-rule:nonzero;stroke:none;stroke-width:47.15660858"
       id="path6363"
       inkscape:connector-curvature="0"
       sodipodi:nodetypes="cscccccccccccccccscccccsccccccccccccccccc" />
    <path
       d="M 328.95785,242.999 C 359.7975,177.59056 413.97809,38.190242 412.98761,-36.885756 L 325.5627,-52.023403 305.42711,52.196985 236.48702,151.41783 c -2.63324,3.63602 -4.19714,8.95639 -4.19714,13.43994 0,10.22633 6.73681,17.68421 15.13779,22.68375 L 346.59387,62.335085 357.52783,22.81599 359.1853,65.683709 309.62559,201.83031 c -0.13367,0.80206 -1.69757,8.02066 -1.69757,8.39495 v 7.59289 c 0,1.06943 0.53466,1.6977 0.802,2.7805 2.92731,9.75846 10.70673,17.91947 20.18238,22.40035"
       style="fill:#ffffff;fill-opacity:1;fill-rule:nonzero;stroke:none;stroke-width:47.15660858"
       id="path6365"
       inkscape:connector-curvature="0" />
    <circle
       style="opacity:1;fill:#ffffff;fill-opacity:1;fill-rule:nonzero;stroke:none;stroke-width:0.28134203;stroke-linecap:butt;stroke-linejoin:miter;stroke-miterlimit:4;stroke-dasharray:none;stroke-opacity:1;paint-order:stroke fill markers"
       id="path848"
       cx="282.00101"
       cy="-219.00101"
       r="30" />
  </g>
</svg>
