<?xml version="1.0" encoding="UTF-8" standalone="no"?>
<!-- Created with Inkscape (http://www.inkscape.org/) -->

<svg
   xmlns:dc="http://purl.org/dc/elements/1.1/"
   xmlns:cc="http://creativecommons.org/ns#"
   xmlns:rdf="http://www.w3.org/1999/02/22-rdf-syntax-ns#"
   xmlns:svg="http://www.w3.org/2000/svg"
   xmlns="http://www.w3.org/2000/svg"
   xmlns:sodipodi="http://sodipodi.sourceforge.net/DTD/sodipodi-0.dtd"
   xmlns:inkscape="http://www.inkscape.org/namespaces/inkscape"
   width="978mm"
   height="602mm"
   viewBox="0 0 978 602.00001"
   version="1.1"
   id="svg8781"
   inkscape:version="0.92.2 (5c3e80d, 2017-08-06)"
   sodipodi:docname="22.svg">
  <defs
     id="defs8775" />
  <sodipodi:namedview
     id="base"
     pagecolor="#ffffff"
     bordercolor="#666666"
     borderopacity="1.0"
     inkscape:pageopacity="0.0"
     inkscape:pageshadow="2"
     inkscape:zoom="0.18958994"
     inkscape:cx="2410.6493"
     inkscape:cy="659.81702"
     inkscape:document-units="mm"
     inkscape:current-layer="layer1"
     showgrid="false"
     showguides="true"
     inkscape:window-width="1920"
     inkscape:window-height="1057"
     inkscape:window-x="-8"
     inkscape:window-y="-8"
     inkscape:window-maximized="1"
     inkscape:snap-global="true"
     fit-margin-top="0"
     fit-margin-left="0"
     fit-margin-right="0"
     fit-margin-bottom="0" />
  <metadata
     id="metadata8778">
    <rdf:RDF>
      <cc:Work
         rdf:about="">
        <dc:format>image/svg+xml</dc:format>
        <dc:type
           rdf:resource="http://purl.org/dc/dcmitype/StillImage" />
        <dc:title></dc:title>
      </cc:Work>
    </rdf:RDF>
  </metadata>
  <g
     inkscape:label="Layer 1"
     inkscape:groupmode="layer"
     id="layer1"
     transform="translate(-84.340927,375.44855)">
    <path
       d="m 223.30196,214.60415 -90.85521,-45.4375 c -4.3649,-8.6365 -45.427597,-89.29179 -45.427597,-90.87499 v -112.7546 c 0,-39.2477 -6.1462,-187.84311 5.0856,-222.10211 24.656897,-75.1852 -4.9904,-111.2177 153.936807,-106.9484 34.2026,0.952 78.4785,3.3593 113.5445,0 17.8934,-1.7273 38.8558,-10.9351 56.4133,-10.9351 h 56.3643 c 12.1428,0 125.9702,14.7786 130.4316,20.1999 14.343,-17.3696 105.1016,-6.814 130.3827,-9.2621 17.8444,-1.7273 38.8558,-10.9351 56.4119,-10.9351 h 56.3657 c 17.8444,0 39.0951,9.167 57.2278,10.9351 58.763,5.6579 96.5635,0.544 135.46694,57.1926 7.1524,33.1071 22.6907,79.7918 22.6907,112.8022 0,17.8497 -9.2058,39.105 -10.9327,57.2416 -8.825,91.59451 16.501,193.84121 -11.7485,282.7495 -12.4284,52.1549 -36.2654,72.0189 -135.46694,79.0722 h -57.2278 c -17.5575,0 -38.5199,-9.1669 -56.3657,-10.935 -61.5926,-5.9435 -130.622,0 -192.696,0 l -6.7173,-3.3594 c -1.8221,4.2163 -55.2126,14.2985 -61.4486,14.2985 h -56.3656 c -17.5562,0 -38.5199,-9.1669 -56.3644,-10.935 -61.5451,-5.9436 -130.622,0 -192.696,0"
       style="fill:#782d00;fill-opacity:1;fill-rule:nonzero;stroke:none;stroke-width:47.97531128"
       id="path6315"
       inkscape:connector-curvature="0" />
    <path
       d="m 881.87009,-108.89807 c 22.81867,20.881622 31.59822,50.28776 31.59822,80.269533 0,20.3073429 -14.24298,59.245367 -32.45442,69.973316 C 847.3499,87.41847 804.1083,134.68959 757.94093,168.55145 h -487 c 159.66276,-29.07216 373.07959,-97.799175 504.10683,-195.503325 14.05271,-8.715946 27.42589,-21.552282 35.86567,-35.824984 1.35906,-3.733468 2.31041,-7.99641 2.58221,-11.974245 -1.49497,-3.733468 -3.26175,-7.521242 -5.16444,-11.064638 l -12.77518,-13.698435 c -26.89586,-15.709073 -55.08282,-33.286253 -84.61525,-43.487433 -41.42424,-17.62464 -84.72398,-32.66444 -128.15963,-44.39837 1.35907,-9.09607 -3.26175,-21.45592 -9.37753,-28.20874 111.47033,14.03244 211.7284,50.43174 308.52085,106.70793"
       style="fill:#ffffff;fill-opacity:1;fill-rule:nonzero;stroke:none;stroke-width:47.9193306"
       id="path6407"
       inkscape:connector-curvature="0"
       sodipodi:nodetypes="cscccccccccccc" />
    <path
       d="m 297.37799,-79.01269 c 22.58762,25.527412 34.57451,60.969549 34.99583,94.733665 -5.16445,-3.692738 -11.28027,-10.6845049 -14.5284,-16.18695508 l -5.16445,6.80169468 c 15.7244,23.5154184 23.91952,50.3366344 23.91952,78.5467094 0,18.917146 -6.11581,40.325516 -14.47403,57.184496 1.495,-0.27153 3.66945,-0.27153 5.02854,-0.81458 l 5.16445,-2.53875 3.39763,-4.26295 1.3591,-2.57947 c 1.63091,-1.81923 6.93127,-5.07752 9.37753,-5.07752 4.349,0 13.45472,3.8828 14.48763,8.52587 l 2.58217,2.53876 4.21309,1.72419 h 4.21308 c 2.31046,-1.22186 4.75672,-3.73347 5.97991,-5.98713 v -4.26294 l -1.35909,-2.53875 c -6.38754,-8.52589 -9.92108,-20.25847 -11.14426,-30.747481 0,-5.932816 1.35909,-12.014974 1.35909,-17.912491 0,-5.077515 0,-10.345102 -1.35909,-15.37374 -3.66945,-9.001044 -5.16445,-19.34886 -5.16445,-29.02329 V 18.361551 c 0,-11.6891382 7.88253,-29.932898 13.71294,-40.134088 9.10572,-15.566516 20.71216,-30.604925 37.59169,-38.411264 15.7244,-7.046062 26.95021,-19.397735 29.91296,-36.687074 h -19.65201 c -1.3591,1.086092 -2.44637,3.299029 -3.39773,4.262932 -1.63082,1.534119 -4.89264,3.692738 -6.79527,5.131821 -13.80807,11.010341 -28.37724,21.264469 -42.76973,31.562052 -1.35909,1.914252 -6.11581,7.616277 -7.61071,8.525885 -2.71819,1.778486 -10.3289,3.44836 -13.67217,3.44836 -2.03864,0 -4.62081,-0.543052 -6.79536,-0.814572 l -27.33075,-41.810759 -16.19997,7.657006"
       style="fill:#ffffff;fill-opacity:1;fill-rule:nonzero;stroke:none;stroke-width:47.9193306"
       id="path6409"
       inkscape:connector-curvature="0" />
    <path
       d="m 874.15062,-203.63312 c -3.94128,4.73811 -7.61075,19.68418 -7.61075,25.62382 v 11.06468 c 0,0.40728 2.31041,10.10073 2.58222,11.1053 l 1.35906,12.8432 c 0,2.67449 2.0386,9.86984 3.39766,11.9199 1.63087,2.48441 8.42619,7.80631 11.14432,9.38118 l -2.58223,4.26294 -10.32887,-9.38119 -2.58222,2.53871 -17.06983,-9.34035 c 0,-2.15867 1.35906,-4.73811 1.35906,-6.84247 0,-19.10988 -3.94128,-31.51454 -13.65858,-47.79919 l 3.39765,-3.39414 c 1.35907,1.22189 1.63088,3.16333 2.58223,4.26294 1.35906,1.58844 3.66947,3.59777 5.16444,5.07752 1.63087,-17.7686 -8.69801,-40.18296 -19.61128,-53.73743 l 9.37754,-4.26294 15.38458,23.8996 c 1.90269,0.13577 8.69801,-0.13577 10.32888,-0.81459 1.49497,-0.67883 5.30035,-4.26293 5.97988,-5.98715 2.71812,-2.00922 22.92739,-16.57116 23.93309,-17.91244 l 5.16444,-5.11826 h 11.95975 c 0,2.63375 -3.66947,10.10075 -5.16443,11.9199 -1.90269,2.53881 -8.83391,7.18189 -11.95976,8.58017 -8.8339,5.07753 -16.83878,13.12832 -21.39164,22.17408"
       style="fill:#ffffff;fill-opacity:1;fill-rule:nonzero;stroke:none;stroke-width:47.9193306"
       id="path6411"
       inkscape:connector-curvature="0" />
    <path
       d="m 967.31438,-219.00685 h 6.79531 c 4.07719,-1.08612 12.23157,-8.71593 13.67218,-12.7888 l 1.35906,-6.84247 c 0,-2.48441 -1.35906,-7.33113 -2.58223,-9.38119 -7.33893,-9.19111 -9.51343,-8.6209 0,-19.63666 1.35907,-1.72412 2.58223,-11.53975 2.58223,-13.64951 l -1.76679,-6.80174 -3.39765,-4.31725 c 0,-2.15856 -1.35906,-5.45766 -1.35906,-7.65696 0,-1.81925 -1.49497,-7.99638 -2.58223,-9.39477 l -2.85403,-2.29443 -2.1745,-1.08603 c -2.85403,-0.0489 -9.78525,-1.81925 -11.95975,-3.44843 -1.35906,-0.54297 -5.84397,-7.14105 -6.93122,-8.52587 l -2.58222,-3.39403 -3.39766,-1.72422 h -4.349 l -2.58222,1.72422 c -2.71812,-0.13577 -13.31881,-1.53415 -15.38459,-2.57944 0,-0.13576 -6.6594,-5.70205 -7.61075,-6.80175 l -5.16444,-4.26293 c -1.76678,-0.81459 -11.55203,-2.57944 -13.67217,-2.57944 l -5.97988,1.72412 c -2.1745,0.54306 -4.62081,1.43911 -6.79531,1.68349 -1.90269,0.27153 -4.2131,0 -5.97988,0 l -11.95975,-3.40761 h -4.21309 l -4.2131,1.72412 -3.39766,3.40761 c -2.31041,1.53415 -5.30034,4.01865 -7.74666,5.13183 -2.03859,0.95036 -16.63492,4.26294 -18.79583,4.26294 -2.98994,0 -6.3876,-0.54297 -9.37754,-0.8145 l -3.39766,-2.53881 h -3.39765 l -5.16444,3.39403 c -7.88256,1.43912 -16.73006,3.97793 -23.91951,7.71137 -2.85402,0.4073 -7.61075,2.91886 -9.37753,5.07753 l -1.63088,3.44834 -1.35906,6.80164 c 0,0.67883 1.63088,5.70205 2.58223,5.98716 0,1.53414 0,3.69272 -1.35907,5.11825 l -2.58222,5.11825 -2.85403,2.25361 c -2.98994,1.22189 -7.88257,1.81926 -9.10572,2.87822 -1.90269,0 -5.02853,-0.27153 -6.79531,0 -1.35907,0.13577 -3.80538,1.2219 -5.16444,1.72413 -5.16444,1.57488 -8.698,5.5527 -11.14432,10.19577 l -1.35906,7.71138 c 0,0.81449 0,1.22179 0,2.00922 l 1.35906,3.97783 c 1.35906,2.67457 5.84397,6.3673 8.56209,7.65706 4.62081,1.62909 21.33729,6.74735 25.64552,5.98706 2.1745,-0.27153 4.75672,-0.8146 6.93122,-0.8146 3.26175,0 12.50338,3.92363 14.5148,6.84248 3.26175,1.9143 8.15437,3.40761 11.95975,3.40761 1.76678,0 8.42619,-2.1993 10.19297,-3.40761 9.64934,-2.44368 19.89668,-5.3219 29.05676,-9.43549 l 8.56209,-2.53871 3.39766,3.40761 -3.39766,0.81459 c -1.35906,0.95026 -2.03859,2.34864 -2.58222,3.39403 l -1.35906,3.44835 1.76678,2.53881 4.2131,0.81448 5.16444,-2.53871 c 6.25168,-2.87812 39.31769,-15.08592 44.40058,-13.6495 l 5.16444,-0.8146 c 4.349,1.91419 8.29028,5.89202 10.19297,10.19579 l -1.35906,4.30366 c 0,3.54337 2.71812,8.43082 5.02853,11.06457 l 3.39765,2.87823 5.70807,3.10893 c 1.35906,0.27153 2.58221,1.22188 3.66947,0.81459 l 11.95975,0.81459 15.38459,2.53871"
       style="fill:#ffffff;fill-opacity:1;fill-rule:nonzero;stroke:none;stroke-width:47.9193306"
       id="path6413"
       inkscape:connector-curvature="0" />
    <path
       d="m 565.68413,-192.52092 c 0,-3.25827 0,-9.91067 -1.63088,-12.82953 -1.76678,-3.35341 -7.47483,-7.95575 -11.14431,-9.38119 -13.9168,0.13577 -27.76565,-7.90145 -32.50878,-21.31337 -2.44631,-4.5073 -7.20304,-7.27691 -11.95975,-8.86527 -5.02854,-0.54307 -9.51344,0.54306 -11.95976,2.87813 -9.24163,1.22188 -21.09265,-2.06353 -29.04317,-6.84238 -3.80538,-2.29443 -7.33894,-5.83782 -11.14432,-8.52587 -5.84396,-6.23152 -12.77518,-9.7206 -20.80725,-11.92 -1.35906,-0.27153 -1.90269,-0.81458 -3.12584,-0.81458 h -8.56212 c -1.35899,0 -10.05708,1.57487 -11.14426,2.53881 -5.43627,1.96849 -12.23163,3.40761 -17.98039,3.40761 -1.35909,0 -2.99,-0.54307 -4.21318,-0.81459 -5.8439,-0.95036 -16.78439,-2.72879 -22.19348,-5.13183 -1.76672,-0.27154 -4.21308,-0.8146 -5.9798,-0.8146 l -5.97991,0.8146 -5.16445,3.39413 -3.39763,5.13173 c -14.29735,9.96497 -30.30716,16.23584 -47.85264,16.23584 -2.31035,0 -13.45471,-0.54307 -15.39821,-1.72412 -2.58218,-1.9686 -6.25162,-3.59778 -9.37754,-4.26294 -4.34899,0.67873 -10.05698,3.16324 -12.77516,6.80166 -14.33813,2.68815 -28.33648,7.5212 -41.89992,12.82952 -7.4748,2.15866 -15.87379,6.51664 -18.79584,14.22382 l -1.63081,4.54803 v 6.80175 c 0,4.01856 1.35899,9.15039 4.21308,11.97421 0,8.62099 -6.65945,21.07308 -14.52839,24.7604 -3.26172,1.47984 -10.05708,2.29434 -13.65858,2.53872 -2.58227,0 -5.9799,-0.27153 -8.56208,0 -2.71818,0.40729 -9.37753,2.63384 -11.95981,4.26292 -12.36744,2.25371 -21.37802,16.23585 -21.37802,28.20875 0,10.5352 5.16445,18.72708 13.94399,24.18745 1.35909,0.81457 3.12581,2.00928 4.89263,2.25365 13.71294,7.71131 30.00805,9.435489 45.29754,11.105373 2.9899,-0.27153 6.38763,-0.814582 9.37754,-0.814582 11.41617,0 20.37239,4.887453 29.05679,11.974255 3.39763,2.294385 11.28016,5.077515 15.38452,5.077515 h 8.56218 c 2.03854,0 12.36744,-4.697382 14.5283,-5.932827 10.46481,-2.063583 43.15028,-10.874566 51.25026,-16.237184 4.75673,-1.53411 9.64936,-3.25829 14.5284,-4.26294 l 3.39763,0.81458 2.58228,2.53875 v 2.59307 l -4.21309,0.81457 -4.21309,3.394063 c -1.35909,1.221858 -2.44636,6.856001 -2.58227,8.525875 l 2.58227,5.118245 5.16445,1.72419 c 6.11572,-1.086103 7.20299,-2.294395 11.14426,-4.262942 24.59907,-11.87922 51.97059,-19.733081 78.58103,-25.623811 3.12584,-0.13576 10.8725,-0.0964 13.71294,0.81458 1.35906,0.27153 1.35906,0.67881 1.90269,1.0861 l 3.94129,2.29439 c 4.89262,4.07286 7.74665,11.689143 7.74665,17.912488 l -1.35906,2.593068 c 1.49496,17.289339 14.10707,29.070807 30.78277,32.424142 l 21.33729,1.669874 c 8.83391,0.407286 18.9861,1.384776 27.37152,4.303671 20.76648,2.15862 39.27692,-12.829556 39.27692,-34.148322 0,-7.426205 -5.70807,-22.174081 -12.77519,-25.622441 l -3.39766,-3.39407 c 0,-1.53411 -1.35906,-3.63843 -1.35906,-5.13182 v -4.26293 l 2.58221,-4.26293 c 1.63088,-1.62919 6.2517,-3.40761 8.5621,-3.40761 4.2131,-3.8829 10.19298,-13.79347 10.19298,-19.68429 v -7.65696 c 0,-4.35797 -5.30035,-11.6891 -8.5621,-14.51163 l -1.63088,-2.00932 -3.39766,-3.97782 c 0,-0.8146 0,-1.38481 -1.35906,-2.25361 -2.0386,-5.41693 -1.90269,-8.33589 -2.58221,-13.93602"
       style="fill:#ffffff;fill-opacity:1;fill-rule:nonzero;stroke:none;stroke-width:47.9193306"
       id="path6415"
       inkscape:connector-curvature="0" />
  </g>
</svg>
