<?xml version="1.0" encoding="UTF-8" standalone="no"?>
<!-- Created with Inkscape (http://www.inkscape.org/) -->

<svg
   xmlns:dc="http://purl.org/dc/elements/1.1/"
   xmlns:cc="http://creativecommons.org/ns#"
   xmlns:rdf="http://www.w3.org/1999/02/22-rdf-syntax-ns#"
   xmlns:svg="http://www.w3.org/2000/svg"
   xmlns="http://www.w3.org/2000/svg"
   xmlns:sodipodi="http://sodipodi.sourceforge.net/DTD/sodipodi-0.dtd"
   xmlns:inkscape="http://www.inkscape.org/namespaces/inkscape"
   width="978mm"
   height="602mm"
   viewBox="0 0 978 602.00001"
   version="1.1"
   id="svg8781"
   inkscape:version="0.92.2 (5c3e80d, 2017-08-06)"
   sodipodi:docname="22.svg">
  <defs
     id="defs8775" />
  <sodipodi:namedview
     id="base"
     pagecolor="#ffffff"
     bordercolor="#666666"
     borderopacity="1.0"
     inkscape:pageopacity="0.0"
     inkscape:pageshadow="2"
     inkscape:zoom="0.18958994"
     inkscape:cx="2308.9283"
     inkscape:cy="871.4479"
     inkscape:document-units="mm"
     inkscape:current-layer="layer1"
     showgrid="false"
     showguides="true"
     inkscape:window-width="1920"
     inkscape:window-height="1057"
     inkscape:window-x="-8"
     inkscape:window-y="-8"
     inkscape:window-maximized="1"
     inkscape:snap-global="true"
     fit-margin-top="0"
     fit-margin-left="0"
     fit-margin-right="0"
     fit-margin-bottom="0" />
  <metadata
     id="metadata8778">
    <rdf:RDF>
      <cc:Work
         rdf:about="">
        <dc:format>image/svg+xml</dc:format>
        <dc:type
           rdf:resource="http://purl.org/dc/dcmitype/StillImage" />
        <dc:title></dc:title>
      </cc:Work>
    </rdf:RDF>
  </metadata>
  <g
     inkscape:label="Layer 1"
     inkscape:groupmode="layer"
     id="layer1"
     transform="translate(-84.340927,375.44855)">
    <path
       d="m 223.30196,214.60415 -90.85521,-45.4375 c -4.3649,-8.6365 -45.427597,-89.29179 -45.427597,-90.87499 v -112.7546 c 0,-39.2477 -6.1462,-187.84311 5.0856,-222.10211 24.656897,-75.1852 -4.9904,-111.2177 153.936807,-106.9484 34.2026,0.952 78.4785,3.3593 113.5445,0 17.8934,-1.7273 38.8558,-10.9351 56.4133,-10.9351 h 56.3643 c 12.1428,0 125.9702,14.7786 130.4316,20.1999 14.343,-17.3696 105.1016,-6.814 130.3827,-9.2621 17.8444,-1.7273 38.8558,-10.9351 56.4119,-10.9351 h 56.3657 c 17.8444,0 39.0951,9.167 57.2278,10.9351 58.763,5.6579 96.5635,0.544 135.46694,57.1926 7.1524,33.1071 22.6907,79.7918 22.6907,112.8022 0,17.8497 -9.2058,39.105 -10.9327,57.2416 -8.825,91.59451 16.501,193.84121 -11.7485,282.7495 -12.4284,52.1549 -36.2654,72.0189 -135.46694,79.0722 h -57.2278 c -17.5575,0 -38.5199,-9.1669 -56.3657,-10.935 -61.5926,-5.9435 -130.622,0 -192.696,0 l -6.7173,-3.3594 c -1.8221,4.2163 -55.2126,14.2985 -61.4486,14.2985 h -56.3656 c -17.5562,0 -38.5199,-9.1669 -56.3644,-10.935 -61.5451,-5.9436 -130.622,0 -192.696,0"
       style="fill:#782d00;fill-opacity:1;fill-rule:nonzero;stroke:none;stroke-width:47.97531128"
       id="path6315"
       inkscape:connector-curvature="0" />
    <path
       d="M 830.87086,50.598407 V 173.74365 H 756.4575"
       style="fill:#ffffff;fill-opacity:1;fill-rule:nonzero;stroke:none;stroke-width:48.96022797"
       id="path5790"
       inkscape:connector-curvature="0"
       sodipodi:nodetypes="ccc" />
    <path
       d="m 400.74108,-100.79876 c -1.41549,2.942477 -3.96893,8.563708 -6.02278,11.117552 -18.89685,-1.70719 -27.02345,10.229257 -37.64798,23.110906 -2.6367,3.233941 -5.92565,6.065375 -8.52072,9.39648 -14.78498,18.899832 -23.25434,45.977528 -41.90695,61.5476458 L 289.55819,21.510956 c -7.20236,6.703837 -14.5893,13.421557 -21.39477,20.516805 -3.58037,2.345646 -11.06028,6.218049 -15.37199,6.856515 0,-10.034942 0.83264,-58.2193214 -9.4505,-62.430386 33.0948,-6.953673 40.19309,-13.71303 63.30033,-36.819775 19.92517,-20.956789 28.39453,-40.640824 59.57981,-48.425888 3.48322,-0.832771 8.77052,-2.845317 12.23986,-2.845317 h 14.54073 c 2.44243,0 5.28729,0.55519 7.72971,0.83278"
       style="fill:#ffffff;fill-opacity:1;fill-rule:nonzero;stroke:none;stroke-width:48.96022797"
       id="path5794"
       inkscape:connector-curvature="0" />
    <path
       d="m 387.86564,51.431179 h 13.71086 l 22.22604,-1.721073 c 32.89913,-9.354839 57.13183,-28.69188 72.40667,-59.2949867 3.37221,-6.7593573 6.60565,-13.5603523 7.97951,-21.1039123 35.78702,2.304008 72.79802,6.21806 107.7524,14.543031 42.59248,2.248498 85.62489,-13.324399 111.18011,-48.768706 l 21.10057,0.555181 c 22.71452,0.555191 50.03217,0.971577 53.31278,29.378925 l 13.65536,30.7988124 C 799.14435,7.6160926 785.73325,18.439398 772.71071,29.162765 c -1.38775,1.110371 -2.4008,2.845317 -3.42772,4.261033 -0.5551,2.498324 0.41632,6.467895 1.70692,8.563705 2.01221,1.249167 4.51015,2.248499 6.85543,2.539972 0.83265,-0.27759 3.622,-1.110372 4.26036,-1.707191 l 39.36045,-29.916061 c 4.8432,-3.678098 13.01699,-9.3548489 11.11579,-17.0885531 L 815.49609,-73.468465 c -0.5551,-0.971566 -1.11019,-2.595481 -1.72079,-3.428252 -0.83265,-1.249167 -3.77466,-3.580941 -5.13464,-4.261034 l -47.87978,-23.992259 c 0.27754,-5.0383 0.83265,-10.32642 0.83265,-15.37442 0,-22.81804 -7.59094,-47.05457 -18.79832,-66.68868 9.25622,-15.08154 21.49192,-31.33729 37.59802,-39.36804 12.87822,10.96488 27.80752,16.74574 44.50063,18.80271 21.1991,2.63708 30.94103,17.96986 50.42628,17.96986 h 5.13464 c 6.41136,-4.26098 10.28315,-4.99661 10.28315,-13.65747 0,-2.10969 0.0985,-4.10835 -0.83265,-6.02381 -3.17793,-6.37065 -20.7578,-28.25182 -26.48639,-37.60392 -6.79992,-11.062 -11.15742,-24.48225 -19.67953,-34.22571 -3.37221,-3.81689 -7.68807,-5.96819 -11.94843,-8.56366 1.38773,-14.59165 -10.47744,-31.68015 -23.98846,-36.77258 1.66529,1.95706 3.42771,5.92658 3.42771,8.56365 v 10.28478 c 0,1.81823 -1.24896,5.73234 -1.70692,7.68929 -2.44242,-3.46983 -5.03749,-7.82802 -7.68807,-11.11752 -1.24897,-1.51288 -2.94201,-2.94243 -4.26036,-4.31658 -0.97142,-0.97158 -2.30365,-2.59548 -3.42772,-3.37272 -2.8865,-2.05417 -7.04972,-3.56704 -10.28314,-5.13543 3.87179,6.41237 4.80157,6.75933 6.31421,14.2488 l 0.55509,2.84531 v 6.85654 c -1.38773,1.38795 -2.40079,4.10835 -2.53956,5.96818 l -2.59507,1.72112 c -18.30983,1.11031 -44.01215,5.92657 -60.70665,13.71299 -24.47833,11.35346 -61.78216,44.16622 -76.95986,66.69001 -11.25456,21.54391 -37.05958,43.08782 -58.16015,54.74112 1.60978,-4.0112 3.17792,-6.70384 4.26036,-11.11755 -2.69221,-7.05083 -1.51264,-8.03628 -8.52072,-11.99192 -14.04947,-7.88364 -28.296,-15.27729 -42.78677,-22.22955 9.74193,-15.57012 19.28818,-31.23887 29.96129,-46.17328 2.34527,14.54304 4.10771,29.28041 7.68807,43.62773 l 5.13464,5.09382 c 0.97141,-0.13883 2.6367,0.27755 3.42771,0.83275 4.06608,-0.41637 8.9648,-2.2068 11.94844,-5.13543 l 39.36045,-29.08469 c -1.91509,-1.91534 -2.24814,-2.40113 -6.02279,-4.26107 h -5.96728 l -2.53956,0.83285 -28.24744,15.42301 -5.13463,-41.91222 c -0.27755,-2.53995 7.72971,-15.71865 7.72971,-22.23093 0,-2.63718 -3.23344,-6.66221 -2.59508,-8.56376 -4.06608,-4.10834 -8.17378,-8.56366 -14.54073,-8.56366 h -3.42771 c -1.56815,0 -5.48157,1.70722 -6.79993,2.59548 -28.39452,13.61587 -51.06186,31.48441 -70.98702,55.86814 -5.53708,6.70382 -12.37864,13.26881 -16.2532,21.10383 l -1.70692,6.85655 c -0.27755,1.1104 -0.83265,3.03965 -0.83265,4.26108 0,17.43136 14.54074,30.89591 30.79394,32.51151 13.84964,1.38796 37.59802,8.2306 47.87978,17.96991 -1.24897,4.80233 -2.34528,9.64631 -3.37221,14.49306 -30.25549,0.83278 -62.02778,5.73227 -91.50059,11.99197 -23.10724,6.46788 -43.71794,26.19634 -54.73243,47.054572 -3.37221,6.27358 -4.84321,13.227253 -7.72971,19.684035 -0.97141,6.759361 -2.10936,13.615876 -1.70692,20.515419 -0.55509,11.311864 -1.38774,23.062327 -3.37221,34.227065 -0.83264,3.8724028 -1.11018,9.5908012 -3.42771,12.82473836 -1.56814,2.10970304 -2.69221,4.80234194 -4.31587,6.80100494 -3.33058,4.1638757 -12.97536,11.7976427 -17.96706,13.7130297 -2.34527,0.971566 -5.23177,2.637119 -7.68807,3.428262 -1.66529,0.555181 -4.16322,0.555181 -5.96728,0.832772 -3.03915,1.915378 -7.59093,3.58093 -11.1158,4.302671 l -37.64797,131.714511 -0.83265,3.37273 v 4.30269 l 2.53957,4.26103 c 2.05385,1.41572 5.23178,2.40116 7.68807,2.59548 l 4.30199,-1.70719 46.16592,-114.624579 c 2.78937,-2.595482 9.06194,-6.176411 12.82272,-6.856515 2.2065,-0.416386 2.01222,0 4.26036,0"
       style="fill:#ffffff;fill-opacity:1;fill-rule:nonzero;stroke:none;stroke-width:48.96022797"
       id="path5796"
       inkscape:connector-curvature="0" />
    <circle
       style="opacity:1;fill:#ffffff;fill-opacity:1;fill-rule:nonzero;stroke:none;stroke-width:0.09512327;stroke-linecap:butt;stroke-linejoin:miter;stroke-miterlimit:4;stroke-dasharray:none;stroke-opacity:1;paint-order:stroke fill markers"
       id="path862"
       cx="628.64093"
       cy="-311.64856"
       r="27.799999" />
  </g>
</svg>
