<?xml version="1.0" encoding="UTF-8" standalone="no"?>
<!-- Created with Inkscape (http://www.inkscape.org/) -->

<svg
   xmlns:dc="http://purl.org/dc/elements/1.1/"
   xmlns:cc="http://creativecommons.org/ns#"
   xmlns:rdf="http://www.w3.org/1999/02/22-rdf-syntax-ns#"
   xmlns:svg="http://www.w3.org/2000/svg"
   xmlns="http://www.w3.org/2000/svg"
   xmlns:sodipodi="http://sodipodi.sourceforge.net/DTD/sodipodi-0.dtd"
   xmlns:inkscape="http://www.inkscape.org/namespaces/inkscape"
   width="600mm"
   height="600mm"
   viewBox="0 0 600 600"
   version="1.1"
   id="svg850"
   inkscape:version="0.92.2 (5c3e80d, 2017-08-06)"
   sodipodi:docname="22.svg">
  <defs
     id="defs844" />
  <sodipodi:namedview
     id="base"
     pagecolor="#ffffff"
     bordercolor="#666666"
     borderopacity="1.0"
     inkscape:pageopacity="0.0"
     inkscape:pageshadow="2"
     inkscape:zoom="0.175"
     inkscape:cx="593.10117"
     inkscape:cy="653.04453"
     inkscape:document-units="mm"
     inkscape:current-layer="layer1"
     showgrid="false"
     fit-margin-top="0"
     fit-margin-left="0"
     fit-margin-right="0"
     fit-margin-bottom="0"
     inkscape:window-width="1920"
     inkscape:window-height="1057"
     inkscape:window-x="-8"
     inkscape:window-y="-8"
     inkscape:window-maximized="1" />
  <metadata
     id="metadata847">
    <rdf:RDF>
      <cc:Work
         rdf:about="">
        <dc:format>image/svg+xml</dc:format>
        <dc:type
           rdf:resource="http://purl.org/dc/dcmitype/StillImage" />
        <dc:title></dc:title>
      </cc:Work>
    </rdf:RDF>
  </metadata>
  <g
     inkscape:label="Layer 1"
     inkscape:groupmode="layer"
     id="layer1"
     transform="translate(0,303)">
    <rect
       style="opacity:1;fill:#782d00;fill-opacity:1;fill-rule:nonzero;stroke:none;stroke-width:0.23553619;stroke-linecap:butt;stroke-linejoin:miter;stroke-miterlimit:4;stroke-dasharray:none;stroke-opacity:1;paint-order:stroke fill markers"
       id="rect1395"
       width="600"
       height="600"
       x="0"
       y="-303" />
    <rect
       y="-303"
       x="0"
       height="600"
       width="600"
       id="rect1397"
       style="opacity:1;fill:#ffffff;fill-opacity:1;fill-rule:nonzero;stroke:none;stroke-width:0.23553619;stroke-linecap:butt;stroke-linejoin:miter;stroke-miterlimit:4;stroke-dasharray:none;stroke-opacity:1;paint-order:stroke fill markers"
       rx="60"
       ry="60" />
    <rect
       y="-283"
       x="20"
       height="560"
       width="560"
       id="rect1399"
       style="opacity:1;fill:#782d00;fill-opacity:1;fill-rule:nonzero;stroke:none;stroke-width:0.21983378;stroke-linecap:butt;stroke-linejoin:miter;stroke-miterlimit:4;stroke-dasharray:none;stroke-opacity:1;paint-order:stroke fill markers"
       rx="40"
       ry="40" />
    <path
       d="m 402.99295,110.92294 c 0,-1.97195 3.81724,-13.358415 5.04193,-14.980509 3.75362,-5.041212 13.74205,-9.986998 19.97527,-9.986998 6.83921,0 16.83241,4.373286 21.04091,9.986998 2.30625,3.085164 3.99219,11.163829 3.99219,14.980509 0,3.8167 -1.68594,11.94307 -3.99219,14.98052 -4.21486,5.66142 -14.18739,10.03471 -21.04091,10.03471 -6.23482,0 -16.21689,-4.99351 -19.97527,-10.03471 -1.27241,-1.6221 -5.04193,-13.00856 -5.04193,-14.98052"
       style="fill:#ffffff;fill-opacity:1;fill-rule:nonzero;stroke:none;stroke-width:56.10580826"
       id="path1626"
       inkscape:connector-curvature="0" />
    <path
       d="m 196.00344,110.92294 c 0,-3.81668 -1.68595,-11.895345 -3.97629,-14.980509 -4.21487,-5.613712 -14.13968,-9.986998 -20.98366,-9.986998 -6.28253,0 -16.21688,4.929884 -20.03252,9.986998 -1.27241,1.622094 -4.99421,13.008559 -4.99421,14.980509 0,1.95606 3.75361,13.35842 4.99421,14.98052 3.81723,5.0412 13.74204,10.03471 20.03252,10.03471 6.83922,0 16.77675,-4.37329 20.98366,-10.03471 2.30625,-3.02155 3.97629,-11.16382 3.97629,-14.98052"
       style="fill:#ffffff;fill-opacity:1;fill-rule:nonzero;stroke:none;stroke-width:56.10580826"
       id="path1628"
       inkscape:connector-curvature="0" />
    <path
       d="m 486.03528,170.95155 c -6.45748,9.81207 -21.3781,29.3408 -30.01936,36.971 l -4.99421,2.97383 h -10.99045 v 40.00052 c 0,2.52856 3.37189,7.12449 4.99421,9.03284 l 4.99422,0.95417 27.66222,-0.63612 3.37189,-1.27223 2.97426,-2.97384 c 0.6362,-0.95416 1.59051,-3.8803 2.01995,-5.04121 v -79.94535"
       style="fill:#ffffff;fill-opacity:1;fill-rule:nonzero;stroke:none;stroke-width:56.10580826"
       id="path1630"
       inkscape:connector-curvature="0" />
    <path
       d="M 491.02949,104.91961 C 497.5347,109.80179 500,120.12276 500,127.92153 c 0,16.21299 -36.13489,69.23001 -50.94735,77.98136 h -5.04193 c 9.5908,-3.92802 41.4647,-88.02402 47.02037,-100.98328"
       style="fill:#ffffff;fill-opacity:1;fill-rule:nonzero;stroke:none;stroke-width:56.10580826"
       id="path1632"
       inkscape:connector-curvature="0" />
    <path
       d="m 138.04191,160.90888 13.96472,33.04458 c 2.91065,7.12449 11.49942,11.94306 19.02255,11.94306 h 257.99253 c 7.52313,0 16.0467,-4.81857 19.02096,-11.94306 l 13.96472,-33.04458 h -323.9782"
       style="fill:#ffffff;fill-opacity:1;fill-rule:nonzero;stroke:none;stroke-width:56.10580826"
       id="path1634"
       inkscape:connector-curvature="0" />
    <path
       d="M 109.03411,104.91961 C 102.52892,109.80179 100,120.12276 100,127.92153 c 0,16.21299 36.19056,69.23001 51.00301,77.98136 h 4.99422 c -9.54309,-3.92802 -41.4647,-88.02402 -46.96312,-100.98328"
       style="fill:#ffffff;fill-opacity:1;fill-rule:nonzero;stroke:none;stroke-width:56.10580826"
       id="path1636"
       inkscape:connector-curvature="0" />
    <path
       d="m 124.01517,260.93798 h 26.03513 l 4.9306,-0.95418 c 1.68594,-1.90833 5.05783,-6.50427 5.05783,-9.03283 v -40.00052 h -10.99046 l -5.05783,-2.97383 c -8.58878,-7.63338 -23.56665,-27.15416 -29.9637,-36.97101 v 79.94377 c 0.47716,1.1132 1.43147,4.03934 1.95633,5.05712 l 3.03788,2.97384 4.99422,2.01966"
       style="fill:#ffffff;fill-opacity:1;fill-rule:nonzero;stroke:none;stroke-width:56.10580826"
       id="path1638"
       inkscape:connector-curvature="0" />
    <path
       d="m 465.05004,43.936843 -7.01416,47.013675 c 2.35395,3.530444 6.01213,12.785912 6.01213,16.998592 0,5.88406 -1.27241,13.69238 -4.03989,18.96259 -1.59052,3.14877 -4.77155,5.61372 -6.01215,9.03284 H 146.01039 c -1.11336,-3.41912 -4.43753,-5.88407 -5.99623,-9.03284 -2.64027,-5.27975 -3.9922,-13.07216 -3.9922,-18.96259 0,-4.21426 3.64228,-13.469739 6.01215,-16.998592 l -7.01417,-47.013675 h -9.98843 l -13.0104,36.016843 c -0.15906,0.95417 -1.95634,7.458441 -1.95634,7.967341 0,4.929884 1.11336,9.541729 2.97426,14.026333 l 23.0052,53.9696 h 328.0181 l 23.0052,-53.9696 c 1.90862,-4.484604 2.97426,-9.080546 2.97426,-14.026333 0,-0.477095 -1.73366,-7.013171 -1.97224,-7.967341 L 475.05914,43.936843 h -9.98843"
       style="fill:#ffffff;fill-opacity:1;fill-rule:nonzero;stroke:none;stroke-width:56.10580826"
       id="path1640"
       inkscape:connector-curvature="0" />
    <path
       d="m 300.03102,96.952264 h 96.00342 l 2.97428,-5.041211 H 200.99765 l 3.02198,5.041211 h 96.00343"
       style="fill:#ffffff;fill-opacity:1;fill-rule:nonzero;stroke:none;stroke-width:56.10580826"
       id="path1642"
       inkscape:connector-curvature="0" />
    <path
       d="m 300.03102,107.94911 h 93.98348 l 0.95431,-5.04122 H 204.92622 l 0.9543,5.04122 h 94.03916"
       style="fill:#ffffff;fill-opacity:1;fill-rule:nonzero;stroke:none;stroke-width:56.10580826"
       id="path1644"
       inkscape:connector-curvature="0" />
    <path
       d="m 300.03102,118.94436 h 94.99345 l -0.95431,-5.04121 H 206.04753 l -0.95431,5.04121 h 95.04913"
       style="fill:#ffffff;fill-opacity:1;fill-rule:nonzero;stroke:none;stroke-width:56.10580826"
       id="path1646"
       inkscape:connector-curvature="0" />
    <path
       d="m 300.03102,129.94119 h 98.9777 l -2.97428,-4.99349 H 204.02758 l -3.02198,4.99349 h 99.03337"
       style="fill:#ffffff;fill-opacity:1;fill-rule:nonzero;stroke:none;stroke-width:56.10580826"
       id="path1648"
       inkscape:connector-curvature="0" />
    <path
       d="m 453.99597,81.91769 -1.95634,3.021544 c -2.91064,2.194595 -138.59263,0.95417 -152.00226,0.95417 -13.40803,0 -149.08366,1.113204 -152.00066,-0.95417 l -2.01995,-3.021544 -5.99625,-37.980847 2.01996,-3.991627 2.97426,-2.019658 h 310.00553 l 3.02197,2.019658 1.97224,3.991627 -6.01214,37.980847"
       style="fill:#ffffff;fill-opacity:1;fill-rule:nonzero;stroke:none;stroke-width:56.10580826"
       id="path1650"
       inkscape:connector-curvature="0" />
    <path
       d="M 300.03102,-72.025355 H 188.03655 c -11.67437,2.194594 -23.67957,7.856023 -27.99941,19.972425 l -31.02935,86.956934 h 14.98265 l 30.01777,-80.955187 c 0.6362,-1.797023 4.59659,-5.772748 6.01214,-7.013172 l 5.99625,-0.95417 h 228.03042 l 5.99624,0.95417 c 1.43146,1.27223 5.28051,5.216149 6.01215,7.013172 l 29.9621,80.955187 h 15.04627 L 440.03443,-52.05293 c -4.3262,-12.117993 -16.32821,-17.784186 -27.99941,-19.972425 H 300.04056"
       style="fill:#ffffff;fill-opacity:1;fill-rule:nonzero;stroke:none;stroke-width:56.10580826"
       id="path1652"
       inkscape:connector-curvature="0" />
    <path
       d="m 346.04141,-209.02707 0.9543,-3.02155 2.97426,-0.95416 c 1.11337,0.95416 2.57664,2.63987 2.97426,4.03933 l -0.9543,2.97384 -3.02198,0.95417 -2.97426,-2.01967 v -1.97196"
       style="fill:#ffffff;fill-opacity:1;fill-rule:nonzero;stroke:none;stroke-width:56.10580826"
       id="path1654"
       inkscape:connector-curvature="0" />
    <path
       d="m 397.04442,-209.02707 0.95432,-3.02155 4.93058,0.95419 v 4.9935 l -2.97426,0.95417 -2.97426,-2.01966 v -1.97196"
       style="fill:#ffffff;fill-opacity:1;fill-rule:nonzero;stroke:none;stroke-width:56.10580826"
       id="path1656"
       inkscape:connector-curvature="0" />
    <path
       d="m 363.99672,-184.06114 0.95431,-2.97384 3.03788,-2.01966 3.97629,0.95417 2.01995,6.01129 c -1.59051,1.27223 -3.97629,2.63987 -5.99624,3.02155 l -3.03788,-2.01966 -0.95431,-3.02155"
       style="fill:#ffffff;fill-opacity:1;fill-rule:nonzero;stroke:none;stroke-width:56.10580826"
       id="path1658"
       inkscape:connector-curvature="0" />
    <path
       d="m 414.99974,-184.06114 0.95431,-2.97384 3.02198,-2.01966 c 2.01995,0.31806 4.43753,1.6857 6.01214,3.02155 l -0.95431,3.99162 -4.99422,3.02155 -3.02197,-2.01966 -0.95431,-3.02156"
       style="fill:#ffffff;fill-opacity:1;fill-rule:nonzero;stroke:none;stroke-width:56.10580826"
       id="path1660"
       inkscape:connector-curvature="0" />
    <path
       d="m 383.01768,-159.03954 c 1.59051,-14.42392 20.87232,-0.95418 7.01416,6.01128 -2.1949,-0.15902 -5.39184,-1.43125 -7.01416,-3.02155 v -2.97383"
       style="fill:#ffffff;fill-opacity:1;fill-rule:nonzero;stroke:none;stroke-width:56.10580826"
       id="path1662"
       inkscape:connector-curvature="0" />
    <path
       d="m 433.01072,-159.03954 2.01996,-4.03934 3.02197,-1.95605 h 2.97426 l 2.97427,3.02155 0.95431,2.97384 -0.95431,3.99162 -2.97427,2.01966 c -2.19491,-0.15902 -5.43956,-1.43125 -7.01416,-3.02155 l -0.95432,-2.97383"
       style="fill:#ffffff;fill-opacity:1;fill-rule:nonzero;stroke:none;stroke-width:56.10580826"
       id="path1664"
       inkscape:connector-curvature="0" />
    <path
       d="m 401.02866,-134.07521 0.95432,-3.97571 2.97426,-2.97385 h 4.03989 l 3.97629,0.95418 1.95634,3.99162 v 3.97572 l -1.95634,4.03933 -3.97629,0.95417 h -4.03989 l -2.97426,-2.97383 -0.95432,-4.03934"
       style="fill:#ffffff;fill-opacity:1;fill-rule:nonzero;stroke:none;stroke-width:56.10580826"
       id="path1666"
       inkscape:connector-curvature="0" />
    <path
       d="m 451.0233,-134.07521 c 0.79526,-2.41724 2.91064,-5.43878 4.99421,-6.94956 23.22946,-1.59028 1.97224,28.4439 -4.99421,6.94956"
       style="fill:#ffffff;fill-opacity:1;fill-rule:nonzero;stroke:none;stroke-width:56.10580826"
       id="path1668"
       inkscape:connector-curvature="0" />
    <path
       d="m 254.02062,-209.02707 -0.95431,-3.02155 -2.97426,-0.95416 c -1.11336,0.95416 -2.57663,2.63987 -3.02198,4.03933 l 0.95431,2.97384 3.02198,0.95417 2.97426,-2.01967 v -1.97196"
       style="fill:#ffffff;fill-opacity:1;fill-rule:nonzero;stroke:none;stroke-width:56.10580826"
       id="path1670"
       inkscape:connector-curvature="0" />
    <path
       d="m 203.01761,-209.02707 -0.95432,-3.02155 -4.99422,0.95419 v 4.9935 l 3.02199,0.95417 2.97426,-2.01966 v -1.97196"
       style="fill:#ffffff;fill-opacity:1;fill-rule:nonzero;stroke:none;stroke-width:56.10580826"
       id="path1672"
       inkscape:connector-curvature="0" />
    <path
       d="m 236.00963,-184.06114 -0.9543,-2.97384 -2.97426,-2.01966 -3.97629,0.95417 -2.01995,6.01129 c 1.59051,1.27223 3.97628,2.63987 5.99624,3.02155 l 2.97426,-2.01966 0.9543,-3.02155"
       style="fill:#ffffff;fill-opacity:1;fill-rule:nonzero;stroke:none;stroke-width:56.10580826"
       id="path1674"
       inkscape:connector-curvature="0" />
    <path
       d="m 185.00662,-184.06114 -0.95431,-2.97384 -2.97427,-2.01966 c -2.01994,0.31806 -4.48524,1.6857 -6.01214,3.02155 l 0.95431,3.99162 4.99422,3.02155 2.97426,-2.01966 0.95431,-3.02156"
       style="fill:#ffffff;fill-opacity:1;fill-rule:nonzero;stroke:none;stroke-width:56.10580826"
       id="path1676"
       inkscape:connector-curvature="0" />
    <path
       d="m 217.04434,-159.03954 c -1.59051,-14.42392 -20.92798,-0.95418 -7.01417,6.01128 2.1313,-0.15902 5.39185,-1.43125 7.01417,-3.02155 v -2.97383"
       style="fill:#ffffff;fill-opacity:1;fill-rule:nonzero;stroke:none;stroke-width:56.10580826"
       id="path1678"
       inkscape:connector-curvature="0" />
    <path
       d="m 166.99564,-159.03954 -1.97225,-4.03934 -3.02197,-1.95605 h -2.97426 l -3.02197,3.02155 -0.95432,2.97384 0.95432,3.99162 3.02197,2.01966 c 2.19491,-0.15902 5.39184,-1.43125 7.01417,-3.02155 l 0.95431,-2.97383"
       style="fill:#ffffff;fill-opacity:1;fill-rule:nonzero;stroke:none;stroke-width:56.10580826"
       id="path1680"
       inkscape:connector-curvature="0" />
    <path
       d="m 199.03337,-134.07521 -0.95432,-3.97571 -3.02197,-2.97385 h -3.97629 l -3.97628,0.95418 -2.01996,3.99162 v 3.97572 l 2.01996,4.03933 3.97628,0.95417 h 3.97629 l 3.02197,-2.97383 0.95432,-4.03934"
       style="fill:#ffffff;fill-opacity:1;fill-rule:nonzero;stroke:none;stroke-width:56.10580826"
       id="path1682"
       inkscape:connector-curvature="0" />
    <path
       d="m 149.04032,-134.07521 c -0.79526,-2.41724 -2.91064,-5.43878 -5.05783,-6.94956 -23.1738,-1.59028 -1.95634,28.49956 5.05783,6.94956"
       style="fill:#ffffff;fill-opacity:1;fill-rule:nonzero;stroke:none;stroke-width:56.10580826"
       id="path1684"
       inkscape:connector-curvature="0" />
    <path
       d="m 300.03102,-234.04706 h 99.98766 v -19.97242 L 325.00049,-269 h -49.99463 l -74.96252,14.98052 v 19.97242 h 99.98768"
       style="fill:#ffffff;fill-opacity:1;fill-rule:nonzero;stroke:none;stroke-width:56.10580826"
       id="path1686"
       inkscape:connector-curvature="0" />
    <path
       d="m 298.01106,-206.05322 -2.01995,-2.97385 1.11336,-3.02155 2.97426,-0.95416 2.97426,0.95416 0.95431,3.02155 -2.01996,2.97385 h -3.99218"
       style="fill:#ffffff;fill-opacity:1;fill-rule:nonzero;stroke:none;stroke-width:56.10580826"
       id="path1688"
       inkscape:connector-curvature="0" />
    <path
       d="m 300.03102,-189.05464 2.97425,0.95417 2.01995,3.03745 -0.9543,3.97573 -3.97628,2.01966 -4.03991,-2.01966 -0.95431,-3.97573 2.01996,-3.03745 2.97426,-0.95417"
       style="fill:#ffffff;fill-opacity:1;fill-rule:nonzero;stroke:none;stroke-width:56.10580826"
       id="path1690"
       inkscape:connector-curvature="0" />
    <path
       d="m 300.03102,-165.04289 3.97628,0.95418 2.01995,2.97384 v 4.03933 l -3.02198,2.97384 -2.97425,0.95418 -2.97427,-0.95418 -3.02198,-2.97384 v -4.03933 l 1.95634,-2.97384 4.03991,-0.95418"
       style="fill:#ffffff;fill-opacity:1;fill-rule:nonzero;stroke:none;stroke-width:56.10580826"
       id="path1692"
       inkscape:connector-curvature="0" />
    <path
       d="m 300.03102,-142.04096 c 2.46529,0.79515 5.50318,2.91023 7.01416,4.99351 v 3.97571 l -0.95431,4.03934 c -1.11336,0.79514 -4.54887,2.46495 -5.99623,1.95605 -1.59052,0.47709 -4.88288,-1.1132 -6.01215,-1.95605 l -0.95431,-4.03934 v -3.97571 c 1.59052,-2.08328 4.54887,-4.21426 7.01417,-4.99351"
       style="fill:#ffffff;fill-opacity:1;fill-rule:nonzero;stroke:none;stroke-width:56.10580826"
       id="path1694"
       inkscape:connector-curvature="0" />
  </g>
</svg>
