<?xml version="1.0" encoding="UTF-8" standalone="no"?>
<!-- Created with Inkscape (http://www.inkscape.org/) -->

<svg
   xmlns:dc="http://purl.org/dc/elements/1.1/"
   xmlns:cc="http://creativecommons.org/ns#"
   xmlns:rdf="http://www.w3.org/1999/02/22-rdf-syntax-ns#"
   xmlns:svg="http://www.w3.org/2000/svg"
   xmlns="http://www.w3.org/2000/svg"
   xmlns:sodipodi="http://sodipodi.sourceforge.net/DTD/sodipodi-0.dtd"
   xmlns:inkscape="http://www.inkscape.org/namespaces/inkscape"
   width="602mm"
   height="602mm"
   viewBox="0 0 602 601.99999"
   version="1.1"
   id="svg8781"
   inkscape:version="0.92.2 (5c3e80d, 2017-08-06)"
   sodipodi:docname="11.svg">
  <defs
     id="defs8775">
    <pattern
       y="0"
       x="0"
       height="6"
       width="6"
       patternUnits="userSpaceOnUse"
       id="EMFhbasepattern" />
    <pattern
       y="0"
       x="0"
       height="6"
       width="6"
       patternUnits="userSpaceOnUse"
       id="EMFhbasepattern-2" />
    <pattern
       y="0"
       x="0"
       height="6"
       width="6"
       patternUnits="userSpaceOnUse"
       id="EMFhbasepattern-6" />
    <pattern
       y="0"
       x="0"
       height="6"
       width="6"
       patternUnits="userSpaceOnUse"
       id="EMFhbasepattern-8" />
    <pattern
       y="0"
       x="0"
       height="6"
       width="6"
       patternUnits="userSpaceOnUse"
       id="EMFhbasepattern-0" />
    <pattern
       y="0"
       x="0"
       height="6"
       width="6"
       patternUnits="userSpaceOnUse"
       id="EMFhbasepattern-7" />
    <pattern
       y="0"
       x="0"
       height="6"
       width="6"
       patternUnits="userSpaceOnUse"
       id="EMFhbasepattern-5" />
    <pattern
       y="0"
       x="0"
       height="6"
       width="6"
       patternUnits="userSpaceOnUse"
       id="EMFhbasepattern-82" />
    <pattern
       y="0"
       x="0"
       height="6"
       width="6"
       patternUnits="userSpaceOnUse"
       id="EMFhbasepattern-84" />
    <pattern
       y="0"
       x="0"
       height="6"
       width="6"
       patternUnits="userSpaceOnUse"
       id="EMFhbasepattern-86" />
    <pattern
       y="0"
       x="0"
       height="6"
       width="6"
       patternUnits="userSpaceOnUse"
       id="EMFhbasepattern-23" />
    <pattern
       y="0"
       x="0"
       height="6"
       width="6"
       patternUnits="userSpaceOnUse"
       id="EMFhbasepattern-06" />
    <pattern
       y="0"
       x="0"
       height="6"
       width="6"
       patternUnits="userSpaceOnUse"
       id="EMFhbasepattern-4" />
    <pattern
       y="0"
       x="0"
       height="6"
       width="6"
       patternUnits="userSpaceOnUse"
       id="EMFhbasepattern-25" />
  </defs>
  <sodipodi:namedview
     id="base"
     pagecolor="#ffffff"
     bordercolor="#666666"
     borderopacity="1.0"
     inkscape:pageopacity="0.0"
     inkscape:pageshadow="2"
     inkscape:zoom="0.2414452"
     inkscape:cx="1762.1798"
     inkscape:cy="706.66318"
     inkscape:document-units="mm"
     inkscape:current-layer="layer1"
     showgrid="false"
     showguides="true"
     inkscape:window-width="1920"
     inkscape:window-height="1057"
     inkscape:window-x="-8"
     inkscape:window-y="-8"
     inkscape:window-maximized="1"
     inkscape:snap-global="false"
     inkscape:measure-start="0,0"
     inkscape:measure-end="0,0"
     fit-margin-top="0"
     fit-margin-left="0"
     fit-margin-right="0"
     fit-margin-bottom="0" />
  <metadata
     id="metadata8778">
    <rdf:RDF>
      <cc:Work
         rdf:about="">
        <dc:format>image/svg+xml</dc:format>
        <dc:type
           rdf:resource="http://purl.org/dc/dcmitype/StillImage" />
        <dc:title></dc:title>
      </cc:Work>
    </rdf:RDF>
  </metadata>
  <g
     inkscape:label="Layer 1"
     inkscape:groupmode="layer"
     id="layer1"
     transform="translate(-179.2,397.3)">
    <path
       d="m 197.40882,154.56186 c -1.3527,-9.4252 -16.1876,-104.2777 -16.1876,-105.8338 v -110.834 c 0,-38.5793 -4.35,-74.0929 6.5912,-107.767 11.4584,-35.1367 -21.8479,-121.7766 0,-151.8196 84.9634,-116.72832 153.6449,-53.7184 258.4906,-63.85886 38.7849,-3.77009 70.8804,-10.74876 110.7885,-10.74876 17.124,0 37.5687,9.05088 54.9725,10.74876 77.5711,-17.92128 118.64894,-11.36374 158.64994,44.4282 6.0873,32.82516 -3.5542,90.45936 -3.5542,122.67086 0,17.3572 -9.6415,38.5806 -11.4584,56.2666 -9.363,90.5997 43.1825,193.1328 17.2168,281.8475 -9.8272,98.00494 -123.98164,73.8109 -215.82134,73.8109 -17.1239,0 -54.5521,10.22734 -72.05,10.22734 -53.897,0 -92.8688,-20.98814 -145.1293,-20.98814 -10.0526,0 -34.2466,10.468 -44.0711,8.6364 -46.1771,0 -92.028,7.68724 -98.4376,-36.7878"
       style="fill:#782d00;fill-opacity:1;fill-rule:nonzero;stroke:none;stroke-width:46.97400665"
       id="path6282"
       inkscape:connector-curvature="0" />
    <path
       d="m 494.92276,-33.629276 -0.81137,3.286007 -2.47467,2.52874 h -5.00342 c -31.24704,-19.415823 -56.67389,-58.20014 -56.67389,-95.839081 0,-31.48614 8.77627,-62.35025 30.81837,-85.8215 14.1678,-19.41582 24.99682,-52.61799 24.99682,-76.66125 0,-19.74984 -5.15216,-47.32387 -15.79052,-64.16364 1.08182,0.81136 2.38,1.52807 3.28603,2.47465 40.40736,40.40704 73.75314,86.53686 86.68089,143.35361 0.81137,4.15147 2.47467,10.02029 2.47467,14.16905 v 14.97903 c 0,24.80594 -15.9812,54.4787 -34.15579,70.84111 -0.67614,0.40568 -1.9608,1.08181 -2.47466,1.66329 -5.86888,5.868829 -12.92777,12.170382 -17.50792,19.177819 -9.01969,13.786346 -14.93183,33.488847 -13.3064,49.994587"
       style="fill:#ffffff;fill-opacity:1;fill-rule:nonzero;stroke:none;stroke-width:47.7050972"
       id="path7254"
       inkscape:connector-curvature="0" />
    <path
       d="m 450.74795,-41.1668 c -47.61094,-6.720759 -83.53279,-54.193371 -84.20082,-100.84787 0.81137,-18.07978 -4.58422,-36.97092 -9.96628,-54.14468 29.33899,11.96754 50.04368,37.25625 58.86864,67.21568 2.62342,8.92495 5.24683,19.22514 4.43547,28.62339 7.20762,25.521295 14.16779,38.64097 30.86569,59.15348"
       style="fill:#ffffff;fill-opacity:1;fill-rule:nonzero;stroke:none;stroke-width:47.7050972"
       id="path7256"
       inkscape:connector-curvature="0" />
    <path
       d="m 512.38199,-28.667809 c 19.08332,-27.717378 43.36479,-47.657881 76.66324,-55.814739 12.64378,-6.585534 26.71421,-26.141982 26.71421,-40.835702 0,-27.24003 -16.21921,-47.27519 -29.19565,-70.8411 v 33.34549 c 0.0973,26.52333 -14.50181,54.28803 -39.16597,65.83232 -19.98799,11.399596 -35.82585,32.820826 -35.82585,56.673436 0,4.097355 1.08183,7.586199 0.81137,11.642993"
       style="fill:#ffffff;fill-opacity:1;fill-rule:nonzero;stroke:none;stroke-width:47.7050972"
       id="path7258"
       inkscape:connector-curvature="0" />
    <path
       d="M 642.42767,-15.310142 534.90009,1.3389482 610.7506,22.996822 647.38917,17.182086 c 7.92434,-1.433402 14.1678,-7.626772 14.1678,-15.8377317 0,-2.7721385 -1.43341,-8.776192 -3.34012,-10.8316351 -0.81137,-0.8113592 -8.77628,-5.5307662 -9.96628,-5.8147472 -0.27045,-0.04737 -5.24683,0 -5.81478,0"
       style="fill:#ffffff;fill-opacity:1;fill-rule:nonzero;stroke:none;stroke-width:47.7050972"
       id="path7260"
       inkscape:connector-curvature="0" />
    <path
       d="M 317.41083,36.35315 398.2242,22.992765 474.07471,44.650649 322.37233,68.837263 c -0.54091,0 -5.53081,0.04597 -5.81479,0 -1.21705,-0.27046 -9.209,-4.962816 -9.96627,-5.814746 -1.90672,-2.096005 -3.34013,-8.059497 -3.34013,-10.831636 0,-8.208251 6.24752,-14.407038 14.1678,-15.83909"
       style="fill:#ffffff;fill-opacity:1;fill-rule:nonzero;stroke:none;stroke-width:47.7050972"
       id="path7262"
       inkscape:connector-curvature="0" />
    <path
       d="m 345.74777,-39.496746 270.01167,77.51994 c 8.49229,2.434077 12.49502,8.776203 12.49502,17.460449 0,11.115615 -12.17048,16.983095 -21.70537,14.167677 L 336.53742,-7.8212936 c -3.24546,-0.676134 -8.15423,-3.8133854 -9.96627,-6.6801874 -0.9466,-1.528064 -2.47467,-8.924948 -2.47467,-10.831645 0,-2.339423 3.19138,-9.249489 4.96285,-10.831645 1.21706,-0.946584 9.39833,-4.151448 10.83174,-4.151448 1.81205,0 4.05682,0.540899 5.86887,0.811359"
       style="fill:#ffffff;fill-opacity:1;fill-rule:nonzero;stroke:none;stroke-width:47.7050972"
       id="path7264"
       inkscape:connector-curvature="0" />
    <path
       d="M 282.39499,83.008997 H 682.40366 V -33.629276 H 732.4 V 149.7 h -500 V -33.629276 h 49.99499"
       style="fill:#ffffff;fill-opacity:1;fill-rule:nonzero;stroke:none;stroke-width:47.7050972"
       id="path7266"
       inkscape:connector-curvature="0"
       sodipodi:nodetypes="cccccccc" />
    <path
       d="m 503.22302,-227.83617 c 9.30366,7.24814 20.8467,28.09871 20.8467,40.02434 v 11.643 c 0,13.69168 -8.53288,31.58081 -18.31794,40.83571 -3.71876,3.5294 -8.34354,6.09871 -11.68367,10.02028 -8.68161,6.2069 -13.88246,14.55037 -16.64921,24.71129 l -1.66331,6.152807 c 0,8.492222 2.56933,18.317785 6.68025,25.807973 -12.49503,-15.265713 -18.36662,-36.30291 -18.36662,-55.81474 0,-14.21636 8.9656,-38.49763 18.36662,-49.18323 11.589,-14.07302 23.08876,-35.20621 20.79935,-54.19337"
       style="fill:#782d00;fill-opacity:1;fill-rule:nonzero;stroke:none;stroke-width:47.7050972"
       id="path7268"
       inkscape:connector-curvature="0" />
  </g>
</svg>
