<?xml version="1.0" encoding="UTF-8" standalone="no"?>
<!-- Created with Inkscape (http://www.inkscape.org/) -->

<svg
   xmlns:dc="http://purl.org/dc/elements/1.1/"
   xmlns:cc="http://creativecommons.org/ns#"
   xmlns:rdf="http://www.w3.org/1999/02/22-rdf-syntax-ns#"
   xmlns:svg="http://www.w3.org/2000/svg"
   xmlns="http://www.w3.org/2000/svg"
   xmlns:sodipodi="http://sodipodi.sourceforge.net/DTD/sodipodi-0.dtd"
   xmlns:inkscape="http://www.inkscape.org/namespaces/inkscape"
   width="978mm"
   height="602mm"
   viewBox="0 0 978 602.00001"
   version="1.1"
   id="svg8781"
   inkscape:version="0.92.2 (5c3e80d, 2017-08-06)"
   sodipodi:docname="22.svg">
  <defs
     id="defs8775">
    <pattern
       y="0"
       x="0"
       height="6"
       width="6"
       patternUnits="userSpaceOnUse"
       id="EMFhbasepattern" />
    <pattern
       y="0"
       x="0"
       height="6"
       width="6"
       patternUnits="userSpaceOnUse"
       id="EMFhbasepattern-3" />
    <pattern
       y="0"
       x="0"
       height="6"
       width="6"
       patternUnits="userSpaceOnUse"
       id="EMFhbasepattern-2" />
    <pattern
       y="0"
       x="0"
       height="6"
       width="6"
       patternUnits="userSpaceOnUse"
       id="EMFhbasepattern-33" />
    <pattern
       y="0"
       x="0"
       height="6"
       width="6"
       patternUnits="userSpaceOnUse"
       id="EMFhbasepattern-1" />
  </defs>
  <sodipodi:namedview
     id="base"
     pagecolor="#ffffff"
     bordercolor="#666666"
     borderopacity="1.0"
     inkscape:pageopacity="0.0"
     inkscape:pageshadow="2"
     inkscape:zoom="0.26812066"
     inkscape:cx="1980.4499"
     inkscape:cy="955.02162"
     inkscape:document-units="mm"
     inkscape:current-layer="layer1"
     showgrid="false"
     showguides="true"
     inkscape:window-width="1920"
     inkscape:window-height="1057"
     inkscape:window-x="-8"
     inkscape:window-y="-8"
     inkscape:window-maximized="1"
     inkscape:snap-global="false"
     fit-margin-top="0"
     fit-margin-left="0"
     fit-margin-right="0"
     fit-margin-bottom="0" />
  <metadata
     id="metadata8778">
    <rdf:RDF>
      <cc:Work
         rdf:about="">
        <dc:format>image/svg+xml</dc:format>
        <dc:type
           rdf:resource="http://purl.org/dc/dcmitype/StillImage" />
        <dc:title></dc:title>
      </cc:Work>
    </rdf:RDF>
  </metadata>
  <g
     inkscape:label="Layer 1"
     inkscape:groupmode="layer"
     id="layer1"
     transform="translate(-84.340927,375.44855)">
    <path
       d="m 223.30195,214.60415 -90.8552,-45.4375 c -4.3649,-8.6365 -45.427597,-89.29177 -45.427597,-90.87497 v -112.7546 c 0,-39.2477 -6.1462,-187.843 5.0856,-222.102 24.656897,-75.1852 -4.9904,-111.2177 153.936797,-106.9484 34.2026,0.952 78.4785,3.3593 113.5445,0 17.8934,-1.7273 38.8558,-10.9351 56.4133,-10.9351 h 56.3643 c 12.1428,0 125.9702,14.7786 130.4316,20.1999 14.343,-17.3696 105.1016,-6.814 130.3827,-9.2621 17.8444,-1.7273 38.8558,-10.9351 56.4119,-10.9351 h 56.3657 c 17.8444,0 39.0951,9.167 57.2278,10.9351 58.763,5.6579 96.5635,0.544 135.46695,57.1926 7.1524,33.1071 22.6907,79.7918 22.6907,112.8022 0,17.8497 -9.2058,39.105 -10.9327,57.2416 -8.825,91.5944 16.501,193.8411 -11.7485,282.74937 -12.4284,52.1549 -36.2654,72.0189 -135.46695,79.0722 h -57.2278 c -17.5575,0 -38.5199,-9.1669 -56.3657,-10.935 -61.5926,-5.9435 -130.622,0 -192.696,0 l -6.7173,-3.3594 c -1.8221,4.2163 -55.2126,14.2985 -61.4486,14.2985 h -56.3656 c -17.5562,0 -38.5199,-9.1669 -56.3644,-10.935 -61.5451,-5.9436 -130.622,0 -192.696,0"
       style="fill:#782d00;fill-opacity:1;fill-rule:nonzero;stroke:none;stroke-width:47.97531128"
       id="path6315"
       inkscape:connector-curvature="0" />
    <path
       d="m 354.77448,-33.925668 v 20.493012 c -13.72442,3.4338187 -19.80438,8.7905913 -22.21981,23.116551 v 78.648329 c 0,6.867737 -3.84287,12.087116 -10.15614,14.243566 l -3.43111,1.37356 c -4.94087,0 -11.94027,-3.57121 -14.52047,-7.691814 l -1.37249,-3.433819 c 0,-4.807385 0,-9.202681 2.05873,-11.949715 4.94077,-14.73795 10.5678,-33.926194 10.15603,-49.570722 v -74.376731 l 1.37249,-3.433818 1.37237,-1.373567 3.43121,-3.433819 1.37239,-1.373467 c 0,0 0,-1.922954 1.37248,-2.472341 v -9.477375 c 0,0 0,-3.433818 1.37238,-4.257999 h 1.37248 l 8.50918,-8.515897 v -12.911193 l -26.48824,25.63009 -1.64686,1.785658 v 93.180284 c 0,11.125635 -3.29392,32.071937 -8.50918,41.906403 -1.37248,1.373568 -4.25463,8.241204 -4.25463,9.340078 v 7.691717 c 0,11.675027 10.84237,24.819707 23.08461,24.819707 h 7.68564 l 4.52911,-1.64826 c 9.88157,-3.70851 18.34958,-13.597874 17.62216,-24.819707 V 8.9284126 l 1.37249,-4.2578988 3.43111,-4.2579987 c 1.37248,-1.37346734 3.15662,-1.9229543 4.25453,-2.6096379 h 3.43111 l 4.25463,124.8127328 h -12.7637 l -2.60768,2.60974 -1.37249,3.43382 v 6.04345 H 495.2993 c 1.37248,-13.90007 -2.05863,-11.94971 -16.2086,-11.94971 l 5.90149,-162.461241 h 6.03879 l 4.80359,-1.373467 2.74487,-1.648261 2.60767,-4.257899 c 0,-1.373567 0,-3.021828 1.37248,-4.257998 v -81.216864 l -1.37248,-4.94469 -1.64696,-2.88443 -4.25453,-2.60974 c -1.37249,0 -3.01945,-1.37346 -4.25464,-1.37346 H 348.35151 c -1.37249,1.37346 -3.29392,1.78555 -4.25464,2.60963 l -2.60767,3.43382 -1.37239,5.08208 v 81.21687 l 1.37239,4.807386 1.64696,2.884431 4.25464,2.472341 c 1.37237,0 3.01933,0 4.25452,1.373568 h 6.03879 v 5.082079"
       style="fill:#ffffff;fill-opacity:1;fill-rule:nonzero;stroke:none;stroke-width:48.43598175"
       id="path7336"
       inkscape:connector-curvature="0" />
    <path
       d="m 816.95957,-126.28197 -29.04096,46.1781 v 5.082079 l 2.60765,1.648261 h 3.43112 l 2.47039,-2.609738 29.04098,-47.002182 5.07805,-1.64826 2.60764,1.64826 1.37244,2.60974 -22.2199,50.449798 c -2.60765,2.334944 -4.39183,5.356772 -6.86224,7.691717 l -6.86222,5.082079 c -2.05867,1.373567 -5.35255,1.785558 -7.68571,2.609738 -2.05866,1.373467 -4.9408,1.510864 -6.86223,2.472341 l -6.86222,5.082079 -3.43112,4.532593 -1.64694,2.335044 -21.35527,34.2008867 C 757.60126,6.1676782 823.314,117.54723 823.314,122.34092 c 0,6.31825 -5.62703,11.94971 -11.94028,11.94971 -1.64694,0 -3.56837,0 -5.21529,-1.37357 L 801.90384,128.65917 738.7164,19.257367 726.77613,38.8714 l -55.54291,89.78777 -3.43112,3.43381 -4.25458,1.64816 h -5.07806 c -2.74489,-1.37346 -5.90152,-3.57111 -7.6857,-6.04345 0,-1.51097 -1.37244,-3.57122 -1.37244,-5.08208 0,-1.37357 1.37244,-4.94468 1.64694,-6.04356 l 63.1737,-102.616457 12.76376,-20.5068123 c -1.37246,-2.060351 -6.86224,-11.2629317 -8.50918,-12.7738967 -2.74488,-2.472341 -7.41121,-4.669988 -11.11681,-5.082079 -1.92143,0 -5.07805,-1.373467 -6.86224,-1.64816 l -5.90151,-4.257999 c -1.64694,-1.648261 -4.52907,-6.180853 -6.03877,-8.515898 l -38.44222,-82.082148 -1.64693,-6.04356 c 0,-6.18085 4.25458,-13.18588 10.29334,-15.06764 l 3.43111,-1.37356 h 6.03877 c 4.25459,0 8.37192,4.94478 11.11682,7.69181 l 59.79749,103.454342 11.94028,-18.803653 c 3.15663,-6.867637 3.84286,-15.644528 3.43112,-23.102751 0,-2.747034 -1.37244,-5.768862 -1.37244,-8.515897 0,-6.455646 4.94079,-18.419061 9.33263,-23.075351 l 29.05469,-35.07997 c 0,-1.37356 2.4704,-2.06025 3.43111,-2.60973 h 3.43111 l 2.60765,5.08208 -29.87815,48.746636 v 4.257899 l 2.60765,1.64826 h 3.43112 l 2.60764,-1.64826 29.05469,-47.002185 1.78418,-2.60974 h 3.43112 l 2.60765,1.64827 v 5.90615"
       style="fill:#ffffff;fill-opacity:1;fill-rule:nonzero;stroke:none;stroke-width:48.43598175"
       id="path7338"
       inkscape:connector-curvature="0" />
    <path
       d="M 551.25396,-166.44402 V 158.43726 H 243.71617 v 17.11419 H 892.97938 V 158.43726 H 585.44163 v -324.88128 h 375.8993 L 568.34095,-337.44855 175.34093,-166.44402 h 375.91303"
       style="fill:#ffffff;fill-opacity:1;fill-rule:nonzero;stroke:none;stroke-width:48.43598175"
       id="path7340"
       inkscape:connector-curvature="0" />
    <path
       d="m 484.04258,-135.31118 3.43111,1.37347 c 0,1.37356 1.37239,1.64826 1.64686,2.60973 0,1.37357 0,1.78556 1.37249,2.60974 v 69.239658 l -1.37249,3.433818 c -1.37239,0 -1.64686,1.373567 -2.60758,1.648261 -1.37249,0 -1.78425,0 -2.60768,1.373467 H 356.6109 l -3.43111,-1.373467 -2.60767,-5.082079 v -69.239658 c 0,-1.37357 1.37248,-2.88443 1.78414,-3.43382 0,0 1.92144,-1.92295 2.60768,-2.47244 h 128.98252"
       style="fill:#782d00;fill-opacity:1;fill-rule:nonzero;stroke:none;stroke-width:48.43598175"
       id="path7344"
       inkscape:connector-curvature="0" />
  </g>
</svg>
