<?xml version="1.0" encoding="UTF-8" standalone="no"?>
<!-- Created with Inkscape (http://www.inkscape.org/) -->

<svg
   xmlns:dc="http://purl.org/dc/elements/1.1/"
   xmlns:cc="http://creativecommons.org/ns#"
   xmlns:rdf="http://www.w3.org/1999/02/22-rdf-syntax-ns#"
   xmlns:svg="http://www.w3.org/2000/svg"
   xmlns="http://www.w3.org/2000/svg"
   xmlns:sodipodi="http://sodipodi.sourceforge.net/DTD/sodipodi-0.dtd"
   xmlns:inkscape="http://www.inkscape.org/namespaces/inkscape"
   width="978mm"
   height="602mm"
   viewBox="0 0 978 602.00001"
   version="1.1"
   id="svg8781"
   inkscape:version="0.92.2 (5c3e80d, 2017-08-06)"
   sodipodi:docname="22.svg">
  <defs
     id="defs8775">
    <pattern
       y="0"
       x="0"
       height="6"
       width="6"
       patternUnits="userSpaceOnUse"
       id="EMFhbasepattern" />
    <pattern
       y="0"
       x="0"
       height="6"
       width="6"
       patternUnits="userSpaceOnUse"
       id="EMFhbasepattern-3" />
    <pattern
       y="0"
       x="0"
       height="6"
       width="6"
       patternUnits="userSpaceOnUse"
       id="EMFhbasepattern-2" />
  </defs>
  <sodipodi:namedview
     id="base"
     pagecolor="#ffffff"
     bordercolor="#666666"
     borderopacity="1.0"
     inkscape:pageopacity="0.0"
     inkscape:pageshadow="2"
     inkscape:zoom="0.18958994"
     inkscape:cx="1166.0438"
     inkscape:cy="886.14281"
     inkscape:document-units="mm"
     inkscape:current-layer="layer1"
     showgrid="false"
     showguides="true"
     inkscape:window-width="1920"
     inkscape:window-height="1057"
     inkscape:window-x="-8"
     inkscape:window-y="-8"
     inkscape:window-maximized="1"
     inkscape:snap-global="true"
     fit-margin-top="0"
     fit-margin-left="0"
     fit-margin-right="0"
     fit-margin-bottom="0" />
  <metadata
     id="metadata8778">
    <rdf:RDF>
      <cc:Work
         rdf:about="">
        <dc:format>image/svg+xml</dc:format>
        <dc:type
           rdf:resource="http://purl.org/dc/dcmitype/StillImage" />
        <dc:title></dc:title>
      </cc:Work>
    </rdf:RDF>
  </metadata>
  <g
     inkscape:label="Layer 1"
     inkscape:groupmode="layer"
     id="layer1"
     transform="translate(-84.340927,375.44855)">
    <path
       d="m 223.30195,214.60415 -90.8552,-45.4375 c -4.3649,-8.6365 -45.427597,-89.2918 -45.427597,-90.875 v -112.7546 c 0,-39.2477 -6.1462,-187.843 5.0856,-222.102 24.656897,-75.1852 -4.9904,-111.2177 153.936797,-106.9484 34.2026,0.952 78.4785,3.3593 113.5445,0 17.8934,-1.7273 38.8558,-10.9351 56.4133,-10.9351 h 56.3643 c 12.1428,0 125.9702,14.7786 130.4316,20.1999 14.343,-17.3696 105.1016,-6.814 130.3827,-9.2621 17.8444,-1.7273 38.8558,-10.9351 56.4119,-10.9351 h 56.3657 c 17.8444,0 39.0951,9.167 57.2278,10.9351 58.763,5.6579 96.5635,0.544 135.46695,57.1926 7.1524,33.1071 22.6907,79.7918 22.6907,112.8022 0,17.8497 -9.2058,39.105 -10.9327,57.2416 -8.825,91.5944 16.501,193.8411 -11.7485,282.7494 -12.4284,52.1549 -36.2654,72.0189 -135.46695,79.0722 h -57.2278 c -17.5575,0 -38.5199,-9.1669 -56.3657,-10.935 -61.5926,-5.9435 -130.622,0 -192.696,0 l -6.7173,-3.3594 c -1.8221,4.2163 -55.2126,14.2985 -61.4486,14.2985 h -56.3656 c -17.5562,0 -38.5199,-9.1669 -56.3644,-10.935 -61.5451,-5.9436 -130.622,0 -192.696,0"
       style="fill:#782d00;fill-opacity:1;fill-rule:nonzero;stroke:none;stroke-width:47.97531128"
       id="path6315"
       inkscape:connector-curvature="0" />
    <path
       d="m 918.28014,-119.61843 c -9.38756,6.56094 -19.51835,13.06639 -29.93758,17.95866 l -5.96256,1.706123 c -3.03673,0 -8.70811,-1.470313 -11.107,-3.426113 l -2.84261,-3.42611 -1.41437,-2.53838 c -12.61843,-20.651 -40.60223,-36.79811 -64.96274,-36.79811 -28.95862,0 -51.90198,14.97364 -64.96276,41.0551 -3.23087,6.505442 -5.22764,13.897248 -8.51398,20.502576 -14.92025,23.733116 -33.3612,37.630377 -62.36972,37.630377 -7.0996,0 -16.53431,-2.538374 -23.08896,-5.132238 l -5.13058,-2.593863 -57.23361,-29.066478 c -4.89484,-2.940624 -17.46336,-7.684476 -23.08896,-7.684476 h -11.98057 c -15.40975,0 -31.79708,8.364153 -42.70578,18.839459 L 406.41544,4.3319707 C 403.28163,7.2726049 394.3794,9.464208 390.1751,9.464208 c -4.54819,0 -9.98381,-1.6090302 -13.64455,-4.2999874 L 309.02332,-40.980113 c -3.03674,-2.011281 -10.95447,-5.132228 -14.52785,-5.132228 -7.39079,0 -18.39379,3.370624 -23.08896,9.44608 L 201.35618,6.8842196 V -3.3386408 l 80.32257,-74.3785622 c 4.29859,-4.397072 13.60295,-8.558341 19.66535,-8.558341 h 7.68199 c 6.55881,0 17.07232,7.337706 20.49594,12.816714 l 12.81256,17.126398 c 13.79709,21.92297 39.96577,29.066488 64.08224,29.066488 14.87034,0 34.0462,-9.293507 44.46681,-19.67033 l 63.20033,-61.559066 c 11.05153,-10.51416 24.11646,-15.36481 39.33069,-15.36481 2.05223,0 11.88351,0.55484 13.64454,1.71999 l 72.64197,19.62179 c 8.07025,2.20547 17.26784,3.426112 25.63344,3.426112 22.50242,0 48.37853,-14.582482 61.53776,-32.492602 l 36.73766,-57.25215 c 10.46915,-14.58248 27.63854,-22.21563 45.29741,-22.21563 30.32862,0 54.00551,27.15783 53.80999,56.41989 -0.55466,15.85444 15.55535,33.32485 31.64871,33.32485 6.75293,0 16.1918,-2.14999 21.32792,-6.85223 l 3.425,-2.53837 v 11.11059 h -0.83198"
       style="fill:#ffffff;fill-opacity:1;fill-rule:nonzero;stroke:none;stroke-width:48.92554092"
       id="path6710"
       inkscape:connector-curvature="0" />
    <path
       d="M 376.51808,147.90137 362.81806,95.786999 c -5.2831,-25.837331 -28.17655,-45.312084 -54.69052,-45.312084 -5.18603,0 -29.49801,4.702238 -31.60016,9.390601 l -75.18645,49.570454 v 7.72609 l 88.88231,-40.224236 c 1.38663,-0.554834 8.76356,-2.538374 9.38756,-2.538374 l 4.54818,1.109676 c 8.65265,2.149989 14.77327,5.7703 18.49086,14.288415 l 31.65008,68.359979 c 1.24798,1.9558 2.74555,5.18771 4.25698,6.85222 0.97066,0.97097 10.60782,7.24061 11.93899,7.68449 l 7.72358,0.83225 c 2.49597,0 13.40884,-1.66451 14.52786,-4.25836 l 19.66534,-10.27834 -5.13058,-5.09063 c -4.9919,2.69095 -10.46914,5.09063 -16.24034,5.09063 -0.83199,0 -1.24798,-0.27743 -2.01063,-0.55485 l -4.00739,-1.10966 c -2.84261,-1.56742 -7.1412,-6.46384 -8.51398,-9.44609"
       style="fill:#ffffff;fill-opacity:1;fill-rule:nonzero;stroke:none;stroke-width:48.92554092"
       id="path6712"
       inkscape:connector-curvature="0" />
    <path
       d="m 289.34688,157.34607 38.44878,-32.49259 5.13058,10.22286 -35.02517,27.35341 -8.55558,-5.09062"
       style="fill:#ffffff;fill-opacity:1;fill-rule:nonzero;stroke:none;stroke-width:48.92554092"
       id="path6714"
       inkscape:connector-curvature="0" />
    <path
       d="m 641.40674,132.53657 8.55557,11.94285 -16.24033,19.67032 c -4.15993,4.45256 -13.54749,9.39061 -19.66534,9.39061 -10.27501,0 -19.9094,-5.13223 -25.63346,-13.64897 L 532.85354,65.889651 c -8.45851,-14.631028 -27.05198,-27.353417 -44.41688,-27.353417 -17.07233,0 -19.91078,2.746437 -34.14465,9.390601 l -81.20309,53.827435 -4.257,-11.942854 66.62534,-59.013758 c 16.1918,-16.147123 35.80723,-29.0664781 59.82662,-29.0664781 35.17077,0 65.8918,23.4390451 75.18647,57.3020861 L 591.8468,136.788 c 3.03675,8.76641 14.08828,15.41336 23.08896,15.41336 11.24566,0 25.29095,-7.19901 26.46405,-19.67033"
       style="fill:#ffffff;fill-opacity:1;fill-rule:nonzero;stroke:none;stroke-width:48.92554092"
       id="path6716"
       inkscape:connector-curvature="0" />
    <path
       d="m 531.19512,88.936162 5.96256,9.390601 c -13.98983,9.792857 -35.66164,23.046497 -47.8419,34.204267 l -6.01802,-5.96449 47.89042,-37.630378"
       style="fill:#ffffff;fill-opacity:1;fill-rule:nonzero;stroke:none;stroke-width:48.92554092"
       id="path6718"
       inkscape:connector-curvature="0" />
    <path
       d="m 919.11213,124.85348 v -24.8095 l -13.64455,32.49259 c -0.27733,4.99352 -12.36884,14.53255 -17.12224,14.53255 h -6.79455 c -8.41691,0 -19.32145,-8.75254 -20.54447,-17.07786 L 826.86167,10.300616 c -11.88352,-33.56897 -41.53129,-63.222189 -79.49198,-63.222189 -23.6755,0 -48.96645,8.225444 -64.91282,26.472624 l -102.53103,77.804666 5.08899,18.790917 85.45868,-52.16431 C 680.65145,10.88042 704.32419,4.3333602 716.6029,4.3333602 c 43.29232,0 80.17559,30.8766238 89.76421,72.6169488 l 14.47931,59.846021 v -2.53838 c 7.33533,26.27704 26.17008,39.2935 52.97801,39.2935 22.89345,0 48.13447,-28.57823 45.29741,-51.28351 v 2.59386"
       style="fill:#ffffff;fill-opacity:1;fill-rule:nonzero;stroke:none;stroke-width:48.92554092"
       id="path6720"
       inkscape:connector-curvature="0" />
    <circle
       style="opacity:1;fill:#ffffff;fill-opacity:1;fill-rule:nonzero;stroke:none;stroke-width:0.08014892;stroke-linecap:butt;stroke-linejoin:miter;stroke-miterlimit:4;stroke-dasharray:none;stroke-opacity:1;paint-order:stroke fill markers"
       id="path859"
       cx="315.44092"
       cy="-134.54855"
       r="36.299999" />
    <circle
       r="40.599998"
       cy="-193.44855"
       cx="556.34094"
       id="circle861"
       style="opacity:1;fill:#ffffff;fill-opacity:1;fill-rule:nonzero;stroke:none;stroke-width:0.08964315;stroke-linecap:butt;stroke-linejoin:miter;stroke-miterlimit:4;stroke-dasharray:none;stroke-opacity:1;paint-order:stroke fill markers" />
    <circle
       style="opacity:1;fill:#ffffff;fill-opacity:1;fill-rule:nonzero;stroke:none;stroke-width:0.09052633;stroke-linecap:butt;stroke-linejoin:miter;stroke-miterlimit:4;stroke-dasharray:none;stroke-opacity:1;paint-order:stroke fill markers"
       id="circle863"
       cx="813.14093"
       cy="-297.44855"
       r="41" />
  </g>
</svg>
