<?xml version="1.0" encoding="UTF-8" standalone="no"?>
<!-- Created with Inkscape (http://www.inkscape.org/) -->

<svg
   xmlns:dc="http://purl.org/dc/elements/1.1/"
   xmlns:cc="http://creativecommons.org/ns#"
   xmlns:rdf="http://www.w3.org/1999/02/22-rdf-syntax-ns#"
   xmlns:svg="http://www.w3.org/2000/svg"
   xmlns="http://www.w3.org/2000/svg"
   xmlns:sodipodi="http://sodipodi.sourceforge.net/DTD/sodipodi-0.dtd"
   xmlns:inkscape="http://www.inkscape.org/namespaces/inkscape"
   width="602mm"
   height="602mm"
   viewBox="0 0 602 601.99999"
   version="1.1"
   id="svg8781"
   inkscape:version="0.92.2 (5c3e80d, 2017-08-06)"
   sodipodi:docname="11.svg">
  <defs
     id="defs8775">
    <pattern
       y="0"
       x="0"
       height="6"
       width="6"
       patternUnits="userSpaceOnUse"
       id="EMFhbasepattern" />
    <pattern
       y="0"
       x="0"
       height="6"
       width="6"
       patternUnits="userSpaceOnUse"
       id="EMFhbasepattern-2" />
    <pattern
       y="0"
       x="0"
       height="6"
       width="6"
       patternUnits="userSpaceOnUse"
       id="EMFhbasepattern-6" />
    <pattern
       y="0"
       x="0"
       height="6"
       width="6"
       patternUnits="userSpaceOnUse"
       id="EMFhbasepattern-8" />
    <pattern
       y="0"
       x="0"
       height="6"
       width="6"
       patternUnits="userSpaceOnUse"
       id="EMFhbasepattern-0" />
    <pattern
       y="0"
       x="0"
       height="6"
       width="6"
       patternUnits="userSpaceOnUse"
       id="EMFhbasepattern-7" />
    <pattern
       y="0"
       x="0"
       height="6"
       width="6"
       patternUnits="userSpaceOnUse"
       id="EMFhbasepattern-5" />
    <pattern
       y="0"
       x="0"
       height="6"
       width="6"
       patternUnits="userSpaceOnUse"
       id="EMFhbasepattern-82" />
    <pattern
       y="0"
       x="0"
       height="6"
       width="6"
       patternUnits="userSpaceOnUse"
       id="EMFhbasepattern-84" />
    <pattern
       y="0"
       x="0"
       height="6"
       width="6"
       patternUnits="userSpaceOnUse"
       id="EMFhbasepattern-86" />
    <pattern
       y="0"
       x="0"
       height="6"
       width="6"
       patternUnits="userSpaceOnUse"
       id="EMFhbasepattern-23" />
    <pattern
       y="0"
       x="0"
       height="6"
       width="6"
       patternUnits="userSpaceOnUse"
       id="EMFhbasepattern-06" />
  </defs>
  <sodipodi:namedview
     id="base"
     pagecolor="#ffffff"
     bordercolor="#666666"
     borderopacity="1.0"
     inkscape:pageopacity="0.0"
     inkscape:pageshadow="2"
     inkscape:zoom="0.2414452"
     inkscape:cx="1267.4462"
     inkscape:cy="749.6057"
     inkscape:document-units="mm"
     inkscape:current-layer="layer1"
     showgrid="false"
     showguides="true"
     inkscape:window-width="1920"
     inkscape:window-height="1057"
     inkscape:window-x="-8"
     inkscape:window-y="-8"
     inkscape:window-maximized="1"
     inkscape:snap-global="false"
     inkscape:measure-start="0,0"
     inkscape:measure-end="0,0"
     fit-margin-top="0"
     fit-margin-left="0"
     fit-margin-right="0"
     fit-margin-bottom="0" />
  <metadata
     id="metadata8778">
    <rdf:RDF>
      <cc:Work
         rdf:about="">
        <dc:format>image/svg+xml</dc:format>
        <dc:type
           rdf:resource="http://purl.org/dc/dcmitype/StillImage" />
        <dc:title></dc:title>
      </cc:Work>
    </rdf:RDF>
  </metadata>
  <g
     inkscape:label="Layer 1"
     inkscape:groupmode="layer"
     id="layer1"
     transform="translate(-179.2,397.3)">
    <path
       d="m 197.40882,154.5619 c -1.3527,-9.4252 -16.1876,-104.2777 -16.1876,-105.8338 v -110.834 c 0,-38.5793 -4.35,-74.0929 6.5912,-107.767 11.4584,-35.1367 -21.8479,-121.7766 0,-151.8196 84.9634,-116.72832 153.6449,-53.7184 258.4906,-63.85886 38.7849,-3.77009 70.8804,-10.74876 110.7885,-10.74876 17.124,0 37.5687,9.05088 54.9725,10.74876 77.5711,-17.92128 118.64894,-11.36374 158.64994,44.4282 6.0873,32.82516 -3.5542,90.45936 -3.5542,122.67086 0,17.3572 -9.6415,38.5806 -11.4584,56.2666 -9.363,90.5997 43.1825,193.1328 17.2168,281.8475 -9.8272,98.0049 -123.98164,73.8109 -215.82134,73.8109 -17.1239,0 -54.5521,10.2273 -72.05,10.2273 -53.897,0 -92.8688,-20.9881 -145.1293,-20.9881 -10.0526,0 -34.2466,10.468 -44.0711,8.6364 -46.1771,0 -92.028,7.6872 -98.4376,-36.7878"
       style="fill:#782d00;fill-opacity:1;fill-rule:nonzero;stroke:none;stroke-width:46.97400665"
       id="path6282"
       inkscape:connector-curvature="0" />
    <rect
       style="opacity:1;fill:#ffffff;fill-opacity:1;fill-rule:nonzero;stroke:none;stroke-width:0.21457048;stroke-linecap:butt;stroke-linejoin:miter;stroke-miterlimit:4;stroke-dasharray:none;stroke-opacity:1;paint-order:stroke fill markers"
       id="rect1123"
       width="145"
       height="491.302"
       x="244.53145"
       y="127.65411"
       transform="rotate(-61)" />
    <rect
       y="-712.33057"
       x="76.079582"
       height="491.302"
       width="145"
       id="rect1125"
       style="opacity:1;fill:#ffffff;fill-opacity:1;fill-rule:nonzero;stroke:none;stroke-width:0.21457048;stroke-linecap:butt;stroke-linejoin:miter;stroke-miterlimit:4;stroke-dasharray:none;stroke-opacity:1;paint-order:stroke fill markers"
       transform="rotate(61)" />
    <rect
       y="-346.29999"
       x="397.19986"
       height="500"
       width="166"
       id="rect1127"
       style="opacity:1;fill:#ffffff;fill-opacity:1;fill-rule:nonzero;stroke:none;stroke-width:0.2383606;stroke-linecap:butt;stroke-linejoin:miter;stroke-miterlimit:4;stroke-dasharray:none;stroke-opacity:1;paint-order:stroke fill markers" />
    <rect
       y="143.65411"
       x="260.53146"
       height="459.302"
       width="113"
       id="rect1146"
       style="opacity:1;fill:#ee1c24;fill-opacity:1;fill-rule:nonzero;stroke:none;stroke-width:0.18314712;stroke-linecap:butt;stroke-linejoin:miter;stroke-miterlimit:4;stroke-dasharray:none;stroke-opacity:1;paint-order:stroke fill markers"
       transform="rotate(-61)" />
    <rect
       style="opacity:1;fill:#ee1c24;fill-opacity:1;fill-rule:nonzero;stroke:none;stroke-width:0.18314712;stroke-linecap:butt;stroke-linejoin:miter;stroke-miterlimit:4;stroke-dasharray:none;stroke-opacity:1;paint-order:stroke fill markers"
       id="rect1148"
       width="113"
       height="459.302"
       x="92.079582"
       y="-696.33057"
       transform="rotate(61)" />
    <rect
       y="-330.30002"
       x="413.19986"
       height="468"
       width="134"
       id="rect1150"
       style="opacity:1;fill:#ee1c24;fill-opacity:1;fill-rule:nonzero;stroke:none;stroke-width:0.20719093;stroke-linecap:butt;stroke-linejoin:miter;stroke-miterlimit:4;stroke-dasharray:none;stroke-opacity:1;paint-order:stroke fill markers" />
    <path
       style="fill:#ffffff;fill-opacity:1;fill-rule:nonzero;stroke:none;stroke-width:47.66302109"
       d="m 480.19966,-303.29997 c -2.6758,0.0685 -17.9302,5.23103 -20.3998,6.8001 0,0 10.7303,379.476507 17.1999,407.39994 0.3531,1.41343 0.5496,1.80256 3.1999,1.79988 2.6502,0.003 2.8467,-0.38645 3.1998,-1.79988 6.4696,-27.923463 17.1999,-407.39994 17.1999,-407.39994 -2.4696,-1.56907 -17.724,-6.7316 -20.3997,-6.8001 z"
       id="path1265"
       inkscape:connector-curvature="0" />
    <path
       style="fill:#ffd70a;fill-opacity:1;fill-rule:nonzero;stroke:none;stroke-width:47.7467041"
       d="m 496.62706,-167.97179 c -0.3764,11.42379 -0.7656,23.05641 -1.1757,35.04127 4.6783,3.79812 6.4777,9.87155 2.9487,12.43076 -16.9828,10.30986 -47.4737,27.794917 -47.6002,52.399897 0.017,21.31174 11.9782,40.22466 18.2655,46.33569 -0.4065,-9.99633 -0.8095,-20.23682 -1.2076,-30.62399 -1.1111,-3.10623 -1.2578,-6.40053 -1.2578,-8.91159 0,-20.79627 35.1454,-41.666157 50.0713,-54.621477 4.1761,-4.43857 4.541,-10.23099 4.5284,-22.77896 -0.086,-10.54917 -13.2937,-24.64567 -24.5726,-29.2716 z"
       id="path1281"
       inkscape:connector-curvature="0" />
    <path
       style="fill:#ffd70a;fill-opacity:1;fill-rule:evenodd;stroke:none;stroke-width:47.7467041"
       d="m 491.57876,-27.845463 c -0.3445,8.54464 -0.6903,16.98017 -1.0387,25.1281698 2.954,5.10696 1.211,12.5232802 -1.1405,14.4172202 -16.322,11.9194 -29.5202,24.45346 -29.5202,34.07646 -0.05,18.43478 5.4545,27.8518 13.8664,29.55064 -0.2263,-3.63559 -0.4548,-7.55071 -0.6842,-11.60653 -2.361,-2.3364 -5.7172,-14.06766 0.4558,-22.4973 4.8482,-5.67222 34.0081,-22.37901 34.0485,-31.88798 -0.2509,-17.2741902 -6.6302,-29.95424 -15.9871,-37.18068 z"
       id="path1283"
       inkscape:connector-curvature="0" />
    <path
       style="fill:#ffd70a;fill-opacity:1;fill-rule:evenodd;stroke:none;stroke-width:47.7467041"
       d="m 487.08966,68.087687 c -0.294,5.02142 -0.5853,9.68597 -0.8734,13.97949 1.0854,3.72015 -0.053,7.63588 -1.4164,10.63295 -3.1022,3.84148 -2.4224,5.85234 -0.6,7.000103 3.7579,-2.485363 9.8049,-8.775853 9.7999,-13.800193 0,-6.05596 -2.772,-14.32951 -6.9101,-17.81235 z"
       id="path1285"
       inkscape:connector-curvature="0"
       sodipodi:nodetypes="cccccc" />
    <path
       style="fill:#ffd70a;fill-opacity:1;fill-rule:nonzero;stroke:none;stroke-width:47.7467041"
       d="m 471.19966,-275.30012 c 0,0 -14.8341,0.5524 -24.8998,13.6002 -10.5761,14.50923 -13.6999,26.02162 -13.6999,36.39984 v 20.6003 c 0,16.62384 16.7891,40.55646 31.4611,45.4861 -0.4645,-13.97228 -0.9032,-27.42023 -1.309,-40.13968 -5.4896,-5.6069 -7.3525,-16.42556 -7.3525,-23.54687 0,-13.76841 9.9669,-30.26792 25,-36.39983 l 6.7004,2.19986 c 3.2353,0.8331 6.9254,0.30352 6.8998,-2.19986 0.061,-4.32365 -0.8133,-5.56462 -6.8502,-6.92051 -3.7542,-1.07499 -7.5407,-9.06376 -15.9499,-9.07955 z"
       id="path1330"
       inkscape:connector-curvature="0" />
  </g>
</svg>
