<?xml version="1.0" encoding="UTF-8" standalone="no"?>
<!-- Created with Inkscape (http://www.inkscape.org/) -->

<svg
   xmlns:dc="http://purl.org/dc/elements/1.1/"
   xmlns:cc="http://creativecommons.org/ns#"
   xmlns:rdf="http://www.w3.org/1999/02/22-rdf-syntax-ns#"
   xmlns:svg="http://www.w3.org/2000/svg"
   xmlns="http://www.w3.org/2000/svg"
   xmlns:sodipodi="http://sodipodi.sourceforge.net/DTD/sodipodi-0.dtd"
   xmlns:inkscape="http://www.inkscape.org/namespaces/inkscape"
   width="978mm"
   height="602mm"
   viewBox="0 0 978 602.00001"
   version="1.1"
   id="svg8781"
   inkscape:version="0.92.2 (5c3e80d, 2017-08-06)"
   sodipodi:docname="22.svg">
  <defs
     id="defs8775">
    <pattern
       y="0"
       x="0"
       height="6"
       width="6"
       patternUnits="userSpaceOnUse"
       id="EMFhbasepattern" />
    <pattern
       y="0"
       x="0"
       height="6"
       width="6"
       patternUnits="userSpaceOnUse"
       id="EMFhbasepattern-3" />
  </defs>
  <sodipodi:namedview
     id="base"
     pagecolor="#ffffff"
     bordercolor="#666666"
     borderopacity="1.0"
     inkscape:pageopacity="0.0"
     inkscape:pageshadow="2"
     inkscape:zoom="0.18958994"
     inkscape:cx="1896.7118"
     inkscape:cy="811.70378"
     inkscape:document-units="mm"
     inkscape:current-layer="layer1"
     showgrid="false"
     showguides="true"
     inkscape:window-width="1920"
     inkscape:window-height="1057"
     inkscape:window-x="-8"
     inkscape:window-y="-8"
     inkscape:window-maximized="1"
     inkscape:snap-global="true"
     fit-margin-top="0"
     fit-margin-left="0"
     fit-margin-right="0"
     fit-margin-bottom="0" />
  <metadata
     id="metadata8778">
    <rdf:RDF>
      <cc:Work
         rdf:about="">
        <dc:format>image/svg+xml</dc:format>
        <dc:type
           rdf:resource="http://purl.org/dc/dcmitype/StillImage" />
        <dc:title></dc:title>
      </cc:Work>
    </rdf:RDF>
  </metadata>
  <g
     inkscape:label="Layer 1"
     inkscape:groupmode="layer"
     id="layer1"
     transform="translate(-84.340927,375.44855)">
    <path
       d="m 223.30196,214.60415 -90.85521,-45.4375 c -4.3649,-8.6365 -45.427596,-89.2918 -45.427596,-90.875 v -112.7546 c 0,-39.2477 -6.146203,-187.84306 5.0856,-222.10206 24.656896,-75.1852 -4.9904,-111.2177 153.936806,-106.9484 34.2026,0.952 78.4785,3.3593 113.5445,0 17.8934,-1.7273 38.8558,-10.9351 56.4133,-10.9351 h 56.3643 c 12.1428,0 125.9702,14.7786 130.4316,20.1999 14.343,-17.3696 105.1016,-6.814 130.3827,-9.2621 17.8444,-1.7273 38.8558,-10.9351 56.4119,-10.9351 h 56.3657 c 17.8444,0 39.0951,9.167 57.22783,10.9351 58.763,5.6579 96.5635,0.544 135.46691,57.1926 7.1524,33.1071 22.6907,79.7918 22.6907,112.8022 0,17.8497 -9.2058,39.105 -10.9327,57.2416 -8.825,91.59446 16.501,193.84116 -11.7485,282.74946 -12.4284,52.1549 -36.2654,72.0189 -135.46691,79.0722 h -57.22783 c -17.5575,0 -38.5199,-9.1669 -56.3657,-10.935 -61.5926,-5.9435 -130.622,0 -192.696,0 l -6.7173,-3.3594 c -1.8221,4.2163 -55.2126,14.2985 -61.4486,14.2985 h -56.3656 c -17.5562,0 -38.5199,-9.1669 -56.3644,-10.935 -61.5451,-5.9436 -130.622,0 -192.696,0"
       style="fill:#782d00;fill-opacity:1;fill-rule:nonzero;stroke:none;stroke-width:47.97531128"
       id="path6315"
       inkscape:connector-curvature="0" />
    <path
       id="path859"
       d="m 353.40766,-230.88941 h -2.94991 l -2.94992,2.94988 2.94992,2.94988 2.94991,2.94989 c 53.01493,2.94988 117.81002,29.4515 159.04338,64.79443 l -41.23336,20.61717 c -61.85074,-2.94989 -141.37175,-29.4529 -179.66077,-79.52158 0,-2.94988 -2.94991,-2.94988 -2.94991,-5.88585 l -2.94991,-5.88585 v -8.83573 0 c 2.94991,-20.61718 20.61738,-47.1244 35.34329,-58.90445 20.61737,-8.83566 53.01492,-17.67143 76.57664,-17.67143 h 17.67165 c 8.83582,0 14.72591,0 20.61737,2.9499 l -85.41247,44.17861 c 26.50608,0 64.7951,-14.72574 85.41247,-26.50719 -17.67163,26.50719 -50.07057,53.01442 -82.46812,61.85015 z"
       style="fill:#ffffff;fill-opacity:1;fill-rule:nonzero;stroke:none;stroke-width:36.81573486"
       inkscape:connector-curvature="0" />
    <path
       id="path861"
       d="m 745.12674,-242.67085 2.94991,2.94989 v 2.94987 2.94988 c 0,0 -2.94991,0 -2.94991,0 -50.07058,5.88585 -91.30396,35.34294 -117.81002,79.52159 l 35.34189,17.67146 c 5.88591,2.94988 14.7273,8.83573 17.67164,14.72575 61.85075,0 123.70149,-47.12297 123.70149,-111.9188 5.88591,-53.01296 -44.1791,-106.02734 -97.19403,-106.02734 -20.61598,0 -38.28763,2.9498 -55.95927,11.78556 47.12346,5.88587 82.46674,20.61721 114.86428,55.96006 -38.28762,-23.5614 -76.57664,-38.28863 -120.75575,-41.23292 l 35.34328,17.67152 5.88591,2.9498 c 0,0 5.88591,8.83576 5.88591,11.78566 l 2.94991,8.83576 c 0,2.94989 2.94992,5.88577 2.94992,5.88577 2.9499,2.94989 8.83581,8.83577 11.78573,8.83577 z"
       style="fill:#ffffff;fill-opacity:1;fill-rule:nonzero;stroke:none;stroke-width:36.81573486"
       inkscape:connector-curvature="0" />
    <path
       style="fill:#ffffff;fill-opacity:1;fill-rule:nonzero;stroke:none;stroke-width:36.79740524"
       d="m 538.97882,-180.84861 -2.94812,2.94918 v 2.94917 l 2.94812,20.61166 c -5.88588,0 -17.65507,2.93431 -20.60287,5.88337 l -44.14614,20.61166 c -17.65901,11.77674 -23.54101,20.60985 -26.48882,44.16473 l 0.0238,8.833061 32.37425,94.221114 c 2.94781,5.889783 8.82976,17.66263 11.77757,20.611676 5.88587,5.898092 14.7191,8.832638 20.60081,11.781711 l 26.48934,8.834093 14.71485,2.948649 h 13.21936 13.21935 l 14.71488,-2.948649 26.48931,-8.834093 c 5.88172,-2.949073 14.71496,-5.883619 20.60083,-11.781711 2.9478,-2.949046 8.82976,-14.721893 11.77756,-20.611676 l 32.37426,-94.221114 0.0238,-8.833061 c -2.94783,-23.55488 -8.82983,-32.38799 -26.48884,-44.16473 L 615.506,-148.45523 c -2.94781,-2.94906 -14.717,-5.88337 -20.6029,-5.88337 l 2.94815,-20.61166 v -2.94917 l -2.94815,-2.94918 -2.94761,2.94918 -2.94815,2.94917 -2.94709,20.61166 h -19.11926 -19.11872 l -2.94764,-20.61166 -2.94812,-2.94917 z"
       id="path863"
       inkscape:connector-curvature="0" />
    <path
       id="path865"
       d="m 270.94093,-192.60217 c 38.28763,41.23295 73.63091,61.85012 126.64584,73.63155 l 47.12345,5.88585 c -2.94992,5.88585 -5.88591,11.78562 -5.88591,17.67147 L 394.6452,-98.363184 C 344.57601,-107.19892 291.56248,-142.54184 270.94511,-192.61052 Z"
       style="fill:#ffffff;fill-opacity:1;fill-rule:nonzero;stroke:none;stroke-width:36.81573486"
       inkscape:connector-curvature="0" />
    <path
       id="path867"
       d="m 270.94093,-121.91633 c 17.67164,38.287256 76.57665,79.521596 117.81001,79.521596 h 58.90501 l -5.8859,-20.617175 h -53.01493 c -41.23337,-2.949884 -91.30256,-26.507189 -117.81001,-58.904421 z"
       style="fill:#ffffff;fill-opacity:1;fill-rule:nonzero;stroke:none;stroke-width:36.81573486"
       inkscape:connector-curvature="0" />
    <path
       id="path869"
       d="m 409.36694,-1.161785 c -8.83583,2.9498842 -20.616,5.8858491 -29.45182,11.785607 C 341.6261,28.295289 309.22856,72.473946 309.22856,116.65261 326.90019,69.528238 365.18922,34.185314 412.31267,19.459556 l 53.01493,-5.885849 -5.88591,-20.6171654 z"
       style="fill:#ffffff;fill-opacity:1;fill-rule:nonzero;stroke:none;stroke-width:36.81573486"
       inkscape:connector-curvature="0" />
    <path
       id="path871"
       d="m 368.13357,175.55145 c 0,-41.23295 26.50746,-94.247338 61.85074,-111.918805 l 53.01493,-17.671457 c 0,-2.949884 -2.94992,-5.885849 -5.88591,-8.835733 0,-2.949884 -2.94992,-5.885849 -5.88591,-8.835734 l -47.12484,14.725758 c -38.28763,23.562875 -58.90502,61.850131 -58.90502,106.028781 0,5.88585 0,17.67146 2.94992,26.50719 z"
       style="fill:#ffffff;fill-opacity:1;fill-rule:nonzero;stroke:none;stroke-width:36.81573486"
       inkscape:connector-curvature="0" />
    <path
       inkscape:connector-curvature="0"
       style="fill:#ffffff;fill-opacity:1;fill-rule:nonzero;stroke:none;stroke-width:36.81573486"
       d="m 862.94098,-192.60217 c -38.28763,41.23295 -73.63091,61.85012 -126.64584,73.63155 l -47.12345,5.88585 c 2.94992,5.88585 5.88591,11.78562 5.88591,17.67147 l 44.17911,-2.949884 c 50.06919,-8.835736 103.08272,-44.178656 123.70009,-94.247336 z"
       id="path926" />
    <path
       inkscape:connector-curvature="0"
       style="fill:#ffffff;fill-opacity:1;fill-rule:nonzero;stroke:none;stroke-width:36.81573486"
       d="m 862.94098,-121.91633 c -17.67164,38.287256 -76.57665,79.521596 -117.81001,79.521596 h -58.90501 l 5.8859,-20.617175 h 53.01493 c 41.23337,-2.949884 91.30256,-26.507189 117.81001,-58.904421 z"
       id="path928" />
    <path
       inkscape:connector-curvature="0"
       style="fill:#ffffff;fill-opacity:1;fill-rule:nonzero;stroke:none;stroke-width:36.81573486"
       d="m 724.51497,-1.161785 c 8.83583,2.9498842 20.616,5.8858491 29.45182,11.785607 38.28902,17.671467 70.68656,61.850124 70.68656,106.028788 C 806.98172,69.528238 768.69269,34.185314 721.56924,19.459556 l -53.01493,-5.885849 5.88591,-20.6171654 z"
       id="path930" />
    <path
       inkscape:connector-curvature="0"
       style="fill:#ffffff;fill-opacity:1;fill-rule:nonzero;stroke:none;stroke-width:36.81573486"
       d="m 765.74834,175.55145 c 0,-41.23295 -26.50746,-94.247338 -61.85074,-111.918805 L 650.88267,45.961188 c 0,-2.949884 2.94992,-5.885849 5.88591,-8.835733 0,-2.949884 2.94992,-5.885849 5.88591,-8.835734 l 47.12484,14.725758 c 38.28763,23.562875 58.90502,61.850131 58.90502,106.028781 0,5.88585 0,17.67146 -2.94992,26.50719 z"
       id="path932" />
  </g>
</svg>
