<?xml version="1.0" encoding="UTF-8" standalone="no"?>
<!-- Created with Inkscape (http://www.inkscape.org/) -->

<svg
   xmlns:dc="http://purl.org/dc/elements/1.1/"
   xmlns:cc="http://creativecommons.org/ns#"
   xmlns:rdf="http://www.w3.org/1999/02/22-rdf-syntax-ns#"
   xmlns:svg="http://www.w3.org/2000/svg"
   xmlns="http://www.w3.org/2000/svg"
   xmlns:sodipodi="http://sodipodi.sourceforge.net/DTD/sodipodi-0.dtd"
   xmlns:inkscape="http://www.inkscape.org/namespaces/inkscape"
   width="978mm"
   height="602mm"
   viewBox="0 0 978 602.00001"
   version="1.1"
   id="svg8781"
   inkscape:version="0.92.2 (5c3e80d, 2017-08-06)"
   sodipodi:docname="22.svg">
  <defs
     id="defs8775" />
  <sodipodi:namedview
     id="base"
     pagecolor="#ffffff"
     bordercolor="#666666"
     borderopacity="1.0"
     inkscape:pageopacity="0.0"
     inkscape:pageshadow="2"
     inkscape:zoom="0.18958994"
     inkscape:cx="1749.7188"
     inkscape:cy="631.48031"
     inkscape:document-units="mm"
     inkscape:current-layer="layer1"
     showgrid="false"
     showguides="true"
     inkscape:window-width="1920"
     inkscape:window-height="1057"
     inkscape:window-x="-8"
     inkscape:window-y="-8"
     inkscape:window-maximized="1"
     inkscape:snap-global="true"
     fit-margin-top="0"
     fit-margin-left="0"
     fit-margin-right="0"
     fit-margin-bottom="0" />
  <metadata
     id="metadata8778">
    <rdf:RDF>
      <cc:Work
         rdf:about="">
        <dc:format>image/svg+xml</dc:format>
        <dc:type
           rdf:resource="http://purl.org/dc/dcmitype/StillImage" />
        <dc:title></dc:title>
      </cc:Work>
    </rdf:RDF>
  </metadata>
  <g
     inkscape:label="Layer 1"
     inkscape:groupmode="layer"
     id="layer1"
     transform="translate(-84.340927,375.44855)">
    <path
       d="m 223.30196,214.60415 -90.85521,-45.4375 c -4.3649,-8.6365 -45.427597,-89.29179 -45.427597,-90.87499 v -112.7546 c 0,-39.2477 -6.1462,-187.84311 5.0856,-222.10211 24.656897,-75.1852 -4.9904,-111.2177 153.936807,-106.9484 34.2026,0.952 78.4785,3.3593 113.5445,0 17.8934,-1.7273 38.8558,-10.9351 56.4133,-10.9351 h 56.3643 c 12.1428,0 125.9702,14.7786 130.4316,20.1999 14.343,-17.3696 105.1016,-6.814 130.3827,-9.2621 17.8444,-1.7273 38.8558,-10.9351 56.4119,-10.9351 h 56.3657 c 17.8444,0 39.0951,9.167 57.2278,10.9351 58.763,5.6579 96.5635,0.544 135.46694,57.1926 7.1524,33.1071 22.6907,79.7918 22.6907,112.8022 0,17.8497 -9.2058,39.105 -10.9327,57.2416 -8.825,91.59451 16.501,193.84121 -11.7485,282.7495 -12.4284,52.1549 -36.2654,72.0189 -135.46694,79.0722 h -57.2278 c -17.5575,0 -38.5199,-9.1669 -56.3657,-10.935 -61.5926,-5.9435 -130.622,0 -192.696,0 l -6.7173,-3.3594 c -1.8221,4.2163 -55.2126,14.2985 -61.4486,14.2985 h -56.3656 c -17.5562,0 -38.5199,-9.1669 -56.3644,-10.935 -61.5451,-5.9436 -130.622,0 -192.696,0"
       style="fill:#782d00;fill-opacity:1;fill-rule:nonzero;stroke:none;stroke-width:47.97531128"
       id="path6315"
       inkscape:connector-curvature="0" />
    <path
       d="m 432.24456,-221.1022 c -6.96148,5.33069 -15.63613,9.98144 -23.93416,12.86435 -3.79346,1.35987 -8.87861,2.69255 -12.80803,3.41328 -4.36452,0.81592 -14.43828,-0.67994 -16.26022,5.1267 v 3.39967 c 0,0.13598 1.53642,3.0733 1.72677,3.45406 3.01845,1.22388 24.36654,3.39967 27.34012,3.39967 h 8.53868 c 9.88476,0 20.52957,-1.22388 29.93028,-4.26998 0,-3.98442 -1.48204,-11.99404 -3.39916,-15.39915 -1.72678,-3.07331 -8.34834,-9.39669 -11.12205,-11.99404"
       style="fill:#ffffff;fill-opacity:1;fill-rule:nonzero;stroke:none;stroke-width:47.96951294"
       id="path5672"
       inkscape:connector-curvature="0" />
    <path
       d="M 545.10887,-67.155622 C 532.35523,-71.520796 518.5832,-84.2818 518.5832,-98.817429 c 0,-17.511011 4.4053,-24.802631 17.98835,-35.069631 l -11.99224,1.72704 c 12.37294,-13.14993 22.25634,-36.55462 22.25634,-54.73605 0,-31.71077 -17.50839,-70.95248 -54.72918,-70.95248 -21.82532,0 -43.02656,10.55257 -53.00241,30.7983 9.64001,6.85373 17.41049,18.56627 17.07601,30.75069 7.57333,2.067 16.97948,3.41326 24.79755,2.59734 l 4.26934,0.81592 2.59696,2.54296 c 0.67983,1.0879 1.2237,3.01891 1.72677,4.26999 l -0.8158,3.45405 c -1.08773,2.58375 -1.2237,3.54927 -2.58335,5.94264 -2.4474,4.26998 -9.06896,11.2189 -12.80803,14.53561 -28.30005,14.72738 -44.46372,42.69579 -44.46372,74.406544 0,7.098512 1.82194,24.130854 5.99611,29.934775 1.53642,8.159207 15.3003,19.093904 22.20739,23.075597 l 17.1236,6.812945 c 3.92943,-4.269989 7.6685,-8.879944 11.93784,-12.809956 22.97696,29.551285 50.7481,46.1498342 88.92881,46.1498342 27.43665,0 69.6474,-19.3318862 83.79742,-43.5592852 21.48813,28.8795081 53.96097,43.5592852 89.74324,43.5592852 29.5958,0 64.17885,-19.8119122 81.20727,-43.5592852 l 5.99612,7.669652 c 12.80803,-7.533673 25.61334,-16.647503 36.74219,-26.529662 l 4.26935,-1.686239 c 26.3326,-11.994033 48.30069,-18.517322 76.98414,-22.259684 21.92051,-2.828522 34.05686,-10.076619 47.00763,-28.207751 l -67.53582,-1.68622 c -56.60008,27.873215 -118.28394,45.527021 -181.26356,50.419824 -48.68547,5.031511 -98.9536,7.628858 -147.87973,5.140304 -19.52206,0.407956 -41.24948,-3.644446 -58.99717,-11.939642"
       style="fill:#ffffff;fill-opacity:1;fill-rule:evenodd;stroke:none;stroke-width:47.96951294"
       id="path5674"
       inkscape:connector-curvature="0" />
    <path
       d="m 541.70291,-125.2995 c 61.49215,-30.36721 131.57058,-47.06095 200.01876,-47.06095 65.85667,0 135.50272,52.43378 200.06499,47.06095 -104.99731,49.461122 -182.26971,60.686834 -297.53248,60.686834 H 604.1074 c -16.69259,0 -40.81982,-5.140304 -56.40837,-11.123727 -8.19876,-2.882914 -14.38931,-8.920729 -17.1236,-17.078576 l -1.72677,-5.126706 V -104.809 c 0,-6.14661 6.33603,-19.04496 12.84882,-20.48506"
       style="fill:#ffffff;fill-opacity:1;fill-rule:nonzero;stroke:none;stroke-width:47.96951294"
       id="path5678"
       inkscape:connector-curvature="0" />
    <path
       inkscape:connector-curvature="0"
       style="fill:#ffffff;fill-opacity:1;fill-rule:nonzero;stroke:none;stroke-width:47.96390533"
       d="m 231.24088,84.15145 c -32.85314,0 -60.98814,-14.03914 -85.39995,-34.99993 v -65.80011 c 24.41181,20.9607899 52.54681,34.99992 85.39995,34.99992 32.85316,0 60.98815,-14.0391301 85.39996,-34.99992 24.41181,20.9607899 52.5468,34.99992 85.39995,34.99992 32.85317,0 60.98814,-14.0391301 85.39995,-34.99992 24.41181,20.9607899 52.5468,34.99992 85.39996,34.99992 32.85318,0 60.98815,-14.0391301 85.39996,-34.99992 24.4118,20.9607899 52.5468,34.99992 85.39996,34.99992 32.85315,0 60.98815,-14.0391301 85.39996,-34.99992 24.4118,20.9607899 52.5468,34.99992 85.39995,34.99992 32.85319,0 60.98813,-14.0391301 85.39994,-34.99992 v 65.80011 c -24.41181,20.96079 -52.54675,34.99993 -85.39994,34.99993 -32.85315,0 -60.98815,-14.03914 -85.39995,-34.99993 -24.41181,20.96079 -52.54681,34.99993 -85.39996,34.99993 -32.85316,0 -60.98816,-14.03914 -85.39996,-34.99993 -24.41181,20.96079 -52.54678,34.99993 -85.39996,34.99993 -32.85316,0 -60.98815,-14.03914 -85.39996,-34.99993 -24.41181,20.96079 -52.54678,34.99993 -85.39995,34.99993 -32.85315,0 -60.98814,-14.03914 -85.39995,-34.99993 -24.41181,20.96079 -52.5468,34.99993 -85.39996,34.99993 z"
       id="path5676-0" />
    <circle
       style="opacity:1;fill:#782d00;fill-opacity:1;fill-rule:nonzero;stroke:none;stroke-width:0.18619244;stroke-linecap:butt;stroke-linejoin:miter;stroke-miterlimit:4;stroke-dasharray:none;stroke-opacity:1;paint-order:stroke fill markers"
       id="path972"
       cx="480.54092"
       cy="-236.04855"
       r="7.1999998" />
  </g>
</svg>
