<?xml version="1.0" encoding="UTF-8" standalone="no"?>
<!-- Created with Inkscape (http://www.inkscape.org/) -->

<svg
   xmlns:dc="http://purl.org/dc/elements/1.1/"
   xmlns:cc="http://creativecommons.org/ns#"
   xmlns:rdf="http://www.w3.org/1999/02/22-rdf-syntax-ns#"
   xmlns:svg="http://www.w3.org/2000/svg"
   xmlns="http://www.w3.org/2000/svg"
   xmlns:sodipodi="http://sodipodi.sourceforge.net/DTD/sodipodi-0.dtd"
   xmlns:inkscape="http://www.inkscape.org/namespaces/inkscape"
   width="978mm"
   height="602mm"
   viewBox="0 0 978 602.00001"
   version="1.1"
   id="svg8781"
   inkscape:version="0.92.2 (5c3e80d, 2017-08-06)"
   sodipodi:docname="22.svg">
  <defs
     id="defs8775">
    <pattern
       y="0"
       x="0"
       height="6"
       width="6"
       patternUnits="userSpaceOnUse"
       id="EMFhbasepattern" />
    <pattern
       y="0"
       x="0"
       height="6"
       width="6"
       patternUnits="userSpaceOnUse"
       id="EMFhbasepattern-3" />
  </defs>
  <sodipodi:namedview
     id="base"
     pagecolor="#ffffff"
     bordercolor="#666666"
     borderopacity="1.0"
     inkscape:pageopacity="0.0"
     inkscape:pageshadow="2"
     inkscape:zoom="0.26812066"
     inkscape:cx="1631.9668"
     inkscape:cy="1279.6188"
     inkscape:document-units="mm"
     inkscape:current-layer="layer1"
     showgrid="false"
     showguides="true"
     inkscape:window-width="1920"
     inkscape:window-height="1057"
     inkscape:window-x="-8"
     inkscape:window-y="-8"
     inkscape:window-maximized="1"
     inkscape:snap-global="true"
     fit-margin-top="0"
     fit-margin-left="0"
     fit-margin-right="0"
     fit-margin-bottom="0" />
  <metadata
     id="metadata8778">
    <rdf:RDF>
      <cc:Work
         rdf:about="">
        <dc:format>image/svg+xml</dc:format>
        <dc:type
           rdf:resource="http://purl.org/dc/dcmitype/StillImage" />
        <dc:title></dc:title>
      </cc:Work>
    </rdf:RDF>
  </metadata>
  <g
     inkscape:label="Layer 1"
     inkscape:groupmode="layer"
     id="layer1"
     transform="translate(-84.340927,375.44855)">
    <path
       d="m 223.30196,214.60415 -90.85521,-45.4375 c -4.3649,-8.6365 -45.427596,-89.2918 -45.427596,-90.875 v -112.7546 c 0,-39.2477 -6.146203,-187.84306 5.0856,-222.10206 24.656896,-75.1852 -4.9904,-111.2177 153.936806,-106.9484 34.2026,0.952 78.4785,3.3593 113.5445,0 17.8934,-1.7273 38.8558,-10.9351 56.4133,-10.9351 h 56.3643 c 12.1428,0 125.9702,14.7786 130.4316,20.1999 14.343,-17.3696 105.1016,-6.814 130.3827,-9.2621 17.8444,-1.7273 38.8558,-10.9351 56.4119,-10.9351 h 56.3657 c 17.8444,0 39.0951,9.167 57.22783,10.9351 58.763,5.6579 96.5635,0.544 135.46691,57.1926 7.1524,33.1071 22.6907,79.7918 22.6907,112.8022 0,17.8497 -9.2058,39.105 -10.9327,57.2416 -8.825,91.59446 16.501,193.84116 -11.7485,282.74946 -12.4284,52.1549 -36.2654,72.0189 -135.46691,79.0722 h -57.22783 c -17.5575,0 -38.5199,-9.1669 -56.3657,-10.935 -61.5926,-5.9435 -130.622,0 -192.696,0 l -6.7173,-3.3594 c -1.8221,4.2163 -55.2126,14.2985 -61.4486,14.2985 h -56.3656 c -17.5562,0 -38.5199,-9.1669 -56.3644,-10.935 -61.5451,-5.9436 -130.622,0 -192.696,0"
       style="fill:#782d00;fill-opacity:1;fill-rule:nonzero;stroke:none;stroke-width:47.97531128"
       id="path6315"
       inkscape:connector-curvature="0" />
    <path
       d="m 811.89632,-247.1565 c 4.60613,0.555 9.9892,1.72051 14.53705,1.72051 41.55366,0 74.15034,-22.36939 94.90151,-57.26919 -4.39803,5.86911 -55.40395,4.2596 -66.70978,6.85427 -20.85106,4.74527 -37.68701,14.4397 -53.83898,28.19402 -10.41928,-27.55715 -35.92502,-37.59166 -63.28431,-37.59166 -0.41622,0 -2.15046,0.69377 -2.53893,0.83256 -20.21424,9.00485 -37.44143,15.07516 -59.85885,15.41794 h -7.68613 c 25.94138,19.62765 66.26997,36.9062 99.16078,37.59167 2.30307,10.12875 3.42685,21.2926 3.42685,31.66975 0,15.85917 -11.30721,51.88572 -21.38798,64.12212 l -23.93382,29.90765 2.53892,-3.42712 c -17.13008,20.70571 -39.20481,35.145471 -64.94919,42.780909 -6.02126,-0.277497 -11.1546,0.832509 -17.08151,0.832509 -10.72452,0 -29.02277,-5.230895 -38.4695,-10.281409 l 6.7982,3.427133 c -53.25073,-29.809152 -130.77797,-47.039172 -191.46926,-47.039172 -39.93735,0 -79.48484,5.09213 -118.00289,15.41794 -8.26884,3.03864 -17.81684,5.67489 -25.64726,9.39341 -4.45351,2.10901 -9.58685,6.56289 -13.7074,9.3934 4.70325,2.49751 12.62524,5.13378 17.96251,5.13378 10.91875,0 18.69644,-5.13378 29.90516,-5.13378 15.9064,0 24.76487,16.397529 27.35929,29.956227 0.97117,5.036634 0.27747,10.378534 1.70648,15.36938 -4.16216,43.270708 31.17739,81.791987 72.68248,88.057962 v 4.259632 c -47.47641,-5.772018 -76.94037,-46.647893 -76.94037,-92.316204 0,-12.876042 -6.70108,-41.017397 -23.93383,-41.017397 -8.32432,0 -14.82979,5.09214 -22.2204,5.09214 -10.37767,0 -19.48032,-0.693756 -29.07272,-5.09214 l -23.93383,51.297415 -0.83243,4.259642 0.83243,3.427132 c 42.82589,81.057994 138.16858,160.256731 232.53316,167.598031 0.55496,-3.46876 -0.13873,-6.75716 -1.1099,-9.99004 -0.55496,-1.76213 -2.84415,-6.70164 -4.00956,-7.97815 -2.40018,-2.69175 -8.51856,-4.70364 -11.94541,-5.13377 -2.40018,-0.27749 -5.24432,0 -7.72775,0 l 5.13334,-5.133752 c 3.8708,0.971252 10.41928,2.150622 15.41665,6.021762 l 3.42685,3.37164 c 3.96793,5.24476 5.92414,13.16741 5.09171,19.67759 0.97118,13.65303 7.00632,28.92806 17.13147,38.47271 3.27424,3.13576 8.6573,6.36865 12.81946,8.5609 L 532.32792,123.9676 520.34089,96.604629 511.82233,80.354183 h 5.96577 l 9.39262,17.082946 5.96577,11.113911 c 0.69369,2.20614 4.3564,7.24277 6.02126,8.56089 2.34469,1.95638 8.03297,3.42715 11.05748,3.42715 1.8591,0 4.16217,-0.55501 6.02126,-0.83251 145.26508,-28.585353 258.17904,-165.835895 258.17904,-313.75634 0,-17.76837 0,-35.43963 -2.53892,-53.06094"
       style="fill:#ffffff;fill-opacity:1;fill-rule:nonzero;stroke:none;stroke-width:48.9460144"
       id="path6148"
       inkscape:connector-curvature="0" />
    <path
       d="m 736.66937,-150.48351 7.68613,-9.44891 c 8.75442,-12.33493 13.95019,-27.16595 17.08152,-41.84991 -35.67946,5.48064 -71.01761,-11.44691 -96.61493,-35.09553 -24.178,22.41791 -51.97848,35.92804 -85.45616,35.92804 -33.47767,0 -61.32671,-13.55592 -85.50472,-35.92804 -24.22796,22.41791 -51.97849,35.92804 -85.50612,35.92804 -33.47767,0 -61.3267,-13.51429 -85.50472,-35.92804 -24.22656,22.41791 -51.97848,35.92804 -85.50472,35.92804 -33.47767,0 -61.32671,-13.55592 -85.50472,-35.92804 v 51.29742 c 24.17801,22.36934 52.02705,35.92804 85.50472,35.92804 33.52624,0 61.27816,-13.51429 85.50472,-35.92804 24.17802,22.36934 52.02705,35.92804 85.50472,35.92804 33.52763,0 61.27816,-13.51429 85.50612,-35.92804 24.17801,22.36934 52.02705,35.92804 85.50472,35.92804 33.47768,0 61.27816,-13.51429 85.45616,-35.92804 23.34559,21.58541 41.06392,28.58536 71.85006,35.09554"
       style="fill:#ffffff;fill-opacity:1;fill-rule:nonzero;stroke:none;stroke-width:48.9460144"
       id="path6150"
       inkscape:connector-curvature="0" />
    <path
       d="m 1006.8409,-236.87647 v 51.29742 c -24.22788,22.41791 -52.02835,35.92804 -85.50602,35.92804 -33.47768,0 -61.32672,-13.55593 -85.50473,-35.92804 -3.7182,4.45389 -11.65406,10.32302 -16.24909,13.70854 0.27749,-8.2279 0.83243,-16.59316 0.83243,-24.8169 0,-8.81065 -0.55494,-17.71982 -0.83243,-26.48052 l 8.56019,-6.85428 c 2.53892,-2.05351 5.53567,-4.25962 7.68613,-6.85426 24.17801,22.36934 52.02705,35.92803 85.50472,35.92803 33.47767,0 61.27815,-13.51429 85.5061,-35.92803"
       style="fill:#ffffff;fill-opacity:1;fill-rule:nonzero;stroke:none;stroke-width:48.9460144"
       id="path6152"
       inkscape:connector-curvature="0" />
    <path
       d="m 443.39775,20.491694 c 1.24864,0.138753 4.99459,0.971252 5.96577,0.832509 l 6.85369,-1.720506 c 1.41514,0 8.36595,0.693746 9.39261,1.720506 l 2.30307,2.303257 c 3.57946,3.579756 0.97117,4.509381 2.53892,8.560893 l 1.10991,2.844391"
       style="fill:#782d00;fill-opacity:1;fill-rule:nonzero;stroke:none;stroke-width:48.9460144"
       id="path6154"
       inkscape:connector-curvature="0"
       sodipodi:nodetypes="ccccscc" />
  </g>
</svg>
