<?xml version="1.0" encoding="UTF-8" standalone="no"?>
<!-- Created with Inkscape (http://www.inkscape.org/) -->

<svg
   xmlns:dc="http://purl.org/dc/elements/1.1/"
   xmlns:cc="http://creativecommons.org/ns#"
   xmlns:rdf="http://www.w3.org/1999/02/22-rdf-syntax-ns#"
   xmlns:svg="http://www.w3.org/2000/svg"
   xmlns="http://www.w3.org/2000/svg"
   xmlns:sodipodi="http://sodipodi.sourceforge.net/DTD/sodipodi-0.dtd"
   xmlns:inkscape="http://www.inkscape.org/namespaces/inkscape"
   width="602mm"
   height="602mm"
   viewBox="0 0 602 602"
   version="1.1"
   id="svg8781"
   inkscape:version="0.92.2 (5c3e80d, 2017-08-06)"
   sodipodi:docname="11.svg">
  <defs
     id="defs8775">
    <pattern
       y="0"
       x="0"
       height="6"
       width="6"
       patternUnits="userSpaceOnUse"
       id="EMFhbasepattern" />
  </defs>
  <sodipodi:namedview
     id="base"
     pagecolor="#ffffff"
     bordercolor="#666666"
     borderopacity="1.0"
     inkscape:pageopacity="0.0"
     inkscape:pageshadow="2"
     inkscape:zoom="0.21461796"
     inkscape:cx="1883.9869"
     inkscape:cy="817.2147"
     inkscape:document-units="mm"
     inkscape:current-layer="layer1"
     showgrid="false"
     showguides="false"
     inkscape:window-width="1920"
     inkscape:window-height="1057"
     inkscape:window-x="-8"
     inkscape:window-y="-8"
     inkscape:window-maximized="1"
     inkscape:snap-global="false"
     inkscape:measure-start="0,0"
     inkscape:measure-end="0,0" />
  <metadata
     id="metadata8778">
    <rdf:RDF>
      <cc:Work
         rdf:about="">
        <dc:format>image/svg+xml</dc:format>
        <dc:type
           rdf:resource="http://purl.org/dc/dcmitype/StillImage" />
        <dc:title></dc:title>
      </cc:Work>
    </rdf:RDF>
  </metadata>
  <g
     inkscape:label="Layer 1"
     inkscape:groupmode="layer"
     id="layer1"
     transform="translate(0,305)">
    <path
       d="M 18.208834,246.8619 C 16.856104,237.4367 2.0211745,142.5842 2.0211745,141.0281 V 30.19416 c 0,-38.5793 -4.34995,-74.0929 6.59124,-107.767 11.4584095,-35.1367 -21.8478905,-121.77655 0,-151.8196 84.9633595,-116.72832 153.6448455,-53.7184 258.4905455,-63.85886 38.7849,-3.77009 70.8804,-10.74876 110.7885,-10.74876 17.124,0 37.5687,9.05088 54.9725,10.74876 77.5711,-17.92128 118.6489,-11.36374 158.6499,44.4282 6.0873,32.82516 -3.5542,90.45936 -3.5542,122.67086 0,17.3572 -9.6415,38.5806 -11.4584,56.2666 -9.363,90.5997 43.1825,193.13274 17.2168,281.84744 -9.8272,98.0049 -123.9816,73.8109 -215.8213,73.8109 -17.1239,0 -54.5521,10.2273 -72.05,10.2273 -53.897,0 -92.8688,-20.9881 -145.1293,-20.9881 -10.0526,0 -34.2466,10.468 -44.0711,8.6364 -46.177086,0 -92.027976,7.6872 -98.437526,-36.7878"
       style="fill:#782d00;fill-opacity:1;fill-rule:nonzero;stroke:none;stroke-width:46.97400665"
       id="path6282"
       inkscape:connector-curvature="0" />
    <path
       inkscape:connector-curvature="0"
       id="path860"
       style="fill:#ffffff;fill-opacity:1;fill-rule:nonzero;stroke:none;stroke-width:46.75320816"
       d="m 326.79089,68.46869 c 17.5787,40.4441 50.4434,78.17648 94.9963,89.21163 0.2651,-2.10736 0.7951,-4.62559 0.7951,-6.69319 v -11.68989 c 0,-9.48975 -7.3415,-26.93182 -12.4833,-34.97293 l 2.4782,-3.36647 c 2.4251,3.12791 4.9562,6.17629 7.527,9.21141 1.5903,-17.86087 -7.4343,-38.90135 -18.326,-52.50774 l 8.3222,-4.20148 15.0078,23.37846 c 1.8155,0.13254 8.4149,-0.13254 10.0052,-0.79523 1.4047,-0.66269 5.1417,-4.1617 5.791,-5.84494 2.6239,-1.86879 23.3751,-16.36586 24.1702,-17.48712 l 4.996,-5.00996 h 10.84 l -0.7951,5.00996 c -1.3517,3.18092 -6.2681,9.58252 -9.157,11.63687 -1.7758,1.32538 -4.678,2.33267 -6.679,3.36648 -3.5118,2.51823 -12.4303,9.44999 -15.0065,12.48511 -2.107,2.51824 -4.0153,6.30884 -5.8043,9.15841 -3.1275,8.08485 -7.5271,16.08486 -7.5271,24.96892 0,7.0643 1.3252,14.96227 3.366,21.69522 v 12.48512 c 0.6626,8.32343 2.8491,17.01926 4.996,25.01399 33.8944,20.66671 72.6138,31.3957 111.6964,36.67868 V 256 H 56 V 19.4 c 9.54137,-5.00995 28.98458,-17.61538 35.81064,-25.89109 1.96128,-1.44467 4.58517,-3.92313 6.67897,-5.00994 2.33234,-1.19285 10.27041,-3.02064 13.31039,-3.29897 h 145.80003 c 26.4137,24.40695 49.207,53.52176 69.16836,83.3058"
       sodipodi:nodetypes="ccssccccccccccccccccscccccccccccc" />
    <path
       inkscape:connector-curvature="0"
       id="path862"
       style="fill:#ffffff;fill-opacity:1;fill-rule:nonzero;stroke:none;stroke-width:46.75206757"
       d="m 381.80249,-33.94596 c -7.859,1.68303 -16.036,4.2142 -23.3304,7.47423 l -4.9964,1.68305 c -2.2927,1.40472 -3.8831,4.39972 -4.9963,6.69236 l -0.7952,6.63936 c 0,1.53725 2.147,4.34671 1.6831,5.84422 1.7759,1.59026 4.9964,6.77187 4.9964,9.15727 0,3.79014 -2.5711,10.33673 -5.8446,12.48358 l -5.8445,1.68303 -4.1614,4.1612 c -1.6831,2.29262 -3.3132,7.15618 -3.3132,10.0054 0,2.19987 2.3325,7.62003 4.1614,9.15728 1.4976,0.79514 3.4192,2.01434 4.9963,2.51793 l 5.8446,0.79513 3.3132,-0.79513 h 4.1614 l 3.3265,2.47815 6.6794,7.47426 c 3.1807,1.86856 7.9518,3.36606 11.6361,3.36606 1.4048,0 7.6734,-2.33239 9.1577,-3.36606 9.3036,-2.0541 19.8224,-4.71779 28.3321,-9.15728 l 8.3758,-2.47816 2.4783,0.79513 0.7952,2.47816 -3.3132,0.79513 c -1.1928,1.86856 -2.2398,4.4925 -2.5313,6.69237 l 1.6831,2.47817 3.3132,0.79512 c 0.9277,-0.26504 4.5325,-1.53726 4.9964,-2.51792 6.083,-2.57093 39.4128,-14.63176 44.1825,-13.32377 l 4.9566,-0.79512 c 2.1469,0.92764 6.2156,3.92264 7.5276,5.84422 l 1.6434,4.16119 c 0.265,1.1927 0,2.99499 0,4.16119 0.5301,1.7758 0.9277,4.20096 1.7229,5.84422 0.9277,2.14686 5.5132,7.89832 7.4746,9.17053 l 3.8831,1.68303 c 0.7952,0.26505 2.4783,1.1927 3.6048,0.79513 l 12.524,0.79514 c 2.7566,0.39757 11.9276,1.32521 14.166,2.47816 1.7759,-0.0941 4.5855,-1.06018 6.0831,-1.96133 7.4879,-4.25396 11.265,-9.11752 13.3722,-17.48496 0.1325,-0.92765 0.5301,-1.32521 0.5301,-2.19986 0,-2.1071 -0.5301,-4.58528 -0.7952,-6.69237 l -4.1614,-4.16119 c -1.1928,-1.86857 -2.2,-4.4925 -2.4783,-6.63936 l 1.6831,-3.36606 c 2.5181,-0.13252 7.4747,-10.52225 7.4747,-12.48358 v -5.84422 l -1.6832,-6.69236 -3.3132,-4.1612 c -0.3976,-0.92765 -1.9216,-6.26829 -1.6831,-7.47425 v -5.00934 c -1.1928,-2.66369 -4.3469,-5.69843 -6.6397,-7.52725 l -6.6795,-0.79513 c -1.3253,-0.53008 -9.0252,-6.40081 -10.0059,-7.52726 l -1.6301,-3.31304 -2.5181,-3.31306 -4.1614,-1.68302 h -4.1614 l -2.518,1.68302 c -4.4398,0.0464 -10.1915,-1.19269 -14.1661,-3.36605 l -3.8831,-2.75646 c -1.1927,-0.79514 -2.6638,-1.86857 -3.6048,-3.03477 l -4.9963,-4.16118 c -1.6831,-0.79513 -11.265,-2.51792 -13.3245,-2.51792 l -5.8445,1.68302 c -2.1072,0.5301 -4.5325,1.35173 -6.6397,1.64328 -1.7759,0.26504 -4.0686,0 -5.8445,0 l -11.6891,-3.3263 c -1.3518,0 -3.6976,-0.26505 -4.9963,0 l -4.1615,1.68302 -2.4783,3.32632 c -7.6204,4.20094 -17.8132,9.15727 -26.6489,9.15727 -2.6638,0 -5.6987,-0.5301 -8.3626,-0.79513 l -3.3264,-2.47817 h -4.1615 l -4.9963,3.31305" />
    <circle
       style="opacity:1;fill:#ffffff;fill-opacity:1;fill-rule:nonzero;stroke:none;stroke-width:0.17201051;stroke-linecap:butt;stroke-linejoin:miter;stroke-miterlimit:4;stroke-dasharray:none;stroke-opacity:1;paint-order:stroke fill markers"
       id="path881"
       cx="201.49994"
       cy="-227.49998"
       r="16.5" />
    <path
       inkscape:connector-curvature="0"
       id="path957"
       style="fill:#ffffff;fill-opacity:1;fill-rule:nonzero;stroke:none;stroke-width:46.70223999"
       d="m 210.88313,-198.13908 99.1169,30.75754 c -2.9011,5.46406 -14.1594,15.82333 -20.8423,10.83554 l -53.2729,-16.61582 -11.6835,39.06482 h -36.6376 l -7.5242,-25.76317 -25.7965,45.73945 c -4.4313,7.04414 -15.8318,2.2438 -15.84303,-4.97616 0.0254,-1.27311 0.82218,-2.75802 1.68233,-4.16592 l 35.0017,-59.88118 c 3.6428,-9.5258 16.0298,-15.8233 25.7965,-15.8233 3.272,0 7.3457,-0.1187 10.0013,0.7938"
       sodipodi:nodetypes="cccccccccccsc" />
    <path
       inkscape:connector-curvature="0"
       id="path959"
       style="fill:#ffffff;fill-opacity:1;fill-rule:nonzero;stroke:none;stroke-width:46.68941879"
       d="m 197.55603,-24.2089 7.4567,-69.96685 h 7.5096 l 20.7557,73.28561 c 1.3486,3.32538 3.9147,5.78744 9.1358,5.8426 11.2894,0.11928 9.2361,-9.75701 8.3425,-12.44038 L 223.33183,-123.3 h -34.0945 l -10.8148,99.13084 c -0.2525,4.1827 1.596,9.25759 6.6634,9.16799 h 4.9843 c 5.6961,0 6.8932,-4.96943 7.4171,-9.16799"
       sodipodi:nodetypes="ccccscccccsc" />
  </g>
</svg>
