<?xml version="1.0" encoding="UTF-8" standalone="no"?>
<!-- Created with Inkscape (http://www.inkscape.org/) -->

<svg
   xmlns:dc="http://purl.org/dc/elements/1.1/"
   xmlns:cc="http://creativecommons.org/ns#"
   xmlns:rdf="http://www.w3.org/1999/02/22-rdf-syntax-ns#"
   xmlns:svg="http://www.w3.org/2000/svg"
   xmlns="http://www.w3.org/2000/svg"
   xmlns:sodipodi="http://sodipodi.sourceforge.net/DTD/sodipodi-0.dtd"
   xmlns:inkscape="http://www.inkscape.org/namespaces/inkscape"
   width="978mm"
   height="602mm"
   viewBox="0 0 978 602.00001"
   version="1.1"
   id="svg8781"
   inkscape:version="0.92.2 (5c3e80d, 2017-08-06)"
   sodipodi:docname="22.svg">
  <defs
     id="defs8775">
    <pattern
       y="0"
       x="0"
       height="6"
       width="6"
       patternUnits="userSpaceOnUse"
       id="EMFhbasepattern" />
    <pattern
       y="0"
       x="0"
       height="6"
       width="6"
       patternUnits="userSpaceOnUse"
       id="EMFhbasepattern-3" />
  </defs>
  <sodipodi:namedview
     id="base"
     pagecolor="#ffffff"
     bordercolor="#666666"
     borderopacity="1.0"
     inkscape:pageopacity="0.0"
     inkscape:pageshadow="2"
     inkscape:zoom="0.18958994"
     inkscape:cx="1492.1541"
     inkscape:cy="820.46931"
     inkscape:document-units="mm"
     inkscape:current-layer="layer1"
     showgrid="false"
     showguides="true"
     inkscape:window-width="1920"
     inkscape:window-height="1057"
     inkscape:window-x="-8"
     inkscape:window-y="-8"
     inkscape:window-maximized="1"
     inkscape:snap-global="true"
     fit-margin-top="0"
     fit-margin-left="0"
     fit-margin-right="0"
     fit-margin-bottom="0" />
  <metadata
     id="metadata8778">
    <rdf:RDF>
      <cc:Work
         rdf:about="">
        <dc:format>image/svg+xml</dc:format>
        <dc:type
           rdf:resource="http://purl.org/dc/dcmitype/StillImage" />
        <dc:title></dc:title>
      </cc:Work>
    </rdf:RDF>
  </metadata>
  <g
     inkscape:label="Layer 1"
     inkscape:groupmode="layer"
     id="layer1"
     transform="translate(-84.340927,375.44855)">
    <path
       d="m 223.30196,214.60415 -90.85521,-45.4375 c -4.3649,-8.6365 -45.427597,-89.2918 -45.427597,-90.875 v -112.7546 c 0,-39.2477 -6.1462,-187.843 5.0856,-222.102 24.656897,-75.1852 -4.9904,-111.2177 153.936807,-106.9484 34.2026,0.952 78.4785,3.3593 113.5445,0 17.8934,-1.7273 38.8558,-10.9351 56.4133,-10.9351 h 56.3643 c 12.1428,0 125.9702,14.7786 130.4316,20.1999 14.343,-17.3696 105.1016,-6.814 130.3827,-9.2621 17.8444,-1.7273 38.8558,-10.9351 56.4119,-10.9351 h 56.3657 c 17.8444,0 39.0951,9.167 57.22783,10.9351 58.763,5.6579 96.5635,0.544 135.46691,57.1926 7.1524,33.1071 22.6907,79.7918 22.6907,112.8022 0,17.8497 -9.2058,39.105 -10.9327,57.2416 -8.825,91.5944 16.501,193.8411 -11.7485,282.7494 -12.4284,52.1549 -36.2654,72.0189 -135.46691,79.0722 h -57.22783 c -17.5575,0 -38.5199,-9.1669 -56.3657,-10.935 -61.5926,-5.9435 -130.622,0 -192.696,0 l -6.7173,-3.3594 c -1.8221,4.2163 -55.2126,14.2985 -61.4486,14.2985 h -56.3656 c -17.5562,0 -38.5199,-9.1669 -56.3644,-10.935 -61.5451,-5.9436 -130.622,0 -192.696,0"
       style="fill:#782d00;fill-opacity:1;fill-rule:nonzero;stroke:none;stroke-width:47.97531128"
       id="path6315"
       inkscape:connector-curvature="0" />
    <path
       d="m 514.0584,104.97226 c 18.45344,-1.41534 37.39666,-2.05363 55.55595,-5.96665 20.60681,-4.454164 89.37711,-30.397994 98.33466,-51.300688 3.91268,-6.369056 9.54585,-25.748177 11.11369,-33.384092 h 10.2812 l -8.56074,41.069967 c -3.03856,13.806548 -10.12857,26.286555 -17.13255,38.475178 -3.62132,10.032295 -15.85887,25.455385 -23.93397,32.504355 -4.25957,3.71875 -10.28122,7.49301 -15.37048,10.22657 l 58.98164,-12.82137 c 8.17225,-0.97131 16.69135,-5.18959 23.10288,-10.22655 l -1.7066,0.83255 c 15.27196,-13.16825 26.52995,-34.216651 26.52995,-54.728049 0,-6.66044 -0.97123,-13.848178 -1.70659,-20.510008 l -4.30119,-16.251484 c -1.38748,-9.29688 -3.81555,-19.5817146 -7.68662,-28.1958941 l 9.39323,0.8325626 13.70826,39.3576815 34.16524,-79.546536 c 8.5191,-16.202923 13.70826,-38.279525 13.70826,-56.440333 0,-73.08452 -43.61256,-83.55946 -43.61256,-119.68543 0,-14.2936 6.41014,-28.1959 16.25013,-38.47657 3.27444,-4.80107 5.13367,-17.42537 5.13367,-23.10476 0,-6.17479 -1.47073,-13.2654 -4.30117,-18.84638 l -18.79477,18.84638 c 4.35667,-6.7021 9.39321,-16.69145 9.39321,-24.76857 v -10.28206 c 0,-3.37185 -5.09203,-15.66313 -6.79863,-18.84488 -2.10896,-0.83261 -4.10694,-2.20633 -6.02166,-3.38575 h -5.13366 l -4.25955,1.72063 -23.93536,19.62889 c -10.32283,4.45417 -20.85239,10.53176 -29.95563,17.08406 -7.534,1.91483 -16.93553,4.25986 -23.93537,7.72881 -20.65536,10.32376 -39.30443,37.30131 -39.30443,60.70029 v 11.98881 c 0,3.96851 1.51234,14.04937 3.42706,17.96516 3.87106,53.94406 -26.18723,104.754931 -70.14112,134.223244 l -20.5083,8.561438 -138.52014,42.733702 c -8.56073,4.454177 -17.18113,8.9638452 -25.6489,13.7094165 C 344.09941,4.4716919 322.563,30.858158 322.563,51.073992 v 11.98881 c 0,7.201599 7.33975,24.181574 11.11369,30.789293 l 34.21379,-36.761492 6.79863,7.687265 c -9.79558,15.664536 -22.12331,31.2805 -35.04627,44.447372 -19.18742,23.39898 -41.84908,44.74154 -65.00191,64.12621 h 29.07458 c 30.15265,-1.66511 73.76383,-13.16826 100.04818,-28.19588 33.57834,18.06368 86.04993,27.36472 123.98355,27.36472 32.89153,0 66.12716,-4.35705 97.45361,-14.5392 -7.04839,0.27751 -14.24385,0.83255 -21.34078,0.83255 -67.84069,0 -131.37465,-35.93033 -171.02179,-89.777258 l 5.96614,-7.687265 c 3.87107,6.993475 16.98549,21.048396 23.10288,26.530778 5.03654,5.439362 20.2641,12.724235 27.36244,14.539195 7.534,1.85938 16.9841,2.24791 24.81502,2.5393"
       style="fill:#ffffff;fill-opacity:1;fill-rule:nonzero;stroke:none;stroke-width:48.94914246"
       id="path6230"
       inkscape:connector-curvature="0" />
    <path
       d="m 773.08645,-18.139138 c -8.26935,18.7477718 -16.59283,41.314191 -26.48,58.985187 l 35.92733,56.441728 c 0.8325,0.971314 2.53909,3.427353 3.37157,4.259903 l 2.59458,1.70675 c 6.2159,2.40053 13.90114,3.42735 20.5083,3.42735 15.61468,0 34.85066,-13.84818 41.89903,-27.363333 2.20608,-4.204403 3.67682,-9.93516 5.13367,-14.539199 -3.67682,-0.69379 -8.26937,1.720616 -11.9878,1.720616 h -11.1137 c -2.49746,0 -11.94617,-2.941694 -14.5366,-4.01014 C 784.4818,48.391782 782.52407,12.854138 773.07674,-18.132198"
       style="fill:#ffffff;fill-opacity:1;fill-rule:nonzero;stroke:none;stroke-width:48.94914246"
       id="path6232"
       inkscape:connector-curvature="0" />
    <path
       d="m 715.81835,-307.14696 -18.79476,12.82139 8.56073,11.94718 10.22571,-24.76857"
       style="fill:#782d00;fill-opacity:1;fill-rule:evenodd;stroke:none;stroke-width:48.94914246"
       id="path6234"
       inkscape:connector-curvature="0" />
    <path
       d="m 670.49364,-274.69257 c -10.66969,-0.69381 -21.19371,8.0203 -24.76646,17.671 l -1.7066,4.60681 v 5.96665 c 0,3.77426 3.42707,14.68489 3.42707,22.22368 0,2.10915 -0.55498,4.70395 -0.83249,6.85472 l 8.56073,0.83255 v -33.33553 c 0,-9.10261 8.51911,-13.90229 16.25014,-15.37175 l -0.83249,-9.44953"
       style="fill:#782d00;fill-opacity:1;fill-rule:nonzero;stroke:none;stroke-width:48.94914246"
       id="path6236"
       inkscape:connector-curvature="0" />
  </g>
</svg>
