<?xml version="1.0" encoding="UTF-8" standalone="no"?>
<!-- Created with Inkscape (http://www.inkscape.org/) -->

<svg
   xmlns:dc="http://purl.org/dc/elements/1.1/"
   xmlns:cc="http://creativecommons.org/ns#"
   xmlns:rdf="http://www.w3.org/1999/02/22-rdf-syntax-ns#"
   xmlns:svg="http://www.w3.org/2000/svg"
   xmlns="http://www.w3.org/2000/svg"
   xmlns:sodipodi="http://sodipodi.sourceforge.net/DTD/sodipodi-0.dtd"
   xmlns:inkscape="http://www.inkscape.org/namespaces/inkscape"
   width="978mm"
   height="602mm"
   viewBox="0 0 978 602.00001"
   version="1.1"
   id="svg8781"
   inkscape:version="0.92.2 (5c3e80d, 2017-08-06)"
   sodipodi:docname="22.svg">
  <defs
     id="defs8775" />
  <sodipodi:namedview
     id="base"
     pagecolor="#ffffff"
     bordercolor="#666666"
     borderopacity="1.0"
     inkscape:pageopacity="0.0"
     inkscape:pageshadow="2"
     inkscape:zoom="0.18958994"
     inkscape:cx="1865.1394"
     inkscape:cy="1138.0602"
     inkscape:document-units="mm"
     inkscape:current-layer="layer1"
     showgrid="false"
     showguides="true"
     inkscape:window-width="1920"
     inkscape:window-height="1057"
     inkscape:window-x="-8"
     inkscape:window-y="-8"
     inkscape:window-maximized="1"
     inkscape:snap-global="true"
     fit-margin-top="0"
     fit-margin-left="0"
     fit-margin-right="0"
     fit-margin-bottom="0" />
  <metadata
     id="metadata8778">
    <rdf:RDF>
      <cc:Work
         rdf:about="">
        <dc:format>image/svg+xml</dc:format>
        <dc:type
           rdf:resource="http://purl.org/dc/dcmitype/StillImage" />
        <dc:title></dc:title>
      </cc:Work>
    </rdf:RDF>
  </metadata>
  <g
     inkscape:label="Layer 1"
     inkscape:groupmode="layer"
     id="layer1"
     transform="translate(-84.340927,375.44855)">
    <path
       d="m 223.30196,214.60415 -90.85521,-45.4375 c -4.3649,-8.6365 -45.427597,-89.29179 -45.427597,-90.87499 v -112.7546 c 0,-39.2477 -6.1462,-187.84311 5.0856,-222.10211 24.656897,-75.1852 -4.9904,-111.2177 153.936807,-106.9484 34.2026,0.952 78.4785,3.3593 113.5445,0 17.8934,-1.7273 38.8558,-10.9351 56.4133,-10.9351 h 56.3643 c 12.1428,0 125.9702,14.7786 130.4316,20.1999 14.343,-17.3696 105.1016,-6.814 130.3827,-9.2621 17.8444,-1.7273 38.8558,-10.9351 56.4119,-10.9351 h 56.3657 c 17.8444,0 39.0951,9.167 57.2278,10.9351 58.763,5.6579 96.5635,0.544 135.46694,57.1926 7.1524,33.1071 22.6907,79.7918 22.6907,112.8022 0,17.8497 -9.2058,39.105 -10.9327,57.2416 -8.825,91.59451 16.501,193.84121 -11.7485,282.7495 -12.4284,52.1549 -36.2654,72.0189 -135.46694,79.0722 h -57.2278 c -17.5575,0 -38.5199,-9.1669 -56.3657,-10.935 -61.5926,-5.9435 -130.622,0 -192.696,0 l -6.7173,-3.3594 c -1.8221,4.2163 -55.2126,14.2985 -61.4486,14.2985 h -56.3656 c -17.5562,0 -38.5199,-9.1669 -56.3644,-10.935 -61.5451,-5.9436 -130.622,0 -192.696,0"
       style="fill:#782d00;fill-opacity:1;fill-rule:nonzero;stroke:none;stroke-width:47.97531128"
       id="path6315"
       inkscape:connector-curvature="0" />
    <path
       d="m 761.59675,36.729037 c 0.83247,1.109917 2.59449,7.727806 2.59449,8.560242 0,6.75662 -2.88584,14.047395 -8.56042,17.962626 l -89.76509,67.544045 c -1.10995,2.3447 -2.15052,5.09174 -2.5945,7.68617 l 1.70654,4.30093 3.42694,2.53894 h 4.30103 l 3.42694,-0.83243 113.69959,-78.65432 c 2.69161,-2.011723 6.56253,-7.089604 7.68634,-10.225112 l 0.83246,-6.021311 -0.83246,-3.426869 C 792.32964,18.26417 783.2753,-10.466044 772.7031,-36.750286 c -7.68633,11.459902 -19.38234,23.641245 -29.90459,32.499776 6.95101,13.305138 13.2638,27.01678 18.79408,41.015622"
       style="fill:#ffffff;fill-opacity:1;fill-rule:nonzero;stroke:none;stroke-width:48.94479752"
       id="path5780"
       inkscape:connector-curvature="0" />
    <path
       d="m 519.66012,-19.65478 c 13.55515,5.036257 27.21436,10.1834988 41.01648,14.4872063 C 549.66044,9.61375 513.98277,51.558926 499.10401,59.830587 l 48.74861,76.108433 1.72041,4.25932 v 4.25931 c -0.9712,1.8591 -4.06516,5.13336 -5.96594,6.0213 l -2.84422,0.55495 c -3.62119,-0.13874 -7.04813,-2.01172 -8.26906,-3.96795 L 464.94973,59.014799 C 488.39446,39.97555 508.51076,8.1611512 519.67122,-19.638133"
       style="fill:#ffffff;fill-opacity:1;fill-rule:nonzero;stroke:none;stroke-width:48.94479752"
       id="path5782"
       inkscape:connector-curvature="0" />
    <path
       d="m 345.219,-153.90903 c -18.10869,10.57197 -35.68045,24.42236 -50.41352,39.35075 -10.37795,11.11304 -23.15061,20.01875 -35.92603,28.191904 -16.3966,8.712851 -32.84176,17.571381 -49.58106,25.647419 -4.49527,2.011734 -10.47507,3.426869 -15.41848,3.426869 l -2.53898,-0.832436 c 6.16017,-18.648002 10.47507,-39.350742 11.98736,-58.978246 -0.27748,-1.10992 -0.41623,-3.32976 -0.83246,-4.25931 -0.41622,-1.10991 -1.91465,-3.23263 -2.53898,-4.30092 4.55076,0.55494 9.93397,1.76198 14.53744,1.76198 16.15242,0 30.49286,-4.1067 45.27451,-10.2806 l 16.24953,-9.39268 c 5.73008,-4.55066 11.98737,-8.61574 17.96301,-12.81955 13.41642,-12.77792 36.5129,-20.50712 54.72149,-20.50712 13.31929,0 28.28962,2.34471 40.18403,8.51862 l -9.39288,9.39268 c -0.83245,-0.13874 -8.22744,-1.7065 -8.56042,-1.7065 h -8.5188 c -5.96594,0 -12.13998,4.10669 -17.13194,6.85374"
       style="fill:#ffffff;fill-opacity:1;fill-rule:nonzero;stroke:none;stroke-width:48.94479752"
       id="path5784"
       inkscape:connector-curvature="0" />
    <path
       d="m 720.58166,-200.9446 c -31.03257,23.73703 -61.37836,37.44173 -100.92556,39.35079 2.7471,-1.24867 7.24237,-4.99463 8.56042,-7.68619 l 1.24868,-4.00957 c 0.13874,-0.83244 0.55497,-1.10992 0.55497,-2.01173 0,-3.27428 -1.10994,-7.78326 -3.42694,-10.22513 l -30.78699,-41.06414 c 15.75977,-11.98715 34.11542,-21.87788 51.29454,-31.61745 l -12.81982,38.46981 c -0.27748,2.1504 -0.83246,4.70325 -0.83246,6.85375 0,0.69371 1.85916,7.49187 2.539,8.51863 l 2.59449,1.70647 c 1.80365,0.55492 4.16227,1.51228 5.96592,1.72036 2.34476,0.27746 5.28609,0 7.68635,0 l 52.17556,-11.11308 -2.539,-4.25931 -5.13347,-3.42682 c -1.47068,-0.69371 -3.57956,-1.10995 -5.13348,-1.72037 l -34.21255,1.72037 c 4.64788,-14.29164 9.69811,-28.48608 14.53607,-42.72772 l 1.70653,-2.59444 c 2.05339,-1.70647 6.21568,-4.3564 8.5188,-5.96578 1.60941,-1.56778 3.87092,-3.37134 5.18898,-5.1334 l 2.53899,-5.13329 0.55496,-4.55067 0.27749,-2.30308 c -0.0472,-2.84421 -1.76203,-9.69797 -3.42694,-11.94556 -1.24868,-1.66487 -8.13032,-6.36813 -10.28083,-6.85366 h -6.85388 c -38.47057,0.048 -89.71655,11.44603 -121.38317,34.21179 -1.38743,1.10995 -3.03847,3.03838 -4.30102,4.25932 -2.34475,3.71818 -4.16227,9.4482 -5.09186,13.70751 -0.55496,5.23048 0.13875,12.04254 1.70653,17.08155 1.76204,6.60409 8.07483,14.19455 13.65228,17.96263 15.41709,8.07469 31.76513,25.50039 39.30302,41.06424 -3.96804,6.7011 -9.73973,13.31898 -15.36991,18.79503 -4.45364,-0.6937 -26.03783,-4.84201 -28.1925,-7.68617 -4.00966,-1.81749 -32.54764,-12.77793 -35.04501,-11.98713 -12.81981,-2.78863 -27.06591,-5.34147 -40.23259,-5.13331 -34.35961,-4.00964 -75.27759,21.48658 -92.31103,50.46098 -9.83685,15.51526 -10.86354,33.42933 -10.28082,51.293449 0.83246,14.634265 12.27872,39.890439 21.38995,51.294848 0.69371,3.371377 11.11329,14.144514 13.65228,17.080238 l 2.01177,2.303084 4.00966,4.5506641 c 1.60941,2.4418138 3.7738,7.58905524 5.09186,10.2806047 0.13874,0.6937044 1.7204,5.6328344 1.7204,5.9658085 V 18.784448 c 0,12.431079 -8.22744,27.653592 -17.082,35.925254 l 90.59756,116.291618 4.30102,2.53894 h 5.13348 l 5.13347,-1.7065 c 1.38743,-0.6937 3.87092,-4.1067 5.13348,-5.13336 L 443.55978,55.597639 c 29.95454,-22.07488 56.97189,-62.0624342 65.83061,-98.330382 49.33688,21.927811 96.61898,30.590719 149.62561,37.5901358 -2.40026,25.1576762 -7.04813,51.3420202 -15.36852,75.2760062 l -37.63811,86.337711 c -0.27749,1.24866 -0.83245,3.08003 -0.83245,4.25931 l 1.95627,6.56239 2.30312,2.88578 c 2.15052,1.91461 6.50703,3.42687 9.39288,3.37138 L 694.05823,18.788607 c 4.10678,-8.560241 9.89235,-17.6698862 16.24954,-24.7664192 6.56253,-5.5773428 13.84651,-11.1546758 21.38856,-15.3682048 4.45364,-2.538931 11.59889,-6.701128 15.36853,-10.280605 21.09581,-20.312883 32.89172,-56.87357 34.21393,-85.506668 0.27748,-2.98291 2.10889,-8.56024 3.42694,-11.11305 1.10994,-2.01173 2.94135,-4.10669 4.2594,-5.9658 22.07395,-32.30277 45.42017,-63.97014 69.25755,-94.90208 7.9777,2.94119 17.22767,4.25932 25.64658,4.25932 7.58922,0 18.45277,-2.69164 25.64796,-5.13341 3.13559,0.8324 8.76854,-2.53894 11.98736,-2.53894 h 11.11329 c 3.03847,0 7.20074,1.10994 10.28083,1.72036 1.5123,0.27747 3.57957,0.83248 5.09186,0.83248 h 7.72796 c 2.24763,0 13.7494,-4.64786 16.20098,-5.96587 1.95627,-1.10985 6.02143,-9.93374 6.02143,-11.98706 0,-4.9947 -3.08009,-11.40442 -7.68634,-13.65202 -23.44612,-11.21015 -45.91133,-27.11526 -65.832,-43.60868 -6.21567,-4.99462 -15.22145,-7.72774 -23.10203,-7.68615 l -0.83246,-2.59445 c -1.47068,-2.24759 -3.52407,-4.60616 -5.13348,-6.79826 -6.60415,-10.61354 -22.31953,-16.20057 -34.21254,-17.08165 8.03319,6.02137 9.93397,16.98317 11.98736,26.47856 -8.76854,-9.00426 -21.63414,-14.4872 -34.21255,-12.81964 l 2.24763,1.41521 4.55076,2.84411 c 2.98297,2.73322 7.39498,12.58376 9.44837,16.24926 0.27749,1.51219 0.83246,3.6211 0.83246,5.1333 0,0.6937 -1.85915,6.65958 -2.53899,7.68623 -7.58922,4.93913 -20.16625,13.1664 -26.52898,19.6747 l -86.33955,71.80191"
       style="fill:#ffffff;fill-opacity:1;fill-rule:nonzero;stroke:none;stroke-width:48.94479752"
       id="path5786"
       inkscape:connector-curvature="0" />
    <circle
       style="opacity:1;fill:#ffffff;fill-opacity:1;fill-rule:nonzero;stroke:none;stroke-width:0.11079081;stroke-linecap:butt;stroke-linejoin:miter;stroke-miterlimit:4;stroke-dasharray:none;stroke-opacity:1;paint-order:stroke fill markers"
       id="path874"
       cx="730.04095"
       cy="-291.54855"
       r="29.9" />
  </g>
</svg>
