<?xml version="1.0" encoding="UTF-8" standalone="no"?>
<!-- Created with Inkscape (http://www.inkscape.org/) -->

<svg
   xmlns:dc="http://purl.org/dc/elements/1.1/"
   xmlns:cc="http://creativecommons.org/ns#"
   xmlns:rdf="http://www.w3.org/1999/02/22-rdf-syntax-ns#"
   xmlns:svg="http://www.w3.org/2000/svg"
   xmlns="http://www.w3.org/2000/svg"
   xmlns:sodipodi="http://sodipodi.sourceforge.net/DTD/sodipodi-0.dtd"
   xmlns:inkscape="http://www.inkscape.org/namespaces/inkscape"
   width="978mm"
   height="602mm"
   viewBox="0 0 978 602"
   version="1.1"
   id="svg8781"
   inkscape:version="0.92.2 (5c3e80d, 2017-08-06)"
   sodipodi:docname="22.svg">
  <defs
     id="defs8775" />
  <sodipodi:namedview
     id="base"
     pagecolor="#ffffff"
     bordercolor="#666666"
     borderopacity="1.0"
     inkscape:pageopacity="0.0"
     inkscape:pageshadow="2"
     inkscape:zoom="0.24748737"
     inkscape:cx="2116.787"
     inkscape:cy="676.53672"
     inkscape:document-units="mm"
     inkscape:current-layer="layer1"
     showgrid="false"
     showguides="false"
     inkscape:window-width="1920"
     inkscape:window-height="1057"
     inkscape:window-x="-8"
     inkscape:window-y="-8"
     inkscape:window-maximized="1" />
  <metadata
     id="metadata8778">
    <rdf:RDF>
      <cc:Work
         rdf:about="">
        <dc:format>image/svg+xml</dc:format>
        <dc:type
           rdf:resource="http://purl.org/dc/dcmitype/StillImage" />
        <dc:title></dc:title>
      </cc:Work>
    </rdf:RDF>
  </metadata>
  <g
     inkscape:label="Layer 1"
     inkscape:groupmode="layer"
     id="layer1"
     transform="translate(0,305)">
    <path
       d="M 138.96101,285.05273 48.105825,239.61522 C 43.740927,230.97873 2.6782358,150.32335 2.6782358,148.74022 V 35.98563 c 0,-39.24779 -6.146219,-187.84317 5.0855805,-222.10218 24.6569307,-75.18514 -4.9904012,-111.21767 153.9368237,-106.94837 34.2026,0.952 78.47845,3.3593 113.54451,0 17.89336,-1.7273 38.85576,-10.9351 56.41326,-10.9351 h 56.36432 c 12.14285,0 125.9702,14.7786 130.43163,20.1999 14.34298,-17.3696 105.10162,-6.814 130.38269,-9.2621 17.84441,-1.7273 38.85577,-10.9351 56.41191,-10.9351 h 56.36567 c 17.84442,0 39.09509,9.167 57.22779,10.9351 58.76297,5.6579 96.56354,0.544 135.4669,57.19263 7.15245,33.10703 22.69068,79.79173 22.69068,112.8022 0,17.84967 -9.20572,39.10497 -10.93264,57.24162 -8.82499,91.59449 16.50095,193.84111 -11.74852,282.74944 -12.42841,52.15494 -36.26538,72.01888 -135.46691,79.07225 h -57.22778 c -17.5575,0 -38.5199,-9.16693 -56.36567,-10.93503 -61.59268,-5.94354 -130.622,0 -192.69605,0 l -6.71733,-3.3594 C 504.023,285.91774 450.63253,296 444.39656,296 h -56.36567 c -17.55614,0 -38.5199,-9.16693 -56.36431,-10.93503 -61.5451,-5.94354 -130.62201,0 -192.69605,0"
       style="fill:#782d00;fill-opacity:1;fill-rule:nonzero;stroke:none;stroke-width:47.97531128"
       id="path6315"
       inkscape:connector-curvature="0" />
    <path
       d="M 73,140.95049 H 243.96981 L 502.1991,246 H 73 V 140.95049"
       style="fill:#ffffff;fill-opacity:1;fill-rule:nonzero;stroke:none;stroke-width:47.94764328"
       id="path6349"
       inkscape:connector-curvature="0" />
    <path
       d="m 73,47.018728 97.42954,-75.192957 98.34062,75.192957 H 243.96981 V 123.8894 H 97.800343 V 47.018728 H 73"
       style="fill:#ffffff;fill-opacity:1;fill-rule:nonzero;stroke:none;stroke-width:47.94764328"
       id="path6351"
       inkscape:connector-curvature="0" />
    <path
       d="m 543.26285,141.81311 c 13.86334,15.28693 39.95959,27.31622 60.6832,27.31622 29.88607,0 45.42878,-8.9116 67.54348,-27.31622 13.86333,15.28693 39.96095,27.31622 60.73216,27.31622 29.88606,0 45.38118,-8.9116 67.54347,-27.31622 14.43991,15.91047 37.75397,25.6385 58.95624,27.31622 L 803.17151,114.49554 705.69301,108.50467 677.48632,81.139541 649.27964,80.324454 627.88427,6.8567665 H 530.40578 L 480.85132,-61.482672 H 284.16872 L 243.10633,5.9941421 288.43855,41.026496 V 64.07846 h -27.34321 v 65.75155 l 96.61366,39.29796 c 20.77257,-2.44525 42.55139,-12.32137 57.27822,-27.31622 13.86333,15.28693 39.95959,27.31622 60.73216,27.31622 29.83711,0 45.42877,-8.91159 67.54347,-27.31622"
       style="fill:#ffffff;fill-opacity:1;fill-rule:nonzero;stroke:none;stroke-width:47.94764328"
       id="path6353"
       inkscape:connector-curvature="0" />
    <path
       d="m 927.99184,180.24709 v -25.6385 c -22.1147,18.40326 -37.65741,27.36377 -67.54348,27.36377 -20.72361,0 -46.81985,-12.07685 -60.6832,-27.36377 -22.16229,18.40326 -37.65741,27.36377 -67.54347,27.36377 -20.77121,0 -46.86883,-12.07685 -60.73216,-27.36377 -22.1147,18.40326 -37.65741,27.36377 -67.54348,27.36377 -20.72361,0 -46.81986,-12.07685 -60.6832,-27.36377 -22.1147,18.40326 -37.70636,27.36377 -67.54347,27.36377 -20.77257,0 -46.86883,-12.07685 -60.73216,-27.36377 -7.3838,8.87084 -24.99344,19.50498 -35.93045,23.0506 l 26.52732,11.11233 9.40993,-8.53123 c 13.86333,15.28829 39.95959,27.31758 60.73215,27.31758 29.83711,0 45.42878,-8.91159 67.54348,-27.31758 13.86333,15.28829 39.95959,27.31758 60.6832,27.31758 29.88607,0 45.42878,-8.91159 67.54348,-27.31758 13.86333,15.28829 39.96095,27.31758 60.73215,27.31758 29.88607,0 45.38118,-8.91159 67.54348,-27.31758 13.86334,15.28829 39.95959,27.31758 60.6832,27.31758 29.88607,0 45.42878,-8.91159 67.54348,-27.31758"
       style="fill:#ffffff;fill-opacity:1;fill-rule:nonzero;stroke:none;stroke-width:47.94764328"
       id="path6355"
       inkscape:connector-curvature="0" />
    <path
       d="M 799.76516,218.68242 C 813.62851,233.97071 839.72475,246 860.44836,246 c 29.88607,0 45.42878,-8.9116 67.54348,-27.31758 v -25.6385 c -22.1147,18.45081 -37.65741,27.36377 -67.54348,27.36377 -20.72361,0 -46.81985,-12.07684 -60.6832,-27.36377 -22.16229,18.45081 -37.65741,27.36377 -67.54347,27.36377 -20.77121,0 -46.86883,-12.07684 -60.73216,-27.36377 -22.1147,18.45081 -37.65741,27.36377 -67.54348,27.36377 -20.72361,0 -46.81986,-12.07684 -60.6832,-27.36377 -13.24462,14.23275 -39.52853,26.83668 -59.00519,27.36377 l 36.74635,15.33582 11.99358,-7.66179 10.26662,-9.40066 c 13.86334,15.28829 39.95959,27.31758 60.6832,27.31758 29.88607,0 45.42878,-8.9116 67.54348,-27.31758 13.86333,15.28829 39.96095,27.31758 60.73216,27.31758 29.88606,0 45.42877,-8.9116 67.54347,-27.31758"
       style="fill:#ffffff;fill-opacity:1;fill-rule:nonzero;stroke:none;stroke-width:47.94764328"
       id="path6357"
       inkscape:connector-curvature="0" />
    <path
       d="m 664.67821,51.284333 17.94142,0.815087 34.20349,31.629373 96.61365,6.846716 61.54804,58.898051 h 43.60526 L 928,141.81175 V 128.96058 L 894.65865,45.285308 h -31.66063 l -51.28143,-177.654568 -37.60982,-4.26561 -9.39633,51.230807 H 728.77999 L 692.89713,-164 h -85.4849 l -86.39598,118.755181 24.80034,34.984806 h 100.88484 l 17.98902,61.534836"
       style="fill:#ffffff;fill-opacity:1;fill-rule:nonzero;stroke:none;stroke-width:47.94764328"
       id="path6359"
       inkscape:connector-curvature="0" />
  </g>
</svg>
