<?xml version="1.0" encoding="UTF-8" standalone="no"?>
<!-- Created with Inkscape (http://www.inkscape.org/) -->

<svg
   xmlns:dc="http://purl.org/dc/elements/1.1/"
   xmlns:cc="http://creativecommons.org/ns#"
   xmlns:rdf="http://www.w3.org/1999/02/22-rdf-syntax-ns#"
   xmlns:svg="http://www.w3.org/2000/svg"
   xmlns="http://www.w3.org/2000/svg"
   xmlns:sodipodi="http://sodipodi.sourceforge.net/DTD/sodipodi-0.dtd"
   xmlns:inkscape="http://www.inkscape.org/namespaces/inkscape"
   width="602mm"
   height="602mm"
   viewBox="0 0 602 601.99999"
   version="1.1"
   id="svg8781"
   inkscape:version="0.92.2 (5c3e80d, 2017-08-06)"
   sodipodi:docname="11.svg">
  <defs
     id="defs8775">
    <pattern
       y="0"
       x="0"
       height="6"
       width="6"
       patternUnits="userSpaceOnUse"
       id="EMFhbasepattern" />
    <pattern
       y="0"
       x="0"
       height="6"
       width="6"
       patternUnits="userSpaceOnUse"
       id="EMFhbasepattern-2" />
  </defs>
  <sodipodi:namedview
     id="base"
     pagecolor="#ffffff"
     bordercolor="#666666"
     borderopacity="1.0"
     inkscape:pageopacity="0.0"
     inkscape:pageshadow="2"
     inkscape:zoom="0.21461795"
     inkscape:cx="1635.2747"
     inkscape:cy="1098.8955"
     inkscape:document-units="mm"
     inkscape:current-layer="layer1"
     showgrid="false"
     showguides="false"
     inkscape:window-width="1920"
     inkscape:window-height="1057"
     inkscape:window-x="-8"
     inkscape:window-y="-8"
     inkscape:window-maximized="1"
     inkscape:snap-global="false"
     inkscape:measure-start="0,0"
     inkscape:measure-end="0,0"
     fit-margin-top="0"
     fit-margin-left="0"
     fit-margin-right="0"
     fit-margin-bottom="0" />
  <metadata
     id="metadata8778">
    <rdf:RDF>
      <cc:Work
         rdf:about="">
        <dc:format>image/svg+xml</dc:format>
        <dc:type
           rdf:resource="http://purl.org/dc/dcmitype/StillImage" />
        <dc:title></dc:title>
      </cc:Work>
    </rdf:RDF>
  </metadata>
  <g
     inkscape:label="Layer 1"
     inkscape:groupmode="layer"
     id="layer1"
     transform="translate(-179.2,397.3)">
    <path
       d="m 197.40882,154.5619 c -1.3527,-9.4252 -16.1876,-104.27769 -16.1876,-105.83379 V -62.10583 c 0,-38.5793 -4.35,-74.09291 6.5912,-107.76701 11.4584,-35.1367 -21.8479,-121.77655 0,-151.8196 84.9634,-116.72832 153.6449,-53.7184 258.4906,-63.85886 38.7849,-3.77009 70.8804,-10.74876 110.7885,-10.74876 17.124,0 37.5687,9.05088 54.9725,10.74876 77.5711,-17.92128 118.6489,-11.36374 158.6499,44.4282 6.0873,32.82516 -3.5542,90.45936 -3.5542,122.67086 0,17.3572 -9.6415,38.5806 -11.4584,56.2666 -9.363,90.59971 43.1825,193.13275 17.2168,281.84744 -9.8272,98.0049 -123.9816,73.8109 -215.8213,73.8109 -17.1239,0 -54.5521,10.2273 -72.05,10.2273 -53.897,0 -92.8688,-20.9881 -145.1293,-20.9881 -10.0526,0 -34.2466,10.468 -44.0711,8.6364 -46.1771,0 -92.028,7.6872 -98.4376,-36.7878"
       style="fill:#782d00;fill-opacity:1;fill-rule:nonzero;stroke:none;stroke-width:46.97400665"
       id="path6282"
       inkscape:connector-curvature="0" />
    <path
       d="m 430.94178,-8.5540693 c 5.1082,-14.6156567 10.32491,-29.1351677 20.8409,-40.8859227 l 45.07617,-50.915808 c 1.96472,-1.62472 5.82643,-3.3442 8.36019,-3.3442 1.08396,0 4.87793,0.94775 5.82643,1.66534 l 96.03158,72.60032 c 5.54186,3.81808 8.36018,10.939728 8.36018,17.529301 0,17.3857857 -12.89944,21.684506 -27.53315,21.684506 -3.78045,0 -71.93999,-52.444389 -77.67564,-56.743108 l -19.21636,26.699449 156.16561,116.830436 c -31.97893,0.94775 -66.39543,-18.294267 -83.50889,-45.041117 -20.17156,28.896881 -49.76022,45.039776 -85.18082,45.039776 -19.7895,0 -55.97422,-12.510302 -68.45093,-28.371565 l 20.8898,-76.7555294"
       style="fill:#ffffff;fill-opacity:1;fill-rule:nonzero;stroke:none;stroke-width:47.78212738"
       id="path5838"
       inkscape:connector-curvature="0" />
    <path
       inkscape:connector-curvature="0"
       style="fill:#ffffff;fill-opacity:1;fill-rule:nonzero;stroke:none;stroke-width:47.76322556"
       d="m 313.1998,163.3 c -32.6469,0 -59.934,-13.18917 -83.4998,-34.99993 V 78.30003 c 23.5658,21.80537 50.8529,34.99992 83.4998,34.99992 32.6469,0 59.934,-13.19455 83.49978,-34.99992 h 6e-4 c 23.5658,21.80537 50.8529,34.99992 83.4998,34.99992 32.6468,0 59.9339,-13.19455 83.4998,-34.99992 v 0 c 23.5657,21.80508 50.8536,34.99995 83.5002,34.99995 32.6469,0 59.9342,-13.19463 83.5,-35 v 50.00008 c -23.5658,21.81076 -50.8541,34.99993 -83.5009,34.99993 -32.6467,0 -59.9336,-13.18895 -83.4993,-34.99942 v -5.3e-4 c -23.5659,21.81076 -50.853,34.99993 -83.4998,34.99993 -32.6469,0 -59.934,-13.18917 -83.4998,-34.99993 h -6e-4 C 373.1338,150.11083 345.8467,163.3 313.1998,163.3 Z"
       id="path1458"
       sodipodi:nodetypes="sccsccsccsccsccsccs" />
    <circle
       style="opacity:1;fill:#ffffff;fill-opacity:1;fill-rule:nonzero;stroke:none;stroke-width:0.122136;stroke-linecap:butt;stroke-linejoin:miter;stroke-miterlimit:4;stroke-dasharray:none;stroke-opacity:1;paint-order:stroke fill markers"
       id="path1584"
       cx="363.10001"
       cy="14.1"
       r="50" />
  </g>
</svg>
