<?xml version="1.0" encoding="UTF-8" standalone="no"?>
<!-- Created with Inkscape (http://www.inkscape.org/) -->

<svg
   xmlns:dc="http://purl.org/dc/elements/1.1/"
   xmlns:cc="http://creativecommons.org/ns#"
   xmlns:rdf="http://www.w3.org/1999/02/22-rdf-syntax-ns#"
   xmlns:svg="http://www.w3.org/2000/svg"
   xmlns="http://www.w3.org/2000/svg"
   xmlns:sodipodi="http://sodipodi.sourceforge.net/DTD/sodipodi-0.dtd"
   xmlns:inkscape="http://www.inkscape.org/namespaces/inkscape"
   width="602mm"
   height="602mm"
   viewBox="0 0 602 601.99999"
   version="1.1"
   id="svg8781"
   inkscape:version="0.92.2 (5c3e80d, 2017-08-06)"
   sodipodi:docname="11.svg">
  <defs
     id="defs8775">
    <pattern
       y="0"
       x="0"
       height="6"
       width="6"
       patternUnits="userSpaceOnUse"
       id="EMFhbasepattern" />
    <pattern
       y="0"
       x="0"
       height="6"
       width="6"
       patternUnits="userSpaceOnUse"
       id="EMFhbasepattern-2" />
    <pattern
       y="0"
       x="0"
       height="6"
       width="6"
       patternUnits="userSpaceOnUse"
       id="EMFhbasepattern-6" />
    <pattern
       y="0"
       x="0"
       height="6"
       width="6"
       patternUnits="userSpaceOnUse"
       id="EMFhbasepattern-8" />
  </defs>
  <sodipodi:namedview
     id="base"
     pagecolor="#ffffff"
     bordercolor="#666666"
     borderopacity="1.0"
     inkscape:pageopacity="0.0"
     inkscape:pageshadow="2"
     inkscape:zoom="0.34145508"
     inkscape:cx="983.05972"
     inkscape:cy="1077.9131"
     inkscape:document-units="mm"
     inkscape:current-layer="layer1"
     showgrid="false"
     showguides="true"
     inkscape:window-width="1920"
     inkscape:window-height="1057"
     inkscape:window-x="-8"
     inkscape:window-y="-8"
     inkscape:window-maximized="1"
     inkscape:snap-global="false"
     inkscape:measure-start="0,0"
     inkscape:measure-end="0,0"
     fit-margin-top="0"
     fit-margin-left="0"
     fit-margin-right="0"
     fit-margin-bottom="0" />
  <metadata
     id="metadata8778">
    <rdf:RDF>
      <cc:Work
         rdf:about="">
        <dc:format>image/svg+xml</dc:format>
        <dc:type
           rdf:resource="http://purl.org/dc/dcmitype/StillImage" />
        <dc:title></dc:title>
      </cc:Work>
    </rdf:RDF>
  </metadata>
  <g
     inkscape:label="Layer 1"
     inkscape:groupmode="layer"
     id="layer1"
     transform="translate(-179.2,397.3)">
    <path
       d="m 197.40882,154.56191 c -1.3527,-9.4252 -16.1876,-104.27772 -16.1876,-105.83382 V -62.10588 c 0,-38.57928 -4.35,-74.09289 6.5912,-107.76699 11.4584,-35.1367 -21.8479,-121.77655 0,-151.8196 84.9634,-116.72832 153.6449,-53.7184 258.4906,-63.85886 38.7849,-3.77009 70.88045,-10.74876 110.78855,-10.74876 17.124,0 37.5687,9.05088 54.9725,10.74876 77.57107,-17.92128 118.64887,-11.36374 158.64987,44.4282 6.0873,32.82516 -3.5542,90.45936 -3.5542,122.67086 0,17.3572 -9.6415,38.5806 -11.4584,56.2666 -9.363,90.59969 43.1825,193.13276 17.2168,281.84748 -9.8272,98.00489 -123.98157,73.81089 -215.82127,73.81089 -17.1239,0 -54.55215,10.2273 -72.05005,10.2273 -53.897,0 -92.8688,-20.98809 -145.1293,-20.98809 -10.0526,0 -34.2466,10.46799 -44.0711,8.63639 -46.1771,0 -92.028,7.6872 -98.4376,-36.78779"
       style="fill:#782d00;fill-opacity:1;fill-rule:nonzero;stroke:none;stroke-width:46.97400665"
       id="path6282"
       inkscape:connector-curvature="0" />
    <path
       d="m 492.17195,-308.22336 c 2.57016,4.1923 8.6574,9.06071 13.25665,10.83224 1.62326,4.67914 9.06323,13.17182 9.19849,13.3612 0,1.77153 1.35272,4.1922 1.62327,5.81501 1.35272,2.19084 3.65234,4.34102 4.19343,6.68059 1.35272,3.86768 1.35272,7.9653 2.43489,11.68425 -4.73451,2.19074 -4.73451,9.30414 -5.00506,14.16977 1.35272,2.77236 3.3818,5.62583 5.81669,7.49205 -5.00506,2.86695 -5.81669,8.7361 -5.81669,13.30706 0,2.28543 3.24653,6.30184 5.00506,7.5325 -2.8407,1.66336 -5.81669,4.625 -6.62832,7.49195 v 5.00365 l 1.35272,4.96311 4.19343,4.1923 c -4.86979,1.43342 -7.43996,6.92401 -7.43996,11.6436 l 1.35272,5.00375 3.3818,3.3402 c -4.8698,2.28553 -7.30468,7.9653 -8.25159,12.49571 1.35272,3.15091 2.16434,6.5859 4.19343,9.1553 -2.84071,1.52822 -5.54615,4.53041 -6.62832,7.49205 v 5.00365 c 0,2.24488 2.57016,6.77519 4.19343,8.34396 -2.70545,1.21708 -5.54616,3.43489 -7.43996,5.81501 l -1.35272,5.00365 c 0,3.09688 1.35272,6.81584 3.3818,9.15541 -2.70544,2.15019 -5.8167,7.24853 -5.8167,11.68425 0,2.907503 2.4349,9.49341 5.8167,9.966757 -2.84071,0.811353 -5.8167,3.813546 -6.62832,6.680497 v 5.003656 c 0,2.434256 3.92288,7.62729 5.81668,9.155405 -4.59923,1.852736 -5.81668,7.30267 -5.81668,11.643699 0,1.433426 1.35272,3.678304 1.62325,5.003655 1.62327,1.352321 3.65235,2.528847 5.00507,4.192204 -3.92289,2.569498 -5.8167,7.924743 -5.00507,12.455052 1.35272,3.002193 3.92289,6.004485 6.62833,7.532601 -3.11126,2.96164 -3.78762,8.736095 -3.3818,13.307056 1.35272,3.002193 3.92289,6.004386 6.62833,7.4919487 -1.35272,2.0555986 -2.4349,5.8691445 -2.4349,9.1553062 0,5.1524811 3.51708,9.9262051 8.38686,11.6842521 0,2.718224 -1.62325,6.680596 -1.62325,10.020894 0,4.192204 2.57015,9.155306 6.62831,10.832247 -2.29962,1.906773 -4.19342,5.301208 -4.19342,8.343954 0,4.381582 3.24652,9.493441 7.43995,10.832257 l -1.62326,5.003665 v 5.815068 c 0,2.812874 1.35272,7.30265 3.24653,9.155356 -5.27561,4.719677 -6.62833,9.926185 -6.62833,16.650031 0,0.540938 1.48799,4.286923 1.62326,5.003665 -6.89887,2.812875 -11.09229,12.022314 -10.01013,19.178914 -6.2225,2.15022 -12.17446,9.3582 -13.39191,15.83863 -6.89887,1.56871 -13.55425,6.68057 -17.46362,12.49564 -7.03415,0.54094 -15.21809,5.00366 -19.99314,9.96676 -3.78764,-0.27047 -7.84583,-0.81141 -11.63346,-0.81141 -3.24651,0 -6.7636,1.66338 -10.0101,1.66338 -2.02911,0 -17.23369,-5.96382 -23.33438,-6.68057 -3.2466,-4.53034 -9.73963,-9.15535 -14.98817,-10.83225 -1.3527,-3.05629 -7.16943,-11.73833 -10.82179,-11.64367 0.0942,-2.62354 -1.89381,-8.7226 -5.00505,-9.20945 l -2.57011,-14.16983 1.62325,-4.151695 c 0,-1.081876 0,-3.718936 0,-5.003665 l 2.57012,-3.340288 c 0.13528,-0.946634 1.35279,-4.192253 1.35279,-4.963093 3.11124,-1.474048 5.27552,-5.301178 6.62831,-8.343943 l 4.19338,-0.811413 4.19348,-4.15169 c 4.46393,0.04601 10.14538,-1.217108 14.17649,-3.340278 4.19338,1.812133 9.60427,3.245618 14.17651,3.340278 2.57012,3.286191 6.89887,6.775236 10.82178,8.343953 0,4.151691 3.11124,6.437151 5.81663,9.155356 -0.0952,4.097594 1.3527,9.777429 3.3818,13.307048 -1.3527,2.7182 -2.7054,6.73466 -4.19337,9.20944 h -3.3818 l -2.57021,-2.52887 1.35269,-3.34029 -1.62326,-3.34028 1.62326,-3.286193 -1.35269,-3.340288 -2.43494,-2.528876 v -2.474789 c -1.3527,-2.866962 -2.97595,-2.772302 -4.19337,-4.151691 -2.97596,-3.583704 -1.89382,-5.625739 -8.38686,-5.869164 l -2.43492,-2.47478 -3.3818,-0.811412 -3.3818,1.663387 -3.3818,-1.663387 -4.19337,0.811412 -2.43494,2.47478 h -2.43493 l -2.57011,1.676911 -1.3527,2.528876 h -2.57022 c -1.3527,1.217108 -2.16437,3.286191 -4.19337,5.815068 0,1.35234 -1.3528,3.529617 -1.3528,5.003665 l -1.62326,4.15169 1.3527,2.474791 -1.3527,3.34028 c 0,2.05556 1.89382,5.34175 3.24652,6.68057 l -1.3527,2.47478 1.62325,2.52888 2.43494,0.81141 1.3527,4.19225 2.43494,3.34029 2.29955,1.08188 c 1.3527,2.67763 4.59931,6.24782 6.89888,8.01938 l 5.00504,0.81141 c 2.16438,3.05629 7.16943,6.77523 10.82178,7.49197 0,0.0473 5.95202,0 6.62831,0 3.78764,1.9609 9.87493,3.34029 14.16303,3.34029 2.16437,0 7.57516,-2.33956 9.19842,-4.15169 7.43999,3.05629 18.36997,-1.86623 17.51773,-10.83226 5.81673,1.35234 11.22761,-4.39511 13.39196,-9.15535 l -1.35271,-5.00367 c 3.92288,-0.096 7.84577,-4.00293 9.19848,-7.49198 0,-3.05629 0,-7.30264 -1.62326,-10.020852 2.16434,-1.081866 4.3287,-3.191522 5.81669,-5.003665 0,-1.474048 1.35272,-3.529607 1.35272,-5.003665 0,-1.474049 0,-3.489035 -1.35272,-4.963093 l -3.3818,-3.340278 c 1.35273,-1.217109 3.3818,-6.247822 3.3818,-7.532552 v -4.963092 c -1.35271,-2.623546 -4.05816,-5.909737 -6.62833,-6.680567 l 1.62327,-3.340288 c 0,-4.963093 -1.35272,-7.681298 -5.00506,-10.832257 l -4.19343,-2.474789 -1.62326,-4.192273 C 482.6488,37.11879 477.23796,33.332213 475.6147,32.52086 l -2.43493,-1.663456 C 466.01033,24.650155 457.09596,22.554102 448.97957,18.3618 430.56913,8.814252 412.42915,-5.2541847 400.64692,-22.476218 c -6.08719,-6.62646 -11.76865,-22.089158 -13.3919,-30.818512 l -1.62326,-7.532601 1.35269,-9.966758 c 1.48799,-1.676842 5.00506,-7.775917 5.00506,-10.020795 0,-3.434987 -1.3527,-8.019432 -3.38179,-10.832247 2.02909,-1.433525 6.62831,-7.492048 6.62831,-9.966759 0,-3.77309 0.13528,-7.39736 -1.62327,-10.8729 4.59932,-3.3402 7.57528,-9.30403 7.57528,-14.97983 0,-1.77163 0,-4.05706 -1.3527,-5.81511 3.65235,-3.00219 9.19843,-10.02079 9.19843,-14.98122 0,-1.81218 0,-4.05706 -1.3527,-5.86914 7.43999,-2.33957 13.12143,-13.26651 11.63336,-20.8004 9.19853,-3.77299 13.392,-12.26577 14.98818,-21.70643 6.76359,-1.35232 8.11629,-8.3034 10.82178,-13.30706 1.3527,-2.28543 4.59922,-4.24634 5.81664,-6.68059 2.29965,-4.2869 1.3528,-9.06062 2.29965,-13.3611 l 1.3527,-3.28616 c 0,-4.00292 0,-6.20725 -1.62326,-10.02089 0,-0.9466 1.3527,-3.90824 1.3527,-5.00366 0,-0.54097 0,-2.71822 -1.3527,-3.3403 l -4.19337,-1.67694 c -20.7102,12.02236 -41.66378,23.08989 -65.86397,25.8568 -3.65236,8.39809 -11.76865,22.75724 -18.31582,29.1498 l -2.57012,-11.6437 -11.63347,2.47481 -2.57012,-1.67694 c 0,-1.21708 -1.35269,-2.77226 -1.62325,-4.15165 l 1.62325,-2.47481 c 25.09291,-20.75171 37.17278,-43.50895 44.17985,-75.04284 l 11.63336,-2.47481 10.01011,-24.18798 8.38685,-5.00366 5.81672,-25.8094 c 1.3527,2.9075 5.54618,12.11695 7.57528,14.16848 3.24651,3.24561 16.9901,9.15531 21.67054,9.15531 2.02909,0 4.59921,-0.54087 6.62831,-0.81136 3.24651,3.24561 11.90392,10.58884 15.84032,12.49561 2.43491,1.08193 9.06324,4.24634 11.6334,4.9631"
       style="fill:#ffffff;fill-opacity:1;fill-rule:nonzero;stroke:none;stroke-width:47.71427155"
       id="path6140"
       inkscape:connector-curvature="0" />
    <path
       d="m 597.21062,-151.50449 c -4.19343,3.00219 -7.43996,8.92547 -7.43996,14.12108 0,3.71896 1.488,8.24937 4.19343,10.83235 -4.86979,2.71812 -7.43996,7.87061 -7.43996,13.36109 0,2.38012 3.24653,7.58664 5.00507,9.15531 -4.46397,2.43426 -7.57523,7.437911 -7.57523,12.495702 0,2.190742 2.4349,7.627191 4.19343,9.155307 -4.59925,2.19084 -7.43996,8.438642 -7.43996,13.361192 0,2.38012 3.24653,7.586639 5.00507,9.155307 l -63.33433,-21.659041 c 1.35272,-16.698715 3.24652,-33.539517 5.81668,-49.998777 L 597.4,-151.51401"
       style="fill:#ffffff;fill-opacity:1;fill-rule:nonzero;stroke:none;stroke-width:47.71427155"
       id="path6142"
       inkscape:connector-curvature="0" />
    <circle
       style="opacity:1;fill:#782d00;fill-opacity:1;fill-rule:nonzero;stroke:none;stroke-width:0.02605124;stroke-linecap:butt;stroke-linejoin:miter;stroke-miterlimit:4;stroke-dasharray:none;stroke-opacity:1;paint-order:stroke fill markers"
       id="path877"
       cx="430.70001"
       cy="-284"
       r="4.9000001" />
  </g>
</svg>
