<?xml version="1.0" encoding="UTF-8" standalone="no"?>
<!-- Created with Inkscape (http://www.inkscape.org/) -->

<svg
   xmlns:dc="http://purl.org/dc/elements/1.1/"
   xmlns:cc="http://creativecommons.org/ns#"
   xmlns:rdf="http://www.w3.org/1999/02/22-rdf-syntax-ns#"
   xmlns:svg="http://www.w3.org/2000/svg"
   xmlns="http://www.w3.org/2000/svg"
   xmlns:sodipodi="http://sodipodi.sourceforge.net/DTD/sodipodi-0.dtd"
   xmlns:inkscape="http://www.inkscape.org/namespaces/inkscape"
   width="978mm"
   height="602mm"
   viewBox="0 0 978 602"
   version="1.1"
   id="svg8781"
   inkscape:version="0.92.2 (5c3e80d, 2017-08-06)"
   sodipodi:docname="22.svg">
  <defs
     id="defs8775" />
  <sodipodi:namedview
     id="base"
     pagecolor="#ffffff"
     bordercolor="#666666"
     borderopacity="1.0"
     inkscape:pageopacity="0.0"
     inkscape:pageshadow="2"
     inkscape:zoom="0.175"
     inkscape:cx="2338.7323"
     inkscape:cy="1378.0941"
     inkscape:document-units="mm"
     inkscape:current-layer="layer1"
     showgrid="false"
     showguides="false"
     inkscape:window-width="1920"
     inkscape:window-height="1057"
     inkscape:window-x="-8"
     inkscape:window-y="-8"
     inkscape:window-maximized="1"
     inkscape:snap-global="false" />
  <metadata
     id="metadata8778">
    <rdf:RDF>
      <cc:Work
         rdf:about="">
        <dc:format>image/svg+xml</dc:format>
        <dc:type
           rdf:resource="http://purl.org/dc/dcmitype/StillImage" />
        <dc:title></dc:title>
      </cc:Work>
    </rdf:RDF>
  </metadata>
  <g
     inkscape:label="Layer 1"
     inkscape:groupmode="layer"
     id="layer1"
     transform="translate(0,305)">
    <path
       d="M 138.96103,285.05273 48.105826,239.61522 c -4.3649,-8.63649 -45.4276004,-89.29187 -45.4276004,-90.875 V 35.98563 c 0,-39.24779 -6.1462,-187.84317 5.0856,-222.10218 24.6569004,-75.18514 -4.9904,-111.21767 153.9368044,-106.94837 34.2026,0.952 78.4785,3.3593 113.5445,0 17.8934,-1.7273 38.8558,-10.9351 56.4133,-10.9351 h 56.3643 c 12.1428,0 125.9702,14.7786 130.4316,20.1999 14.343,-17.3696 105.1016,-6.814 130.3827,-9.2621 17.8444,-1.7273 38.8558,-10.9351 56.4119,-10.9351 h 56.3657 c 17.8444,0 39.0951,9.167 57.2278,10.9351 58.763,5.6579 96.5635,0.544 135.4669,57.19263 7.1524,33.10703 22.6907,79.79173 22.6907,112.8022 0,17.84967 -9.2058,39.10497 -10.9327,57.24162 -8.825,91.59449 16.501,193.84111 -11.7485,282.74944 -12.4284,52.15494 -36.2654,72.01888 -135.4669,79.07225 h -57.2278 c -17.5575,0 -38.5199,-9.16693 -56.3657,-10.93503 -61.5926,-5.94354 -130.622,0 -192.696,0 l -6.7173,-3.3594 C 504.02303,285.91774 450.63253,296 444.39653,296 h -56.3656 c -17.5562,0 -38.5199,-9.16693 -56.3644,-10.93503 -61.5451,-5.94354 -130.622,0 -192.696,0"
       style="fill:#782d00;fill-opacity:1;fill-rule:nonzero;stroke:none;stroke-width:47.97531128"
       id="path6315"
       inkscape:connector-curvature="0" />
    <path
       inkscape:connector-curvature="0"
       id="path861"
       style="fill:#d4aa00;fill-opacity:1;fill-rule:nonzero;stroke:none;stroke-width:47.9473877"
       d="m 317.5942,171.40582 c 24.3235,1.96963 74.794,-11.22007 89.8088,-31.57921 22.2129,23.14514 56.27467,31.57921 87.21817,31.57921 19.6222,0 63.4237,-15.47853 75.2251,-31.57921 15.0638,15.67007 49.9891,31.57921 71.8185,31.57921 h 15.3997 c 7.2891,0 16.8384,-1.22252 23.9399,-3.40949 9.4514,-22.37901 18.9491,-44.80558 21.3956,-69.19633 H 253.5 c 22.2605,14.32801 53.1564,48.20692 64.0942,72.59903" />
    <path
       inkscape:connector-curvature="0"
       id="path863"
       style="fill:#ffffff;fill-opacity:1;fill-rule:nonzero;stroke:none;stroke-width:47.97679901"
       d="m 488.49997,77.4 h 213.8 c -23.3662,-5.56186 -48.9903,-26.36271 -64.2,-44.4 -21.5912,-25.85789 -40.8271,-54.92048 -58.1,-83.8 -38.7201,-68.79436 -69.3335,-137.85953 -91.5,-213.8"
       sodipodi:nodetypes="ccccc" />
    <path
       inkscape:connector-curvature="0"
       id="path865"
       style="fill:#ffffff;fill-opacity:1;fill-rule:nonzero;stroke:none;stroke-width:47.96184921"
       d="M 467.49997,77.4 C 439.0571,55.00232 416.8617,24.07117 400.8415,-8.15839 c -15.1093,-27.24156 -23.0711,-56.83234 -23.0711,-88.05452 0,-6.03616 1.0877,-12.75206 1.6723,-18.80045 C 391.1489,-168.6808 429.4693,-231.50852 473.49997,-264.6 386.253,-231.84432 292.398,-185.86953 235.9,-115 c -14.6769,18.20888 -27.4,45.34225 -27.4,71 0,37.74503 15.0352,71.73073 45.3,94.8 24.8942,18.12887 55.2139,26.64901 85.5,26.6"
       sodipodi:nodetypes="ccscccscc" />
    <path
       inkscape:connector-curvature="0"
       style="fill:#ffffff;fill-opacity:1;fill-rule:nonzero;stroke:none;stroke-width:47.94815826"
       d="M 147.0002,248.4 C 113.519,248.4 85.6763,234.88229 61.5,212.49986 v -42.6997 c 24.1763,22.3797 52.019,35.90012 85.5002,35.90012 33.481,0 61.3234,-13.52058 85.4997,-35.90012 24.1762,22.37954 52.0192,35.90012 85.5002,35.90012 33.4809,0 61.3234,-13.52058 85.4997,-35.90012 24.1762,22.37954 52.01907,35.90012 85.50017,35.90012 33.481,0 61.3234,-13.52058 85.4997,-35.90012 24.1762,22.37954 52.0192,35.90012 85.5002,35.90012 33.4811,0 61.3239,-13.52042 85.5002,-35.90012 24.1763,22.3797 52.0191,35.90012 85.5002,35.90012 33.481,0 61.3234,-13.52058 85.4997,-35.90012 v 42.6997 c -24.1763,22.3823 -52.0187,35.90014 -85.4997,35.90014 -33.4811,0 -61.3239,-13.51771 -85.5002,-35.90014 -24.1763,22.38246 -52.0191,35.90014 -85.5002,35.90014 -33.4811,0 -61.3239,-13.51771 -85.5002,-35.90014 -24.1763,22.3823 -52.0187,35.90014 -85.4997,35.90014 -33.4812,0 -61.32387,-13.51771 -85.50017,-35.90014 C 379.3235,234.88216 351.481,248.4 318.0001,248.4 284.5189,248.4 256.6762,234.88229 232.4999,212.49986 208.3236,234.88216 180.4812,248.4 147.0002,248.4 Z"
       id="path5246" />
    <path
       style="fill:#ffffff;fill-opacity:1;fill-rule:nonzero;stroke:none;stroke-width:47.9473877"
       d="m 253.5001,98.79977 c 27.0058,19.38109 48.8166,43.54168 63.9999,72.60589 24.3235,1.96964 74.8851,-11.24651 89.9,-31.60566 22.2128,23.14514 56.25637,31.60566 87.19997,31.60566 19.6222,0 63.4986,-15.50498 75.3,-31.60566 15.0637,15.67008 49.9706,31.60566 71.8,31.60566 h 15.3999 c 7.2892,0 16.7986,-1.21869 23.9001,-3.40566 9.4514,-22.37901 18.9534,-44.80949 21.3998,-69.20023 z"
       id="path5363"
       inkscape:connector-curvature="0"
       sodipodi:nodetypes="cccscssccc" />
  </g>
</svg>
