<?xml version="1.0" encoding="UTF-8" standalone="no"?>
<!-- Created with Inkscape (http://www.inkscape.org/) -->

<svg
   xmlns:dc="http://purl.org/dc/elements/1.1/"
   xmlns:cc="http://creativecommons.org/ns#"
   xmlns:rdf="http://www.w3.org/1999/02/22-rdf-syntax-ns#"
   xmlns:svg="http://www.w3.org/2000/svg"
   xmlns="http://www.w3.org/2000/svg"
   xmlns:sodipodi="http://sodipodi.sourceforge.net/DTD/sodipodi-0.dtd"
   xmlns:inkscape="http://www.inkscape.org/namespaces/inkscape"
   width="602mm"
   height="602mm"
   viewBox="0 0 602 601.99999"
   version="1.1"
   id="svg8781"
   inkscape:version="0.92.2 (5c3e80d, 2017-08-06)"
   sodipodi:docname="11.svg">
  <defs
     id="defs8775">
    <pattern
       y="0"
       x="0"
       height="6"
       width="6"
       patternUnits="userSpaceOnUse"
       id="EMFhbasepattern" />
    <pattern
       y="0"
       x="0"
       height="6"
       width="6"
       patternUnits="userSpaceOnUse"
       id="EMFhbasepattern-2" />
    <pattern
       y="0"
       x="0"
       height="6"
       width="6"
       patternUnits="userSpaceOnUse"
       id="EMFhbasepattern-6" />
    <pattern
       y="0"
       x="0"
       height="6"
       width="6"
       patternUnits="userSpaceOnUse"
       id="EMFhbasepattern-8" />
    <pattern
       y="0"
       x="0"
       height="6"
       width="6"
       patternUnits="userSpaceOnUse"
       id="EMFhbasepattern-0" />
    <pattern
       y="0"
       x="0"
       height="6"
       width="6"
       patternUnits="userSpaceOnUse"
       id="EMFhbasepattern-7" />
    <pattern
       y="0"
       x="0"
       height="6"
       width="6"
       patternUnits="userSpaceOnUse"
       id="EMFhbasepattern-5" />
    <pattern
       y="0"
       x="0"
       height="6"
       width="6"
       patternUnits="userSpaceOnUse"
       id="EMFhbasepattern-82" />
  </defs>
  <sodipodi:namedview
     id="base"
     pagecolor="#ffffff"
     bordercolor="#666666"
     borderopacity="1.0"
     inkscape:pageopacity="0.0"
     inkscape:pageshadow="2"
     inkscape:zoom="0.2414452"
     inkscape:cx="1512.1561"
     inkscape:cy="1226.6196"
     inkscape:document-units="mm"
     inkscape:current-layer="layer1"
     showgrid="false"
     showguides="true"
     inkscape:window-width="1920"
     inkscape:window-height="1057"
     inkscape:window-x="-8"
     inkscape:window-y="-8"
     inkscape:window-maximized="1"
     inkscape:snap-global="false"
     inkscape:measure-start="0,0"
     inkscape:measure-end="0,0"
     fit-margin-top="0"
     fit-margin-left="0"
     fit-margin-right="0"
     fit-margin-bottom="0" />
  <metadata
     id="metadata8778">
    <rdf:RDF>
      <cc:Work
         rdf:about="">
        <dc:format>image/svg+xml</dc:format>
        <dc:type
           rdf:resource="http://purl.org/dc/dcmitype/StillImage" />
        <dc:title></dc:title>
      </cc:Work>
    </rdf:RDF>
  </metadata>
  <g
     inkscape:label="Layer 1"
     inkscape:groupmode="layer"
     id="layer1"
     transform="translate(-179.2,397.3)">
    <path
       d="m 197.40882,154.5619 c -1.3527,-9.4252 -16.1876,-104.27771 -16.1876,-105.83381 V -62.10588 c 0,-38.57928 -4.35,-74.09289 6.5912,-107.76699 11.4584,-35.1367 -21.8479,-121.77655 0,-151.8196 84.9634,-116.72832 153.6449,-53.7184 258.4906,-63.85886 38.7849,-3.77009 70.88045,-10.74876 110.78855,-10.74876 17.124,0 37.5687,9.05088 54.9725,10.74876 77.57111,-17.92128 118.64891,-11.36374 158.64991,44.4282 6.0873,32.82516 -3.5542,90.45936 -3.5542,122.67086 0,17.3572 -9.6415,38.5806 -11.4584,56.2666 -9.363,90.59969 43.1825,193.13276 17.2168,281.84747 -9.8272,98.0049 -123.98161,73.8109 -215.82131,73.8109 -17.1239,0 -54.55215,10.2273 -72.05005,10.2273 -53.897,0 -92.8688,-20.9881 -145.1293,-20.9881 -10.0526,0 -34.2466,10.468 -44.0711,8.6364 -46.1771,0 -92.028,7.6872 -98.4376,-36.7878"
       style="fill:#782d00;fill-opacity:1;fill-rule:nonzero;stroke:none;stroke-width:46.97400665"
       id="path6282"
       inkscape:connector-curvature="0" />
    <path
       d="m 531.55416,-208.14116 99.98918,107.47687 c 1.21703,-0.27046 3.00203,-0.81136 4.15145,-0.81136 1.9067,0 9.30358,1.47395 10.87222,2.474624 4.58417,2.961426 7.49154,9.736198 7.49154,14.978874 0,0.811349 -0.27046,1.217019 -0.54091,1.960758 -2.05544,7.248061 -5.15213,11.250726 -12.49493,13.360234 -0.81136,0.135229 -1.08181,0.540899 -1.96078,0.540899 -4.34077,0 -12.35971,-3.001996 -14.98039,-6.626022 -1.62272,-2.285307 -3.3401,-8.870759 -3.3401,-11.683446 l 1.66329,-5.003323 -100.80054,-109.148238 c 0.67613,-0.27045 5.53076,-2.3394 5.81474,-2.47462 l 4.15145,-5.00332"
       style="fill:#ffffff;fill-opacity:1;fill-rule:nonzero;stroke:none;stroke-width:47.70464325"
       id="path6804"
       inkscape:connector-curvature="0" />
    <path
       d="m 579.06734,-168.97593 -10.02029,-10.83153 19.17783,-9.15473 c 14.21636,-6.4908 33.53617,-11.30481 49.1359,-10.83152 v 4.1514 c -21.32386,3.002 -41.21703,14.12155 -58.29615,26.66774"
       style="fill:#ffffff;fill-opacity:1;fill-rule:nonzero;stroke:none;stroke-width:47.70464325"
       id="path6806"
       inkscape:connector-curvature="0" />
    <path
       d="m 524.63732,-110.10977 4.15146,-1.66327 2.77213,-2.19064 c 2.00135,-2.24474 3.3401,-6.20684 3.3401,-9.20882 l -1.66329,-4.96277 -18.31913,-39.16522 c -1.66329,-3.05609 -6.11224,-8.34338 -9.15484,-10.02018 l -3.90804,-1.0818 c -0.81135,-0.27045 -1.08182,-0.5409 -1.96078,-0.5409 h -6.68019 l -5.77417,1.67679 -44.22313,20.8463 c -3.00203,1.37928 -7.49155,5.43604 -9.15484,8.30282 -1.35226,2.37995 -3.15077,8.01884 -2.47464,10.83151 l -9.15483,4.19199 0.81136,0.81135 c 17.07776,7.3968 33.91886,14.7882 49.99459,24.18634 l 49.99459,-1.67679 1.4334,-0.27045"
       style="fill:#ffffff;fill-opacity:1;fill-rule:nonzero;stroke:none;stroke-width:47.70464325"
       id="path6808"
       inkscape:connector-curvature="0" />
    <path
       d="m 515.71643,-206.47248 -75.80393,35.82652 c -2.77214,0.94657 -7.20757,1.67679 -10.02028,1.67679 -6.30155,0 -12.30561,-4.05675 -16.64909,-8.34339 l -24.18661,-35.82651 -14.16768,-20.8463 c -0.67613,-1.52804 -3.34009,-8.83019 -3.34009,-9.96609 0,-11.26423 8.01893,-19.17761 19.17782,-19.17761 6.11223,0 11.21027,3.7187 14.97904,8.30282 l 28.33671,47.51267 2.52874,2.52871 c 2.24475,0.67612 5.09804,1.0818 7.49155,0.81135 8.15415,-3.05609 67.40771,-25.80905 71.65382,-25.80905 3.71872,0 10.8722,5.20616 10.8722,9.11417 v 4.19197 c -1.21703,2.67746 -3.5294,5.72003 -5.86882,7.49147 l -5.00338,2.52871"
       style="fill:#ffffff;fill-opacity:1;fill-rule:nonzero;stroke:none;stroke-width:47.70464325"
       id="path6810"
       inkscape:connector-curvature="0" />
    <path
       d="m 330.71575,-75.666601 -0.81136,-3.340056 c 31.77147,8.776099 67.07235,11.967416 99.98919,10.831527 9.39824,24.662342 21.32386,49.611361 35.82555,71.6516847 L 337.39324,65.158105 c -0.0946,0.676129 -0.67614,5.584793 -0.81137,5.868762 -1.96078,4.908674 -6.82893,8.018851 -11.39959,9.966088 -0.81136,0.27045 -1.08181,0.811349 -1.96079,0.811349 h -5.81473 l -3.3401,-1.663268 c -5.90939,-2.961426 -10.02028,-8.24872 -10.02028,-15.026199 0,-6.112173 3.71872,-11.210156 8.34348,-14.978885 l 34.15686,-94.169355 c -38.92766,2.677457 -71.51048,9.587448 -107.47939,24.997693 l -1.66328,-3.340055 97.50913,-45.842643 -4.20554,-7.491461"
       style="fill:#ffffff;fill-opacity:1;fill-rule:nonzero;stroke:none;stroke-width:47.70464325"
       id="path6812"
       inkscape:connector-curvature="0" />
    <path
       d="m 301.56903,-96.512889 c -18.79649,-8.154071 -35.82692,-28.813761 -35.82692,-49.995401 v -10.83152 c 0,-0.67613 1.43341,-6.53137 1.62273,-7.49147 18.70047,15.12222 37.21027,24.18635 61.73089,24.18635 9.01961,0 18.89115,-1.08181 27.47803,-4.19198 39.547,10.54755 74.75321,23.75634 110.81813,43.36396 13.0223,15.026214 33.77552,77.471779 37.49695,98.3180668 l 40.02434,5.0033339 2.47464,1.622698 0.81136,2.5287069 -0.81136,2.4746169 -1.66328,1.6767875 -54.19202,24.996355 c -1.08181,0.270449 -3.15078,-0.27045 -4.09736,-0.811349 l -1.71738,-2.528707 -3.3401,-19.13029 c -19.60649,-27.906388 -34.10818,-57.531494 -46.65449,-89.159276 -50.7113,0 -85.5835,-4.624694 -134.1474,-20.036288"
       style="fill:#ffffff;fill-opacity:1;fill-rule:nonzero;stroke:none;stroke-width:47.70464325"
       id="path6814"
       inkscape:connector-curvature="0" />
    <path
       d="m 381.57039,52.657904 19.17646,-9.154739 c 1.96079,2.244738 3.28601,13.170924 3.28601,15.837559 C 404.03286,102.084 373.83678,148.5 326.56024,148.5 283.76917,148.5 237.4,118.3029 237.4,71.028226 c 0,-52.092742 36.97093,-92.641326 90.83029,-89.206611 L 320.69817,2.6679137 C 284.29925,1.3156653 258.25192,34.295696 258.25192,68.49952 c 0,28.909755 29.14808,59.15419 58.29615,59.15419 36.06491,0 66.69101,-24.90169 66.69101,-62.492897 0,-3.867436 -1.37932,-8.64088 -1.66329,-12.494795"
       style="fill:#ffffff;fill-opacity:1;fill-rule:nonzero;stroke:none;stroke-width:47.70464325"
       id="path6816"
       inkscape:connector-curvature="0" />
    <path
       d="m 368.21271,-228.9888 26.66666,38.35388 c -10.77755,12.87341 -24.18661,28.24174 -38.30696,37.49655 -8.01894,3.00199 -17.36444,4.1514 -25.85666,4.1514 -20.51251,0 -44.36512,-8.87076 -59.15348,-23.32767 13.78634,-27.0477 29.76741,-53.76277 50.80595,-75.85042 16.3624,-17.84024 45.36713,-35.96854 67.54969,-45.84263 l 39.16566,31.6751 c -0.67614,2.09599 -6.15281,19.08161 -5.86883,19.98761 l -10.83164,-16.6489 c -2.56931,-5.24674 -11.45369,-12.4948 -17.50778,-12.4948 h -7.49155 c -10.34483,0 -24.13793,12.83286 -24.13793,23.32632 v 7.49146 c 0,2.56928 2.77214,9.87143 4.96281,11.68345"
       style="fill:#ffffff;fill-opacity:1;fill-rule:nonzero;stroke:none;stroke-width:47.70464325"
       id="path6818"
       inkscape:connector-curvature="0" />
    <path
       d="m 390.72927,-303.9805 c 1.56863,-20.89362 15.98107,-40.69066 36.68425,-45.84264 l 6.6261,-1.67686 h 10.02028 c 3.62407,0 19.84584,5.34144 22.46924,8.34342 2.77214,2.19068 9.83096,12.6841 10.83164,15.83887 l 0.81136,7.49145 v 8.34342 c 0,3.96206 -4.58417,12.26491 -7.49155,14.9789 -4.09736,-0.9466 -11.77823,-4.05679 -14.98039,-6.68015 -3.52941,-2.86678 -9.11427,-9.96612 -10.87221,-14.16751 l -15.7904,19.1763 c 3.15078,7.20746 7.39689,12.0215 13.59567,16.64887 0.81137,0.6761 1.21704,1.217 2.19067,1.67676 2.24476,1.08179 7.58621,1.81205 10.02029,2.52872 l -20.84652,9.15475 -43.31575,-35.82649"
       style="fill:#ffffff;fill-opacity:1;fill-rule:nonzero;stroke:none;stroke-width:47.70464325"
       id="path6820"
       inkscape:connector-curvature="0" />
    <path
       d="m 559.07951,-147.31829 -26.66667,-29.14775 -10.02028,4.96275 19.17782,40.02391 c 0.5409,1.3793 2.00136,6.05808 1.66328,7.49146 l 15.83773,-23.32767"
       style="fill:#ffffff;fill-opacity:1;fill-rule:nonzero;stroke:none;stroke-width:47.70464325"
       id="path6822"
       inkscape:connector-curvature="0" />
    <path
       d="m 585.74618,-119.84056 c -5.96349,7.96475 -10.87222,22.563647 -10.87222,32.533792 0,36.255184 26.52333,64.972921 63.35227,64.972921 38.06897,0 61.68222,-31.961784 61.68222,-67.501628 0,-29.195085 -31.5808,-57.482815 -60.01218,-57.482815 -5.05746,0 -31.39012,3.67812 -33.34685,8.34338 l -14.16768,-15.83755 c 12.77891,-9.34405 31.10345,-13.36024 46.65585,-13.36024 46.12982,0 81.67005,40.16725 81.67005,85.009222 0,46.083345 -40.16768,81.6705138 -85.01014,81.6705138 -46.03516,0 -81.62273,-40.1672468 -81.62273,-85.0092198 0,-17.650926 6.92361,-34.013146 16.64909,-48.325366 l 15.02637,14.98023"
       style="fill:#ffffff;fill-opacity:1;fill-rule:nonzero;stroke:none;stroke-width:47.70464325"
       id="path6824"
       inkscape:connector-curvature="0" />
    <path
       d="m 549.87194,-36.501372 -39.11697,18.31894 c -7.20758,-27.335741 -17.79446,-57.389509 -32.5355,-81.623188 l 44.9858,-1.66327 5.00338,-0.81135 -5.81474,8.343383 27.47803,57.484169"
       style="fill:#ffffff;fill-opacity:1;fill-rule:nonzero;stroke:none;stroke-width:47.70464325"
       id="path6826"
       inkscape:connector-curvature="0" />
    <path
       d="M 737.4,148.49594 V -18.182432 c -40.26234,23.1843268 -89.82827,33.34514 -135.86343,33.34514 -2.56929,0.5409 -9.58755,2.772107 -11.643,4.151405 -2.24475,1.568608 -6.39621,6.531372 -7.49154,9.154739 -16.88709,48.229354 -53.85937,90.734638 -94.9804,120.024388 h 249.97296"
       style="fill:#ffffff;fill-opacity:1;fill-rule:nonzero;stroke:none;stroke-width:47.70464325"
       id="path6828"
       inkscape:connector-curvature="0" />
    <path
       d="m 326.56565,49.319197 31.67681,-89.159276 c 3.52941,0.540899 7.15348,2.339397 10.25017,3.908005 21.89723,10.926187 38.2123,26.5243925 50.56794,47.752018 l -86.68018,40.835252 c -1.08181,-0.540899 -5.30088,-2.244737 -5.81474,-3.340056"
       style="fill:#782d00;fill-opacity:1;fill-rule:nonzero;stroke:none;stroke-width:47.70464325"
       id="path6830"
       inkscape:connector-curvature="0" />
    <path
       d="m 369.0714,25.991527 c -2.37999,-2.623367 -4.86816,-5.963423 -7.49155,-8.34339 -2.28533,-2.001327 -9.39824,-7.207491 -12.49493,-8.30281 l 7.49155,-19.1776139 2.47464,0.811349 c 3.81339,2.4746169 8.11359,4.814004 11.68357,7.5320307 6.39622,4.868104 12.77891,11.8321952 17.50778,18.3189402 l -19.17648,9.154729"
       style="fill:#ffffff;fill-opacity:1;fill-rule:nonzero;stroke:none;stroke-width:47.70464325"
       id="path6832"
       inkscape:connector-curvature="0" />
  </g>
</svg>
