<?xml version="1.0" encoding="UTF-8" standalone="no"?>
<!-- Created with Inkscape (http://www.inkscape.org/) -->

<svg
   xmlns:dc="http://purl.org/dc/elements/1.1/"
   xmlns:cc="http://creativecommons.org/ns#"
   xmlns:rdf="http://www.w3.org/1999/02/22-rdf-syntax-ns#"
   xmlns:svg="http://www.w3.org/2000/svg"
   xmlns="http://www.w3.org/2000/svg"
   xmlns:sodipodi="http://sodipodi.sourceforge.net/DTD/sodipodi-0.dtd"
   xmlns:inkscape="http://www.inkscape.org/namespaces/inkscape"
   width="602mm"
   height="602mm"
   viewBox="0 0 602 601.99999"
   version="1.1"
   id="svg8781"
   inkscape:version="0.92.2 (5c3e80d, 2017-08-06)"
   sodipodi:docname="11.svg">
  <defs
     id="defs8775">
    <pattern
       y="0"
       x="0"
       height="6"
       width="6"
       patternUnits="userSpaceOnUse"
       id="EMFhbasepattern" />
    <pattern
       y="0"
       x="0"
       height="6"
       width="6"
       patternUnits="userSpaceOnUse"
       id="EMFhbasepattern-2" />
    <pattern
       y="0"
       x="0"
       height="6"
       width="6"
       patternUnits="userSpaceOnUse"
       id="EMFhbasepattern-6" />
    <pattern
       y="0"
       x="0"
       height="6"
       width="6"
       patternUnits="userSpaceOnUse"
       id="EMFhbasepattern-8" />
    <pattern
       y="0"
       x="0"
       height="6"
       width="6"
       patternUnits="userSpaceOnUse"
       id="EMFhbasepattern-0" />
    <pattern
       y="0"
       x="0"
       height="6"
       width="6"
       patternUnits="userSpaceOnUse"
       id="EMFhbasepattern-7" />
    <pattern
       y="0"
       x="0"
       height="6"
       width="6"
       patternUnits="userSpaceOnUse"
       id="EMFhbasepattern-5" />
    <pattern
       y="0"
       x="0"
       height="6"
       width="6"
       patternUnits="userSpaceOnUse"
       id="EMFhbasepattern-82" />
    <pattern
       y="0"
       x="0"
       height="6"
       width="6"
       patternUnits="userSpaceOnUse"
       id="EMFhbasepattern-84" />
    <pattern
       y="0"
       x="0"
       height="6"
       width="6"
       patternUnits="userSpaceOnUse"
       id="EMFhbasepattern-86" />
    <pattern
       y="0"
       x="0"
       height="6"
       width="6"
       patternUnits="userSpaceOnUse"
       id="EMFhbasepattern-23" />
    <pattern
       y="0"
       x="0"
       height="6"
       width="6"
       patternUnits="userSpaceOnUse"
       id="EMFhbasepattern-06" />
  </defs>
  <sodipodi:namedview
     id="base"
     pagecolor="#ffffff"
     bordercolor="#666666"
     borderopacity="1.0"
     inkscape:pageopacity="0.0"
     inkscape:pageshadow="2"
     inkscape:zoom="0.2414452"
     inkscape:cx="1259.1333"
     inkscape:cy="749.6057"
     inkscape:document-units="mm"
     inkscape:current-layer="layer1"
     showgrid="false"
     showguides="true"
     inkscape:window-width="1920"
     inkscape:window-height="1057"
     inkscape:window-x="-8"
     inkscape:window-y="-8"
     inkscape:window-maximized="1"
     inkscape:snap-global="false"
     inkscape:measure-start="0,0"
     inkscape:measure-end="0,0"
     fit-margin-top="0"
     fit-margin-left="0"
     fit-margin-right="0"
     fit-margin-bottom="0" />
  <metadata
     id="metadata8778">
    <rdf:RDF>
      <cc:Work
         rdf:about="">
        <dc:format>image/svg+xml</dc:format>
        <dc:type
           rdf:resource="http://purl.org/dc/dcmitype/StillImage" />
        <dc:title></dc:title>
      </cc:Work>
    </rdf:RDF>
  </metadata>
  <g
     inkscape:label="Layer 1"
     inkscape:groupmode="layer"
     id="layer1"
     transform="translate(-179.2,397.3)">
    <path
       d="m 197.40882,154.5619 c -1.3527,-9.4252 -16.1876,-104.2777 -16.1876,-105.8338 v -110.834 c 0,-38.5793 -4.35,-74.0929 6.5912,-107.767 11.4584,-35.1367 -21.8479,-121.7766 0,-151.8196 84.9634,-116.72832 153.6449,-53.7184 258.4906,-63.85886 38.7849,-3.77009 70.8804,-10.74876 110.7885,-10.74876 17.124,0 37.5687,9.05088 54.9725,10.74876 77.5711,-17.92128 118.64894,-11.36374 158.64994,44.4282 6.0873,32.82516 -3.5542,90.45936 -3.5542,122.67086 0,17.3572 -9.6415,38.5806 -11.4584,56.2666 -9.363,90.5997 43.1825,193.1328 17.2168,281.8475 -9.8272,98.0049 -123.98164,73.8109 -215.82134,73.8109 -17.1239,0 -54.5521,10.2273 -72.05,10.2273 -53.897,0 -92.8688,-20.9881 -145.1293,-20.9881 -10.0526,0 -34.2466,10.468 -44.0711,8.6364 -46.1771,0 -92.028,7.6872 -98.4376,-36.7878"
       style="fill:#782d00;fill-opacity:1;fill-rule:nonzero;stroke:none;stroke-width:46.97400665"
       id="path6282"
       inkscape:connector-curvature="0" />
    <path
       d="m 461.93608,-342.28648 c -51.4257,5.90929 -87.53958,17.60345 -122.74609,56.8157 L 239.2,-174.08141 c 13.11708,34.01287 29.95968,42.83758 61.34871,56.8157 l 13.64447,-4.5841 c 0.0474,-34.20355 7.20763,-71.65111 22.75474,-102.27799 l 13.64446,-6.81528 6.77491,4.58409 20.46535,24.9975 c 7.34286,-5.81462 25.23617,-19.60611 34.1098,-22.75549 l -22.7561,-27.23816 -4.53012,-11.39937 v -11.35881 l 6.82899,-11.35882 c 23.56612,-22.7068 51.75971,-39.78423 79.52465,-56.81569 h -9.06025"
       style="fill:#ffffff;fill-opacity:1;fill-rule:nonzero;stroke:none;stroke-width:47.70464325"
       id="path6566"
       inkscape:connector-curvature="0" />
    <path
       d="m 564.21684,-221.83304 c 11.39968,6.96403 23.80411,14.07275 34.06113,22.7068 l 22.75475,-27.2395 6.82899,-4.5841 c 4.43547,0.81134 10.20968,3.90797 13.59578,6.81528 15.55253,30.62688 22.70877,68.07444 22.75611,102.27799 l 6.81546,4.58409 c 4.24615,1.37929 10.34491,-1.5686 13.64312,-3.05606 l 13.64311,-6.05803 c 17.12658,-9.64147 34.53983,-28.95687 40.88471,-47.70431 l -99.99134,-111.38938 c -14.31114,-17.3641 -45.0335,-37.92489 -65.92887,-45.46093 -17.50791,-6.30144 -40.54935,-9.20875 -59.10663,-11.35881 h -9.06025 c 28.14627,18.08079 57.8666,32.91622 81.81541,56.81569 3.38068,6.68007 6.05819,15.26543 6.82899,22.70681 l -6.82899,11.39937 -22.70742,29.52886"
       style="fill:#ffffff;fill-opacity:1;fill-rule:nonzero;stroke:none;stroke-width:47.70464325"
       id="path6568"
       inkscape:connector-curvature="0" />
    <path
       d="M 323.3048,69.06611 273.30981,132.7025 305.12886,157.7 391.47575,53.180002 c -11.92707,5.395435 -53.19179,12.58935 -68.17095,15.886108"
       style="fill:#ffffff;fill-opacity:1;fill-rule:nonzero;stroke:none;stroke-width:47.70464325"
       id="path6570"
       inkscape:connector-curvature="0" />
    <path
       d="M 639.20866,53.180002 705.09019,132.7025 671.02906,157.7 589.21367,57.712711 c 12.40037,-0.270443 38.16392,-0.811347 49.99499,-4.530001"
       style="fill:#ffffff;fill-opacity:1;fill-rule:nonzero;stroke:none;stroke-width:47.70464325"
       id="path6572"
       inkscape:connector-curvature="0" />
    <path
       d="M 639.20866,-80.916169 C 626.13215,-165.73404 571.80176,-224.12375 482.3541,-224.12375 c -64.35481,0 -135.38717,54.43035 -143.16411,120.45345 L 305.12886,57.712711 c 64.64015,-19.224785 132.38241,-31.81955 199.97999,-31.81955 24.04347,0 66.07221,15.933441 106.81223,15.933441 27.00225,0 78.80929,-20.226794 102.28074,-34.1088906 3.77286,-2.5286877 7.62684,-9.5332875 9.11434,-13.642741 l -2.28535,-9.0600014 c -10.06093,-8.437978 -49.94766,-27.000171 -63.63945,-34.107541 -2.96148,-2.379933 -9.01968,-6.436656 -11.35912,-9.11409 -2.24478,-2.474599 -5.00342,-8.302752 -6.82899,-11.358816 v -11.358805"
       style="fill:#ffffff;fill-opacity:1;fill-rule:nonzero;stroke:none;stroke-width:47.70464325"
       id="path6574"
       inkscape:connector-curvature="0" />
  </g>
</svg>
