<?xml version="1.0" encoding="UTF-8" standalone="no"?>
<!-- Created with Inkscape (http://www.inkscape.org/) -->

<svg
   xmlns:dc="http://purl.org/dc/elements/1.1/"
   xmlns:cc="http://creativecommons.org/ns#"
   xmlns:rdf="http://www.w3.org/1999/02/22-rdf-syntax-ns#"
   xmlns:svg="http://www.w3.org/2000/svg"
   xmlns="http://www.w3.org/2000/svg"
   xmlns:sodipodi="http://sodipodi.sourceforge.net/DTD/sodipodi-0.dtd"
   xmlns:inkscape="http://www.inkscape.org/namespaces/inkscape"
   width="602mm"
   height="602mm"
   viewBox="0 0 602 602"
   version="1.1"
   id="svg8781"
   inkscape:version="0.92.2 (5c3e80d, 2017-08-06)"
   sodipodi:docname="11.svg">
  <defs
     id="defs8775" />
  <sodipodi:namedview
     id="base"
     pagecolor="#ffffff"
     bordercolor="#666666"
     borderopacity="1.0"
     inkscape:pageopacity="0.0"
     inkscape:pageshadow="2"
     inkscape:zoom="0.24748737"
     inkscape:cx="967.08265"
     inkscape:cy="1268.3926"
     inkscape:document-units="mm"
     inkscape:current-layer="layer1"
     showgrid="false"
     showguides="false"
     inkscape:window-width="1920"
     inkscape:window-height="1057"
     inkscape:window-x="-8"
     inkscape:window-y="-8"
     inkscape:window-maximized="1" />
  <metadata
     id="metadata8778">
    <rdf:RDF>
      <cc:Work
         rdf:about="">
        <dc:format>image/svg+xml</dc:format>
        <dc:type
           rdf:resource="http://purl.org/dc/dcmitype/StillImage" />
        <dc:title></dc:title>
      </cc:Work>
    </rdf:RDF>
  </metadata>
  <g
     inkscape:label="Layer 1"
     inkscape:groupmode="layer"
     id="layer1"
     transform="translate(0,305)">
    <path
       d="M 18.208834,246.86186 C 16.856103,237.43664 2.0211745,142.58419 2.0211745,141.02803 V 30.19416 c 0,-38.57923 -4.349946,-74.09291 6.5912437,-107.76701 11.4584048,-35.13668 -21.8478972,-121.77648 0,-151.81953 C 93.575731,-346.1207 162.25723,-283.11078 267.103,-293.25124 305.88786,-297.02133 337.98335,-304 377.8915,-304 c 17.12396,0 37.56873,9.05088 54.97252,10.74876 77.57104,-17.92128 118.64891,-11.36374 158.6499,44.4282 6.08728,32.82516 -3.55423,90.45936 -3.55423,122.67088 0,17.35711 -9.64151,38.58056 -11.45841,56.26655 -9.363,90.59973 43.18255,193.13273 17.21679,281.84743 -9.82717,98.00488 -123.98158,73.81082 -215.82126,73.81082 -17.12396,0 -54.55211,10.22736 -72.05007,10.22736 -53.89696,0 -92.86881,-20.98815 -145.12924,-20.98815 -10.05264,0 -34.24659,10.468 -44.07111,8.63644 -46.177127,0 -92.028006,7.68723 -98.437556,-36.78777"
       style="fill:#782d00;fill-opacity:1;fill-rule:nonzero;stroke:none;stroke-width:46.97400665"
       id="path6282"
       inkscape:connector-curvature="0" />
    <path
       style="fill:#ffffff;fill-opacity:1;fill-rule:nonzero;stroke:none;stroke-width:47.1003952"
       d="m 92.941625,-265.99995 c -3.295751,5.74458 -6.311559,12.25045 -10.07432,17.62631 C 75.00821,-237.15169 62.910066,-227.25885 51,-220.6606 v 37.84472 c 38.127958,-0.13359 69.19619,21.53802 79.12746,58.76954 1.74797,6.63967 3.24244,13.23914 3.05563,20.17138 0.80059,20.359833 -13.60323,46.846606 -31.8673,56.273049 v 46.1863274 h 74.6559 c 17.03917,-0.667993 39.16336,9.899095 49.51895,23.5163776 7.11189,9.324922 10.16749,21.586296 12.56926,32.756157 l -12.56926,-1.643327 c -1.69457,-6.172067 -3.29556,-13.012128 -6.73809,-18.474822 -4.32317,-7.027095 -14.922,-17.01321 -22.641,-20.171383 -5.64414,-2.311188 -14.02741,-3.353276 -20.14657,-3.353276 h -74.65591 v 22.669923 c -1.414378,37.514741 36.01024,78.422874 74.65591,74.746354 h 45.2918 l 44.4836,121.83028 c 4.00294,10.98148 22.97351,26.58017 35.25986,24.31841 12.28635,2.26176 31.25692,-13.33693 35.25985,-24.31841 l 44.4836,-121.83028 h 45.2918 c 38.64568,3.67652 76.0703,-37.231613 74.65592,-74.746354 V 11.214143 h -74.65592 c -6.11915,0 -14.50242,1.042088 -20.14657,3.353276 -7.719,3.158173 -18.31781,13.144288 -22.641,20.171383 -3.44252,5.462694 -5.04351,12.302755 -6.73809,18.474822 l -12.56924,1.643327 c 2.40175,-11.169861 5.45737,-23.431235 12.56924,-32.756157 10.35561,-13.6172826 32.4798,-24.1843706 49.51894,-23.5163776 h 74.65592 V -47.601911 c -18.26408,-9.426443 -32.6679,-35.913216 -31.86732,-56.273049 -0.18679,-6.93224 1.30768,-13.53171 3.05565,-20.17138 9.93126,-37.23152 40.99949,-58.90313 79.12745,-58.76954 v -37.84472 c -11.91006,-6.59825 -24.00821,-16.49109 -31.86729,-27.71304 -3.76277,-5.37586 -6.77857,-11.88173 -10.07432,-17.62631 -0.26686,3.54027 -0.80048,7.40119 -0.80048,10.94145 0,17.90837 8.56515,33.60818 21.84157,45.3378 -45.80027,4.90159 -79.64636,33.5097 -92.58919,77.57459 -2.16159,7.49333 -4.71043,20.35569 -3.90983,28.27786 -0.56576,19.84149 8.51847,39.164916 17.60511,56.273059 H 426.06909 C 370.90196,-49.291858 319.55231,-0.04244856 317.80437,54.863672 H 284.19609 C 282.44816,-0.04244856 231.09852,-49.291858 175.93139,-47.595191 h -25.13697 c 9.08666,-17.108143 18.17088,-36.431569 17.60513,-56.273059 0.80059,-7.92217 -1.74825,-20.78453 -3.90984,-28.27786 -12.94282,-44.06489 -46.78893,-72.673 -92.589177,-77.57459 13.276405,-11.72962 21.84156,-27.42943 21.84156,-45.3378 0,-3.54026 -0.533607,-7.40118 -0.800468,-10.94145 z"
       id="path6284"
       inkscape:connector-curvature="0"
       sodipodi:nodetypes="ccccccccccccccscccccccccccsccccccccccccccsccccccccccccsc" />
  </g>
</svg>
