<?xml version="1.0" encoding="UTF-8" standalone="no"?>
<!-- Created with Inkscape (http://www.inkscape.org/) -->

<svg
   xmlns:dc="http://purl.org/dc/elements/1.1/"
   xmlns:cc="http://creativecommons.org/ns#"
   xmlns:rdf="http://www.w3.org/1999/02/22-rdf-syntax-ns#"
   xmlns:svg="http://www.w3.org/2000/svg"
   xmlns="http://www.w3.org/2000/svg"
   xmlns:sodipodi="http://sodipodi.sourceforge.net/DTD/sodipodi-0.dtd"
   xmlns:inkscape="http://www.inkscape.org/namespaces/inkscape"
   width="978mm"
   height="602mm"
   viewBox="0 0 978 602.00001"
   version="1.1"
   id="svg8781"
   inkscape:version="0.92.2 (5c3e80d, 2017-08-06)"
   sodipodi:docname="22.svg">
  <defs
     id="defs8775" />
  <sodipodi:namedview
     id="base"
     pagecolor="#ffffff"
     bordercolor="#666666"
     borderopacity="1.0"
     inkscape:pageopacity="0.0"
     inkscape:pageshadow="2"
     inkscape:zoom="0.18958994"
     inkscape:cx="2413.0889"
     inkscape:cy="1087.4795"
     inkscape:document-units="mm"
     inkscape:current-layer="layer1"
     showgrid="false"
     showguides="true"
     inkscape:window-width="1920"
     inkscape:window-height="1057"
     inkscape:window-x="-8"
     inkscape:window-y="-8"
     inkscape:window-maximized="1"
     inkscape:snap-global="true"
     fit-margin-top="0"
     fit-margin-left="0"
     fit-margin-right="0"
     fit-margin-bottom="0" />
  <metadata
     id="metadata8778">
    <rdf:RDF>
      <cc:Work
         rdf:about="">
        <dc:format>image/svg+xml</dc:format>
        <dc:type
           rdf:resource="http://purl.org/dc/dcmitype/StillImage" />
        <dc:title></dc:title>
      </cc:Work>
    </rdf:RDF>
  </metadata>
  <g
     inkscape:label="Layer 1"
     inkscape:groupmode="layer"
     id="layer1"
     transform="translate(-84.340927,375.44855)">
    <path
       d="m 223.30196,214.60415 -90.85521,-45.4375 c -4.3649,-8.6365 -45.427597,-89.2918 -45.427597,-90.875 v -112.7546 c 0,-39.2477 -6.1462,-187.84306 5.0856,-222.10206 24.656897,-75.1852 -4.9904,-111.2177 153.936807,-106.9484 34.2026,0.952 78.4785,3.3593 113.5445,0 17.8934,-1.7273 38.8558,-10.9351 56.4133,-10.9351 h 56.3643 c 12.1428,0 125.9702,14.7786 130.4316,20.1999 14.343,-17.3696 105.1016,-6.814 130.3827,-9.2621 17.8444,-1.7273 38.8558,-10.9351 56.4119,-10.9351 h 56.3657 c 17.8444,0 39.0951,9.167 57.22783,10.9351 58.763,5.6579 96.5635,0.544 135.46691,57.1926 7.1524,33.1071 22.6907,79.7918 22.6907,112.8022 0,17.8497 -9.2058,39.105 -10.9327,57.2416 -8.825,91.59446 16.501,193.84116 -11.7485,282.74946 -12.4284,52.1549 -36.2654,72.0189 -135.46691,79.0722 h -57.22783 c -17.5575,0 -38.5199,-9.1669 -56.3657,-10.935 -61.5926,-5.9435 -130.622,0 -192.696,0 l -6.7173,-3.3594 c -1.8221,4.2163 -55.2126,14.2985 -61.4486,14.2985 h -56.3656 c -17.5562,0 -38.5199,-9.1669 -56.3644,-10.935 -61.5451,-5.9436 -130.622,0 -192.696,0"
       style="fill:#782d00;fill-opacity:1;fill-rule:nonzero;stroke:none;stroke-width:47.97531128"
       id="path6315"
       inkscape:connector-curvature="0" />
    <path
       d="m 817.87248,-236.07393 11.98718,-1.72037 c 8.2273,-2.59442 19.43059,-8.65733 23.10166,-17.13013 v -3.37139 c 0,-5.09175 -3.27428,-11.88991 -5.72998,-16.24912 -22.02504,-39.69331 -99.06344,-44.04972 -137.92601,-47.03533 -65.82956,-4.84201 -131.31782,12.48646 -188.97418,44.44092 l -5.09177,-4.25934 5.96584,-4.25923 c 41.01583,-19.72463 84.47766,-35.97374 129.94706,-41.06409 3.08003,0.27754 5.57736,-0.55497 8.56028,-0.83241 1.66489,-0.13877 3.42689,0.098 5.09178,0 1.7065,-0.13877 3.42688,-0.69365 5.13339,-0.83241 2.78868,-0.13877 5.72998,0 8.56028,0 h 20.50861 c 27.11543,2.5944 54.81773,2.69148 81.24778,10.28057 h 3.42689 c 29.26869,7.24215 60.98474,17.08152 72.63339,48.16188 0.55496,1.24871 3.42688,10.08641 3.42688,10.82175 0,19.77306 -25.25491,27.50639 -41.01582,29.9052 h -31.66751 c -35.38713,-1.60938 -70.03894,-5.03625 -105.13332,-10.22508 -0.13874,-0.0486 -21.38823,-3.42687 -22.22067,-3.42687 h -19.67479 c -14.24308,0 -28.48618,4.06506 -41.89682,7.68616 -14.58579,4.93911 -32.79269,14.58566 -41.89684,27.35936 l -0.83245,2.59443 -4.25933,8.5186 c -0.27748,3.32973 -0.83243,6.95083 -0.83243,10.28057 0,34.50444 80.5624,32.00853 102.58744,29.90384 2.59445,0.27749 6.02133,-0.0486 8.56028,-0.83242 l 42.72928,-3.42687 c 2.40021,-0.97116 4.41194,-0.55496 6.85378,-0.83243 1.41515,-0.13873 2.84418,-0.69369 4.25933,-0.83243 1.66488,-0.13874 3.48238,0.13874 5.13339,0 3.67663,-0.27748 7.43649,-1.24866 11.11311,-1.70649 l 56.43267,-8.56021 c 5.53574,0.97116 14.63434,-1.72037 20.50861,-1.72037 h 23.93272 c 19.72473,0 38.86259,6.07678 57.85337,10.82165 1.41513,0.41622 9.79503,3.08002 10.57203,2.88578 l 4.2593,2.53894 4.2593,2.59441 4.301,3.37137 c 0.555,1.95622 2.3447,2.84415 3.3714,4.30092 1.3874,1.85909 4.0096,7.93588 4.3009,10.22507 v 4.30092 l -0.8324,2.53893 c -3.1355,3.17712 -4.5507,7.58904 -8.5187,10.28058 -1.4706,0.97116 -6.1184,3.17711 -6.8537,4.2593 -1.2487,-0.27749 -23.88558,7.58902 -29.07309,6.85372 l -4.25933,0.8324 -0.83244,-5.96577 4.30096,-0.83243 c 1.91461,-0.55496 4.00959,-1.38739 5.96583,-1.70649 1.10992,-0.13874 2.34471,0.0971 3.42689,0 3.03842,-0.41621 6.46528,-1.70649 9.39268,-2.59442 4.8421,-1.56776 10.4194,-2.84416 14.5359,-5.96579 l 5.9658,-8.56021 -0.8324,-5.96579 -5.1334,-7.68615 c -1.2487,-1.24865 -2.8858,-3.37136 -4.301,-4.30092 -0.8324,-0.55496 -14.48724,-5.5357 -16.20069,-5.96579 -1.85912,-0.41621 -4.06509,-0.55495 -6.02134,-0.83243 l -4.25933,-1.70649 -4.25933,-0.83243 -6.85377,-1.72038 c -2.84418,-0.27747 -5.77161,-0.83242 -8.56029,-1.70648 -4.06509,-1.10993 -8.61578,-1.41514 -12.81961,-1.7065 -16.39635,-2.05334 -38.91115,-0.55496 -55.55167,0 -21.09548,3.17713 -42.14102,6.56236 -63.28506,9.44814 -4.20383,0.83244 -8.56028,1.3874 -12.81961,1.70649 -17.3273,2.15047 -34.80027,3.42686 -52.12617,5.09174 -34.70175,-0.13874 -94.4628,9.79499 -115.45978,-25.64595 -12.52826,-36.66046 27.99643,-59.81048 58.14611,-67.49525 3.71825,-0.97117 7.39487,-1.90073 11.11311,-2.59442 18.74522,-3.6211 48.8949,-4.16218 67.543,0.83243 39.98777,5.86867 78.55622,9.39265 118.83673,9.39265 h 16.25066"
       style="fill:#ffffff;fill-opacity:1;fill-rule:nonzero;stroke:none;stroke-width:48.94432449"
       id="path5800"
       inkscape:connector-curvature="0" />
    <path
       d="m 390.39104,-148.90408 8.56028,-8.51858 v 4.25929 c 1.24867,2.84415 3.46851,5.77155 5.96584,7.68616 1.38741,0.27746 2.9413,0.83242 4.25933,0.83242 1.60939,0 3.52401,-0.55496 5.1334,-0.83242 2.49733,-1.91461 4.7033,-4.84201 6.02133,-7.68616 v -4.25929 c 0,-4.45353 -6.31269,-9.00418 -10.28066,-9.44815 l 105.18188,-105.96341 -4.30095,-4.31483 -131.6605,126.52045 c -1.95623,0.27748 -5.7716,1.38739 -7.68621,1.70649 l -32.49995,16.24914 -2.59445,0.83243 h -4.25933 l -3.42688,-2.59442 -1.72039,-3.42687 c -3.32976,-8.6157 -7.00639,-17.27719 -11.11311,-25.64732 -2.84418,-4.49515 -10.61364,-11.11302 -16.20071,-11.11302 -2.15048,0 -11.98718,1.72037 -13.70755,2.59443 -2.44184,1.24865 -6.70117,5.86868 -7.68623,8.51859 -10.37779,17.81689 -15.31972,37.63856 -15.41684,58.1456 v 59.0266 h 68.424 v -53.0553 c 0.27749,-0.9711 1.24867,-4.3564 1.70651,-5.0917 l 2.53896,-2.5944 64.1175,-31.61868 -1.10993,-2.01171 -2.30309,-3.96795 -5.96584,-4.30091"
       style="fill:#ffffff;fill-opacity:1;fill-rule:evenodd;stroke:none;stroke-width:48.94432449"
       id="path5804"
       inkscape:connector-curvature="0" />
    <path
       d="m 322.84803,124.69385 c 11.21023,-0.049 23.1988,-0.4162 34.212,-2.5389 0,-22.3176 3.46852,-52.8097 0,-74.3948 -4.10671,-25.6459 -18.01128,-59.9561 -25.64754,-85.505 h -68.42401 l -25.64755,144.4831 c 9.00425,3.8708 19.43198,8.3659 29.07305,10.2805 l 30.78651,-94.0707 25.64754,41.8965 v 59.859"
       style="fill:#ffffff;fill-opacity:1;fill-rule:nonzero;stroke:none;stroke-width:48.94432449"
       id="path5806"
       inkscape:connector-curvature="0" />
    <path
       d="m 740.10015,-47.98105 c 21.9751,-7.3393 81.83466,-26.871 99.16056,-37.6385 l 10.28066,-9.3927 v -5.1333 l -2.59445,-2.5389 c -3.37138,0.4162 -8.07469,3.4268 -10.22517,5.9657 -6.50692,0.2775 -13.20808,0.8325 -19.67478,0.8325 -1.51227,0 -3.62112,-0.555 -5.13339,-0.8325 l 1.72039,-3.4268 20.50721,-11.98708 1.72039,-3.38524 -3.42689,-2.59442 -15.36828,-1.70649 c -9.68408,-0.83244 -20.26303,-2.53893 -29.95406,-2.53893 h -29.9055 c -12.8751,0 -85.11447,7.29767 -92.35811,13.65196 l -45.27378,-10.2251 3.42689,10.2251 v 11.113 c 0,2.4418 -0.55495,5.2859 -0.83244,7.6861 -38.37283,17.2273 -76.54864,37.1974 -110.32084,62.4521 l -2.53894,0.8324 -4.25934,5.1334 c -2.01173,3.1355 -6.85377,15.9065 -6.85377,18.795 v 13.7074 c 0,13.7491 11.36284,32.6953 22.22066,41.0155 1.38741,1.1099 7.78335,5.0917 8.56029,6.0213 5.86872,6.8537 11.01598,15.6623 16.24927,23.0529 l -2.59444,-18.7936 c 0,-0.2775 0.69371,-2.1505 0.83245,-2.5389 1.3874,-0.2775 2.94129,-0.8325 4.25933,-0.8325 14.43871,0 57.36361,32.4997 67.54438,39.3021 l -15.36966,-52.1257 26.48,-52.1244 -61.52306,31.6173 c -4.50906,0.4162 -10.9605,-0.5549 -14.53722,-3.4268 -2.34472,-1.8591 -5.1889,-7.4365 -6.02133,-10.2806 0.27748,-5.5357 1.85912,-12.1813 6.85377,-15.3682 l 3.42689,-1.7065 10.28066,-1.7203 c 32.15726,-4.7449 122.21506,-21.7793 149.57467,-33.3307 l -1.66488,21.3894 27.3596,-29.0728"
       style="fill:#ffffff;fill-opacity:1;fill-rule:evenodd;stroke:none;stroke-width:48.94432449"
       id="path5812"
       inkscape:connector-curvature="0" />
    <path
       d="m 714.40403,-47.14995 23.10168,-7.6862 -23.93411,-19.676 0.83243,27.3594"
       style="fill:#782d00;fill-opacity:1;fill-rule:nonzero;stroke:none;stroke-width:48.94432449"
       id="path5814"
       inkscape:connector-curvature="0" />
    <path
       d="m 784.54148,-98.44325 5.1334,-17.08156 8.56028,10.22506 -13.70755,6.8537"
       style="fill:#782d00;fill-opacity:1;fill-rule:nonzero;stroke:none;stroke-width:48.94432449"
       id="path5816"
       inkscape:connector-curvature="0" />
    <path
       style="fill:#ffffff;fill-opacity:1;fill-rule:nonzero;stroke:none;stroke-width:48.93600464"
       d="m 237.34093,116.1515 v 51.30022 c 26.43004,11.64598 56.71983,17.09973 85.50014,17.09973 28.78015,0 59.0697,-5.45389 85.49961,-17.09973 26.43003,11.64598 56.71983,17.09973 85.50013,17.09973 28.78015,0 59.0697,-5.45389 85.49962,-17.09973 26.43002,11.64598 56.71981,17.09973 85.50009,17.09973 28.7803,0 59.0702,-5.45375 85.5002,-17.09973 26.43001,11.64598 56.71981,17.09973 85.50011,17.09973 28.7803,0 59.0701,-5.45375 85.5001,-17.09973 V 116.1515 c -26.43,11.65013 -56.7198,17.11988 -85.5001,17.11988 -28.7803,0 -59.0701,-5.46975 -85.50011,-17.11988 -26.43,11.65013 -56.7199,17.11988 -85.5002,17.11988 -28.78012,0 -59.07015,-5.46988 -85.50009,-17.11988 -26.42992,11.65 -56.71947,17.11988 -85.49962,17.11988 -28.78014,0 -59.0702,-5.46988 -85.50013,-17.11988 -26.42991,11.65 -56.71946,17.11988 -85.49961,17.11988 -28.78031,0 -59.0701,-5.46975 -85.50014,-17.11988 z"
       id="path860"
       inkscape:connector-curvature="0" />
    <circle
       style="opacity:1;fill:#ffffff;fill-opacity:1;fill-rule:nonzero;stroke:none;stroke-width:0.14103791;stroke-linecap:butt;stroke-linejoin:miter;stroke-miterlimit:4;stroke-dasharray:none;stroke-opacity:1;paint-order:stroke fill markers"
       id="path1490"
       cx="297.19092"
       cy="-208.69855"
       r="25.65" />
  </g>
</svg>
