<?xml version="1.0" encoding="UTF-8" standalone="no"?>
<!-- Created with Inkscape (http://www.inkscape.org/) -->

<svg
   xmlns:dc="http://purl.org/dc/elements/1.1/"
   xmlns:cc="http://creativecommons.org/ns#"
   xmlns:rdf="http://www.w3.org/1999/02/22-rdf-syntax-ns#"
   xmlns:svg="http://www.w3.org/2000/svg"
   xmlns="http://www.w3.org/2000/svg"
   xmlns:sodipodi="http://sodipodi.sourceforge.net/DTD/sodipodi-0.dtd"
   xmlns:inkscape="http://www.inkscape.org/namespaces/inkscape"
   width="602mm"
   height="602mm"
   viewBox="0 0 602 602"
   version="1.1"
   id="svg8781"
   inkscape:version="0.92.2 (5c3e80d, 2017-08-06)"
   sodipodi:docname="11.svg">
  <defs
     id="defs8775">
    <pattern
       y="0"
       x="0"
       height="6"
       width="6"
       patternUnits="userSpaceOnUse"
       id="EMFhbasepattern" />
  </defs>
  <sodipodi:namedview
     id="base"
     pagecolor="#ffffff"
     bordercolor="#666666"
     borderopacity="1.0"
     inkscape:pageopacity="0.0"
     inkscape:pageshadow="2"
     inkscape:zoom="0.15175781"
     inkscape:cx="1789.7909"
     inkscape:cy="1060.0662"
     inkscape:document-units="mm"
     inkscape:current-layer="layer1"
     showgrid="false"
     showguides="false"
     inkscape:window-width="1920"
     inkscape:window-height="1057"
     inkscape:window-x="-8"
     inkscape:window-y="-8"
     inkscape:window-maximized="1"
     inkscape:snap-global="false"
     inkscape:measure-start="0,0"
     inkscape:measure-end="0,0" />
  <metadata
     id="metadata8778">
    <rdf:RDF>
      <cc:Work
         rdf:about="">
        <dc:format>image/svg+xml</dc:format>
        <dc:type
           rdf:resource="http://purl.org/dc/dcmitype/StillImage" />
        <dc:title></dc:title>
      </cc:Work>
    </rdf:RDF>
  </metadata>
  <g
     inkscape:label="Layer 1"
     inkscape:groupmode="layer"
     id="layer1"
     transform="translate(0,305)">
    <path
       d="M 18.208834,246.8619 C 16.856104,237.4367 2.0211745,142.5842 2.0211745,141.0281 V 30.19416 c 0,-38.5793 -4.34995,-74.0929 6.59124,-107.767 11.4584095,-35.1367 -21.8478905,-121.77655 0,-151.8196 84.9633595,-116.72832 153.6448555,-53.7184 258.4905555,-63.85886 38.7849,-3.77009 70.8804,-10.74876 110.7885,-10.74876 17.124,0 37.5687,9.05088 54.9725,10.74876 77.5711,-17.92128 118.6489,-11.36374 158.6499,44.4282 6.0873,32.82516 -3.5542,90.45936 -3.5542,122.67086 0,17.3572 -9.6415,38.5806 -11.4584,56.2666 -9.363,90.5997 43.1825,193.13274 17.2168,281.84744 -9.8272,98.0049 -123.9816,73.8109 -215.8213,73.8109 -17.1239,0 -54.5521,10.2273 -72.05,10.2273 -53.897,0 -92.8688,-20.9881 -145.1293,-20.9881 -10.0526,0 -34.2466,10.468 -44.0711,8.6364 -46.177096,0 -92.027986,7.6872 -98.437536,-36.7878"
       style="fill:#782d00;fill-opacity:1;fill-rule:nonzero;stroke:none;stroke-width:46.97400665"
       id="path6282"
       inkscape:connector-curvature="0" />
    <path
       style="fill:#ffffff;fill-opacity:1;fill-rule:nonzero;stroke:none;stroke-width:46.75513077"
       d="m 279.3499,-249.00003 -120.85,324.99979 h 117.5003 v 175.00018 h 49.9995 V 75.99976 h 117.5004 l -120.85,-324.99979 z"
       id="path856"
       inkscape:connector-curvature="0"
       sodipodi:nodetypes="ccccccccc" />
    <path
       inkscape:connector-curvature="0"
       id="path860"
       style="fill:#ffffff;fill-opacity:1;fill-rule:nonzero;stroke:none;stroke-width:46.75513077"
       d="m 135.16,92.7 95,-258.3 H 168.5 L 51,151 h 150 v 100 h 58.35 V 92.7"
       sodipodi:nodetypes="cccccccc" />
    <path
       sodipodi:nodetypes="cccccccc"
       d="m 466.84,92.7 -95,-258.3 H 433.5 L 551,151 H 401 V 251 H 342.65 V 92.7"
       style="fill:#ffffff;fill-opacity:1;fill-rule:nonzero;stroke:none;stroke-width:46.75513077"
       id="path873"
       inkscape:connector-curvature="0" />
  </g>
</svg>
