<?xml version="1.0" encoding="UTF-8" standalone="no"?>
<!-- Created with Inkscape (http://www.inkscape.org/) -->

<svg
   xmlns:dc="http://purl.org/dc/elements/1.1/"
   xmlns:cc="http://creativecommons.org/ns#"
   xmlns:rdf="http://www.w3.org/1999/02/22-rdf-syntax-ns#"
   xmlns:svg="http://www.w3.org/2000/svg"
   xmlns="http://www.w3.org/2000/svg"
   xmlns:sodipodi="http://sodipodi.sourceforge.net/DTD/sodipodi-0.dtd"
   xmlns:inkscape="http://www.inkscape.org/namespaces/inkscape"
   width="602mm"
   height="602mm"
   viewBox="0 0 602 601.99999"
   version="1.1"
   id="svg8781"
   inkscape:version="0.92.2 (5c3e80d, 2017-08-06)"
   sodipodi:docname="11.svg">
  <defs
     id="defs8775">
    <pattern
       y="0"
       x="0"
       height="6"
       width="6"
       patternUnits="userSpaceOnUse"
       id="EMFhbasepattern" />
    <pattern
       y="0"
       x="0"
       height="6"
       width="6"
       patternUnits="userSpaceOnUse"
       id="EMFhbasepattern-2" />
    <pattern
       y="0"
       x="0"
       height="6"
       width="6"
       patternUnits="userSpaceOnUse"
       id="EMFhbasepattern-6" />
    <pattern
       y="0"
       x="0"
       height="6"
       width="6"
       patternUnits="userSpaceOnUse"
       id="EMFhbasepattern-8" />
    <pattern
       y="0"
       x="0"
       height="6"
       width="6"
       patternUnits="userSpaceOnUse"
       id="EMFhbasepattern-0" />
    <pattern
       y="0"
       x="0"
       height="6"
       width="6"
       patternUnits="userSpaceOnUse"
       id="EMFhbasepattern-7" />
    <pattern
       y="0"
       x="0"
       height="6"
       width="6"
       patternUnits="userSpaceOnUse"
       id="EMFhbasepattern-5" />
    <pattern
       y="0"
       x="0"
       height="6"
       width="6"
       patternUnits="userSpaceOnUse"
       id="EMFhbasepattern-82" />
    <pattern
       y="0"
       x="0"
       height="6"
       width="6"
       patternUnits="userSpaceOnUse"
       id="EMFhbasepattern-84" />
  </defs>
  <sodipodi:namedview
     id="base"
     pagecolor="#ffffff"
     bordercolor="#666666"
     borderopacity="1.0"
     inkscape:pageopacity="0.0"
     inkscape:pageshadow="2"
     inkscape:zoom="0.2414452"
     inkscape:cx="678.49613"
     inkscape:cy="1226.6196"
     inkscape:document-units="mm"
     inkscape:current-layer="layer1"
     showgrid="false"
     showguides="true"
     inkscape:window-width="1920"
     inkscape:window-height="1057"
     inkscape:window-x="-8"
     inkscape:window-y="-8"
     inkscape:window-maximized="1"
     inkscape:snap-global="false"
     inkscape:measure-start="0,0"
     inkscape:measure-end="0,0"
     fit-margin-top="0"
     fit-margin-left="0"
     fit-margin-right="0"
     fit-margin-bottom="0" />
  <metadata
     id="metadata8778">
    <rdf:RDF>
      <cc:Work
         rdf:about="">
        <dc:format>image/svg+xml</dc:format>
        <dc:type
           rdf:resource="http://purl.org/dc/dcmitype/StillImage" />
        <dc:title></dc:title>
      </cc:Work>
    </rdf:RDF>
  </metadata>
  <g
     inkscape:label="Layer 1"
     inkscape:groupmode="layer"
     id="layer1"
     transform="translate(-179.2,397.3)">
    <path
       d="m 197.40882,154.5619 c -1.3527,-9.4252 -16.1876,-104.27771 -16.1876,-105.83381 V -62.10588 c 0,-38.57928 -4.35,-74.09289 6.5912,-107.76699 11.4584,-35.1367 -21.8479,-121.77655 0,-151.8196 84.9634,-116.72832 153.6449,-53.7184 258.4906,-63.85886 38.7849,-3.77009 70.88045,-10.74876 110.78855,-10.74876 17.124,0 37.5687,9.05088 54.9725,10.74876 77.57111,-17.92128 118.64891,-11.36374 158.64991,44.4282 6.0873,32.82516 -3.5542,90.45936 -3.5542,122.67086 0,17.3572 -9.6415,38.5806 -11.4584,56.2666 -9.363,90.59969 43.1825,193.13276 17.2168,281.84747 -9.8272,98.0049 -123.98161,73.8109 -215.82131,73.8109 -17.1239,0 -54.55215,10.2273 -72.05005,10.2273 -53.897,0 -92.8688,-20.9881 -145.1293,-20.9881 -10.0526,0 -34.2466,10.468 -44.0711,8.6364 -46.1771,0 -92.028,7.6872 -98.4376,-36.7878"
       style="fill:#782d00;fill-opacity:1;fill-rule:nonzero;stroke:none;stroke-width:46.97400665"
       id="path6282"
       inkscape:connector-curvature="0" />
    <path
       id="path858"
       d="m 383.70378,-22.351521 v 85.866469 l 80.12817,5.719923 v -85.86647 c 2.86626,-20.034611 -22.89356,-45.794556 -40.06408,-45.794556 -22.89357,0 -40.06409,20.034612 -40.06409,40.070573 z"
       style="fill:#ffffff;fill-opacity:1;fill-rule:nonzero;stroke:none;stroke-width:35.77479935"
       inkscape:connector-curvature="0" />
    <path
       id="path860"
       d="m 340.7775,-122.52863 v 17.1733 c 0,31.483919 -17.16916,74.417154 -40.06409,94.453115 -11.45151,17.17195 -14.30831,22.897283 -17.1705,40.070573 V 140.79342 l 57.23459,8.58665 V 155.1 H 212 v -5.71993 l 57.23459,-8.58665 V 29.168358 c 0,-17.17329 -5.71899,-25.7599446 -17.17052,-40.070573 C 229.17051,-30.938176 212,-73.871411 212,-105.35533 v -17.1733 c 2.86626,-20.03461 5.719,-40.07057 8.58525,-60.10517 h 111.60834 c 2.86626,17.17194 8.58526,42.93188 8.58526,60.10517 z"
       style="fill:#ffffff;fill-opacity:1;fill-rule:nonzero;stroke:none;stroke-width:35.77479935"
       inkscape:connector-curvature="0" />
    <path
       id="path862"
       d="m 360.81022,49.20297 c 11.45151,20.035961 28.61797,31.483918 51.51154,37.209251 h 8.58526 11.45151 c 0,0 11.45152,0 11.45152,0 -11.45152,5.719933 -22.89357,8.586655 -37.20323,8.586655 -22.89357,0 -48.64934,-17.1733 -60.09544,-37.209261 -14.30832,-20.034612 -25.75578,-42.933235 -34.34103,-68.69183 5.71899,-5.719923 11.45151,-11.453367 14.30831,-20.035961 8.58525,25.7599445 20.03272,60.106534 34.34103,80.141146 z"
       style="fill:#ffffff;fill-opacity:1;fill-rule:nonzero;stroke:none;stroke-width:35.77479935"
       inkscape:connector-curvature="0" />
    <path
       id="path864"
       d="m 317.88393,-282.81091 c 17.17051,-34.34663 54.37375,-51.51986 91.57563,-51.51986 94.43783,0 131.6397,148.83429 131.6397,223.25146 0,62.967844 -11.45151,125.93569 -42.92628,180.318241 -17.17052,34.346589 -57.23459,51.519879 -91.57562,51.519879 -34.33968,0 -65.81986,-20.03596 -82.98902,-48.658567 -11.45152,-17.17194 -22.89493,-37.207902 -28.61797,-57.243863 0,-2.866722 2.86626,-11.4533672 5.71899,-11.4533672 2.86626,-2.8667221 5.719,-5.7199328 5.719,-8.5866549 8.58526,22.8972831 20.03137,48.6572181 31.47882,68.6931791 17.17052,28.621257 45.78714,40.070573 77.26596,40.070573 20.03272,0 60.09681,-22.898623 65.81986,-42.933234 31.48018,-60.1065349 42.92629,-108.763753 42.92629,-177.456936 0,-54.3812 -22.89357,-111.62506 -48.64934,-160.28228 -17.17051,-25.75989 -42.92629,-37.20788 -77.26732,-37.20788 -20.03136,0 -57.23459,20.03459 -65.81849,40.07055 -14.30968,25.75994 -25.75578,54.38119 -31.48019,83.00381 h -20.03136 c 5.71899,-31.48528 20.03136,-62.96921 37.20187,-91.59046 z"
       style="fill:#ffffff;fill-opacity:1;fill-rule:nonzero;stroke:none;stroke-width:35.77479935"
       inkscape:connector-curvature="0" />
    <path
       id="path866"
       d="m 357.94802,-259.91363 c 5.719,-20.03596 22.89491,-34.34659 42.92628,-40.07057 l 8.58526,-2.86673 h 11.45151 c 2.86627,0 14.30831,2.86673 14.30831,2.86673 -5.719,-2.86673 -20.03272,-5.71995 -22.89357,-5.71995 h -14.30966 c -22.89356,0 -48.64934,17.17197 -57.23459,37.20793 -14.30831,22.89727 -25.75442,51.51988 -31.47883,77.27982 h 20.03272 c 5.71899,-22.89862 14.30831,-48.65722 28.61662,-68.69318 z"
       style="fill:#ffffff;fill-opacity:1;fill-rule:evenodd;stroke:none;stroke-width:35.77479935"
       inkscape:connector-curvature="0" />
    <path
       id="path868"
       d="m 415.18261,-340.05481 c 28.61797,5.71994 48.64934,11.45338 68.68206,34.34666 5.719,5.71989 11.45151,8.58661 14.30831,17.17191 40.06409,65.83051 51.51154,131.66102 51.51154,208.940846 0,48.657218 -20.03272,111.625064 -42.92628,151.695637 -14.30832,20.035961 -40.06409,45.795907 -62.95766,48.658567 h 28.61663 c 8.58525,0 20.03271,-2.86672 25.75577,-8.58664 14.30966,-8.58665 34.34103,-37.209256 42.92628,-51.519884 22.89357,-51.519889 37.20188,-108.763752 37.20188,-166.007616 0,-45.79456 -20.03136,-157.42097 -51.51019,-191.76756 -14.30831,-20.03465 -31.47882,-34.34526 -54.37374,-42.93192 -5.719,-2.86673 -14.30831,-2.86673 -17.17051,-2.86673 -5.71901,0 -8.58527,0 -11.45152,0 z"
       style="fill:#ffffff;fill-opacity:1;fill-rule:nonzero;stroke:none;stroke-width:35.77479935"
       inkscape:connector-curvature="0" />
    <path
       id="path870"
       d="m 463.83195,-345.78006 c 25.75578,-2.86682 51.51154,-5.71994 74.40512,-5.71994 14.30966,0 28.61797,2.86672 42.92628,5.71994 -31.47883,0 -62.95765,2.86672 -94.43648,5.71985 -8.58526,-2.86673 -14.30966,-2.86673 -22.89492,-5.71985 z"
       style="fill:#ffffff;fill-opacity:1;fill-rule:nonzero;stroke:none;stroke-width:35.77479935"
       inkscape:connector-curvature="0" />
    <path
       id="path872"
       d="m 518.2057,-320.02016 c 34.34103,-2.86672 68.68071,-5.71995 103.02173,-8.58667 -8.58526,-5.71994 -17.17052,-8.58666 -28.61662,-14.31061 -31.47883,0 -65.81986,2.86673 -97.29868,8.58667 5.719,2.86672 17.17051,8.58666 22.89357,14.31061 z"
       style="fill:#ffffff;fill-opacity:1;fill-rule:nonzero;stroke:none;stroke-width:35.77479935"
       inkscape:connector-curvature="0" />
    <path
       id="path874"
       d="m 543.96147,-288.53624 -8.58526,-14.31059 c -2.86626,0 -5.719,-2.86672 -5.719,-5.71995 l -8.58525,-5.71994 c 34.34102,-2.86672 71.54425,-5.71994 105.88528,-8.58666 2.86626,2.86672 8.58526,8.58666 11.45152,11.45338 5.719,5.71995 8.58526,11.45337 11.45152,14.31063 0,0 2.86625,2.86672 2.86625,2.86672 -37.20187,0 -71.5429,2.86673 -108.74478,5.71993 z"
       style="fill:#ffffff;fill-opacity:1;fill-rule:nonzero;stroke:none;stroke-width:35.77479935"
       inkscape:connector-curvature="0" />
    <path
       id="path876"
       d="m 678.46203,-259.91363 -2.86626,-2.86673 c -5.719,-8.58664 -11.45152,-17.17329 -20.03272,-25.75993 -37.20188,0 -71.54291,2.86672 -108.74614,5.71992 5.719,8.58664 8.58526,20.03461 14.30966,31.48392 37.20188,-2.86673 77.26596,-5.71993 117.33005,-8.58665 z"
       style="fill:#ffffff;fill-opacity:1;fill-rule:nonzero;stroke:none;stroke-width:35.77479935"
       inkscape:connector-curvature="0" />
    <path
       id="path878"
       d="m 572.57809,-214.11908 c 42.92629,-2.86672 82.99036,-5.71992 125.91666,-5.71992 0,-5.71993 -14.30832,-28.62126 -17.17052,-34.34659 -40.06409,0 -80.12816,2.86672 -120.19225,5.71992 2.86626,11.45337 8.58526,22.89727 11.45151,34.34524 z"
       style="fill:#ffffff;fill-opacity:1;fill-rule:nonzero;stroke:none;stroke-width:35.77479935"
       inkscape:connector-curvature="0" />
    <path
       id="path880"
       d="m 709.94085,-182.6338 -128.7775,8.58664 c 0,-11.45337 -2.86626,-22.89727 -5.719,-34.34524 40.06408,-5.71992 82.99037,-8.58664 123.05445,-8.58664 5.71899,11.45336 8.58526,20.03461 11.45152,31.48392 z"
       style="fill:#ffffff;fill-opacity:1;fill-rule:nonzero;stroke:none;stroke-width:35.77479935"
       inkscape:connector-curvature="0" />
    <path
       id="path882"
       d="m 586.88641,-131.11527 131.63969,-8.58665 c -2.86625,-14.31063 -5.71899,-25.75994 -5.71899,-37.20791 l -131.63971,8.58665 c 2.86627,11.45337 5.71901,25.75994 5.71901,37.20791 z"
       style="fill:#ffffff;fill-opacity:1;fill-rule:nonzero;stroke:none;stroke-width:35.77479935"
       inkscape:connector-curvature="0" />
    <path
       id="path884"
       d="m 586.88641,-85.319368 131.63969,-8.586654 c 2.86627,-14.311978 0,-28.622608 0,-42.933238 l -131.63969,11.45338 c 0,2.86672 0,5.71992 0,8.58664 0,11.45337 0,20.035966 0,31.485283 z"
       style="fill:#ffffff;fill-opacity:1;fill-rule:nonzero;stroke:none;stroke-width:35.77479935"
       inkscape:connector-curvature="0" />
    <path
       id="path886"
       d="m 586.88641,-82.458056 131.63969,-8.586645 c -2.86625,14.311978 -5.71899,28.622607 -8.58525,40.070563 -42.92493,5.719933 -85.85122,8.586655 -125.9153,11.453377 0,-14.310628 2.86626,-28.621256 2.86626,-42.933235 z"
       style="fill:#ffffff;fill-opacity:1;fill-rule:nonzero;stroke:none;stroke-width:35.77479935"
       inkscape:connector-curvature="0" />
    <path
       id="path888"
       d="m 581.16335,-36.66215 c 42.92628,0 85.85257,-5.719922 128.7775,-8.586655 -5.719,11.453378 -8.58526,22.897284 -11.45151,34.34659 -42.92629,5.719933 -82.99037,8.5866552 -123.05446,11.4533773 0,-11.4533773 5.719,-22.8972733 5.719,-37.2079013 z"
       style="fill:#ffffff;fill-opacity:1;fill-rule:nonzero;stroke:none;stroke-width:35.77479935"
       inkscape:connector-curvature="0" />
    <path
       id="path890"
       d="m 678.46203,26.305697 c -37.20189,5.719922 -77.26596,8.586644 -117.33005,11.453367 5.719,-11.453367 8.58526,-22.898624 11.45151,-34.3465901 40.06409,0 82.99037,-2.8667222 123.05446,-8.586645 L 684.18643,17.723102 Z"
       style="fill:#ffffff;fill-opacity:1;fill-rule:nonzero;stroke:none;stroke-width:35.77479935"
       inkscape:connector-curvature="0" />
    <path
       id="path892"
       d="m 558.26978,43.478986 c 40.06408,-2.866722 80.12816,-5.719922 117.33139,-11.453367 -5.719,11.453367 -14.30966,22.898624 -22.89492,31.485279 -37.20187,5.719922 -74.40511,8.586644 -108.74478,11.453367 2.86626,-8.586645 11.45151,-22.897274 14.30831,-31.483928 z"
       style="fill:#ffffff;fill-opacity:1;fill-rule:nonzero;stroke:none;stroke-width:35.77479935"
       inkscape:connector-curvature="0" />
    <path
       id="path894"
       d="m 541.09926,80.686888 c 34.34103,-2.866722 71.54291,-5.719923 105.88394,-11.453367 -8.58526,5.719922 -17.17051,14.310628 -25.75577,20.034611 -31.47883,5.719923 -62.95765,5.719923 -94.43648,8.586645 z"
       style="fill:#ffffff;fill-opacity:1;fill-rule:nonzero;stroke:none;stroke-width:35.77479935"
       inkscape:connector-curvature="0" />
    <path
       id="path896"
       d="m 501.03518,120.75881 c 34.34103,2.86673 80.12817,-5.71992 111.60699,-25.759934 -31.47882,2.866722 -62.95765,5.719924 -91.57562,8.586644 -5.719,5.71992 -14.30831,11.45337 -20.03137,17.17329 z"
       style="fill:#ffffff;fill-opacity:1;fill-rule:nonzero;stroke:none;stroke-width:35.77479935"
       inkscape:connector-curvature="0" />
    <path
       id="path898"
       d="m 423.76787,-53.835449 c 17.17052,2.866722 31.47883,20.034611 31.47883,37.207901 V 66.37626 l -28.61662,-2.866723 v 0 l 2.86625,-2.866722 c 2.86626,-5.719923 2.86626,-11.453367 2.86626,-14.310628 0,-2.866722 -2.86626,-8.586645 -2.86626,-11.453367 0,0 -5.71899,-2.866722 -5.71899,-2.866722 l -2.86627,2.866722 h -2.86626 c -2.86626,5.719923 -2.86626,11.453367 -2.86626,14.310628 0,2.866722 0,8.586645 2.86626,11.453367 h 2.86626 -17.17051 v -83.003807 c 0,-11.453368 8.58525,-20.035962 20.03137,-20.035962 8.58525,0 17.17051,2.866722 22.89491,11.453377 -2.86626,-2.866722 -2.86626,-5.719933 -2.86626,-5.719933 l -5.71899,-5.719923 c 0,0 0,0 0,0 -5.719,-5.719922 -8.58526,-5.719922 -14.30966,-5.719922 -2.86626,-2.866722 -11.45153,0 -14.30831,2.866722 0,0 -8.58527,8.586655 -8.58527,8.586655 -2.86626,2.866722 -5.719,11.453367 -5.719,14.310628 V 60.664458 H 392.2931 V -22.33935 c 0,-17.1733 14.30831,-31.483928 31.47883,-31.483928 z"
       style="fill:#782d00;fill-opacity:1;fill-rule:nonzero;stroke:none;stroke-width:35.77479935"
       inkscape:connector-curvature="0" />
  </g>
</svg>
