<?xml version="1.0" encoding="UTF-8" standalone="no"?>
<!-- Created with Inkscape (http://www.inkscape.org/) -->

<svg
   xmlns:dc="http://purl.org/dc/elements/1.1/"
   xmlns:cc="http://creativecommons.org/ns#"
   xmlns:rdf="http://www.w3.org/1999/02/22-rdf-syntax-ns#"
   xmlns:svg="http://www.w3.org/2000/svg"
   xmlns="http://www.w3.org/2000/svg"
   xmlns:sodipodi="http://sodipodi.sourceforge.net/DTD/sodipodi-0.dtd"
   xmlns:inkscape="http://www.inkscape.org/namespaces/inkscape"
   width="978mm"
   height="602mm"
   viewBox="0 0 978 602.00001"
   version="1.1"
   id="svg8781"
   inkscape:version="0.92.2 (5c3e80d, 2017-08-06)"
   sodipodi:docname="22.svg">
  <defs
     id="defs8775">
    <pattern
       y="0"
       x="0"
       height="6"
       width="6"
       patternUnits="userSpaceOnUse"
       id="EMFhbasepattern" />
    <pattern
       y="0"
       x="0"
       height="6"
       width="6"
       patternUnits="userSpaceOnUse"
       id="EMFhbasepattern-3" />
    <pattern
       y="0"
       x="0"
       height="6"
       width="6"
       patternUnits="userSpaceOnUse"
       id="EMFhbasepattern-2" />
  </defs>
  <sodipodi:namedview
     id="base"
     pagecolor="#ffffff"
     bordercolor="#666666"
     borderopacity="1.0"
     inkscape:pageopacity="0.0"
     inkscape:pageshadow="2"
     inkscape:zoom="0.18958994"
     inkscape:cx="2315.6639"
     inkscape:cy="886.14281"
     inkscape:document-units="mm"
     inkscape:current-layer="layer1"
     showgrid="false"
     showguides="true"
     inkscape:window-width="1920"
     inkscape:window-height="1057"
     inkscape:window-x="-8"
     inkscape:window-y="-8"
     inkscape:window-maximized="1"
     inkscape:snap-global="true"
     fit-margin-top="0"
     fit-margin-left="0"
     fit-margin-right="0"
     fit-margin-bottom="0" />
  <metadata
     id="metadata8778">
    <rdf:RDF>
      <cc:Work
         rdf:about="">
        <dc:format>image/svg+xml</dc:format>
        <dc:type
           rdf:resource="http://purl.org/dc/dcmitype/StillImage" />
        <dc:title></dc:title>
      </cc:Work>
    </rdf:RDF>
  </metadata>
  <g
     inkscape:label="Layer 1"
     inkscape:groupmode="layer"
     id="layer1"
     transform="translate(-84.340927,375.44855)">
    <path
       d="m 223.30195,214.60415 -90.8552,-45.4375 c -4.3649,-8.6365 -45.427597,-89.2918 -45.427597,-90.875 v -112.7546 c 0,-39.2477 -6.1462,-187.843 5.0856,-222.102 24.656897,-75.1852 -4.9904,-111.2177 153.936797,-106.9484 34.2026,0.952 78.4785,3.3593 113.5445,0 17.8934,-1.7273 38.8558,-10.9351 56.4133,-10.9351 h 56.3643 c 12.1428,0 125.9702,14.7786 130.4316,20.1999 14.343,-17.3696 105.1016,-6.814 130.3827,-9.2621 17.8444,-1.7273 38.8558,-10.9351 56.4119,-10.9351 h 56.3657 c 17.8444,0 39.0951,9.167 57.2278,10.9351 58.763,5.6579 96.5635,0.544 135.46695,57.1926 7.1524,33.1071 22.6907,79.7918 22.6907,112.8022 0,17.8497 -9.2058,39.105 -10.9327,57.2416 -8.825,91.5944 16.501,193.8411 -11.7485,282.7494 -12.4284,52.1549 -36.2654,72.0189 -135.46695,79.0722 h -57.2278 c -17.5575,0 -38.5199,-9.1669 -56.3657,-10.935 -61.5926,-5.9435 -130.622,0 -192.696,0 l -6.7173,-3.3594 c -1.8221,4.2163 -55.2126,14.2985 -61.4486,14.2985 h -56.3656 c -17.5562,0 -38.5199,-9.1669 -56.3644,-10.935 -61.5451,-5.9436 -130.622,0 -192.696,0"
       style="fill:#782d00;fill-opacity:1;fill-rule:nonzero;stroke:none;stroke-width:47.97531128"
       id="path6315"
       inkscape:connector-curvature="0" />
    <path
       d="m 927.34093,-35.968913 c 0,-28.589741 -25.53137,-59.796162 -55.5686,-59.796162 -37.15927,0 -63.27293,26.118667 -63.27293,63.236987 0,29.9949114 31.29657,55.580637 59.83276,55.580637 31.92692,0 59.00877,-27.1845691 59.00877,-59.021462"
       style="fill:#ffffff;fill-opacity:1;fill-rule:nonzero;stroke:none;stroke-width:48.45228195"
       id="path6978"
       inkscape:connector-curvature="0" />
    <path
       d="m 760.63236,-11.159267 c 0,-15.893723 -13.70571,-34.210445 -30.76371,-34.210445 -2.51318,0 -15.16419,1.703244 -17.10194,2.609811 -12.11267,5.329502 -20.54211,21.418267 -20.54211,34.16236 l 1.68919,5.7141065 c 4.75168,15.7000415 16.42352,25.9249945 33.38126,25.9249945 18.70048,0 33.33182,-15.7975723 33.33182,-34.211815"
       style="fill:#ffffff;fill-opacity:1;fill-rule:nonzero;stroke:none;stroke-width:48.45228195"
       id="path6980"
       inkscape:connector-curvature="0" />
    <path
       d="m 446.88666,-274.4736 c 7.60819,2.85704 12.84053,8.62612 12.84053,17.10524 0,5.81017 -5.90526,10.5628 -10.27242,13.66709 -2.22477,-0.96149 -58.76706,15.36078 -59.83276,15.36078 -10.65696,0 -40.69694,-16.57227 -49.61115,-14.48854 l -0.82399,2.56859 c 2.22477,0.6868 4.65555,2.32136 6.0014,4.2169 v 3.43396 c 0,0.68679 -0.68665,1.89553 -0.82398,2.56859 -1.37332,0.27473 -2.95265,0.82416 -4.31223,0.82416 -0.96132,0 -2.37584,-0.6868 -3.3921,-0.82416 -1.68918,-4.46413 -42.10047,-15.41021 -51.30582,-15.41021 -2.08745,0 -7.12753,3.73615 -8.52831,5.19214 -5.38342,11.1947 1.55185,23.55007 -18.798,26.50602 -5.32848,0.68679 -23.30247,3.92845 -27.37299,3.39275 -3.48823,0.68679 -9.9291,-0.41208 -12.7856,-2.56861 -0.96132,-0.68679 -7.31979,-9.10684 -7.70431,-10.21945 l -0.824,-6.88164 c 0,-2.47245 0.96133,-7.3212 2.5681,-9.39531 1.74412,-2.37629 3.73543,-4.88994 6.00141,-6.82669 v -4.25812 l -1.74411,-2.56864 c -1.23599,-1.74445 -3.3921,-4.12072 -4.2573,-6.01625 -0.96132,-1.93673 -2.5681,-11.38696 -2.5681,-13.66715 l 1.68918,-6.82668 c 5.9602,-4.50538 3.33717,-14.87733 6.88033,-21.37023 l 4.25729,-2.56858 c 12.59334,3.58508 17.68422,-16.18351 25.62888,-17.97744 5.32847,0.82412 8.87164,1.74443 14.5352,1.74443 11.96161,0 15.79318,-15.40878 33.33183,-15.40878 5.80914,0 12.35987,2.56856 18.79662,2.56856 5.42461,0 11.09642,-3.44768 17.10331,-3.44768 5.19115,0 13.0328,16.03932 41.03478,14.53657 l 3.44703,-1.68945 3.3921,-1.68954 4.25728,0.82412 2.56811,1.74444 3.4333,1.68955 c 4.50448,1.0989 9.29737,2.03291 13.66452,3.39279 4.36716,1.40096 8.33605,3.92844 12.84054,5.13712 2.2797,2.51367 4.46328,5.57679 6.0014,8.57122 v 5.13713 c 0,1.0989 -0.68666,3.04942 -0.82399,4.25811 -0.13734,0.96151 -0.96133,4.3131 -0.82399,5.13723 0.13733,2.1291 1.68918,5.08223 3.14489,6.5383 l 2.8565,2.85704 c 4.94395,3.1455 15.21226,1.99161 20.49268,5.13713"
       style="fill:#ffffff;fill-opacity:1;fill-rule:nonzero;stroke:none;stroke-width:48.45228195"
       id="path6982"
       inkscape:connector-curvature="0" />
    <path
       d="m 358.85692,-179.5948 -3.44703,-3.39275 c -1.40079,3.43396 -4.84782,7.07395 -7.70432,9.39531 -1.64798,-17.4445 9.00897,-40.55777 19.67005,-53.88288 l -9.3935,-4.25812 -15.35783,23.93742 h -5.13621 c -3.9689,0 -7.80045,-2.08784 -10.27243,-5.13719 l -2.56811,-3.4477 c -9.98403,-6.34594 -19.86369,-12.98035 -28.19699,-21.36881 h -11.13761 c 6.2486,25.63378 46.17099,26.60217 46.17099,68.42087 v 11.09855 c 0,7.5135 -3.48823,15.79757 -3.3921,23.93879 -0.13733,2.70596 -2.12865,9.931 -3.4333,11.9639 -1.59305,2.51366 -8.43218,7.84316 -11.09642,9.45026 l 2.56811,3.39275 10.21749,-8.52996 1.74412,2.56859 17.92456,-9.39529 c -0.27466,-2.184 -0.824,-4.7526 -0.824,-6.88165 v -11.9639 c 0,-10.02714 7.55326,-27.96064 13.66453,-35.90682"
       style="fill:#ffffff;fill-opacity:1;fill-rule:nonzero;stroke:none;stroke-width:48.45228195"
       id="path6984"
       inkscape:connector-curvature="0" />
    <path
       d="m 388.74858,-76.139323 c 9.00898,-9.450254 19.03969,-18.897748 30.81316,-24.761577 85.60721,-54.80456 229.35113,-90.8089 328.23284,-106.02407 l 179.54635,-26.50602 v -17.10522 l -322.27264,46.17985 c -84.54152,12.84299 -208.56733,48.9421 -278.71921,98.31964 -9.6407,5.08225 -19.57391,14.827818 -25.62888,23.937423 -10.08016,13.85807 -17.10194,38.377884 -17.10194,55.579258 0,22.7753634 9.54457,49.76626 23.93283,67.500576 39.09702,51.073911 82.11899,95.024423 131.68069,135.970913 H 925.64625 C 743.53043,143.75884 584.13891,81.00673 426.39262,-15.422866 414.37609,-22.744065 367.04465,-58.355552 388.74858,-76.139323"
       style="fill:#ffffff;fill-opacity:1;fill-rule:nonzero;stroke:none;stroke-width:48.45228195"
       id="path6986"
       inkscape:connector-curvature="0" />
    <path
       d="m 819.59444,-165.93041 -13.66452,56.45287 h -90.59785 v -27.37824 h -11.13762 v 27.37824 l -17.92593,0.82415 c -1.55185,0.54942 -3.73543,0.96151 -5.13622,1.70324 -2.5681,1.40105 -5.80913,4.9449 -6.82539,7.705794 v 5.961344 l 8.52831,57.275643 h 11.09641 c 8.04765,-9.738699 19.81563,-16.183548 32.50921,-16.183548 11.67321,0 25.28968,5.961344 32.50784,15.360773 V -36.006 h 42.73082 c 3.96889,-39.346266 27.95391,-66.67643 69.23175,-66.67643 12.93667,0 35.46322,9.546394 43.60288,19.673817 v -99.191867 h -75.23865 c -8.52832,0 -19.08913,7.1701 -19.67005,16.23299"
       style="fill:#ffffff;fill-opacity:1;fill-rule:nonzero;stroke:none;stroke-width:48.45228195"
       id="path6988"
       inkscape:connector-curvature="0" />
    <path
       d="m 897.4012,-35.968913 c 0,-16.959617 -12.88173,-29.897391 -29.89303,-29.897391 l -5.13621,1.098869 c -2.95264,0.686787 -7.64939,1.689506 -10.27243,3.145502 -8.62444,4.848745 -13.70572,17.929367 -13.70572,27.378242 0,10.906241 9.79176,22.338563 19.67004,25.6337911 l 5.13622,1.6895052 h 7.70431 c 14.77692,0 26.50094,-15.2632413 26.50094,-29.0746163"
       style="fill:#782d00;fill-opacity:1;fill-rule:nonzero;stroke:none;stroke-width:48.45228195"
       id="path6990"
       inkscape:connector-curvature="0" />
    <path
       d="m 745.22648,-11.159267 c -1.37332,-7.225048 -4.35343,-12.842993 -11.09642,-16.233002 l -3.44703,-1.689506 h -5.96021 c -7.31979,0 -16.22988,8.914554 -16.22988,16.233003 0,10.7551452 7.80045,19.673818 18.79799,19.673818 6.44087,0 12.64827,-3.4889003 15.35783,-9.3953092 1.23598,-2.5685946 1.59305,-5.8102477 2.5681,-8.5848838"
       style="fill:#782d00;fill-opacity:1;fill-rule:nonzero;stroke:none;stroke-width:48.45228195"
       id="path6992"
       inkscape:connector-curvature="0" />
    <path
       d="m 830.73618,-163.3618 1.68919,-4.25811 c 0.82398,-0.68679 2.51317,-2.12905 3.43329,-2.56859 l 3.39209,-0.82416 h 53.00188 v 61.54061 h -74.36659 l 12.84053,-53.88426"
       style="fill:#782d00;fill-opacity:1;fill-rule:nonzero;stroke:none;stroke-width:48.45228195"
       id="path6994"
       inkscape:connector-curvature="0" />
  </g>
</svg>
