<?xml version="1.0" encoding="UTF-8" standalone="no"?>
<!-- Created with Inkscape (http://www.inkscape.org/) -->

<svg
   xmlns:dc="http://purl.org/dc/elements/1.1/"
   xmlns:cc="http://creativecommons.org/ns#"
   xmlns:rdf="http://www.w3.org/1999/02/22-rdf-syntax-ns#"
   xmlns:svg="http://www.w3.org/2000/svg"
   xmlns="http://www.w3.org/2000/svg"
   xmlns:sodipodi="http://sodipodi.sourceforge.net/DTD/sodipodi-0.dtd"
   xmlns:inkscape="http://www.inkscape.org/namespaces/inkscape"
   width="602mm"
   height="602mm"
   viewBox="0 0 602 601.99999"
   version="1.1"
   id="svg8781"
   inkscape:version="0.92.2 (5c3e80d, 2017-08-06)"
   sodipodi:docname="11.svg">
  <defs
     id="defs8775">
    <pattern
       y="0"
       x="0"
       height="6"
       width="6"
       patternUnits="userSpaceOnUse"
       id="EMFhbasepattern" />
    <pattern
       y="0"
       x="0"
       height="6"
       width="6"
       patternUnits="userSpaceOnUse"
       id="EMFhbasepattern-2" />
    <pattern
       y="0"
       x="0"
       height="6"
       width="6"
       patternUnits="userSpaceOnUse"
       id="EMFhbasepattern-6" />
    <pattern
       y="0"
       x="0"
       height="6"
       width="6"
       patternUnits="userSpaceOnUse"
       id="EMFhbasepattern-8" />
    <pattern
       y="0"
       x="0"
       height="6"
       width="6"
       patternUnits="userSpaceOnUse"
       id="EMFhbasepattern-0" />
    <pattern
       y="0"
       x="0"
       height="6"
       width="6"
       patternUnits="userSpaceOnUse"
       id="EMFhbasepattern-7" />
    <pattern
       y="0"
       x="0"
       height="6"
       width="6"
       patternUnits="userSpaceOnUse"
       id="EMFhbasepattern-5" />
    <pattern
       y="0"
       x="0"
       height="6"
       width="6"
       patternUnits="userSpaceOnUse"
       id="EMFhbasepattern-82" />
    <pattern
       y="0"
       x="0"
       height="6"
       width="6"
       patternUnits="userSpaceOnUse"
       id="EMFhbasepattern-84" />
    <pattern
       y="0"
       x="0"
       height="6"
       width="6"
       patternUnits="userSpaceOnUse"
       id="EMFhbasepattern-86" />
    <pattern
       y="0"
       x="0"
       height="6"
       width="6"
       patternUnits="userSpaceOnUse"
       id="EMFhbasepattern-23" />
    <pattern
       y="0"
       x="0"
       height="6"
       width="6"
       patternUnits="userSpaceOnUse"
       id="EMFhbasepattern-06" />
    <pattern
       y="0"
       x="0"
       height="6"
       width="6"
       patternUnits="userSpaceOnUse"
       id="EMFhbasepattern-4" />
  </defs>
  <sodipodi:namedview
     id="base"
     pagecolor="#ffffff"
     bordercolor="#666666"
     borderopacity="1.0"
     inkscape:pageopacity="0.0"
     inkscape:pageshadow="2"
     inkscape:zoom="0.2414452"
     inkscape:cx="1792.1613"
     inkscape:cy="1126.0474"
     inkscape:document-units="mm"
     inkscape:current-layer="layer1"
     showgrid="false"
     showguides="true"
     inkscape:window-width="1920"
     inkscape:window-height="1057"
     inkscape:window-x="-8"
     inkscape:window-y="-8"
     inkscape:window-maximized="1"
     inkscape:snap-global="false"
     inkscape:measure-start="0,0"
     inkscape:measure-end="0,0"
     fit-margin-top="0"
     fit-margin-left="0"
     fit-margin-right="0"
     fit-margin-bottom="0" />
  <metadata
     id="metadata8778">
    <rdf:RDF>
      <cc:Work
         rdf:about="">
        <dc:format>image/svg+xml</dc:format>
        <dc:type
           rdf:resource="http://purl.org/dc/dcmitype/StillImage" />
        <dc:title></dc:title>
      </cc:Work>
    </rdf:RDF>
  </metadata>
  <g
     inkscape:label="Layer 1"
     inkscape:groupmode="layer"
     id="layer1"
     transform="translate(-179.2,397.3)">
    <path
       d="m 197.40882,154.5619 c -1.3527,-9.4252 -16.1876,-104.2777 -16.1876,-105.8338 v -110.834 c 0,-38.5793 -4.35,-74.0929 6.5912,-107.767 11.4584,-35.1367 -21.8479,-121.7766 0,-151.8196 84.9634,-116.72832 153.6449,-53.7184 258.4906,-63.85886 38.7849,-3.77009 70.8804,-10.74876 110.7885,-10.74876 17.124,0 37.5687,9.05088 54.9725,10.74876 77.5711,-17.92128 118.64894,-11.36374 158.64994,44.4282 6.0873,32.82516 -3.5542,90.45936 -3.5542,122.67086 0,17.3572 -9.6415,38.5806 -11.4584,56.2666 -9.363,90.5997 43.1825,193.1328 17.2168,281.8475 -9.8272,98.0049 -123.98164,73.8109 -215.82134,73.8109 -17.1239,0 -54.5521,10.2273 -72.05,10.2273 -53.897,0 -92.8688,-20.9881 -145.1293,-20.9881 -10.0526,0 -34.2466,10.468 -44.0711,8.6364 -46.1771,0 -92.028,7.6872 -98.4376,-36.7878"
       style="fill:#782d00;fill-opacity:1;fill-rule:nonzero;stroke:none;stroke-width:46.97400665"
       id="path6282"
       inkscape:connector-curvature="0" />
    <path
       id="path840"
       d="m 460.9671,-116.33443 -5.71902,-8.57108 c 0,0 0,0 -2.86627,-2.86152 l -2.86625,-2.86153 c -5.71902,-2.86152 -11.45155,-5.70955 -14.30834,-5.70955 -14.30834,0 -31.47889,-5.70955 -40.06417,-19.99962 C 380.83471,-187.76454 323.6,-293.47356 323.6,-322.0429 c 0,-11.4326 20.0314,-22.8571 31.47889,-22.8571 8.58528,0 20.03141,5.70955 22.89362,14.28602 l 111.60721,182.84733 17.17055,-31.42683 c 2.86625,-2.86152 8.58526,-19.99827 8.58526,-22.85574 v -11.4326 c 0,-5.70954 -2.86626,-11.4326 -2.86626,-19.99828 0,-22.85574 8.58528,-28.57068 20.03142,-45.71283 l 48.64942,-59.99616 5.71902,-5.70956 h 2.86627 l 5.719,2.86153 2.86628,2.86151 v 2.86153 2.86153 l -54.37251,85.71073 v 2.86152 c 0,0 0,2.86154 0,2.86154 2.86627,2.86152 5.71901,5.70955 8.58527,5.70955 h 2.86626 l 2.86627,-2.86153 54.3725,-85.71075 2.86627,-2.86151 c 0,0 2.86627,0 2.86627,0 h 5.71901 c 0,0 2.86626,5.70954 2.86626,8.57107 v 2.86152 l -54.37387,82.85327 v 2.86152 c 0,2.86152 0,5.70955 0,5.70955 l 2.86627,2.86153 c 2.86628,0 5.71901,2.86152 5.71901,2.86152 l 2.86629,-2.86152 2.86625,-2.86153 54.37385,-82.85326 2.86626,-2.86152 c 0,0 2.86628,-2.86153 5.71902,-2.86153 l 2.86627,2.86153 2.86625,2.86152 c 0,0 0,5.70954 0,8.57107 l -40.06415,85.70939 c -2.86627,2.86153 -5.71901,8.57107 -5.71901,11.43259 -8.58527,5.70956 -20.03277,14.28468 -31.48024,17.14216 -14.30835,2.86152 -25.75447,11.43259 -34.33975,22.85574 l -28.61804,54.28256 137.36305,228.56152 2.86626,8.57109 v 5.70953 8.57109 C 652.73374,146.52893 641.29166,155.1 638.42945,155.1 c -5.719,0 -20.0314,-5.70956 -20.0314,-11.43259 L 489.61893,-67.750616 363.70336,143.66741 c -5.719,5.70954 -11.45153,11.43259 -20.03274,11.43259 -11.45155,0 -20.03141,-11.43259 -20.03141,-25.71321 0,-8.57109 128.77776,-214.27415 143.0861,-237.13125 z"
       style="fill:#ffffff;fill-opacity:1;fill-rule:nonzero;stroke:none;stroke-width:35.74237442"
       inkscape:connector-curvature="0" />
  </g>
</svg>
