<?xml version="1.0" encoding="UTF-8" standalone="no"?>
<!-- Created with Inkscape (http://www.inkscape.org/) -->

<svg
   xmlns:dc="http://purl.org/dc/elements/1.1/"
   xmlns:cc="http://creativecommons.org/ns#"
   xmlns:rdf="http://www.w3.org/1999/02/22-rdf-syntax-ns#"
   xmlns:svg="http://www.w3.org/2000/svg"
   xmlns="http://www.w3.org/2000/svg"
   xmlns:sodipodi="http://sodipodi.sourceforge.net/DTD/sodipodi-0.dtd"
   xmlns:inkscape="http://www.inkscape.org/namespaces/inkscape"
   width="978mm"
   height="602mm"
   viewBox="0 0 978 602.00001"
   version="1.1"
   id="svg8781"
   inkscape:version="0.92.2 (5c3e80d, 2017-08-06)"
   sodipodi:docname="33.svg">
  <defs
     id="defs8775" />
  <sodipodi:namedview
     id="base"
     pagecolor="#ffffff"
     bordercolor="#666666"
     borderopacity="1.0"
     inkscape:pageopacity="0.0"
     inkscape:pageshadow="2"
     inkscape:zoom="0.18958994"
     inkscape:cx="914.12711"
     inkscape:cy="715.92034"
     inkscape:document-units="mm"
     inkscape:current-layer="layer1"
     showgrid="false"
     showguides="true"
     inkscape:window-width="1920"
     inkscape:window-height="1057"
     inkscape:window-x="-8"
     inkscape:window-y="-8"
     inkscape:window-maximized="1"
     inkscape:snap-global="true"
     fit-margin-top="0"
     fit-margin-left="0"
     fit-margin-right="0"
     fit-margin-bottom="0" />
  <metadata
     id="metadata8778">
    <rdf:RDF>
      <cc:Work
         rdf:about="">
        <dc:format>image/svg+xml</dc:format>
        <dc:type
           rdf:resource="http://purl.org/dc/dcmitype/StillImage" />
        <dc:title></dc:title>
      </cc:Work>
    </rdf:RDF>
  </metadata>
  <g
     inkscape:label="Layer 1"
     inkscape:groupmode="layer"
     id="layer1"
     transform="translate(-84.340927,375.44855)">
    <path
       d="M 223.28997,214.60641 120.87312,193.44798 C 116.50819,184.81217 87.006137,79.83876 87.006137,78.25575 V -34.48989 c 0,-39.24468 -6.13267,-187.78067 5.14001,-222.08457 24.609523,-75.13018 -5.03123,-111.20888 153.889073,-106.93988 34.25181,0.9519 78.52802,3.3999 113.59434,0 17.84456,-1.7272 38.80848,-10.9342 56.36476,-10.9342 h 56.36611 c 12.18375,0 126.01877,14.825 130.43131,20.1983 14.34309,-17.3193 105.10379,-6.8135 130.43129,-9.2614 17.84592,-1.7272 38.80847,-10.9342 56.36611,-10.9342 h 56.36476 c 17.84592,0 39.09675,9.207 57.22959,10.9342 58.76343,5.6575 96.5643,0.544 135.46801,57.23706 7.1525,33.05544 22.6894,79.73644 22.6894,112.74428 0,17.84826 -9.165,39.10188 -10.9326,57.23709 -8.7843,91.63482 16.5024,193.82573 -11.7487,282.72701 -12.4285,52.19839 -36.2656,72.06076 -135.46795,79.11357 h -57.22823 c -17.55764,0 -38.5202,-9.207 -56.36612,-10.93416 -61.54557,-5.94308 -130.62302,0 -192.69754,0 l -6.71738,-3.35913 c -1.82212,4.17511 -55.21302,14.29737 -61.40143,14.29737 h -56.41372 c -17.55764,0 -38.52019,-9.207 -56.36475,-10.93416 -61.54693,-5.94308 -130.62439,0 -192.69756,0"
       style="fill:#782d00;fill-opacity:1;fill-rule:nonzero;stroke:none;stroke-width:47.97359467"
       id="path5950"
       inkscape:connector-curvature="0" />
    <path
       d="m 510.14093,-219.18538 c -14.58462,10.09119 -37.62401,19.62878 -55.57064,19.62878 h -14.53416 c -20.02354,0 -39.20483,-9.78286 -55.56925,-20.51877 -8.70283,7.56839 -26.99421,14.58598 -38.46486,14.58598 -7.02113,0 -14.97982,-1.2614 -21.35769,-4.30278 0.56056,3.81224 -2.32637,14.88313 -4.30238,17.94832 -2.91495,4.55505 -13.2995,11.12835 -18.78607,11.12835 -2.42446,0 -5.28337,-0.56062 -7.70784,-0.84093 h -68.42449 c -0.14014,-0.56063 -2.52256,-6.6714 -2.52256,-6.86762 v -6.82557 l 1.12113,-4.54104 c 2.36842,-9.5446 8.15629,-15.27836 17.64953,-17.40452 l 5.14323,-1.12124 c 2.0741,0 7.37148,0.70078 9.38953,1.72391 0.56057,-5.43803 2.52257,-12.36172 5.14323,-17.10738 4.79286,-8.6476 17.20527,-17.94832 27.34037,-17.94832 h 8.54868 c 0.28028,0 2.97102,0.70077 3.40546,0.84093 14.33796,-16.16834 42.66633,-27.34297 64.12212,-27.34297 11.46364,0 27.93318,2.27054 38.51392,6.82561 9.0532,-9.48852 27.48752,-21.35969 41.03368,-21.35969 h 11.07125 c 10.23039,0 25.2144,4.98955 33.37209,11.07222 21.10964,-16.01968 46.275,-23.93153 72.67501,-23.93153 10.5247,0 40.09473,6.22297 48.74711,11.96927 9.19334,-11.5207 31.69039,-19.63013 46.12646,-19.63013 14.88171,0 31.64133,6.62934 42.76443,16.21737 l 2.56461,-1.72388 c 18.63892,-15.72411 39.70091,-27.343 64.96297,-27.343 24.62161,0 47.65961,8.35332 66.69375,23.98063 19.57788,-21.85447 56.01489,-33.37517 84.64036,-33.37517 5.29738,0.98103 11.16935,1.12122 16.26492,2.56482 25.95577,6.96572 44.44615,32.38574 44.44615,58.98584 0,28.0353 -27.73557,58.98725 -56.4101,58.98725 -15.27691,0 -30.05913,-3.55995 -41.92498,-13.69319 -15.72117,9.48852 -46.5707,18.83689 -64.96298,18.83689 -22.5433,0 -43.70339,-5.0456 -64.12213,-14.53552 -12.2064,18.9364 -40.88653,29.07246 -62.39137,29.07246 -21.1601,0 -42.96343,-11.56284 -57.3,-26.50201 -14.33797,8.35326 -39.10672,15.37786 -55.57064,15.37786 h -16.26493 c -12.809,0 -37.7221,-7.41423 -49.58795,-12.81021"
       style="fill:#ffffff;fill-opacity:1;fill-rule:nonzero;stroke:none;stroke-width:49.44142532"
       id="path6016"
       inkscape:connector-curvature="0" />
    <path
       d="M 570.852,-130.28614 H 293.84384 v -34.21477 h -68.4231 v 34.21477 H 174.15247 V 6.5252718 h 667.725 L 841.03662,-130.28614 H 667.45491 c -5.92802,-18.34355 -28.57502,-34.21477 -47.85721,-34.21477 -23.038,0 -38.36396,15.17884 -48.7457,34.21477"
       style="fill:#ffffff;fill-opacity:1;fill-rule:nonzero;stroke:none;stroke-width:49.44142532"
       id="path6018"
       inkscape:connector-curvature="0" />
    <path
       d="M 139.94093,160.44266 V 143.33529 L 174.15247,83.459444 V 23.632658 H 858.14238 V -198.66661 h 136.79855 v 34.1657 H 892.30489 V -61.855208 H 994.94093 V 92.062194 H 894.03564 c 1.62566,46.774096 -40.88653,85.489256 -86.37113,85.489256 -48.79615,0 -83.60051,-37.87423 -86.32067,-85.489256 h -58.13945 c 1.26129,46.476966 -40.98603,85.489256 -86.37112,85.489256 -45.6808,0 -88.84184,-38.02279 -87.21057,-85.489256 h -58.98031 c 1.42944,45.735546 -40.78703,85.489256 -85.53028,85.489256 -48.79616,0 -85.28221,-37.5785 -88.05003,-85.489256 H 209.20487 L 157.0467,177.55145 h -17.10577 v -34.21616 17.10737"
       style="fill:#ffffff;fill-opacity:1;fill-rule:evenodd;stroke:none;stroke-width:49.44142532"
       id="path6020"
       inkscape:connector-curvature="0" />
  </g>
</svg>
