<?xml version="1.0" encoding="UTF-8" standalone="no"?>
<!-- Created with Inkscape (http://www.inkscape.org/) -->

<svg
   xmlns:dc="http://purl.org/dc/elements/1.1/"
   xmlns:cc="http://creativecommons.org/ns#"
   xmlns:rdf="http://www.w3.org/1999/02/22-rdf-syntax-ns#"
   xmlns:svg="http://www.w3.org/2000/svg"
   xmlns="http://www.w3.org/2000/svg"
   xmlns:sodipodi="http://sodipodi.sourceforge.net/DTD/sodipodi-0.dtd"
   xmlns:inkscape="http://www.inkscape.org/namespaces/inkscape"
   width="978mm"
   height="602mm"
   viewBox="0 0 978 602.00001"
   version="1.1"
   id="svg8781"
   inkscape:version="0.92.2 (5c3e80d, 2017-08-06)"
   sodipodi:docname="22.svg">
  <defs
     id="defs8775" />
  <sodipodi:namedview
     id="base"
     pagecolor="#ffffff"
     bordercolor="#666666"
     borderopacity="1.0"
     inkscape:pageopacity="0.0"
     inkscape:pageshadow="2"
     inkscape:zoom="0.18958994"
     inkscape:cx="2233.5556"
     inkscape:cy="1127.1072"
     inkscape:document-units="mm"
     inkscape:current-layer="layer1"
     showgrid="false"
     showguides="true"
     inkscape:window-width="1920"
     inkscape:window-height="1057"
     inkscape:window-x="-8"
     inkscape:window-y="-8"
     inkscape:window-maximized="1"
     inkscape:snap-global="true"
     fit-margin-top="0"
     fit-margin-left="0"
     fit-margin-right="0"
     fit-margin-bottom="0" />
  <metadata
     id="metadata8778">
    <rdf:RDF>
      <cc:Work
         rdf:about="">
        <dc:format>image/svg+xml</dc:format>
        <dc:type
           rdf:resource="http://purl.org/dc/dcmitype/StillImage" />
        <dc:title></dc:title>
      </cc:Work>
    </rdf:RDF>
  </metadata>
  <g
     inkscape:label="Layer 1"
     inkscape:groupmode="layer"
     id="layer1"
     transform="translate(-84.340927,375.44855)">
    <path
       d="m 223.30196,214.60415 -90.85521,-45.4375 c -4.3649,-8.6365 -45.427597,-89.29179 -45.427597,-90.87499 v -112.7546 c 0,-39.2477 -6.1462,-187.84311 5.0856,-222.10211 24.656897,-75.1852 -4.9904,-111.2177 153.936807,-106.9484 34.2026,0.952 78.4785,3.3593 113.5445,0 17.8934,-1.7273 38.8558,-10.9351 56.4133,-10.9351 h 56.3643 c 12.1428,0 125.9702,14.7786 130.4316,20.1999 14.343,-17.3696 105.1016,-6.814 130.3827,-9.2621 17.8444,-1.7273 38.8558,-10.9351 56.4119,-10.9351 h 56.3657 c 17.8444,0 39.0951,9.167 57.2278,10.9351 58.763,5.6579 96.5635,0.544 135.46694,57.1926 7.1524,33.1071 22.6907,79.7918 22.6907,112.8022 0,17.8497 -9.2058,39.105 -10.9327,57.2416 -8.825,91.59451 16.501,193.84121 -11.7485,282.7495 -12.4284,52.1549 -36.2654,72.0189 -135.46694,79.0722 h -57.2278 c -17.5575,0 -38.5199,-9.1669 -56.3657,-10.935 -61.5926,-5.9435 -130.622,0 -192.696,0 l -6.7173,-3.3594 c -1.8221,4.2163 -55.2126,14.2985 -61.4486,14.2985 h -56.3656 c -17.5562,0 -38.5199,-9.1669 -56.3644,-10.935 -61.5451,-5.9436 -130.622,0 -192.696,0"
       style="fill:#782d00;fill-opacity:1;fill-rule:nonzero;stroke:none;stroke-width:47.97531128"
       id="path6315"
       inkscape:connector-curvature="0" />
    <path
       id="path841"
       d="m 200.94093,173.55145 h 25.95903 v -513.4 h -25.95903 z"
       style="fill:#ffffff;fill-opacity:1;fill-rule:nonzero;stroke:none;stroke-width:36.05391693"
       inkscape:connector-curvature="0" />
    <path
       id="path843"
       d="m 601.86002,-60.074678 v 34.61148 c 0,8.65288 -2.88887,17.3057299 -5.76413,23.07385 -2.88888,2.8888595 -8.65299,5.7640405 -11.54189,5.7640405 -2.88889,2.8888295 -5.76411,2.8888295 -8.65298,2.8888295 L 451.87545,32.222132 V 173.55145 L 561.47979,150.4762 c 37.49681,-40.37959 103.83609,-89.412058 161.52236,-89.412058 49.03326,0 72.10751,2.88883 112.48775,28.843338 C 870.10194,55.296002 884.52319,9.148282 884.52319,-37.000828 890.2873,-158.13965 780.68844,-253.32122 665.31588,-253.32122 c -109.60432,0 -187.4814,80.76058 -210.55564,181.708912 l 109.60433,-17.30573 c 5.76414,0 11.5419,0 17.30599,2.88884 5.76414,2.888829 14.42125,8.65285 17.30604,14.42099 0,5.76404 0,8.65288 2.88887,11.541709 z"
       style="fill:#ffffff;fill-opacity:1;fill-rule:nonzero;stroke:none;stroke-width:36.05391693"
       inkscape:connector-curvature="0" />
    <path
       id="path845"
       d="m 307.66046,-261.97409 v -66.3382 c -20.19081,-2.88889 -43.26504,5.76398 -60.57106,11.54166 v 69.22299 c 14.42259,-8.65288 31.72725,-14.42236 49.03326,-14.42236 h 11.54189 z"
       style="fill:#ffffff;fill-opacity:1;fill-rule:nonzero;stroke:none;stroke-width:36.05391693"
       inkscape:connector-curvature="0" />
    <path
       id="path847"
       d="m 373.99975,-241.78361 c 20.19078,8.65287 40.38024,11.54171 60.57106,11.54171 2.88887,0 2.88887,0 5.76413,0 v -69.22299 c -20.19081,2.88889 -49.03325,-2.88879 -66.33929,-8.65287 z"
       style="fill:#ffffff;fill-opacity:1;fill-rule:nonzero;stroke:none;stroke-width:36.05391693"
       inkscape:connector-curvature="0" />
    <path
       id="path849"
       d="m 506.6783,-316.77473 c 8.65301,-2.88879 34.61204,-14.42095 40.38024,-23.07382 v 66.33821 c -11.54187,11.5417 -23.07424,20.18912 -40.38024,28.84199 z"
       style="fill:#ffffff;fill-opacity:1;fill-rule:nonzero;stroke:none;stroke-width:36.05391693"
       inkscape:connector-curvature="0" />
    <path
       id="path851"
       d="m 440.33901,-230.24599 v 66.33822 h 8.65302 c 8.65302,0 17.30603,-2.88884 25.95901,-2.88884 5.76414,-5.76403 8.65302,-14.42099 14.42123,-20.19048 5.76414,-5.76404 11.5419,-11.54171 17.30603,-20.18912 v -37.49623 0 c -20.19081,8.65287 -46.14848,14.42236 -66.33929,14.42236 z"
       style="fill:#ffffff;fill-opacity:1;fill-rule:nonzero;stroke:none;stroke-width:36.05391693"
       inkscape:connector-curvature="0" />
    <path
       id="path853"
       d="m 373.99975,-175.44539 c -5.76413,-2.88883 -11.5419,-5.76404 -17.30603,-5.76404 -8.65301,-5.76403 -34.61203,-14.42236 -46.14848,-14.42236 0,0 -2.88887,0 -2.88887,0 v -66.33821 0 h 2.88887 c 8.65301,0 49.03326,8.65287 49.03326,14.42236 5.76414,2.88883 11.54189,5.76403 14.42125,5.76403 z"
       style="fill:#ffffff;fill-opacity:1;fill-rule:evenodd;stroke:none;stroke-width:36.05391693"
       inkscape:connector-curvature="0" />
    <path
       id="path855"
       d="m 307.66046,-126.41291 h -11.54189 c -14.42123,0 -37.49547,5.76404 -49.03326,11.5417 v -66.33822 c 20.18944,-8.65287 40.38025,-11.5417 60.57106,-11.5417 z"
       style="fill:#ffffff;fill-opacity:1;fill-rule:nonzero;stroke:none;stroke-width:36.05391693"
       inkscape:connector-curvature="0" />
    <path
       id="path857"
       d="m 373.99975,-175.44539 v 66.33821 c 20.19078,8.65288 49.03326,14.421002 66.33926,11.541722 v -66.336862 h -11.54189 c -17.306,0 -37.49681,-5.76404 -54.80147,-11.54171 z"
       style="fill:#ffffff;fill-opacity:1;fill-rule:evenodd;stroke:none;stroke-width:36.05391693"
       inkscape:connector-curvature="0" />
    <path
       id="path859"
       d="M 307.66046,-60.074678 V 3.3787921 c -20.19081,0 -43.26504,5.7640409 -60.57106,14.4223699 v -66.33823 c 11.54188,-5.764041 34.61203,-11.54171 49.03326,-11.54171 z"
       style="fill:#ffffff;fill-opacity:1;fill-rule:nonzero;stroke:none;stroke-width:36.05391693"
       inkscape:connector-curvature="0" />
    <path
       id="path861"
       d="m 373.99975,-42.768948 v -66.338232 c -5.76413,0 -11.5419,-5.76403 -17.30603,-8.65286 -11.54189,-2.88883 -31.72725,-8.65287 -46.14848,-8.65287 h -2.88887 v 66.338232 h 2.88887 c 14.42123,0 34.61068,5.764021 46.14848,11.54169 5.76413,2.888829 11.5419,2.888829 17.30603,5.76404 z"
       style="fill:#ffffff;fill-opacity:1;fill-rule:nonzero;stroke:none;stroke-width:36.05391693"
       inkscape:connector-curvature="0" />
    <path
       id="path863"
       d="m 373.99975,-42.768948 v 66.33823 c 20.19078,8.65285 43.26502,14.42099 66.33926,11.54171 v -66.33823 c -2.88888,0 -8.65299,0 -11.54189,0 -14.4212,0 -37.49681,-5.764041 -54.80147,-11.54171 z"
       style="fill:#ffffff;fill-opacity:1;fill-rule:nonzero;stroke:none;stroke-width:36.05391693"
       inkscape:connector-curvature="0" />
    <path
       id="path865"
       d="M 544.17376,-5.274088 506.6783,3.3787921 V -45.653678 c 14.42122,-5.76404 28.84245,-14.421 40.38024,-25.95863 v 66.33822 z"
       style="fill:#ffffff;fill-opacity:1;fill-rule:nonzero;stroke:none;stroke-width:36.05391693"
       inkscape:connector-curvature="0" />
    <path
       id="path867"
       d="m 440.33901,-31.232688 c 23.07424,0 46.14848,-5.76404 66.33929,-14.42099 v -20.18914 l -66.33929,11.541709 z"
       style="fill:#ffffff;fill-opacity:1;fill-rule:nonzero;stroke:none;stroke-width:36.05391693"
       inkscape:connector-curvature="0" />
  </g>
</svg>
