<?xml version="1.0" encoding="UTF-8" standalone="no"?>
<!-- Created with Inkscape (http://www.inkscape.org/) -->

<svg
   xmlns:dc="http://purl.org/dc/elements/1.1/"
   xmlns:cc="http://creativecommons.org/ns#"
   xmlns:rdf="http://www.w3.org/1999/02/22-rdf-syntax-ns#"
   xmlns:svg="http://www.w3.org/2000/svg"
   xmlns="http://www.w3.org/2000/svg"
   xmlns:sodipodi="http://sodipodi.sourceforge.net/DTD/sodipodi-0.dtd"
   xmlns:inkscape="http://www.inkscape.org/namespaces/inkscape"
   width="602mm"
   height="602mm"
   viewBox="0 0 602 601.99999"
   version="1.1"
   id="svg8781"
   inkscape:version="0.92.2 (5c3e80d, 2017-08-06)"
   sodipodi:docname="11.svg">
  <defs
     id="defs8775">
    <pattern
       y="0"
       x="0"
       height="6"
       width="6"
       patternUnits="userSpaceOnUse"
       id="EMFhbasepattern" />
    <pattern
       y="0"
       x="0"
       height="6"
       width="6"
       patternUnits="userSpaceOnUse"
       id="EMFhbasepattern-2" />
    <pattern
       y="0"
       x="0"
       height="6"
       width="6"
       patternUnits="userSpaceOnUse"
       id="EMFhbasepattern-6" />
  </defs>
  <sodipodi:namedview
     id="base"
     pagecolor="#ffffff"
     bordercolor="#666666"
     borderopacity="1.0"
     inkscape:pageopacity="0.0"
     inkscape:pageshadow="2"
     inkscape:zoom="0.21461795"
     inkscape:cx="1134.7063"
     inkscape:cy="1621.9435"
     inkscape:document-units="mm"
     inkscape:current-layer="layer1"
     showgrid="false"
     showguides="false"
     inkscape:window-width="1920"
     inkscape:window-height="1057"
     inkscape:window-x="-8"
     inkscape:window-y="-8"
     inkscape:window-maximized="1"
     inkscape:snap-global="false"
     inkscape:measure-start="0,0"
     inkscape:measure-end="0,0"
     fit-margin-top="0"
     fit-margin-left="0"
     fit-margin-right="0"
     fit-margin-bottom="0" />
  <metadata
     id="metadata8778">
    <rdf:RDF>
      <cc:Work
         rdf:about="">
        <dc:format>image/svg+xml</dc:format>
        <dc:type
           rdf:resource="http://purl.org/dc/dcmitype/StillImage" />
        <dc:title></dc:title>
      </cc:Work>
    </rdf:RDF>
  </metadata>
  <g
     inkscape:label="Layer 1"
     inkscape:groupmode="layer"
     id="layer1"
     transform="translate(-179.2,397.3)">
    <path
       d="m 197.40882,154.5619 c -1.3527,-9.4252 -16.1876,-104.27769 -16.1876,-105.83379 V -62.10583 c 0,-38.5793 -4.35,-74.09291 6.5912,-107.76701 11.4584,-35.1367 -21.8479,-121.77655 0,-151.8196 84.9634,-116.72832 153.6449,-53.7184 258.4906,-63.85886 38.7849,-3.77009 70.8804,-10.74876 110.7885,-10.74876 17.124,0 37.5687,9.05088 54.9725,10.74876 77.5711,-17.92128 118.6489,-11.36374 158.6499,44.4282 6.0873,32.82516 -3.5542,90.45936 -3.5542,122.67086 0,17.3572 -9.6415,38.5806 -11.4584,56.2666 -9.363,90.59971 43.1825,193.13275 17.2168,281.84744 -9.8272,98.0049 -123.9816,73.8109 -215.8213,73.8109 -17.1239,0 -54.5521,10.2273 -72.05,10.2273 -53.897,0 -92.8688,-20.9881 -145.1293,-20.9881 -10.0526,0 -34.2466,10.468 -44.0711,8.6364 -46.1771,0 -92.028,7.6872 -98.4376,-36.7878"
       style="fill:#782d00;fill-opacity:1;fill-rule:nonzero;stroke:none;stroke-width:46.97400665"
       id="path6282"
       inkscape:connector-curvature="0" />
    <path
       d="m 684.16724,-154.80861 c -14.87273,11.3965 -54.54907,15.07097 -73.08139,14.16519 -16.63048,34.67216 -33.92631,70.96523 -54.78613,103.34862 h 4.17546 c 14.30164,-1.081522 30.17244,2.433419 41.48122,11.639855 2.89589,2.338781 5.65708,5.677975 8.31052,8.341211 l 0.80815,0.811146 4.18894,5.002017 c 0.67345,1.473575 1.99344,3.4338323 2.46486,5.0020262 0.53878,1.6222828 0.53878,4.0557021 0.80816,5.8131727 l -1.65671,3.3391842 V 3.4649585 L 611.03467,14.293667 C 594.68974,44.101681 566.55924,76.055165 537.14646,93.46357 l -4.13505,-3.339185 c -2.18202,-2.622686 -6.03423,-10.058131 -7.46195,-13.356766 22.8546,-18.074888 41.14852,-43.447328 53.12266,-69.9634763 l -1.65671,-4.1503306 c -7.69093,-2.9065814 -16.72476,-4.19088 -24.89789,-4.19088 H 538.86379 L 537.1532,-0.7259314 484.88582,134.24225 c -0.80816,2.05489 -7.8391,19.07665 -7.46196,19.98377 -1.34692,1.3519 -4.04078,2.33878 -5.79177,2.47398 l -14.96701,-3.33919 -1.65673,-0.81114 -1.65672,-2.47398 v -3.33919 l 9.11868,-30.8571 7.50237,-19.123956 16.58197,-43.352699 -1.65671,-56.6094149 -0.80815,-2.5280478 -2.51875,-0.8111364 c -11.35457,1.081512 -24.61368,-3.3391939 -33.16665,-10.8287089 -3.17875,2.095435 -6.6538,5.150734 -9.98071,6.624299 -4.3775,2.0008167 -12.59374,3.3391944 -17.43862,3.3391944 -2.61303,0 -6.46523,-1.2167097 -9.11867,-1.6628424 l -19.95738,37.485457 c -0.94284,1.81155 -1.65672,3.961064 -2.46486,5.867242 l -3.32691,9.963494 0.80815,3.339194 35.6854,88.324965 v 3.29863 l -1.65671,3.33919 -2.51876,0.81115 -15.72802,2.47396 c -1.21223,0.13519 -4.88933,-1.5682 -5.84565,-2.47396 L 307.24677,-42.403626 h 1.65671 C 305.05129,-50.55557 291.51336,-83.896109 291.46487,-91.57489 291.19548,-92.656412 289,-101.91692 289,-102.4036 v -10.82872 c 0,-9.58496 9.21296,-27.13666 15.72803,-34.14761 0.80815,-0.54076 1.65671,-1.3519 2.51874,-1.66283 17.62855,-8.86846 28.7474,-13.01879 48.98897,-11.68042 l 171.77184,21.65338 c 12.59374,-22.51183 28.60462,-44.02054 45.66341,-63.28781 -2.85547,0.54077 -6.22278,-0.94632 -8.83581,-1.66283 -14.39727,-4.3396 -28.509,-21.22211 -28.509,-36.67431 0,-8.48996 2.37059,-18.886 7.46197,-25.80239 13.87465,4.86691 28.08201,16.88394 34.87723,29.99868 1.65673,3.19048 2.8555,7.39489 4.13506,10.82871 l 0.80815,0.81114 c 11.92028,-4.86684 20.43285,-15.35757 27.3695,-25.80098 2.85548,-4.58294 4.99709,-13.07284 4.99709,-18.36151 0,-2.67679 -3.42118,-12.88362 -4.99709,-14.97631 -0.13469,-0.2704 -5.22606,-4.48829 -5.79177,-5.00202 -30.07681,-31.23839 -85.5768,-48.4075 -127.81903,-49.98111 l 1.65672,-4.19083 c 45.99609,-1.67639 94.31969,13.1675 133.61619,36.67425 14.16021,9.05775 24.09107,24.75198 24.09107,41.68311 0,16.40669 -7.03093,34.62486 -21.57233,43.30406 24.47092,11.77503 48.89468,24.65728 69.706,42.49423 h -0.80815 c 1.42775,1.67635 4.94321,7.73286 4.94321,9.9635 v 5.86724 c -3.8522,7.77342 -4.75464,5.81317 -8.27011,9.9635 l 3.3269,-1.66284"
       style="fill:#ffffff;fill-opacity:1;fill-rule:nonzero;stroke:none;stroke-width:47.60414886"
       id="path5890"
       inkscape:connector-curvature="0" />
    <circle
       style="opacity:1;fill:#782d00;fill-opacity:1;fill-rule:nonzero;stroke:none;stroke-width:0.02749442;stroke-linecap:butt;stroke-linejoin:miter;stroke-miterlimit:4;stroke-dasharray:none;stroke-opacity:1;paint-order:stroke fill markers"
       id="path847"
       cx="615.40002"
       cy="-193.3"
       r="6" />
  </g>
</svg>
