<?xml version="1.0" encoding="UTF-8" standalone="no"?>
<!-- Created with Inkscape (http://www.inkscape.org/) -->

<svg
   xmlns:dc="http://purl.org/dc/elements/1.1/"
   xmlns:cc="http://creativecommons.org/ns#"
   xmlns:rdf="http://www.w3.org/1999/02/22-rdf-syntax-ns#"
   xmlns:svg="http://www.w3.org/2000/svg"
   xmlns="http://www.w3.org/2000/svg"
   xmlns:sodipodi="http://sodipodi.sourceforge.net/DTD/sodipodi-0.dtd"
   xmlns:inkscape="http://www.inkscape.org/namespaces/inkscape"
   width="602mm"
   height="602mm"
   viewBox="0 0 602 601.99999"
   version="1.1"
   id="svg8781"
   inkscape:version="0.92.2 (5c3e80d, 2017-08-06)"
   sodipodi:docname="11.svg">
  <defs
     id="defs8775">
    <pattern
       y="0"
       x="0"
       height="6"
       width="6"
       patternUnits="userSpaceOnUse"
       id="EMFhbasepattern" />
    <pattern
       y="0"
       x="0"
       height="6"
       width="6"
       patternUnits="userSpaceOnUse"
       id="EMFhbasepattern-2" />
    <pattern
       y="0"
       x="0"
       height="6"
       width="6"
       patternUnits="userSpaceOnUse"
       id="EMFhbasepattern-6" />
    <pattern
       y="0"
       x="0"
       height="6"
       width="6"
       patternUnits="userSpaceOnUse"
       id="EMFhbasepattern-8" />
    <pattern
       y="0"
       x="0"
       height="6"
       width="6"
       patternUnits="userSpaceOnUse"
       id="EMFhbasepattern-0" />
    <pattern
       y="0"
       x="0"
       height="6"
       width="6"
       patternUnits="userSpaceOnUse"
       id="EMFhbasepattern-7" />
    <pattern
       y="0"
       x="0"
       height="6"
       width="6"
       patternUnits="userSpaceOnUse"
       id="EMFhbasepattern-5" />
    <pattern
       y="0"
       x="0"
       height="6"
       width="6"
       patternUnits="userSpaceOnUse"
       id="EMFhbasepattern-82" />
    <pattern
       y="0"
       x="0"
       height="6"
       width="6"
       patternUnits="userSpaceOnUse"
       id="EMFhbasepattern-84" />
    <pattern
       y="0"
       x="0"
       height="6"
       width="6"
       patternUnits="userSpaceOnUse"
       id="EMFhbasepattern-86" />
  </defs>
  <sodipodi:namedview
     id="base"
     pagecolor="#ffffff"
     bordercolor="#666666"
     borderopacity="1.0"
     inkscape:pageopacity="0.0"
     inkscape:pageshadow="2"
     inkscape:zoom="0.17072754"
     inkscape:cx="594.86665"
     inkscape:cy="1613.8832"
     inkscape:document-units="mm"
     inkscape:current-layer="layer1"
     showgrid="false"
     showguides="true"
     inkscape:window-width="1920"
     inkscape:window-height="1057"
     inkscape:window-x="-8"
     inkscape:window-y="-8"
     inkscape:window-maximized="1"
     inkscape:snap-global="false"
     inkscape:measure-start="0,0"
     inkscape:measure-end="0,0"
     fit-margin-top="0"
     fit-margin-left="0"
     fit-margin-right="0"
     fit-margin-bottom="0" />
  <metadata
     id="metadata8778">
    <rdf:RDF>
      <cc:Work
         rdf:about="">
        <dc:format>image/svg+xml</dc:format>
        <dc:type
           rdf:resource="http://purl.org/dc/dcmitype/StillImage" />
        <dc:title></dc:title>
      </cc:Work>
    </rdf:RDF>
  </metadata>
  <g
     inkscape:label="Layer 1"
     inkscape:groupmode="layer"
     id="layer1"
     transform="translate(-179.2,397.3)">
    <path
       d="m 197.40882,154.5619 c -1.3527,-9.4252 -16.1876,-104.277708 -16.1876,-105.833808 v -110.83397 c 0,-38.579282 -4.35,-74.092892 6.5912,-107.766992 11.4584,-35.1367 -21.8479,-121.77655 0,-151.8196 84.9634,-116.72832 153.6449,-53.7184 258.4906,-63.85886 38.7849,-3.77009 70.8804,-10.74876 110.7885,-10.74876 17.124,0 37.5687,9.05088 54.9725,10.74876 77.5711,-17.92128 118.6489,-11.36374 158.6499,44.4282 6.0873,32.82516 -3.5542,90.45936 -3.5542,122.67086 0,17.3572 -9.6415,38.5806 -11.4584,56.2666 -9.363,90.599692 43.1825,193.132762 17.2168,281.84747 -9.8272,98.0049 -123.9816,73.8109 -215.8213,73.8109 -17.1239,0 -54.5521,10.2273 -72.05,10.2273 -53.897,0 -92.8688,-20.9881 -145.1293,-20.9881 -10.0526,0 -34.2466,10.468 -44.0711,8.6364 -46.1771,0 -92.028,7.6872 -98.4376,-36.7878"
       style="fill:#782d00;fill-opacity:1;fill-rule:nonzero;stroke:none;stroke-width:46.97400665"
       id="path6282"
       inkscape:connector-curvature="0" />
    <path
       d="m 269.0633,156.28648 c 2.19254,-25.47411 3.34295,-51.13889 3.34295,-76.661681 0,-27.334826 -9.83936,-135.386796 -20.00625,-156.663483 1.08274,-68.361376 41.10876,-139.347556 97.54499,-177.511426 -28.17008,-34.34767 -56.53097,-59.91783 -97.54499,-78.33177 3.0046,-0.81135 10.12358,-3.86746 12.465,-5.81473 1.43461,-1.21707 2.96398,-3.58356 4.19559,-5.00339 35.14153,19.08188 77.25317,50.47217 98.40441,85.01062 31.70249,-29.72023 73.71939,-53.33503 118.40929,-53.33503 h 19.19284 c 4.43921,0 9.74461,1.08187 14.18112,1.67686 14.75363,3.43476 31.55903,5.81473 46.74304,5.81473 h 24.15854 c 39.2478,0 96.39863,-17.79456 129.24747,-39.16588 -2.81512,7.92439 -4.53396,16.31517 -7.49794,24.1868 -15.56568,41.21729 -53.14201,82.05313 -92.5793,101.65976 -26.68942,13.54846 -58.29717,21.65803 -88.37691,21.65803 -26.83289,0 -53.52367,-6.05817 -78.39816,-15.8378 l -8.3506,-4.19214 c -9.54161,-4.30017 -34.04255,-11.16968 -44.21215,-9.9662 48.08023,40.1679 93.62955,90.06807 124.28178,144.975814 5.30541,-5.679626 18.04784,-10.831712 25.83,-10.831712 6.40169,0 12.31613,1.717329 18.38215,3.340122 25.68789,12.0217 40.01113,34.39504 40.01113,62.493874 0,37.495825 -32.08551,64.162626 -68.37203,64.162626 -10.27245,0 -24.87584,-5.152156 -33.37396,-10.831702 6.02271,-8.776214 10.84088,-24.330105 10.84088,-35.0157165 0,-11.6836305 -2.86924,-24.2340705 -7.49794,-34.9670495 2.5715,-2.096071 5.53549,-4.962915 8.3506,-6.680244 3.05872,-1.866127 7.49794,-3.434757 10.84088,-5.003387 -1.47522,-2.907417 -3.62716,-5.909469 -5.81969,-8.303037 -2.77451,-0.946554 -7.97164,-2.528675 -10.8815,-2.528675 l -5.8197,1.663266 c -0.94739,0.540931 -4.24974,7.018313 -5.00765,8.343509 -1.90832,-2.095971 -8.40474,-9.966203 -10.84089,-10.831712 5.3054,-5.246822 15.03919,-9.452353 22.53579,-9.154856 -28.88603,-48.32484 -63.83673,-87.15665 -103.41747,-126.65651 -1.47523,-1.47399 -4.10086,-2.96148 -5.81971,-4.19204 31.56039,37.54449 45.21503,95.22025 43.35408,143.35432 5.53549,-2.055398 12.41086,-3.340122 18.33342,-3.340122 8.02577,0 15.56567,4.86818 22.53578,8.303037 11.21985,9.114283 20.86567,31.580959 20.86567,45.84473 0,36.971103 -27.78841,65.832647 -65.07781,65.832647 -37.76716,0 -63.35897,-31.103615 -63.35897,-67.502708 0,-14.549076 7.59268,-31.103684 18.33477,-40.834547 3.24821,-5.720199 12.55973,-10.831712 19.19419,-10.831712 h 7.49795 c 0.40602,0 8.16111,2.677474 9.16264,3.340122 2.28728,-56.101737 -18.00048,-122.983817 -61.73486,-160.813617 19.38366,39.54723 29.22032,86.0599 29.22032,129.995237 0,8.019031 -0.54137,16.124502 -0.81205,24.139435 -13.60864,10.209636 -29.17296,35.110452 -29.17296,52.523675 v 11.6430584 c 0,4.19204067 5.11593,22.2299376 7.49795,25.8554146 l -1.66471,2.474662 C 350.305,82.118398 322.27839,118.37417 269.13774,156.3"
       style="fill:#ffffff;fill-opacity:1;fill-rule:nonzero;stroke:none;stroke-width:47.72538376"
       id="path7106"
       inkscape:connector-curvature="0" />
    <path
       d="m 719.4,-43.740297 c -8.68895,-58.439843 -42.2551,-134.576803 -92.53056,-169.115153 -13.1823,15.74307 -81.78848,24.99675 -102.60542,24.99675 -19.86277,0 -40.96529,-5.67962 -60.06474,-10.83171 69.28018,80.24107 154.83928,125.703162 255.20072,154.947415"
       style="fill:#ffffff;fill-opacity:1;fill-rule:nonzero;stroke:none;stroke-width:47.72538376"
       id="path7108"
       inkscape:connector-curvature="0" />
    <path
       d="m 411.67985,-45.410357 5.8197,-1.622694 c 2.86925,0 8.12051,1.528058 10.84089,2.474613 2.38202,2.434139 4.62869,5.963532 5.8197,9.154855 -6.68589,2.866845 -14.32459,7.112949 -20.00624,11.643059 -3.53242,2.907417 -6.72649,6.774979 -9.9747,10.020365 -0.27069,-2.663983 -0.81206,-5.679526 -0.81206,-8.302937 0,-7.924295 2.5309,-16.887181 8.35061,-22.516642 v -0.811446"
       style="fill:#782d00;fill-opacity:1;fill-rule:nonzero;stroke:none;stroke-width:47.72538376"
       id="path7110"
       inkscape:connector-curvature="0" />
  </g>
</svg>
