<?xml version="1.0" encoding="UTF-8" standalone="no"?>
<!-- Created with Inkscape (http://www.inkscape.org/) -->

<svg
   xmlns:dc="http://purl.org/dc/elements/1.1/"
   xmlns:cc="http://creativecommons.org/ns#"
   xmlns:rdf="http://www.w3.org/1999/02/22-rdf-syntax-ns#"
   xmlns:svg="http://www.w3.org/2000/svg"
   xmlns="http://www.w3.org/2000/svg"
   xmlns:sodipodi="http://sodipodi.sourceforge.net/DTD/sodipodi-0.dtd"
   xmlns:inkscape="http://www.inkscape.org/namespaces/inkscape"
   width="602mm"
   height="602mm"
   viewBox="0 0 602 601.99999"
   version="1.1"
   id="svg8781"
   inkscape:version="0.92.2 (5c3e80d, 2017-08-06)"
   sodipodi:docname="11.svg">
  <defs
     id="defs8775">
    <pattern
       y="0"
       x="0"
       height="6"
       width="6"
       patternUnits="userSpaceOnUse"
       id="EMFhbasepattern" />
    <pattern
       y="0"
       x="0"
       height="6"
       width="6"
       patternUnits="userSpaceOnUse"
       id="EMFhbasepattern-2" />
    <pattern
       y="0"
       x="0"
       height="6"
       width="6"
       patternUnits="userSpaceOnUse"
       id="EMFhbasepattern-6" />
  </defs>
  <sodipodi:namedview
     id="base"
     pagecolor="#ffffff"
     bordercolor="#666666"
     borderopacity="1.0"
     inkscape:pageopacity="0.0"
     inkscape:pageshadow="2"
     inkscape:zoom="0.21461795"
     inkscape:cx="690.20309"
     inkscape:cy="1420.3136"
     inkscape:document-units="mm"
     inkscape:current-layer="layer1"
     showgrid="false"
     showguides="false"
     inkscape:window-width="1920"
     inkscape:window-height="1057"
     inkscape:window-x="-8"
     inkscape:window-y="-8"
     inkscape:window-maximized="1"
     inkscape:snap-global="false"
     inkscape:measure-start="0,0"
     inkscape:measure-end="0,0"
     fit-margin-top="0"
     fit-margin-left="0"
     fit-margin-right="0"
     fit-margin-bottom="0" />
  <metadata
     id="metadata8778">
    <rdf:RDF>
      <cc:Work
         rdf:about="">
        <dc:format>image/svg+xml</dc:format>
        <dc:type
           rdf:resource="http://purl.org/dc/dcmitype/StillImage" />
        <dc:title></dc:title>
      </cc:Work>
    </rdf:RDF>
  </metadata>
  <g
     inkscape:label="Layer 1"
     inkscape:groupmode="layer"
     id="layer1"
     transform="translate(-179.2,397.3)">
    <path
       d="m 197.40882,154.5619 c -1.3527,-9.4252 -16.1876,-104.27769 -16.1876,-105.83379 V -62.10583 c 0,-38.5793 -4.35,-74.09291 6.5912,-107.76701 11.4584,-35.1367 -21.8479,-121.77655 0,-151.8196 84.9634,-116.72832 153.6449,-53.7184 258.4906,-63.85886 38.7849,-3.77009 70.8804,-10.74876 110.7885,-10.74876 17.124,0 37.5687,9.05088 54.9725,10.74876 77.5711,-17.92128 118.6489,-11.36374 158.6499,44.4282 6.0873,32.82516 -3.5542,90.45936 -3.5542,122.67086 0,17.3572 -9.6415,38.5806 -11.4584,56.2666 -9.363,90.59971 43.1825,193.13275 17.2168,281.84744 -9.8272,98.0049 -123.9816,73.8109 -215.8213,73.8109 -17.1239,0 -54.5521,10.2273 -72.05,10.2273 -53.897,0 -92.8688,-20.9881 -145.1293,-20.9881 -10.0526,0 -34.2466,10.468 -44.0711,8.6364 -46.1771,0 -92.028,7.6872 -98.4376,-36.7878"
       style="fill:#782d00;fill-opacity:1;fill-rule:nonzero;stroke:none;stroke-width:46.97400665"
       id="path6282"
       inkscape:connector-curvature="0" />
    <path
       id="path838"
       d="m 376.82864,125.87118 5.77668,-8.67071 c 2.89518,0 5.77668,0 8.67186,0 0,0 5.77667,2.89483 5.77667,2.89483 8.67187,5.77588 17.34372,11.56538 28.90528,17.3399 l 2.89517,2.89483 2.89516,2.89475 2.89518,2.89476 2.89517,-5.77588 c -2.89517,0 -5.77669,-5.77588 -5.77669,-8.67071 0,0 -5.77668,-2.89474 -5.77668,-2.89474 l -2.89517,-2.89477 v -2.89475 c 2.89517,0 8.67185,0 11.56703,0 2.89516,0 8.67185,0 8.67185,0 l 8.67185,2.89475 -5.77668,-5.77587 c 0,0 -2.89517,-2.89475 -5.77669,-2.89475 -8.67185,0 -17.3437,-2.89484 -28.90663,-2.89484 h -2.89517 l -5.77668,-2.89475 c 0,-2.89475 -2.89518,-2.89475 -2.89518,-5.77588 V 88.306017 c 2.89518,-11.565423 5.77669,-23.121305 8.67186,-31.791965 23.12585,-5.775897 46.25034,-11.565441 66.48375,-23.121315 l 5.77669,-2.894772 2.89517,2.894772 v 2.894773 2.894774 c 8.67185,8.670667 14.454,23.122674 17.3437,31.791973 l 2.89517,17.341319 c 2.89518,11.565444 5.77668,23.122644 5.77668,34.682654 l -2.89516,2.89476 -2.89517,5.77588 c -2.89517,0 -2.89517,0 -5.77668,0 -2.89518,0 -5.77669,2.89483 -8.67186,2.89483 l -5.77668,2.89476 -2.89517,2.89474 v 2.89476 l 2.89517,2.89484 c 2.89517,-2.89484 2.89517,-2.89484 5.77668,-5.77596 0,0 0,0 2.89517,0 0,0 5.77669,-2.89475 8.67185,-2.89475 h 2.89517 l 5.77668,-2.89476 c 2.89518,0 5.77669,0 8.67187,0 2.89516,0 11.56701,2.89476 17.3437,2.89476 l 23.12449,14.45203 8.67185,5.77588 2.89517,-2.89475 -2.89517,-2.89477 -2.89516,-2.89482 c 0,0 -2.89518,-2.89477 -5.77669,-2.89477 h -2.89517 l -5.77669,-5.77586 c 0,0 -2.89516,-2.89476 -2.89516,-5.77588 0,0 2.89516,0 5.77668,-2.89483 2.89517,0 11.56703,2.89483 14.45263,2.89483 2.89517,0 5.77669,0 5.77669,0 2.89516,0 2.89516,0 5.77668,0 l -11.56702,-5.77595 c -2.89517,-2.89476 -11.56703,-2.89476 -14.45264,-2.89476 -2.89516,0 -8.67185,0 -11.56703,0 -2.89516,0 -8.67185,0 -8.67185,0 l -5.77668,-2.89475 h -2.89517 c 0,-8.67062 -2.89517,-20.23064 -8.67186,-28.901297 -2.89516,-2.894774 -2.89516,-11.565433 -5.77667,-14.452016 v -8.67066 c 0,0 -2.89518,-14.450645 -2.89518,-14.450645 0,-2.894774 0,-5.775896 0,-5.775896 0,-5.775887 2.89518,-14.450646 2.89518,-17.341328 2.89516,-2.894764 8.67185,-8.67066 11.56701,-11.565424 8.67186,-5.775896 14.45264,-8.67066 23.1245,-14.4506561 l 5.77667,-5.7758863 c 17.34372,-14.4506546 34.68743,-34.6826466 46.25034,-54.9146486 17.34372,-26.010626 31.79635,-54.913273 37.57713,-83.814623 2.89517,-2.89475 2.89517,-20.232 2.89517,-23.12267 v -20.23068 c 0,-14.45058 -2.89517,-28.90254 -5.77669,-40.46258 -2.89516,-5.77593 -5.77668,-14.45198 -5.77668,-20.232 0,0 2.89518,-8.67064 2.89518,-11.56536 l 11.56701,-17.34138 c 2.89518,0 2.89518,0 2.89518,0 l 2.89517,8.67066 c 0,0 2.89517,-2.89482 2.89517,-5.77593 v -11.56545 c 0,-5.77583 -2.89517,-8.67065 -2.89517,-14.45198 v 0 c 2.89517,-2.8948 8.67185,-8.67063 11.56702,-8.67063 h 5.77669 c 2.89516,0 8.67185,0 8.67185,0 -8.67185,-11.56536 -20.23478,-20.23069 -34.68742,-23.12131 -2.89517,0 -11.56702,-5.77593 -14.45263,-8.67064 -5.77668,-8.67074 -17.34371,-14.45066 -26.01556,-14.45066 -5.77669,0 -11.56703,0 -17.34371,2.89471 l -2.89517,2.89482 c -2.89516,2.8948 -2.89516,2.8948 -5.77668,2.8948 v 5.77583 c 5.77668,0 8.67185,0 11.56702,0 8.67185,2.89482 14.454,8.67065 20.23478,14.45206 -8.67185,8.67064 -17.34371,26.01063 -17.34371,37.57188 v 11.56545 c 0,0 2.89518,11.56545 2.89518,14.45066 2.89516,2.89482 5.77668,14.45068 5.77668,14.45068 v 5.77591 l -2.89517,2.89471 -2.89517,2.89483 h -2.89518 c -11.56701,-2.89483 -23.12448,-5.77593 -34.68741,-5.77593 -28.90527,0 -60.7016,5.77593 -86.71716,14.45205 -14.45264,5.77593 -28.90664,14.45058 -40.4682,26.01203 -54.92219,52.02252 -95.39039,109.826519 -115.6238,182.082487 l -5.77669,11.5654419 c 0,0 0,2.8947659 0,2.8947659 V 7.423081 l 2.89517,2.894769 5.77668,5.775897 c 0,34.682639 8.67186,72.254608 17.34372,106.937293 l 2.89516,2.89475 h 2.89518 c 0,0 2.89516,0 2.89516,-2.89475 0,0 2.89517,0 2.89517,0 0,0 2.89518,-2.89484 2.89518,-2.89484 0,2.89484 2.89516,2.89484 2.89516,2.89484 l 2.89517,2.89475 h 2.89517 l 2.89517,-2.89475 c 8.67186,-23.12139 20.23478,-49.133331 37.57849,-69.363972 l 2.89517,2.894773 c 0,8.670668 0,23.121313 -2.89517,31.791973 0,2.894774 0,8.67066 0,11.565466 0,0 -2.89516,2.89475 -2.89516,5.77587 -2.89518,2.89476 -5.77669,2.89476 -8.67187,5.77588 0,0 -2.89516,2.89475 -5.77668,5.77587 l -5.77668,5.77587 -2.89517,2.89483 v 5.77589 l 5.77668,5.77587 v -5.77587 z"
       style="fill:#ffffff;fill-opacity:1;fill-rule:nonzero;stroke:none;stroke-width:36.13024139"
       inkscape:connector-curvature="0" />
  </g>
</svg>
