<?xml version="1.0" encoding="UTF-8" standalone="no"?>
<!-- Created with Inkscape (http://www.inkscape.org/) -->

<svg
   xmlns:dc="http://purl.org/dc/elements/1.1/"
   xmlns:cc="http://creativecommons.org/ns#"
   xmlns:rdf="http://www.w3.org/1999/02/22-rdf-syntax-ns#"
   xmlns:svg="http://www.w3.org/2000/svg"
   xmlns="http://www.w3.org/2000/svg"
   xmlns:sodipodi="http://sodipodi.sourceforge.net/DTD/sodipodi-0.dtd"
   xmlns:inkscape="http://www.inkscape.org/namespaces/inkscape"
   width="602mm"
   height="602mm"
   viewBox="0 0 602 601.99999"
   version="1.1"
   id="svg8781"
   inkscape:version="0.92.2 (5c3e80d, 2017-08-06)"
   sodipodi:docname="11.svg">
  <defs
     id="defs8775">
    <pattern
       y="0"
       x="0"
       height="6"
       width="6"
       patternUnits="userSpaceOnUse"
       id="EMFhbasepattern" />
    <pattern
       y="0"
       x="0"
       height="6"
       width="6"
       patternUnits="userSpaceOnUse"
       id="EMFhbasepattern-2" />
    <pattern
       y="0"
       x="0"
       height="6"
       width="6"
       patternUnits="userSpaceOnUse"
       id="EMFhbasepattern-6" />
    <pattern
       y="0"
       x="0"
       height="6"
       width="6"
       patternUnits="userSpaceOnUse"
       id="EMFhbasepattern-8" />
    <pattern
       y="0"
       x="0"
       height="6"
       width="6"
       patternUnits="userSpaceOnUse"
       id="EMFhbasepattern-0" />
    <pattern
       y="0"
       x="0"
       height="6"
       width="6"
       patternUnits="userSpaceOnUse"
       id="EMFhbasepattern-7" />
    <pattern
       y="0"
       x="0"
       height="6"
       width="6"
       patternUnits="userSpaceOnUse"
       id="EMFhbasepattern-5" />
    <pattern
       y="0"
       x="0"
       height="6"
       width="6"
       patternUnits="userSpaceOnUse"
       id="EMFhbasepattern-82" />
    <pattern
       y="0"
       x="0"
       height="6"
       width="6"
       patternUnits="userSpaceOnUse"
       id="EMFhbasepattern-84" />
    <pattern
       y="0"
       x="0"
       height="6"
       width="6"
       patternUnits="userSpaceOnUse"
       id="EMFhbasepattern-86" />
    <pattern
       y="0"
       x="0"
       height="6"
       width="6"
       patternUnits="userSpaceOnUse"
       id="EMFhbasepattern-23" />
    <pattern
       y="0"
       x="0"
       height="6"
       width="6"
       patternUnits="userSpaceOnUse"
       id="EMFhbasepattern-06" />
    <pattern
       y="0"
       x="0"
       height="6"
       width="6"
       patternUnits="userSpaceOnUse"
       id="EMFhbasepattern-4" />
    <pattern
       y="0"
       x="0"
       height="6"
       width="6"
       patternUnits="userSpaceOnUse"
       id="EMFhbasepattern-25" />
  </defs>
  <sodipodi:namedview
     id="base"
     pagecolor="#ffffff"
     bordercolor="#666666"
     borderopacity="1.0"
     inkscape:pageopacity="0.0"
     inkscape:pageshadow="2"
     inkscape:zoom="0.2414452"
     inkscape:cx="1075.1493"
     inkscape:cy="706.66318"
     inkscape:document-units="mm"
     inkscape:current-layer="layer1"
     showgrid="false"
     showguides="true"
     inkscape:window-width="1920"
     inkscape:window-height="1057"
     inkscape:window-x="-8"
     inkscape:window-y="-8"
     inkscape:window-maximized="1"
     inkscape:snap-global="false"
     inkscape:measure-start="0,0"
     inkscape:measure-end="0,0"
     fit-margin-top="0"
     fit-margin-left="0"
     fit-margin-right="0"
     fit-margin-bottom="0" />
  <metadata
     id="metadata8778">
    <rdf:RDF>
      <cc:Work
         rdf:about="">
        <dc:format>image/svg+xml</dc:format>
        <dc:type
           rdf:resource="http://purl.org/dc/dcmitype/StillImage" />
        <dc:title></dc:title>
      </cc:Work>
    </rdf:RDF>
  </metadata>
  <g
     inkscape:label="Layer 1"
     inkscape:groupmode="layer"
     id="layer1"
     transform="translate(-179.2,397.3)">
    <path
       d="m 197.40882,154.56186 c -1.3527,-9.4252 -16.1876,-104.2777 -16.1876,-105.8338 v -110.834 c 0,-38.5793 -4.35,-74.0929 6.5912,-107.767 11.4584,-35.1367 -21.8479,-121.7766 0,-151.8196 84.9634,-116.72832 153.6449,-53.7184 258.4906,-63.85886 38.7849,-3.77009 70.8804,-10.74876 110.7885,-10.74876 17.124,0 37.5687,9.05088 54.9725,10.74876 77.5711,-17.92128 118.64894,-11.36374 158.64994,44.4282 6.0873,32.82516 -3.5542,90.45936 -3.5542,122.67086 0,17.3572 -9.6415,38.5806 -11.4584,56.2666 -9.363,90.5997 43.1825,193.1328 17.2168,281.8475 -9.8272,98.00494 -123.98164,73.8109 -215.82134,73.8109 -17.1239,0 -54.5521,10.22734 -72.05,10.22734 -53.897,0 -92.8688,-20.98814 -145.1293,-20.98814 -10.0526,0 -34.2466,10.468 -44.0711,8.6364 -46.1771,0 -92.028,7.68724 -98.4376,-36.7878"
       style="fill:#782d00;fill-opacity:1;fill-rule:nonzero;stroke:none;stroke-width:46.97400665"
       id="path6282"
       inkscape:connector-curvature="0" />
    <path
       d="m 445.1695,-211.06628 -0.80308,-2.50275 -2.50292,-1.65958 -3.306,0.80302 -2.50291,5.0055 1.6463,2.50274 3.34615,0.80303 2.50292,-0.80303 1.64631,-2.50274 v -1.69973"
       style="fill:#ffffff;fill-opacity:1;fill-rule:nonzero;stroke:none;stroke-width:47.21624756"
       id="path7184"
       inkscape:connector-curvature="0" />
    <path
       d="m 411.83382,-211.06628 c -0.53538,-0.66919 -1.07076,-1.8871 -1.6463,-2.50275 l -2.50292,-1.65958 c -1.69984,0.26767 -3.68076,1.41868 -5.00583,2.50275 v 3.3593 l 1.64631,2.50275 2.50291,0.80301 2.50292,-0.80301 c 0.93693,-1.33837 1.94077,-2.74365 2.50291,-4.20247"
       style="fill:#ffffff;fill-opacity:1;fill-rule:nonzero;stroke:none;stroke-width:47.21624756"
       id="path7186"
       inkscape:connector-curvature="0" />
    <path
       d="m 378.49816,-210.21642 -0.80307,-3.34592 -2.50293,-1.65958 c -1.69984,0.26768 -3.7343,1.41867 -5.00583,2.50276 l -0.80308,3.35929 1.6463,2.50275 3.34615,0.80302 2.50292,-0.80302 1.6463,-2.50275 v -0.80301"
       style="fill:#ffffff;fill-opacity:1;fill-rule:nonzero;stroke:none;stroke-width:47.21624756"
       id="path7188"
       inkscape:connector-curvature="0" />
    <path
       d="m 443.51649,-241.85007 -0.80306,-3.34592 -2.50292,-1.69972 h -3.306 l -3.34615,1.69972 -0.80307,3.34592 0.80307,2.44921 c 0.53539,0.80302 1.79354,1.84694 2.50292,2.50275 h 3.34615 c 1.55261,-0.66918 3.49338,-2.59643 4.14923,-4.14894 v -0.80302"
       style="fill:#ffffff;fill-opacity:1;fill-rule:nonzero;stroke:none;stroke-width:47.21624756"
       id="path7190"
       inkscape:connector-curvature="0" />
    <path
       d="m 412.68374,-241.85007 -1.6463,-3.34592 -2.54307,-1.69972 h -3.30599 l -2.50292,1.69972 -0.80307,3.34592 0.80307,2.44921 2.50292,2.50275 h 2.50291 l 3.34615,-1.64619 1.6463,-2.50275 v -0.80302"
       style="fill:#ffffff;fill-opacity:1;fill-rule:nonzero;stroke:none;stroke-width:47.21624756"
       id="path7192"
       inkscape:connector-curvature="0" />
    <path
       d="m 381.84966,-241.85007 -0.80307,-3.34592 -2.50291,-1.69972 h -3.30601 l -3.35953,1.69972 -0.80308,3.34592 0.80308,2.44921 2.50292,2.50275 h 3.35953 c 1.55262,-0.66918 3.49338,-2.59643 4.14923,-4.14894 v -0.80302"
       style="fill:#ffffff;fill-opacity:1;fill-rule:nonzero;stroke:none;stroke-width:47.21624756"
       id="path7194"
       inkscape:connector-curvature="0" />
    <path
       d="m 442.66657,-269.37627 -0.80307,-3.30577 -3.306,-2.50275 h -3.34614 l -3.306,0.80302 -1.69984,3.35931 v 3.34592 l 1.69984,3.30577 3.306,1.69971 3.34614,-0.80301 c 1.07078,-0.53535 2.3557,-1.79342 3.306,-2.50275 l 0.80307,-3.3593"
       style="fill:#ffffff;fill-opacity:1;fill-rule:nonzero;stroke:none;stroke-width:47.21624756"
       id="path7196"
       inkscape:connector-curvature="0" />
    <path
       d="m 412.68374,-269.37627 -0.80306,-3.30577 -2.50292,-2.50275 h -3.34615 l -3.306,0.80302 -1.6597,3.35931 v 3.34592 l 1.6597,3.30577 3.306,1.69971 3.34615,-0.80301 2.50292,-2.50275 0.80306,-3.3593"
       style="fill:#ffffff;fill-opacity:1;fill-rule:nonzero;stroke:none;stroke-width:47.21624756"
       id="path7198"
       inkscape:connector-curvature="0" />
    <path
       d="m 386.00558,-268.52641 -0.80309,-3.34592 -3.34614,-2.50274 h -3.34615 l -3.30599,1.69973 -1.65969,2.50274 v 4.14894 c 1.33846,1.5525 3.15877,3.21208 4.96568,4.14893 l 4.20277,-0.80301 2.50291,-2.5429 0.80309,-3.30577"
       style="fill:#ffffff;fill-opacity:1;fill-rule:nonzero;stroke:none;stroke-width:47.21624756"
       id="path7200"
       inkscape:connector-curvature="0" />
    <path
       d="m 467.64491,76.376202 -2.44938,-0.803014 0.80307,2.502743 1.64631,-1.659577"
       style="fill:#ffffff;fill-opacity:1;fill-rule:evenodd;stroke:none;stroke-width:47.21624756"
       id="path7202"
       inkscape:connector-curvature="0" />
    <path
       d="m 408.48098,76.376202 -2.50291,-0.803014 0.80307,2.502743 1.64631,-1.659577"
       style="fill:#ffffff;fill-opacity:1;fill-rule:evenodd;stroke:none;stroke-width:47.21624756"
       id="path7204"
       inkscape:connector-curvature="0" />
    <path
       d="m 349.36392,76.376202 -2.50292,-0.803014 0.80307,2.502743 1.6463,-1.659577"
       style="fill:#ffffff;fill-opacity:1;fill-rule:evenodd;stroke:none;stroke-width:47.21624756"
       id="path7206"
       inkscape:connector-curvature="0" />
    <path
       d="m 465.19017,34.732905 -3.34615,-1.699728 -1.6463,3.359305 4.14923,0.803024 0.80307,-2.502753"
       style="fill:#ffffff;fill-opacity:1;fill-rule:nonzero;stroke:none;stroke-width:47.21624756"
       id="path7208"
       inkscape:connector-curvature="0" />
    <path
       d="m 409.33091,34.732905 -3.34615,-1.699728 -1.64631,3.359305 2.50293,0.803024 2.50291,-2.502753"
       style="fill:#ffffff;fill-opacity:1;fill-rule:nonzero;stroke:none;stroke-width:47.21624756"
       id="path7210"
       inkscape:connector-curvature="0" />
    <path
       d="m 353.51982,34.732905 -2.50291,-1.699728 -1.6463,3.359305 3.306,0.803024 0.80306,-2.502753"
       style="fill:#ffffff;fill-opacity:1;fill-rule:nonzero;stroke:none;stroke-width:47.21624756"
       id="path7212"
       inkscape:connector-curvature="0" />
    <path
       d="m 462.64041,-6.9572373 -3.30599,-3.3057667 -2.50293,1.659577 v 4.1489424 l 2.50293,0.803014 c 1.20461,-0.401507 2.5966,-1.5524991 3.30599,-2.5027427 v -0.803024"
       style="fill:#ffffff;fill-opacity:1;fill-rule:nonzero;stroke:none;stroke-width:47.21624756"
       id="path7214"
       inkscape:connector-curvature="0" />
    <path
       d="m 410.18083,-6.9572373 -3.34615,-3.3057667 -2.50291,1.659577 v 4.1489424 l 2.50291,0.803014 2.50291,-0.803014 0.80309,-2.5027527"
       style="fill:#ffffff;fill-opacity:1;fill-rule:nonzero;stroke:none;stroke-width:47.21624756"
       id="path7216"
       inkscape:connector-curvature="0" />
    <path
       d="m 358.52433,-6.9572373 -3.34615,-3.3057667 -2.50291,1.659577 v 4.1489424 l 2.50291,0.803014 2.50292,-0.803014 0.80308,-2.5027527"
       style="fill:#ffffff;fill-opacity:1;fill-rule:nonzero;stroke:none;stroke-width:47.21624756"
       id="path7218"
       inkscape:connector-curvature="0" />
    <path
       d="m 459.33442,-48.600534 -0.80308,-2.502753 -2.50293,-0.803014 h -2.50291 l -2.50292,2.502743 v 2.502752 l 2.50292,2.502743 h 2.50291 l 2.50293,-0.803024 0.80308,-3.345919"
       style="fill:#ffffff;fill-opacity:1;fill-rule:nonzero;stroke:none;stroke-width:47.21624756"
       id="path7220"
       inkscape:connector-curvature="0" />
    <path
       d="m 455.98157,-90.243832 -1.6463,-2.502752 -5.00584,-0.803014 -1.64631,2.502742 v 2.502743 l 1.64631,2.502753 h 3.34615 l 2.50292,-0.803024 0.80307,-3.345919"
       style="fill:#ffffff;fill-opacity:1;fill-rule:nonzero;stroke:none;stroke-width:47.21624756"
       id="path7222"
       inkscape:connector-curvature="0" />
    <path
       d="m 451.82699,-131.88714 -0.80307,-2.54289 -2.44938,-0.80303 h -2.50292 l -1.69984,2.50276 v 2.50274 l 1.69984,2.50275 h 2.50292 l 2.44938,-0.80302 0.80307,-3.30577"
       style="fill:#ffffff;fill-opacity:1;fill-rule:nonzero;stroke:none;stroke-width:47.21624756"
       id="path7224"
       inkscape:connector-curvature="0" />
    <path
       d="m 448.52234,-173.57862 -0.80307,-2.50274 -2.50293,-0.80303 h -3.35953 l -1.6463,2.50276 v 2.50274 l 1.6463,2.50275 h 3.35953 l 2.50293,-0.80302 0.80307,-3.35931"
       style="fill:#ffffff;fill-opacity:1;fill-rule:nonzero;stroke:none;stroke-width:47.21624756"
       id="path7226"
       inkscape:connector-curvature="0" />
    <path
       d="m 411.03075,-173.57862 -0.80307,-2.50274 -2.50293,-0.80303 h -2.50291 l -2.50291,2.50276 v 2.50274 l 2.50291,2.50275 h 2.50291 l 2.50293,-0.80302 0.80307,-3.35931"
       style="fill:#ffffff;fill-opacity:1;fill-rule:nonzero;stroke:none;stroke-width:47.21624756"
       id="path7228"
       inkscape:connector-curvature="0" />
    <path
       d="m 411.03075,-131.88714 -0.80307,-2.54289 -2.50293,-0.80303 h -2.50291 l -2.50291,2.50276 v 2.50274 l 2.50291,2.50275 h 2.50291 l 2.50293,-0.80302 0.80307,-3.30577"
       style="fill:#ffffff;fill-opacity:1;fill-rule:nonzero;stroke:none;stroke-width:47.21624756"
       id="path7230"
       inkscape:connector-curvature="0" />
    <path
       d="m 411.03075,-90.243832 -0.80307,-2.502752 -2.50293,-0.803014 h -2.50291 l -2.50291,2.502742 v 2.502743 l 2.50291,2.502753 h 2.50291 l 2.50293,-0.803024 0.80307,-3.345919"
       style="fill:#ffffff;fill-opacity:1;fill-rule:nonzero;stroke:none;stroke-width:47.21624756"
       id="path7232"
       inkscape:connector-curvature="0" />
    <path
       d="m 411.03075,-48.600534 -0.80307,-2.502753 -2.50293,-0.803014 h -2.50291 l -2.50291,2.502743 v 2.502752 l 2.50291,2.502743 h 2.50291 l 2.50293,-0.803024 0.80307,-3.345919"
       style="fill:#ffffff;fill-opacity:1;fill-rule:nonzero;stroke:none;stroke-width:47.21624756"
       id="path7234"
       inkscape:connector-curvature="0" />
    <path
       d="m 362.68025,-48.600534 -0.80308,-2.502753 -2.44938,-0.803014 h -2.50291 l -1.69985,2.502743 v 2.502752 l 1.69985,2.502743 h 2.50291 l 2.44938,-0.803024 0.80308,-3.345919"
       style="fill:#ffffff;fill-opacity:1;fill-rule:nonzero;stroke:none;stroke-width:47.21624756"
       id="path7236"
       inkscape:connector-curvature="0" />
    <path
       d="m 366.88167,-90.243832 -1.69984,-2.502752 -2.50292,-0.803014 h -2.50292 l -1.6463,2.502742 v 2.502743 l 1.6463,2.502753 h 3.35953 l 2.50292,-0.803024 0.80308,-3.345919"
       style="fill:#ffffff;fill-opacity:1;fill-rule:nonzero;stroke:none;stroke-width:47.21624756"
       id="path7238"
       inkscape:connector-curvature="0" />
    <path
       d="m 370.18767,-131.88714 -0.80308,-2.54289 -2.44938,-0.80303 h -3.34615 l -1.69984,2.50276 v 2.50274 l 2.55646,2.50275 h 2.50292 l 2.44938,-0.80302 0.80306,-3.30577"
       style="fill:#ffffff;fill-opacity:1;fill-rule:nonzero;stroke:none;stroke-width:47.21624756"
       id="path7240"
       inkscape:connector-curvature="0" />
    <path
       d="m 373.53917,-173.57862 -0.80307,-2.50274 -2.50293,-0.80303 h -2.50292 l -1.6463,2.50276 v 2.50274 l 1.6463,2.50275 h 2.50292 l 2.50293,-0.80302 0.80307,-3.35931"
       style="fill:#ffffff;fill-opacity:1;fill-rule:nonzero;stroke:none;stroke-width:47.21624756"
       id="path7242"
       inkscape:connector-curvature="0" />
    <path
       d="M 656.8,118.01951 V 149.7 H 290.2 v -30.83063 l 0.80307,-5.0055 c 1.69984,-2.22169 4.9523,-4.72443 7.45522,-5.84866 H 573.40863 V -325.1795 c -1.20462,-2.44921 -2.26199,-5.38024 -4.14922,-7.50824 l -4.14923,-0.80302 H 423.45567 c -2.44938,1.20453 -5.38061,2.26184 -7.50875,4.14894 l -0.80308,4.14894 v 16.66802 l 20.82374,20.82098 h -58.31399 l 20.82241,-20.82098 v -24.9766 l 0.26769,-1.94064 0.53539,-3.92142 3.35953,-5.00549 c 2.16831,-2.35553 5.19323,-3.7742 8.07092,-5.00549 1.20461,-0.53535 3.02492,-1.20453 4.44368,-0.80303 h 158.2755 c 6.85292,0 18.98069,9.0206 16.66783,16.6667 v 441.50328 c 8.96768,0 55.19673,-1.07068 60.81559,0.80303 2.31552,1.79341 4.67122,6.46431 5.84906,9.15443"
       style="fill:#ffffff;fill-opacity:1;fill-rule:nonzero;stroke:none;stroke-width:47.21624756"
       id="path7244"
       inkscape:connector-curvature="0" />
  </g>
</svg>
