<?xml version="1.0" encoding="UTF-8" standalone="no"?>
<!-- Created with Inkscape (http://www.inkscape.org/) -->

<svg
   xmlns:dc="http://purl.org/dc/elements/1.1/"
   xmlns:cc="http://creativecommons.org/ns#"
   xmlns:rdf="http://www.w3.org/1999/02/22-rdf-syntax-ns#"
   xmlns:svg="http://www.w3.org/2000/svg"
   xmlns="http://www.w3.org/2000/svg"
   xmlns:sodipodi="http://sodipodi.sourceforge.net/DTD/sodipodi-0.dtd"
   xmlns:inkscape="http://www.inkscape.org/namespaces/inkscape"
   width="602mm"
   height="602mm"
   viewBox="0 0 602 601.99999"
   version="1.1"
   id="svg8781"
   inkscape:version="0.92.2 (5c3e80d, 2017-08-06)"
   sodipodi:docname="11.svg">
  <defs
     id="defs8775">
    <pattern
       y="0"
       x="0"
       height="6"
       width="6"
       patternUnits="userSpaceOnUse"
       id="EMFhbasepattern" />
    <pattern
       y="0"
       x="0"
       height="6"
       width="6"
       patternUnits="userSpaceOnUse"
       id="EMFhbasepattern-2" />
    <pattern
       y="0"
       x="0"
       height="6"
       width="6"
       patternUnits="userSpaceOnUse"
       id="EMFhbasepattern-6" />
  </defs>
  <sodipodi:namedview
     id="base"
     pagecolor="#ffffff"
     bordercolor="#666666"
     borderopacity="1.0"
     inkscape:pageopacity="0.0"
     inkscape:pageshadow="2"
     inkscape:zoom="0.21461795"
     inkscape:cx="377.54689"
     inkscape:cy="1621.9435"
     inkscape:document-units="mm"
     inkscape:current-layer="layer1"
     showgrid="false"
     showguides="false"
     inkscape:window-width="1920"
     inkscape:window-height="1057"
     inkscape:window-x="-8"
     inkscape:window-y="-8"
     inkscape:window-maximized="1"
     inkscape:snap-global="false"
     inkscape:measure-start="0,0"
     inkscape:measure-end="0,0"
     fit-margin-top="0"
     fit-margin-left="0"
     fit-margin-right="0"
     fit-margin-bottom="0" />
  <metadata
     id="metadata8778">
    <rdf:RDF>
      <cc:Work
         rdf:about="">
        <dc:format>image/svg+xml</dc:format>
        <dc:type
           rdf:resource="http://purl.org/dc/dcmitype/StillImage" />
        <dc:title></dc:title>
      </cc:Work>
    </rdf:RDF>
  </metadata>
  <g
     inkscape:label="Layer 1"
     inkscape:groupmode="layer"
     id="layer1"
     transform="translate(-179.2,397.3)">
    <path
       d="m 197.40882,154.5619 c -1.3527,-9.4252 -16.1876,-104.27769 -16.1876,-105.83379 V -62.10583 c 0,-38.5793 -4.35,-74.09291 6.5912,-107.76701 11.4584,-35.1367 -21.8479,-121.77655 0,-151.8196 84.9634,-116.72832 153.6449,-53.7184 258.4906,-63.85886 38.7849,-3.77009 70.8804,-10.74876 110.7885,-10.74876 17.124,0 37.5687,9.05088 54.9725,10.74876 77.5711,-17.92128 118.6489,-11.36374 158.6499,44.4282 6.0873,32.82516 -3.5542,90.45936 -3.5542,122.67086 0,17.3572 -9.6415,38.5806 -11.4584,56.2666 -9.363,90.59971 43.1825,193.13275 17.2168,281.84744 -9.8272,98.0049 -123.9816,73.8109 -215.8213,73.8109 -17.1239,0 -54.5521,10.2273 -72.05,10.2273 -53.897,0 -92.8688,-20.9881 -145.1293,-20.9881 -10.0526,0 -34.2466,10.468 -44.0711,8.6364 -46.1771,0 -92.028,7.6872 -98.4376,-36.7878"
       style="fill:#782d00;fill-opacity:1;fill-rule:nonzero;stroke:none;stroke-width:46.97400665"
       id="path6282"
       inkscape:connector-curvature="0" />
    <path
       d="m 282.2,34.889825 0.27595,-2.235304 0.55189,-4.429223 c 0.82784,-3.021809 4.1392,-7.354444 6.66411,-9.148215 1.10378,-1.904152 10.99645,-7.685595 13.34199,-9.2034 26.38048,-16.2584195 58.21365,-29.499184 88.29455,-36.653548 l -2.48352,28.3290874 c -15.13841,3.408156 -30.90874,10.1692826 -44.19694,18.3516156 -3.1182,0.827889 -6.76069,3.794503 -8.31977,6.664527 l -1.10379,3.311577 c -0.5519,4.429223 0.68987,8.416905 1.94542,10.859178 6.37436,5.008749 17.61917,10.803994 25.84512,10.803994 h 10.03066 l 3.31135,-0.827889 h 5.00843 c 2.13858,-0.41395 5.35336,-1.807563 7.49195,-2.483678 l 10.03064,38.307958 c -8.18181,4.139456 -20.20065,5.836638 -29.20478,5.836638 -8.2232,0 -17.23009,-1.241839 -25.01867,-4.18086 -18.49531,-3.601324 -44.14728,-23.121647 -54.95195,-38.309326 -2.86985,-4.18086 -5.93285,-10.224468 -7.49194,-14.991754"
       style="fill:#ffffff;fill-opacity:1;fill-rule:nonzero;stroke:none;stroke-width:48.67542648"
       id="path5896"
       inkscape:connector-curvature="0" />
    <path
       d="m 473.82954,-94.299995 -2.48352,-1.655778 c -1.40733,2.387088 -2.38692,3.697913 -1.65567,4.180849 1.24175,2.773436 2.48351,6.623144 4.13919,9.148215 2.33174,3.559931 12.74872,13.770607 16.69476,15.819634 l 9.97545,5.836638 c 0.68987,0.275966 5.44994,2.428492 5.83626,2.483677 h 4.96704 l 1.69707,4.18086 c -17.61917,6.029817 -33.92483,11.093751 -49.15983,17.523716 0.27594,9.686337 0.82784,19.47065 1.65567,29.1569869 21.46587,-8.7204639 44.09898,-18.7890129 66.63414,-24.1923879 4.77387,-4.718991 8.37498,-10.66601 8.37498,-17.475431 0,-6.664528 -3.50453,-13.824415 -8.37498,-18.350227 -2.29035,-1.241839 -5.06362,-3.214978 -7.49194,-4.18086 -3.21478,-1.241839 -9.74091,-2.097321 -13.34201,-1.655779 -5.00841,0.04829 -17.37634,-1.697182 -20.7829,-5.836638 l -2.82845,-1.945556 -5.54652,-3.891092 c -2.58008,-2.19391 -5.89145,-6.719723 -8.31977,-9.148205"
       style="fill:#ffffff;fill-opacity:1;fill-rule:nonzero;stroke:none;stroke-width:48.67542648"
       id="path5898"
       inkscape:connector-curvature="0" />
    <path
       d="M 444.67306,-337.63542 C 436.89137,-342.35443 425.3982,-344.3 416.3444,-344.3 c -7.93346,0 -19.27484,4.71901 -25.84513,9.20344 -0.68986,0.96589 -1.94542,2.23527 -2.48351,3.31152 l -0.82784,3.31161 c 0,1.10381 0.55189,3.02181 0.82784,4.18084 l 2.48351,2.52508 c 5.25679,2.92524 10.85849,12.21137 10.85849,18.30328 0,6.95428 -2.77326,14.31011 -6.66411,20.00602 -10.95506,13.97074 -16.69474,33.24684 -16.69474,50.8188 0,21.85641 6.6227,35.33994 16.69474,54.17731 15.18671,20.83391 23.12017,47.65482 23.31471,73.35673 0.27595,10.224471 -1.24176,21.806681 -4.18059,31.63928 -3.11819,20.737325 -6.27777,41.619524 -8.31978,62.501723 0.5519,5.0087496 -1.10378,15.4305304 -1.65567,20.833915 -0.27595,5.505477 -0.82785,11.19034 -0.82785,16.695817 0,7.83738 1.10379,16.258429 1.65568,24.144103 2.38694,32.174652 21.12369,61.088792 44.14727,82.507742 12.01747,8.91363 27.20831,15.62507 41.71344,19.12982 7.6851,1.80757 17.1335,3.35297 24.96899,3.35297 5.50514,0 11.18962,-0.55193 16.64646,-0.8279 10.12723,0 31.05501,-6.56794 40.8373,-10.03129 17.32805,-6.9681 37.81982,-17.13461 50.03735,-31.64066 21.17336,-16.306716 32.75758,-43.711326 33.34121,-69.99691 L 657.2,39.85028 c -0.55188,-3.159793 -2.92502,-7.547622 -5.00842,-9.976104 -8.2232,-8.513485 -25.84513,-15.478825 -37.52731,-15.819634 -3.98743,-2.525071 -55.43901,-4.180859 -63.32416,-4.180859 -29.83808,0 -59.86932,3.214977 -89.17068,9.2034 -0.27595,3.504745 -0.82784,7.299248 -0.82784,10.803993 0,12.942718 2.33175,27.550871 8.37497,39.135847 l 20.83257,-9.148205 c 14.69965,-7.933969 46.67771,-14.991754 63.27588,-14.991754 h 19.17688 c 5.93284,0 13.24542,1.752378 19.17827,2.483678 2.13858,1.103856 9.68571,5.54688 10.85848,7.547622 l 1.10379,3.891092 c 0.13797,0.689906 0.55189,1.103856 0.55189,1.904152 v 5.836638 l -1.65568,5.008749 C 579.96678,97.00658 544.28967,114.18948 509.68187,113.2167 l -19.1286,-6.66452 c -15.5275,-5.20193 -30.71283,-19.372686 -35.87302,-34.997772 -2.77327,-4.91216 -4.71868,-13.729213 -5.83627,-19.179494 -2.29035,-5.105339 -3.31136,-18.837308 -3.31136,-24.142726 0,-6.085002 0.5519,-12.321788 0.82784,-18.351605 l 4.18059,-62.501724 c 3.02162,-47.801119 23.70518,-96.672929 54.17516,-133.326569 9.05105,-9.0102 14.99079,-30.08137 14.99079,-42.4943 v -12.51496 c 0,-2.09736 -6.33297,-20.34679 -7.49194,-23.36444 -8.85788,-26.86929 -43.90307,-58.60651 -67.51027,-73.30717"
       style="fill:#ffffff;fill-opacity:1;fill-rule:nonzero;stroke:none;stroke-width:48.67542648"
       id="path5900"
       inkscape:connector-curvature="0" />
    <path
       d="m 409.67616,-327.60827 h 6.66411 l 2.48351,-0.82788 0.82784,-2.48373 -1.65568,-2.48364 -1.65567,-0.82788 h -6.66411 c -0.96581,0.68986 -2.19377,2.1387 -2.48352,3.31152 l 0.82785,2.48373 1.65567,0.82788"
       style="fill:#782d00;fill-opacity:1;fill-rule:nonzero;stroke:none;stroke-width:48.67542648"
       id="path5902"
       inkscape:connector-curvature="0" />
  </g>
</svg>
