<?xml version="1.0" encoding="UTF-8" standalone="no"?>
<!-- Created with Inkscape (http://www.inkscape.org/) -->

<svg
   xmlns:dc="http://purl.org/dc/elements/1.1/"
   xmlns:cc="http://creativecommons.org/ns#"
   xmlns:rdf="http://www.w3.org/1999/02/22-rdf-syntax-ns#"
   xmlns:svg="http://www.w3.org/2000/svg"
   xmlns="http://www.w3.org/2000/svg"
   xmlns:sodipodi="http://sodipodi.sourceforge.net/DTD/sodipodi-0.dtd"
   xmlns:inkscape="http://www.inkscape.org/namespaces/inkscape"
   width="978mm"
   height="602mm"
   viewBox="0 0 978 602.00001"
   version="1.1"
   id="svg8781"
   inkscape:version="0.92.2 (5c3e80d, 2017-08-06)"
   sodipodi:docname="22.svg">
  <defs
     id="defs8775">
    <pattern
       y="0"
       x="0"
       height="6"
       width="6"
       patternUnits="userSpaceOnUse"
       id="EMFhbasepattern" />
    <pattern
       y="0"
       x="0"
       height="6"
       width="6"
       patternUnits="userSpaceOnUse"
       id="EMFhbasepattern-3" />
    <pattern
       y="0"
       x="0"
       height="6"
       width="6"
       patternUnits="userSpaceOnUse"
       id="EMFhbasepattern-2" />
    <pattern
       y="0"
       x="0"
       height="6"
       width="6"
       patternUnits="userSpaceOnUse"
       id="EMFhbasepattern-33" />
    <pattern
       y="0"
       x="0"
       height="6"
       width="6"
       patternUnits="userSpaceOnUse"
       id="EMFhbasepattern-1" />
    <pattern
       y="0"
       x="0"
       height="6"
       width="6"
       patternUnits="userSpaceOnUse"
       id="EMFhbasepattern-4" />
    <pattern
       y="0"
       x="0"
       height="6"
       width="6"
       patternUnits="userSpaceOnUse"
       id="EMFhbasepattern-7" />
    <pattern
       y="0"
       x="0"
       height="6"
       width="6"
       patternUnits="userSpaceOnUse"
       id="EMFhbasepattern-71" />
    <pattern
       y="0"
       x="0"
       height="6"
       width="6"
       patternUnits="userSpaceOnUse"
       id="EMFhbasepattern-0" />
  </defs>
  <sodipodi:namedview
     id="base"
     pagecolor="#ffffff"
     bordercolor="#666666"
     borderopacity="1.0"
     inkscape:pageopacity="0.0"
     inkscape:pageshadow="2"
     inkscape:zoom="0.18958994"
     inkscape:cx="1312.1703"
     inkscape:cy="1472.9351"
     inkscape:document-units="mm"
     inkscape:current-layer="layer1"
     showgrid="false"
     showguides="true"
     inkscape:window-width="1920"
     inkscape:window-height="1057"
     inkscape:window-x="-8"
     inkscape:window-y="-8"
     inkscape:window-maximized="1"
     inkscape:snap-global="false"
     fit-margin-top="0"
     fit-margin-left="0"
     fit-margin-right="0"
     fit-margin-bottom="0" />
  <metadata
     id="metadata8778">
    <rdf:RDF>
      <cc:Work
         rdf:about="">
        <dc:format>image/svg+xml</dc:format>
        <dc:type
           rdf:resource="http://purl.org/dc/dcmitype/StillImage" />
        <dc:title></dc:title>
      </cc:Work>
    </rdf:RDF>
  </metadata>
  <g
     inkscape:label="Layer 1"
     inkscape:groupmode="layer"
     id="layer1"
     transform="translate(-84.340927,375.44855)">
    <path
       d="m 223.30195,214.60415 -90.8552,-45.4375 c -4.3649,-8.6365 -45.427597,-89.29177 -45.427597,-90.87497 v -112.7546 c 0,-39.2477 -6.1462,-187.843 5.0856,-222.102 24.656897,-75.1852 -4.9904,-111.2177 153.936797,-106.9484 34.2026,0.952 78.4785,3.3593 113.5445,0 17.8934,-1.7273 38.8558,-10.9351 56.4133,-10.9351 h 56.3643 c 12.1428,0 125.9702,14.7786 130.4316,20.1999 14.343,-17.3696 105.1016,-6.814 130.3827,-9.2621 17.8444,-1.7273 38.8558,-10.9351 56.4119,-10.9351 h 56.3657 c 17.8444,0 39.0951,9.167 57.2278,10.9351 58.763,5.6579 96.5635,0.544 135.46695,57.1926 7.1524,33.1071 22.6907,79.7918 22.6907,112.8022 0,17.8497 -9.2058,39.105 -10.9327,57.2416 -8.825,91.5944 16.501,193.8411 -11.7485,282.74937 -12.4284,52.1549 -36.2654,72.0189 -135.46695,79.0722 h -57.2278 c -17.5575,0 -38.5199,-9.1669 -56.3657,-10.935 -61.5926,-5.9435 -130.622,0 -192.696,0 l -6.7173,-3.3594 c -1.8221,4.2163 -55.2126,14.2985 -61.4486,14.2985 h -56.3656 c -17.5562,0 -38.5199,-9.1669 -56.3644,-10.935 -61.5451,-5.9436 -130.622,0 -192.696,0"
       style="fill:#782d00;fill-opacity:1;fill-rule:nonzero;stroke:none;stroke-width:47.97531128"
       id="path6315"
       inkscape:connector-curvature="0" />
    <path
       d="m 354.17577,-184.36856 h 69.24974 v 49.56795 h 394.0632 L 961.07238,7.9120803 c 2.44694,2.4459937 4.26855,6.7128897 4.26855,10.2595727 v 5.93832 c 0,0.815338 -0.54377,1.223002 -0.81564,2.011151 l -1.67209,3.981525 c -2.88195,4.307664 -9.39352,7.664109 -14.57967,7.664109 H 916.66995 V 180.47943 H 788.48161 V 27.508544 c -0.54376,-1.481185 -0.95158,-4.606614 -1.72644,-5.93832 -0.95159,-1.780136 -5.89984,-6.903127 -7.66709,-7.664109 l -5.12497,-0.815328 c -24.89081,0 -51.45912,-2.690587 -76.10796,0.815328 -3.54806,1.72579 -8.5371,9.68884 -8.5371,13.61466 V 180.49165 H 453.36924 V 27.520775 c -0.40782,-1.481186 -0.95159,-4.606615 -1.67208,-5.938321 -1.35941,-2.391636 -5.36967,-6.23728 -7.66707,-7.664109 l -5.995,-0.815327 h -69.24973 c -7.76225,0 -14.53075,6.563409 -14.53075,14.477548 V 180.55145 H 226.06492 V 37.838781 h -31.65115 c -5.13858,0 -11.65015,-3.356445 -14.53075,-7.664109 l -1.72645,-3.981526 c -0.27188,-0.815327 -0.81564,-1.08711 -0.81564,-2.011151 v -5.93832 c 0,-3.546682 1.82161,-7.813579 4.26854,-10.2595724 L 325.19178,-134.72857 h 29.06283 v -49.56805"
       style="fill:#ffffff;fill-opacity:1;fill-rule:nonzero;stroke:none;stroke-width:47.94768524"
       id="path7728"
       inkscape:connector-curvature="0" />
    <path
       d="m 745.64931,-277.46569 4.26854,2.54108 1.72646,4.26688 v 4.30765 l -1.72646,4.26699 c -1.44097,1.57623 -4.6084,3.35641 -6.81064,3.39718 -12.90081,1.82084 -25.80161,3.98151 -38.46181,6.80796 -5.2745,12.80075 -10.26355,29.67396 -10.26355,43.57534 0,11.74081 2.92274,36.43305 9.39353,46.16537 l 3.41213,7.66407 h -18.7993 c -14.91408,-36.28897 -21.96399,-69.17527 -68.3865,-69.17527 -27.62322,0 -62.58455,20.7583 -81.1908,40.1251 -1.08752,1.6306 -4.21418,3.39718 -5.995,4.30766 l -6.81065,-0.81535 c -2.35178,-1.22302 -5.42404,-2.78567 -6.86502,-5.13659 l -1.72646,-5.123 c 0,-1.53547 0.67971,-3.64179 0.81566,-5.12301 7.91177,-23.58612 21.62822,-45.63809 40.18689,-62.3686 10.07323,-8.38439 24.93839,-17.68865 37.59858,-21.3807 25.70509,-10.64008 53.61651,-13.66227 81.19079,-13.66227 19.66252,0 50.49938,6.9983 68.38651,15.38799"
       style="fill:#ffffff;fill-opacity:1;fill-rule:nonzero;stroke:none;stroke-width:47.94768524"
       id="path7730"
       inkscape:connector-curvature="0" />
    <path
       d="m 780.70579,-155.27083 c 8.87695,-31.78288 52.84845,-93.57545 86.32256,-99.136 9.0129,3.83203 18.84688,9.29476 26.51939,15.38799 7.00096,5.51708 19.27916,23.05895 28.19961,23.05895 4.74435,0 12.42501,-5.27248 12.80564,-10.25959 3.11306,-38.54207 -36.92702,-74.40028 -69.20214,-88.82884 -10.3995,-4.64738 -23.06784,-8.05826 -34.19326,-10.2596 -16.68948,-5.70733 -44.79257,-7.09333 -62.39286,-6.84882 -30.54732,-1.67136 -69.44141,4.07674 -99.17444,11.11571 -4.45887,1.35891 -20.81394,5.32684 -23.93106,7.66407 l -1.72646,3.41087 v 3.45155 l 1.72646,3.41076 c 0.95158,0.67946 3.83353,2.16068 5.13857,1.72582 15.2988,-2.97602 31.4119,-4.26688 46.9989,-4.26688 19.51841,0 40.76328,3.60101 59.84941,7.66407 9.97807,24.30365 16.25855,50.57493 16.25855,76.89239 0,22.67576 -5.32889,45.44515 -12.84644,66.63429 l 19.66116,-0.81534"
       style="fill:#ffffff;fill-opacity:1;fill-rule:nonzero;stroke:none;stroke-width:47.94768524"
       id="path7732"
       inkscape:connector-curvature="0" />
    <path
       d="m 786.70079,-291.12796 c 14.43422,-1.53547 36.01486,4.41637 47.86076,12.80077 3.20822,2.25569 6.47079,5.84312 9.39353,8.53377 -13.86055,9.8791 -38.27012,30.82354 -47.86076,46.16396 1.22346,-7.14767 1.72645,-15.05235 1.72645,-22.2436 0,-15.24391 -5.70953,-31.15918 -11.13358,-45.2535"
       style="fill:#782d00;fill-opacity:1;fill-rule:nonzero;stroke:none;stroke-width:47.94768524"
       id="path7734"
       inkscape:connector-curvature="0" />
    <path
       d="m 678.98925,-215.95989 c -6.13094,-10.31395 -21.2938,-20.9975 -33.33002,-22.19604 7.24565,-6.1286 18.51109,-11.98531 28.19825,-11.98531 h 11.99 c -5.02982,9.63449 -6.86502,23.39318 -6.86502,34.17995"
       style="fill:#782d00;fill-opacity:1;fill-rule:nonzero;stroke:none;stroke-width:47.94768524"
       id="path7736"
       inkscape:connector-curvature="0" />
  </g>
</svg>
