<?xml version="1.0" encoding="UTF-8" standalone="no"?>
<!-- Created with Inkscape (http://www.inkscape.org/) -->

<svg
   xmlns:dc="http://purl.org/dc/elements/1.1/"
   xmlns:cc="http://creativecommons.org/ns#"
   xmlns:rdf="http://www.w3.org/1999/02/22-rdf-syntax-ns#"
   xmlns:svg="http://www.w3.org/2000/svg"
   xmlns="http://www.w3.org/2000/svg"
   xmlns:sodipodi="http://sodipodi.sourceforge.net/DTD/sodipodi-0.dtd"
   xmlns:inkscape="http://www.inkscape.org/namespaces/inkscape"
   width="978mm"
   height="602mm"
   viewBox="0 0 978 602.00001"
   version="1.1"
   id="svg8781"
   inkscape:version="0.92.2 (5c3e80d, 2017-08-06)"
   sodipodi:docname="22.svg">
  <defs
     id="defs8775" />
  <sodipodi:namedview
     id="base"
     pagecolor="#ffffff"
     bordercolor="#666666"
     borderopacity="1.0"
     inkscape:pageopacity="0.0"
     inkscape:pageshadow="2"
     inkscape:zoom="0.18958994"
     inkscape:cx="1553.5363"
     inkscape:cy="659.81702"
     inkscape:document-units="mm"
     inkscape:current-layer="layer1"
     showgrid="false"
     showguides="true"
     inkscape:window-width="1920"
     inkscape:window-height="1057"
     inkscape:window-x="-8"
     inkscape:window-y="-8"
     inkscape:window-maximized="1"
     inkscape:snap-global="true"
     fit-margin-top="0"
     fit-margin-left="0"
     fit-margin-right="0"
     fit-margin-bottom="0" />
  <metadata
     id="metadata8778">
    <rdf:RDF>
      <cc:Work
         rdf:about="">
        <dc:format>image/svg+xml</dc:format>
        <dc:type
           rdf:resource="http://purl.org/dc/dcmitype/StillImage" />
        <dc:title></dc:title>
      </cc:Work>
    </rdf:RDF>
  </metadata>
  <g
     inkscape:label="Layer 1"
     inkscape:groupmode="layer"
     id="layer1"
     transform="translate(-84.340927,375.44855)">
    <path
       d="m 223.30196,214.60415 -90.85521,-45.4375 c -4.3649,-8.6365 -45.427597,-89.29179 -45.427597,-90.87499 v -112.7546 c 0,-39.2477 -6.1462,-187.84311 5.0856,-222.10211 24.656897,-75.1852 -4.9904,-111.2177 153.936807,-106.9484 34.2026,0.952 78.4785,3.3593 113.5445,0 17.8934,-1.7273 38.8558,-10.9351 56.4133,-10.9351 h 56.3643 c 12.1428,0 125.9702,14.7786 130.4316,20.1999 14.343,-17.3696 105.1016,-6.814 130.3827,-9.2621 17.8444,-1.7273 38.8558,-10.9351 56.4119,-10.9351 h 56.3657 c 17.8444,0 39.0951,9.167 57.2278,10.9351 58.763,5.6579 96.5635,0.544 135.46694,57.1926 7.1524,33.1071 22.6907,79.7918 22.6907,112.8022 0,17.8497 -9.2058,39.105 -10.9327,57.2416 -8.825,91.59451 16.501,193.84121 -11.7485,282.7495 -12.4284,52.1549 -36.2654,72.0189 -135.46694,79.0722 h -57.2278 c -17.5575,0 -38.5199,-9.1669 -56.3657,-10.935 -61.5926,-5.9435 -130.622,0 -192.696,0 l -6.7173,-3.3594 c -1.8221,4.2163 -55.2126,14.2985 -61.4486,14.2985 h -56.3656 c -17.5562,0 -38.5199,-9.1669 -56.3644,-10.935 -61.5451,-5.9436 -130.622,0 -192.696,0"
       style="fill:#782d00;fill-opacity:1;fill-rule:nonzero;stroke:none;stroke-width:47.97531128"
       id="path6315"
       inkscape:connector-curvature="0" />
    <path
       d="m 749.7465,92.757299 c 17.84254,15.253411 49.88378,29.114591 73.53062,29.114591 h 16.25993 c 23.40753,0 54.43992,-13.52808 71.80388,-29.114591 v 63.265151 c -16.69229,14.72454 -49.25972,29.929 -71.80388,29.929 h -16.25993 c -23.311,0 -56.79075,-13.71706 -73.53062,-29.929 -15.39655,14.24459 -53.43244,29.929 -74.39399,29.929 h -17.0757 c -25.42117,0 -58.7568,-13.18818 -77.79854,-29.929 -24.89362,20.57627 -55.11159,29.929 -87.20043,29.929 -45.85517,0 -87.68037,-25.85289 -112.81466,-63.2638 C 363.24471,90.838895 348.3757,53.236288 346.26419,16.687378 L 307.74834,-222.6521 c -2.82805,-17.60281 -12.71262,-40.0499 -23.93372,-53.86348 -18.75486,-27.19619 -53.14557,-41.29662 -85.47369,-39.33067 16.45163,-21.39203 37.31664,-28.2023 63.26535,-28.2023 28.9236,0 69.06965,44.60594 82.06779,66.66962 6.47188,10.98561 10.89071,23.2139 15.39792,35.0615 l 1.72673,4.26916 55.54261,286.391343 c 10.17009,42.208949 48.87629,72.665467 92.33306,72.665467 5.84645,0 12.94376,-1.44118 18.80244,-2.58325 16.73987,-4.26916 39.90676,-14.197 53.00144,-25.661192 20.33748,15.780942 51.84983,29.114592 77.79854,29.114592 h 17.0757 c 24.5102,0 55.11159,-14.53282 74.39399,-29.114592"
       style="fill:#ffffff;fill-opacity:1;fill-rule:nonzero;stroke:none;stroke-width:47.96443176"
       id="path6480"
       inkscape:connector-curvature="0" />
    <path
       d="m 339.40618,-306.44457 c 11.12184,-9.92513 28.73051,-16.21193 43.59953,-16.21193 33.28802,0 59.81322,22.58983 66.67123,54.67787 l 68.39799,349.656506 c 0.27193,1.481972 -0.54385,4.554676 -0.81578,5.995859 -1.78113,1.726696 -5.27541,3.643741 -7.66836,4.214778 -24.98881,-0.951725 -51.75329,-19.521215 -61.5862,-42.399288 -1.57718,-3.738916 -4.07891,-8.103253 -4.21488,-12.277242 l -1.72674,-6.866005 c 0,-1.821871 2.48814,-10.550535 3.3991,-12.807479 2.01226,-2.256954 3.41269,-6.376557 3.41269,-9.3948757 l -0.81578,-5.1257129 -3.4127,-4.2691629 c -1.53639,-1.3867974 -5.56092,-3.2630533 -7.66837,-3.3990068 -1.87629,-0.5438439 -4.21487,-0.9517243 -5.99599,-1.726706 -1.38683,-0.5438439 -2.97761,-1.7674852 -4.26927,-2.583246 4.41883,-2.9775397 13.66981,-13.2425617 13.66981,-18.8019887 v -7.668169 c 0,-12.753094 -6.24075,-18.322038 -16.21234,-24.797838 2.58332,-2.923154 7.66837,-12.331626 7.66837,-16.211934 v -8.579115 c 0,-3.793301 -1.9171,-10.020288 -3.4127,-13.669467 2.29779,-0.04899 6.96136,-1.821867 8.53853,-3.412617 1.97148,-1.97143 3.39911,-6.66207 3.39911,-9.39487 0,-1.53635 -0.54387,-3.60295 -0.81579,-5.12571 -1.82192,-2.3929 -4.93549,-4.74502 -7.68196,-5.99586 -5.08505,-1.7267 -11.17623,-6.09103 -15.39655,-9.39487 l -26.4776,-133.33921 c -5.56093,-24.9406 -24.7495,-41.00843 -50.45891,-41.05601"
       style="fill:#ffffff;fill-opacity:1;fill-rule:nonzero;stroke:none;stroke-width:47.96443176"
       id="path6482"
       inkscape:connector-curvature="0" />
    <path
       d="m 538.60412,-11.514915 c 1.8763,2.6784305 3.79339,6.0910336 5.996,8.538326 l 5.08505,4.6090617 2.58332,2.2569436 c 3.45348,1.0876878 7.66836,9.4900507 7.66836,12.8074787 0,3.548577 -1.35964,8.252813 -3.41269,11.121572 l -7.66836,29.930358 c -0.40789,2.637632 0.27192,7.96728 1.68595,10.265022 l 3.45348,3.412603 5.13942,1.726697 h 5.12586 l 4.21487,-1.726697 c 4.55479,-3.072704 9.39511,-6.091033 13.71876,-9.394875 6.33591,-4.935364 16.21232,-19.186745 16.21232,-27.340295 0,-3.072714 -1.22367,-6.376556 -0.81578,-9.449261 L 541.13577,-265.37226 c -5.03067,-31.27229 -35.68644,-51.32104 -65.80788,-51.32104 -11.2714,0 -22.78347,5.84632 -32.5212,11.13519 2.88243,0.81576 6.81179,1.3868 9.44949,2.58324 4.1197,1.82187 16.45299,11.27114 18.80245,15.39618 7.8723,10.02029 12.61744,22.87807 16.25992,35.01255 l 23.93508,120.5331 c 12.52226,8.48393 28.20298,27.62717 28.20298,43.599821 v 11.121572 c 0,9.6396 -6.24074,22.351905 -11.99201,29.930349 l 10.26528,6.81162 7.72273,6.852408 c 0.81579,2.066605 2.20263,4.078825 3.4127,5.941474 v 5.139309 c -0.95175,2.01222 -4.1197,6.621281 -5.99601,7.722565 l -4.26926,3.399007"
       style="fill:#ffffff;fill-opacity:1;fill-rule:nonzero;stroke:none;stroke-width:47.96443176"
       id="path6484"
       inkscape:connector-curvature="0" />
    <path
       d="m 749.7465,62.875898 c 19.5217,15.925051 47.72468,29.881401 73.53062,29.881401 h 16.25993 c 22.54416,0 55.11159,-15.155518 71.80388,-29.881401 V 8.1490618 C 896.47191,21.915063 859.82694,37.216062 839.53705,37.216062 h -16.25993 c -23.74337,0 -55.59155,-13.766001 -73.53062,-29.0670002 -10.79553,9.1637382 -27.05274,17.0752822 -40.195,22.2077932 -3.16796,-0.271927 -6.28154,0.815761 -9.3951,0.815761 -0.81578,0 -1.22368,-0.271917 -1.97148,-0.543844 l -3.98373,-1.087678 C 688.8714,26.849068 682.58987,20.336567 682.20917,14.144921 L 627.52994,-267.11527 c -3.35832,-19.61639 -19.85753,-34.67809 -38.51721,-39.3293 l -6.81179,-1.68592 c -14.05324,0 -27.62787,3.60295 -38.46691,12.80749 5.08505,0.40788 11.84246,2.3929 16.21234,5.1257 7.00214,4.36434 13.37884,14.29218 15.39655,22.20643 l 34.19899,175.259936 c 4.1197,5.329648 7.66836,11.937333 7.66836,18.801978 0,7.341868 -2.58331,16.691876 -8.53852,21.392033 l 3.45347,0.815761 4.26927,4.309952 c 3.83419,2.256943 7.66837,14.627989 7.66837,18.801978 0,8.103253 -1.97148,17.889693 -7.66837,23.9331397 1.8763,2.5832459 5.42496,6.66206 6.81179,9.3948658 1.5364,2.9231546 3.11358,8.6878855 4.31006,11.9373325 0.81577,1.821881 2.54253,10.64571 2.54253,11.991728 0,0.271917 -1.5364,7.722555 -1.72676,8.538316 0.27194,3.303842 -0.81577,6.906794 -0.81577,10.265022 0,11.515856 6.14556,26.236301 16.21234,32.471456 7.53239,6.430932 19.37755,9.734774 29.06635,11.121572 7.77713,0.679797 15.54066,-0.951725 23.07171,-2.583256 16.59575,-4.214778 41.20112,-13.9577 53.86481,-25.613598"
       style="fill:#ffffff;fill-opacity:1;fill-rule:nonzero;stroke:none;stroke-width:47.96443176"
       id="path6486"
       inkscape:connector-curvature="0" />
  </g>
</svg>
