<?xml version="1.0" encoding="UTF-8" standalone="no"?>
<!-- Created with Inkscape (http://www.inkscape.org/) -->

<svg
   xmlns:dc="http://purl.org/dc/elements/1.1/"
   xmlns:cc="http://creativecommons.org/ns#"
   xmlns:rdf="http://www.w3.org/1999/02/22-rdf-syntax-ns#"
   xmlns:svg="http://www.w3.org/2000/svg"
   xmlns="http://www.w3.org/2000/svg"
   xmlns:sodipodi="http://sodipodi.sourceforge.net/DTD/sodipodi-0.dtd"
   xmlns:inkscape="http://www.inkscape.org/namespaces/inkscape"
   width="602mm"
   height="602mm"
   viewBox="0 0 602 602"
   version="1.1"
   id="svg8781"
   inkscape:version="0.92.2 (5c3e80d, 2017-08-06)"
   sodipodi:docname="11.svg">
  <defs
     id="defs8775" />
  <sodipodi:namedview
     id="base"
     pagecolor="#ffffff"
     bordercolor="#666666"
     borderopacity="1.0"
     inkscape:pageopacity="0.0"
     inkscape:pageshadow="2"
     inkscape:zoom="0.24748737"
     inkscape:cx="1164.0353"
     inkscape:cy="1193.1852"
     inkscape:document-units="mm"
     inkscape:current-layer="layer1"
     showgrid="false"
     showguides="false"
     inkscape:window-width="1920"
     inkscape:window-height="1057"
     inkscape:window-x="-8"
     inkscape:window-y="-8"
     inkscape:window-maximized="1" />
  <metadata
     id="metadata8778">
    <rdf:RDF>
      <cc:Work
         rdf:about="">
        <dc:format>image/svg+xml</dc:format>
        <dc:type
           rdf:resource="http://purl.org/dc/dcmitype/StillImage" />
        <dc:title></dc:title>
      </cc:Work>
    </rdf:RDF>
  </metadata>
  <g
     inkscape:label="Layer 1"
     inkscape:groupmode="layer"
     id="layer1"
     transform="translate(0,305)">
    <path
       d="M 18.208834,246.8619 C 16.856103,237.4367 2.021174,142.5842 2.021174,141.0281 V 30.1942 c 0,-38.5793 -4.349946,-74.0929 6.591244,-107.767 11.458405,-35.1367 -21.847897,-121.77652 0,-151.81957 84.963313,-116.72832 153.644812,-53.7184 258.490582,-63.85886 38.78486,-3.77009 70.88035,-10.74876 110.7885,-10.74876 17.12396,0 37.56873,9.05088 54.97252,10.74876 77.57104,-17.92128 118.64891,-11.36374 158.6499,44.4282 6.08728,32.82516 -3.55423,90.45936 -3.55423,122.67083 0,17.3572 -9.64151,38.5806 -11.45841,56.2666 -9.363,90.5997 43.18255,193.1327 17.21679,281.8474 -9.82717,98.0049 -123.98158,73.8109 -215.82126,73.8109 -17.12396,0 -54.55211,10.2273 -72.05007,10.2273 -53.89696,0 -92.86881,-20.9881 -145.12924,-20.9881 -10.05264,0 -34.24659,10.468 -44.07111,8.6364 -46.177127,0 -92.028006,7.6872 -98.437556,-36.7878"
       style="fill:#782d00;fill-opacity:1;fill-rule:nonzero;stroke:none;stroke-width:46.97400665"
       id="path6282"
       inkscape:connector-curvature="0" />
    <path
       inkscape:connector-curvature="0"
       id="path9383"
       style="fill:#ffffff;fill-opacity:1;fill-rule:nonzero;stroke:none;stroke-width:47.10604477"
       d="m 210.23229,-227.6332 c -3.3904,6.22462 -5.0323,13.94929 -5.0323,21.01678 0,19.60352 9.4639,38.68744 26.0411,49.52576 1.7887,1.33575 10.7854,5.89067 12.5741,5.89067 h 6.6875 c 14.974,0 20.2479,-18.18896 21.0021,-18.47214 0.5339,-3.91376 1.6952,-8.72247 1.6952,-12.5828 0,-21.81822 -7.1146,-42.22187 -23.4982,-57.11287 -1.9756,-1.88341 -9.9845,-6.73219 -12.6141,-6.73219 h -6.6875 c -4.0979,0 -15.3986,7.40007 -17.6117,10.92647"
       sodipodi:nodetypes="cscsscscssc" />
    <path
       inkscape:connector-curvature="0"
       id="path9385"
       style="fill:#ffffff;fill-opacity:1;fill-rule:nonzero;stroke:none;stroke-width:47.13768005"
       d="m 338.78419,-227.66074 c -4.5688,6.60218 -12.5842,23.95229 -12.5842,31.96713 v 11.73423 c 0,6.26806 2.3111,15.74767 4.1947,21.82996 6.2654,13.29792 18.5209,19.32943 32.7536,19.32943 6.8799,0 16.4476,-7.21696 21.019,-11.73424 9.2845,-9.2885 14.2327,-31.77734 14.2327,-44.55403 0,-6.64228 -2.3111,-15.74767 -4.9962,-21.82996 -3.9543,-8.3396 -14.6575,-18.4821 -24.3655,-18.4821 h -8.3894 c -2.8722,0 -12.8247,3.39465 -15.1291,4.99841 -1.9371,1.36321 -5.0363,5.03851 -6.7329,6.73583" />
    <path
       inkscape:connector-curvature="0"
       id="path9387"
       style="fill:#ffffff;fill-opacity:1;fill-rule:nonzero;stroke:none;stroke-width:47.15095901"
       d="m 470.70129,-126.94436 c 0.095,-9.52949 -5.1459,-20.22844 -13.4381,-25.22574 -2.3524,-1.41672 -6.5092,-2.44585 -9.2492,-3.06067 l -5.039,-1.06922 c -1.6039,0 -9.0487,2.44585 -10.9333,3.34133 -21.0299,8.20632 -36.8726,32.39224 -41.163,53.79816 -0.401,2.07163 -1.203,5.23921 -0.802,7.53805 -2.593,14.75801 13.5317,29.42246 27.7249,29.42246 23.0576,0 56.3935,-42.90675 52.9518,-64.68957" />
    <path
       inkscape:connector-curvature="0"
       id="path9389"
       style="fill:#ffffff;fill-opacity:1;fill-rule:nonzero;stroke:none;stroke-width:47.10512924"
       d="m 156.55399,-94.02739 c 5.2338,5.70202 12.4303,9.2274 20.1595,9.2274 25.8113,0 31.0865,-24.11944 31.0865,-45.31844 0,-14.51012 -8.9055,-42.49278 -21.006,-51.25415 -5.2338,-5.64862 -12.4303,-9.22741 -20.1596,-9.22741 -12.6706,0 -24.0221,7.86534 -27.6965,20.16276 -2.1229,7.9588 -3.3379,16.95918 -3.3379,25.20375 0,13.28693 9.8401,43.19787 20.9593,51.20742" />
    <path
       inkscape:connector-curvature="0"
       id="path9391"
       style="fill:#ffffff;fill-opacity:1;fill-rule:nonzero;stroke:none;stroke-width:47.1315155"
       d="m 156.62399,-36.219788 c -9.898,10.650048 -17.624,26.352528 -17.624,41.154358 V 16.667 c 0,5.70586 3.4463,12.72126 5.8907,17.67748 11.7814,23.57042 31.1485,36.95848 57.913,36.95848 14.326,0 36.2378,-7.87062 45.3797,-19.32777 5.7437,8.20468 23.3249,20.1763 33.5982,20.1763 h 10.085 c 9.8044,0 33.1281,-11.78588 36.9443,-21.02483 12.3958,14.56665 29.6872,21.87335 48.7244,21.87335 29.6404,0 56.2647,-28.04825 56.2647,-57.13477 0,-23.66396 -10.6994,-43.510205 -31.9018,-54.635958 -25.0695,-19.42131 -56.5466,-55.247972 -73.0873,-82.307382 -7.3065,-12.58764 -23.8913,-22.72189 -38.6407,-22.72189 -14.3247,0 -33.7866,10.60996 -40.2891,23.57042 -12.9568,21.5914 -70.9193,68.825775 -93.2558,84.004436" />
    <path
       style="fill:#ffffff;fill-opacity:1;fill-rule:nonzero;stroke:none;stroke-width:47.13855743"
       d="M 133.00009,-263.00023 49,39.50017 200.20009,158.79987 v 32.80005 h 201.6001 v -32.80005 l 151.2,-119.2997 -84,-302.5004 16.8,302.5004 -184.8001,101.69972 -184.8001,-101.69972 z"
       id="path9395"
       inkscape:connector-curvature="0"
       sodipodi:nodetypes="cccccccccccc" />
    <path
       style="opacity:1;fill:#ffffff;fill-opacity:1;fill-rule:nonzero;stroke:none;stroke-width:0.23296915;stroke-linecap:butt;stroke-linejoin:miter;stroke-miterlimit:4;stroke-dasharray:none;stroke-opacity:1;paint-order:stroke fill markers"
       d="m 200.19999,208.4 h 201.6 V 242 h -201.6 z"
       id="rect9397"
       inkscape:connector-curvature="0" />
  </g>
</svg>
