<?xml version="1.0" encoding="UTF-8" standalone="no"?>
<!-- Created with Inkscape (http://www.inkscape.org/) -->

<svg
   xmlns:dc="http://purl.org/dc/elements/1.1/"
   xmlns:cc="http://creativecommons.org/ns#"
   xmlns:rdf="http://www.w3.org/1999/02/22-rdf-syntax-ns#"
   xmlns:svg="http://www.w3.org/2000/svg"
   xmlns="http://www.w3.org/2000/svg"
   xmlns:sodipodi="http://sodipodi.sourceforge.net/DTD/sodipodi-0.dtd"
   xmlns:inkscape="http://www.inkscape.org/namespaces/inkscape"
   width="600mm"
   height="600mm"
   viewBox="0 0 600 600"
   version="1.1"
   id="svg850"
   inkscape:version="0.92.2 (5c3e80d, 2017-08-06)"
   sodipodi:docname="22.svg">
  <defs
     id="defs844" />
  <sodipodi:namedview
     id="base"
     pagecolor="#ffffff"
     bordercolor="#666666"
     borderopacity="1.0"
     inkscape:pageopacity="0.0"
     inkscape:pageshadow="2"
     inkscape:zoom="0.175"
     inkscape:cx="729.71879"
     inkscape:cy="653.04453"
     inkscape:document-units="mm"
     inkscape:current-layer="layer1"
     showgrid="false"
     fit-margin-top="0"
     fit-margin-left="0"
     fit-margin-right="0"
     fit-margin-bottom="0"
     inkscape:window-width="1920"
     inkscape:window-height="1057"
     inkscape:window-x="-8"
     inkscape:window-y="-8"
     inkscape:window-maximized="1" />
  <metadata
     id="metadata847">
    <rdf:RDF>
      <cc:Work
         rdf:about="">
        <dc:format>image/svg+xml</dc:format>
        <dc:type
           rdf:resource="http://purl.org/dc/dcmitype/StillImage" />
        <dc:title></dc:title>
      </cc:Work>
    </rdf:RDF>
  </metadata>
  <g
     inkscape:label="Layer 1"
     inkscape:groupmode="layer"
     id="layer1"
     transform="translate(0,303)">
    <rect
       style="opacity:1;fill:#782d00;fill-opacity:1;fill-rule:nonzero;stroke:none;stroke-width:0.23553619;stroke-linecap:butt;stroke-linejoin:miter;stroke-miterlimit:4;stroke-dasharray:none;stroke-opacity:1;paint-order:stroke fill markers"
       id="rect1395"
       width="600"
       height="600"
       x="0"
       y="-303" />
    <rect
       y="-303"
       x="0"
       height="600"
       width="600"
       id="rect1397"
       style="opacity:1;fill:#ffffff;fill-opacity:1;fill-rule:nonzero;stroke:none;stroke-width:0.23553619;stroke-linecap:butt;stroke-linejoin:miter;stroke-miterlimit:4;stroke-dasharray:none;stroke-opacity:1;paint-order:stroke fill markers"
       rx="60"
       ry="60" />
    <rect
       y="-283"
       x="20"
       height="560"
       width="560"
       id="rect1399"
       style="opacity:1;fill:#782d00;fill-opacity:1;fill-rule:nonzero;stroke:none;stroke-width:0.21983378;stroke-linecap:butt;stroke-linejoin:miter;stroke-miterlimit:4;stroke-dasharray:none;stroke-opacity:1;paint-order:stroke fill markers"
       rx="40"
       ry="40" />
    <path
       d="m 540.12162,-124.6373 c 4.26282,1.68374 10.32302,6.22667 12.96342,9.97538 l 2.68811,5.32127 c 0.47719,0.95306 0.95437,1.58843 1.27249,2.6368 l 0.63624,5.38481 L 558,-98.68225 V 85.060185 l -0.95436,5.051221 -4.04013,4.924164 c -1.11343,0.95306 -3.64249,2.23969 -4.9945,3.01802 H 383.99278 C 380.3503,65.663779 355.54326,44.089635 322.99792,44.089635 c -26.26086,0 -53.08321,28.355177 -53.98189,53.963955 H 38 V 88.07821 H 89.960228 V -98.69178 c -3.753816,-51.38434 214.857092,-43.93139 250.039642,-43.93139 66.43791,0 134.44574,7.73569 200.04222,17.98746"
       style="fill:#ffffff;fill-opacity:1;fill-rule:nonzero;stroke:none;stroke-width:56.07471848"
       id="path7542"
       inkscape:connector-curvature="0" />
    <path
       d="m 368.0788,102.02945 c 0,-19.612425 -11.89772,-34.405538 -30.35667,-39.953947 l -6.6169,-1.953776 h -9.989 c -10.65704,0 -27.43949,13.724094 -32.0411,22.975145 -2.64041,5.21007 -3.97652,14.121198 -3.97652,19.947588 0,19.39006 17.73046,39.95554 37.98839,39.95554 h 9.98898 l 6.68054,-2.01731 c 16.44206,-4.8765 28.33659,-21.74252 28.33659,-38.94689"
       style="fill:#ffffff;fill-opacity:1;fill-rule:nonzero;stroke:none;stroke-width:56.07471848"
       id="path7544"
       inkscape:connector-curvature="0" />
    <path
       d="M 228.07708,-76.726868 V 73.115133 l -0.95436,2.970384 -2.97442,1.953776 h -61.05213 l -2.97443,-0.953062 -2.02007,-3.986981 V -76.742751 l 0.95436,-3.018036 3.97652,-1.953776 h 60.04209 l 2.97442,0.953063 2.02007,3.971087"
       style="fill:#782d00;fill-opacity:1;fill-rule:nonzero;stroke:none;stroke-width:56.07471848"
       id="path7546"
       inkscape:connector-curvature="0" />
    <path
       d="m 518.12516,-76.726868 v 69.934106 l -0.95436,2.970374 -3.02214,2.017312 H 383.18157 l -3.02214,-0.953063 -2.02007,-3.986971 v -69.934106 l 0.95437,-3.018036 4.04012,-1.953775 h 129.95706 l 3.02215,0.953062 2.02006,3.971097"
       style="fill:#782d00;fill-opacity:1;fill-rule:nonzero;stroke:none;stroke-width:56.07471848"
       id="path7548"
       inkscape:connector-curvature="0" />
  </g>
</svg>
