<?xml version="1.0" encoding="UTF-8" standalone="no"?>
<!-- Created with Inkscape (http://www.inkscape.org/) -->

<svg
   xmlns:dc="http://purl.org/dc/elements/1.1/"
   xmlns:cc="http://creativecommons.org/ns#"
   xmlns:rdf="http://www.w3.org/1999/02/22-rdf-syntax-ns#"
   xmlns:svg="http://www.w3.org/2000/svg"
   xmlns="http://www.w3.org/2000/svg"
   xmlns:sodipodi="http://sodipodi.sourceforge.net/DTD/sodipodi-0.dtd"
   xmlns:inkscape="http://www.inkscape.org/namespaces/inkscape"
   width="602mm"
   height="602mm"
   viewBox="0 0 602 601.99999"
   version="1.1"
   id="svg8781"
   inkscape:version="0.92.2 (5c3e80d, 2017-08-06)"
   sodipodi:docname="11.svg">
  <defs
     id="defs8775">
    <pattern
       y="0"
       x="0"
       height="6"
       width="6"
       patternUnits="userSpaceOnUse"
       id="EMFhbasepattern" />
    <pattern
       y="0"
       x="0"
       height="6"
       width="6"
       patternUnits="userSpaceOnUse"
       id="EMFhbasepattern-2" />
    <pattern
       y="0"
       x="0"
       height="6"
       width="6"
       patternUnits="userSpaceOnUse"
       id="EMFhbasepattern-6" />
    <pattern
       y="0"
       x="0"
       height="6"
       width="6"
       patternUnits="userSpaceOnUse"
       id="EMFhbasepattern-8" />
    <pattern
       y="0"
       x="0"
       height="6"
       width="6"
       patternUnits="userSpaceOnUse"
       id="EMFhbasepattern-0" />
    <pattern
       y="0"
       x="0"
       height="6"
       width="6"
       patternUnits="userSpaceOnUse"
       id="EMFhbasepattern-7" />
    <pattern
       y="0"
       x="0"
       height="6"
       width="6"
       patternUnits="userSpaceOnUse"
       id="EMFhbasepattern-5" />
    <pattern
       y="0"
       x="0"
       height="6"
       width="6"
       patternUnits="userSpaceOnUse"
       id="EMFhbasepattern-82" />
    <pattern
       y="0"
       x="0"
       height="6"
       width="6"
       patternUnits="userSpaceOnUse"
       id="EMFhbasepattern-84" />
    <pattern
       y="0"
       x="0"
       height="6"
       width="6"
       patternUnits="userSpaceOnUse"
       id="EMFhbasepattern-86" />
    <pattern
       y="0"
       x="0"
       height="6"
       width="6"
       patternUnits="userSpaceOnUse"
       id="EMFhbasepattern-23" />
    <pattern
       y="0"
       x="0"
       height="6"
       width="6"
       patternUnits="userSpaceOnUse"
       id="EMFhbasepattern-06" />
    <pattern
       y="0"
       x="0"
       height="6"
       width="6"
       patternUnits="userSpaceOnUse"
       id="EMFhbasepattern-4" />
    <pattern
       y="0"
       x="0"
       height="6"
       width="6"
       patternUnits="userSpaceOnUse"
       id="EMFhbasepattern-25" />
  </defs>
  <sodipodi:namedview
     id="base"
     pagecolor="#ffffff"
     bordercolor="#666666"
     borderopacity="1.0"
     inkscape:pageopacity="0.0"
     inkscape:pageshadow="2"
     inkscape:zoom="0.2414452"
     inkscape:cx="1748.1799"
     inkscape:cy="706.66318"
     inkscape:document-units="mm"
     inkscape:current-layer="layer1"
     showgrid="false"
     showguides="true"
     inkscape:window-width="1920"
     inkscape:window-height="1057"
     inkscape:window-x="-8"
     inkscape:window-y="-8"
     inkscape:window-maximized="1"
     inkscape:snap-global="false"
     inkscape:measure-start="0,0"
     inkscape:measure-end="0,0"
     fit-margin-top="0"
     fit-margin-left="0"
     fit-margin-right="0"
     fit-margin-bottom="0" />
  <metadata
     id="metadata8778">
    <rdf:RDF>
      <cc:Work
         rdf:about="">
        <dc:format>image/svg+xml</dc:format>
        <dc:type
           rdf:resource="http://purl.org/dc/dcmitype/StillImage" />
        <dc:title></dc:title>
      </cc:Work>
    </rdf:RDF>
  </metadata>
  <g
     inkscape:label="Layer 1"
     inkscape:groupmode="layer"
     id="layer1"
     transform="translate(-179.2,397.3)">
    <path
       d="m 197.40882,154.56186 c -1.3527,-9.4252 -16.1876,-104.2777 -16.1876,-105.8338 v -110.834 c 0,-38.5793 -4.35,-74.0929 6.5912,-107.767 11.4584,-35.1367 -21.8479,-121.7766 0,-151.8196 84.9634,-116.72832 153.6449,-53.7184 258.4906,-63.85886 38.7849,-3.77009 70.8804,-10.74876 110.7885,-10.74876 17.124,0 37.5687,9.05088 54.9725,10.74876 77.5711,-17.92128 118.64894,-11.36374 158.64994,44.4282 6.0873,32.82516 -3.5542,90.45936 -3.5542,122.67086 0,17.3572 -9.6415,38.5806 -11.4584,56.2666 -9.363,90.5997 43.1825,193.1328 17.2168,281.8475 -9.8272,98.00494 -123.98164,73.8109 -215.82134,73.8109 -17.1239,0 -54.5521,10.22734 -72.05,10.22734 -53.897,0 -92.8688,-20.98814 -145.1293,-20.98814 -10.0526,0 -34.2466,10.468 -44.0711,8.6364 -46.1771,0 -92.028,7.68724 -98.4376,-36.7878"
       style="fill:#782d00;fill-opacity:1;fill-rule:nonzero;stroke:none;stroke-width:46.97400665"
       id="path6282"
       inkscape:connector-curvature="0" />
    <rect
       style="opacity:1;fill:#ffffff;fill-opacity:1;fill-rule:nonzero;stroke:none;stroke-width:0.19163695;stroke-linecap:butt;stroke-linejoin:miter;stroke-miterlimit:4;stroke-dasharray:none;stroke-opacity:1;paint-order:stroke fill markers"
       id="rect878"
       width="242"
       height="500"
       x="225.2"
       y="-350.29999"
       rx="42"
       ry="42" />
    <path
       d="m 376.89765,-256.957 c 0,-16.38651 -13.13141,-30.79048 -29.98673,-30.79048 -15.63053,0 -31.68539,12.85112 -31.68539,29.13857 v 8.35323 c 0,10.76282 17.23548,24.98205 27.48361,24.98205 h 8.3527 c 7.9779,0 21.39176,-12.04793 24.17732,-19.17361 1.41889,-3.68131 1.64645,-8.55403 1.64645,-12.51646"
       style="fill:#782d00;fill-opacity:1;fill-rule:nonzero;stroke:none;stroke-width:47.22340393"
       id="path889"
       inkscape:connector-curvature="0" />
    <path
       d="M 324.38673,83.865414 312.72775,-8.6479204 h -23.32734 l -3.30627,-0.80319 c -1.88739,-1.4189796 -4.35037,-4.4443496 -5.00627,-6.6531396 l 0.80315,-4.20339 43.34972,-104.98027 -12.51567,-41.65235 -27.48227,110.8369 c -1.56612,4.05614 -5.52831,7.45632 -10.01254,7.45632 -1.45904,0 -3.49367,-0.53546 -5.00625,-0.80319 -2.2622,-1.51268 -4.44407,-4.81917 -5.00627,-7.50987 -0.26772,-1.07093 0,-2.97183 0,-4.14984 l 36.69164,-138.3209 c 0.80315,-1.33866 1.55277,-2.97182 2.50315,-4.20338 l 3.30627,-3.30649 3.34644,-1.07092 c 0.80315,-0.26773 2.2622,-0.8032 3.30628,-0.53546 h 63.32527 l 5.04642,0.80319 4.10942,3.34664 c 1.20472,1.20479 2.31574,3.68131 3.34643,5.00658 l 36.69166,137.47085 c 0.53544,2.65054 -0.26771,6.94764 -1.69999,9.15642 -1.88738,1.84735 -4.95272,3.4939 -7.5094,4.14985 l -5.00626,-0.8032 c -2.12834,-0.93706 -5.00627,-4.57822 -5.80942,-6.65313 l -27.48226,-110.83691 -12.51567,41.65236 43.34972,104.98027 0.80315,4.20338 -1.64644,4.14985 c -0.93701,0.66933 -2.2622,1.9812096 -3.35983,2.5032896 l -3.30629,0.80319 h -23.32732 l -11.65898,92.5133444 -1.64645,2.50329 -2.50313,0.80319 h -34.18852 l -2.50314,-0.80319 -1.64644,-2.50329 h -0.80314"
       style="fill:#782d00;fill-opacity:1;fill-rule:nonzero;stroke:none;stroke-width:47.22340393"
       id="path891"
       inkscape:connector-curvature="0" />
    <rect
       ry="42"
       rx="42"
       y="-350.29999"
       x="483.20001"
       height="500"
       width="242"
       id="rect913"
       style="opacity:1;fill:#ffffff;fill-opacity:1;fill-rule:nonzero;stroke:none;stroke-width:0.19163695;stroke-linecap:butt;stroke-linejoin:miter;stroke-miterlimit:4;stroke-dasharray:none;stroke-opacity:1;paint-order:stroke fill markers" />
    <path
       d="m 635.201,-256.957 c 0,-16.38651 -13.1314,-30.79048 -29.9854,-30.79048 -15.6306,0 -31.6868,12.85112 -31.6868,29.13857 v 8.35323 c 0,10.76282 17.2369,24.98205 27.4836,24.98205 h 8.3527 c 7.9378,0 21.3918,-12.04793 24.1305,-19.17361 1.4591,-3.68131 1.7,-8.55403 1.7,-12.51646"
       style="fill:#782d00;fill-opacity:1;fill-rule:nonzero;stroke:none;stroke-width:47.22340393"
       id="path915"
       inkscape:connector-curvature="0" />
    <path
       d="m 568.5239,87.171904 2.5031,-1.64655 0.8032,-2.50329 24.1773,-134.165694 c 0.4016,-2.12846 2.2221,-5.43495 4.163,-6.65313 l 4.1496,-0.8032 c 1.2047,0 2.9716,0.53546 4.1495,0.8032 1.6465,1.8875 3.2528,4.33725 4.163,6.65313 l 24.1773,134.165694 1.6465,3.36003 3.3598,0.8032 h 24.9805 l 2.5031,-1.64655 0.8032,-2.50329 -32.4886,-183.279734 9.1559,-66.68125 31.6385,119.14862 1.7,4.14984 c 1.8874,1.65994 5.7559,3.36004 8.3125,3.36004 1.8874,0 6.9874,-2.6907 8.3126,-4.14984 1.5126,-2.26234 2.1685,-6.55943 1.7,-9.15643 l -37.4948,-140.82418 c -0.8032,-1.7001 -1.5126,-4.33725 -2.5032,-5.84994 -1.0708,-1.64655 -7.3621,-6.85393 -9.1558,-7.50987 l -6.6527,-0.80319 h -76.6883 l -5.8094,0.80319 c -2.6905,0.93706 -8.4062,5.10029 -10.0125,7.50987 -0.937,1.51269 -1.7937,4.14984 -2.5032,5.84994 l -37.4934,140.82552 c -0.5355,2.597 0.1338,6.89409 1.6464,9.15643 2.4496,1.7001 5.4748,3.25294 8.3527,4.14984 3.7346,0.26773 9.2094,-3.82856 10.0126,-7.50988 l 31.6385,-119.14862 9.1559,66.68124 -32.4886,183.279744 0.8032,2.50329 2.5031,1.64655 h 26.6336"
       style="fill:#782d00;fill-opacity:1;fill-rule:nonzero;stroke:none;stroke-width:47.22340393"
       id="path917"
       inkscape:connector-curvature="0" />
  </g>
</svg>
