<?xml version="1.0" encoding="UTF-8" standalone="no"?>
<!-- Created with Inkscape (http://www.inkscape.org/) -->

<svg
   xmlns:dc="http://purl.org/dc/elements/1.1/"
   xmlns:cc="http://creativecommons.org/ns#"
   xmlns:rdf="http://www.w3.org/1999/02/22-rdf-syntax-ns#"
   xmlns:svg="http://www.w3.org/2000/svg"
   xmlns="http://www.w3.org/2000/svg"
   xmlns:sodipodi="http://sodipodi.sourceforge.net/DTD/sodipodi-0.dtd"
   xmlns:inkscape="http://www.inkscape.org/namespaces/inkscape"
   width="978mm"
   height="602mm"
   viewBox="0 0 978 602"
   version="1.1"
   id="svg8781"
   inkscape:version="0.92.2 (5c3e80d, 2017-08-06)"
   sodipodi:docname="22.svg">
  <defs
     id="defs8775" />
  <sodipodi:namedview
     id="base"
     pagecolor="#ffffff"
     bordercolor="#666666"
     borderopacity="1.0"
     inkscape:pageopacity="0.0"
     inkscape:pageshadow="2"
     inkscape:zoom="0.18958994"
     inkscape:cx="1456.633"
     inkscape:cy="558.73248"
     inkscape:document-units="mm"
     inkscape:current-layer="layer1"
     showgrid="false"
     showguides="true"
     inkscape:window-width="1920"
     inkscape:window-height="1057"
     inkscape:window-x="-8"
     inkscape:window-y="-8"
     inkscape:window-maximized="1"
     inkscape:snap-global="true" />
  <metadata
     id="metadata8778">
    <rdf:RDF>
      <cc:Work
         rdf:about="">
        <dc:format>image/svg+xml</dc:format>
        <dc:type
           rdf:resource="http://purl.org/dc/dcmitype/StillImage" />
        <dc:title></dc:title>
      </cc:Work>
    </rdf:RDF>
  </metadata>
  <g
     inkscape:label="Layer 1"
     inkscape:groupmode="layer"
     id="layer1"
     transform="translate(0,305)">
    <path
       d="M 138.96103,285.0527 48.105826,239.6152 C 43.740926,230.9787 2.6782256,150.3234 2.6782256,148.7402 V 35.9856 c 0,-39.2477 -6.1462,-187.8431 5.0856,-222.1021 24.6569004,-75.1852 -4.9904,-111.2177 153.9368044,-106.9484 34.2026,0.952 78.4785,3.3593 113.5445,0 17.8934,-1.7273 38.8558,-10.9351 56.4133,-10.9351 h 56.3643 c 12.1428,0 125.9702,14.7786 130.4316,20.1999 14.343,-17.3696 105.1016,-6.814 130.3827,-9.2621 17.8444,-1.7273 38.8558,-10.9351 56.4119,-10.9351 h 56.3657 c 17.8444,0 39.0951,9.167 57.2278,10.9351 58.763,5.6579 96.5635,0.544 135.4669,57.1926 7.1524,33.1071 22.6907,79.7918 22.6907,112.8022 0,17.8497 -9.2058,39.105 -10.9327,57.2416 -8.825,91.5945 16.501,193.8412 -11.7485,282.7495 -12.4284,52.1549 -36.2654,72.0189 -135.4669,79.0722 h -57.2278 c -17.5575,0 -38.5199,-9.1669 -56.3657,-10.935 -61.5926,-5.9435 -130.622,0 -192.696,0 l -6.7173,-3.3594 C 504.02303,285.9178 450.63253,296 444.39653,296 h -56.3656 c -17.5562,0 -38.5199,-9.1669 -56.3644,-10.935 -61.5451,-5.9436 -130.622,0 -192.696,0"
       style="fill:#782d00;fill-opacity:1;fill-rule:nonzero;stroke:none;stroke-width:47.97531128"
       id="path6315"
       inkscape:connector-curvature="0" />
    <path
       style="fill:#ffffff;fill-opacity:1;fill-rule:nonzero;stroke:none;stroke-width:47.91189957"
       d="m 61.500026,161.40016 v 51.19998 C 85.723926,234.99621 113.47013,248.4 147.00023,248.4 c 33.53,0 61.2758,-13.40324 85.4997,-35.79916 l 5e-4,-0.002 v 0.002 c 24.224,22.39592 51.9698,35.79916 85.4997,35.79916 33.5301,0 61.2763,-13.40379 85.5002,-35.79986 24.2239,22.39591 51.9697,35.79986 85.4997,35.79986 33.5301,0 61.2763,-13.40379 85.5002,-35.79986 24.224,22.39607 51.9701,35.79986 85.5002,35.79986 33.53,0 61.2758,-13.40395 85.4997,-35.79986 24.224,22.39607 51.9701,35.79986 85.5003,35.79986 33.5299,0 61.2757,-13.40395 85.4996,-35.79986 v -51.19998 c -24.2238,22.3524 -51.9698,35.99987 -85.4996,35.99987 -33.5302,0 -61.2763,-13.64721 -85.5003,-35.99987 -24.2238,22.3524 -51.9698,35.99987 -85.4997,35.99987 -33.5301,0 -61.2762,-13.64721 -85.5002,-35.99987 -24.2239,22.35266 -51.97,35.99987 -85.5002,35.99987 -33.5298,0 -61.2758,-13.64747 -85.4997,-35.99987 -24.2239,22.35266 -51.9701,35.99987 -85.5002,35.99987 -33.5298,0 -61.2758,-13.64747 -85.4997,-35.99987 v 5.3e-4 l -5e-4,-5.3e-4 c -24.2239,22.3524 -51.9698,35.99987 -85.4997,35.99987 -33.5301,0 -61.276304,-13.64721 -85.500204,-35.99987 z"
       id="path880"
       inkscape:connector-curvature="0"
       sodipodi:nodetypes="ccscccscscscsccscscscscccsc" />
    <path
       sodipodi:nodetypes="ccscccscscscsccscscscscccsc"
       inkscape:connector-curvature="0"
       id="path1594"
       d="m 61.500026,75.80016 v 51.19998 C 85.723926,149.39621 113.47013,162.8 147.00023,162.8 c 33.53,0 61.2758,-13.40324 85.4997,-35.79916 l 5e-4,-0.002 v 0.002 c 24.224,22.39592 51.9698,35.79916 85.4997,35.79916 33.5301,0 61.2763,-13.40379 85.5002,-35.79986 24.2239,22.39591 51.9697,35.79986 85.4997,35.79986 33.5301,0 61.2763,-13.40379 85.5002,-35.79986 24.224,22.39607 51.9701,35.79986 85.5002,35.79986 33.53,0 61.2758,-13.40395 85.4997,-35.79986 24.224,22.39607 51.9701,35.79986 85.5003,35.79986 33.5299,0 61.2757,-13.40395 85.4996,-35.79986 V 75.80016 c -24.2238,22.3524 -51.9698,35.99987 -85.4996,35.99987 -33.5302,0 -61.2763,-13.64721 -85.5003,-35.99987 -24.2238,22.3524 -51.9698,35.99987 -85.4997,35.99987 -33.5301,0 -61.2762,-13.64721 -85.5002,-35.99987 -24.2239,22.35266 -51.97,35.99987 -85.5002,35.99987 -33.5298,0 -61.2758,-13.64747 -85.4997,-35.99987 -24.2239,22.35266 -51.9701,35.99987 -85.5002,35.99987 -33.5298,0 -61.2758,-13.64747 -85.4997,-35.99987 v 5.3e-4 l -5e-4,-5.3e-4 c -24.2239,22.3524 -51.9698,35.99987 -85.4997,35.99987 -33.5301,0 -61.276304,-13.64721 -85.500204,-35.99987 z"
       style="fill:#ffffff;fill-opacity:1;fill-rule:nonzero;stroke:none;stroke-width:47.91189957" />
    <path
       style="fill:#ffffff;fill-opacity:1;fill-rule:nonzero;stroke:none;stroke-width:48.00502014"
       d="m 587.0528,-200.05277 c -3.1324,-3.11481 -8.5607,-2.72291 -16.1828,2.54723 -1.0626,0.70889 -4.7364,0.0908 -7.8589,-2.54723 -55.03529,-48.04134 -171.4834,-87.22673 -198.6969,-60.10445 -10.34424,10.41355 -9.81518,21.10796 -0.14136,30.97164 l 119.64247,119.64247 c 0,0 -144.25854,144.344807 -147.0784,148.492467 -1.70119,2.53431 -0.33264,5.32863 2.8286,8.48511 3.1568,3.16106 5.95087,4.52987 8.48518,2.82867 4.14752,-2.82 148.49247,-147.0784 148.49247,-147.0784 L 616.1856,22.827187 c 9.8637,9.67382 20.558,10.20281 30.9716,-0.14143 27.1226,-27.2131496 -12.0631,-143.661537 -60.1044,-198.696897 -2.638,-3.12241 -3.2562,-6.79625 -2.5473,-7.85883 5.2702,-7.62206 5.6621,-13.05041 2.5473,-16.1828 z"
       id="path1601"
       inkscape:connector-curvature="0" />
  </g>
</svg>
