<?xml version="1.0" encoding="UTF-8" standalone="no"?>
<!-- Created with Inkscape (http://www.inkscape.org/) -->

<svg
   xmlns:dc="http://purl.org/dc/elements/1.1/"
   xmlns:cc="http://creativecommons.org/ns#"
   xmlns:rdf="http://www.w3.org/1999/02/22-rdf-syntax-ns#"
   xmlns:svg="http://www.w3.org/2000/svg"
   xmlns="http://www.w3.org/2000/svg"
   xmlns:sodipodi="http://sodipodi.sourceforge.net/DTD/sodipodi-0.dtd"
   xmlns:inkscape="http://www.inkscape.org/namespaces/inkscape"
   width="602mm"
   height="602mm"
   viewBox="0 0 602 601.99999"
   version="1.1"
   id="svg8781"
   inkscape:version="0.92.2 (5c3e80d, 2017-08-06)"
   sodipodi:docname="11.svg">
  <defs
     id="defs8775">
    <pattern
       y="0"
       x="0"
       height="6"
       width="6"
       patternUnits="userSpaceOnUse"
       id="EMFhbasepattern" />
    <pattern
       y="0"
       x="0"
       height="6"
       width="6"
       patternUnits="userSpaceOnUse"
       id="EMFhbasepattern-2" />
    <pattern
       y="0"
       x="0"
       height="6"
       width="6"
       patternUnits="userSpaceOnUse"
       id="EMFhbasepattern-6" />
    <pattern
       y="0"
       x="0"
       height="6"
       width="6"
       patternUnits="userSpaceOnUse"
       id="EMFhbasepattern-8" />
    <pattern
       y="0"
       x="0"
       height="6"
       width="6"
       patternUnits="userSpaceOnUse"
       id="EMFhbasepattern-0" />
    <pattern
       y="0"
       x="0"
       height="6"
       width="6"
       patternUnits="userSpaceOnUse"
       id="EMFhbasepattern-7" />
    <pattern
       y="0"
       x="0"
       height="6"
       width="6"
       patternUnits="userSpaceOnUse"
       id="EMFhbasepattern-5" />
    <pattern
       y="0"
       x="0"
       height="6"
       width="6"
       patternUnits="userSpaceOnUse"
       id="EMFhbasepattern-82" />
    <pattern
       y="0"
       x="0"
       height="6"
       width="6"
       patternUnits="userSpaceOnUse"
       id="EMFhbasepattern-84" />
    <pattern
       y="0"
       x="0"
       height="6"
       width="6"
       patternUnits="userSpaceOnUse"
       id="EMFhbasepattern-86" />
    <pattern
       y="0"
       x="0"
       height="6"
       width="6"
       patternUnits="userSpaceOnUse"
       id="EMFhbasepattern-23" />
    <pattern
       y="0"
       x="0"
       height="6"
       width="6"
       patternUnits="userSpaceOnUse"
       id="EMFhbasepattern-06" />
    <pattern
       y="0"
       x="0"
       height="6"
       width="6"
       patternUnits="userSpaceOnUse"
       id="EMFhbasepattern-4" />
    <pattern
       y="0"
       x="0"
       height="6"
       width="6"
       patternUnits="userSpaceOnUse"
       id="EMFhbasepattern-25" />
    <pattern
       y="0"
       x="0"
       height="6"
       width="6"
       patternUnits="userSpaceOnUse"
       id="EMFhbasepattern-9" />
  </defs>
  <sodipodi:namedview
     id="base"
     pagecolor="#ffffff"
     bordercolor="#666666"
     borderopacity="1.0"
     inkscape:pageopacity="0.0"
     inkscape:pageshadow="2"
     inkscape:zoom="0.2414452"
     inkscape:cx="1089.1492"
     inkscape:cy="706.66318"
     inkscape:document-units="mm"
     inkscape:current-layer="layer1"
     showgrid="false"
     showguides="true"
     inkscape:window-width="1920"
     inkscape:window-height="1057"
     inkscape:window-x="-8"
     inkscape:window-y="-8"
     inkscape:window-maximized="1"
     inkscape:snap-global="false"
     inkscape:measure-start="0,0"
     inkscape:measure-end="0,0"
     fit-margin-top="0"
     fit-margin-left="0"
     fit-margin-right="0"
     fit-margin-bottom="0" />
  <metadata
     id="metadata8778">
    <rdf:RDF>
      <cc:Work
         rdf:about="">
        <dc:format>image/svg+xml</dc:format>
        <dc:type
           rdf:resource="http://purl.org/dc/dcmitype/StillImage" />
        <dc:title></dc:title>
      </cc:Work>
    </rdf:RDF>
  </metadata>
  <g
     inkscape:label="Layer 1"
     inkscape:groupmode="layer"
     id="layer1"
     transform="translate(-179.2,397.3)">
    <path
       d="m 197.40882,154.56186 c -1.3527,-9.4252 -16.1876,-104.2777 -16.1876,-105.8338 v -110.834 c 0,-38.5793 -4.35,-74.0929 6.5912,-107.767 11.4584,-35.1367 -21.8479,-121.7766 0,-151.8196 84.9634,-116.72832 153.6449,-53.7184 258.4906,-63.85886 38.7849,-3.77009 70.8804,-10.74876 110.7885,-10.74876 17.124,0 37.5687,9.05088 54.9725,10.74876 77.5711,-17.92128 118.64894,-11.36374 158.64994,44.4282 6.0873,32.82516 -3.5542,90.45936 -3.5542,122.67086 0,17.3572 -9.6415,38.5806 -11.4584,56.2666 -9.363,90.5997 43.1825,193.1328 17.2168,281.8475 -9.8272,98.00494 -123.98164,73.8109 -215.82134,73.8109 -17.1239,0 -54.5521,10.22734 -72.05,10.22734 -53.897,0 -92.8688,-20.98814 -145.1293,-20.98814 -10.0526,0 -34.2466,10.468 -44.0711,8.6364 -46.1771,0 -92.028,7.68724 -98.4376,-36.7878"
       style="fill:#782d00;fill-opacity:1;fill-rule:nonzero;stroke:none;stroke-width:46.97400665"
       id="path6282"
       inkscape:connector-curvature="0" />
    <path
       id="path856"
       d="m 366.1986,-65.162795 c 14.28656,-31.428343 51.42838,-57.142815 85.71397,-65.714305 22.85661,-8.5715 42.85699,-28.57073 42.85699,-54.28521 0,-17.14299 -8.5714,-42.85744 -25.7142,-51.42895 -8.57138,-5.70982 -20.00038,-8.57147 -31.428,-14.28535 -14.28656,0 -31.42935,-25.71448 -31.42935,-39.99984 0,-5.70983 2.86162,-11.43316 2.86162,-17.14298 -5.70975,8.57148 -8.5714,17.14298 -8.5714,28.57073 0,17.14299 8.5714,31.42971 22.85662,42.85744 l 28.57177,17.14299 c 11.43302,5.70983 19.99903,20.0006 19.99903,34.28596 0,8.57149 -11.43303,25.71448 -19.99903,28.57074 l -39.9994,20.00059 c -11.43303,5.70984 -28.57178,28.57074 -37.14317,42.857458 -2.86163,8.571484 -5.70976,19.999243 -8.57141,28.570727 z"
       style="fill:#ffffff;fill-opacity:1;fill-rule:nonzero;stroke:none;stroke-width:35.71434784"
       inkscape:connector-curvature="0" />
    <path
       id="path858"
       d="m 409.05558,-216.59065 5.70977,5.70982 c 2.86163,5.70983 5.70976,14.28538 5.70976,22.85686 0,5.70982 -2.86163,14.28536 -8.5714,20.00059 l -2.86162,2.86167 -28.57043,25.71446 c -22.85795,22.85686 -28.57177,42.857454 -28.57177,74.285808 v -5.70983 c -2.86164,-5.70983 -5.70977,-20.000597 -5.70977,-28.57208 0,-11.433168 11.43302,-34.284618 19.99903,-45.713718 l 14.28656,-20.0006 c 5.70977,-8.57148 8.5714,-17.14162 8.5714,-25.71312 0,-17.14299 -17.14279,-34.28596 -28.57177,-45.71506 -11.43304,-14.28537 -20.00038,-34.28596 -20.00038,-51.42894 0,-19.99925 11.43303,-42.85611 25.71419,-54.28521 -5.70976,11.43316 -11.43303,25.71448 -11.43303,37.14357 0,31.42836 8.57141,48.57134 31.428,68.57058 0,2.86166 0,2.86166 2.86163,2.86166 z"
       style="fill:#ffffff;fill-opacity:1;fill-rule:nonzero;stroke:none;stroke-width:35.71434784"
       inkscape:connector-curvature="0" />
    <path
       id="path860"
       d="m 337.62817,-65.162795 c -8.57139,-14.285364 -11.43303,-28.570727 -11.43303,-42.857445 0,-22.85686 11.43303,-39.99984 25.71421,-54.28521 l 2.86162,-5.70983 c 2.86163,0 5.70976,-8.57149 5.70976,-8.57149 v -5.70982 c 0,-2.86168 0,-2.86168 0,-2.86168 v -5.70981 c -2.86163,-5.70982 -11.43303,-8.57149 -14.2852,-11.43317 l -17.1428,-2.86165 c -11.43303,-2.86167 -20.00038,-5.70983 -28.57179,-17.14299 0,-2.86165 -2.86162,-5.70981 -5.70975,-8.57148 0,-5.70984 -2.86163,-11.43316 -2.86163,-14.28536 2.86163,-19.99926 8.57138,-39.99984 17.14279,-54.28522 l -19.99903,42.85746 c -2.86163,5.70982 -5.70976,11.43315 -5.70976,19.99923 0,8.57151 8.5714,22.85687 17.14279,31.42836 2.86164,2.86165 11.43302,5.70983 17.1428,8.57149 h 8.5714 l 2.86163,2.86167 2.86162,2.86166 c 0,0 0,2.86165 0,2.86165 0,2.86167 0,2.86167 0,5.70984 h -2.86162 c -14.28522,19.99924 -20.00038,34.28461 -20.00038,59.99907 0,20.0006 14.28656,42.85746 28.57178,57.142823 z"
       style="fill:#ffffff;fill-opacity:1;fill-rule:evenodd;stroke:none;stroke-width:35.71434784"
       inkscape:connector-curvature="0" />
    <path
       id="path862"
       d="M 226.2,94.837914 V -50.877421 h 265.71198 v 28.57208 l 222.85499,-79.999679 h 5.70976 2.86163 l 2.86164,2.861668 v 5.70983 l -5.70977,2.861653 -228.56881,94.286395 v 91.428779 c 0,37.142225 -28.57178,59.999095 -62.85601,62.856695 H 289.06683 c -25.7142,0 -54.28597,-20.0006 -59.99979,-45.71372 -2.86164,-2.86166 -2.86164,-11.43315 -2.86164,-17.142975 z"
       style="fill:#ffffff;fill-opacity:1;fill-rule:nonzero;stroke:none;stroke-width:35.71434784"
       inkscape:connector-curvature="0" />
  </g>
</svg>
