<?xml version="1.0" encoding="UTF-8" standalone="no"?>
<!-- Created with Inkscape (http://www.inkscape.org/) -->

<svg
   xmlns:dc="http://purl.org/dc/elements/1.1/"
   xmlns:cc="http://creativecommons.org/ns#"
   xmlns:rdf="http://www.w3.org/1999/02/22-rdf-syntax-ns#"
   xmlns:svg="http://www.w3.org/2000/svg"
   xmlns="http://www.w3.org/2000/svg"
   xmlns:sodipodi="http://sodipodi.sourceforge.net/DTD/sodipodi-0.dtd"
   xmlns:inkscape="http://www.inkscape.org/namespaces/inkscape"
   width="980mm"
   height="602mm"
   viewBox="0 0 980 602.00001"
   version="1.1"
   id="svg8781"
   inkscape:version="0.92.2 (5c3e80d, 2017-08-06)"
   sodipodi:docname="33.svg">
  <defs
     id="defs8775">
    <pattern
       y="0"
       x="0"
       height="6"
       width="6"
       patternUnits="userSpaceOnUse"
       id="EMFhbasepattern" />
    <pattern
       y="0"
       x="0"
       height="6"
       width="6"
       patternUnits="userSpaceOnUse"
       id="EMFhbasepattern-3" />
    <pattern
       y="0"
       x="0"
       height="6"
       width="6"
       patternUnits="userSpaceOnUse"
       id="EMFhbasepattern-2" />
    <pattern
       y="0"
       x="0"
       height="6"
       width="6"
       patternUnits="userSpaceOnUse"
       id="EMFhbasepattern-33" />
    <pattern
       y="0"
       x="0"
       height="6"
       width="6"
       patternUnits="userSpaceOnUse"
       id="EMFhbasepattern-1" />
    <pattern
       y="0"
       x="0"
       height="6"
       width="6"
       patternUnits="userSpaceOnUse"
       id="EMFhbasepattern-4" />
    <pattern
       y="0"
       x="0"
       height="6"
       width="6"
       patternUnits="userSpaceOnUse"
       id="EMFhbasepattern-7" />
    <pattern
       y="0"
       x="0"
       height="6"
       width="6"
       patternUnits="userSpaceOnUse"
       id="EMFhbasepattern-71" />
    <pattern
       y="0"
       x="0"
       height="6"
       width="6"
       patternUnits="userSpaceOnUse"
       id="EMFhbasepattern-0" />
    <pattern
       y="0"
       x="0"
       height="6"
       width="6"
       patternUnits="userSpaceOnUse"
       id="EMFhbasepattern-26" />
  </defs>
  <sodipodi:namedview
     id="base"
     pagecolor="#ffffff"
     bordercolor="#666666"
     borderopacity="1.0"
     inkscape:pageopacity="0.0"
     inkscape:pageshadow="2"
     inkscape:zoom="0.18958994"
     inkscape:cx="1757.6684"
     inkscape:cy="1128.0412"
     inkscape:document-units="mm"
     inkscape:current-layer="layer1"
     showgrid="false"
     showguides="true"
     inkscape:window-width="1920"
     inkscape:window-height="1057"
     inkscape:window-x="-8"
     inkscape:window-y="-8"
     inkscape:window-maximized="1"
     inkscape:snap-global="false"
     fit-margin-top="0"
     fit-margin-left="0"
     fit-margin-right="0"
     fit-margin-bottom="0" />
  <metadata
     id="metadata8778">
    <rdf:RDF>
      <cc:Work
         rdf:about="">
        <dc:format>image/svg+xml</dc:format>
        <dc:type
           rdf:resource="http://purl.org/dc/dcmitype/StillImage" />
        <dc:title></dc:title>
      </cc:Work>
    </rdf:RDF>
  </metadata>
  <g
     inkscape:label="Layer 1"
     inkscape:groupmode="layer"
     id="layer1"
     transform="translate(-84.340927,375.44855)">
    <path
       id="path876"
       d="M 224.01466,216.89765 125.94981,185.1675 C 120.18577,176.5137 88.454974,81.32326 88.454974,78.43821 V -34.05983 c 0,-40.38395 -8.652861,-187.49717 2.888837,-222.11237 25.958579,-74.99923 -2.888837,-112.49943 155.750149,-106.72933 34.61144,0 77.87439,2.8891 112.48584,0 17.30572,-2.8892 40.37957,-11.543 57.68529,-11.543 H 472.067 c 14.42098,0 126.90682,14.4226 132.67631,20.1927 14.42098,-17.3076 103.83297,-5.7647 129.79156,-8.6538 17.30572,-2.8891 40.37957,-11.5429 57.68529,-11.5429 h 54.80055 c 17.30572,0 40.37957,8.6538 57.68529,11.5429 60.57003,5.7647 98.0649,0 135.561,57.6915 8.6529,31.73023 23.0739,77.88293 23.0739,112.49813 0,17.3076 -8.6528,37.4989 -11.5417,57.6915 -8.6529,92.30678 17.3057,193.26733 -11.5417,282.68902 -11.5417,51.9228 -34.6114,72.1141 -135.55968,77.88284 h -57.68528 c -17.30572,0 -37.49619,-8.6538 -54.80192,-8.6538 -63.4534,-5.76466 -132.67631,0 -193.24498,0 l -8.65286,-5.76466 c 0,5.76466 -54.80191,14.42255 -60.57003,14.42255 h -57.68528 c -17.30574,0 -37.4962,-8.6538 -54.80056,-8.6538 -63.45477,-5.76466 -132.6763,0 -193.24634,0 z"
       style="fill:#782d00;fill-opacity:1;fill-rule:nonzero;stroke:none;stroke-width:36.05554199"
       inkscape:connector-curvature="0" />
    <path
       id="path878"
       d="M 183.04443,-39.48154 217.63057,-56.773796 151.34093,58.507014 304.0959,23.922491 295.44937,144.96694 H 151.34093 v 34.58451 H 955.46311 V -36.600407 h 51.87779 L 747.94767,-333.44855 494.31692,-36.600407 h 48.99793 V 144.96694 H 347.32721 l -8.64653,-121.044449 152.75497,34.584523 -66.28964,-115.28081 31.70351,17.292256 -66.28964,-115.28213 34.58613,17.29226 -69.17227,-115.28081 34.58614,17.29226 -69.17227,-97.98859 -69.17091,97.98859 34.58614,-17.29226 -69.17227,115.28081 34.58613,-17.29226 z"
       style="fill:#ffffff;fill-opacity:1;fill-rule:nonzero;stroke:none;stroke-width:36.02637863"
       inkscape:connector-curvature="0" />
    <path
       id="path880"
       d="M 698.95109,144.96694 H 799.82551 V -36.600407 H 698.95109 Z"
       style="fill:#782d00;fill-opacity:1;fill-rule:nonzero;stroke:none;stroke-width:36.02637863"
       inkscape:connector-curvature="0" />
  </g>
</svg>
