<?xml version="1.0" encoding="UTF-8" standalone="no"?>
<!-- Created with Inkscape (http://www.inkscape.org/) -->

<svg
   xmlns:dc="http://purl.org/dc/elements/1.1/"
   xmlns:cc="http://creativecommons.org/ns#"
   xmlns:rdf="http://www.w3.org/1999/02/22-rdf-syntax-ns#"
   xmlns:svg="http://www.w3.org/2000/svg"
   xmlns="http://www.w3.org/2000/svg"
   xmlns:sodipodi="http://sodipodi.sourceforge.net/DTD/sodipodi-0.dtd"
   xmlns:inkscape="http://www.inkscape.org/namespaces/inkscape"
   width="602mm"
   height="602mm"
   viewBox="0 0 602 601.99999"
   version="1.1"
   id="svg8781"
   inkscape:version="0.92.2 (5c3e80d, 2017-08-06)"
   sodipodi:docname="11.svg">
  <defs
     id="defs8775">
    <pattern
       y="0"
       x="0"
       height="6"
       width="6"
       patternUnits="userSpaceOnUse"
       id="EMFhbasepattern" />
    <pattern
       y="0"
       x="0"
       height="6"
       width="6"
       patternUnits="userSpaceOnUse"
       id="EMFhbasepattern-2" />
    <pattern
       y="0"
       x="0"
       height="6"
       width="6"
       patternUnits="userSpaceOnUse"
       id="EMFhbasepattern-6" />
    <pattern
       y="0"
       x="0"
       height="6"
       width="6"
       patternUnits="userSpaceOnUse"
       id="EMFhbasepattern-8" />
    <pattern
       y="0"
       x="0"
       height="6"
       width="6"
       patternUnits="userSpaceOnUse"
       id="EMFhbasepattern-0" />
    <pattern
       y="0"
       x="0"
       height="6"
       width="6"
       patternUnits="userSpaceOnUse"
       id="EMFhbasepattern-7" />
    <pattern
       y="0"
       x="0"
       height="6"
       width="6"
       patternUnits="userSpaceOnUse"
       id="EMFhbasepattern-5" />
    <pattern
       y="0"
       x="0"
       height="6"
       width="6"
       patternUnits="userSpaceOnUse"
       id="EMFhbasepattern-82" />
    <pattern
       y="0"
       x="0"
       height="6"
       width="6"
       patternUnits="userSpaceOnUse"
       id="EMFhbasepattern-84" />
    <pattern
       y="0"
       x="0"
       height="6"
       width="6"
       patternUnits="userSpaceOnUse"
       id="EMFhbasepattern-86" />
    <pattern
       y="0"
       x="0"
       height="6"
       width="6"
       patternUnits="userSpaceOnUse"
       id="EMFhbasepattern-23" />
    <pattern
       y="0"
       x="0"
       height="6"
       width="6"
       patternUnits="userSpaceOnUse"
       id="EMFhbasepattern-06" />
  </defs>
  <sodipodi:namedview
     id="base"
     pagecolor="#ffffff"
     bordercolor="#666666"
     borderopacity="1.0"
     inkscape:pageopacity="0.0"
     inkscape:pageshadow="2"
     inkscape:zoom="0.2414452"
     inkscape:cx="511.41713"
     inkscape:cy="1036.5812"
     inkscape:document-units="mm"
     inkscape:current-layer="layer1"
     showgrid="false"
     showguides="true"
     inkscape:window-width="1920"
     inkscape:window-height="1057"
     inkscape:window-x="-8"
     inkscape:window-y="-8"
     inkscape:window-maximized="1"
     inkscape:snap-global="false"
     inkscape:measure-start="0,0"
     inkscape:measure-end="0,0"
     fit-margin-top="0"
     fit-margin-left="0"
     fit-margin-right="0"
     fit-margin-bottom="0" />
  <metadata
     id="metadata8778">
    <rdf:RDF>
      <cc:Work
         rdf:about="">
        <dc:format>image/svg+xml</dc:format>
        <dc:type
           rdf:resource="http://purl.org/dc/dcmitype/StillImage" />
        <dc:title></dc:title>
      </cc:Work>
    </rdf:RDF>
  </metadata>
  <g
     inkscape:label="Layer 1"
     inkscape:groupmode="layer"
     id="layer1"
     transform="translate(-179.2,397.3)">
    <path
       d="m 197.40882,154.5619 c -1.3527,-9.4252 -16.1876,-104.27777 -16.1876,-105.83387 V -62.10594 c 0,-38.57928 -4.35,-74.09289 6.5912,-107.76699 11.4584,-35.1367 -21.8479,-121.77655 0,-151.8196 84.9634,-116.72832 153.6449,-53.7184 258.4906,-63.85886 38.7849,-3.77009 70.8804,-10.74876 110.7885,-10.74876 17.124,0 37.5687,9.05088 54.9725,10.74876 77.5711,-17.92128 118.64894,-11.36374 158.64994,44.4282 6.0873,32.82516 -3.5542,90.45936 -3.5542,122.67086 0,17.3572 -9.6415,38.5806 -11.4584,56.2666 -9.363,90.59969 43.1825,193.13276 17.2168,281.84753 -9.8272,98.0049 -123.98164,73.8109 -215.82134,73.8109 -17.1239,0 -54.5521,10.2273 -72.05,10.2273 -53.897,0 -92.8688,-20.9881 -145.1293,-20.9881 -10.0526,0 -34.2466,10.468 -44.0711,8.6364 -46.1771,0 -92.028,7.6872 -98.4376,-36.7878"
       style="fill:#782d00;fill-opacity:1;fill-rule:nonzero;stroke:none;stroke-width:46.97400665"
       id="path6282"
       inkscape:connector-curvature="0" />
    <circle
       style="opacity:1;fill:#000000;fill-opacity:1;fill-rule:nonzero;stroke:none;stroke-width:0.26813558;stroke-linecap:butt;stroke-linejoin:miter;stroke-miterlimit:4;stroke-dasharray:none;stroke-opacity:1;paint-order:stroke fill markers"
       id="path892"
       cx="480.20001"
       cy="-96.300041"
       r="250" />
    <circle
       r="220"
       cy="-96.300003"
       cx="480.20001"
       id="circle843"
       style="opacity:1;fill:#ffd70a;fill-opacity:1;fill-rule:nonzero;stroke:none;stroke-width:0.23595931;stroke-linecap:butt;stroke-linejoin:miter;stroke-miterlimit:4;stroke-dasharray:none;stroke-opacity:1;paint-order:stroke fill markers" />
    <path
       inkscape:connector-curvature="0"
       id="path845"
       style="fill:#000000;fill-opacity:1;fill-rule:nonzero;stroke:none;stroke-width:41.93273544"
       d="m 296.54399,-137.87045 c 1.97334,41.466529 11.95181,85.156793 32.75157,121.718264 19.66926,34.381722 45.75426,67.254009 76.7869,92.662357 5.90813,3.98156 13.67194,10.4828 19.92007,13.83684 l 13.29392,5.53853 6.62141,2.76926 c 14.2164,4.825429 30.52979,6.917239 45.50105,6.917239 5.53963,0 11.57854,-0.95083 17.11104,-1.3787 2.9719,-0.59426 13.50314,-2.38894 15.64171,-4.14796 2.38942,-1.378699 14.59443,-8.010679 15.64293,-9.686489 5.6585,-4.57584 17.32026,-14.54996 21.34541,-20.75526 l 1.42651,-4.147964 -1.75936,-1.212293 0.35662,-0.118855 -74.01825,-48.386138 -4.232,1.378697 -12.79107,19.329016 C 465.06644,43.446522 454.50072,47.51128 445.9452,47.51128 l -8.55908,-2.769267 c -3.35232,-2.091806 -6.9186,-6.750837 -9.93805,-9.686499 L 342.10685,-126.74702 c -1.50972,-3.05452 -2.85303,-10.77995 -1.89013,-16.60373 l 1.89013,-5.53853 c 2.47263,-4.48076 8.39267,-9.72216 12.79108,-12.45222 l 9.93805,-1.37868 h 18.53636 l 4.23199,-2.76927 1.42652,-4.14796 -5.65851,-83.01864 -7.13257,-5.49099 c -22.26788,2.51968 -55.18827,22.85181 -62.6109,44.23461 -2.63904,6.03772 -15.55852,40.67141 -14.21759,45.66084 l -2.85303,30.44056" />
    <path
       inkscape:connector-curvature="0"
       id="path847"
       style="fill:#000000;fill-opacity:1;fill-rule:nonzero;stroke:none;stroke-width:41.93273544"
       d="m 408.93429,-251.28805 c -0.35663,1.72336 -4.27954,18.6587 -4.27954,19.32902 v 19.37181 c 0,4.77787 6.20533,37.60976 9.98559,38.74123 l -11.41211,9.68651 -4.27954,-2.76928 -7.08502,-89.89427 4.27955,-2.80493 12.79107,8.34348" />
    <path
       inkscape:connector-curvature="0"
       id="path849"
       style="fill:#000000;fill-opacity:1;fill-rule:nonzero;stroke:none;stroke-width:41.93273544"
       d="M 571.10399,54.371462 569.67748,39.151183 C 559.10938,35.003219 548.6673,30.142146 538.39283,25.315534 533.89931,23.936847 521.28179,14.369203 518.47275,11.520298 515.53651,8.4538992 511.13809,1.3346252 508.5347,-2.3153508 h -4.27955 l -9.9856,5.538544 v 4.112306 l 76.8285,47.0430988" />
    <path
       inkscape:connector-curvature="0"
       id="path851"
       style="fill:#000000;fill-opacity:1;fill-rule:nonzero;stroke:none;stroke-width:41.9807663"
       d="m 572.92772,-52.035014 c -2.43951,16.036522 -13.01391,37.194837 -32.15753,37.194837 h -11.07896 l -6.62833,-2.47522 c -15.28087,-5.747728 -24.30707,-18.051202 -24.30707,-34.717232 v -81.778411 c 0.0429,-4.83143 2.39191,-15.86873 4.95043,-19.85763 3.35581,-5.20033 19.77313,-17.33839 25.98616,-17.33839 13.34949,0 29.42885,5.49782 37.06869,17.33839 2.01111,3.15352 5.41453,15.82707 6.17613,19.85763 v 81.778411" />
    <path
       inkscape:connector-curvature="0"
       id="path853"
       style="fill:#ffd70a;fill-opacity:1;fill-rule:nonzero;stroke:none;stroke-width:41.9807663"
       d="m 550.67818,-52.035014 -1.26141,7.425643 c -1.6422,2.475211 -8.05634,7.473233 -11.07895,7.473233 h -6.21184 c -0.357,0 -5.49782,-2.225309 -6.17613,-2.475211 -2.17771,-2.058708 -6.17613,-9.650952 -6.17613,-12.426041 v -81.77841 c 1.64221,-6.37843 6.09283,-12.51054 12.34274,-14.86198 h 6.21183 c 3.95083,1.7612 8.43715,5.20032 11.07896,8.65134 l 1.26141,6.21183 v 81.778408" />
    <g
       id="g857"
       style="font-style:normal;font-variant:normal;font-weight:bold;font-stretch:normal;font-size:263.32843018px;line-height:0;font-family:'DIN 1451 Engschrift';-inkscape-font-specification:'DIN 1451 Engschrift Bold';letter-spacing:0px;word-spacing:0px;fill:#000000;fill-opacity:1;stroke:none;stroke-width:1.37150216"
       aria-label="S0S"
       transform="matrix(0.88,0,0,0.88,58.503989,-12.435964)">
      <path
         inkscape:connector-curvature="0"
         id="path855"
         style="fill:#000000;fill-opacity:1;stroke:none;stroke-width:1.37150216"
         d="m 421.47953,-46.592494 q 0,5.003241 0.26332,7.636525 0.52666,2.369959 3.94993,7.636529 3.6866,5.00324 13.16642,5.00324 5.26657,0 9.74315,-2.10663 4.47659,-2.36996 6.58321,-5.79323 2.10663,-3.6866 2.10663,-7.373193 0.26333,-3.949927 0.26333,-5.266569 v -12.376436 q 0,-5.266569 -0.52666,-7.899853 -0.26333,-2.633284 -3.15994,-5.529897 -2.63328,-3.159941 -7.89985,-5.529897 -5.00324,-2.633284 -17.90633,-7.373196 -12.63977,-4.739912 -21.32961,-14.746389 -8.68983,-10.26981 -8.68983,-27.91282 v -7.89985 q 0,-17.90633 11.84977,-30.80943 12.11311,-13.16642 30.01945,-13.16642 18.16966,0 30.28276,12.90309 12.37644,12.63977 12.37644,31.07276 v 7.89985 h -25.0162 v -7.89985 q 0,-3.6866 -0.52666,-6.31988 -0.52665,-2.63329 -4.21325,-7.63653 -3.6866,-5.00324 -12.37644,-5.00324 -7.63652,0 -12.63976,5.5299 -4.73991,5.26657 -4.73991,13.42975 v 7.89985 q 0,5.00324 0.26332,7.3732 0.52666,2.10663 2.89662,5.00324 2.36995,2.89661 6.84654,5.00324 4.47658,2.10663 17.11634,6.84654 12.9031,4.476582 22.64625,15.009719 9.74315,10.269809 9.74315,28.176142 v 14.219735 q 0,8.689834 -1.8433,15.273054 -1.57997,6.58321 -10.53314,18.43299 Q 461.24212,-1.3 439.38586,-1.3 416.73961,-1.3 406.4698,-16.0464 396.2,-31.05612 396.2,-46.592494 v -6.319882 h 25.27953 z" />
    </g>
    <g
       transform="matrix(0.88,0,0,0.88,241.36799,-12.435964)"
       aria-label="S0S"
       style="font-style:normal;font-variant:normal;font-weight:bold;font-stretch:normal;font-size:263.32843018px;line-height:0;font-family:'DIN 1451 Engschrift';-inkscape-font-specification:'DIN 1451 Engschrift Bold';letter-spacing:0px;word-spacing:0px;fill:#000000;fill-opacity:1;stroke:none;stroke-width:1.37150216"
       id="g861">
      <path
         d="m 421.47953,-46.592494 q 0,5.003241 0.26332,7.636525 0.52666,2.369959 3.94993,7.636529 3.6866,5.00324 13.16642,5.00324 5.26657,0 9.74315,-2.10663 4.47659,-2.36996 6.58321,-5.79323 2.10663,-3.6866 2.10663,-7.373193 0.26333,-3.949927 0.26333,-5.266569 v -12.376436 q 0,-5.266569 -0.52666,-7.899853 -0.26333,-2.633284 -3.15994,-5.529897 -2.63328,-3.159941 -7.89985,-5.529897 -5.00324,-2.633284 -17.90633,-7.373196 -12.63977,-4.739912 -21.32961,-14.746389 -8.68983,-10.26981 -8.68983,-27.91282 v -7.89985 q 0,-17.90633 11.84977,-30.80943 12.11311,-13.16642 30.01945,-13.16642 18.16966,0 30.28276,12.90309 12.37644,12.63977 12.37644,31.07276 v 7.89985 h -25.0162 v -7.89985 q 0,-3.6866 -0.52666,-6.31988 -0.52665,-2.63329 -4.21325,-7.63653 -3.6866,-5.00324 -12.37644,-5.00324 -7.63652,0 -12.63976,5.5299 -4.73991,5.26657 -4.73991,13.42975 v 7.89985 q 0,5.00324 0.26332,7.3732 0.52666,2.10663 2.89662,5.00324 2.36995,2.89661 6.84654,5.00324 4.47658,2.10663 17.11634,6.84654 12.9031,4.476582 22.64625,15.009719 9.74315,10.269809 9.74315,28.176142 v 14.219735 q 0,8.689834 -1.8433,15.273054 -1.57997,6.58321 -10.53314,18.43299 Q 461.24212,-1.3 439.38586,-1.3 416.73961,-1.3 406.4698,-16.0464 396.2,-31.05612 396.2,-46.592494 v -6.319882 h 25.27953 z"
         style="fill:#000000;fill-opacity:1;stroke:none;stroke-width:1.37150216"
         id="path859"
         inkscape:connector-curvature="0" />
    </g>
  </g>
</svg>
