<?xml version="1.0" encoding="UTF-8" standalone="no"?>
<!-- Created with Inkscape (http://www.inkscape.org/) -->

<svg
   xmlns:dc="http://purl.org/dc/elements/1.1/"
   xmlns:cc="http://creativecommons.org/ns#"
   xmlns:rdf="http://www.w3.org/1999/02/22-rdf-syntax-ns#"
   xmlns:svg="http://www.w3.org/2000/svg"
   xmlns="http://www.w3.org/2000/svg"
   xmlns:sodipodi="http://sodipodi.sourceforge.net/DTD/sodipodi-0.dtd"
   xmlns:inkscape="http://www.inkscape.org/namespaces/inkscape"
   width="978mm"
   height="602mm"
   viewBox="0 0 978 602.00001"
   version="1.1"
   id="svg8781"
   inkscape:version="0.92.2 (5c3e80d, 2017-08-06)"
   sodipodi:docname="22.svg">
  <defs
     id="defs8775">
    <pattern
       y="0"
       x="0"
       height="6"
       width="6"
       patternUnits="userSpaceOnUse"
       id="EMFhbasepattern" />
    <pattern
       y="0"
       x="0"
       height="6"
       width="6"
       patternUnits="userSpaceOnUse"
       id="EMFhbasepattern-3" />
    <pattern
       y="0"
       x="0"
       height="6"
       width="6"
       patternUnits="userSpaceOnUse"
       id="EMFhbasepattern-2" />
    <pattern
       y="0"
       x="0"
       height="6"
       width="6"
       patternUnits="userSpaceOnUse"
       id="EMFhbasepattern-33" />
    <pattern
       y="0"
       x="0"
       height="6"
       width="6"
       patternUnits="userSpaceOnUse"
       id="EMFhbasepattern-1" />
    <pattern
       y="0"
       x="0"
       height="6"
       width="6"
       patternUnits="userSpaceOnUse"
       id="EMFhbasepattern-4" />
  </defs>
  <sodipodi:namedview
     id="base"
     pagecolor="#ffffff"
     bordercolor="#666666"
     borderopacity="1.0"
     inkscape:pageopacity="0.0"
     inkscape:pageshadow="2"
     inkscape:zoom="0.26812066"
     inkscape:cx="1336.6683"
     inkscape:cy="1043.0518"
     inkscape:document-units="mm"
     inkscape:current-layer="layer1"
     showgrid="false"
     showguides="true"
     inkscape:window-width="1920"
     inkscape:window-height="1057"
     inkscape:window-x="-8"
     inkscape:window-y="-8"
     inkscape:window-maximized="1"
     inkscape:snap-global="false"
     fit-margin-top="0"
     fit-margin-left="0"
     fit-margin-right="0"
     fit-margin-bottom="0" />
  <metadata
     id="metadata8778">
    <rdf:RDF>
      <cc:Work
         rdf:about="">
        <dc:format>image/svg+xml</dc:format>
        <dc:type
           rdf:resource="http://purl.org/dc/dcmitype/StillImage" />
        <dc:title></dc:title>
      </cc:Work>
    </rdf:RDF>
  </metadata>
  <g
     inkscape:label="Layer 1"
     inkscape:groupmode="layer"
     id="layer1"
     transform="translate(-84.340927,375.44855)">
    <path
       d="m 223.30195,214.60415 -90.8552,-45.4375 c -4.3649,-8.6365 -45.427597,-89.29177 -45.427597,-90.87497 v -112.7546 c 0,-39.2477 -6.1462,-187.843 5.0856,-222.102 24.656897,-75.1852 -4.9904,-111.2177 153.936797,-106.9484 34.2026,0.952 78.4785,3.3593 113.5445,0 17.8934,-1.7273 38.8558,-10.9351 56.4133,-10.9351 h 56.3643 c 12.1428,0 125.9702,14.7786 130.4316,20.1999 14.343,-17.3696 105.1016,-6.814 130.3827,-9.2621 17.8444,-1.7273 38.8558,-10.9351 56.4119,-10.9351 h 56.3657 c 17.8444,0 39.0951,9.167 57.2278,10.9351 58.763,5.6579 96.5635,0.544 135.46695,57.1926 7.1524,33.1071 22.6907,79.7918 22.6907,112.8022 0,17.8497 -9.2058,39.105 -10.9327,57.2416 -8.825,91.5944 16.501,193.8411 -11.7485,282.74937 -12.4284,52.1549 -36.2654,72.0189 -135.46695,79.0722 h -57.2278 c -17.5575,0 -38.5199,-9.1669 -56.3657,-10.935 -61.5926,-5.9435 -130.622,0 -192.696,0 l -6.7173,-3.3594 c -1.8221,4.2163 -55.2126,14.2985 -61.4486,14.2985 h -56.3656 c -17.5562,0 -38.5199,-9.1669 -56.3644,-10.935 -61.5451,-5.9436 -130.622,0 -192.696,0"
       style="fill:#782d00;fill-opacity:1;fill-rule:nonzero;stroke:none;stroke-width:47.97531128"
       id="path6315"
       inkscape:connector-curvature="0" />
    <path
       id="path842"
       d="m 787.50018,125.68884 c 0,-23.29679 -20.38734,-37.857113 -43.68616,-37.857113 -14.5616,0 -34.94892,17.471553 -34.94892,34.944483 0,17.47296 8.73723,34.94589 26.21169,37.85849 2.917,2.91675 8.73723,2.91675 11.65423,2.91675 23.29882,0 40.77328,-14.56032 40.77328,-37.85711 z"
       style="fill:#ffffff;fill-opacity:1;fill-rule:nonzero;stroke:none;stroke-width:36.40353775"
       inkscape:connector-curvature="0" />
    <path
       id="path844"
       d="m 359.3786,125.68884 c 0,-23.29679 -20.38596,-37.857113 -40.77329,-37.857113 -17.47447,0 -37.86042,17.471553 -37.86042,34.944483 v 8.73648 l 2.917,5.81973 c 5.82023,14.56031 20.38595,26.20802 34.94754,26.20802 23.30021,0 40.77467,-17.47155 40.77467,-37.85711 z"
       style="fill:#ffffff;fill-opacity:1;fill-rule:nonzero;stroke:none;stroke-width:36.40353775"
       inkscape:connector-curvature="0" />
    <path
       id="path846"
       d="m 167.16088,-40.302681 -8.73723,-17.472935 c 23.29883,-5.819725 46.59902,-11.653209 69.89785,-8.736466 h 273.76429 c 0,-2.916743 2.91699,-2.916743 2.91699,-5.819727 l 5.82024,-2.916741 h 5.82023 64.07211 c 5.82024,0 11.65424,2.916741 14.56298,8.736468 h 317.45044 c 23.29883,-2.916743 46.59765,2.916741 66.98495,8.736466 l 5.82031,2.916742 v 2.916742 l 2.91691,5.819726 -2.91691,2.916741 -2.917,2.916742 c 0,0 -5.82032,0 -5.82032,0 14.56164,23.29679 23.29888,61.155282 20.38605,87.363304 v 75.715589 c -29.12324,2.91676 -55.33493,5.81974 -84.45949,5.81974 h -104.8454 c 2.917,-29.12202 -23.29882,-64.067894 -55.33488,-64.067894 -40.77467,0 -64.07349,29.122015 -64.07349,64.067894 H 379.7563 c 2.91699,-29.12202 -26.2117,-64.067894 -55.33488,-64.067894 -34.94894,0 -66.98499,29.122015 -64.07212,64.067894 H 149.67816 c -5.82023,-20.38556 -8.73723,-40.769734 -8.73723,-64.067894 0,-37.857112 11.65423,-69.8903687 26.21169,-104.836238 z"
       style="fill:#ffffff;fill-opacity:1;fill-rule:nonzero;stroke:none;stroke-width:36.40353775"
       inkscape:connector-curvature="0" />
    <path
       id="path848"
       d="M 175.89811,-31.566214 V 102.39205 c 0,5.81973 8.73723,11.65321 14.5616,11.65321 h 40.77465 c 2.91701,0 2.91701,0 5.82025,0 l 2.91699,-2.91674 2.917,-2.91674 2.917,-5.81973 V -31.566214 c 0,-2.916741 0,-2.916741 -2.917,-5.819725 v -2.916742 l -5.82023,-5.819725 h -5.82024 -40.77466 c -2.917,0 -2.917,0 -5.82024,0 l -2.91699,2.916741 -2.917,5.819726 z"
       style="fill:#782d00;fill-opacity:1;fill-rule:nonzero;stroke:none;stroke-width:36.40353775"
       inkscape:connector-curvature="0" />
    <path
       id="path850"
       d="m 266.18192,-46.126536 h 52.42339 5.82023 v 2.916741 c 2.917,2.916743 2.917,2.916743 2.917,5.819727 v 55.330046 5.819726 c -2.917,0 -5.82023,2.916742 -8.73723,2.916742 h -52.42339 -2.917 c -2.917,-2.916742 -5.82023,-5.819727 -5.82023,-8.736468 v -55.330046 l 2.91699,-2.916742 c 0,-2.916742 5.82024,-2.916742 5.82024,-5.819726 z"
       style="fill:#782d00;fill-opacity:1;fill-rule:nonzero;stroke:none;stroke-width:36.40353775"
       inkscape:connector-curvature="0" />
    <path
       id="path852"
       d="m 350.64137,-46.126536 h 128.14559 2.917 c 0,2.916741 2.91699,2.916741 2.91699,2.916741 0,2.916743 2.917,5.819727 2.917,5.819727 v 55.330046 l -2.917,5.819726 -2.91699,2.916742 c 0,0 -2.917,0 -2.917,0 h -128.14559 -5.82024 l -2.917,-2.916742 c 0,-2.916742 0,-2.916742 0,-5.819726 v -55.330046 -2.916742 l 2.917,-2.916742 c 0,0 2.917,-2.916741 5.82024,-2.916741 z"
       style="fill:#782d00;fill-opacity:1;fill-rule:nonzero;stroke:none;stroke-width:36.40353775"
       inkscape:connector-curvature="0" />
    <path
       id="path854"
       d="m 636.05575,26.676446 h -128.1456 -2.917 l -2.91699,-2.916742 c 0,-2.916742 -2.917,-2.916742 -2.917,-5.819726 v -55.330046 l 2.917,-2.916742 2.91699,-2.916742 c 0,0 2.917,-2.916741 2.917,-2.916741 h 128.1456 5.82024 l 2.91699,2.916741 c 0,2.916742 0,5.819726 0,5.819726 v 55.330047 5.819725 l -2.91699,2.916742 c 0,0 -5.82024,0 -5.82024,0 z"
       style="fill:#782d00;fill-opacity:1;fill-rule:nonzero;stroke:none;stroke-width:36.40353775"
       inkscape:connector-curvature="0" />
    <path
       id="path856"
       d="m 668.09181,-46.126536 h 128.1456 2.917 l 2.917,2.916741 c 2.91699,2.916743 2.91699,5.819727 2.91699,5.819727 v 55.330046 l -2.91699,5.819726 v 2.916742 c -2.917,0 -5.82024,0 -5.82024,0 h -128.1456 -2.917 c -2.91699,-2.916742 -5.82023,-5.819727 -5.82023,-8.736468 v -55.330046 c 0,0 0,-2.916742 0,-2.916742 l 2.91699,-2.916742 z"
       style="fill:#782d00;fill-opacity:1;fill-rule:nonzero;stroke:none;stroke-width:36.40353775"
       inkscape:connector-curvature="0" />
    <path
       id="path858"
       d="m 947.68183,-40.302681 23.29883,55.330047 v 5.819725 2.916742 c -8.73723,8.736467 -125.23273,2.916742 -145.62007,2.916742 0,0 -2.91699,-2.916742 -5.82023,-2.916742 l -2.917,-5.819725 v -55.330047 c 2.917,-2.916742 2.917,-2.916742 2.917,-5.819726 l 2.917,-2.916741 h 2.91699 116.49551 2.917 l 2.91699,2.916741 z"
       style="fill:#782d00;fill-opacity:1;fill-rule:nonzero;stroke:none;stroke-width:36.40353775"
       inkscape:connector-curvature="0" />
  </g>
</svg>
