<?xml version="1.0" encoding="UTF-8" standalone="no"?>
<!-- Created with Inkscape (http://www.inkscape.org/) -->

<svg
   xmlns:dc="http://purl.org/dc/elements/1.1/"
   xmlns:cc="http://creativecommons.org/ns#"
   xmlns:rdf="http://www.w3.org/1999/02/22-rdf-syntax-ns#"
   xmlns:svg="http://www.w3.org/2000/svg"
   xmlns="http://www.w3.org/2000/svg"
   xmlns:sodipodi="http://sodipodi.sourceforge.net/DTD/sodipodi-0.dtd"
   xmlns:inkscape="http://www.inkscape.org/namespaces/inkscape"
   width="602mm"
   height="602mm"
   viewBox="0 0 602 601.99999"
   version="1.1"
   id="svg8781"
   inkscape:version="0.92.2 (5c3e80d, 2017-08-06)"
   sodipodi:docname="11.svg">
  <defs
     id="defs8775">
    <pattern
       y="0"
       x="0"
       height="6"
       width="6"
       patternUnits="userSpaceOnUse"
       id="EMFhbasepattern" />
    <pattern
       y="0"
       x="0"
       height="6"
       width="6"
       patternUnits="userSpaceOnUse"
       id="EMFhbasepattern-2" />
    <pattern
       y="0"
       x="0"
       height="6"
       width="6"
       patternUnits="userSpaceOnUse"
       id="EMFhbasepattern-6" />
    <pattern
       y="0"
       x="0"
       height="6"
       width="6"
       patternUnits="userSpaceOnUse"
       id="EMFhbasepattern-8" />
    <pattern
       y="0"
       x="0"
       height="6"
       width="6"
       patternUnits="userSpaceOnUse"
       id="EMFhbasepattern-0" />
    <pattern
       y="0"
       x="0"
       height="6"
       width="6"
       patternUnits="userSpaceOnUse"
       id="EMFhbasepattern-7" />
    <pattern
       y="0"
       x="0"
       height="6"
       width="6"
       patternUnits="userSpaceOnUse"
       id="EMFhbasepattern-5" />
    <pattern
       y="0"
       x="0"
       height="6"
       width="6"
       patternUnits="userSpaceOnUse"
       id="EMFhbasepattern-82" />
    <pattern
       y="0"
       x="0"
       height="6"
       width="6"
       patternUnits="userSpaceOnUse"
       id="EMFhbasepattern-84" />
    <pattern
       y="0"
       x="0"
       height="6"
       width="6"
       patternUnits="userSpaceOnUse"
       id="EMFhbasepattern-86" />
    <pattern
       y="0"
       x="0"
       height="6"
       width="6"
       patternUnits="userSpaceOnUse"
       id="EMFhbasepattern-23" />
    <pattern
       y="0"
       x="0"
       height="6"
       width="6"
       patternUnits="userSpaceOnUse"
       id="EMFhbasepattern-06" />
    <pattern
       y="0"
       x="0"
       height="6"
       width="6"
       patternUnits="userSpaceOnUse"
       id="EMFhbasepattern-4" />
    <pattern
       y="0"
       x="0"
       height="6"
       width="6"
       patternUnits="userSpaceOnUse"
       id="EMFhbasepattern-25" />
  </defs>
  <sodipodi:namedview
     id="base"
     pagecolor="#ffffff"
     bordercolor="#666666"
     borderopacity="1.0"
     inkscape:pageopacity="0.0"
     inkscape:pageshadow="2"
     inkscape:zoom="0.2414452"
     inkscape:cx="402.11873"
     inkscape:cy="706.66318"
     inkscape:document-units="mm"
     inkscape:current-layer="layer1"
     showgrid="false"
     showguides="true"
     inkscape:window-width="1920"
     inkscape:window-height="1057"
     inkscape:window-x="-8"
     inkscape:window-y="-8"
     inkscape:window-maximized="1"
     inkscape:snap-global="false"
     inkscape:measure-start="0,0"
     inkscape:measure-end="0,0"
     fit-margin-top="0"
     fit-margin-left="0"
     fit-margin-right="0"
     fit-margin-bottom="0" />
  <metadata
     id="metadata8778">
    <rdf:RDF>
      <cc:Work
         rdf:about="">
        <dc:format>image/svg+xml</dc:format>
        <dc:type
           rdf:resource="http://purl.org/dc/dcmitype/StillImage" />
        <dc:title></dc:title>
      </cc:Work>
    </rdf:RDF>
  </metadata>
  <g
     inkscape:label="Layer 1"
     inkscape:groupmode="layer"
     id="layer1"
     transform="translate(-179.2,397.3)">
    <path
       d="m 197.40882,154.56186 c -1.3527,-9.4252 -16.1876,-104.2777 -16.1876,-105.8338 v -110.834 c 0,-38.5793 -4.35,-74.0929 6.5912,-107.767 11.4584,-35.1367 -21.8479,-121.7766 0,-151.8196 84.9634,-116.72832 153.6449,-53.7184 258.4906,-63.85886 38.7849,-3.77009 70.8804,-10.74876 110.7885,-10.74876 17.124,0 37.5687,9.05088 54.9725,10.74876 77.5711,-17.92128 118.64894,-11.36374 158.64994,44.4282 6.0873,32.82516 -3.5542,90.45936 -3.5542,122.67086 0,17.3572 -9.6415,38.5806 -11.4584,56.2666 -9.363,90.5997 43.1825,193.1328 17.2168,281.8475 -9.8272,98.00494 -123.98164,73.8109 -215.82134,73.8109 -17.1239,0 -54.5521,10.22734 -72.05,10.22734 -53.897,0 -92.8688,-20.98814 -145.1293,-20.98814 -10.0526,0 -34.2466,10.468 -44.0711,8.6364 -46.1771,0 -92.028,7.68724 -98.4376,-36.7878"
       style="fill:#782d00;fill-opacity:1;fill-rule:nonzero;stroke:none;stroke-width:46.97400665"
       id="path6282"
       inkscape:connector-curvature="0" />
    <path
       d="m 666.22453,115.49856 c -2.09603,3.43489 -3.34012,8.54664 -3.34012,12.49541 0,11.45412 10.20971,21.70603 21.65811,21.70603 9.92572,0 18.93867,-6.72102 21.37277,-16.41036 l 1.08182,-4.4356 c 0,-4.24627 -1.37932,-9.58792 -3.28604,-13.36088 -12.45449,-13.69086 -18.22331,-31.676661 -18.36666,-49.996491 -2.96149,20.848659 -4.58422,33.299441 -19.13069,49.996491"
       style="fill:#ffffff;fill-opacity:1;fill-rule:nonzero;stroke:none;stroke-width:47.7060585"
       id="path7248"
       inkscape:connector-curvature="0" />
    <path
       d="m 462.85658,-280.32305 h 20.8481 c 1.21705,0.27047 3.05615,0.4057 4.1515,0.81139 l 4.19207,2.47474 1.66329,2.77225 0.81137,3.05623 30.8171,127.51937 c 5.62548,29.96056 27.76501,27.71842 50.85383,30.81929 29.33905,3.96229 60.68217,19.988583 79.14349,43.317394 31.05646,34.730179 54.90931,88.210229 55.86267,135.009843 h -52.52388 c -1.21706,-16.076333 -5.8148,-33.346764 -11.64313,-48.32637 -3.34013,-21.0866728 -35.92194,-39.978534 -55.81534,-39.978534 -44.22359,0 -71.51123,52.477988 -125.03582,52.477988 -44.89161,0 -77.18809,-6.301791 -111.67934,-37.4983818 C 343.91414,-16.549704 328.40756,-23.372142 314.52641,-22.847447 H 292.00825 V 14.649585 H 266.2 V -152.84831 c 2.4341,0 24.94955,-0.54092 25.80825,0 v 37.49702 h 57.53273 c 2.33945,-0.54092 5.24685,-0.94662 7.49163,-1.66334 9.58765,-3.39431 18.12865,-11.45412 19.98804,-21.70738 l 31.67714,-133.29241 0.81138,-2.24484 1.6633,-2.77225 4.19207,-2.47474 c 1.08182,-0.54092 2.9074,-0.67616 4.15149,-0.81138 h 20.84675 v -37.49839 h -70.0305 v -22.51741 c 25.61758,-7.11319 52.66587,-9.96657 79.19084,-9.96657 11.11573,0 77.75877,4.58435 83.34098,9.96657 v 22.51741 h -70.03186 v 37.49839"
       style="fill:#ffffff;fill-opacity:1;fill-rule:nonzero;stroke:none;stroke-width:47.7060585"
       id="path7250"
       inkscape:connector-curvature="0" />
  </g>
</svg>
