<?xml version="1.0" encoding="UTF-8" standalone="no"?>
<!-- Created with Inkscape (http://www.inkscape.org/) -->

<svg
   xmlns:dc="http://purl.org/dc/elements/1.1/"
   xmlns:cc="http://creativecommons.org/ns#"
   xmlns:rdf="http://www.w3.org/1999/02/22-rdf-syntax-ns#"
   xmlns:svg="http://www.w3.org/2000/svg"
   xmlns="http://www.w3.org/2000/svg"
   xmlns:sodipodi="http://sodipodi.sourceforge.net/DTD/sodipodi-0.dtd"
   xmlns:inkscape="http://www.inkscape.org/namespaces/inkscape"
   width="602mm"
   height="602mm"
   viewBox="0 0 602 601.99999"
   version="1.1"
   id="svg8781"
   inkscape:version="0.92.2 (5c3e80d, 2017-08-06)"
   sodipodi:docname="11.svg">
  <defs
     id="defs8775">
    <pattern
       y="0"
       x="0"
       height="6"
       width="6"
       patternUnits="userSpaceOnUse"
       id="EMFhbasepattern" />
    <pattern
       y="0"
       x="0"
       height="6"
       width="6"
       patternUnits="userSpaceOnUse"
       id="EMFhbasepattern-2" />
    <pattern
       y="0"
       x="0"
       height="6"
       width="6"
       patternUnits="userSpaceOnUse"
       id="EMFhbasepattern-6" />
    <pattern
       y="0"
       x="0"
       height="6"
       width="6"
       patternUnits="userSpaceOnUse"
       id="EMFhbasepattern-8" />
    <pattern
       y="0"
       x="0"
       height="6"
       width="6"
       patternUnits="userSpaceOnUse"
       id="EMFhbasepattern-0" />
    <pattern
       y="0"
       x="0"
       height="6"
       width="6"
       patternUnits="userSpaceOnUse"
       id="EMFhbasepattern-7" />
    <pattern
       y="0"
       x="0"
       height="6"
       width="6"
       patternUnits="userSpaceOnUse"
       id="EMFhbasepattern-5" />
    <pattern
       y="0"
       x="0"
       height="6"
       width="6"
       patternUnits="userSpaceOnUse"
       id="EMFhbasepattern-82" />
    <pattern
       y="0"
       x="0"
       height="6"
       width="6"
       patternUnits="userSpaceOnUse"
       id="EMFhbasepattern-84" />
    <pattern
       y="0"
       x="0"
       height="6"
       width="6"
       patternUnits="userSpaceOnUse"
       id="EMFhbasepattern-86" />
    <pattern
       y="0"
       x="0"
       height="6"
       width="6"
       patternUnits="userSpaceOnUse"
       id="EMFhbasepattern-23" />
    <pattern
       y="0"
       x="0"
       height="6"
       width="6"
       patternUnits="userSpaceOnUse"
       id="EMFhbasepattern-06" />
  </defs>
  <sodipodi:namedview
     id="base"
     pagecolor="#ffffff"
     bordercolor="#666666"
     borderopacity="1.0"
     inkscape:pageopacity="0.0"
     inkscape:pageshadow="2"
     inkscape:zoom="0.2414452"
     inkscape:cx="586.10273"
     inkscape:cy="749.6057"
     inkscape:document-units="mm"
     inkscape:current-layer="layer1"
     showgrid="false"
     showguides="true"
     inkscape:window-width="1920"
     inkscape:window-height="1057"
     inkscape:window-x="-8"
     inkscape:window-y="-8"
     inkscape:window-maximized="1"
     inkscape:snap-global="false"
     inkscape:measure-start="0,0"
     inkscape:measure-end="0,0"
     fit-margin-top="0"
     fit-margin-left="0"
     fit-margin-right="0"
     fit-margin-bottom="0" />
  <metadata
     id="metadata8778">
    <rdf:RDF>
      <cc:Work
         rdf:about="">
        <dc:format>image/svg+xml</dc:format>
        <dc:type
           rdf:resource="http://purl.org/dc/dcmitype/StillImage" />
        <dc:title></dc:title>
      </cc:Work>
    </rdf:RDF>
  </metadata>
  <g
     inkscape:label="Layer 1"
     inkscape:groupmode="layer"
     id="layer1"
     transform="translate(-179.2,397.3)">
    <path
       d="m 197.40882,154.5619 c -1.3527,-9.4252 -16.1876,-104.2777 -16.1876,-105.8338 v -110.834 c 0,-38.5793 -4.35,-74.0929 6.5912,-107.767 11.4584,-35.1367 -21.8479,-121.7766 0,-151.8196 84.9634,-116.72832 153.6449,-53.7184 258.4906,-63.85886 38.7849,-3.77009 70.8804,-10.74876 110.7885,-10.74876 17.124,0 37.5687,9.05088 54.9725,10.74876 77.5711,-17.92128 118.64894,-11.36374 158.64994,44.4282 6.0873,32.82516 -3.5542,90.45936 -3.5542,122.67086 0,17.3572 -9.6415,38.5806 -11.4584,56.2666 -9.363,90.5997 43.1825,193.1328 17.2168,281.8475 -9.8272,98.0049 -123.98164,73.8109 -215.82134,73.8109 -17.1239,0 -54.5521,10.2273 -72.05,10.2273 -53.897,0 -92.8688,-20.9881 -145.1293,-20.9881 -10.0526,0 -34.2466,10.468 -44.0711,8.6364 -46.1771,0 -92.028,7.6872 -98.4376,-36.7878"
       style="fill:#782d00;fill-opacity:1;fill-rule:nonzero;stroke:none;stroke-width:46.97400665"
       id="path6282"
       inkscape:connector-curvature="0" />
    <path
       d="m 519.84639,-339.96395 122.86809,69.6965 31.39736,-42.36151 -2.71869,-9.5471 1.35258,-4.09741 9.54921,-12.30574 4.0983,-2.71809 h 4.09831 c 4.00363,3.58354 7.77732,7.92436 10.92881,12.30575 0.40578,2.9074 1.37964,6.62617 1.37964,9.54709 l -1.37964,4.0974 -9.53565,12.30575 -4.09833,2.71808 -6.8305,-4.0974 -111.94197,154.37354 -2.71867,5.43617 -25.95732,47.849065 -4.05772,5.436163 -129.69185,165.29996 6.81698,5.490254 129.69186,-165.299959 4.05773,-6.869586 25.95729,-47.800387 2.71869,-5.43616 76.44089,-105.18978 v 53.23925 c -0.40578,2.66399 -2.05592,8.34357 -2.71869,10.96699 L 391.6018,151.83041 c -0.81154,0.94661 -6.30302,5.24685 -6.817,5.49027 L 376.57467,158.7 c -1.90713,0 -4.90985,-0.94659 -6.83052,-1.37932 L 244.15604,87.622824 238.71867,82.186661 236,75.371177 V 30.288875 l 129.64314,71.033895 4.09831,-6.815492 -131.02684,-72.415926 151.49675,-193.970992 2.71867,-5.49026 25.90997,-49.18376 4.09831,-4.09741 75.10454,-103.8064 5.43734,-5.49025 c 1.96125,-0.40569 4.90986,-1.35228 6.817,-1.35228 3.15151,0 6.24891,1.81205 9.53566,1.35228"
       style="fill:#ffffff;fill-opacity:1;fill-rule:nonzero;stroke:none;stroke-width:47.71066284"
       id="path6578"
       inkscape:connector-curvature="0" />
    <path
       d="m 614.0385,-252.52013 2.71868,4.0974 v 5.49025 c -9.40042,19.2727 -25.14577,37.44869 -40.9398,51.9032 l -4.09833,2.71809 -6.83049,-1.37933 c -41.0832,-14.35985 -67.08784,-28.24236 -100.96582,-56.00737 l -2.77279,-5.43616 c 0.40578,-1.08182 1.66368,-4.34082 1.37963,-5.49025 7.30391,-17.22129 26.38607,-38.68873 39.60345,-51.9032 1.86655,-0.67614 6.15423,-1.7174 8.15604,-1.37933 39.126,11.83245 71.52563,32.7725 103.73454,57.38939"
       style="fill:#782d00;fill-opacity:1;fill-rule:nonzero;stroke:none;stroke-width:47.71066284"
       id="path6580"
       inkscape:connector-curvature="0" />
    <path
       d="m 339.71966,-14.804248 -1.37964,4.097412 c -1.08205,0.270457 -3.00272,1.0818248 -4.09829,1.3522809 -0.94681,0.1352231 -3.00273,0 -4.09831,0 l -8.15605,-4.0974129 -2.71868,-4.097402 v -4.056842 l 4.05774,-5.490254 4.09831,-1.379321 h 4.0983 l 6.81698,4.097402 2.7187,4.097413 -1.35258,5.490254"
       style="fill:#782d00;fill-opacity:1;fill-rule:nonzero;stroke:none;stroke-width:47.71066284"
       id="path6582"
       inkscape:connector-curvature="0" />
    <path
       d="m 356.08584,-7.981989 4.0983,-2.718091 c 3.38145,0.540912 8.15604,3.4753681 10.87472,5.4361724 l 2.77279,9.5876568 -6.81698,5.4361628 -4.09831,-1.379321 -6.81699,-4.0568418 -4.09832,-2.7721726 c 0.27053,-1.2170476 4.39588,-8.3976599 4.09832,-9.5470959"
       style="fill:#782d00;fill-opacity:1;fill-rule:nonzero;stroke:none;stroke-width:47.71066284"
       id="path6584"
       inkscape:connector-curvature="0" />
    <path
       d="m 406.56942,22.072426 -2.71868,4.097402 c -1.08206,0.270456 -3.00273,1.217058 -4.09831,1.352281 -0.9468,0.135233 -3.0027,0 -4.09832,0 l -6.83049,-4.097403 -2.71867,-4.056842 v -4.097412 l 2.71867,-5.490254 4.0983,-1.379322 h 4.0983 l 8.21015,4.097403 2.71868,4.097413 -1.37963,5.490254"
       style="fill:#782d00;fill-opacity:1;fill-rule:nonzero;stroke:none;stroke-width:47.71066284"
       id="path6586"
       inkscape:connector-curvature="0" />
    <path
       d="m 358.80587,-38.036414 -4.09831,2.718092 -4.05772,-1.352281 -8.21016,-4.097412 1.37964,-12.305749 4.05774,-2.772172 c 3.43553,0.676145 8.15602,3.529449 10.92881,5.490264 v 12.305738"
       style="fill:#782d00;fill-opacity:1;fill-rule:nonzero;stroke:none;stroke-width:47.71066284"
       id="path6588"
       inkscape:connector-curvature="0" />
    <path
       d="m 394.3056,-23.009876 -2.71868,4.097403 c -1.08206,0.270456 -3.00271,1.217057 -4.09831,1.35228 -0.9468,0.135233 -3.00271,0 -4.09832,0 l -6.81697,-4.056841 -2.71868,-4.097403 v -5.490254 l 2.71868,-4.097413 4.0983,-1.35228 h 4.09832 l 8.15604,4.097412 2.71868,4.056842 -1.35258,5.490254"
       style="fill:#782d00;fill-opacity:1;fill-rule:nonzero;stroke:none;stroke-width:47.71066284"
       id="path6590"
       inkscape:connector-curvature="0" />
    <path
       d="m 427.03932,-3.8791802 -1.35257,-9.5876568 c -3.62492,-2.001375 -8.25073,-4.530142 -15.02984,-2.718081 l -1.37964,12.3057378 6.87109,4.0974126 10.87472,-4.0974126"
       style="fill:#782d00;fill-opacity:1;fill-rule:nonzero;stroke:none;stroke-width:47.71066284"
       id="path6592"
       inkscape:connector-curvature="0" />
    <path
       d="m 379.27576,-63.988009 c -1.08205,0.270456 -3.00271,1.217057 -4.09828,1.35228 -0.94683,0.135223 -3.00275,0 -4.09832,0 l -6.83053,-4.097402 -2.71868,-4.056842 v -5.490254 l 2.71868,-4.097413 4.09831,-1.379321 h 4.09832 l 6.8305,4.097402 4.09832,4.097413 c -0.40579,1.081825 -1.66368,4.340818 -1.37963,5.490254 l -2.71869,4.097403"
       style="fill:#782d00;fill-opacity:1;fill-rule:nonzero;stroke:none;stroke-width:47.71066284"
       id="path6594"
       inkscape:connector-curvature="0" />
    <path
       d="m 414.77686,-48.961482 -1.37964,-9.587656 c -3.67902,-2.055467 -8.11547,-4.489572 -12.26787,-5.436163 l -5.49146,5.436163 1.37963,9.587656 6.83052,4.097413 4.09831,1.352281 6.83051,-5.436163"
       style="fill:#782d00;fill-opacity:1;fill-rule:nonzero;stroke:none;stroke-width:47.71066284"
       id="path6596"
       inkscape:connector-curvature="0" />
    <path
       d="m 428.42301,-39.419792 2.71867,-4.097403 4.0983,-1.35228 h 4.09832 l 6.81699,4.097403 2.71867,4.097412 -1.37961,5.436163 -1.35258,4.097403 c -1.08207,0.405689 -3.00273,1.217057 -4.09833,1.379331 -0.94679,0.135223 -3.0027,0 -4.0983,0 l -8.21014,-4.097413 -2.71868,-4.097402 1.37964,-5.490254"
       style="fill:#782d00;fill-opacity:1;fill-rule:nonzero;stroke:none;stroke-width:47.71066284"
       id="path6598"
       inkscape:connector-curvature="0" />
    <path
       d="m 399.74567,-91.324343 -4.0983,2.718082 -4.05774,-1.352281 -6.817,-4.097402 -2.77277,-9.587666 6.81699,-5.43616 c 4.193,0.94659 8.64297,3.39421 12.30844,5.43616 l -1.37962,12.305747"
       style="fill:#782d00;fill-opacity:1;fill-rule:nonzero;stroke:none;stroke-width:47.71066284"
       id="path6600"
       inkscape:connector-curvature="0" />
    <path
       d="m 416.16052,-84.502093 2.67813,-4.097403 6.87108,-1.352281 8.15605,4.097403 2.71867,4.056842 -1.35257,5.490254 -2.71869,4.097413 -6.81698,1.379321 -8.21015,-4.097403 -2.71867,-4.097412 1.37962,-5.490255"
       style="fill:#782d00;fill-opacity:1;fill-rule:nonzero;stroke:none;stroke-width:47.71066284"
       id="path6602"
       inkscape:connector-curvature="0" />
    <path
       d="m 466.64277,-54.447679 -4.09831,2.772173 -4.09831,-1.379321 -8.21016,-4.097403 1.37965,-12.305748 4.09831,-2.718082 c 3.43553,0.676136 8.15604,3.488879 10.92882,5.436163 v 12.305749"
       style="fill:#782d00;fill-opacity:1;fill-rule:nonzero;stroke:none;stroke-width:47.71066284"
       id="path6604"
       inkscape:connector-curvature="0" />
    <path
       d="m 422.9356,-121.37876 -2.71869,4.09741 c -1.08207,0.40568 -3.00272,1.21705 -4.05772,1.37933 -0.94682,0.13522 -3.05683,0 -4.15243,0 l -6.77639,-4.09742 -2.77278,-4.0974 v -4.09741 l 4.09831,-5.49026 6.81698,-1.35228 8.21014,4.09742 2.71869,4.0974 -1.37965,5.43616"
       style="fill:#782d00;fill-opacity:1;fill-rule:nonzero;stroke:none;stroke-width:47.71066284"
       id="path6606"
       inkscape:connector-curvature="0" />
    <path
       d="m 436.58174,-111.78974 1.37965,9.54709 8.21012,4.097407 4.05774,1.379331 5.49146,-5.490268 -1.37964,-9.54708 c -2.77277,-1.96082 -7.49327,-4.86821 -10.92882,-5.49027 l -6.83051,5.49027"
       style="fill:#782d00;fill-opacity:1;fill-rule:nonzero;stroke:none;stroke-width:47.71066284"
       id="path6608"
       inkscape:connector-curvature="0" />
    <path
       d="m 487.11401,-80.399275 c -1.08206,0.40568 -3.00271,1.217048 -4.09829,1.379322 -0.94682,0.135233 -3.00274,0 -4.09831,0 l -6.83052,-4.097403 -2.71869,-4.097413 v -5.490254 l 2.71869,-4.056832 4.0983,-1.379331 h 4.09831 l 6.83051,4.097413 2.71869,4.097403 v 5.436163 l -2.71869,4.097412"
       style="fill:#782d00;fill-opacity:1;fill-rule:nonzero;stroke:none;stroke-width:47.71066284"
       id="path6610"
       inkscape:connector-curvature="0" />
    <path
       d="m 477.57023,-191.02793 -21.85358,38.26006 8.21015,4.05684 20.46989,-38.21137 -6.81699,-4.09741"
       style="fill:#782d00;fill-opacity:1;fill-rule:nonzero;stroke:none;stroke-width:47.71066284"
       id="path6612"
       inkscape:connector-curvature="0" />
    <path
       d="m 489.8327,-184.20567 6.83052,4.0974 -20.46989,38.26006 -6.81702,-4.09742 20.46991,-38.25869"
       style="fill:#782d00;fill-opacity:1;fill-rule:nonzero;stroke:none;stroke-width:47.71066284"
       id="path6614"
       inkscape:connector-curvature="0" />
    <path
       d="m 502.14384,-177.38478 8.15605,4.09742 -21.85493,38.26005 -6.817,-2.71808 20.51724,-39.64344"
       style="fill:#782d00;fill-opacity:1;fill-rule:nonzero;stroke:none;stroke-width:47.71066284"
       id="path6616"
       inkscape:connector-curvature="0" />
  </g>
</svg>
