<?xml version="1.0" encoding="UTF-8" standalone="no"?>
<!-- Created with Inkscape (http://www.inkscape.org/) -->

<svg
   xmlns:dc="http://purl.org/dc/elements/1.1/"
   xmlns:cc="http://creativecommons.org/ns#"
   xmlns:rdf="http://www.w3.org/1999/02/22-rdf-syntax-ns#"
   xmlns:svg="http://www.w3.org/2000/svg"
   xmlns="http://www.w3.org/2000/svg"
   xmlns:sodipodi="http://sodipodi.sourceforge.net/DTD/sodipodi-0.dtd"
   xmlns:inkscape="http://www.inkscape.org/namespaces/inkscape"
   width="602mm"
   height="602mm"
   viewBox="0 0 602 601.99999"
   version="1.1"
   id="svg8781"
   inkscape:version="0.92.2 (5c3e80d, 2017-08-06)"
   sodipodi:docname="11.svg">
  <defs
     id="defs8775">
    <pattern
       y="0"
       x="0"
       height="6"
       width="6"
       patternUnits="userSpaceOnUse"
       id="EMFhbasepattern" />
    <pattern
       y="0"
       x="0"
       height="6"
       width="6"
       patternUnits="userSpaceOnUse"
       id="EMFhbasepattern-2" />
    <pattern
       y="0"
       x="0"
       height="6"
       width="6"
       patternUnits="userSpaceOnUse"
       id="EMFhbasepattern-6" />
    <pattern
       y="0"
       x="0"
       height="6"
       width="6"
       patternUnits="userSpaceOnUse"
       id="EMFhbasepattern-8" />
    <pattern
       y="0"
       x="0"
       height="6"
       width="6"
       patternUnits="userSpaceOnUse"
       id="EMFhbasepattern-0" />
    <pattern
       y="0"
       x="0"
       height="6"
       width="6"
       patternUnits="userSpaceOnUse"
       id="EMFhbasepattern-7" />
    <pattern
       y="0"
       x="0"
       height="6"
       width="6"
       patternUnits="userSpaceOnUse"
       id="EMFhbasepattern-5" />
    <pattern
       y="0"
       x="0"
       height="6"
       width="6"
       patternUnits="userSpaceOnUse"
       id="EMFhbasepattern-82" />
    <pattern
       y="0"
       x="0"
       height="6"
       width="6"
       patternUnits="userSpaceOnUse"
       id="EMFhbasepattern-84" />
    <pattern
       y="0"
       x="0"
       height="6"
       width="6"
       patternUnits="userSpaceOnUse"
       id="EMFhbasepattern-86" />
    <pattern
       y="0"
       x="0"
       height="6"
       width="6"
       patternUnits="userSpaceOnUse"
       id="EMFhbasepattern-23" />
    <pattern
       y="0"
       x="0"
       height="6"
       width="6"
       patternUnits="userSpaceOnUse"
       id="EMFhbasepattern-06" />
  </defs>
  <sodipodi:namedview
     id="base"
     pagecolor="#ffffff"
     bordercolor="#666666"
     borderopacity="1.0"
     inkscape:pageopacity="0.0"
     inkscape:pageshadow="2"
     inkscape:zoom="0.2414452"
     inkscape:cx="726.10536"
     inkscape:cy="749.6057"
     inkscape:document-units="mm"
     inkscape:current-layer="layer1"
     showgrid="false"
     showguides="true"
     inkscape:window-width="1920"
     inkscape:window-height="1057"
     inkscape:window-x="-8"
     inkscape:window-y="-8"
     inkscape:window-maximized="1"
     inkscape:snap-global="false"
     inkscape:measure-start="0,0"
     inkscape:measure-end="0,0"
     fit-margin-top="0"
     fit-margin-left="0"
     fit-margin-right="0"
     fit-margin-bottom="0" />
  <metadata
     id="metadata8778">
    <rdf:RDF>
      <cc:Work
         rdf:about="">
        <dc:format>image/svg+xml</dc:format>
        <dc:type
           rdf:resource="http://purl.org/dc/dcmitype/StillImage" />
        <dc:title></dc:title>
      </cc:Work>
    </rdf:RDF>
  </metadata>
  <g
     inkscape:label="Layer 1"
     inkscape:groupmode="layer"
     id="layer1"
     transform="translate(-179.2,397.3)">
    <path
       d="m 197.40882,154.5619 c -1.3527,-9.4252 -16.1876,-104.2777 -16.1876,-105.8338 v -110.834 c 0,-38.5793 -4.35,-74.0929 6.5912,-107.767 11.4584,-35.1367 -21.8479,-121.7766 0,-151.8196 84.9634,-116.72832 153.6449,-53.7184 258.4906,-63.85886 38.7849,-3.77009 70.8804,-10.74876 110.7885,-10.74876 17.124,0 37.5687,9.05088 54.9725,10.74876 77.5711,-17.92128 118.64894,-11.36374 158.64994,44.4282 6.0873,32.82516 -3.5542,90.45936 -3.5542,122.67086 0,17.3572 -9.6415,38.5806 -11.4584,56.2666 -9.363,90.5997 43.1825,193.1328 17.2168,281.8475 -9.8272,98.0049 -123.98164,73.8109 -215.82134,73.8109 -17.1239,0 -54.5521,10.2273 -72.05,10.2273 -53.897,0 -92.8688,-20.9881 -145.1293,-20.9881 -10.0526,0 -34.2466,10.468 -44.0711,8.6364 -46.1771,0 -92.028,7.6872 -98.4376,-36.7878"
       style="fill:#782d00;fill-opacity:1;fill-rule:nonzero;stroke:none;stroke-width:46.97400665"
       id="path6282"
       inkscape:connector-curvature="0" />
    <path
       d="m 657.14319,-328.82559 v 144.50975 c -1.21707,3.05638 -2.38007,6.96476 -3.96228,9.7777 -1.47402,2.56952 -4.1516,5.39599 -6.00428,7.83027 -1.96086,0.81143 -10.20999,4.58456 -11.968,3.90838 h -9.96657 l -11.968,291.02372 h 19.94125 l 6.01782,3.8678 4.00285,7.87085 V 149.7 H 371.92889 v -9.73712 l 2.00143,-7.87085 c 1.77154,-0.54095 6.34237,-3.09695 7.96514,-3.8678 h 19.94126 l -9.96657,-224.613832 c -1.71745,-0.676183 -10.02067,3.151047 -11.968,3.908379 l -5.96372,7.776174 -2.00142,9.777699 V 73.494823 c -6.72102,17.986636 -4.15162,25.762807 -23.28148,36.497987 -3.34022,1.86629 -14.88359,6.49143 -18.60517,6.49143 -23.75749,0 -47.85036,-18.750737 -47.85036,-42.986708 0,-4.868567 1.35233,-10.737887 1.96086,-15.599688 5.62564,-6.586078 13.30679,-59.4938246 13.97755,-70.323675 V -199.92228 c 0.40569,-1.35238 3.43488,-6.77541 4.00285,-7.81675 l 47.85035,-46.85044 v 23.42454 l -15.93434,15.60103 -4.00285,5.86933 2.00143,19.51347 -4.00286,5.86932 -7.96514,5.86933 -2.00143,7.83027 V -2.6292033 c -0.54093,22.1370853 -5.67973,47.7565433 -13.97754,68.3667913 -0.67616,6.153315 0.13523,13.596814 2.00143,19.513464 l 7.96514,7.816749 c 2.86691,0.540946 7.20784,1.96095 10.02066,1.96095 h 11.92743 c 5.58508,-2.52895 11.87335,-10.156365 13.97754,-15.648378 V -74.91113 l 2.00143,-13.692824 c 1.71744,-4.435804 13.83419,-18.796706 17.93712,-21.469006 4.30038,-2.77238 16.45905,-7.30285 21.94538,-5.86932 l -2.00141,-46.8491 h -9.96657 l -9.96658,-1.96095 -7.96514,-5.86933 c -1.37936,-2.62361 -4.86834,-10.58911 -4.00286,-13.69282 v -144.50976 l 2.00143,-9.77769 8.01923,-7.83027 9.96658,-3.8678 h 257.28222 l 9.96657,1.90685 c 2.3395,2.28552 6.05837,5.30132 8.01923,7.83027 l 3.96229,11.73864"
       style="fill:#ffffff;fill-opacity:1;fill-rule:nonzero;stroke:none;stroke-width:47.70780182"
       id="path6392"
       inkscape:connector-curvature="0" />
    <path
       d="m 387.88622,-328.82559 -6.0178,3.90837 -2.00143,5.86933 v 124.99764 l 4.00285,7.77617 5.96372,1.96095 h 235.38552 l 7.96513,-3.86781 c 4.19219,-5.43655 2.00143,-116.60071 2.00143,-130.8656 l -3.96229,-7.83027 -6.01781,-1.96095 H 387.86458"
       style="fill:#782d00;fill-opacity:1;fill-rule:nonzero;stroke:none;stroke-width:47.70780182"
       id="path6394"
       inkscape:connector-curvature="0" />
  </g>
</svg>
