<?xml version="1.0" encoding="UTF-8" standalone="no"?>
<!-- Created with Inkscape (http://www.inkscape.org/) -->

<svg
   xmlns:dc="http://purl.org/dc/elements/1.1/"
   xmlns:cc="http://creativecommons.org/ns#"
   xmlns:rdf="http://www.w3.org/1999/02/22-rdf-syntax-ns#"
   xmlns:svg="http://www.w3.org/2000/svg"
   xmlns="http://www.w3.org/2000/svg"
   xmlns:sodipodi="http://sodipodi.sourceforge.net/DTD/sodipodi-0.dtd"
   xmlns:inkscape="http://www.inkscape.org/namespaces/inkscape"
   width="602mm"
   height="602mm"
   viewBox="0 0 602 602"
   version="1.1"
   id="svg8781"
   inkscape:version="0.92.2 (5c3e80d, 2017-08-06)"
   sodipodi:docname="11.svg">
  <defs
     id="defs8775">
    <pattern
       y="0"
       x="0"
       height="6"
       width="6"
       patternUnits="userSpaceOnUse"
       id="EMFhbasepattern" />
  </defs>
  <sodipodi:namedview
     id="base"
     pagecolor="#ffffff"
     bordercolor="#666666"
     borderopacity="1.0"
     inkscape:pageopacity="0.0"
     inkscape:pageshadow="2"
     inkscape:zoom="0.21461796"
     inkscape:cx="1102.0402"
     inkscape:cy="840.36931"
     inkscape:document-units="mm"
     inkscape:current-layer="layer1"
     showgrid="false"
     showguides="false"
     inkscape:window-width="1920"
     inkscape:window-height="1057"
     inkscape:window-x="-8"
     inkscape:window-y="-8"
     inkscape:window-maximized="1"
     inkscape:snap-global="true"
     inkscape:measure-start="0,0"
     inkscape:measure-end="0,0" />
  <metadata
     id="metadata8778">
    <rdf:RDF>
      <cc:Work
         rdf:about="">
        <dc:format>image/svg+xml</dc:format>
        <dc:type
           rdf:resource="http://purl.org/dc/dcmitype/StillImage" />
        <dc:title></dc:title>
      </cc:Work>
    </rdf:RDF>
  </metadata>
  <g
     inkscape:label="Layer 1"
     inkscape:groupmode="layer"
     id="layer1"
     transform="translate(0,305)">
    <path
       d="M 18.208834,246.8619 C 16.856104,237.4367 2.0211746,142.5842 2.0211746,141.0281 V 30.1942 c 0,-38.5793 -4.34995,-74.0929 6.59124,-107.767 11.4584094,-35.1367 -21.8478906,-121.77655 0,-151.8196 84.9633594,-116.72832 153.6448554,-53.7184 258.4905554,-63.85886 38.7849,-3.77009 70.8804,-10.74876 110.7885,-10.74876 17.124,0 37.5687,9.05088 54.9725,10.74876 77.5711,-17.92128 118.6489,-11.36374 158.6499,44.4282 6.0873,32.82516 -3.5542,90.45936 -3.5542,122.67086 0,17.3572 -9.6415,38.5806 -11.4584,56.2666 -9.363,90.5997 43.1825,193.1327 17.2168,281.8474 -9.8272,98.0049 -123.9816,73.8109 -215.8213,73.8109 -17.1239,0 -54.5521,10.2273 -72.05,10.2273 -53.897,0 -92.8688,-20.9881 -145.1293,-20.9881 -10.0526,0 -34.2466,10.468 -44.0711,8.6364 -46.177096,0 -92.027986,7.6872 -98.437536,-36.7878"
       style="fill:#782d00;fill-opacity:1;fill-rule:nonzero;stroke:none;stroke-width:46.97400665"
       id="path6282"
       inkscape:connector-curvature="0" />
    <path
       d="m 413.67535,-138.47006 4.19327,-43.6779 5.88928,-42.82847 c 1.06835,-2.07017 2.06993,-4.75471 3.35195,-6.69132 1.64258,-2.44413 8.48003,-9.56284 10.92387,-10.92515 1.74943,-0.93491 9.32136,-3.05851 11.72514,-3.33899 l 22.70778,1.64279 c 12.24595,3.95335 31.09298,14.37098 39.47953,24.35855 6.93091,10.17721 14.41604,25.53787 16.77176,37.78794 1.33543,4.99511 10.73691,39.3893 10.08254,42.02844 2.4572,7.02522 5.08801,14.27616 8.38654,20.96748 5.60884,10.27071 8.81389,23.558526 7.53187,35.290383 v 26.856102 c -0.80126,3.726306 -9.42818,41.792049 -9.22787,42.829807 l -2.49727,20.966141 c -0.53417,3.352336 -1.696,7.639593 -1.696,10.938507 v 11.779933 c 0,3.338988 4.34017,16.585399 5.88927,20.11938 2.83113,4.340678 7.53187,15.925608 7.53187,21.014227 v 10.885075 c 0,9.429298 -5.3284,23.040325 -10.08255,31.096615 -6.16972,6.93173 -7.54522,19.60117 -7.54522,28.55232 0,3.4859 2.73765,9.37587 3.33859,13.4294 l 7.58528,19.31668 c 1.60253,2.40406 6.69055,12.4878 6.69055,15.12559 v 8.38752 c 0,4.80814 -4.00632,15.83078 -7.53186,19.31802 -5.6489,6.41085 -11.40464,16.5854 -12.63324,25.20799 -12.76679,11.68644 -25.392,16.86721 -42.77672,15.92428 h -42.02354 c -9.8956,-5.79648 -22.14155,-8.38752 -33.59026,-8.38752 -2.64416,0 -5.70231,0.53423 -8.38654,0.80135 l -20.16376,4.19376 c -7.77224,1.3356 -17.24317,3.33899 -25.1583,3.33899 -5.0346,0 -13.61479,-1.41573 -18.46643,-3.33899 l -31.09432,-6.74475 c -2.06993,-0.26711 -4.62061,-0.80135 -6.7306,-0.80135 h -8.38654 c -1.36216,0 -14.83938,6.45091 -16.77176,7.53275 -1.88297,1.36231 -8.94743,3.33898 -10.92388,3.33898 -14.98093,0 -25.01674,-6.31736 -31.04624,-20.11804 0.40063,-13.99435 -3.53891,-29.30692 -9.22787,-41.9817 -3.9529,-11.11214 -6.78403,-23.4637 -6.7306,-35.29038 l -2.49727,-2.53763 c -0.80126,-1.06848 -1.88297,-3.7263 -2.53733,-4.99512 -1.97646,-6.17044 -2.44386,-13.75795 -2.53733,-20.16612 -2.59076,-38.164574 -7.0244,-77.412324 -17.61976,-114.210588 0.9348,21.720756 0.80126,50.979597 -4.19327,72.228881 l -3.3386,20.166127 c -3.11157,13.85277 -6.22314,27.89386 -8.38654,41.9817 -0.53418,7.43925 -1.06836,15.171 -0.80126,22.66235 l 2.49726,7.53274 c 0,5.3691 -2.02986,12.4878 -3.33859,17.66856 -0.66773,1.74964 -5.3284,15.07752 -5.0346,15.92562 3.24511,22.66368 -18.3262,42.73498 -40.28079,41.13226 H 113.98322 C 108.74831,257.6896 103.04599,256.75469 98.01273,255.32561 87.462774,244.38709 78.132078,231.48393 70.310416,218.38576 69.375614,216.16868 59.853944,196.57018 60.227871,195.72208 L 57.730601,153.74172 55.193272,132.7275 C 52.175185,124.09956 51,114.16274 51,105.02328 51,88.579456 55.847631,72.79542 62.778556,57.999715 c 0.133544,-0.801351 1.696002,-8.107048 1.696002,-8.427587 0,-7.345769 -2.310302,-16.443827 -7.585285,-21.81558 C 55.553842,24.644615 51,11.171149 51,8.4385212 c 0,-4.474237 1.509043,-19.2231942 4.193272,-22.6623412 2.457201,-12.153903 5.889273,-27.139255 5.889273,-39.484145 0,-7.399191 -1.415559,-38.494464 -3.351944,-44.47793 C 55.847631,-102.23274 51,-115.90254 51,-120.04821 v -10.88509 c 0,-3.29891 1.201888,-7.62624 1.696002,-10.92515 3.018086,-13.23573 13.849823,-31.47459 24.355704,-40.33226 13.614784,-9.09538 29.068464,-26.29114 34.438244,-41.98035 15.73547,-13.47615 34.76812,-20.54276 55.40329,-21.81558 6.03618,-0.0468 13.7096,1.06847 19.31576,3.33898 4.28676,1.74963 8.33313,4.71465 12.57982,6.74475 5.60884,2.03011 12.5264,3.33898 18.5145,3.33898 7.53187,0 16.06531,-1.88319 22.66103,-5.88997 3.15164,-1.54928 6.73061,-3.85986 10.08256,-5.04854 3.24511,-1.20203 7.43838,-1.73627 10.88381,-2.49756 3.57897,0.53424 8.19959,1.64278 11.77856,1.64278 h 10.88381 l 3.39201,-0.80135 c 2.96466,-0.26712 6.2632,-0.80137 9.22787,-0.80137 l 6.69054,1.64278 c 6.93092,0.66781 14.08619,1.06848 21.01177,0.80137 6.54364,-0.26712 13.61478,-0.13356 20.16376,0.80135 7.0244,0.26711 16.8185,0.53423 23.5077,2.53763 7.86573,2.40406 27.0426,14.46447 31.04625,21.81558 3.29853,7.06529 5.88927,17.33867 5.0346,25.1599 -1.36215,15.40741 1.50904,32.27461 5.88927,47.06898 l 4.19327,7.53275"
       style="fill:#ffffff;fill-opacity:1;fill-rule:nonzero;stroke:none;stroke-width:47.11400604"
       id="path6502"
       inkscape:connector-curvature="0" />
    <path
       d="m 410.36641,-79.757496 -0.80128,-3.340016 c -2.5908,3.059453 -6.31673,7.348044 -9.22801,10.03342 -8.19972,7.495007 -23.93276,14.940583 -34.43881,18.475663 -0.2671,-1.202403 -1.20191,-4.622592 -1.64262,-5.838355 l 1.64262,-13.432232 -6.69065,9.191743 -2.53737,-0.801611 h -5.03468 l -5.03468,1.643298 c -1.33545,0.801602 -2.96472,2.404815 -4.19334,3.393454 l -10.08271,-3.393454 8.38669,9.231819 c -0.13356,0.935202 0.66772,4.756192 0.80126,5.891793 l 3.39207,3.35338 c -8.23978,4.101551 -29.58708,7.58853 -38.67888,7.58853 -10.45664,0 -21.62508,-1.202403 -31.84801,-3.353379 l 2.4973,1.656651 0.80128,2.498339 -0.80128,2.538416 -2.4973,1.696727 -19.36282,7.535092 c -13.80463,5.330668 -21.95494,16.1189386 -21.81338,31.1062827 l 5.88937,-1.6967273 c 4.71417,0 13.47345,2.3112906 16.77203,5.8917936 2.6442,2.404814 7.34502,6.933891 9.22802,10.086869 l 16.81876,-10.086869 c 1.97648,-1.5497653 9.6153,-3.3934548 11.72532,-3.3934548 h 8.4401 c 4.09986,0 11.81881,3.4469028 15.076,5.8917938 5.36854,-6.2257944 13.85137,-9.2318201 21.86012,-9.2318201 4.28681,0 14.03967,1.7501753 17.62003,4.1950659 l 8.38668,5.0501152 c 4.71417,2.404815 10.79051,5.424194 15.97075,6.746843 l 3.33865,-2.538415 c 0.93482,-1.068812 1.78951,-2.96594 2.53737,-4.195065 V 7.5880779 c -1.20192,-9.0982193 3.29858,-19.7956349 12.01912,-23.5177619 l 3.9129,-1.696728 h 8.44009 c 2.49731,0.534402 15.35778,3.019378 16.77202,4.235142 -0.0961,-10.273898 4.99462,-23.23586 13.4267,-29.410885 2.4439,-1.79025 6.63724,-3.353388 9.52182,-4.195065 3.39207,-1.068812 7.06458,-4.048114 10.6436,-3.340027 0.2671,-2.538415 0.13355,-6.038755 0.80129,-8.443571 1.69602,-6.412841 8.6137,-14.940591 14.27471,-18.47567 4.04644,-2.498329 10.36315,-4.475629 15.12274,-5.050107 C 480.916,-86.635262 468.15036,-89 456.51317,-89 c -9.13453,0 -19.08103,1.068802 -27.70142,4.195066 -3.72593,1.696727 -7.54534,3.633942 -10.9374,5.838355 l -2.4973,1.696737 -5.03468,-2.498337"
       style="fill:#782d00;fill-opacity:1;fill-rule:nonzero;stroke:none;stroke-width:47.12170792"
       id="path6504"
       inkscape:connector-curvature="0" />
  </g>
</svg>
