<?xml version="1.0" encoding="UTF-8" standalone="no"?>
<!-- Created with Inkscape (http://www.inkscape.org/) -->

<svg
   xmlns:dc="http://purl.org/dc/elements/1.1/"
   xmlns:cc="http://creativecommons.org/ns#"
   xmlns:rdf="http://www.w3.org/1999/02/22-rdf-syntax-ns#"
   xmlns:svg="http://www.w3.org/2000/svg"
   xmlns="http://www.w3.org/2000/svg"
   xmlns:sodipodi="http://sodipodi.sourceforge.net/DTD/sodipodi-0.dtd"
   xmlns:inkscape="http://www.inkscape.org/namespaces/inkscape"
   width="602mm"
   height="602mm"
   viewBox="0 0 602 601.99999"
   version="1.1"
   id="svg8781"
   inkscape:version="0.92.2 (5c3e80d, 2017-08-06)"
   sodipodi:docname="11.svg">
  <defs
     id="defs8775">
    <pattern
       y="0"
       x="0"
       height="6"
       width="6"
       patternUnits="userSpaceOnUse"
       id="EMFhbasepattern" />
    <pattern
       y="0"
       x="0"
       height="6"
       width="6"
       patternUnits="userSpaceOnUse"
       id="EMFhbasepattern-2" />
    <pattern
       y="0"
       x="0"
       height="6"
       width="6"
       patternUnits="userSpaceOnUse"
       id="EMFhbasepattern-6" />
    <pattern
       y="0"
       x="0"
       height="6"
       width="6"
       patternUnits="userSpaceOnUse"
       id="EMFhbasepattern-8" />
  </defs>
  <sodipodi:namedview
     id="base"
     pagecolor="#ffffff"
     bordercolor="#666666"
     borderopacity="1.0"
     inkscape:pageopacity="0.0"
     inkscape:pageshadow="2"
     inkscape:zoom="0.2414452"
     inkscape:cx="842.39053"
     inkscape:cy="992.45741"
     inkscape:document-units="mm"
     inkscape:current-layer="layer1"
     showgrid="false"
     showguides="true"
     inkscape:window-width="1920"
     inkscape:window-height="1057"
     inkscape:window-x="-8"
     inkscape:window-y="-8"
     inkscape:window-maximized="1"
     inkscape:snap-global="false"
     inkscape:measure-start="0,0"
     inkscape:measure-end="0,0"
     fit-margin-top="0"
     fit-margin-left="0"
     fit-margin-right="0"
     fit-margin-bottom="0" />
  <metadata
     id="metadata8778">
    <rdf:RDF>
      <cc:Work
         rdf:about="">
        <dc:format>image/svg+xml</dc:format>
        <dc:type
           rdf:resource="http://purl.org/dc/dcmitype/StillImage" />
        <dc:title></dc:title>
      </cc:Work>
    </rdf:RDF>
  </metadata>
  <g
     inkscape:label="Layer 1"
     inkscape:groupmode="layer"
     id="layer1"
     transform="translate(-179.2,397.3)">
    <path
       d="m 197.40882,154.56191 c -1.3527,-9.4252 -16.1876,-104.27772 -16.1876,-105.83382 V -62.10588 c 0,-38.57928 -4.35,-74.09289 6.5912,-107.76699 11.4584,-35.1367 -21.8479,-121.77655 0,-151.8196 84.9634,-116.72832 153.6449,-53.7184 258.4906,-63.85886 38.7849,-3.77009 70.88045,-10.74876 110.78855,-10.74876 17.124,0 37.5687,9.05088 54.9725,10.74876 77.57107,-17.92128 118.64887,-11.36374 158.64987,44.4282 6.0873,32.82516 -3.5542,90.45936 -3.5542,122.67086 0,17.3572 -9.6415,38.5806 -11.4584,56.2666 -9.363,90.59969 43.1825,193.13276 17.2168,281.84748 -9.8272,98.00489 -123.98157,73.81089 -215.82127,73.81089 -17.1239,0 -54.55215,10.2273 -72.05005,10.2273 -53.897,0 -92.8688,-20.98809 -145.1293,-20.98809 -10.0526,0 -34.2466,10.46799 -44.0711,8.63639 -46.1771,0 -92.028,7.6872 -98.4376,-36.78779"
       style="fill:#782d00;fill-opacity:1;fill-rule:nonzero;stroke:none;stroke-width:46.97400665"
       id="path6282"
       inkscape:connector-curvature="0" />
    <path
       d="M 463.18323,-4.6775877 637.35268,-22.994607 c 7.11287,-7.112092 16.12431,-13.784744 25.85516,-16.694482 8.15412,-22.704606 16.83967,-44.597948 22.51644,-68.305831 6.01756,-16.83781 9.15479,-34.67618 9.15479,-52.5159 0,-57.09685 -27.00188,-101.2662 -73.37079,-133.27193 C 576.61872,-321.44961 542.17671,-346.3 488.1743,-346.3 c -39.92811,0 -84.53233,19.93814 -110.81752,49.98876 -60.25119,52.04004 -115.0636,133.12865 -129.13655,212.500142 -7.01822,16.075222 -10.02023,34.152914 -10.02023,51.658661 0,16.075223 4.34074,46.411139 11.64293,60.816501 9.87148,18.84163 24.95051,29.1447 46.70293,29.1447 15.17098,0 28.90992,-11.019684 37.49675,-22.51396 l 54.14441,-89.102614 c 8.49217,-11.357715 22.75443,-21.702697 37.4954,-21.702697 9.45228,0 18.60571,3.718305 26.66652,8.342513 l 39.1668,-37.491266 c 1.37929,-16.16988 10.64226,-35.67945 25.04381,-44.16933 3.67813,-2.19042 9.15478,-3.86705 13.30621,-5.30028 5.67948,-1.8659 11.39954,-3.28563 17.50768,-3.05576 3.67815,-0.81126 11.11556,-3.24506 14.16761,-5.0028 2.47463,-1.43324 5.1521,-4.00225 7.49151,-5.81407 h 10.83158 v 11.68221 c -5.20619,4.52957 -10.49352,13.92808 -11.6835,20.79679 0.94658,20.22484 -15.55232,42.738804 -34.15668,50.037487 -5.72006,2.244502 -13.83495,3.285626 -19.98773,3.339712 l -43.36419,42.452157 c 0.27044,1.473803 0.81135,3.528998 0.81135,5.002802 v 10.019124 c 0,3.488445 -4.67882,14.35669 -6.68016,17.5057557 l -1.66327,2.4743534"
       style="fill:#ffffff;fill-opacity:1;fill-rule:nonzero;stroke:none;stroke-width:47.70201874"
       id="path6314"
       inkscape:connector-curvature="0" />
    <path
       d="m 410.70751,81.992585 c -1.71736,3.096329 -6.68015,15.073297 -6.68015,18.317015 v 9.96504 c 0,25.99563 26.19053,44.69396 50.85301,43.35807 35.49271,-1.37915 77.61553,-23.46856 100.79999,-49.98881 32.34331,-23.5632 60.91921,-61.197788 81.67096,-95.016736 L 442.38145,30.32986 410.70616,81.988531"
       style="fill:#ffffff;fill-opacity:1;fill-rule:nonzero;stroke:none;stroke-width:47.70201874"
       id="path6316"
       inkscape:connector-curvature="0" />
    <path
       d="m 379.89091,36.964655 -73.3708,70.832915 -10.83158,-11.68221 58.34315,-56.619551 25.85653,-2.528448"
       style="fill:#ffffff;fill-opacity:1;fill-rule:nonzero;stroke:none;stroke-width:47.70201874"
       id="path6318"
       inkscape:connector-curvature="0" />
    <path
       d="m 503.20735,-82.141248 -85.82104,82.4718743 -25.85652,3.3397114 99.99,-97.4978547 11.6835,11.682216"
       style="fill:#ffffff;fill-opacity:1;fill-rule:nonzero;stroke:none;stroke-width:47.70201874"
       id="path6320"
       inkscape:connector-curvature="0" />
    <path
       d="m 547.38156,-149.68313 c -5.92289,0.67605 -13.73895,1.86591 -19.17772,4.19154 -14.45429,6.20617 -25.18851,20.5588 -28.33656,35.82276 0.40567,1.4738 -2.00134,9.01857 -2.52873,10.830394 l 10.87216,10.830387 c 1.86611,-0.270414 9.5875,-1.352102 10.83158,-2.474353 19.9404,-2.339152 34.91936,-16.455168 39.9768,-35.821418 1.66327,-6.43605 1.62271,-13.78475 4.19199,-20.0342 2.00134,-4.90815 7.2481,-11.77686 10.83159,-15.83589 -7.15344,7.1121 -17.26833,9.96504 -26.66652,12.49347"
       style="fill:#ffffff;fill-opacity:1;fill-rule:nonzero;stroke:none;stroke-width:47.70201874"
       id="path6322"
       inkscape:connector-curvature="0" />
    <path
       d="M 630.72121,-14.694006 354.89307,15.309282 344.87284,32.81368 632.3412,1.1418895 630.7185,-14.694006"
       style="fill:#ffffff;fill-opacity:1;fill-rule:nonzero;stroke:none;stroke-width:47.70201874"
       id="path6324"
       inkscape:connector-curvature="0" />
    <path
       d="m 738.2,-18.033718 c -25.56984,0.946476 -35.73071,30.003299 -60.82321,30.003299 -7.96479,0 -19.94038,-2.149854 -26.66787,-6.6253382 L 640.68869,0.3414413 639.02542,-15.494454 c 1.4334,-1.2169 6.72072,-6.341392 8.34343,-6.679423 8.96547,-8.153205 22.1351,-12.493478 34.15668,-12.493478 8.58683,0 21.18041,5.110972 27.5252,10.830388 8.2082,5.151535 19.60639,6.625338 29.14792,5.814065"
       style="fill:#ffffff;fill-opacity:1;fill-rule:nonzero;stroke:none;stroke-width:47.70201874"
       id="path6326"
       inkscape:connector-curvature="0" />
    <path
       d="m 496.52855,-260.48983 c 0.67613,0.13521 5.49017,1.67667 5.81471,1.67667 h 5.00336 c 3.48881,0 13.11689,-8.58587 11.6835,-12.49354 4.28666,-1.75767 12.49486,-8.05851 12.49486,-13.30472 v -5.81403 l -0.81135,-6.67943 c -1.08181,-2.96118 -7.53208,-9.82984 -10.87216,-10.01918 -0.13522,-9.68106 -8.30285,-23.32519 -19.17771,-23.32519 h -6.62607 l -3.90802,1.66309 c -6.30153,2.71773 -13.5956,9.20791 -13.5956,16.69444 v 6.62539 c 0,2.62307 3.43473,9.54585 5.00335,11.68219 l 14.98031,33.29303"
       style="fill:#782d00;fill-opacity:1;fill-rule:nonzero;stroke:none;stroke-width:47.70201874"
       id="path6330"
       inkscape:connector-curvature="0" />
    <path
       d="m 416.52763,-213.79202 c 0.81135,-1.96055 1.08181,-4.6242 0.81135,-6.67941 -9.45228,-9.68111 -19.51172,-18.9363 -29.19524,-28.33345 -1.08181,-1.86591 -10.3042,-5.81402 -12.49486,-5.81402 h -6.68015 l -4.4354,1.66309 c -6.53141,2.43372 -13.02225,9.15379 -13.02225,16.64715 v 6.67939 c 0,3.19098 3.62405,9.45124 5.81471,11.64166 4.86813,3.43436 10.96681,6.58478 16.649,8.34251 3.00201,0.54084 7.05878,1.66309 10.02023,1.66309 h 10.83158 c 2.81269,0 18.27036,-4.67829 21.65776,-5.81406"
       style="fill:#782d00;fill-opacity:1;fill-rule:nonzero;stroke:none;stroke-width:47.70201874"
       id="path6332"
       inkscape:connector-curvature="0" />
    <path
       d="m 458.22179,-257.15007 -20.84775,-38.30252 c -2.77213,-4.90818 -11.0209,-10.01918 -16.64901,-10.01918 -10.39885,0 -15.79031,5.58424 -21.70508,13.35884 -0.27045,2.05525 -0.81136,4.58364 -0.81136,6.6254 v 6.67933 l 1.66329,3.33976 2.47462,5.00275 c 0.81135,0.94648 4.67882,3.96169 5.81471,5.01633 0.94658,5.67891 8.0189,14.92866 12.54895,18.3157 2.71804,2.05525 6.8289,3.86703 9.96614,5.30024 l 5.00335,2.19046 h 9.15479 c 0.54091,0 7.43742,-1.47386 8.34343,-1.67668 2.33941,-1.08169 4.9087,-4.28614 5.81471,-6.67942 v -4.9622 c 0,-1.21692 -0.5409,-3.00163 -0.81135,-4.19148"
       style="fill:#782d00;fill-opacity:1;fill-rule:nonzero;stroke:none;stroke-width:47.70201874"
       id="path6334"
       inkscape:connector-curvature="0" />
  </g>
</svg>
