<?xml version="1.0" encoding="UTF-8" standalone="no"?>
<!-- Created with Inkscape (http://www.inkscape.org/) -->

<svg
   xmlns:dc="http://purl.org/dc/elements/1.1/"
   xmlns:cc="http://creativecommons.org/ns#"
   xmlns:rdf="http://www.w3.org/1999/02/22-rdf-syntax-ns#"
   xmlns:svg="http://www.w3.org/2000/svg"
   xmlns="http://www.w3.org/2000/svg"
   xmlns:sodipodi="http://sodipodi.sourceforge.net/DTD/sodipodi-0.dtd"
   xmlns:inkscape="http://www.inkscape.org/namespaces/inkscape"
   width="978mm"
   height="602mm"
   viewBox="0 0 978 602.00001"
   version="1.1"
   id="svg8781"
   inkscape:version="0.92.2 (5c3e80d, 2017-08-06)"
   sodipodi:docname="22.svg">
  <defs
     id="defs8775">
    <pattern
       y="0"
       x="0"
       height="6"
       width="6"
       patternUnits="userSpaceOnUse"
       id="EMFhbasepattern" />
    <pattern
       y="0"
       x="0"
       height="6"
       width="6"
       patternUnits="userSpaceOnUse"
       id="EMFhbasepattern-3" />
    <pattern
       y="0"
       x="0"
       height="6"
       width="6"
       patternUnits="userSpaceOnUse"
       id="EMFhbasepattern-2" />
    <pattern
       y="0"
       x="0"
       height="6"
       width="6"
       patternUnits="userSpaceOnUse"
       id="EMFhbasepattern-33" />
    <pattern
       y="0"
       x="0"
       height="6"
       width="6"
       patternUnits="userSpaceOnUse"
       id="EMFhbasepattern-1" />
  </defs>
  <sodipodi:namedview
     id="base"
     pagecolor="#ffffff"
     bordercolor="#666666"
     borderopacity="1.0"
     inkscape:pageopacity="0.0"
     inkscape:pageshadow="2"
     inkscape:zoom="0.26812066"
     inkscape:cx="1410.567"
     inkscape:cy="1043.0518"
     inkscape:document-units="mm"
     inkscape:current-layer="layer1"
     showgrid="false"
     showguides="true"
     inkscape:window-width="1920"
     inkscape:window-height="1057"
     inkscape:window-x="-8"
     inkscape:window-y="-8"
     inkscape:window-maximized="1"
     inkscape:snap-global="false"
     fit-margin-top="0"
     fit-margin-left="0"
     fit-margin-right="0"
     fit-margin-bottom="0" />
  <metadata
     id="metadata8778">
    <rdf:RDF>
      <cc:Work
         rdf:about="">
        <dc:format>image/svg+xml</dc:format>
        <dc:type
           rdf:resource="http://purl.org/dc/dcmitype/StillImage" />
        <dc:title></dc:title>
      </cc:Work>
    </rdf:RDF>
  </metadata>
  <g
     inkscape:label="Layer 1"
     inkscape:groupmode="layer"
     id="layer1"
     transform="translate(-84.340927,375.44855)">
    <path
       d="m 223.30195,214.60415 -90.8552,-45.4375 c -4.3649,-8.6365 -45.427597,-89.29177 -45.427597,-90.87497 v -112.7546 c 0,-39.2477 -6.1462,-187.843 5.0856,-222.102 24.656897,-75.1852 -4.9904,-111.2177 153.936797,-106.9484 34.2026,0.952 78.4785,3.3593 113.5445,0 17.8934,-1.7273 38.8558,-10.9351 56.4133,-10.9351 h 56.3643 c 12.1428,0 125.9702,14.7786 130.4316,20.1999 14.343,-17.3696 105.1016,-6.814 130.3827,-9.2621 17.8444,-1.7273 38.8558,-10.9351 56.4119,-10.9351 h 56.3657 c 17.8444,0 39.0951,9.167 57.2278,10.9351 58.763,5.6579 96.5635,0.544 135.46695,57.1926 7.1524,33.1071 22.6907,79.7918 22.6907,112.8022 0,17.8497 -9.2058,39.105 -10.9327,57.2416 -8.825,91.5944 16.501,193.8411 -11.7485,282.74937 -12.4284,52.1549 -36.2654,72.0189 -135.46695,79.0722 h -57.2278 c -17.5575,0 -38.5199,-9.1669 -56.3657,-10.935 -61.5926,-5.9435 -130.622,0 -192.696,0 l -6.7173,-3.3594 c -1.8221,4.2163 -55.2126,14.2985 -61.4486,14.2985 h -56.3656 c -17.5562,0 -38.5199,-9.1669 -56.3644,-10.935 -61.5451,-5.9436 -130.622,0 -192.696,0"
       style="fill:#782d00;fill-opacity:1;fill-rule:nonzero;stroke:none;stroke-width:47.97531128"
       id="path6315"
       inkscape:connector-curvature="0" />
    <path
       d="M 224.68872,69.685612 H 139.34093 V 95.281026 H 519.2449 C 517.50311,38.041774 567.82168,1.3658062 620.80096,1.3658062 c 45.9161,0 87.57372,49.8371258 86.26807,93.9152198 h 264.65496 c 1.89265,-0.274307 5.03337,-0.274307 6.8163,-0.82292 3.04471,-0.960063 8.27007,-5.074643 10.20388,-7.694254 l 2.27667,-3.963708 c 0.54861,-0.82292 0.8229,-1.097227 1.09719,-1.988719 l 0.5486,-4.553466 0.2743,-2.317878 V -241.91404 c 0,-16.54746 -9.18898,-32.32 -23.90095,-40.11026 l -8.5581,-3.44254 c -121.1999,-17.61176 -240.17386,-28.98171 -362.8248,-28.98171 -113.26584,0 -226.14354,10.25901 -338.05298,27.28925 -3.00357,1.37152 -8.36608,2.6059 -11.12278,4.25173 -13.68746,8.22915 -24.67583,24.67649 -23.90094,40.98119 V 69.71853"
       style="fill:#ffffff;fill-opacity:1;fill-rule:nonzero;stroke:none;stroke-width:48.38373566"
       id="path7360"
       inkscape:connector-curvature="0" />
    <path
       d="m 681.42628,95.281026 c 0,-38.32043 -31.15887,-68.319806 -69.13952,-68.319806 -38.4168,0 -67.44712,32.466748 -67.44712,70.012262 0,37.981668 33.3368,66.577968 70.01043,66.577968 36.23886,0 66.57621,-32.75752 66.57621,-68.270424"
       style="fill:#ffffff;fill-opacity:1;fill-rule:nonzero;stroke:none;stroke-width:48.38373566"
       id="path7362"
       inkscape:connector-curvature="0" />
    <path
       d="M 438.10759,44.040827 H 335.68063 l -4.26534,-0.82292 c -1.9338,-2.125862 -3.00356,-4.251723 -4.25161,-6.816481 V -203.48801 l 0.82288,-4.25173 c 2.18068,-1.93385 4.30649,-3.00364 6.87117,-4.30659 h 103.24849 l 4.30646,0.82292 c 1.89266,2.18073 3.00357,5.18436 4.25163,7.69426 V 35.538739 l -0.8229,4.251723 c -2.1258,1.933854 -5.12937,3.003644 -7.69406,4.251733"
       style="fill:#782d00;fill-opacity:1;fill-rule:nonzero;stroke:none;stroke-width:48.38373566"
       id="path7366"
       inkscape:connector-curvature="0" />
    <path
       d="M 685.68339,-84.032239 V -203.54149 l 0.8229,-4.25174 c 2.1258,-1.93385 4.30646,-3.00364 6.8163,-4.30658 h 222.85195 l 4.25162,0.82291 c 1.89266,2.18072 3.00357,4.30659 4.25163,6.81648 v 120.380177 l -0.8229,4.306586 c -2.12581,1.89271 -5.12938,3.003645 -7.6392,4.251733 H 694.23462 l -4.26532,-0.82291 c -1.93381,-2.125872 -3.00358,-5.129506 -4.30649,-7.694264"
       style="fill:#782d00;fill-opacity:1;fill-rule:nonzero;stroke:none;stroke-width:48.38373566"
       id="path7368"
       inkscape:connector-curvature="0" />
  </g>
</svg>
