<?xml version="1.0" encoding="UTF-8" standalone="no"?>
<!-- Created with Inkscape (http://www.inkscape.org/) -->

<svg
   xmlns:dc="http://purl.org/dc/elements/1.1/"
   xmlns:cc="http://creativecommons.org/ns#"
   xmlns:rdf="http://www.w3.org/1999/02/22-rdf-syntax-ns#"
   xmlns:svg="http://www.w3.org/2000/svg"
   xmlns="http://www.w3.org/2000/svg"
   xmlns:sodipodi="http://sodipodi.sourceforge.net/DTD/sodipodi-0.dtd"
   xmlns:inkscape="http://www.inkscape.org/namespaces/inkscape"
   width="602mm"
   height="602mm"
   viewBox="0 0 602 601.99999"
   version="1.1"
   id="svg8781"
   inkscape:version="0.92.2 (5c3e80d, 2017-08-06)"
   sodipodi:docname="11.svg">
  <defs
     id="defs8775">
    <pattern
       y="0"
       x="0"
       height="6"
       width="6"
       patternUnits="userSpaceOnUse"
       id="EMFhbasepattern" />
    <pattern
       y="0"
       x="0"
       height="6"
       width="6"
       patternUnits="userSpaceOnUse"
       id="EMFhbasepattern-2" />
    <pattern
       y="0"
       x="0"
       height="6"
       width="6"
       patternUnits="userSpaceOnUse"
       id="EMFhbasepattern-6" />
    <pattern
       y="0"
       x="0"
       height="6"
       width="6"
       patternUnits="userSpaceOnUse"
       id="EMFhbasepattern-8" />
  </defs>
  <sodipodi:namedview
     id="base"
     pagecolor="#ffffff"
     bordercolor="#666666"
     borderopacity="1.0"
     inkscape:pageopacity="0.0"
     inkscape:pageshadow="2"
     inkscape:zoom="0.1207226"
     inkscape:cx="1129.634"
     inkscape:cy="879.94191"
     inkscape:document-units="mm"
     inkscape:current-layer="layer1"
     showgrid="false"
     showguides="true"
     inkscape:window-width="1920"
     inkscape:window-height="1057"
     inkscape:window-x="-8"
     inkscape:window-y="-8"
     inkscape:window-maximized="1"
     inkscape:snap-global="false"
     inkscape:measure-start="0,0"
     inkscape:measure-end="0,0"
     fit-margin-top="0"
     fit-margin-left="0"
     fit-margin-right="0"
     fit-margin-bottom="0" />
  <metadata
     id="metadata8778">
    <rdf:RDF>
      <cc:Work
         rdf:about="">
        <dc:format>image/svg+xml</dc:format>
        <dc:type
           rdf:resource="http://purl.org/dc/dcmitype/StillImage" />
        <dc:title></dc:title>
      </cc:Work>
    </rdf:RDF>
  </metadata>
  <g
     inkscape:label="Layer 1"
     inkscape:groupmode="layer"
     id="layer1"
     transform="translate(-179.2,397.3)">
    <path
       d="m 197.40882,154.56191 c -1.3527,-9.4252 -16.1876,-104.27772 -16.1876,-105.83382 V -62.10588 c 0,-38.57928 -4.35,-74.09289 6.5912,-107.76699 11.4584,-35.1367 -21.8479,-121.77655 0,-151.8196 84.9634,-116.72832 153.6449,-53.7184 258.4906,-63.85886 38.7849,-3.77009 70.88045,-10.74876 110.78855,-10.74876 17.124,0 37.5687,9.05088 54.9725,10.74876 77.57107,-17.92128 118.64887,-11.36374 158.64987,44.4282 6.0873,32.82516 -3.5542,90.45936 -3.5542,122.67086 0,17.3572 -9.6415,38.5806 -11.4584,56.2666 -9.363,90.59969 43.1825,193.13276 17.2168,281.84748 -9.8272,98.00489 -123.98157,73.81089 -215.82127,73.81089 -17.1239,0 -54.55215,10.2273 -72.05005,10.2273 -53.897,0 -92.8688,-20.98809 -145.1293,-20.98809 -10.0526,0 -34.2466,10.46799 -44.0711,8.63639 -46.1771,0 -92.028,7.6872 -98.4376,-36.78779"
       style="fill:#782d00;fill-opacity:1;fill-rule:nonzero;stroke:none;stroke-width:46.97400665"
       id="path6282"
       inkscape:connector-curvature="0" />
    <path
       id="path837"
       d="m 672.9656,-94.006068 v 5.708966 h -11.4323 c 2.8614,17.140566 -11.4323,59.991885 -19.9977,77.132353 l 8.5708,5.7090655 -2.8614,2.8612176 34.2833,17.1391799 h 2.8614 2.8615 l 5.7094,5.709067 v 2.861217 2.861217 l -2.8615,2.861318 -5.7094,2.861217 c 0,0 -2.8614,0 -2.8614,0 -2.8614,-2.861217 -2.8614,-2.861217 -5.7094,-5.708966 0,0 0,-2.861318 0,-2.861318 L 644.3916,5.9879989 641.5302,8.8492166 632.9594,3.1402499 C 621.5271,25.993844 598.676,45.991568 575.82094,60.274859 l 5.70936,8.570263 -2.86142,2.861248 17.14162,28.568 c 2.8615,2.86126 2.8615,2.86126 5.7094,2.86126 0,2.86125 0,2.86125 2.8615,2.86125 0,2.86125 0,2.86125 0,5.70901 0,0 0,2.86124 0,2.86124 -2.8615,2.86126 -5.7094,5.70902 -8.5709,5.70902 l -2.8614,-2.86126 c 0,0 -2.8615,0 -2.8615,-2.86124 l -2.8614,-2.86126 v -5.70901 l -17.1403,-31.423854 -2.86145,2.861258 -5.70938,-8.570264 c 0,0 0,0 -2.86145,0 -22.85509,11.431511 -48.5676,19.996377 -74.28008,19.996377 v 11.431523 h -5.70939 l 2.86144,34.28105 c 0,2.86126 0,2.86126 2.86144,5.70902 0,0 0,2.86124 0,2.86124 v 5.70902 c -2.86144,0 -5.70938,2.86125 -8.57083,2.86125 h -2.86145 l -2.86144,-2.86125 -2.86144,-2.86125 c 0,0 0,0 0,-2.86125 0,0 0,-2.86126 0,-2.86126 0,-2.86126 2.86144,-2.86126 2.86144,-5.70902 v -34.28105 h -2.86144 V 88.833409 C 450.09021,91.694656 407.23606,77.401888 390.09574,68.837022 l -5.7094,8.570263 -2.86143,-2.861257 -17.14166,31.423852 v 5.70901 l -2.86144,2.86126 -2.86145,5.70901 h -2.86144 -2.86144 l -5.70939,-2.86125 v -5.70902 c 0,0 0,-2.86124 0,-5.70901 0,0 2.86143,0 2.86143,-2.86125 2.86145,0 2.86145,0 5.7094,-2.86125 l 17.14165,-28.567997 -2.86144,-2.861257 5.7094,-8.570264 C 352.93342,45.964532 332.93572,25.966808 318.6501,3.1132134 L 307.21782,8.8221801 V 5.9609623 L 275.79055,23.101529 c 0,0 0,2.861218 -2.86145,2.861218 0,2.861217 0,2.861217 -2.86144,5.709066 0,0 -2.86144,0 -2.86144,0 -2.86145,0 -2.86145,0 -5.7094,0 0,-2.861317 -2.86144,-5.709066 -2.86144,-8.570284 v -2.861317 c 0,0 2.86144,-2.861217 2.86144,-5.708966 h 5.7094 2.86144 l 31.42593,-17.1391806 v -2.8612177 l 8.57083,-5.7090657 c 0,0 0,-2.861218 -2.86145,-2.861218 -8.57082,-22.853594 -17.14166,-48.564444 -19.99905,-74.275195 h -8.57084 v -5.708967 l -37.13935,2.861218 c 0,0 -2.86145,0 -2.86145,0 0,2.861217 -2.86144,2.861217 -2.86144,2.861217 l -5.70939,-2.861217 c -2.86145,0 -2.86145,-2.861218 -2.86145,-5.709066 v -2.861223 l 2.86145,-5.708961 h 2.86144 c 0,0 0,0 2.86144,0 0,0 2.86145,0 2.86145,0 0,0 2.86144,2.86121 2.86144,2.86121 h 37.13936 v -2.86121 h 8.57083 c 0,-19.99644 14.28429,-59.99188 22.85511,-77.13107 l -8.57082,-5.70897 v -2.86131 l -31.42594,-17.14046 h -2.86145 l -5.70938,-2.86132 -2.86145,-2.86122 v -2.86122 -5.70907 l 2.86145,-2.86121 h 5.70938 c 0,0 2.86145,0 2.86145,0 2.86145,0 2.86145,2.86121 2.86145,2.86121 2.86144,2.86122 2.86144,2.86122 2.86144,5.70907 l 31.42727,17.14046 v -2.86121 l 11.43228,5.70897 c 11.43227,-22.8536 34.28332,-42.84994 57.13842,-59.9905 l -5.70939,-8.57028 h 2.86145 l -17.14167,-31.42517 c -2.86144,0 -2.86144,0 -5.70939,-2.86122 0,0 -2.86145,0 -2.86145,-2.86131 0,0 0,-2.86122 0,-2.86122 0,-2.86122 0,-2.86122 0,-5.70907 2.86145,0 5.7094,-2.86122 5.7094,-2.86122 h 5.70939 c 0,0 2.86145,2.86122 2.86145,2.86122 l 2.86144,5.70907 v 2.86122 l 17.14167,31.42387 2.86143,-2.86121 5.70939,11.4315 c 0,-2.86132 0,-2.86132 2.86144,-2.86132 22.8551,-11.4315 48.5676,-17.14047 74.28009,-19.99772 v -8.57019 h 2.86144 v -37.1369 c 0,0 -2.86144,-2.86132 -2.86144,-2.86132 0,0 0,-2.86121 0,-5.70896 v -2.86132 c 2.86144,-2.86122 5.70939,-2.86122 8.57083,-5.70897 l 2.86145,2.86122 2.86144,2.86131 h 2.86144 c 0,2.86122 0,2.86122 0,2.86122 0,2.86122 0,5.70897 0,5.70897 -2.86144,0 -2.86144,2.86132 -2.86144,2.86132 l -2.86144,37.1369 h 5.70939 v 8.57028 c 17.14165,-2.86131 59.99582,14.28331 77.13748,22.8536 l 5.70939,-11.43161 2.86145,2.86132 17.14034,-31.42388 v -2.86122 l 2.8614,-5.70905 2.8614,-2.86122 h 2.8615 2.8614 l 2.8615,2.86122 2.8614,2.86131 c 0,2.86122 0,5.70896 0,5.70896 -2.8614,2.86122 -2.8614,2.86122 -2.8614,2.86122 -2.8615,2.86132 -2.8615,2.86132 -5.7094,2.86132 l -17.14167,31.42516 h 2.86147 l -5.70942,8.57029 c 22.85512,14.28331 42.85412,37.13691 57.13842,59.9905 l 8.5708,-5.70897 2.8615,2.86122 31.4273,-17.14057 c 0,-2.86122 0,-5.70896 0,-5.70896 2.8614,0 2.8614,-2.86132 5.7093,-2.86132 0,0 2.8615,0 2.8615,0 0,0 2.8614,0 2.8614,0 2.8615,0 5.7094,5.70906 5.7094,5.70906 v 5.70897 c 0,0 -2.8614,2.86132 -5.7094,2.86132 l -2.8614,2.86121 -2.8615,-2.86121 -34.2833,19.99772 2.8615,2.86122 -8.5709,5.70907 c 0,0 0,0 0,0 11.4323,25.70936 19.9977,48.56434 19.9977,77.13096 h 11.4323 v 2.86132 h 34.2833 c 2.8615,0 5.7094,-2.86132 5.7094,-2.86132 0,0 2.8615,0 2.8615,0 h 5.7094 c 0,2.86132 2.8614,5.709067 2.8614,8.570286 v 2.861217 l -2.8614,2.861317 -2.8615,2.861218 c 0,0 0,0 -2.8614,0 0,0 -2.8615,0 -2.8615,-2.861218 0,0 -2.8614,0 -5.7094,0 z"
       style="fill:#ffffff;fill-opacity:1;fill-rule:nonzero;stroke:none;stroke-width:35.71061707"
       inkscape:connector-curvature="0" />
    <path
       id="path839"
       d="m 518.69196,-96.863325 c 0,-22.853585 -19.99907,-42.851315 -42.85417,-42.851315 -19.99905,0 -42.85415,19.99773 -42.85415,39.994154 0,22.854885 17.14166,42.851321 39.99677,42.851321 25.71248,0 45.71155,-17.140566 45.71155,-39.99416 z"
       style="fill:#782d00;fill-opacity:1;fill-rule:nonzero;stroke:none;stroke-width:35.71061707"
       inkscape:connector-curvature="0" />
    <path
       id="path841"
       d="m 541.54705,-228.27314 -5.70939,11.43149 2.86144,2.86132 -17.14165,25.71075 -2.86144,2.86132 c -5.7094,5.70896 -11.43228,17.14046 -14.28428,25.71075 v -2.86122 l -5.70938,8.57019 c -2.86144,-2.86122 -8.57083,-5.70897 -14.28427,-5.70897 v -8.57029 h -2.86145 c 0,-2.86122 2.86145,-5.70897 2.86145,-8.57028 0,-5.70896 0,-11.4315 -2.86145,-17.14047 v -2.86131 l -2.86144,-34.28104 h 5.70939 v -11.4315 c 17.14166,0 42.85416,5.70897 57.13842,14.28331 z"
       style="fill:#782d00;fill-opacity:1;fill-rule:nonzero;stroke:none;stroke-width:35.71061707"
       inkscape:connector-curvature="0" />
    <path
       id="path843"
       d="m 595.8281,-176.85155 -8.5708,5.70907 2.8614,2.86122 -31.42593,17.14057 h -2.86144 c -2.86145,0 -11.43227,5.70896 -14.28428,5.70896 -2.86144,2.86121 -5.70939,5.70896 -8.57083,8.57028 l -2.86144,-2.86132 -5.70939,2.86132 c -2.86145,-2.86132 -5.70938,-5.70907 -5.70938,-8.57028 -2.86145,0 -2.86145,0 -5.7094,0 l 5.7094,-8.57028 h -2.86145 c 2.86145,-2.86122 5.70938,-5.70897 8.57083,-8.57029 0,-2.86121 5.70939,-11.4315 5.70939,-14.28331 v -2.86122 l 14.28561,-31.42387 5.7094,2.86122 5.70938,-11.4315 c 14.28563,8.57028 31.42593,28.568 39.99673,42.85131 z"
       style="fill:#782d00;fill-opacity:1;fill-rule:nonzero;stroke:none;stroke-width:35.71061707"
       inkscape:connector-curvature="0" />
    <path
       id="path845"
       d="m 470.12435,-193.99201 c -2.86143,5.70896 -2.86143,11.43149 -2.86143,17.14046 l 2.86143,8.57029 h -2.86143 v 8.57028 c -5.70939,2.86122 -11.43227,2.86122 -17.14167,5.70897 l -2.86144,-8.57029 v 2.86132 c -2.86144,-8.57028 -8.57083,-19.99772 -14.28561,-25.71086 l -2.86144,-2.86121 -17.14168,-25.71075 2.86145,-2.86132 -5.70939,-11.4315 c 17.14167,-8.57028 37.14073,-14.28331 57.13842,-14.28331 v 11.4315 h 2.86144 v 34.28104 z"
       style="fill:#782d00;fill-opacity:1;fill-rule:evenodd;stroke:none;stroke-width:35.71061707"
       inkscape:connector-curvature="0" />
    <path
       id="path847"
       d="m 361.56094,-168.28126 2.86145,-2.86122 -11.43228,-5.70907 c 8.57083,-14.28331 28.56989,-34.28103 42.85416,-42.85132 l 5.70939,11.4315 2.86144,-2.86121 17.14167,31.42388 v 2.86121 c 0,2.86122 5.70939,11.43151 5.70939,14.28331 2.86145,2.86122 5.70939,5.70907 8.57082,8.57029 h -2.86143 l 5.70937,8.57028 c -2.86144,0 -5.70937,2.86122 -8.57082,5.70897 -2.86145,2.86132 -2.86145,2.86132 -2.86145,2.86132 l -8.57082,-2.86132 v 2.86132 c -2.86144,-2.86132 -5.70939,-5.70907 -8.57084,-8.57029 -2.86144,0 -11.43227,-5.70907 -14.28426,-5.70907 h -2.86144 z"
       style="fill:#782d00;fill-opacity:1;fill-rule:nonzero;stroke:none;stroke-width:35.71061707"
       inkscape:connector-curvature="0" />
    <path
       id="path849"
       d="m 378.70261,-105.43361 c 5.70939,0 11.43227,0 17.14166,0 2.86145,0 5.70939,0 8.57083,0 v 0 h 8.57083 c 2.86144,-5.70897 2.86144,-11.4315 5.70939,-17.14047 l -5.70939,-2.86132 v 0 c -8.57083,-2.86121 -17.14166,-8.57018 -25.71249,-14.28459 v -2.86132 l -28.5699,-17.14047 -2.86143,2.86122 -8.57083,-5.70896 c -8.57082,14.28331 -17.14166,39.99405 -17.14166,57.13462 h 11.43227 v 2.86122 l 34.28334,-2.86122 z"
       style="fill:#782d00;fill-opacity:1;fill-rule:evenodd;stroke:none;stroke-width:35.71061707"
       inkscape:connector-curvature="0" />
    <path
       id="path851"
       d="m 572.97299,-105.43361 h 2.86144 l 34.28337,2.86132 v -2.86132 H 621.55 c -2.8614,-19.99634 -8.5708,-39.99406 -17.1416,-57.13462 l -8.5709,5.70905 -2.8614,-2.86131 -28.5699,17.14057 v 2.86122 c -8.57083,5.70906 -17.14166,11.4315 -25.71249,14.28469 v 0 l -5.70939,2.86122 c 2.86144,5.70907 2.86144,11.4316 2.86144,17.14057 h 8.57085 v 0 c 5.70937,0 8.57082,0 11.43226,0 5.70939,0 11.43227,0 17.14166,0 z"
       style="fill:#782d00;fill-opacity:1;fill-rule:nonzero;stroke:none;stroke-width:35.71061707"
       inkscape:connector-curvature="0" />
    <path
       id="path853"
       d="m 358.70354,-34.01557 -2.86143,-5.709066 -8.57083,8.570284 C 335.83901,-48.29492 332.987,-71.148415 330.12962,-88.288981 h 11.43227 v -5.709066 l 34.28334,2.861317 h 2.86143 c 5.70938,0 11.43227,2.861217 17.14166,2.861217 l 8.57083,-2.861217 v 2.861217 h 8.57083 c 2.86144,5.709067 2.86144,11.431501 5.70939,14.283311 l -5.70939,2.861317 v 2.861217 c -8.57083,2.861219 -17.14166,8.570284 -25.7125,14.283311 v 2.861316 z"
       style="fill:#782d00;fill-opacity:1;fill-rule:evenodd;stroke:none;stroke-width:35.71061707"
       inkscape:connector-curvature="0" />
    <path
       id="path855"
       d="m 404.4151,14.548775 h -2.86144 l -5.70939,8.570284 C 381.56,17.409993 364.41834,-2.5904055 352.99011,-16.875102 l 11.43228,-5.708967 -2.86145,-5.709066 31.42594,-14.284598 h 2.86144 c 2.86144,-2.861317 11.43228,-5.709066 14.28427,-8.570283 2.86144,0 5.70938,-2.861218 8.57083,-5.709066 v 0 l 8.57083,-2.861218 c 2.86144,2.861218 2.86144,5.709066 5.70939,8.570284 2.86145,0 2.86145,2.861217 5.70939,2.861217 l -5.70939,5.709066 2.86145,2.861218 c -2.86145,2.861217 -5.7094,5.708966 -8.57084,8.570283 0,2.861218 -5.70939,11.431502 -5.70939,14.28331 v 2.861219 z"
       style="fill:#782d00;fill-opacity:1;fill-rule:nonzero;stroke:none;stroke-width:35.71061707"
       inkscape:connector-curvature="0" />
    <path
       id="path857"
       d="m 470.12435,0.2654644 c -2.86143,-5.7090657 -2.86143,-11.4315014 -2.86143,-17.1405664 l 2.86143,-11.431501 h -2.86143 v -8.570284 c -5.70939,0 -11.43227,-2.861218 -17.14167,-2.861218 l -2.86144,5.708967 v 0 c -2.86144,8.570283 -8.57083,17.140567 -14.28561,22.85498 l -2.86144,2.8612181 -17.14168,28.5680069 2.86145,2.861318 -5.70939,8.570183 c 14.28428,8.570284 39.99676,14.284698 57.13842,17.140568 V 34.543825 H 470.123 V 3.1199477 Z"
       style="fill:#782d00;fill-opacity:1;fill-rule:evenodd;stroke:none;stroke-width:35.71061707"
       inkscape:connector-curvature="0" />
    <path
       id="path859"
       d="m 538.68966,20.263188 -2.86144,2.861219 5.70939,8.570282 c -17.14166,8.570284 -37.13937,14.284698 -57.13843,17.140568 V 34.551946 h -5.7094 L 481.55123,3.1280687 V 0.2668509 c 2.86144,-5.7090657 2.86144,-11.4315999 2.86144,-17.1405669 0,-2.861218 -2.86144,-8.570283 -2.86144,-11.431501 h 2.86144 v -8.570284 c 5.7094,0 11.43228,0 14.28429,-2.861217 l 5.70937,5.708966 v 0 c 2.86145,8.570284 8.57083,17.140567 14.28428,22.854981 l 2.86144,2.8612176 z"
       style="fill:#782d00;fill-opacity:1;fill-rule:evenodd;stroke:none;stroke-width:35.71061707"
       inkscape:connector-curvature="0" />
    <path
       id="path861"
       d="m 590.1146,-28.301157 -2.8614,5.708967 8.5708,5.709066 c -5.7094,14.2845977 -25.71111,31.423778 -39.99671,39.994062 l -5.7094,-8.570284 h -5.70939 l -14.28563,-28.566621 v -2.861218 c 0,-2.861317 -5.70937,-11.431501 -5.70937,-14.28331 -2.86145,-2.861317 -5.7094,-5.709067 -8.57084,-8.570284 l 2.86144,-2.861316 -5.70939,-5.708967 c 2.86145,-2.861218 5.70939,-5.709066 8.57084,-8.570283 2.86144,0 2.86144,0 2.86144,-2.861218 l 5.70939,2.861218 h 2.86144 c 2.86144,2.861217 5.70939,5.709065 8.57083,5.709065 2.86144,2.861218 11.43228,5.708967 14.28427,8.570185 h 2.86145 z"
       style="fill:#782d00;fill-opacity:1;fill-rule:nonzero;stroke:none;stroke-width:35.71061707"
       inkscape:connector-curvature="0" />
    <path
       id="path863"
       d="m 604.3989,-31.158413 c 8.5708,-14.28331 17.1417,-42.851318 17.1417,-57.134629 h -11.4323 v -5.708967 l -34.28333,2.861218 h -2.86143 c -5.70939,0 -11.43228,2.861218 -17.14165,2.861218 l -11.43229,-2.861218 v 2.861218 h -8.57083 c 0,2.861317 0,11.431502 -2.86145,14.28331 l 5.7094,2.861318 v 2.861217 c 8.57083,2.861316 17.14166,8.570284 25.71248,14.28331 v 2.861317 l 28.5699,17.140468 2.8614,-5.708966 z"
       style="fill:#782d00;fill-opacity:1;fill-rule:evenodd;stroke:none;stroke-width:35.71061707"
       inkscape:connector-curvature="0" />
  </g>
</svg>
