<?xml version="1.0" encoding="UTF-8" standalone="no"?>
<!-- Created with Inkscape (http://www.inkscape.org/) -->

<svg
   xmlns:dc="http://purl.org/dc/elements/1.1/"
   xmlns:cc="http://creativecommons.org/ns#"
   xmlns:rdf="http://www.w3.org/1999/02/22-rdf-syntax-ns#"
   xmlns:svg="http://www.w3.org/2000/svg"
   xmlns="http://www.w3.org/2000/svg"
   xmlns:sodipodi="http://sodipodi.sourceforge.net/DTD/sodipodi-0.dtd"
   xmlns:inkscape="http://www.inkscape.org/namespaces/inkscape"
   width="602mm"
   height="602mm"
   viewBox="0 0 602 602"
   version="1.1"
   id="svg8781"
   inkscape:version="0.92.2 (5c3e80d, 2017-08-06)"
   sodipodi:docname="11.svg">
  <defs
     id="defs8775">
    <pattern
       y="0"
       x="0"
       height="6"
       width="6"
       patternUnits="userSpaceOnUse"
       id="EMFhbasepattern" />
  </defs>
  <sodipodi:namedview
     id="base"
     pagecolor="#ffffff"
     bordercolor="#666666"
     borderopacity="1.0"
     inkscape:pageopacity="0.0"
     inkscape:pageshadow="2"
     inkscape:zoom="0.30351563"
     inkscape:cx="657.62968"
     inkscape:cy="1115.9396"
     inkscape:document-units="mm"
     inkscape:current-layer="layer1"
     showgrid="false"
     showguides="false"
     inkscape:window-width="1920"
     inkscape:window-height="1057"
     inkscape:window-x="-8"
     inkscape:window-y="-8"
     inkscape:window-maximized="1"
     inkscape:snap-global="true"
     inkscape:measure-start="0,0"
     inkscape:measure-end="0,0" />
  <metadata
     id="metadata8778">
    <rdf:RDF>
      <cc:Work
         rdf:about="">
        <dc:format>image/svg+xml</dc:format>
        <dc:type
           rdf:resource="http://purl.org/dc/dcmitype/StillImage" />
        <dc:title></dc:title>
      </cc:Work>
    </rdf:RDF>
  </metadata>
  <g
     inkscape:label="Layer 1"
     inkscape:groupmode="layer"
     id="layer1"
     transform="translate(0,305)">
    <path
       d="M 18.208834,246.8619 C 16.856104,237.4367 2.0211747,142.58417 2.0211747,141.02807 V 30.19417 c 0,-38.5793 -4.34995,-74.0929 6.59124,-107.767 11.4584093,-35.1367 -21.8478907,-121.77652 0,-151.81957 84.9633593,-116.72832 153.6448553,-53.7184 258.4905553,-63.85886 38.7849,-3.77009 70.8804,-10.74876 110.7885,-10.74876 17.124,0 37.5687,9.05088 54.9725,10.74876 77.5711,-17.92128 118.6489,-11.36374 158.6499,44.4282 6.0873,32.82516 -3.5542,90.45936 -3.5542,122.67083 0,17.3572 -9.6415,38.5806 -11.4584,56.2666 -9.363,90.5997 43.1825,193.1327 17.2168,281.84743 -9.8272,98.0049 -123.9816,73.8109 -215.8213,73.8109 -17.1239,0 -54.5521,10.2273 -72.05,10.2273 -53.897,0 -92.8688,-20.9881 -145.1293,-20.9881 -10.0526,0 -34.2466,10.468 -44.0711,8.6364 -46.177096,0 -92.027986,7.6872 -98.437536,-36.7878"
       style="fill:#782d00;fill-opacity:1;fill-rule:nonzero;stroke:none;stroke-width:46.97400665"
       id="path6282"
       inkscape:connector-curvature="0" />
    <path
       d="m 165.08389,97.046655 c -3.88369,-14.025097 -7.76738,-28.190668 -10.84253,-42.496714 -0.26509,-3.51191 -0.7953,-7.288868 -0.7953,-10.800768 0,-4.161276 1.19295,-8.415324 0.7953,-12.536847 0,-5.287731 -2.14731,-13.744137 -4.99711,-18.326847 -1.0604,-1.736078 -2.66424,-3.975745 -3.32698,-5.8443372 l -1.68339,-7.4876545 c 0,-1.7758316 2.05452,-5.8841002 1.68339,-7.4743901 -0.39767,-13.7454752 -4.20182,-26.7885572 -7.52881,-40.0198262 l 4.16205,-4.161276 c 3.03538,5.102199 7.52881,12.722368 9.15916,18.326847 0.92784,3.127582 2.10752,10.65499 1.68337,14.165571 l 0.26509,2.239667 0.53022,4.439578 c 0.53019,1.683061 3.18118,5.2347243 4.16204,7.4743905 l 0.7953,-3.3263682 c 1.06039,-10.6152263 2.99561,-21.2251593 4.99711,-31.6985923 l 1.63035,-4.108268 v -10.005624 c 0,-3.27336 -0.53019,-6.785261 -0.7953,-10.005613 l 6.64074,3.313113 c 2.94258,5.00944 4.16204,11.728448 4.16204,17.485318 0,4.108268 -0.5302,9.303239 -1.64362,13.370426 l -2.51842,9.15746 v 9.157461 l 2.51842,9.9526062 c 0.26511,5.7913293 0.7953,11.7284378 0.7953,17.5317028 v 17.485316 c 0,3.233598 -1.19294,7.580416 -1.68337,10.853776 0.5302,5.380503 0.66274,11.317611 1.68337,16.643788 1.0604,5.751566 8.1783,30.154677 11.63784,34.175479 -0.7953,-5.009439 1.77616,-15.428526 3.32699,-20.009909 0.26509,-0.795154 0.53019,-1.68307 0.79529,-2.478215 1.3255,-3.087829 2.47867,-7.196097 4.16206,-10.005623 l 4.4404,-5.566034 2.24008,-2.756519 c 1.63036,-6.493713 2.20031,-14.211957 1.63036,-20.851449 -1.0604,-7.196086 -3.55233,-15.053486 -6.64073,-21.645264 -2.62448,-4.0154981 -4.71875,-11.3176108 -5.84542,-15.8486323 l -5.01037,-25.8078697 c -1.0604,-3.737205 -3.27397,-7.196097 -4.16205,-10.840532 l -0.53019,-5.566034 -0.26511,-2.809526 9.17242,10.005614 6.68048,15.84997 c 1.63037,4.62511 5.14292,12.90791 5.84543,17.4853071 l 11.63784,-25.8078701 9.17241,6.639492 c -1.3255,5.937108 -3.83067,12.205536 -6.64072,17.5317028 -3.8837,5.3805025 -5.84543,17.5317032 -5.84543,24.1698662 0,2.478205 4.53318,14.72747 5.84543,17.485317 14.68381,-27.0695061 28.57101,-55.727984 38.29748,-84.994755 l 9.21219,8.322553 c -0.39766,4.439578 -1.86896,9.15746 -3.36676,13.32404 -7.01187,13.133205 -12.72474,27.6300867 -17.48856,41.655183 v 1.68306 c -0.53021,2.84929 -0.7953,6.453961 -1.68338,9.157461 l -2.75702,6.12265 -1.40503,3.034812 c -8.37713,12.762131 -15.66468,27.911036 -20.01362,42.498041 -0.5302,6.308181 -3.22096,14.726152 -4.95735,20.851439 l -1.68338,4.996185 v 7.48766 c 0,0.26504 1.49781,7.5274 1.68338,8.32254 -0.39765,2.23967 1.63036,8.2298 1.63036,10.85378 0,3.22035 -0.53021,6.78527 -0.7953,10.00562 l -0.7953,20.80507 c -1.53757,2.05413 -0.92784,17.62579 -0.92784,20.85143 l 1.68338,20.00992 c 0.26509,13.65138 2.38588,28.42391 5.84542,41.65519 h -69.15762 c 8.50967,-12.24529 15.24318,-26.74218 19.96591,-40.86137 3.03537,-8.36231 9.54355,-32.30555 8.3241,-40.81364 0.53018,-6.87805 0.0928,-14.96073 -1.64361,-21.6466 L 164.90893,97.000269"
       style="fill:#ffffff;fill-opacity:1;fill-rule:nonzero;stroke:none;stroke-width:46.75612259"
       id="path6446"
       inkscape:connector-curvature="0" />
    <path
       d="m 81.710358,-176.21674 -2.478676,0.79514 -0.795291,2.51798 1.643612,2.4782 c 0.397646,0.79516 1.444789,2.624 1.683373,3.32639 -0.265097,1.44451 -0.397647,5.3805 -0.795292,6.67924 -0.530195,1.40476 -1.776161,3.60467 -2.478676,4.99618 -6.494918,4.77089 -17.161166,14.21328 -21.697004,20.85144 l -4.162048,9.15746 L 51,-121.25342 c 1.0604,6.08287 1.0604,5.3805 3.313738,9.15746 l 10.85579,9.15745 4.162049,4.161285 1.683373,5.844337 c 1.192948,2.199913 3.60534,5.420265 5.792404,6.639492 h 4.162058 l 3.366745,-1.630053 4.957352,-1.683071 c 1.192938,0 3.035374,0.662631 4.201809,0.795155 l 2.478675,2.478206 c 2.014755,2.478216 4.997107,7.80571 5.845427,10.853786 v 3.313114 c -0.0464,7.673186 2.75703,15.94273 6.69375,22.488123 l 3.31373,2.517979 3.32698,0.795145 4.99711,-0.795145 4.16205,-3.326378 c 2.10754,-1.961364 5.79241,-5.287732 8.37712,-6.679246 5.28872,-3.087828 17.34807,-9.965859 21.64929,-14.166899 l 5.01037,-3.313114 h 14.16819 c 2.94259,1.497529 5.89845,3.604671 8.3241,5.791329 0.5302,1.325252 2.01476,5.287742 1.68337,6.6925 l 1.63037,5.009439 c 0.13255,0.265049 4.20181,4.201029 5.01036,4.996185 1.96174,1.192716 7.86018,4.86365 9.15916,6.692499 0.79529,1.060193 3.45954,5.1022 4.16205,5.791329 l 4.20182,2.517969 3.32698,0.795145 3.32699,-0.795145 2.51844,-3.366131 3.31372,-1.630053 c 0.92786,0.265048 2.3859,0.397572 3.327,0.795155 0.7953,0.265048 1.77616,1.192717 2.51844,1.630053 8.41688,10.562218 15.33728,2.716755 13.32651,-9.157461 0.66274,-1.192727 1.64361,-3.180599 2.47867,-4.161276 l 2.51844,-1.630063 c 1.53757,-0.795145 10.28583,-4.77089 10.80277,-5.844338 2.01476,-0.132524 7.383,0.04639 9.21218,0.795146 l 3.31374,2.478215 c 1.40502,2.014381 5.99122,7.991242 6.64072,10.005623 l 3.36675,4.996185 c 1.63035,1.497528 9.45077,4.996174 11.63783,4.996174 3.08839,0 8.13853,-0.927669 10.84252,-2.517969 l 2.75703,-1.630052 5.56708,-3.326369 c 4.71875,-3.737194 10.70999,-11.31762 13.32652,-16.690172 2.94259,-4.161277 9.0266,-11.22484 13.37422,-14.165571 l 1.63036,-5.844337 c 0,-3.034822 -2.2931,-9.952616 -4.9971,-11.635677 l -4.16206,-4.201029 -1.63035,-4.956429 v -4.99619 c 1.19293,-1.86859 2.42565,-3.82997 3.31373,-5.84433 l 2.47868,-3.32639 v -4.99617 l -1.64362,-3.36612 -18.33025,-9.15746 -3.36675,-5.79134 -0.79529,-6.6925 c 0,-2.1469 1.06039,-4.53235 0.79529,-6.63949 l 1.68337,-6.67926 c 0,-7.56715 -2.38589,-8.26954 -5.01036,-14.16557 -1.96173,-2.84928 -5.14291,-9.1707 -5.84544,-12.48382 v -4.99618 l -1.6436,-3.36614 -3.36676,-1.63006 -3.32698,-0.79514 -1.68338,-2.51796 v -4.16128 l 1.68338,-2.47822 c 2.10753,-3.40589 3.32698,-8.50808 3.32698,-12.48382 0,-2.80953 -3.12817,-8.83941 -5.01036,-10.84054 -2.2931,-2.57098 -6.1768,-6.49372 -9.15916,-8.37556 l -8.32409,-3.32637 h -3.36676 l -3.31374,1.68307 -8.32408,2.47821 h -7.47579 c -1.77616,0 -4.06926,-0.5301 -5.84542,-0.79516 l -3.327,-3.32637 c -0.39764,-0.79514 -1.44479,-4.29379 -1.68337,-4.99618 -0.39766,-2.75652 -0.7953,-5.6588 -1.63036,-8.32255 -1.32549,-1.0602 -2.81005,-2.47822 -4.20182,-3.31312 L 226.78827,-259.6 c -21.32321,0.66263 -33.34014,4.0155 -50.8287,16.69017 -2.10754,1.53729 -9.0266,4.95642 -11.63783,4.95642 -2.05451,0 -7.25045,-0.66261 -9.15916,-1.6433 -3.41977,-0.39757 -10.23281,0.26505 -13.32651,1.6433 -1.06041,0.5301 -6.49492,4.58536 -7.52882,5.84436 -1.32547,2.38544 -3.12816,5.04918 -4.16203,7.52739 -0.7953,1.86861 -1.19295,4.62512 -1.68338,6.63949 l -1.63035,2.51797 c -2.57147,-0.26505 -10.0605,0.5301 -12.52592,1.64331 l -3.32699,1.68308 -1.68339,3.32636 c 0,1.35175 1.06041,6.30818 0.7953,7.52741 l -1.63035,4.16127 -1.68337,4.16128 c -0.5302,0.66262 -3.97649,2.94205 -4.99712,3.31312 -0.66274,0.13253 -6.402125,1.53729 -6.680481,1.68306 l -5.84543,4.16128 c -0.795293,0.79514 -1.776162,2.38545 -2.478666,3.32637 -0.927851,0.92768 -4.06927,3.41914 -4.997111,4.20104"
       style="fill:#ffffff;fill-opacity:1;fill-rule:nonzero;stroke:none;stroke-width:46.75612259"
       id="path6448"
       inkscape:connector-curvature="0" />
    <path
       d="m 351.75181,188.72728 4.16205,-3.32637 2.51843,-7.52741 c 0.92785,2.19991 4.16206,11.2646 4.16206,13.32404 0,1.82884 -3.12816,12.57661 -4.16206,14.16557 -1.63034,2.57098 -5.23569,5.28773 -7.52879,7.5274 -1.49781,1.06021 -5.51406,3.82996 -6.64074,4.99619 -0.92784,0.92768 -3.27396,4.53235 -4.2018,5.80458 -3.03539,5.28774 -6.2696,10.93329 -8.32409,16.69017 0.0464,-13.41813 2.2931,-28.37885 7.52879,-40.86135 1.35201,-1.59031 4.40063,-5.38051 5.7924,-6.63949 1.3255,-1.06021 5.05014,-3.18059 6.69375,-4.16128"
       style="fill:#ffffff;fill-opacity:1;fill-rule:nonzero;stroke:none;stroke-width:46.75612259"
       id="path6450"
       inkscape:connector-curvature="0" />
    <path
       d="m 398.41845,220.37817 -1.68337,-5.00945 0.7953,-4.99618 c 0.79529,-1.96136 2.47868,-3.82997 3.36676,-5.79132 1.49781,-3.22036 3.88368,-8.93218 4.16204,-12.5236 2.99562,3.22035 5.79241,10.65499 5.79241,15.00711 v 8.32255 l -1.63035,4.16128 c -1.3255,6.78526 -2.10755,14.25966 -4.16206,20.85144 l -6.6805,-20.00991"
       style="fill:#ffffff;fill-opacity:1;fill-rule:nonzero;stroke:none;stroke-width:46.75612259"
       id="path6452"
       inkscape:connector-curvature="0" />
    <path
       d="m 479.26694,140.38622 c -4.44041,2.90229 -10.6172,4.16129 -15.85158,4.16129 -3.03538,0 -6.9721,-2.23968 -10.00749,-1.68308 14.2146,-15.66177 36.0985,-28.42523 55.87752,-35.81217 -0.0451,3.60468 -1.5906,10.24417 -3.36676,13.37043 l -4.16205,4.95642 c -6.87931,5.51304 -14.5897,11.02607 -22.49229,15.00711"
       style="fill:#ffffff;fill-opacity:1;fill-rule:nonzero;stroke:none;stroke-width:46.75612259"
       id="path6454"
       inkscape:connector-curvature="0" />
    <path
       d="m 503.44261,-7.9103052 c -0.66275,1.1927273 -1.19295,2.9022968 -1.68338,4.1612763 C 500.43374,27.80777 479.45384,72.455354 460.09499,97.046655 L 453.4145,96.2515 C 472.53873,65.34938 490.40109,28.18149 496.7608,-7.8639197 l -0.79529,-4.9961843 -10.80279,6.6394917 c 1.32551,-6.7322627 5.14293,-16.8306467 9.15916,-22.4881237 l -15.00987,3.326368 c 1.40502,-2.809526 3.32698,-7.487654 5.01037,-10.005623 1.4978,-2.239666 4.77176,-5.327495 6.69374,-7.47439 l -10.00749,-2.478216 12.48615,-9.157461 -1.68337,-5.844336 v -6.69251 c 0,-0.265048 2.90284,-6.639482 3.31373,-8.322553 1.3255,1.060203 3.69813,3.313124 5.05014,4.161277 0.79529,0.530106 3.12816,1.325251 4.16204,1.68307 l -1.68338,-5.844347 c 0.53021,-2.107142 2.94259,-8.468331 4.16205,-10.005613 l 3.31374,-2.756519 c 1.06039,-0.927669 2.66424,-2.146905 4.20182,-2.239665 l 3.32697,15.007101 c 2.75703,-11.503153 10.24607,-22.488124 17.48858,-31.650897 0.53019,2.66376 1.68337,6.49372 1.68337,9.15747 v 8.322552 c 0,2.995058 -5.88519,16.035502 -8.37711,17.483989 3.03537,-2.054125 19.35882,-11.317611 22.53869,-10.005613 l -13.32653,16.690162 c 2.33288,0 5.19595,-0.265049 7.48904,0 1.77616,0.265058 4.06928,1.192726 5.84544,1.643307 -5.42128,3.51191 -12.11502,6.639492 -18.33025,8.322563 l 7.47577,28.378846 -13.32651,-8.37556 3.31374,20.851439 -5.84543,-0.795146 -4.95735,-3.326368 -2.51843,-3.313124 2.51843,5.791329 v 6.6792559 l -1.68336,6.6924995 c -0.79532,1.82883931 -2.99563,4.1082687 -4.16205,5.844337 L 503.47707,-7.801633"
       style="fill:#ffffff;fill-opacity:1;fill-rule:evenodd;stroke:none;stroke-width:46.75612259"
       id="path6456"
       inkscape:connector-curvature="0" />
    <path
       d="m 467.5774,122.90091 c -8.41688,3.69743 -17.91006,10.80077 -23.33398,18.32684 22.6792,20.5705 53.07277,59.7024 64.20293,88.31449 -12.53917,-3.36611 -32.63895,-12.11275 -40.86895,-22.48811 -4.86455,-4.71789 -25.95182,-23.84386 -28.33773,-28.33115 -2.14728,-1.92161 -4.3476,-4.10826 -6.64071,-5.84433 -0.7953,-0.66264 -2.38589,-1.19273 -3.32699,-1.63007 8.8808,15.80226 18.47075,44.22749 19.17194,62.46025 -12.72474,-3.88298 -21.416,-14.0251 -27.54244,-25.24596 -1.40502,-2.61074 -2.90283,-5.8841 -3.31372,-8.93218 -2.38589,-7.2491 -5.28872,-15.0071 -9.15916,-21.64526 l -7.4758,-10.00562 c -1.19292,17.85903 -7.34321,33.75537 -14.1682,50.02544 -0.39763,0.79515 -0.53018,1.63006 -0.79528,2.47822 -1.68339,3.73719 -8.13853,16.5033 -8.37712,20.00991 -5.2357,-12.2983 -9.30497,-27.39685 -9.95445,-40.86136 -0.66276,-9.02493 0.39764,-21.59889 4.16204,-29.96783 -17.06837,7.47441 -34.41644,16.41055 -50.03473,26.64941 -5.97797,4.21429 -14.49559,10.9863 -20.8076,14.16557 -2.66424,2.4252 -7.2902,6.91779 -9.15915,10.00561 -3.0884,4.39984 -6.78652,8.97194 -10.84255,12.48385 7.7674,-28.89172 22.6792,-48.80888 46.66666,-66.34057 4.679,-3.4589 9.49053,-7.43464 15.00989,-9.44902 -13.3729,-3.27336 -25.57804,-11.35737 -36.65917,-19.16838 L 296.8207,123.74509 274.28202,84.566791 c 24.54947,21.552509 50.5013,37.214279 80.0545,50.819279 l 3.32699,1.68305 -22.49229,-41.655175 c -3.22095,-6.361189 -6.21657,-13.838237 -7.52881,-20.851449 1.49781,-11.224839 -2.33287,-23.84385 -6.64072,-34.17548 20.24692,23.562901 39.04505,48.995732 49.987,78.308874 l -4.9971,-23.281945 -2.51844,-10.005614 V 74.5678 l 1.68338,-6.692499 c 0.2651,-4.903414 -0.2651,-23.516515 -2.47867,-27.489612 0,-1.497529 -0.13255,-3.511901 0,-5.00943 l 0.79529,-2.478215 c 7.15767,12.66936 19.96723,48.248289 20.01363,62.50795 1.32549,7.527406 4.95734,14.071476 8.37711,20.803726 l -8.37711,-62.460228 c -0.79531,-22.674994 2.38588,-73.119211 13.3265,-92.522163 -2.66423,2.716755 -5.42126,5.844347 -8.32409,8.37556 -2.75702,2.332437 -6.17681,4.492597 -9.15916,6.639492 2.42565,-8.653863 4.86455,-17.065211 9.15916,-25.012715 l -15.00989,7.527399 13.37291,-21.69297 -11.69086,-1.630063 10.84254,-9.15746 c 0.66275,-0.662621 2.47867,-3.644425 2.47867,-4.161277 v -4.20103 l -1.64362,-4.161275 -8.36387,-8.322553 15.00991,5.009428 c -0.39767,-3.03481 0.53018,-11.542905 1.68337,-14.166885 l 4.16205,-4.99619 8.3241,7.5274 c 2.29311,-4.39982 11.78364,-18.27913 16.69326,-19.16838 0.5302,2.66375 1.63035,6.49372 1.63035,9.15746 0,5.28774 -0.92784,11.542907 -2.47867,16.643789 l 3.31375,-5.009439 5.01035,-3.31311 c 1.0604,-0.53011 5.38152,-1.96138 6.6805,-1.68308 -1.59061,4.53235 -7.19744,15.522631 -11.69085,17.533037 l 10.00747,7.47439 -12.48615,5.009438 c 3.22095,1.325253 11.63784,4.903415 14.1682,7.4744 l -14.1682,3.326369 c 1.3255,2.054134 3.22095,4.532349 4.16204,6.692499 0.92785,2.107142 2.05451,8.176774 2.47867,10.840522 l -5.79239,-0.795145 c -2.33288,-1.68306 -4.77179,-3.644434 -6.69374,-5.844337 2.10753,4.015498 3.32697,9.63455 3.32697,14.165571 0,0.795145 -1.73639,7.288859 -2.47867,8.37556 l -7.5288,-13.370426 -1.64361,26.694467 c -2.01474,-2.239666 -5.01036,-5.19497 -6.69374,-7.527408 -0.92784,-1.192727 -1.82918,-3.604671 -2.47867,-5.009438 -6.91907,26.2279754 -8.46991,56.336277 -7.52881,83.35807 3.83068,21.833454 6.78653,44.181103 11.69086,65.826381 12.72472,-23.749764 33.24735,-49.930036 55.83243,-65.031226 0.39764,12.245289 -5.51405,31.884124 -14.1682,40.861356 l -15.8529,20.80374 c -4.25483,6.30818 -7.10465,13.88593 -10.00748,20.85144 16.97426,-16.97112 63.08025,-57.130101 83.37355,-67.509435 -1.77617,22.253559 -15.99208,43.900155 -36.70689,53.343865"
       style="fill:#ffffff;fill-opacity:1;fill-rule:evenodd;stroke:none;stroke-width:46.75612259"
       id="path6458"
       inkscape:connector-curvature="0" />
  </g>
</svg>
