<?xml version="1.0" encoding="UTF-8" standalone="no"?>
<!-- Created with Inkscape (http://www.inkscape.org/) -->

<svg
   xmlns:dc="http://purl.org/dc/elements/1.1/"
   xmlns:cc="http://creativecommons.org/ns#"
   xmlns:rdf="http://www.w3.org/1999/02/22-rdf-syntax-ns#"
   xmlns:svg="http://www.w3.org/2000/svg"
   xmlns="http://www.w3.org/2000/svg"
   xmlns:sodipodi="http://sodipodi.sourceforge.net/DTD/sodipodi-0.dtd"
   xmlns:inkscape="http://www.inkscape.org/namespaces/inkscape"
   width="602mm"
   height="602mm"
   viewBox="0 0 602 601.99999"
   version="1.1"
   id="svg8781"
   inkscape:version="0.92.2 (5c3e80d, 2017-08-06)"
   sodipodi:docname="11.svg">
  <defs
     id="defs8775">
    <pattern
       y="0"
       x="0"
       height="6"
       width="6"
       patternUnits="userSpaceOnUse"
       id="EMFhbasepattern" />
    <pattern
       y="0"
       x="0"
       height="6"
       width="6"
       patternUnits="userSpaceOnUse"
       id="EMFhbasepattern-2" />
    <pattern
       y="0"
       x="0"
       height="6"
       width="6"
       patternUnits="userSpaceOnUse"
       id="EMFhbasepattern-6" />
  </defs>
  <sodipodi:namedview
     id="base"
     pagecolor="#ffffff"
     bordercolor="#666666"
     borderopacity="1.0"
     inkscape:pageopacity="0.0"
     inkscape:pageshadow="2"
     inkscape:zoom="0.1207226"
     inkscape:cx="2475.6951"
     inkscape:cy="879.94191"
     inkscape:document-units="mm"
     inkscape:current-layer="layer1"
     showgrid="false"
     showguides="true"
     inkscape:window-width="1920"
     inkscape:window-height="1057"
     inkscape:window-x="-8"
     inkscape:window-y="-8"
     inkscape:window-maximized="1"
     inkscape:snap-global="false"
     inkscape:measure-start="0,0"
     inkscape:measure-end="0,0"
     fit-margin-top="0"
     fit-margin-left="0"
     fit-margin-right="0"
     fit-margin-bottom="0" />
  <metadata
     id="metadata8778">
    <rdf:RDF>
      <cc:Work
         rdf:about="">
        <dc:format>image/svg+xml</dc:format>
        <dc:type
           rdf:resource="http://purl.org/dc/dcmitype/StillImage" />
        <dc:title></dc:title>
      </cc:Work>
    </rdf:RDF>
  </metadata>
  <g
     inkscape:label="Layer 1"
     inkscape:groupmode="layer"
     id="layer1"
     transform="translate(-179.2,397.3)">
    <path
       d="m 197.40882,154.56191 c -1.3527,-9.4252 -16.1876,-104.27772 -16.1876,-105.83382 V -62.10588 c 0,-38.57928 -4.35,-74.09289 6.5912,-107.76699 11.4584,-35.1367 -21.8479,-121.77655 0,-151.8196 84.9634,-116.72832 153.6449,-53.7184 258.4906,-63.85886 38.7849,-3.77009 70.88045,-10.74876 110.78855,-10.74876 17.124,0 37.5687,9.05088 54.9725,10.74876 77.57107,-17.92128 118.64887,-11.36374 158.64987,44.4282 6.0873,32.82516 -3.5542,90.45936 -3.5542,122.67086 0,17.3572 -9.6415,38.5806 -11.4584,56.2666 -9.363,90.59969 43.1825,193.13276 17.2168,281.84748 -9.8272,98.00489 -123.98157,73.81089 -215.82127,73.81089 -17.1239,0 -54.55215,10.2273 -72.05005,10.2273 -53.897,0 -92.8688,-20.98809 -145.1293,-20.98809 -10.0526,0 -34.2466,10.46799 -44.0711,8.63639 -46.1771,0 -92.028,7.6872 -98.4376,-36.78779"
       style="fill:#782d00;fill-opacity:1;fill-rule:nonzero;stroke:none;stroke-width:46.97400665"
       id="path6282"
       inkscape:connector-curvature="0" />
    <path
       d="m 491.07742,-134.60714 5.87185,5.87961 35.26825,-36.13978 73.83546,74.758123 47.83291,-47.848093 C 558.41397,-233.50608 483.94868,-331.19335 342.58554,-346.3 l -2.51652,7.57326 c 56.56507,15.25406 109.73353,49.59683 148.54415,93.21762 5.39055,4.36502 4.99175,11.02954 4.99175,16.8086 0,0.8262 -3.01155,5.97605 -4.16667,6.7058 l -42.78752,42.84426 5.87185,5.8796 L 221.8,57.758662 260.41535,96.375594 491.0898,-134.60305"
       style="fill:#ffffff;fill-opacity:1;fill-rule:nonzero;stroke:none;stroke-width:48.54404068"
       id="path6066"
       inkscape:connector-curvature="0" />
    <path
       d="m 413.06978,143.44293 -2.51651,4.1722 -5.87185,4.22727 -2.51652,0.82619 -2.5165,0.82617 -2.47525,0.82617 -2.51651,0.82618 -4.22169,0.82618 h -5.04677 l -5.87185,-2.51983 -4.16668,-1.65238 -2.5165,-1.69365 h -2.51651 l -2.51651,-0.82619 -2.53027,-1.69366 -4.16667,-4.99837 v -2.51984 l 0.82509,-2.51984 3.34158,-5.87963 6.7382,-7.57328 3.34159,-5.05347 2.51652,-2.47853 5.04676,-5.05346 h 9.21345 l 2.51651,0.82618 2.5165,0.82618 4.16668,2.51984 v 6.70582 l 2.51651,1.69366 5.87186,3.35978 h 6.73819 l 3.30033,2.51984 v 5.87963 l -1.65017,2.51984 -5.04676,5.05346"
       style="fill:#ffffff;fill-opacity:1;fill-rule:nonzero;stroke:none;stroke-width:48.54404068"
       id="path6068"
       inkscape:connector-curvature="0" />
    <path
       d="m 616.09288,74.561753 5.04678,-9.280727 8.38836,-6.705764 1.65016,-10.878039 -1.65016,-10.10691 5.04677,-10.106911 1.65017,-10.933106 -5.04678,-10.0518434 -10.03852,-3.3597425 -3.3416,-10.9331049 -5.87185,-10.1069102 -9.21345,-5.8796 -10.09353,-3.346051 c -19.64664,-10.148185 -22.75172,-26.085126 -47.83292,-31.087662 -75.04696,-16.128324 -31.72588,28.174046 -68.79007,48.7210637 l -10.03852,-5.8245327 -10.09355,4.172144 -4.99175,10.0518452 -5.91312,9.2807167 -4.99175,10.0518441 -2.51652,10.933105 c -6.73819,35.218563 -22.94697,21.908883 -26.00254,62.178113 3.39659,28.756489 37.93602,21.081289 57.00098,16.807209 l 10.91862,1.65234 5.87185,8.39949 -0.82508,12.58543 3.3416,10.93308 5.87185,9.22565 8.38836,6.74712 10.09354,-4.22727 4.99176,-10.05184 10.09354,-4.22727 8.38835,8.39947 9.21345,6.70581 10.91862,0.82617 7.56328,-8.39946 10.03854,-3.34602 5.87185,1.65235 7.56328,-2.47852 c 0.0467,-33.56623 4.85424,-46.051143 29.34964,-68.055009"
       style="fill:#ffffff;fill-opacity:1;fill-rule:nonzero;stroke:none;stroke-width:48.54404068"
       id="path6070"
       inkscape:connector-curvature="0" />
    <path
       d="m 721.8,53.527253 -3.34159,11.759279 -9.21344,6.747118 -10.91863,4.172195 -4.22169,9.225651 6.7382,8.399466 10.09354,5.879638 4.16668,10.1069 -2.51651,11.75926 -10.09354,-2.51983 -5.87185,9.22565 1.70517,11.80055 -10.91862,-1.70743 H 676.4891 l -8.38836,-6.7058 -10.86362,-3.4011 -11.78496,1.69366 -10.86362,2.51984 -7.56328,-8.39946 -9.21345,-5.87964 3.3416,-10.93308 7.56327,-7.57329 4.99177,-9.225651 5.04676,-10.051834 7.56329,-8.399467 3.34159,-10.10686 2.51651,-10.051845 3.34159,-10.933104 1.69142,-10.933105 5.87186,-9.22565 10.86362,3.34605 10.09354,4.227212 h 10.03853 l 10.91862,-2.519757 4.22168,10.051744 9.21345,6.747168 3.34159,10.878039"
       style="fill:#ffffff;fill-opacity:1;fill-rule:nonzero;stroke:none;stroke-width:48.54404068"
       id="path6072"
       inkscape:connector-curvature="0" />
  </g>
</svg>
