<?xml version="1.0" encoding="UTF-8" standalone="no"?>
<!-- Created with Inkscape (http://www.inkscape.org/) -->

<svg
   xmlns:dc="http://purl.org/dc/elements/1.1/"
   xmlns:cc="http://creativecommons.org/ns#"
   xmlns:rdf="http://www.w3.org/1999/02/22-rdf-syntax-ns#"
   xmlns:svg="http://www.w3.org/2000/svg"
   xmlns="http://www.w3.org/2000/svg"
   xmlns:sodipodi="http://sodipodi.sourceforge.net/DTD/sodipodi-0.dtd"
   xmlns:inkscape="http://www.inkscape.org/namespaces/inkscape"
   width="978mm"
   height="602mm"
   viewBox="0 0 978 602.00001"
   version="1.1"
   id="svg8781"
   inkscape:version="0.92.2 (5c3e80d, 2017-08-06)"
   sodipodi:docname="22.svg">
  <defs
     id="defs8775">
    <pattern
       y="0"
       x="0"
       height="6"
       width="6"
       patternUnits="userSpaceOnUse"
       id="EMFhbasepattern" />
    <pattern
       y="0"
       x="0"
       height="6"
       width="6"
       patternUnits="userSpaceOnUse"
       id="EMFhbasepattern-3" />
    <pattern
       y="0"
       x="0"
       height="6"
       width="6"
       patternUnits="userSpaceOnUse"
       id="EMFhbasepattern-2" />
    <pattern
       y="0"
       x="0"
       height="6"
       width="6"
       patternUnits="userSpaceOnUse"
       id="EMFhbasepattern-33" />
    <pattern
       y="0"
       x="0"
       height="6"
       width="6"
       patternUnits="userSpaceOnUse"
       id="EMFhbasepattern-1" />
  </defs>
  <sodipodi:namedview
     id="base"
     pagecolor="#ffffff"
     bordercolor="#666666"
     borderopacity="1.0"
     inkscape:pageopacity="0.0"
     inkscape:pageshadow="2"
     inkscape:zoom="0.26812066"
     inkscape:cx="1749.4933"
     inkscape:cy="893.86528"
     inkscape:document-units="mm"
     inkscape:current-layer="layer1"
     showgrid="false"
     showguides="true"
     inkscape:window-width="1920"
     inkscape:window-height="1057"
     inkscape:window-x="-8"
     inkscape:window-y="-8"
     inkscape:window-maximized="1"
     inkscape:snap-global="false"
     fit-margin-top="0"
     fit-margin-left="0"
     fit-margin-right="0"
     fit-margin-bottom="0" />
  <metadata
     id="metadata8778">
    <rdf:RDF>
      <cc:Work
         rdf:about="">
        <dc:format>image/svg+xml</dc:format>
        <dc:type
           rdf:resource="http://purl.org/dc/dcmitype/StillImage" />
        <dc:title></dc:title>
      </cc:Work>
    </rdf:RDF>
  </metadata>
  <g
     inkscape:label="Layer 1"
     inkscape:groupmode="layer"
     id="layer1"
     transform="translate(-84.340927,375.44855)">
    <path
       d="m 223.30195,214.60415 -90.8552,-45.4375 c -4.3649,-8.6365 -45.427597,-89.29177 -45.427597,-90.87497 v -112.7546 c 0,-39.2477 -6.1462,-187.843 5.0856,-222.102 24.656897,-75.1852 -4.9904,-111.2177 153.936797,-106.9484 34.2026,0.952 78.4785,3.3593 113.5445,0 17.8934,-1.7273 38.8558,-10.9351 56.4133,-10.9351 h 56.3643 c 12.1428,0 125.9702,14.7786 130.4316,20.1999 14.343,-17.3696 105.1016,-6.814 130.3827,-9.2621 17.8444,-1.7273 38.8558,-10.9351 56.4119,-10.9351 h 56.3657 c 17.8444,0 39.0951,9.167 57.2278,10.9351 58.763,5.6579 96.5635,0.544 135.46695,57.1926 7.1524,33.1071 22.6907,79.7918 22.6907,112.8022 0,17.8497 -9.2058,39.105 -10.9327,57.2416 -8.825,91.5944 16.501,193.8411 -11.7485,282.74937 -12.4284,52.1549 -36.2654,72.0189 -135.46695,79.0722 h -57.2278 c -17.5575,0 -38.5199,-9.1669 -56.3657,-10.935 -61.5926,-5.9435 -130.622,0 -192.696,0 l -6.7173,-3.3594 c -1.8221,4.2163 -55.2126,14.2985 -61.4486,14.2985 h -56.3656 c -17.5562,0 -38.5199,-9.1669 -56.3644,-10.935 -61.5451,-5.9436 -130.622,0 -192.696,0"
       style="fill:#782d00;fill-opacity:1;fill-rule:nonzero;stroke:none;stroke-width:47.97531128"
       id="path6315"
       inkscape:connector-curvature="0" />
    <path
       d="m 216.09352,98.50574 c 0,-39.027981 29.68978,-64.999459 67.53317,-64.999459 29.93044,0 62.40201,29.0917 62.40201,59.862584 0,36.003005 -24.65381,70.182585 -63.26537,70.182585 -36.54767,0 -66.66981,-27.74727 -66.66981,-65.04571"
       style="fill:#ffffff;fill-opacity:1;fill-rule:nonzero;stroke:none;stroke-width:47.98430252"
       id="path7348"
       inkscape:connector-curvature="0" />
    <path
       d="m 757.22362,98.50574 c 0,-38.691876 31.32133,-64.999459 68.39653,-64.999459 26.66874,0 53.24096,22.418536 59.85953,47.909664 1.91705,7.38893 1.7267,15.504502 1.7267,23.089385 0,29.95579 -33.38249,59.04612 -62.40064,59.04612 -36.50144,0 -67.58212,-27.5554 -67.58212,-65.04571"
       style="fill:#ffffff;fill-opacity:1;fill-rule:nonzero;stroke:none;stroke-width:47.98430252"
       id="path7350"
       inkscape:connector-curvature="0" />
    <path
       d="m 260.55682,-124.81277 c 5.08494,-3.98702 11.93738,-8.73608 17.9387,-11.0902 4.26917,-1.67373 9.92515,-2.6807 14.53286,-3.45634 49.01937,-3.89177 98.75798,-5.08924 147.92147,-5.08924 60.09883,0 121.53959,3.98703 181.20742,11.0902 0.40788,0 2.29774,-0.0476 2.58326,0 3.4942,0.81646 7.77697,1.38797 11.08082,2.58545 6.71647,2.39494 14.34116,7.3481 19.66539,11.94747 l 88.06193,66.726262 205.18958,34.227211 c 3.41261,0.952532 10.11549,3.742093 12.80752,6.000953 2.7872,2.3541175 7.05638,8.545582 8.53834,12.0019087 3.83411,10.4234313 5.18012,24.9155243 5.13933,35.9077563 h 3.45341 l 5.99588,0.816454 c 4.45952,2.490196 7.6682,7.674686 7.6682,12.818362 l -0.81577,5.143676 c -1.08769,2.354117 -5.27529,5.946522 -7.66819,6.87184 -3.11352,1.088612 -9.63964,1.088612 -12.84832,0.816463 -4.45952,11.756966 -9.3949,24.145329 -17.07534,34.179584 l 6.81165,6.00095 H 918.00971 C 917.73779,45.99262 876.23298,4.3247695 819.68273,4.3247695 c -58.75554,0 -100.67638,56.3572685 -91.46638,112.9063905 H 374.33713 c 0.54384,-4.27278 1.67232,-9.40285 1.67232,-13.68109 V 89.004901 c 0,-48.820003 -53.14307,-84.6801315 -97.46226,-84.6801315 -53.91125,0 -107.67974,57.7493275 -91.46775,112.9063905 C 175.37319,105.51501 164.96811,90.349332 158.0137,75.323819 h -20.52875 c 0,-9.498114 -2.16177,-24.194326 10.26506,-27.411164 0.54384,-2.449373 -5.13933,-29.665943 -5.13933,-36.770478 V -7.6757776 c 0,-5.4702554 1.78109,-12.4781744 2.59686,-17.9538724 l 1.67232,-3.456338 c 0.81576,-0.272148 1.82187,-0.680374 2.58325,-0.816453 0.95173,-0.136079 2.35213,0 3.39903,0 l 107.72731,-95.001509"
       style="fill:#ffffff;fill-opacity:1;fill-rule:nonzero;stroke:none;stroke-width:47.98430252"
       id="path7352"
       inkscape:connector-curvature="0" />
    <path
       d="m 446.08102,-40.083652 c 8.91903,-1.728164 18.22692,-8.395894 16.21198,-18.817955 l -11.08083,-57.317963 c -2.69202,-7.06235 -8.25282,-12.96805 -16.25956,-12.85919 -31.03309,0.54431 -62.20895,0.27216 -93.19445,2.58546 -9.97953,0.81645 -23.1188,6.2867 -29.06574,14.54516 l -39.33079,35.906392 c -1.57715,2.20443 -5.12573,9.307603 -5.12573,12.001908 v 6.817408 l 1.72671,4.027848 c 4.02444,9.402858 11.31195,10.028812 19.6654,13.104128 h 156.45845"
       style="fill:#782d00;fill-opacity:1;fill-rule:nonzero;stroke:none;stroke-width:47.98430252"
       id="path7354"
       inkscape:connector-curvature="0" />
    <path
       d="m 663.21476,-40.083652 c 12.03255,-3.075315 15.39622,-8.450326 15.39622,-20.546129 0,-1.088602 -3.07271,-5.810443 -4.30996,-6.817408 L 629.0233,-105.13074 c -8.59273,-8.16455 -20.57633,-14.3533 -32.47156,-15.40924 -37.60408,-3.21139 -75.20817,-6.53165 -112.85985,-8.54559 -2.63764,0.13609 -7.34189,1.91868 -9.39489,3.45635 l -4.26918,4.21835 c -1.22366,2.10918 -2.1074,8.64083 -1.7267,11.18545 l 11.12161,58.997138 1.67231,4.272791 4.30997,4.313614 c 0.54383,0.272147 5.65597,2.204429 6.81164,2.544617 h 170.99131"
       style="fill:#782d00;fill-opacity:1;fill-rule:nonzero;stroke:none;stroke-width:47.98430252"
       id="path7356"
       inkscape:connector-curvature="0" />
  </g>
</svg>
