<?xml version="1.0" encoding="UTF-8" standalone="no"?>
<!-- Created with Inkscape (http://www.inkscape.org/) -->

<svg
   xmlns:dc="http://purl.org/dc/elements/1.1/"
   xmlns:cc="http://creativecommons.org/ns#"
   xmlns:rdf="http://www.w3.org/1999/02/22-rdf-syntax-ns#"
   xmlns:svg="http://www.w3.org/2000/svg"
   xmlns="http://www.w3.org/2000/svg"
   xmlns:sodipodi="http://sodipodi.sourceforge.net/DTD/sodipodi-0.dtd"
   xmlns:inkscape="http://www.inkscape.org/namespaces/inkscape"
   width="978mm"
   height="602mm"
   viewBox="0 0 978 602.00001"
   version="1.1"
   id="svg8781"
   inkscape:version="0.92.2 (5c3e80d, 2017-08-06)"
   sodipodi:docname="22.svg">
  <defs
     id="defs8775">
    <pattern
       y="0"
       x="0"
       height="6"
       width="6"
       patternUnits="userSpaceOnUse"
       id="EMFhbasepattern" />
    <pattern
       y="0"
       x="0"
       height="6"
       width="6"
       patternUnits="userSpaceOnUse"
       id="EMFhbasepattern-3" />
    <pattern
       y="0"
       x="0"
       height="6"
       width="6"
       patternUnits="userSpaceOnUse"
       id="EMFhbasepattern-2" />
  </defs>
  <sodipodi:namedview
     id="base"
     pagecolor="#ffffff"
     bordercolor="#666666"
     borderopacity="1.0"
     inkscape:pageopacity="0.0"
     inkscape:pageshadow="2"
     inkscape:zoom="0.18958994"
     inkscape:cx="665.52101"
     inkscape:cy="886.14281"
     inkscape:document-units="mm"
     inkscape:current-layer="layer1"
     showgrid="false"
     showguides="true"
     inkscape:window-width="1920"
     inkscape:window-height="1057"
     inkscape:window-x="-8"
     inkscape:window-y="-8"
     inkscape:window-maximized="1"
     inkscape:snap-global="true"
     fit-margin-top="0"
     fit-margin-left="0"
     fit-margin-right="0"
     fit-margin-bottom="0" />
  <metadata
     id="metadata8778">
    <rdf:RDF>
      <cc:Work
         rdf:about="">
        <dc:format>image/svg+xml</dc:format>
        <dc:type
           rdf:resource="http://purl.org/dc/dcmitype/StillImage" />
        <dc:title></dc:title>
      </cc:Work>
    </rdf:RDF>
  </metadata>
  <g
     inkscape:label="Layer 1"
     inkscape:groupmode="layer"
     id="layer1"
     transform="translate(-84.340927,375.44855)">
    <path
       d="m 223.30195,214.60415 -90.8552,-45.4375 c -4.3649,-8.6365 -45.427597,-89.2918 -45.427597,-90.875 v -112.7546 c 0,-39.2477 -6.1462,-187.843 5.0856,-222.102 24.656897,-75.1852 -4.9904,-111.2177 153.936797,-106.9484 34.2026,0.952 78.4785,3.3593 113.5445,0 17.8934,-1.7273 38.8558,-10.9351 56.4133,-10.9351 h 56.3643 c 12.1428,0 125.9702,14.7786 130.4316,20.1999 14.343,-17.3696 105.1016,-6.814 130.3827,-9.2621 17.8444,-1.7273 38.8558,-10.9351 56.4119,-10.9351 h 56.3657 c 17.8444,0 39.0951,9.167 57.2278,10.9351 58.763,5.6579 96.5635,0.544 135.46695,57.1926 7.1524,33.1071 22.6907,79.7918 22.6907,112.8022 0,17.8497 -9.2058,39.105 -10.9327,57.2416 -8.825,91.5944 16.501,193.8411 -11.7485,282.7494 -12.4284,52.1549 -36.2654,72.0189 -135.46695,79.0722 h -57.2278 c -17.5575,0 -38.5199,-9.1669 -56.3657,-10.935 -61.5926,-5.9435 -130.622,0 -192.696,0 l -6.7173,-3.3594 c -1.8221,4.2163 -55.2126,14.2985 -61.4486,14.2985 h -56.3656 c -17.5562,0 -38.5199,-9.1669 -56.3644,-10.935 -61.5451,-5.9436 -130.622,0 -192.696,0"
       style="fill:#782d00;fill-opacity:1;fill-rule:nonzero;stroke:none;stroke-width:47.97531128"
       id="path6315"
       inkscape:connector-curvature="0" />
    <path
       id="path844"
       d="m 173.34093,-344.44855 v 170.35364 c 73.52153,11.75332 120.57637,70.49214 120.57637,143.920508 0,67.554499 -55.87754,117.485962 -120.57637,129.235112 v 70.49074 H 652.70367 V 99.06071 C 590.94619,90.249196 549.77269,37.380097 549.77269,-24.300519 c 0,-58.742971 52.93617,-111.610681 111.75367,-117.485951 l 182.33524,-14.6854 c 67.63881,-11.75331 144.10172,-46.99383 182.3339,-102.80051 l 2.9454,-2.94181 v -5.86974 c 0,-2.94181 -2.9454,-5.86974 -5.877,-8.81155 h -2.9456 -332.31968 v -67.55307 z"
       style="fill:#ffffff;fill-opacity:1;fill-rule:nonzero;stroke:none;stroke-width:36.7379303"
       inkscape:connector-curvature="0" />
  </g>
</svg>
