<?xml version="1.0" encoding="UTF-8" standalone="no"?>
<!-- Created with Inkscape (http://www.inkscape.org/) -->

<svg
   xmlns:dc="http://purl.org/dc/elements/1.1/"
   xmlns:cc="http://creativecommons.org/ns#"
   xmlns:rdf="http://www.w3.org/1999/02/22-rdf-syntax-ns#"
   xmlns:svg="http://www.w3.org/2000/svg"
   xmlns="http://www.w3.org/2000/svg"
   xmlns:sodipodi="http://sodipodi.sourceforge.net/DTD/sodipodi-0.dtd"
   xmlns:inkscape="http://www.inkscape.org/namespaces/inkscape"
   width="978mm"
   height="602mm"
   viewBox="0 0 978 602.00001"
   version="1.1"
   id="svg8781"
   inkscape:version="0.92.2 (5c3e80d, 2017-08-06)"
   sodipodi:docname="22.svg">
  <defs
     id="defs8775">
    <pattern
       y="0"
       x="0"
       height="6"
       width="6"
       patternUnits="userSpaceOnUse"
       id="EMFhbasepattern" />
    <pattern
       y="0"
       x="0"
       height="6"
       width="6"
       patternUnits="userSpaceOnUse"
       id="EMFhbasepattern-3" />
    <pattern
       y="0"
       x="0"
       height="6"
       width="6"
       patternUnits="userSpaceOnUse"
       id="EMFhbasepattern-2" />
  </defs>
  <sodipodi:namedview
     id="base"
     pagecolor="#ffffff"
     bordercolor="#666666"
     borderopacity="1.0"
     inkscape:pageopacity="0.0"
     inkscape:pageshadow="2"
     inkscape:zoom="0.18958994"
     inkscape:cx="1712.2756"
     inkscape:cy="862.31737"
     inkscape:document-units="mm"
     inkscape:current-layer="layer1"
     showgrid="false"
     showguides="true"
     inkscape:window-width="1920"
     inkscape:window-height="1057"
     inkscape:window-x="-8"
     inkscape:window-y="-8"
     inkscape:window-maximized="1"
     inkscape:snap-global="true"
     fit-margin-top="0"
     fit-margin-left="0"
     fit-margin-right="0"
     fit-margin-bottom="0" />
  <metadata
     id="metadata8778">
    <rdf:RDF>
      <cc:Work
         rdf:about="">
        <dc:format>image/svg+xml</dc:format>
        <dc:type
           rdf:resource="http://purl.org/dc/dcmitype/StillImage" />
        <dc:title></dc:title>
      </cc:Work>
    </rdf:RDF>
  </metadata>
  <g
     inkscape:label="Layer 1"
     inkscape:groupmode="layer"
     id="layer1"
     transform="translate(-84.340927,375.44855)">
    <path
       d="m 223.30195,214.60415 -90.8552,-45.4375 c -4.3649,-8.6365 -45.427597,-89.2918 -45.427597,-90.875 v -112.7546 c 0,-39.2477 -6.1462,-187.843 5.0856,-222.102 24.656897,-75.1852 -4.9904,-111.2177 153.936797,-106.9484 34.2026,0.952 78.4785,3.3593 113.5445,0 17.8934,-1.7273 38.8558,-10.9351 56.4133,-10.9351 h 56.3643 c 12.1428,0 125.9702,14.7786 130.4316,20.1999 14.343,-17.3696 105.1016,-6.814 130.3827,-9.2621 17.8444,-1.7273 38.8558,-10.9351 56.4119,-10.9351 h 56.3657 c 17.8444,0 39.0951,9.167 57.2278,10.9351 58.763,5.6579 96.5635,0.544 135.46695,57.1926 7.1524,33.1071 22.6907,79.7918 22.6907,112.8022 0,17.8497 -9.2058,39.105 -10.9327,57.2416 -8.825,91.5944 16.501,193.8411 -11.7485,282.7494 -12.4284,52.1549 -36.2654,72.0189 -135.46695,79.0722 h -57.2278 c -17.5575,0 -38.5199,-9.1669 -56.3657,-10.935 -61.5926,-5.9435 -130.622,0 -192.696,0 l -6.7173,-3.3594 c -1.8221,4.2163 -55.2126,14.2985 -61.4486,14.2985 h -56.3656 c -17.5562,0 -38.5199,-9.1669 -56.3644,-10.935 -61.5451,-5.9436 -130.622,0 -192.696,0"
       style="fill:#782d00;fill-opacity:1;fill-rule:nonzero;stroke:none;stroke-width:47.97531128"
       id="path6315"
       inkscape:connector-curvature="0" />
    <path
       d="m 817.52103,136.5016 c 0.82423,-3.58534 4.02497,-15.02271 4.02497,-18.07643 0,-23.067061 -3.58538,-49.527151 -26.1691,-62.174747 L 898.01745,-214.4043 c 18.85137,-7.363 40.22348,-33.29146 40.22348,-54.17844 v -18.02701 l -4.02495,-12.01977 c -7.65155,-22.87346 -35.71636,-43.71234 -60.38262,-42.11336 l 30.19131,58.15389 c -3.10458,3.68156 -6.53884,10.81098 -10.02806,14.00485 -4.25849,3.83256 -20.74158,12.94016 -26.16909,14.05285 -4.36838,0.82429 -11.53913,0 -16.08885,0 l -28.20493,-54.13033 c -3.54415,6.30524 -10.02805,25.34463 -10.02805,32.08116 0,23.89135 15.12038,46.81278 36.20127,58.15262 L 749.10087,44.230611 c -29.852,12.157181 -50.30236,32.516695 -50.30236,66.196919 0,25.53971 17.78399,50.01206 42.25794,58.15394 l 12.06113,3.96998 h 10.083 l -30.19131,-56.11813 c 4.12113,-8.43449 15.60394,-20.110882 24.13327,-24.084969 5.57724,-2.568813 21.4202,-5.192565 28.20493,-6.016787 l 32.17768,50.157676"
       style="fill:#ffffff;fill-opacity:1;fill-rule:nonzero;stroke:none;stroke-width:48.46110916"
       id="path6620"
       inkscape:connector-curvature="0" />
    <path
       d="m 652.99504,-321.21168 v 148.29018 c -1.23634,3.10455 -2.47268,7.12947 -4.12113,10.02797 -1.55228,2.66496 -4.31343,5.52224 -6.20914,7.99489 -2.03309,0.82421 -10.61875,4.69803 -12.40456,4.02492 h -10.37149 l -12.40456,298.61488 h 20.6935 l 6.19542,3.96998 4.12111,8.04985 v 9.98675 H 357.07956 v -9.98675 l 2.03308,-8.04985 c 1.84077,-0.54947 6.635,-3.20071 8.28345,-3.96998 h 20.69213 L 377.71674,-82.738513 c -1.78582,-0.686852 -10.37147,3.241916 -12.40456,4.024918 l -6.19541,7.994895 -2.03309,10.027964 V 91.621658 c -7.03337,18.414362 -4.31344,26.410642 -24.18134,37.411172 -3.448,1.8957 -15.45968,6.68989 -19.2882,6.68989 -24.66626,0 -49.67321,-19.23858 -49.67321,-44.098312 0,-4.986507 1.40119,-11.044493 2.08804,-16.04062 5.81078,-6.786048 13.81123,-61.060682 14.44176,-72.1587444 V -188.96487 c 0.41212,-1.37369 3.58538,-6.92341 4.16234,-7.99489 l 49.6732,-48.12049 v 24.03551 l -16.57376,16.04062 -4.12112,6.01679 2.08803,20.06279 -4.16233,6.00304 -8.28345,6.01678 -2.08802,8.04984 V 13.472237 c -0.54949,22.67968 -5.86573,48.99278 -14.48986,70.122936 -0.68685,6.346463 0.13738,14.004802 2.08804,20.062787 l 8.28344,7.99491 c 2.91226,0.54947 7.45923,2.03305 10.31654,2.03305 h 12.45951 c 5.76957,-2.61001 12.25346,-10.42633 14.48985,-16.040616 V -60.675627 l 2.08803,-14.054251 c 1.79956,-4.560671 14.34423,-19.288035 18.60822,-22.049156 4.40959,-2.857289 17.05868,-7.514106 22.72933,-5.961836 l -2.03309,-48.12048 h -10.37147 l -10.31653,-2.03307 -8.28345,-5.96183 c -1.45613,-2.71992 -5.08271,-10.90713 -4.12111,-14.05426 v -148.29017 l 2.03307,-10.028 8.28345,-8.04981 10.37148,-3.97006 h 266.97287 l 10.31653,1.99188 c 2.41772,2.37647 6.30531,5.42614 8.28344,8.04981 l 4.12113,12.01988"
       style="fill:#ffffff;fill-opacity:1;fill-rule:nonzero;stroke:none;stroke-width:48.46110916"
       id="path6622"
       inkscape:connector-curvature="0" />
    <path
       d="m 373.61623,-321.21168 -6.20915,4.02485 -2.08803,6.00304 v 128.22746 l 4.16232,8.04984 6.20915,1.99186 h 244.19545 l 8.28345,-4.02492 c 4.31344,-5.57719 2.08804,-119.6006 2.08804,-134.23594 l -4.16234,-8.04991 -6.19541,-1.99178 h -246.2821"
       style="fill:#782d00;fill-opacity:1;fill-rule:nonzero;stroke:none;stroke-width:48.46110916"
       id="path6624"
       inkscape:connector-curvature="0" />
  </g>
</svg>
