<?xml version="1.0" encoding="UTF-8" standalone="no"?>
<!-- Created with Inkscape (http://www.inkscape.org/) -->

<svg
   xmlns:dc="http://purl.org/dc/elements/1.1/"
   xmlns:cc="http://creativecommons.org/ns#"
   xmlns:rdf="http://www.w3.org/1999/02/22-rdf-syntax-ns#"
   xmlns:svg="http://www.w3.org/2000/svg"
   xmlns="http://www.w3.org/2000/svg"
   xmlns:sodipodi="http://sodipodi.sourceforge.net/DTD/sodipodi-0.dtd"
   xmlns:inkscape="http://www.inkscape.org/namespaces/inkscape"
   width="978mm"
   height="602mm"
   viewBox="0 0 978 602.00001"
   version="1.1"
   id="svg8781"
   inkscape:version="0.92.2 (5c3e80d, 2017-08-06)"
   sodipodi:docname="22.svg">
  <defs
     id="defs8775">
    <pattern
       y="0"
       x="0"
       height="6"
       width="6"
       patternUnits="userSpaceOnUse"
       id="EMFhbasepattern" />
    <pattern
       y="0"
       x="0"
       height="6"
       width="6"
       patternUnits="userSpaceOnUse"
       id="EMFhbasepattern-3" />
    <pattern
       y="0"
       x="0"
       height="6"
       width="6"
       patternUnits="userSpaceOnUse"
       id="EMFhbasepattern-2" />
  </defs>
  <sodipodi:namedview
     id="base"
     pagecolor="#ffffff"
     bordercolor="#666666"
     borderopacity="1.0"
     inkscape:pageopacity="0.0"
     inkscape:pageshadow="2"
     inkscape:zoom="0.18958994"
     inkscape:cx="1192.6525"
     inkscape:cy="836.70387"
     inkscape:document-units="mm"
     inkscape:current-layer="layer1"
     showgrid="false"
     showguides="true"
     inkscape:window-width="1920"
     inkscape:window-height="1057"
     inkscape:window-x="-8"
     inkscape:window-y="-8"
     inkscape:window-maximized="1"
     inkscape:snap-global="true"
     fit-margin-top="0"
     fit-margin-left="0"
     fit-margin-right="0"
     fit-margin-bottom="0" />
  <metadata
     id="metadata8778">
    <rdf:RDF>
      <cc:Work
         rdf:about="">
        <dc:format>image/svg+xml</dc:format>
        <dc:type
           rdf:resource="http://purl.org/dc/dcmitype/StillImage" />
        <dc:title></dc:title>
      </cc:Work>
    </rdf:RDF>
  </metadata>
  <g
     inkscape:label="Layer 1"
     inkscape:groupmode="layer"
     id="layer1"
     transform="translate(-84.340927,375.44855)">
    <path
       d="m 223.30195,214.60415 -90.8552,-45.4375 c -4.3649,-8.6365 -45.427597,-89.2918 -45.427597,-90.875 v -112.7546 c 0,-39.2477 -6.1462,-187.843 5.0856,-222.102 24.656897,-75.1852 -4.9904,-111.2177 153.936797,-106.9484 34.2026,0.952 78.4785,3.3593 113.5445,0 17.8934,-1.7273 38.8558,-10.9351 56.4133,-10.9351 h 56.3643 c 12.1428,0 125.9702,14.7786 130.4316,20.1999 14.343,-17.3696 105.1016,-6.814 130.3827,-9.2621 17.8444,-1.7273 38.8558,-10.9351 56.4119,-10.9351 h 56.3657 c 17.8444,0 39.0951,9.167 57.2278,10.9351 58.763,5.6579 96.5635,0.544 135.46695,57.1926 7.1524,33.1071 22.6907,79.7918 22.6907,112.8022 0,17.8497 -9.2058,39.105 -10.9327,57.2416 -8.825,91.5944 16.501,193.8411 -11.7485,282.7494 -12.4284,52.1549 -36.2654,72.0189 -135.46695,79.0722 h -57.2278 c -17.5575,0 -38.5199,-9.1669 -56.3657,-10.935 -61.5926,-5.9435 -130.622,0 -192.696,0 l -6.7173,-3.3594 c -1.8221,4.2163 -55.2126,14.2985 -61.4486,14.2985 h -56.3656 c -17.5562,0 -38.5199,-9.1669 -56.3644,-10.935 -61.5451,-5.9436 -130.622,0 -192.696,0"
       style="fill:#782d00;fill-opacity:1;fill-rule:nonzero;stroke:none;stroke-width:47.97531128"
       id="path6315"
       inkscape:connector-curvature="0" />
    <path
       d="m 934.07152,141.15878 c 0,-20.97748 -14.14918,-35.076 -33.33802,-40.55143 l -7.6508,-2.224777 c -20.40032,0 -44.28952,19.620637 -44.28952,41.130967 0,19.33086 11.48308,37.45046 30.6252,42.24747 l 8.77714,2.18358 c 15.36068,0 35.56596,-10.46471 42.64124,-24.65935 2.37628,-4.79289 3.24163,-12.64829 3.24163,-18.11959"
       style="fill:#ffffff;fill-opacity:1;fill-rule:nonzero;stroke:none;stroke-width:48.45217133"
       id="path6646"
       inkscape:connector-curvature="0" />
    <path
       d="m 486.28361,141.15878 c 0,-11.24751 -7.17006,-27.61475 -16.3785,-34.54315 -2.18398,-1.64799 -12.93906,-5.28728 -15.84555,-6.00141 l -8.77714,-2.224778 c -20.4484,0 -44.28952,19.668708 -44.28952,41.130958 0,7.3198 2.37628,18.60437 6.59315,24.7088 5.96132,8.67938 21.95109,19.71813 32.80507,19.71813 24.66527,0 45.88974,-17.2956 45.88974,-42.77895"
       style="fill:#ffffff;fill-opacity:1;fill-rule:nonzero;stroke:none;stroke-width:48.45217133"
       id="path6648"
       inkscape:connector-curvature="0" />
    <path
       d="m 323.90517,141.15878 c 0,-10.71191 -7.32115,-28.2451 -16.37849,-34.54315 -1.09887,-0.82399 -14.77829,-5.42461 -16.95952,-6.00141 l -7.65081,-2.224778 c -20.4484,0 -44.28953,19.668708 -44.28953,41.130958 0,19.33087 11.48308,37.45047 30.62521,42.24747 l 8.72219,2.18358 c 15.36069,0 35.56733,-10.4647 42.64124,-24.65935 2.41749,-4.79288 3.29658,-12.64828 3.29658,-18.11959"
       style="fill:#ffffff;fill-opacity:1;fill-rule:nonzero;stroke:none;stroke-width:48.45217133"
       id="path6650"
       inkscape:connector-curvature="0" />
    <path
       d="m 415.77942,-158.24855 h 575.713 l 8.1865,1.64799 c 1.93668,1.89519 4.98608,4.40835 6.59308,6.53701 l 3.2967,6.59194 c 0,35.4152 6.4008,259.53431 -3.2967,278.08925 -8.96936,10.56085 -39.10421,6.53702 -50.83041,6.53702 1.23621,-5.61689 -1.74444,-12.35989 -3.29657,-17.53869 -8.81836,-29.456364 -33.38747,-46.606396 -63.96324,-46.606396 -31.3999,0 -62.5086,32.847096 -60.71609,64.145086 H 507.60423 V 77.009574 h -63.96322 c -5.19212,0.96133 -14.63406,1.702919 -19.67371,3.295969 -14.29479,4.559426 -28.97693,16.181843 -36.10027,29.601937 -4.12073,7.80047 -6.97776,22.4799 -8.18651,31.24855 h -34.45336 c 1.23621,-5.61689 -1.70323,-12.35989 -3.24163,-17.53868 -8.81835,-29.406928 -33.43417,-46.606396 -64.01131,-46.606396 -31.35045,0 -62.50861,32.847086 -60.66664,64.145076 h -50.83186 c -3.43394,-0.13734 -8.09035,-3.87277 -9.83479,-6.53701 v -26.35541 l 1.64829,-6.59193 c 2.47243,-1.84025 5.28825,-3.735435 8.1865,-4.943958 V 70.420387 c 0.0975,-16.908327 9.45019,-28.777947 21.27254,-39.484352 l 42.69068,-87.205883 c 5.48056,-8.720591 13.90745,-16.472985 24.56775,-16.472985 h 103.35734 c 2.56858,-0.686664 9.29909,2.18358 11.48307,3.295969 l 4.94487,6.591937 1.59335,8.239932 v 92.148456 h 21.37007 V -140.17289 l 1.59334,-8.23993 c 1.93674,-1.89518 4.46411,-4.98515 6.59315,-6.53701 l 9.83479,-3.29597"
       style="fill:#ffffff;fill-opacity:1;fill-rule:nonzero;stroke:none;stroke-width:48.45217133"
       id="path6652"
       inkscape:connector-curvature="0" />
    <path
       d="M 355.06332,-33.204926 V 2.9862052 l -1.59334,6.5919368 c -0.9615,1.895188 -3.63998,4.792894 -4.94486,6.537012 -2.18399,1.098653 -8.91451,4.065031 -11.48309,3.295969 h -103.3587 l -6.53821,-1.647984 c -2.51364,-2.609314 -4.60148,-7.95153 -4.88993,-11.4809652 2.32134,-1.0986529 20.54592,-41.0842688 22.92084,-46.0749188 l 6.59315,-6.591937 c 1.37357,-0.961329 10.71388,-4.257298 13.13137,-4.943962 h 72.15109 l 8.18651,1.647984 c 1.93674,1.936386 4.98607,4.449567 6.59315,6.591947 l 3.24164,9.887905"
       style="fill:#782d00;fill-opacity:1;fill-rule:nonzero;stroke:none;stroke-width:48.45217133"
       id="path6654"
       inkscape:connector-curvature="0" />
  </g>
</svg>
