<?xml version="1.0" encoding="UTF-8" standalone="no"?>
<!-- Created with Inkscape (http://www.inkscape.org/) -->

<svg
   xmlns:dc="http://purl.org/dc/elements/1.1/"
   xmlns:cc="http://creativecommons.org/ns#"
   xmlns:rdf="http://www.w3.org/1999/02/22-rdf-syntax-ns#"
   xmlns:svg="http://www.w3.org/2000/svg"
   xmlns="http://www.w3.org/2000/svg"
   xmlns:sodipodi="http://sodipodi.sourceforge.net/DTD/sodipodi-0.dtd"
   xmlns:inkscape="http://www.inkscape.org/namespaces/inkscape"
   width="978mm"
   height="602mm"
   viewBox="0 0 978 602.00001"
   version="1.1"
   id="svg8781"
   inkscape:version="0.92.2 (5c3e80d, 2017-08-06)"
   sodipodi:docname="22.svg">
  <defs
     id="defs8775">
    <pattern
       y="0"
       x="0"
       height="6"
       width="6"
       patternUnits="userSpaceOnUse"
       id="EMFhbasepattern" />
    <pattern
       y="0"
       x="0"
       height="6"
       width="6"
       patternUnits="userSpaceOnUse"
       id="EMFhbasepattern-3" />
    <pattern
       y="0"
       x="0"
       height="6"
       width="6"
       patternUnits="userSpaceOnUse"
       id="EMFhbasepattern-2" />
    <pattern
       y="0"
       x="0"
       height="6"
       width="6"
       patternUnits="userSpaceOnUse"
       id="EMFhbasepattern-33" />
  </defs>
  <sodipodi:namedview
     id="base"
     pagecolor="#ffffff"
     bordercolor="#666666"
     borderopacity="1.0"
     inkscape:pageopacity="0.0"
     inkscape:pageshadow="2"
     inkscape:zoom="0.18958994"
     inkscape:cx="2222.5806"
     inkscape:cy="836.70387"
     inkscape:document-units="mm"
     inkscape:current-layer="layer1"
     showgrid="false"
     showguides="true"
     inkscape:window-width="1920"
     inkscape:window-height="1057"
     inkscape:window-x="-8"
     inkscape:window-y="-8"
     inkscape:window-maximized="1"
     inkscape:snap-global="true"
     fit-margin-top="0"
     fit-margin-left="0"
     fit-margin-right="0"
     fit-margin-bottom="0" />
  <metadata
     id="metadata8778">
    <rdf:RDF>
      <cc:Work
         rdf:about="">
        <dc:format>image/svg+xml</dc:format>
        <dc:type
           rdf:resource="http://purl.org/dc/dcmitype/StillImage" />
        <dc:title></dc:title>
      </cc:Work>
    </rdf:RDF>
  </metadata>
  <g
     inkscape:label="Layer 1"
     inkscape:groupmode="layer"
     id="layer1"
     transform="translate(-84.340927,375.44855)">
    <path
       d="m 223.30195,214.60415 -90.8552,-45.4375 c -4.3649,-8.6365 -45.427597,-89.2918 -45.427597,-90.875 v -112.7546 c 0,-39.2477 -6.1462,-187.843 5.0856,-222.102 24.656897,-75.1852 -4.9904,-111.2177 153.936797,-106.9484 34.2026,0.952 78.4785,3.3593 113.5445,0 17.8934,-1.7273 38.8558,-10.9351 56.4133,-10.9351 h 56.3643 c 12.1428,0 125.9702,14.7786 130.4316,20.1999 14.343,-17.3696 105.1016,-6.814 130.3827,-9.2621 17.8444,-1.7273 38.8558,-10.9351 56.4119,-10.9351 h 56.3657 c 17.8444,0 39.0951,9.167 57.2278,10.9351 58.763,5.6579 96.5635,0.544 135.46695,57.1926 7.1524,33.1071 22.6907,79.7918 22.6907,112.8022 0,17.8497 -9.2058,39.105 -10.9327,57.2416 -8.825,91.5944 16.501,193.8411 -11.7485,282.7494 -12.4284,52.1549 -36.2654,72.0189 -135.46695,79.0722 h -57.2278 c -17.5575,0 -38.5199,-9.1669 -56.3657,-10.935 -61.5926,-5.9435 -130.622,0 -192.696,0 l -6.7173,-3.3594 c -1.8221,4.2163 -55.2126,14.2985 -61.4486,14.2985 h -56.3656 c -17.5562,0 -38.5199,-9.1669 -56.3644,-10.935 -61.5451,-5.9436 -130.622,0 -192.696,0"
       style="fill:#782d00;fill-opacity:1;fill-rule:nonzero;stroke:none;stroke-width:47.97531128"
       id="path6315"
       inkscape:connector-curvature="0" />
    <path
       id="path839"
       d="m 917.63467,-249.2179 c 0,0 2.9121,2.91369 2.9121,5.81364 2.9121,0 5.81046,0 5.81046,2.91369 8.72258,2.91369 23.26112,11.64102 31.9837,17.45465 v 2.91369 c 0,2.91369 0,5.81364 0,5.81364 l -11.63468,14.54509 -2.91211,5.81363 -5.81047,2.91369 c -8.72257,2.91369 -17.44515,2.91369 -26.16772,2.91369 h -2.9121 c -14.53717,0 -31.98231,5.81364 -46.52085,11.64102 -5.81047,5.81365 -20.35175,11.64103 -29.07433,11.64103 0,0 -8.72256,0 -11.63467,0 -14.53716,-2.91369 -29.07571,-2.91369 -43.61287,-2.91369 -11.63468,2.91369 -26.16772,2.91369 -40.70489,2.91369 -17.44514,0 -29.07569,5.81364 -46.51947,11.64102 l -17.44514,8.72732 h -2.91211 l -5.81047,2.91369 c -2.9121,2.91369 -8.72257,2.91369 -11.63468,2.91369 l -23.26111,2.91369 c -2.9121,2.91369 -5.81047,5.81364 -5.81047,8.72733 -2.9121,2.91369 -2.9121,5.81364 -5.81047,8.72733 0,2.91369 -2.91211,5.81363 -5.81047,8.72732 -2.9121,2.91369 -8.72257,8.72733 -11.63467,8.72733 -11.63468,11.641019 -20.35176,29.091558 -20.35176,43.636637 -2.9121,8.727327 -5.81047,17.454664 -5.81047,26.181991 0,2.91369 2.9121,11.641017 2.9121,17.454653 0,0 2.91211,11.6410176 2.91211,11.6410176 V 9.733596 c 0,5.813637 -2.91211,14.545089 -5.81047,20.36285 0,8.727327 0,34.909308 2.91211,40.728439 2.9121,5.813636 8.72257,40.727065 8.72257,43.635265 2.9121,5.81364 2.9121,17.45466 8.72257,23.2738 2.9121,5.81363 11.63468,17.45327 20.35313,20.36284 h 34.88892 V 82.460408 H 618.17568 V 65.005754 h 84.31774 v 17.454654 h -34.89029 v 75.636382 h 78.50316 v -49.4544 H 728.66114 V 91.187735 h 49.42747 v 17.454655 h -14.53717 v 49.4544 h 58.15003 v 17.45466 h -511.7211 v -17.45466 h 186.08065 c 8.72258,-8.72733 17.44516,-29.09017 17.44516,-43.63664 l 2.9121,-23.272415 c 0,-5.813637 2.9121,-14.545089 5.81047,-20.36285 0,-5.813637 0,-14.546458 -5.81047,-20.364219 0,-2.913691 0,-5.813637 0,-8.727327 0,-2.913691 2.9121,-14.545089 5.81047,-17.454654 0,-5.813637 0,-11.641018 0,-14.545089 0,-5.8136371 -2.9121,-20.364219 -5.81047,-26.181981 0,-5.813637 -2.9121,-14.545089 -8.72258,-20.362851 v -2.91369 l -2.9121,-5.813637 c -2.91211,-2.91369 -2.91211,-5.813637 -2.91211,-8.727327 0,-8.727327 -2.9121,-17.454654 -5.81047,-23.273794 -2.9121,-8.727327 -5.81047,-14.545089 -11.63467,-23.272416 l -11.63468,-17.45465 -14.53854,-26.18198 c -2.9121,-2.91369 -8.72256,-5.81364 -14.53715,-5.81364 0,0 -5.81048,2.91369 -5.81048,2.91369 l -5.81047,2.91369 -5.81046,2.91369 c -2.9121,0 -5.81047,-2.91369 -8.72258,-2.91369 -5.81047,-2.91369 -17.44515,-5.81364 -23.25974,-5.81364 -5.81046,2.91369 -14.53717,2.91369 -23.25973,5.81364 -2.9121,0 -11.63468,0 -17.44515,0 -8.72257,2.91369 -14.53717,2.91369 -23.25973,2.91369 l -8.72258,2.91369 c 0,0 -11.63469,-2.91369 -11.63469,-2.91369 l -23.25972,-14.54509 c -5.81048,-2.91369 -14.53855,-5.81364 -20.35314,-5.81364 -5.81047,-2.91369 -17.44515,-5.81363 -23.25974,-8.72732 0,0 -2.9121,0 -5.81046,-2.91369 -2.9121,-2.91369 -5.81047,-5.81364 -8.72258,-11.64102 -14.53716,-8.72733 -29.0757,-20.36285 -43.61286,-26.18198 -2.91211,0 -2.91211,0 -5.81047,-2.91369 l -5.81047,-5.81364 v -2.91369 c 0,-5.81364 2.9121,-11.64102 5.81047,-11.64102 l 8.72257,-2.91369 c 5.81047,-2.9137 11.63468,-8.72733 14.53716,-11.64102 2.91211,-2.91369 5.81048,-5.81364 5.81048,-5.81364 2.9121,-2.91366 11.63468,-5.81368 14.53853,-5.81368 14.53717,-5.81361 29.07433,-14.54503 43.61149,-23.27234 2.9121,0 8.72258,-2.9137 11.63468,-2.9137 l 31.98231,2.9137 c 2.9121,0 8.72257,0 11.63468,0 2.9121,0 5.81047,-2.9137 8.72257,-2.9137 l 23.26111,-8.72732 c 2.91211,0 14.53717,-2.9137 17.44515,-5.81362 l 66.8726,-23.27244 c 14.53717,-5.81362 31.98231,-11.64102 46.51948,-11.64102 11.63467,0 29.07433,2.9137 37.79689,5.81362 2.91211,2.9137 14.53855,8.72731 17.44516,8.72731 h 5.81046 c 8.72257,0 17.44515,-2.9137 20.35313,-8.72731 11.63468,-2.9137 26.16772,-5.81362 40.70489,-5.81362 8.72257,0 17.44515,2.9137 23.25973,2.9137 20.35314,8.72732 40.70489,14.54503 61.05802,17.45463 l 26.16772,2.9137 c 2.9121,0 5.81046,0 8.72256,2.9137 2.9121,0 5.81047,2.9137 11.63468,2.9137 11.63469,11.64102 23.25974,14.54503 37.79691,17.45464 0,0 2.9121,0 2.9121,0 l 43.61287,2.9137 h 20.35312 c 11.63468,2.9137 34.8903,5.81362 43.6115,11.64102 29.07569,8.72731 20.35313,2.9137 31.98368,26.18196 z"
       style="fill:#ffffff;fill-opacity:1;fill-rule:nonzero;stroke:none;stroke-width:36.35395813"
       inkscape:connector-curvature="0" />
    <path
       id="path841"
       d="m 519.30702,-100.8547 c 0,5.813638 2.91211,17.454655 2.91211,23.272417 2.9121,5.813637 8.72257,14.546457 11.63469,20.364219 0,-11.641017 -2.91212,-34.909308 -2.91212,-43.636636 0,-2.91369 0,-5.81364 0,-8.72733 2.91212,-2.91369 5.81048,-8.72733 8.72257,-11.64102 0,-2.91369 0,-5.81364 0,-8.72733 0,0 0,0 0,0 v -5.81364 c -2.91209,-2.91369 -2.91209,-5.81363 -5.81045,-8.72732 0,0 0,-2.91369 0,-2.91369 0,-5.81364 2.9121,-8.72733 2.9121,-11.64102 l 2.91209,-2.91369 c 2.9121,-2.91369 2.9121,-2.91369 5.81046,-2.91369 l -2.9121,-2.91369 c -5.81045,0 -14.53716,2.91369 -20.35175,0 l -20.35313,-2.91369 c -8.72257,0 -17.44514,2.91369 -26.16772,5.81364 l 2.9121,2.91369 h 5.81048 c 2.9121,0 8.72257,2.91369 11.63467,5.81363 v 2.91369 l 2.91211,8.72733 c 2.91211,17.45465 8.72257,29.09156 20.35313,43.63664 z"
       style="fill:#782d00;fill-opacity:1;fill-rule:nonzero;stroke:none;stroke-width:36.35395813"
       inkscape:connector-curvature="0" />
    <path
       id="path843"
       d="m 600.71679,-144.49134 c -5.81047,5.81363 -8.72258,11.64101 -14.53716,17.45465 v 5.81364 l -20.35175,26.18061 c -2.91211,2.91369 -5.81048,8.727327 -5.81048,14.546467 -2.9121,0 -5.81046,-5.813637 -5.81046,-8.727337 v -5.813637 l 2.9121,-5.813633 c 2.91211,-2.91369 2.91211,-8.72733 2.91211,-14.54508 0,-2.9137 0,-5.81365 0,-5.81365 -2.91211,-2.91369 -5.81048,-8.72733 -5.81048,-11.64102 0,-2.91369 2.91211,-8.72732 5.81048,-11.64101 2.9121,-2.91369 5.81046,-8.72733 5.81046,-14.54509 l -2.9121,-5.81364 v -5.81364 h 2.9121 l 2.9121,-2.91369 2.91211,2.91369 c 2.9121,2.91369 8.72257,5.81364 11.63467,5.81364 0,0 5.81048,0 8.72258,0 5.81046,-2.91369 11.63467,-5.81364 17.44377,-5.81364 5.81047,0 11.63468,2.91369 17.44515,5.81364 l 2.9121,2.91369 c 2.91211,0 2.91211,2.91369 0,2.91369 -11.63467,2.91369 -20.35175,8.72733 -29.07433,14.54509 z"
       style="fill:#782d00;fill-opacity:1;fill-rule:nonzero;stroke:none;stroke-width:36.35395813"
       inkscape:connector-curvature="0" />
  </g>
</svg>
