<?xml version="1.0" encoding="UTF-8" standalone="no"?>
<!-- Created with Inkscape (http://www.inkscape.org/) -->

<svg
   xmlns:dc="http://purl.org/dc/elements/1.1/"
   xmlns:cc="http://creativecommons.org/ns#"
   xmlns:rdf="http://www.w3.org/1999/02/22-rdf-syntax-ns#"
   xmlns:svg="http://www.w3.org/2000/svg"
   xmlns="http://www.w3.org/2000/svg"
   xmlns:sodipodi="http://sodipodi.sourceforge.net/DTD/sodipodi-0.dtd"
   xmlns:inkscape="http://www.inkscape.org/namespaces/inkscape"
   width="978mm"
   height="602mm"
   viewBox="0 0 978 602.00001"
   version="1.1"
   id="svg8781"
   inkscape:version="0.92.2 (5c3e80d, 2017-08-06)"
   sodipodi:docname="22.svg">
  <defs
     id="defs8775">
    <pattern
       y="0"
       x="0"
       height="6"
       width="6"
       patternUnits="userSpaceOnUse"
       id="EMFhbasepattern" />
  </defs>
  <sodipodi:namedview
     id="base"
     pagecolor="#ffffff"
     bordercolor="#666666"
     borderopacity="1.0"
     inkscape:pageopacity="0.0"
     inkscape:pageshadow="2"
     inkscape:zoom="0.18958994"
     inkscape:cx="1738.3336"
     inkscape:cy="858.08912"
     inkscape:document-units="mm"
     inkscape:current-layer="layer1"
     showgrid="false"
     showguides="true"
     inkscape:window-width="1920"
     inkscape:window-height="1057"
     inkscape:window-x="-8"
     inkscape:window-y="-8"
     inkscape:window-maximized="1"
     inkscape:snap-global="true"
     fit-margin-top="0"
     fit-margin-left="0"
     fit-margin-right="0"
     fit-margin-bottom="0" />
  <metadata
     id="metadata8778">
    <rdf:RDF>
      <cc:Work
         rdf:about="">
        <dc:format>image/svg+xml</dc:format>
        <dc:type
           rdf:resource="http://purl.org/dc/dcmitype/StillImage" />
        <dc:title></dc:title>
      </cc:Work>
    </rdf:RDF>
  </metadata>
  <g
     inkscape:label="Layer 1"
     inkscape:groupmode="layer"
     id="layer1"
     transform="translate(-84.340927,375.44855)">
    <path
       d="m 223.30196,214.60415 -90.85521,-45.4375 c -4.3649,-8.6365 -45.427597,-89.2918 -45.427597,-90.875 v -112.7546 c 0,-39.2477 -6.1462,-187.84306 5.0856,-222.10206 24.656897,-75.1852 -4.9904,-111.2177 153.936807,-106.9484 34.2026,0.952 78.4785,3.3593 113.5445,0 17.8934,-1.7273 38.8558,-10.9351 56.4133,-10.9351 h 56.3643 c 12.1428,0 125.9702,14.7786 130.4316,20.1999 14.343,-17.3696 105.1016,-6.814 130.3827,-9.2621 17.8444,-1.7273 38.8558,-10.9351 56.4119,-10.9351 h 56.3657 c 17.8444,0 39.0951,9.167 57.22783,10.9351 58.763,5.6579 96.5635,0.544 135.46691,57.1926 7.1524,33.1071 22.6907,79.7918 22.6907,112.8022 0,17.8497 -9.2058,39.105 -10.9327,57.2416 -8.825,91.59446 16.501,193.84116 -11.7485,282.74946 -12.4284,52.1549 -36.2654,72.0189 -135.46691,79.0722 h -57.22783 c -17.5575,0 -38.5199,-9.1669 -56.3657,-10.935 -61.5926,-5.9435 -130.622,0 -192.696,0 l -6.7173,-3.3594 c -1.8221,4.2163 -55.2126,14.2985 -61.4486,14.2985 h -56.3656 c -17.5562,0 -38.5199,-9.1669 -56.3644,-10.935 -61.5451,-5.9436 -130.622,0 -192.696,0"
       style="fill:#782d00;fill-opacity:1;fill-rule:nonzero;stroke:none;stroke-width:47.97531128"
       id="path6315"
       inkscape:connector-curvature="0" />
    <path
       d="m 367.54854,84.086707 -1.72377,-8.508233 c -2.97106,-18.988649 -21.95222,-25.664878 -38.46404,-25.664878 -18.09544,0 -28.23069,21.75838 -28.23069,36.741 0,17.306614 17.84739,31.647274 34.21205,31.647274 15.57426,0 36.83276,-17.05993 34.21206,-34.219363"
       style="fill:#ffffff;fill-opacity:1;fill-rule:nonzero;stroke:none;stroke-width:49.44410324"
       id="path6024"
       inkscape:connector-curvature="0" />
    <path
       d="m 329.03406,20.001616 c -0.28029,-2.621159 -0.14015,-6.083325 -0.84086,-8.550293 -3.30742,-13.2459273 -16.66038,-25.663469 -30.7505,-25.663469 h -8.5488 c -1.52758,0 -8.80107,3.111743 -10.2866,4.00882 -12.85124,7.1205723 -17.94689,18.1966937 -17.94689,32.73498 0,16.366091 18.4402,31.645873 34.21205,31.645873 16.56227,0 35.94283,-16.713703 34.163,-34.168901"
       style="fill:#ffffff;fill-opacity:1;fill-rule:nonzero;stroke:none;stroke-width:49.44410324"
       id="path6026"
       inkscape:connector-curvature="0" />
    <path
       d="m 293.14167,84.086707 c 0,-16.218909 -14.48672,-34.168901 -31.6418,-34.168901 h -8.50676 c -1.52758,0 -8.80108,3.111743 -10.2866,3.952749 -12.85124,7.176633 -17.94689,18.245754 -17.94689,32.784041 0,16.565134 18.4416,31.647274 34.21205,31.647274 18.19354,0 34.163,-15.97222 34.163,-34.219363"
       style="fill:#ffffff;fill-opacity:1;fill-rule:nonzero;stroke:none;stroke-width:49.44410324"
       id="path6028"
       inkscape:connector-curvature="0" />
    <path
       d="m 679.6123,-9.9636343 c 0,-66.4581487 -55.86716,-128.2697157 -123.99556,-128.2697157 -80.29014,0 -132.49814,58.448923 -132.49814,136.8242086 0,69.2769394 68.17746,119.7152214 132.49814,119.7152214 68.03029,0 123.99556,-61.909687 123.99556,-128.2697143"
       style="fill:#ffffff;fill-opacity:1;fill-rule:nonzero;stroke:none;stroke-width:49.44410324"
       id="path6030"
       inkscape:connector-curvature="0" />
    <path
       d="m 567.58227,-145.89776 -327.44041,-188.99079 -30.80093,53.00759 269.34774,155.61521 c 24.81957,-13.84866 60.31675,-25.07055 88.8936,-19.63201"
       style="fill:#ffffff;fill-opacity:1;fill-rule:nonzero;stroke:none;stroke-width:49.44410324"
       id="path6032"
       inkscape:connector-curvature="0" />
    <path
       d="m 530.00674,163.64922 c 13.45387,9.29318 30.70284,13.94678 46.968,14.53829 h 290.70715 c 12.45883,3.11174 25.65904,-14.43877 25.65904,-25.66347 0,-13.65243 -11.87024,-25.66348 -25.65904,-25.66348 H 217.05307 c -2.5226,1.26152 -4.69483,2.36886 -6.86707,4.30318 l -0.84087,4.24711 v 0.84101 c 1.2613,2.52304 2.36845,4.6536 4.30244,6.82621 l 4.24637,0.84102 h 256.4937 c 22.59408,0 37.0808,8.60635 55.6205,19.67967"
       style="fill:#ffffff;fill-opacity:1;fill-rule:nonzero;stroke:none;stroke-width:49.44410324"
       id="path6034"
       inkscape:connector-curvature="0" />
    <path
       d="m 707.79254,-245.9319 c 1.48553,1.12131 4.00813,2.81742 5.1433,4.24713 1.68173,2.03242 3.40551,7.56906 3.40551,10.23228 0,2.13061 -0.70073,7.07855 -2.5226,8.55026 l -33.37119,58.15179 c 29.71342,28.03652 54.03688,61.0182 65.01299,100.92281 l 135.06978,78.672438 c 3.65776,1.780143 8.50676,6.531858 10.23054,10.232315 0.98101,1.934324 2.56464,11.423734 2.56464,13.694471 0,0.0995 -2.915,7.765337 -3.4055,9.391299 L 859.16811,101.22092 687.26559,2.0277938 C 694.23076,-51.031636 664.22725,-97.908231 622.30164,-127.13199 l 62.44275,-112.00036 c 2.7188,-4.94794 8.80107,-8.55026 14.53578,-8.55026 2.77486,0 5.78796,0.841 8.50676,1.72411"
       style="fill:#ffffff;fill-opacity:1;fill-rule:nonzero;stroke:none;stroke-width:49.44410324"
       id="path6036"
       inkscape:connector-curvature="0" />
    <path
       d="m 568.47218,-9.9636343 c 0,-6.8682607 -4.34447,-12.7132937 -10.5809,-15.3779027 l -3.95207,-1.724073 h -5.98417 l -3.46156,1.724073 c -0.98102,0.560674 -6.18038,3.560286 -6.82504,4.247111 -1.93399,2.130566 -3.40551,8.312001 -3.40551,11.1293917 l 0.84087,5.985194 c 0.70072,1.780143 6.08227,8.4521721 7.70794,9.4473694 l 5.98417,1.6820224 h 5.98417 c 0.84086,0 1.12115,-0.5606742 1.97603,-0.8410162 l 4.00813,-1.7240727 c 4.24637,-2.8173907 7.70794,-9.391299 7.70794,-14.5368868"
       style="fill:#782d00;fill-opacity:1;fill-rule:nonzero;stroke:none;stroke-width:49.44410324"
       id="path6038"
       inkscape:connector-curvature="0" />
    <path
       d="m 538.55976,-40.72084 v -71.00802 c -18.83541,1.78014 -34.80486,10.58274 -50.47721,20.522089 l 50.47721,50.485931"
       style="fill:#782d00;fill-opacity:1;fill-rule:nonzero;stroke:none;stroke-width:49.44410324"
       id="path6040"
       inkscape:connector-curvature="0" />
    <path
       d="m 564.16975,-40.72084 50.42956,-50.485931 c -14.58483,-10.190259 -32.48267,-18.988639 -50.42956,-20.522089 v 71.00802"
       style="fill:#782d00;fill-opacity:1;fill-rule:nonzero;stroke:none;stroke-width:49.44410324"
       id="path6042"
       inkscape:connector-curvature="0" />
    <path
       d="m 582.11664,-22.770838 h 70.99576 c -1.77984,-18.840069 -10.5809,-34.812286 -20.51715,-50.487341 l -50.47861,50.487341"
       style="fill:#782d00;fill-opacity:1;fill-rule:nonzero;stroke:none;stroke-width:49.44410324"
       id="path6044"
       inkscape:connector-curvature="0" />
    <path
       d="M 582.11664,2.8926302 632.59525,53.330911 C 642.78376,38.743564 651.57922,20.793562 653.1124,2.8926302 h -70.99576"
       style="fill:#782d00;fill-opacity:1;fill-rule:nonzero;stroke:none;stroke-width:49.44410324"
       id="path6046"
       inkscape:connector-curvature="0" />
    <path
       d="M 564.16975,20.842622 V 91.801584 C 583.00656,90.02145 598.97601,81.218856 614.59931,71.279503 L 564.16975,20.842622"
       style="fill:#782d00;fill-opacity:1;fill-rule:nonzero;stroke:none;stroke-width:49.44410324"
       id="path6048"
       inkscape:connector-curvature="0" />
    <path
       d="m 538.55976,20.842622 -50.47721,50.436881 c 14.58483,10.190255 32.53172,19.0377 50.47721,20.522081 V 20.842622"
       style="fill:#782d00;fill-opacity:1;fill-rule:nonzero;stroke:none;stroke-width:49.44410324"
       id="path6050"
       inkscape:connector-curvature="0" />
    <path
       d="m 520.56382,2.8926302 h -70.9453 c 1.77983,18.7910078 10.58089,34.7632258 20.51713,50.4382808 L 520.56382,2.8926302"
       style="fill:#782d00;fill-opacity:1;fill-rule:nonzero;stroke:none;stroke-width:49.44410324"
       id="path6052"
       inkscape:connector-curvature="0" />
    <path
       d="m 520.56382,-22.770838 -50.42817,-50.487341 c -10.23054,14.637807 -19.03441,32.537339 -20.51713,50.487341 h 70.9453"
       style="fill:#782d00;fill-opacity:1;fill-rule:nonzero;stroke:none;stroke-width:49.44410324"
       id="path6054"
       inkscape:connector-curvature="0" />
  </g>
</svg>
