<?xml version="1.0" encoding="UTF-8" standalone="no"?>
<!-- Created with Inkscape (http://www.inkscape.org/) -->

<svg
   xmlns:dc="http://purl.org/dc/elements/1.1/"
   xmlns:cc="http://creativecommons.org/ns#"
   xmlns:rdf="http://www.w3.org/1999/02/22-rdf-syntax-ns#"
   xmlns:svg="http://www.w3.org/2000/svg"
   xmlns="http://www.w3.org/2000/svg"
   xmlns:sodipodi="http://sodipodi.sourceforge.net/DTD/sodipodi-0.dtd"
   xmlns:inkscape="http://www.inkscape.org/namespaces/inkscape"
   width="978mm"
   height="602mm"
   viewBox="0 0 978 602.00001"
   version="1.1"
   id="svg8781"
   inkscape:version="0.92.2 (5c3e80d, 2017-08-06)"
   sodipodi:docname="22.svg">
  <defs
     id="defs8775">
    <pattern
       y="0"
       x="0"
       height="6"
       width="6"
       patternUnits="userSpaceOnUse"
       id="EMFhbasepattern" />
    <pattern
       y="0"
       x="0"
       height="6"
       width="6"
       patternUnits="userSpaceOnUse"
       id="EMFhbasepattern-3" />
    <pattern
       y="0"
       x="0"
       height="6"
       width="6"
       patternUnits="userSpaceOnUse"
       id="EMFhbasepattern-2" />
    <pattern
       y="0"
       x="0"
       height="6"
       width="6"
       patternUnits="userSpaceOnUse"
       id="EMFhbasepattern-33" />
    <pattern
       y="0"
       x="0"
       height="6"
       width="6"
       patternUnits="userSpaceOnUse"
       id="EMFhbasepattern-1" />
    <pattern
       y="0"
       x="0"
       height="6"
       width="6"
       patternUnits="userSpaceOnUse"
       id="EMFhbasepattern-4" />
    <pattern
       y="0"
       x="0"
       height="6"
       width="6"
       patternUnits="userSpaceOnUse"
       id="EMFhbasepattern-7" />
    <pattern
       y="0"
       x="0"
       height="6"
       width="6"
       patternUnits="userSpaceOnUse"
       id="EMFhbasepattern-71" />
    <pattern
       y="0"
       x="0"
       height="6"
       width="6"
       patternUnits="userSpaceOnUse"
       id="EMFhbasepattern-0" />
  </defs>
  <sodipodi:namedview
     id="base"
     pagecolor="#ffffff"
     bordercolor="#666666"
     borderopacity="1.0"
     inkscape:pageopacity="0.0"
     inkscape:pageshadow="2"
     inkscape:zoom="0.18958994"
     inkscape:cx="1257.1456"
     inkscape:cy="1472.9351"
     inkscape:document-units="mm"
     inkscape:current-layer="layer1"
     showgrid="false"
     showguides="true"
     inkscape:window-width="1920"
     inkscape:window-height="1057"
     inkscape:window-x="-8"
     inkscape:window-y="-8"
     inkscape:window-maximized="1"
     inkscape:snap-global="false"
     fit-margin-top="0"
     fit-margin-left="0"
     fit-margin-right="0"
     fit-margin-bottom="0" />
  <metadata
     id="metadata8778">
    <rdf:RDF>
      <cc:Work
         rdf:about="">
        <dc:format>image/svg+xml</dc:format>
        <dc:type
           rdf:resource="http://purl.org/dc/dcmitype/StillImage" />
        <dc:title></dc:title>
      </cc:Work>
    </rdf:RDF>
  </metadata>
  <g
     inkscape:label="Layer 1"
     inkscape:groupmode="layer"
     id="layer1"
     transform="translate(-84.340927,375.44855)">
    <path
       d="m 223.30195,214.60415 -90.8552,-45.4375 c -4.3649,-8.6365 -45.427597,-89.29177 -45.427597,-90.87497 v -112.7546 c 0,-39.2477 -6.1462,-187.843 5.0856,-222.102 24.656897,-75.1852 -4.9904,-111.2177 153.936797,-106.9484 34.2026,0.952 78.4785,3.3593 113.5445,0 17.8934,-1.7273 38.8558,-10.9351 56.4133,-10.9351 h 56.3643 c 12.1428,0 125.9702,14.7786 130.4316,20.1999 14.343,-17.3696 105.1016,-6.814 130.3827,-9.2621 17.8444,-1.7273 38.8558,-10.9351 56.4119,-10.9351 h 56.3657 c 17.8444,0 39.0951,9.167 57.2278,10.9351 58.763,5.6579 96.5635,0.544 135.46695,57.1926 7.1524,33.1071 22.6907,79.7918 22.6907,112.8022 0,17.8497 -9.2058,39.105 -10.9327,57.2416 -8.825,91.5944 16.501,193.8411 -11.7485,282.74937 -12.4284,52.1549 -36.2654,72.0189 -135.46695,79.0722 h -57.2278 c -17.5575,0 -38.5199,-9.1669 -56.3657,-10.935 -61.5926,-5.9435 -130.622,0 -192.696,0 l -6.7173,-3.3594 c -1.8221,4.2163 -55.2126,14.2985 -61.4486,14.2985 h -56.3656 c -17.5562,0 -38.5199,-9.1669 -56.3644,-10.935 -61.5451,-5.9436 -130.622,0 -192.696,0"
       style="fill:#782d00;fill-opacity:1;fill-rule:nonzero;stroke:none;stroke-width:47.97531128"
       id="path6315"
       inkscape:connector-curvature="0" />
    <path
       id="path840"
       d="m 426.68673,-26.125872 c 20.1768,-8.647001 34.58801,-34.588005 34.58801,-54.764802 0,-14.411229 -2.88687,-31.705236 -14.41121,-43.233676 -20.1768,-25.941 -54.7648,-43.235 -89.35145,-43.235 h -103.76402 -5.76013 c 0,0 -5.76013,5.76017 -5.76013,8.647 l -2.88687,2.88693 c 0,5.76007 2.88687,11.53383 5.76013,14.41257 l 11.53387,5.76007 5.76013,2.88693 c 0,0 0,8.647 0,8.647 0,37.469444 5.76013,239.23187 0,262.29009 l -5.76013,2.88687 -11.53387,5.76013 c -2.88688,2.88687 -5.76013,8.647 -5.76013,14.41122 l 2.88687,2.88687 c 0,2.88687 5.76013,8.647 5.76013,8.647 h 5.76013 138.35067 c 5.76013,0 8.647,0 14.41257,0 5.76014,0 11.53388,-2.88687 17.29401,-2.88687 28.82243,-14.41122 40.35222,-25.941 57.64622,-51.88201 5.76013,-8.647 8.647,-28.822434 8.647,-40.352218 V 66.10836 c 0,-8.647001 -2.88687,-20.176796 -5.76013,-28.823798 -11.53387,-25.941004 -31.70522,-48.999224 -57.64622,-63.410434 z"
       style="fill:#ffffff;fill-opacity:1;fill-rule:nonzero;stroke:none;stroke-width:36.02917099"
       inkscape:connector-curvature="0" />
    <path
       id="path842"
       d="m 688.97821,172.7538 h -5.76013 c -2.88687,0 -5.76012,-5.76013 -8.647,-8.647 v -2.88687 c 0,-5.76014 2.88688,-11.53389 5.76013,-14.41122 l 11.53387,-5.76013 2.88688,-2.88688 c 5.76012,-11.53387 2.88687,-233.4677 2.88687,-262.29014 v -2.88683 c -2.88687,-2.88693 -5.76013,-5.76017 -5.76013,-8.647 l -11.53387,-5.76018 c -2.88687,-2.88683 -5.76014,-8.647 -5.76014,-14.41256 v -2.88683 c 2.88687,-2.88693 5.76014,-8.64701 8.64701,-8.64701 h 5.76013 100.87986 c 34.58802,0 72.05881,17.29401 92.23423,43.23501 8.647,14.41117 14.41122,25.939611 14.41122,43.233634 0,23.059579 -17.294,43.235007 -37.46943,54.764802 5.76012,2.88687 8.647,5.760131 14.41121,8.647001 5.76013,5.760131 11.53388,8.6470014 17.294,14.4112093 11.53389,11.5338817 20.1768,25.9410047 25.94101,40.3522237 5.76013,11.533871 8.647,28.823797 8.647,40.352223 0,14.41121 -5.76012,28.823787 -11.53387,40.352217 -17.294,25.94101 -28.82379,37.47079 -57.64623,51.88201 -11.53387,0 -20.17678,5.76012 -28.82379,2.88687 z"
       style="fill:#ffffff;fill-opacity:1;fill-rule:nonzero;stroke:none;stroke-width:36.02917099"
       inkscape:connector-curvature="0" />
    <path
       id="path844"
       d="M 582.3314,94.930789 C 570.79753,92.043918 559.27319,83.396917 559.27319,71.872568 v -46.11779 h -46.11644 c -11.53388,0 -20.17679,-11.533882 -23.05822,-23.0582212 2.88687,-11.5338716 11.53388,-23.0582208 23.05822,-23.0582208 h 46.11644 v -46.116431 c 0,-2.886871 2.88687,-8.647002 5.76012,-11.533872 0,-2.88688 5.76013,-8.647031 11.53388,-8.647031 0,0 2.88687,-2.886831 5.76012,-2.886831 11.53388,2.886831 23.05822,11.533862 23.05822,23.05956 v 46.116441 h 46.1178 c 2.88687,0 11.53387,2.886871 11.53387,2.886871 2.88687,2.88687 8.647,8.6470011 8.647,11.5338713 2.88688,2.8868703 2.88688,5.76013121 2.88688,8.6470014 -2.88688,11.5338813 -8.64701,23.0582203 -23.05822,23.0582203 h -46.1178 v 46.117791 c 0,2.88688 -2.88687,8.647011 -2.88687,11.533881 -2.88688,2.886871 -8.647,8.647002 -11.53388,8.647002 -2.88687,0 -5.76012,2.88687 -8.647,2.88687 z"
       style="fill:#ffffff;fill-opacity:1;fill-rule:nonzero;stroke:none;stroke-width:36.02917099"
       inkscape:connector-curvature="0" />
    <path
       id="path846"
       d="m 348.86508,-121.24291 -2.88687,2.88693 c 0,0 0,2.88683 0,5.76007 v 51.882033 c 0,2.88687 2.88687,8.647001 5.76013,11.533871 h 2.88687 8.647 c 2.88687,0 8.647,-2.88687 11.53387,-5.760131 2.88688,-5.760131 8.647,-14.411209 8.647,-23.058211 0,-11.533891 -5.76012,-31.705232 -11.53387,-37.469402 -5.76013,-5.76017 -11.53387,-8.647 -17.294,-8.647 z"
       style="fill:#782d00;fill-opacity:1;fill-rule:nonzero;stroke:none;stroke-width:36.02917099"
       inkscape:connector-curvature="0" />
    <path
       id="path848"
       d="m 778.32965,-60.713877 c 2.88688,2.88687 5.76013,8.647001 8.64701,11.533871 h 2.88687 5.76013 c 2.88687,0 8.647,-2.88687 11.53387,-5.760131 2.88687,0 2.88687,-2.88687 5.76013,-5.760131 2.88687,-5.760121 2.88687,-14.411209 2.88687,-17.294003 0,-14.411209 -2.88687,-28.822379 -11.53387,-37.469389 -5.76013,-5.76017 -11.53388,-8.647 -17.294,-8.647 l -2.88688,2.88683 c 0,0 -2.88687,2.88683 -2.88687,2.88683 l -2.88687,5.76018 z"
       style="fill:#782d00;fill-opacity:1;fill-rule:nonzero;stroke:none;stroke-width:36.02917099"
       inkscape:connector-curvature="0" />
    <path
       id="path850"
       d="m 778.32965,109.34199 c 0,2.88688 2.88688,8.64701 2.88688,11.53389 l 8.647,5.76013 5.76013,2.88687 8.647,-2.88687 c 2.88687,0 5.76012,-2.88688 8.647,-2.88688 14.41121,-14.41258 25.93964,-31.706581 25.93964,-51.882008 0,-2.88687 -2.88687,-8.647001 -2.88687,-11.533871 -2.88687,-17.294003 -8.647,-34.588006 -20.17543,-46.116442 -2.88687,0 -2.88687,-2.88687 -5.76013,-5.760121 C 807.148,5.5698077 798.501,2.6965568 795.62366,2.6965568 c -2.88688,0 -5.76013,0 -8.647,2.8868702 h -2.88688 c -2.88687,0 -2.88687,2.88688 -2.88687,2.88688 l -2.88687,5.760121 v 95.115652 z"
       style="fill:#782d00;fill-opacity:1;fill-rule:evenodd;stroke:none;stroke-width:36.02917099"
       inkscape:connector-curvature="0" />
    <path
       id="path852"
       d="m 345.98229,14.226342 v 95.115648 5.76014 l 2.88687,5.76013 c 2.88687,2.88687 5.76014,5.76013 8.64701,5.76013 l 5.76013,2.88687 c 5.76013,0 11.53387,-2.88687 17.294,-5.76013 11.53387,-11.53388 23.05822,-31.706581 23.05822,-51.882008 0,-2.88687 0,-8.647001 0,-11.533871 -2.88688,-17.294003 -8.647,-34.588006 -23.05822,-46.116442 0,0 -2.88687,-2.88687 -5.76013,-5.760121 -2.88687,-2.8868803 -11.53387,-5.7601312 -14.41121,-5.7601312 -2.88688,0 -5.76013,0 -8.647,2.8868702 h -2.88688 c 0,0 -2.88687,2.88688 -2.88687,2.88688 0,0 0,2.88687 0,5.760121 v 95.115652 z"
       style="fill:#782d00;fill-opacity:1;fill-rule:evenodd;stroke:none;stroke-width:36.02917099"
       inkscape:connector-curvature="0" />
  </g>
</svg>
