<?xml version="1.0" encoding="UTF-8" standalone="no"?>
<!-- Created with Inkscape (http://www.inkscape.org/) -->

<svg
   xmlns:dc="http://purl.org/dc/elements/1.1/"
   xmlns:cc="http://creativecommons.org/ns#"
   xmlns:rdf="http://www.w3.org/1999/02/22-rdf-syntax-ns#"
   xmlns:svg="http://www.w3.org/2000/svg"
   xmlns="http://www.w3.org/2000/svg"
   xmlns:sodipodi="http://sodipodi.sourceforge.net/DTD/sodipodi-0.dtd"
   xmlns:inkscape="http://www.inkscape.org/namespaces/inkscape"
   width="602mm"
   height="602mm"
   viewBox="0 0 602 601.99999"
   version="1.1"
   id="svg8781"
   inkscape:version="0.92.2 (5c3e80d, 2017-08-06)"
   sodipodi:docname="11.svg">
  <defs
     id="defs8775">
    <pattern
       y="0"
       x="0"
       height="6"
       width="6"
       patternUnits="userSpaceOnUse"
       id="EMFhbasepattern" />
    <pattern
       y="0"
       x="0"
       height="6"
       width="6"
       patternUnits="userSpaceOnUse"
       id="EMFhbasepattern-2" />
    <pattern
       y="0"
       x="0"
       height="6"
       width="6"
       patternUnits="userSpaceOnUse"
       id="EMFhbasepattern-6" />
    <pattern
       y="0"
       x="0"
       height="6"
       width="6"
       patternUnits="userSpaceOnUse"
       id="EMFhbasepattern-8" />
    <pattern
       y="0"
       x="0"
       height="6"
       width="6"
       patternUnits="userSpaceOnUse"
       id="EMFhbasepattern-0" />
    <pattern
       y="0"
       x="0"
       height="6"
       width="6"
       patternUnits="userSpaceOnUse"
       id="EMFhbasepattern-7" />
    <pattern
       y="0"
       x="0"
       height="6"
       width="6"
       patternUnits="userSpaceOnUse"
       id="EMFhbasepattern-5" />
    <pattern
       y="0"
       x="0"
       height="6"
       width="6"
       patternUnits="userSpaceOnUse"
       id="EMFhbasepattern-82" />
    <pattern
       y="0"
       x="0"
       height="6"
       width="6"
       patternUnits="userSpaceOnUse"
       id="EMFhbasepattern-84" />
    <pattern
       y="0"
       x="0"
       height="6"
       width="6"
       patternUnits="userSpaceOnUse"
       id="EMFhbasepattern-86" />
    <pattern
       y="0"
       x="0"
       height="6"
       width="6"
       patternUnits="userSpaceOnUse"
       id="EMFhbasepattern-23" />
    <pattern
       y="0"
       x="0"
       height="6"
       width="6"
       patternUnits="userSpaceOnUse"
       id="EMFhbasepattern-06" />
    <pattern
       y="0"
       x="0"
       height="6"
       width="6"
       patternUnits="userSpaceOnUse"
       id="EMFhbasepattern-4" />
    <pattern
       y="0"
       x="0"
       height="6"
       width="6"
       patternUnits="userSpaceOnUse"
       id="EMFhbasepattern-25" />
  </defs>
  <sodipodi:namedview
     id="base"
     pagecolor="#ffffff"
     bordercolor="#666666"
     borderopacity="1.0"
     inkscape:pageopacity="0.0"
     inkscape:pageshadow="2"
     inkscape:zoom="0.2414452"
     inkscape:cx="839.12553"
     inkscape:cy="1609.854"
     inkscape:document-units="mm"
     inkscape:current-layer="layer1"
     showgrid="false"
     showguides="true"
     inkscape:window-width="1920"
     inkscape:window-height="1057"
     inkscape:window-x="-8"
     inkscape:window-y="-8"
     inkscape:window-maximized="1"
     inkscape:snap-global="false"
     inkscape:measure-start="0,0"
     inkscape:measure-end="0,0"
     fit-margin-top="0"
     fit-margin-left="0"
     fit-margin-right="0"
     fit-margin-bottom="0" />
  <metadata
     id="metadata8778">
    <rdf:RDF>
      <cc:Work
         rdf:about="">
        <dc:format>image/svg+xml</dc:format>
        <dc:type
           rdf:resource="http://purl.org/dc/dcmitype/StillImage" />
        <dc:title></dc:title>
      </cc:Work>
    </rdf:RDF>
  </metadata>
  <g
     inkscape:label="Layer 1"
     inkscape:groupmode="layer"
     id="layer1"
     transform="translate(-179.2,397.3)">
    <path
       d="m 197.40882,154.5619 c -1.3527,-9.4252 -16.1876,-104.2777 -16.1876,-105.8338 v -110.834 c 0,-38.5793 -4.35,-74.0929 6.5912,-107.767 11.4584,-35.1367 -21.8479,-121.7766 0,-151.8196 84.9634,-116.72832 153.6449,-53.7184 258.4906,-63.85886 38.7849,-3.77009 70.8804,-10.74876 110.7885,-10.74876 17.124,0 37.5687,9.05088 54.9725,10.74876 77.5711,-17.92128 118.64894,-11.36374 158.64994,44.4282 6.0873,32.82516 -3.5542,90.45936 -3.5542,122.67086 0,17.3572 -9.6415,38.5806 -11.4584,56.2666 -9.363,90.5997 43.1825,193.1328 17.2168,281.8475 -9.8272,98.0049 -123.98164,73.8109 -215.82134,73.8109 -17.1239,0 -54.5521,10.2273 -72.05,10.2273 -53.897,0 -92.8688,-20.9881 -145.1293,-20.9881 -10.0526,0 -34.2466,10.468 -44.0711,8.6364 -46.1771,0 -92.028,7.6872 -98.4376,-36.7878"
       style="fill:#782d00;fill-opacity:1;fill-rule:nonzero;stroke:none;stroke-width:46.97400665"
       id="path6282"
       inkscape:connector-curvature="0" />
    <path
       d="m 467.59986,-64.690869 c 28.4134,-20.380001 57.4052,-29.872089 91.75178,-34.160602 1.39475,-0.136581 2.80318,-0.546304 4.19794,-0.819456 7.42503,-0.273162 15.05107,-0.819463 22.52806,-0.819463 24.69814,0 52.77379,5.394786 75.88025,14.164384 17.12407,6.173271 34.2495,12.674335 50.89223,19.996215 13.79579,7.948773 23.34715,19.272366 23.34715,35.798165 0,4.725552 -0.95719,10.502758 -2.46134,14.983843 -8.68305,23.0309604 -13.35958,43.652701 -13.35958,68.321204 0,10.161326 7.8079,47.506909 14.18276,55.024099 0.13674,0.95603 1.64089,7.85316 1.64089,8.33119 v 9.15064 c 0,15.56293 -14.13353,29.34354 -28.60619,32.2335 -2.46134,0.54632 -5.49699,1.4887 -8.05404,1.09262 h -91.79964 c 36.03533,-2.40375 70.91246,-37.67882 70.91246,-74.151675 V 71.110233 c 0,-5.545018 -4.33469,-18.887212 -6.65928,-24.186394 -5.64739,-17.490029 -26.53047,-32.473882 -45.05476,-32.473882 -9.35308,0 -21.03211,2.212552 -28.36416,8.33119 0.82044,-4.479716 1.68192,-9.642328 1.68192,-14.1657464 0,-11.4178303 -6.1807,-23.6086766 -15.87016,-29.9690646 l -25.85633,5.777206 c 0.41022,0.956037 23.34714,8.0033955 23.34714,32.52168 0,5.053337 -1.09392,11.226617 -3.32281,15.851108 -7.384,-8.04438 -21.22492,-10.844201 -31.69242,-10.844201 -14.08569,0 -31.45178,13.589398 -35.89039,26.644782 -4.63552,7.894141 -5.83883,26.691211 -5.83883,35.845953 0,8.099013 2.50235,18.454276 5.83883,25.825326 13.26387,28.04196 37.24138,49.38619 70.09201,48.32635 h -96.76742 c -2.59808,0.40973 -5.5927,-0.68288 -8.10874,-1.09261 -14.71332,-2.9364 -28.60619,-17.44087 -28.60619,-33.05159 v -8.33119 c 0,-3.12762 4.73123,-13.11139 6.65928,-15.85248 6.18069,-13.779247 11.67767,-30.594584 11.67767,-45.820177 V 38.643185 c 0,-7.75757 -9.02489,-43.410952 -14.18276,-48.3741571 -1.83234,-3.6192859 -5.0184,-12.6197029 -5.0184,-16.6227739 v -9.205279 c 0,-10.502758 12.53914,-23.801249 20.88717,-29.149599"
       style="fill:#ffffff;fill-opacity:1;fill-rule:nonzero;stroke:none;stroke-width:48.21020508"
       id="path7158"
       inkscape:connector-curvature="0" />
    <path
       d="m 460.07501,-341.3 12.53914,15.85249 -120.1638,96.65136 h 17.51104 l 4.19794,0.81945 c 1.44946,1.36577 3.32281,4.62996 3.32281,6.6513 0,1.09262 -0.54696,2.99103 -0.82044,4.13828 l -2.50237,2.55399 -4.19794,0.81946 c 0.95719,19.41713 9.74963,34.98006 22.57593,49.14582 26.097,28.90786 43.51231,59.5994 42.49907,99.975622 V 141.09085 c 0,8.48142 -8.3959,18.30813 -17.51105,17.53784 H 249.84682 c -2.46134,-0.81946 -8.39589,-4.72556 -9.98208,-6.69227 l -2.50237,-4.95774 c -0.54696,-1.67989 -0.54696,-4.09731 -0.82044,-5.8728 V -64.677211 c -3.3228,-35.990729 18.08945,-74.584609 41.72648,-99.975619 13.94074,-13.15236 21.61054,-30.01686 22.52807,-49.14582 -2.11949,-0.0478 -5.26452,-1.77549 -6.65928,-3.37344 -0.27348,-1.09262 -0.82045,-2.99104 -0.82045,-4.13829 l 0.82045,-3.31881 3.3228,-3.31882 3.3228,-0.81946 h 20.01887 l 139.31437,-112.50385"
       style="fill:#ffffff;fill-opacity:1;fill-rule:nonzero;stroke:none;stroke-width:48.21020508"
       id="path7160"
       inkscape:connector-curvature="0" />
  </g>
</svg>
