<?xml version="1.0" encoding="UTF-8" standalone="no"?>
<!-- Created with Inkscape (http://www.inkscape.org/) -->

<svg
   xmlns:dc="http://purl.org/dc/elements/1.1/"
   xmlns:cc="http://creativecommons.org/ns#"
   xmlns:rdf="http://www.w3.org/1999/02/22-rdf-syntax-ns#"
   xmlns:svg="http://www.w3.org/2000/svg"
   xmlns="http://www.w3.org/2000/svg"
   xmlns:sodipodi="http://sodipodi.sourceforge.net/DTD/sodipodi-0.dtd"
   xmlns:inkscape="http://www.inkscape.org/namespaces/inkscape"
   width="602mm"
   height="602mm"
   viewBox="0 0 602 601.99999"
   version="1.1"
   id="svg8781"
   inkscape:version="0.92.2 (5c3e80d, 2017-08-06)"
   sodipodi:docname="11.svg">
  <defs
     id="defs8775">
    <pattern
       y="0"
       x="0"
       height="6"
       width="6"
       patternUnits="userSpaceOnUse"
       id="EMFhbasepattern" />
    <pattern
       y="0"
       x="0"
       height="6"
       width="6"
       patternUnits="userSpaceOnUse"
       id="EMFhbasepattern-2" />
    <pattern
       y="0"
       x="0"
       height="6"
       width="6"
       patternUnits="userSpaceOnUse"
       id="EMFhbasepattern-6" />
    <pattern
       y="0"
       x="0"
       height="6"
       width="6"
       patternUnits="userSpaceOnUse"
       id="EMFhbasepattern-8" />
    <pattern
       y="0"
       x="0"
       height="6"
       width="6"
       patternUnits="userSpaceOnUse"
       id="EMFhbasepattern-0" />
    <pattern
       y="0"
       x="0"
       height="6"
       width="6"
       patternUnits="userSpaceOnUse"
       id="EMFhbasepattern-7" />
    <pattern
       y="0"
       x="0"
       height="6"
       width="6"
       patternUnits="userSpaceOnUse"
       id="EMFhbasepattern-5" />
    <pattern
       y="0"
       x="0"
       height="6"
       width="6"
       patternUnits="userSpaceOnUse"
       id="EMFhbasepattern-82" />
    <pattern
       y="0"
       x="0"
       height="6"
       width="6"
       patternUnits="userSpaceOnUse"
       id="EMFhbasepattern-84" />
    <pattern
       y="0"
       x="0"
       height="6"
       width="6"
       patternUnits="userSpaceOnUse"
       id="EMFhbasepattern-86" />
    <pattern
       y="0"
       x="0"
       height="6"
       width="6"
       patternUnits="userSpaceOnUse"
       id="EMFhbasepattern-23" />
    <pattern
       y="0"
       x="0"
       height="6"
       width="6"
       patternUnits="userSpaceOnUse"
       id="EMFhbasepattern-06" />
    <pattern
       y="0"
       x="0"
       height="6"
       width="6"
       patternUnits="userSpaceOnUse"
       id="EMFhbasepattern-4" />
    <pattern
       y="0"
       x="0"
       height="6"
       width="6"
       patternUnits="userSpaceOnUse"
       id="EMFhbasepattern-25" />
    <pattern
       y="0"
       x="0"
       height="6"
       width="6"
       patternUnits="userSpaceOnUse"
       id="EMFhbasepattern-9" />
    <pattern
       y="0"
       x="0"
       height="6"
       width="6"
       patternUnits="userSpaceOnUse"
       id="EMFhbasepattern-52" />
  </defs>
  <sodipodi:namedview
     id="base"
     pagecolor="#ffffff"
     bordercolor="#666666"
     borderopacity="1.0"
     inkscape:pageopacity="0.0"
     inkscape:pageshadow="2"
     inkscape:zoom="0.2414452"
     inkscape:cx="973.1097"
     inkscape:cy="772.88617"
     inkscape:document-units="mm"
     inkscape:current-layer="layer1"
     showgrid="false"
     showguides="false"
     inkscape:window-width="1920"
     inkscape:window-height="1057"
     inkscape:window-x="-8"
     inkscape:window-y="-8"
     inkscape:window-maximized="1"
     inkscape:snap-global="false"
     inkscape:measure-start="0,0"
     inkscape:measure-end="0,0"
     fit-margin-top="0"
     fit-margin-left="0"
     fit-margin-right="0"
     fit-margin-bottom="0" />
  <metadata
     id="metadata8778">
    <rdf:RDF>
      <cc:Work
         rdf:about="">
        <dc:format>image/svg+xml</dc:format>
        <dc:type
           rdf:resource="http://purl.org/dc/dcmitype/StillImage" />
        <dc:title></dc:title>
      </cc:Work>
    </rdf:RDF>
  </metadata>
  <g
     inkscape:label="Layer 1"
     inkscape:groupmode="layer"
     id="layer1"
     transform="translate(-179.2,397.3)">
    <path
       d="m 197.40882,154.56186 c -1.3527,-9.4252 -16.1876,-104.2777 -16.1876,-105.8338 V -62.105943 c 0,-38.579297 -4.35,-74.092897 6.5912,-107.766997 11.4584,-35.1367 -21.8479,-121.7766 0,-151.8196 84.9634,-116.72832 153.6449,-53.7184 258.4906,-63.85886 38.7849,-3.77009 70.8804,-10.74876 110.7885,-10.74876 17.124,0 37.5687,9.05088 54.9725,10.74876 77.5711,-17.92128 118.649,-11.36374 158.65,44.4282 6.0873,32.82516 -3.5542,90.45936 -3.5542,122.67086 0,17.3572 -9.6415,38.5806 -11.4584,56.2666 -9.363,90.599697 43.1825,193.132797 17.2168,281.8475 -9.8272,98.00494 -123.9817,73.8109 -215.8214,73.8109 -17.1239,0 -54.5521,10.22734 -72.05,10.22734 -53.897,0 -92.8688,-20.98814 -145.1293,-20.98814 -10.0526,0 -34.2466,10.468 -44.0711,8.6364 -46.1771,0 -92.028,7.68724 -98.4376,-36.7878"
       style="fill:#782d00;fill-opacity:1;fill-rule:nonzero;stroke:none;stroke-width:46.97400665"
       id="path6282"
       inkscape:connector-curvature="0" />
    <path
       id="path843"
       d="m 335.08933,-278.80492 c 0,50.48513 11.23514,356.198406 -2.8121,384.24481 l -5.61093,2.80916 -14.03796,11.22333 c -5.61093,5.60503 -8.42303,8.41419 -8.42303,16.82837 0,11.22334 8.42303,22.43873 19.65287,19.63355 h 202.15153 c 14.03796,2.80915 28.07723,-2.80914 42.11518,-5.60504 36.49894,-14.02453 67.38296,-42.07094 87.03715,-75.727688 C 666.39718,54.969346 669.2,29.726785 669.2,7.2880644 c 0,-16.8270486 -2.81211,-33.6554264 -11.23514,-47.6799544 -16.84607,-39.265769 -47.73009,-75.72636 -87.03848,-95.35991 28.07723,-5.60505 56.15446,-50.4838 56.15446,-78.53153 0,-19.63354 -5.61093,-47.67996 -22.46232,-61.70316 C 576.54262,-315.25226 520.38949,-343.3 472.65939,-343.3 H 323.85287 c -11.23514,0 -19.65287,11.22333 -19.65287,22.4374 0,8.41418 2.81211,11.22333 8.42304,16.82836 l 14.03795,8.4142 5.61093,5.60504 c 0,0 2.81211,8.41418 2.81211,11.22334 z"
       style="fill:#ffffff;fill-opacity:1;fill-rule:nonzero;stroke:none;stroke-width:35.07754135"
       inkscape:connector-curvature="0" />
    <path
       id="path845"
       d="m 464.24167,-275.99975 c 2.8121,0 5.61094,0 8.42303,0 2.8121,0 2.8121,0 2.8121,0 h 5.61093 c 2.81211,2.80916 8.42305,5.60505 11.23514,8.41419 11.23514,14.02321 16.84608,39.26577 16.84608,56.09415 2.8121,11.22332 -5.61094,28.0464 -11.23514,36.46059 -2.8121,2.80915 -11.23514,8.41419 -14.03928,8.41419 h -8.42303 c -8.42304,0 -16.84607,-11.22334 -19.65287,-16.82838 v -78.53152 c 0,-2.80916 0,-5.60505 0,-5.60505 l 2.81211,-5.60504 z"
       style="fill:#782d00;fill-opacity:1;fill-rule:nonzero;stroke:none;stroke-width:35.07754135"
       inkscape:connector-curvature="0" />
    <path
       id="path847"
       d="m 506.35685,83.002502 c 19.65286,-16.828377 36.49893,-44.874786 36.49893,-72.922514 0,-5.6050408 0,-14.0232092 -2.81209,-19.6322254 -2.81211,-22.4387116 -14.03796,-47.6812816 -30.88403,-67.3134976 -8.42303,-8.414194 -22.46099,-14.02321 -33.69214,-14.02321 -2.8121,0 -5.61093,0 -8.42304,0 h -2.8121 c -2.8121,2.809152 -5.61093,5.605041 -8.42304,8.414193 v 2.809143 143.03987 c 0,8.414184 2.81211,14.024528 8.42304,19.633544 l 2.8121,2.809143 c 2.81211,0 2.81211,2.809152 5.61094,2.809152 l 8.42304,2.809142 c 2.81209,0 11.23513,-2.809142 16.84607,-2.809142 2.8121,-2.809152 5.61094,-5.605042 8.42303,-5.605042 z"
       style="fill:#782d00;fill-opacity:1;fill-rule:nonzero;stroke:none;stroke-width:35.07754135"
       inkscape:connector-curvature="0" />
  </g>
</svg>
