<?xml version="1.0" encoding="UTF-8" standalone="no"?>
<!-- Created with Inkscape (http://www.inkscape.org/) -->

<svg
   xmlns:dc="http://purl.org/dc/elements/1.1/"
   xmlns:cc="http://creativecommons.org/ns#"
   xmlns:rdf="http://www.w3.org/1999/02/22-rdf-syntax-ns#"
   xmlns:svg="http://www.w3.org/2000/svg"
   xmlns="http://www.w3.org/2000/svg"
   xmlns:sodipodi="http://sodipodi.sourceforge.net/DTD/sodipodi-0.dtd"
   xmlns:inkscape="http://www.inkscape.org/namespaces/inkscape"
   width="1017mm"
   height="602mm"
   viewBox="0 0 1017 602.00001"
   version="1.1"
   id="svg8781"
   inkscape:version="0.92.2 (5c3e80d, 2017-08-06)"
   sodipodi:docname="33.svg">
  <defs
     id="defs8775" />
  <sodipodi:namedview
     id="base"
     pagecolor="#ffffff"
     bordercolor="#666666"
     borderopacity="1.0"
     inkscape:pageopacity="0.0"
     inkscape:pageshadow="2"
     inkscape:zoom="0.18958994"
     inkscape:cx="2257.3736"
     inkscape:cy="909.96163"
     inkscape:document-units="mm"
     inkscape:current-layer="layer1"
     showgrid="false"
     showguides="true"
     inkscape:window-width="1920"
     inkscape:window-height="1057"
     inkscape:window-x="-8"
     inkscape:window-y="-8"
     inkscape:window-maximized="1"
     inkscape:snap-global="true"
     fit-margin-top="0"
     fit-margin-left="0"
     fit-margin-right="0"
     fit-margin-bottom="0" />
  <metadata
     id="metadata8778">
    <rdf:RDF>
      <cc:Work
         rdf:about="">
        <dc:format>image/svg+xml</dc:format>
        <dc:type
           rdf:resource="http://purl.org/dc/dcmitype/StillImage" />
        <dc:title></dc:title>
      </cc:Work>
    </rdf:RDF>
  </metadata>
  <g
     inkscape:label="Layer 1"
     inkscape:groupmode="layer"
     id="layer1"
     transform="translate(-84.340927,375.44855)">
    <path
       d="M 183.14854,224.73152 99.686712,198.24039 C 95.203895,189.20353 87.07271,97.959616 87.07271,96.313466 v -117.2924 c 0,-40.76059 -6.377797,-195.270966 5.345362,-230.893696 25.592878,-78.17797 -5.23227,-115.64487 160.038338,-111.20557 35.62049,0.9899 81.66593,3.4931 118.13348,0 18.5576,-1.7961 40.35921,-11.3704 58.61703,-11.3704 h 58.61845 c 12.67059,0 131.05436,15.4164 135.64321,21.004 14.91622,-18.061 109.30365,-7.1418 135.6432,-9.6308 18.55902,-1.7961 40.35922,-11.3703 58.61844,-11.3703 h 58.61705 c 18.55902,0 40.65902,9.5318 59.51643,11.3703 61.11155,5.8831 100.4229,0.5657 140.8811,59.46926 7.4383,34.42489 23.5961,82.91843 23.5961,117.2924 0,18.5602 -9.5312,40.6616 -11.3696,59.47069 -9.1352,95.290006 17.162,201.606666 -12.218,294.05408 -12.9252,54.23101 -19.2562,50.18918 -122.4225,57.52331 h -71.93813 c -18.25782,0 -87.90082,1.83849 -106.45983,0 -64.00488,-6.18013 -61.06207,0 -125.61562,0 l -52.78093,-15.01616 c -1.89493,4.38407 -39.56024,15.01616 -46.04544,15.01616 h -52.73144 c -18.30872,0 -50.4858,1.83849 -69.0434,0 -64.00629,-6.18013 -181.98986,0 -246.54338,0"
       style="fill:#782d00;fill-opacity:1;fill-rule:nonzero;stroke:none;stroke-width:49.8888855"
       id="path5934"
       inkscape:connector-curvature="0" />
    <path
       d="m 461.4637,-230.71325 c 1.89463,-0.42416 9.03486,-2.1491 10.67499,-1.79561 l 21.34714,-7.97426 c 3.43579,-1.13111 14.06836,-4.3406 17.75724,-3.5347 l 59.55652,-22.24591 c 13.87042,-6.23519 29.27915,-9.76988 44.44329,-9.76988 10.27909,0 21.34714,1.13111 31.1243,4.43957 2.54503,2.05011 12.0182,7.08352 15.11323,7.08352 h 7.97443 c 2.48847,0 16.01106,-4.18508 16.90889,-6.23519 4.99109,-2.09254 19.80175,-7.08352 24.89039,-7.08352 h 13.319 c 5.74045,0 12.66859,2.99742 18.70454,3.54882 17.25814,7.97426 37.11078,13.55907 56.01469,16.01073 l 21.29908,2.64394 2.99747,0.28278 5.9384,0.56555 c 0.28279,0.099 7.22506,4.04368 7.97443,4.48199 11.82026,7.53595 25.58744,11.52308 39.10439,14.21509 l 38.25886,4.43958 h 19.55148 c 12.86655,0.98971 24.99078,4.43956 37.31013,7.97425 l 17.80673,5.34446 4.43967,2.68636 c 0.84834,0.70693 2.79953,3.49226 3.53476,4.43956 l 4.43965,11.52309 c 0.8483,0.98971 3.6903,4.63751 4.4397,5.33031 l 4.482,2.68637 4.7367,1.79561 7.6775,3.5347 c 4.0437,2.48841 9.9821,8.22875 14.2167,11.52307 l 1.7957,3.59125 c -0.1413,0.84833 -1.1311,3.69022 -0.8484,4.43957 l -8.8792,13.3187 c -2.1492,2.38945 -5.2881,5.38686 -7.9745,7.14007 -9.5298,2.89844 -17.8576,2.64395 -27.58385,2.64395 -13.41797,0.98971 -29.18018,4.83546 -40.90146,11.56549 -8.72379,6.2352 -17.65685,9.78403 -28.43081,9.78403 -2.84195,0 -6.07979,-0.56555 -8.92174,-0.84833 -12.11717,-2.34703 -25.83771,-3.54883 -38.20796,-2.64395 -12.17373,2.68637 -25.73732,4.04369 -38.20797,3.54883 -13.12104,0.98971 -27.73234,4.18507 -40.00221,8.87915 l -17.80814,8.03081 c -2.74297,1.44215 -16.11003,6.984541 -18.65507,6.235193 l -20.44931,2.643939 c -1.89463,2.446008 -4.59519,5.443422 -6.23532,7.988395 -0.98973,1.739069 -1.85222,4.340598 -2.64401,6.2352 l -2.09257,2.997413 -4.14275,5.881715 c -1.89463,1.993568 -8.38445,7.026968 -10.67498,8.935696 -9.33178,9.727463 -18.45571,25.237676 -18.65507,39.103547 -2.34709,7.436988 -3.53476,16.2115031 -3.53476,23.9920582 0,4.5809502 2.44606,9.6284874 1.7391,14.2150948 0.28278,0.989721 2.68642,11.226171 2.68642,11.565509 v 10.674754 c 0,4.241622 -2.05016,13.969085 -4.43966,17.756858 -0.56557,12.272437 0.56556,24.290386 1.7391,36.461017 l 7.14023,40.002771 c 1.85221,6.37658 4.6376,15.71099 7.97442,21.3481 3.33682,5.64137 9.81153,12.03136 15.0557,15.96759 h 312.99997 v 17.8 H 150.34093 v -17.8 h 130.6 c 7.08366,-12.56936 11.90325,-56.96855 11.60632,-71.981074 V 77.761832 c -7.63508,12.074496 -28.48029,23.142308 -42.64621,23.142308 -29.47851,0 -60.45435,-20.798096 -60.45435,-53.369545 0,-15.462144 4.34064,-28.879813 14.21536,-40.9005807 -25.63694,-7.53596426 -53.31972,-36.8102533 -53.31972,-64.8912303 0,-35.115003 17.40795,-67.385294 53.31972,-77.312114 -20.24993,-10.77373 -35.56394,-40.75072 -35.56394,-63.14509 0,-39.50368 29.8292,-77.51147 71.12935,-79.10774 -1.41389,-39.55314 33.76831,-71.12639 72.02577,-71.12639 38.90501,0 69.68149,32.82025 70.23008,71.12639 41.30018,1.59768 71.12792,39.60406 71.12792,79.10774 0,22.39437 -15.36349,52.37136 -35.56396,63.14509 35.86372,9.9254 53.32121,42.197111 53.32121,77.312114 0,28.080977 -27.68285,57.35951501 -53.32121,64.8912303 9.82665,12.0179387 14.21541,25.4384367 14.21541,40.9005807 0,32.571449 -31.02532,53.369545 -60.45435,53.369545 -14.16592,0 -35.06486,-11.070632 -42.6957,-23.142308 v 16.908544 c -0.28278,15.012524 4.40222,59.411714 11.5283,71.981074 h 283.7 c 7.83304,-10.27887 12.91683,-24.3971 13.2703,-37.31569 l 3.53477,-21.34811 c 1.13112,-4.892 3.39337,-13.516636 6.23532,-17.756849 0.14139,-2.643948 -0.14139,-10.278869 -0.84834,-12.470378 l -3.53477,-6.235189 c -0.28278,-1.894592 -0.84834,-4.284043 -0.84834,-6.192781 0,-2.643939 0.28278,-7.281455 0.84834,-9.769872 0.70695,-2.799473 2.48848,-6.192781 3.53477,-8.935695 1.27251,-12.767298 -2.19156,-22.494752 -3.53477,-34.665393 l -7.97443,-18.6546701 c -1.4139,-2.7429154 -3.43578,-5.9806919 -4.48208,-8.8791389 -0.84834,-2.587393 -1.27251,-6.192771 -1.75324,-8.87914 -1.27251,-6.829016 -2.54503,-13.813563 -4.43966,-20.450295 -3.0399,-6.631073 -6.48983,-13.615612 -10.67499,-19.551064 l -10.67498,-16.909954 -12.47065,-22.245911 c -0.98973,-0.98972 -2.34708,-2.74292 -3.53476,-3.53469 l -5.33043,-2.64395 h -5.34456 c -1.9936,1.27248 -4.08618,2.58739 -6.23532,3.53468 l -4.43967,2.64396 -6.1929,0.84832 c -1.64013,0 -4.69417,-2.29048 -6.23532,-1.79562 -2.74298,-1.1311 -6.0798,-2.78533 -8.87933,-3.53469 -2.34708,-0.56555 -8.87932,-1.13109 -11.57989,-0.84833 -4.93453,0.28278 -15.96157,1.27249 -20.45072,3.59125 -4.43967,0.84832 -12.37167,2.24806 -16.90889,1.73907 -6.17877,0.84832 -12.51306,1.4987 -18.65508,2.68636 -6.07978,-15.16241 -19.65186,-30.22584 -33.76829,-38.25664 15.71272,-14.91356 23.99255,-42.74569 23.99255,-63.99342 0,-9.07707 -1.27251,-19.00389 -4.43966,-27.53238"
       style="fill:#ffffff;fill-opacity:1;fill-rule:evenodd;stroke:none;stroke-width:49.87890625"
       id="path5936"
       inkscape:connector-curvature="0"
       sodipodi:nodetypes="cccccscsscsscccccccccccccccccccccccccscccccccccccccscssccccccccccccsscscscscscscsscccccccccscccccccccccccccccccccccsc" />
    <path
       d="m 661.479,-84.020854 c 0.28278,-2.248056 0.84834,-4.934425 0.84834,-7.140071 0,-1.852171 -3.49234,-10.519235 -4.43966,-12.470385 l -1.79566,-5.33031 c 0.56556,-2.34703 3.0399,-8.87914 4.43966,-10.61819 l 4.43967,-3.59126 -1.73911,-2.64395 c -4.93452,1.13111 -11.82024,2.29049 -16.90889,1.75321 l -18.65507,-2.64394 h -9.77009 c -4.28413,0.56555 -9.03485,2.54498 -13.31898,3.54882 l 1.7391,3.59125 c 3.33682,-0.56555 8.58241,0.14138 11.57988,1.73907 3.29441,3.33674 6.88572,9.43054 7.08367,14.21652 1.27252,10.377847 9.03485,32.021444 17.80814,38.256633 1.9936,4.835458 4.04377,15.162407 3.5489,20.448887 2.24811,5.48583 6.5888,13.318703 10.67499,17.756858 -0.70695,-8.228757 -1.41391,-32.469655 -3.53477,-39.103557 0.70695,-5.344445 4.24172,-13.813553 7.97443,-17.756859"
       style="fill:#782d00;fill-opacity:1;fill-rule:nonzero;stroke:none;stroke-width:49.87890625"
       id="path5938"
       inkscape:connector-curvature="0" />
    <path
       d="m 702.38045,-84.020854 -16.90889,23.990638 c -1.44218,2.191509 -4.18516,5.782749 -5.34456,7.988394 -0.70695,1.442161 -1.27252,4.538541 -1.7391,6.2352 0.70695,-1.541126 -2.68643,-5.485842 -2.68643,-7.125934 v -6.235189 l 1.79566,-6.178643 c 0.42418,-2.389441 2.64401,-10.519232 2.64401,-11.565498 0,-2.19151 -0.56557,-4.892005 -0.84834,-7.083515 -0.84835,-1.413877 -3.59133,-7.776316 -3.59133,-8.935695 0,-1.894591 0.70695,-4.284042 0.84835,-6.178633 l 3.53476,-4.481991 c 2.29052,-4.49612 4.48208,-7.97426 4.48208,-13.3187 l -1.79566,-6.2352 v -2.64394 l 1.79566,-2.64395 2.64401,-0.84833 2.644,0.84833 c 2.54503,2.14909 7.33817,4.79303 10.67498,5.28789 1.85222,0.28278 4.34069,0 6.23532,0 5.28801,-2.14908 12.96552,-3.54882 18.65507,-3.54882 3.53477,0 10.22254,0.70693 13.36141,2.64394 l 5.34456,2.68637 -0.84835,3.53469 c -3.59131,1.1311 -8.18651,2.05012 -11.57988,3.54882 -4.14274,1.89461 -12.01819,7.67735 -16.01106,10.67477 -3.64788,3.690216 -9.03486,9.571931 -11.57989,14.266005 l -1.7391,5.344444"
       style="fill:#782d00;fill-opacity:1;fill-rule:evenodd;stroke:none;stroke-width:49.87890625"
       id="path5940"
       inkscape:connector-curvature="0" />
  </g>
</svg>
