<?xml version="1.0" encoding="UTF-8" standalone="no"?>
<!-- Created with Inkscape (http://www.inkscape.org/) -->

<svg
   xmlns:dc="http://purl.org/dc/elements/1.1/"
   xmlns:cc="http://creativecommons.org/ns#"
   xmlns:rdf="http://www.w3.org/1999/02/22-rdf-syntax-ns#"
   xmlns:svg="http://www.w3.org/2000/svg"
   xmlns="http://www.w3.org/2000/svg"
   xmlns:sodipodi="http://sodipodi.sourceforge.net/DTD/sodipodi-0.dtd"
   xmlns:inkscape="http://www.inkscape.org/namespaces/inkscape"
   width="978mm"
   height="602mm"
   viewBox="0 0 978 602.00001"
   version="1.1"
   id="svg8781"
   inkscape:version="0.92.2 (5c3e80d, 2017-08-06)"
   sodipodi:docname="22.svg">
  <defs
     id="defs8775">
    <pattern
       y="0"
       x="0"
       height="6"
       width="6"
       patternUnits="userSpaceOnUse"
       id="EMFhbasepattern" />
    <pattern
       y="0"
       x="0"
       height="6"
       width="6"
       patternUnits="userSpaceOnUse"
       id="EMFhbasepattern-3" />
    <pattern
       y="0"
       x="0"
       height="6"
       width="6"
       patternUnits="userSpaceOnUse"
       id="EMFhbasepattern-2" />
    <pattern
       y="0"
       x="0"
       height="6"
       width="6"
       patternUnits="userSpaceOnUse"
       id="EMFhbasepattern-33" />
    <pattern
       y="0"
       x="0"
       height="6"
       width="6"
       patternUnits="userSpaceOnUse"
       id="EMFhbasepattern-1" />
    <pattern
       y="0"
       x="0"
       height="6"
       width="6"
       patternUnits="userSpaceOnUse"
       id="EMFhbasepattern-4" />
    <pattern
       y="0"
       x="0"
       height="6"
       width="6"
       patternUnits="userSpaceOnUse"
       id="EMFhbasepattern-7" />
    <pattern
       y="0"
       x="0"
       height="6"
       width="6"
       patternUnits="userSpaceOnUse"
       id="EMFhbasepattern-71" />
  </defs>
  <sodipodi:namedview
     id="base"
     pagecolor="#ffffff"
     bordercolor="#666666"
     borderopacity="1.0"
     inkscape:pageopacity="0.0"
     inkscape:pageshadow="2"
     inkscape:zoom="0.26812066"
     inkscape:cx="1651.3583"
     inkscape:cy="1043.0518"
     inkscape:document-units="mm"
     inkscape:current-layer="layer1"
     showgrid="false"
     showguides="true"
     inkscape:window-width="1920"
     inkscape:window-height="1057"
     inkscape:window-x="-8"
     inkscape:window-y="-8"
     inkscape:window-maximized="1"
     inkscape:snap-global="false"
     fit-margin-top="0"
     fit-margin-left="0"
     fit-margin-right="0"
     fit-margin-bottom="0" />
  <metadata
     id="metadata8778">
    <rdf:RDF>
      <cc:Work
         rdf:about="">
        <dc:format>image/svg+xml</dc:format>
        <dc:type
           rdf:resource="http://purl.org/dc/dcmitype/StillImage" />
        <dc:title></dc:title>
      </cc:Work>
    </rdf:RDF>
  </metadata>
  <g
     inkscape:label="Layer 1"
     inkscape:groupmode="layer"
     id="layer1"
     transform="translate(-84.340927,375.44855)">
    <path
       d="m 223.30195,214.60415 -90.8552,-45.4375 c -4.3649,-8.6365 -45.427597,-89.29177 -45.427597,-90.87497 v -112.7546 c 0,-39.2477 -6.1462,-187.843 5.0856,-222.102 24.656897,-75.1852 -4.9904,-111.2177 153.936797,-106.9484 34.2026,0.952 78.4785,3.3593 113.5445,0 17.8934,-1.7273 38.8558,-10.9351 56.4133,-10.9351 h 56.3643 c 12.1428,0 125.9702,14.7786 130.4316,20.1999 14.343,-17.3696 105.1016,-6.814 130.3827,-9.2621 17.8444,-1.7273 38.8558,-10.9351 56.4119,-10.9351 h 56.3657 c 17.8444,0 39.0951,9.167 57.2278,10.9351 58.763,5.6579 96.5635,0.544 135.46695,57.1926 7.1524,33.1071 22.6907,79.7918 22.6907,112.8022 0,17.8497 -9.2058,39.105 -10.9327,57.2416 -8.825,91.5944 16.501,193.8411 -11.7485,282.74937 -12.4284,52.1549 -36.2654,72.0189 -135.46695,79.0722 h -57.2278 c -17.5575,0 -38.5199,-9.1669 -56.3657,-10.935 -61.5926,-5.9435 -130.622,0 -192.696,0 l -6.7173,-3.3594 c -1.8221,4.2163 -55.2126,14.2985 -61.4486,14.2985 h -56.3656 c -17.5562,0 -38.5199,-9.1669 -56.3644,-10.935 -61.5451,-5.9436 -130.622,0 -192.696,0"
       style="fill:#782d00;fill-opacity:1;fill-rule:nonzero;stroke:none;stroke-width:47.97531128"
       id="path6315"
       inkscape:connector-curvature="0" />
    <path
       id="path873"
       d="M 470.86248,-232.8542 H 453.2357 v -29.37731 c 0,-2.94244 0,-2.94244 0,-5.87101 2.93828,0 5.87518,-2.94245 8.81346,-2.94245 h 20.56465 c 5.87518,0 11.75175,-2.94245 11.75175,-8.81347 v -5.87102 c 0,0 0,-2.94245 0,-2.94245 -2.93828,-2.94246 -8.81346,-8.81347 -11.75175,-5.87102 h -29.37797 c 0,-11.75592 5.87518,-23.50351 11.75174,-32.31697 14.68892,-11.75592 26.4401,-14.68865 44.06703,-14.68865 29.37798,0 55.81808,32.31559 55.81808,61.69428 0,2.94243 0,20.56382 -2.93828,23.50211 -5.87518,-5.87102 -23.50238,-8.81347 -29.37797,-8.81347 -23.50239,0 -49.94263,11.75592 -61.69382,32.31559 z"
       style="fill:#ffffff;fill-opacity:1;fill-rule:nonzero;stroke:none;stroke-width:36.72276688"
       inkscape:connector-curvature="0" />
    <path
       id="path875"
       d="m 473.80021,-65.399703 h -94.00952 v -11.755911 l 49.94263,-79.321216 c 0,-2.94244 0,-2.94244 0,-5.87101 v -2.94246 l -2.93828,-2.94244 c -2.93829,0 -2.93829,0 -5.87518,0 v 0 l -82.25833,64.63116 h -38.19144 c -2.93828,11.755925 -5.87518,23.502127 -5.87518,32.315597 0,8.813459 2.93829,20.565215 5.87518,29.378686 8.81347,-8.813471 23.50238,-11.755922 38.19144,-14.690043 v 17.62694 c -55.81822,8.81347 -79.3206,64.632566 -79.3206,114.575089 0,58.755981 61.69381,96.946761 114.57417,96.946761 44.06703,0 88.13392,-41.12906 96.94738,-85.196403 h 17.62678 c -2.93827,14.688653 -11.75174,29.378693 -17.62678,44.067343 h 208.58368 c 26.44025,20.56522 47.00477,41.12906 82.25833,41.12906 52.88035,0 111.63644,-41.12906 111.63644,-99.885047 0,-52.88081 -38.19144,-114.5737 -96.94738,-114.5737 -55.81822,0 -111.63644,32.315583 -117.51204,94.008474 0,2.942451 0,8.813469 -2.93828,11.755921 -2.93829,14.688645 -20.56465,23.502114 -32.31584,23.502114 z"
       style="fill:#ffffff;fill-opacity:1;fill-rule:nonzero;stroke:none;stroke-width:36.72276688"
       inkscape:connector-curvature="0" />
    <path
       id="path877"
       d="m 661.81938,-171.15994 -35.25357,55.81772 -117.5119,-70.50635 -52.88049,91.071571 c -8.81345,14.688643 -23.50237,20.563827 -41.12916,20.563827 -2.93829,0 -8.81346,-2.942442 -11.75174,-2.942442 l 85.19619,-141.014106 c 8.81346,-14.69004 23.50238,-23.5035 41.12916,-23.5035 8.81347,0 17.62679,2.94245 26.44024,5.87101 z"
       style="fill:#ffffff;fill-opacity:1;fill-rule:nonzero;stroke:none;stroke-width:36.72276688"
       inkscape:connector-curvature="0" />
    <path
       id="path879"
       d="m 676.50844,-162.34646 49.94249,29.3773 c 8.81346,2.94244 20.56465,20.56522 20.56465,29.37869 v 11.755922 c 0,20.565216 -23.50239,38.192156 -44.06704,38.192156 H 570.7476 l 67.5694,67.569453 c 2.93828,11.755922 8.81346,11.755922 8.81346,26.440409 0,14.688644 -5.87518,23.502115 -14.68892,32.315584 L 514.92951,-50.704107 c -5.87518,-5.871018 -8.81346,-14.690042 -8.81346,-20.565225 0,-17.62694 14.68892,-32.315578 29.37797,-32.315578 h 105.7607 z"
       style="fill:#ffffff;fill-opacity:1;fill-rule:nonzero;stroke:none;stroke-width:36.72276688"
       inkscape:connector-curvature="0" />
    <path
       id="path881"
       d="m 382.72842,52.112284 c 2.93828,5.87102 5.87518,8.81347 5.87518,14.690033 0,2.942451 -5.87518,11.755921 -8.81346,14.688653 -2.93829,2.942452 -11.75174,5.871019 -14.68906,5.871019 -11.75174,0 -20.56451,-11.755911 -20.56451,-23.502113 0,-8.81347 8.81346,-17.626941 14.68891,-20.565226 l 23.50239,-44.06595201 c -5.87518,0 -8.81346,-2.94245139 -11.75175,-2.94245139 -35.25357,0 -73.44486,26.4404094 -73.44486,64.6311774 0,38.192146 29.37797,70.507736 67.56926,70.507736 38.19144,0 70.50728,-29.37868 70.50728,-67.56945 0,-17.626941 -14.68905,-47.004237 -32.31584,-55.8177073 z"
       style="fill:#782d00;fill-opacity:1;fill-rule:nonzero;stroke:none;stroke-width:36.72276688"
       inkscape:connector-curvature="0" />
    <path
       id="path883"
       d="m 767.58009,43.298814 c 0,0 2.93828,0 5.87518,2.942452 8.81345,2.942441 14.68905,11.755912 14.68905,20.565216 l -2.93828,2.942451 c 0,8.813471 -11.75175,17.62694 -20.56452,17.62694 -11.75174,0 -20.56465,-11.755922 -20.56465,-23.502123 0,0 0,-5.871018 0,-5.871018 L 717.63676,16.873677 c -14.68905,11.755922 -20.56465,32.315584 -20.56465,52.879422 0,41.129051 38.19144,61.694271 73.44501,61.694271 23.50238,0 47.00476,-17.62693 55.81822,-38.19077 5.87518,-11.755911 5.87518,-23.503501 5.87518,-35.253868 0,-29.378687 -32.3157,-61.6942806 -61.69368,-61.6942806 -8.81346,0 -23.50237,2.9424514 -29.37797,5.8710185 z"
       style="fill:#782d00;fill-opacity:1;fill-rule:nonzero;stroke:none;stroke-width:36.72276688"
       inkscape:connector-curvature="0" />
  </g>
</svg>
