<?xml version="1.0" encoding="UTF-8" standalone="no"?>
<!-- Created with Inkscape (http://www.inkscape.org/) -->

<svg
   xmlns:dc="http://purl.org/dc/elements/1.1/"
   xmlns:cc="http://creativecommons.org/ns#"
   xmlns:rdf="http://www.w3.org/1999/02/22-rdf-syntax-ns#"
   xmlns:svg="http://www.w3.org/2000/svg"
   xmlns="http://www.w3.org/2000/svg"
   xmlns:sodipodi="http://sodipodi.sourceforge.net/DTD/sodipodi-0.dtd"
   xmlns:inkscape="http://www.inkscape.org/namespaces/inkscape"
   width="978mm"
   height="602mm"
   viewBox="0 0 978 602.00001"
   version="1.1"
   id="svg8781"
   inkscape:version="0.92.2 (5c3e80d, 2017-08-06)"
   sodipodi:docname="22.svg">
  <defs
     id="defs8775">
    <pattern
       y="0"
       x="0"
       height="6"
       width="6"
       patternUnits="userSpaceOnUse"
       id="EMFhbasepattern" />
    <pattern
       y="0"
       x="0"
       height="6"
       width="6"
       patternUnits="userSpaceOnUse"
       id="EMFhbasepattern-3" />
    <pattern
       y="0"
       x="0"
       height="6"
       width="6"
       patternUnits="userSpaceOnUse"
       id="EMFhbasepattern-2" />
  </defs>
  <sodipodi:namedview
     id="base"
     pagecolor="#ffffff"
     bordercolor="#666666"
     borderopacity="1.0"
     inkscape:pageopacity="0.0"
     inkscape:pageshadow="2"
     inkscape:zoom="0.18958994"
     inkscape:cx="2569.3886"
     inkscape:cy="862.31737"
     inkscape:document-units="mm"
     inkscape:current-layer="layer1"
     showgrid="false"
     showguides="true"
     inkscape:window-width="1920"
     inkscape:window-height="1057"
     inkscape:window-x="-8"
     inkscape:window-y="-8"
     inkscape:window-maximized="1"
     inkscape:snap-global="true"
     fit-margin-top="0"
     fit-margin-left="0"
     fit-margin-right="0"
     fit-margin-bottom="0" />
  <metadata
     id="metadata8778">
    <rdf:RDF>
      <cc:Work
         rdf:about="">
        <dc:format>image/svg+xml</dc:format>
        <dc:type
           rdf:resource="http://purl.org/dc/dcmitype/StillImage" />
        <dc:title></dc:title>
      </cc:Work>
    </rdf:RDF>
  </metadata>
  <g
     inkscape:label="Layer 1"
     inkscape:groupmode="layer"
     id="layer1"
     transform="translate(-84.340927,375.44855)">
    <path
       d="m 223.30195,214.60415 -90.8552,-45.4375 c -4.3649,-8.6365 -45.427597,-89.2918 -45.427597,-90.875 v -112.7546 c 0,-39.2477 -6.1462,-187.843 5.0856,-222.102 24.656897,-75.1852 -4.9904,-111.2177 153.936797,-106.9484 34.2026,0.952 78.4785,3.3593 113.5445,0 17.8934,-1.7273 38.8558,-10.9351 56.4133,-10.9351 h 56.3643 c 12.1428,0 125.9702,14.7786 130.4316,20.1999 14.343,-17.3696 105.1016,-6.814 130.3827,-9.2621 17.8444,-1.7273 38.8558,-10.9351 56.4119,-10.9351 h 56.3657 c 17.8444,0 39.0951,9.167 57.2278,10.9351 58.763,5.6579 96.5635,0.544 135.46695,57.1926 7.1524,33.1071 22.6907,79.7918 22.6907,112.8022 0,17.8497 -9.2058,39.105 -10.9327,57.2416 -8.825,91.5944 16.501,193.8411 -11.7485,282.7494 -12.4284,52.1549 -36.2654,72.0189 -135.46695,79.0722 h -57.2278 c -17.5575,0 -38.5199,-9.1669 -56.3657,-10.935 -61.5926,-5.9435 -130.622,0 -192.696,0 l -6.7173,-3.3594 c -1.8221,4.2163 -55.2126,14.2985 -61.4486,14.2985 h -56.3656 c -17.5562,0 -38.5199,-9.1669 -56.3644,-10.935 -61.5451,-5.9436 -130.622,0 -192.696,0"
       style="fill:#782d00;fill-opacity:1;fill-rule:nonzero;stroke:none;stroke-width:47.97531128"
       id="path6315"
       inkscape:connector-curvature="0" />
    <path
       d="m 562.90659,-212.43985 c -19.19237,-31.06397 -30.04836,-67.45937 -34.21654,-103.46598 1.68981,-1.8958 3.39335,-4.46458 4.3138,-6.84117 l -0.82429,-4.3135 -2.56905,-3.39303 -2.28055,-1.09906 c -3.5857,-0.41207 -6.78671,0.54959 -8.81998,1.99191 l -2.56905,4.3135 v 4.25861 c 1.09906,1.74461 2.61028,3.77771 4.25886,5.13765 4.5611,38.0906 15.21789,75.93937 35.91322,108.60237 l 6.82792,-5.13773"
       style="fill:#ffffff;fill-opacity:1;fill-rule:nonzero;stroke:none;stroke-width:48.4637146"
       id="path6406"
       inkscape:connector-curvature="0" />
    <path
       style="fill:#ffffff;fill-opacity:1;fill-rule:nonzero;stroke:none;stroke-width:48.460289"
       d="m 287.77199,-332.24727 c -15.48663,0.13519 -34.28718,10.95495 -42.12507,24.00991 -4.40939,7.36592 -7.43126,18.70421 -7.70599,27.33115 l 1.70325,6.00325 c 17.63892,68.91236 40.22023,133.60871 73.55985,196.65672 9.15943,17.543727 20.01405,23.265447 36.7807,31.645092 14.10179,2.71997 27.33102,5.961909 41.86825,5.961909 5.66352,0 11.48774,-0.549486 17.10593,-0.82423 -36.1501,3.924697 -71.52542,15.167372 -102.58753,34.2139323 -11.24738,8.2381724 -17.97824,32.0349827 -17.97824,45.3600337 0,14.198706 8.48637,29.995045 17.97824,40.17428 -1.64837,2.170483 -5.13716,9.245203 -5.13716,11.965173 0,6.156986 2.81583,13.9596 7.70599,17.92965 1.35991,1.1539 5.67311,2.73341 7.41764,3.14555 2.14287,0.41209 4.80782,1.51125 7.12928,1.09913 -5.48083,2.22954 -10.27483,9.49664 -10.27483,15.3624 v 6.00271 c 0,0.89294 0.54951,1.16789 0.82424,1.99212 l 1.7446,3.96981 c 1.11265,1.70339 7.55513,7.02016 9.39581,7.70702 l 6.82697,0.82423 c 1.93683,0 6.68955,-0.78351 8.53023,-1.74511 13.52074,6.49354 28.05795,20.4026 34.21186,34.21393 84.41569,-16.71949 154.29397,-85.971324 179.58956,-166.756737 0.34341,32.22736 2.28016,66.684471 8.53022,98.377457 3.14976,5.52233 9.93548,9.39633 16.28169,9.39633 0.24048,0 0.50909,-0.0145 0.79325,-0.0377 0.28414,0.0232 0.55274,0.0377 0.79322,0.0377 6.34622,0 13.13193,-3.874 16.28169,-9.39633 6.25007,-31.692986 8.18685,-66.150097 8.53022,-98.377457 25.29562,80.785413 95.17388,150.037247 179.58956,166.756737 6.15392,-13.81133 20.69113,-27.72039 34.21187,-34.21393 1.84068,0.9616 6.59339,1.74511 8.53022,1.74511 l 6.82699,-0.82423 c 1.84068,-0.68686 8.28315,-6.00363 9.3958,-7.70702 l 1.74459,-3.96981 c 0.27474,-0.82423 0.82425,-1.09918 0.82425,-1.99212 v -6.00271 c 0,-5.86579 -4.79401,-13.13283 -10.27483,-15.3624 2.32146,0.41214 4.9864,-0.68704 7.12928,-1.09913 1.74453,-0.41214 6.05772,-1.99165 7.41765,-3.14555 4.89016,-3.97005 7.70599,-11.772664 7.70599,-17.92965 0,-2.71997 -3.4888,-9.79469 -5.13718,-11.965173 9.49188,-10.179235 17.97825,-25.975574 17.97825,-40.17428 0,-13.325051 -6.73086,-37.1218613 -17.97825,-45.3600337 -31.06211,-19.0465603 -66.43743,-30.2892353 -102.58753,-34.2139323 5.61819,0.274744 11.44241,0.82423 17.10595,0.82423 14.53721,0 27.76646,-3.241939 41.86825,-5.961909 16.76664,-8.379645 27.62125,-14.101365 36.78068,-31.645092 33.33961,-63.04801 55.92093,-127.74435 73.55985,-196.65672 l 1.70326,-6.00325 c -0.27472,-8.62694 -3.2966,-19.96523 -7.70599,-27.33115 -7.83789,-13.05496 -26.63844,-23.87471 -42.12508,-24.00991 -0.49956,-0.004 -0.99608,0.002 -1.48828,0.0207 -123.66744,12.06124 -201.3467,81.80302 -256.49288,188.12855 0.68684,-12.15737 -9.16217,-21.9532 -17.10592,-29.90152 1.59343,-2.22541 5.13768,-9.25878 5.13768,-12.01994 0,-11.00346 -8.47553,-23.89156 -20.54706,-23.89156 -0.54597,0 -1.10551,0.0305 -1.67225,0.0811 -0.56676,-0.0506 -1.1263,-0.0811 -1.67227,-0.0811 -12.07154,0 -20.54707,12.8881 -20.54707,23.89156 0,2.76116 3.54426,9.79453 5.13768,12.01994 -7.94374,7.94832 -17.79275,17.74415 -17.10592,29.90152 -55.14618,-106.32552 -132.82543,-176.0673 -256.49288,-188.12855 -0.49219,-0.0182 -0.98871,-0.025 -1.48828,-0.0207 z"
       id="path6410"
       inkscape:connector-curvature="0" />
    <path
       inkscape:connector-curvature="0"
       id="path861"
       style="fill:#ffffff;fill-opacity:1;fill-rule:nonzero;stroke:none;stroke-width:48.4637146"
       d="m 596.97507,-212.43985 c 19.19237,-31.06397 30.04836,-67.45937 34.21654,-103.46598 -1.68981,-1.8958 -3.39335,-4.46458 -4.3138,-6.84117 l 0.82429,-4.3135 2.56905,-3.39303 2.28055,-1.09906 c 3.5857,-0.41207 6.78671,0.54959 8.81998,1.99191 l 2.56905,4.3135 v 4.25861 c -1.09906,1.74461 -2.61028,3.77771 -4.25886,5.13765 -4.5611,38.0906 -15.21789,75.93937 -35.91322,108.60237 l -6.82792,-5.13773" />
  </g>
</svg>
