<?xml version="1.0" encoding="UTF-8" standalone="no"?>
<!-- Created with Inkscape (http://www.inkscape.org/) -->

<svg
   xmlns:dc="http://purl.org/dc/elements/1.1/"
   xmlns:cc="http://creativecommons.org/ns#"
   xmlns:rdf="http://www.w3.org/1999/02/22-rdf-syntax-ns#"
   xmlns:svg="http://www.w3.org/2000/svg"
   xmlns="http://www.w3.org/2000/svg"
   xmlns:sodipodi="http://sodipodi.sourceforge.net/DTD/sodipodi-0.dtd"
   xmlns:inkscape="http://www.inkscape.org/namespaces/inkscape"
   width="602mm"
   height="602mm"
   viewBox="0 0 602 601.99999"
   version="1.1"
   id="svg8781"
   inkscape:version="0.92.2 (5c3e80d, 2017-08-06)"
   sodipodi:docname="11.svg">
  <defs
     id="defs8775">
    <pattern
       y="0"
       x="0"
       height="6"
       width="6"
       patternUnits="userSpaceOnUse"
       id="EMFhbasepattern" />
    <pattern
       y="0"
       x="0"
       height="6"
       width="6"
       patternUnits="userSpaceOnUse"
       id="EMFhbasepattern-2" />
    <pattern
       y="0"
       x="0"
       height="6"
       width="6"
       patternUnits="userSpaceOnUse"
       id="EMFhbasepattern-6" />
    <pattern
       y="0"
       x="0"
       height="6"
       width="6"
       patternUnits="userSpaceOnUse"
       id="EMFhbasepattern-8" />
    <pattern
       y="0"
       x="0"
       height="6"
       width="6"
       patternUnits="userSpaceOnUse"
       id="EMFhbasepattern-0" />
    <pattern
       y="0"
       x="0"
       height="6"
       width="6"
       patternUnits="userSpaceOnUse"
       id="EMFhbasepattern-7" />
    <pattern
       y="0"
       x="0"
       height="6"
       width="6"
       patternUnits="userSpaceOnUse"
       id="EMFhbasepattern-5" />
    <pattern
       y="0"
       x="0"
       height="6"
       width="6"
       patternUnits="userSpaceOnUse"
       id="EMFhbasepattern-82" />
  </defs>
  <sodipodi:namedview
     id="base"
     pagecolor="#ffffff"
     bordercolor="#666666"
     borderopacity="1.0"
     inkscape:pageopacity="0.0"
     inkscape:pageshadow="2"
     inkscape:zoom="0.2414452"
     inkscape:cx="1386.7653"
     inkscape:cy="1226.6196"
     inkscape:document-units="mm"
     inkscape:current-layer="layer1"
     showgrid="false"
     showguides="true"
     inkscape:window-width="1920"
     inkscape:window-height="1057"
     inkscape:window-x="-8"
     inkscape:window-y="-8"
     inkscape:window-maximized="1"
     inkscape:snap-global="false"
     inkscape:measure-start="0,0"
     inkscape:measure-end="0,0"
     fit-margin-top="0"
     fit-margin-left="0"
     fit-margin-right="0"
     fit-margin-bottom="0" />
  <metadata
     id="metadata8778">
    <rdf:RDF>
      <cc:Work
         rdf:about="">
        <dc:format>image/svg+xml</dc:format>
        <dc:type
           rdf:resource="http://purl.org/dc/dcmitype/StillImage" />
        <dc:title></dc:title>
      </cc:Work>
    </rdf:RDF>
  </metadata>
  <g
     inkscape:label="Layer 1"
     inkscape:groupmode="layer"
     id="layer1"
     transform="translate(-179.2,397.3)">
    <path
       d="m 197.40882,154.5619 c -1.3527,-9.4252 -16.1876,-104.27771 -16.1876,-105.83381 V -62.10588 c 0,-38.57928 -4.35,-74.09289 6.5912,-107.76699 11.4584,-35.1367 -21.8479,-121.77655 0,-151.8196 84.9634,-116.72832 153.6449,-53.7184 258.4906,-63.85886 38.7849,-3.77009 70.88045,-10.74876 110.78855,-10.74876 17.124,0 37.5687,9.05088 54.9725,10.74876 77.57111,-17.92128 118.64891,-11.36374 158.64991,44.4282 6.0873,32.82516 -3.5542,90.45936 -3.5542,122.67086 0,17.3572 -9.6415,38.5806 -11.4584,56.2666 -9.363,90.59969 43.1825,193.13276 17.2168,281.84747 -9.8272,98.0049 -123.98161,73.8109 -215.82131,73.8109 -17.1239,0 -54.55215,10.2273 -72.05005,10.2273 -53.897,0 -92.8688,-20.9881 -145.1293,-20.9881 -10.0526,0 -34.2466,10.468 -44.0711,8.6364 -46.1771,0 -92.028,7.6872 -98.4376,-36.7878"
       style="fill:#782d00;fill-opacity:1;fill-rule:nonzero;stroke:none;stroke-width:46.97400665"
       id="path6282"
       inkscape:connector-curvature="0" />
    <path
       id="path841"
       d="m 594.01819,-113.55726 -11.49902,17.14301 -51.72526,34.28593 43.10438,82.85731 43.10439,-71.42953 77.58789,-31.42836 -14.36904,45.7151 L 726.2,129.29942 v 8.5715 c 0,2.86166 -5.74272,8.57142 -11.49903,8.57142 -8.62088,0 -14.36768,0 -17.24175,-11.43308 L 642.86123,-16.42 596.88278,57.865797 v 11.433168 l 34.48351,65.714295 -14.36768,8.5715 -20.11583,-39.99987 -2.87816,28.5708 c 0,5.70974 -2.87815,11.43317 -8.62088,14.28534 h -2.87815 -5.74272 -5.74273 c -5.74272,-2.86166 -8.62087,-8.5715 -8.62087,-14.28534 l 2.87815,-85.713578 -2.87815,-8.571507 -45.97847,-91.428715 c -2.87815,2.86166 -14.36767,5.70975 -17.24175,5.70975 h -5.74273 c -2.87815,0 -2.87815,0 -2.87815,0 -5.74272,-2.86166 -11.49902,-5.70975 -17.24175,-11.43317 l 86.20877,-62.85803 31.60943,-74.28579 c 5.74273,-14.28535 14.36768,-17.14291 28.73671,-17.14291 8.62087,0 20.11447,8.5714 22.98855,17.14291 l 43.10438,102.85789 -71.84109,28.57079 z"
       style="fill:#ffffff;fill-opacity:1;fill-rule:nonzero;stroke:none;stroke-width:35.81728363"
       inkscape:connector-curvature="0" />
    <path
       id="path843"
       d="m 418.72794,-39.27146 63.21886,174.28611 c 2.87815,8.57141 8.62088,14.28535 17.24175,14.28535 11.49903,0 17.24175,-14.28535 17.24175,-22.85685 l -54.59797,-188.57147 14.36768,-51.42894 -86.20742,37.1436 -48.85254,79.99963 -48.85118,-97.14265 60.34614,-37.1435 11.49902,-19.99928 22.98855,57.14278 80.46062,-34.28593 -48.85119,-117.14323 c -2.87815,-11.43318 -17.24175,-19.99929 -28.73535,-19.99929 -14.36903,0 -25.86263,5.70985 -31.61079,19.99929 L 323.90372,-159.27097 226.2,-87.84274 c 8.62087,8.57151 14.36903,14.28535 25.86263,14.28535 8.62088,0 17.24175,-2.86166 20.11584,-8.57151 l 54.59798,105.71416 5.74272,8.57151 -5.74272,97.14265 c -2.87815,11.43316 8.62087,20.00058 20.11583,20.00058 2.87815,0 8.62088,-2.86166 11.49903,-5.70984 2.87815,-2.86166 5.74272,-11.43318 5.74272,-14.28675 V 97.875049 l 22.98855,45.715111 20.11448,-11.43318 -40.23031,-74.285792 V 43.585842 Z"
       style="fill:#ffffff;fill-opacity:1;fill-rule:nonzero;stroke:none;stroke-width:35.81728363"
       inkscape:connector-curvature="0" />
    <path
       id="path845"
       d="m 628.5017,-253.55735 c 0,-14.28535 -11.49902,-28.5707 -25.86262,-34.28593 h -5.74273 -8.62088 c -17.24039,0 -34.48214,17.14292 -34.48214,34.28593 0,20.00059 17.24175,37.1436 37.35622,37.1436 20.11583,0 37.35758,-17.14301 37.35758,-37.1436 z"
       style="fill:#ffffff;fill-opacity:1;fill-rule:nonzero;stroke:none;stroke-width:35.81728363"
       inkscape:connector-curvature="0" />
    <path
       id="path847"
       d="m 401.48619,-310.70013 c 0,-22.85685 -17.24176,-39.99987 -40.23031,-39.99987 -22.98855,0 -43.10438,17.14302 -43.10438,39.99987 v 8.5715 l 2.87815,5.70975 c 5.74272,14.28675 20.11447,28.57209 37.35622,28.57209 22.98992,0 43.10439,-17.14292 43.10439,-42.85744 z"
       style="fill:#ffffff;fill-opacity:1;fill-rule:nonzero;stroke:none;stroke-width:35.81728363"
       inkscape:connector-curvature="0" />
    <path
       id="path849"
       d="m 493.44175,-173.55771 c 0,0 0,2.86166 0,5.70985 0,0 0,5.70984 -2.87815,8.5715 0,0 -5.74272,2.86166 -5.74272,2.86166 l -2.87815,2.86166 c -5.74272,0 -14.36768,-2.86166 -14.36768,-8.5715 l -45.97711,-105.71416 -2.87815,-5.70975 c 0,0 2.87815,-2.86166 2.87815,-5.70984 2.87815,-2.86166 5.74273,-5.70985 8.62088,-8.57151 h 8.62088 c 2.87815,0 8.62088,5.70985 8.62088,8.57151 z"
       style="fill:#ffffff;fill-opacity:1;fill-rule:nonzero;stroke:none;stroke-width:35.81728363"
       inkscape:connector-curvature="0" />
    <path
       id="path851"
       d="m 708.96232,-133.55644 c 0,0 0,2.86166 0,5.70974 v 2.86166 l -5.74273,5.70985 c 0,0 -5.74272,2.86165 -8.62087,2.86165 0,0 -5.74274,-2.86165 -8.62089,-5.70974 l -2.87815,-2.86176 -40.2303,-97.14395 c -2.87815,-2.86166 -2.87815,-2.86166 -2.87815,-5.70985 l 2.87815,-5.70984 2.87816,-2.86166 c 2.87815,-2.86166 5.74272,-2.86166 8.62087,-2.86166 0,0 2.87815,0 5.74272,0 0,2.86166 2.87815,5.70984 5.74273,5.70984 z"
       style="fill:#ffffff;fill-opacity:1;fill-rule:nonzero;stroke:none;stroke-width:35.81728363"
       inkscape:connector-curvature="0" />
  </g>
</svg>
