<?xml version="1.0" encoding="UTF-8" standalone="no"?>
<!-- Created with Inkscape (http://www.inkscape.org/) -->

<svg
   xmlns:dc="http://purl.org/dc/elements/1.1/"
   xmlns:cc="http://creativecommons.org/ns#"
   xmlns:rdf="http://www.w3.org/1999/02/22-rdf-syntax-ns#"
   xmlns:svg="http://www.w3.org/2000/svg"
   xmlns="http://www.w3.org/2000/svg"
   xmlns:sodipodi="http://sodipodi.sourceforge.net/DTD/sodipodi-0.dtd"
   xmlns:inkscape="http://www.inkscape.org/namespaces/inkscape"
   width="600mm"
   height="600mm"
   viewBox="0 0 600 600"
   version="1.1"
   id="svg850"
   inkscape:version="0.92.2 (5c3e80d, 2017-08-06)"
   sodipodi:docname="22.svg">
  <defs
     id="defs844" />
  <sodipodi:namedview
     id="base"
     pagecolor="#ffffff"
     bordercolor="#666666"
     borderopacity="1.0"
     inkscape:pageopacity="0.0"
     inkscape:pageshadow="2"
     inkscape:zoom="0.175"
     inkscape:cx="593.10117"
     inkscape:cy="653.04453"
     inkscape:document-units="mm"
     inkscape:current-layer="layer1"
     showgrid="false"
     fit-margin-top="0"
     fit-margin-left="0"
     fit-margin-right="0"
     fit-margin-bottom="0"
     inkscape:window-width="1920"
     inkscape:window-height="1057"
     inkscape:window-x="-8"
     inkscape:window-y="-8"
     inkscape:window-maximized="1" />
  <metadata
     id="metadata847">
    <rdf:RDF>
      <cc:Work
         rdf:about="">
        <dc:format>image/svg+xml</dc:format>
        <dc:type
           rdf:resource="http://purl.org/dc/dcmitype/StillImage" />
        <dc:title></dc:title>
      </cc:Work>
    </rdf:RDF>
  </metadata>
  <g
     inkscape:label="Layer 1"
     inkscape:groupmode="layer"
     id="layer1"
     transform="translate(0,303)">
    <rect
       style="opacity:1;fill:#782d00;fill-opacity:1;fill-rule:nonzero;stroke:none;stroke-width:0.23553619;stroke-linecap:butt;stroke-linejoin:miter;stroke-miterlimit:4;stroke-dasharray:none;stroke-opacity:1;paint-order:stroke fill markers"
       id="rect1395"
       width="600"
       height="600"
       x="0"
       y="-303" />
    <rect
       y="-303"
       x="0"
       height="600"
       width="600"
       id="rect1397"
       style="opacity:1;fill:#ffffff;fill-opacity:1;fill-rule:nonzero;stroke:none;stroke-width:0.23553619;stroke-linecap:butt;stroke-linejoin:miter;stroke-miterlimit:4;stroke-dasharray:none;stroke-opacity:1;paint-order:stroke fill markers"
       rx="60"
       ry="60" />
    <rect
       y="-283"
       x="20"
       height="560"
       width="560"
       id="rect1399"
       style="opacity:1;fill:#782d00;fill-opacity:1;fill-rule:nonzero;stroke:none;stroke-width:0.21983378;stroke-linecap:butt;stroke-linejoin:miter;stroke-miterlimit:4;stroke-dasharray:none;stroke-opacity:1;paint-order:stroke fill markers"
       rx="40"
       ry="40" />
    <path
       d="m 194.98292,-78.924574 -0.95415,-2.974783 -3.02146,-0.954468 -2.97374,0.954468 -0.95414,2.974783 v 3.022513 l 3.02145,0.954477 h 2.97374 l 1.956,-3.022512 v -0.954478"
       style="fill:#ffffff;fill-opacity:1;fill-rule:nonzero;stroke:none;stroke-width:56.10987091"
       id="path1744"
       inkscape:connector-curvature="0" />
    <path
       d="m 192.00916,-35.880893 c -1.27219,-1.590796 -3.25999,-3.086144 -4.99335,-4.040611 l -3.02145,0.954467 -0.95414,3.022513 0.95414,2.974783 6.05881,0.954477 1.9719,-3.992892"
       style="fill:#ffffff;fill-opacity:1;fill-rule:nonzero;stroke:none;stroke-width:56.10987091"
       id="path1746"
       inkscape:connector-curvature="0" />
    <path
       d="m 188.02561,8.1172561 -0.95414,-3.0225023 -3.02145,-0.9544775 h -2.97375 l -2.0196,3.0225022 0.95414,2.9747835 3.02145,2.020316 2.97375,-0.954478 2.0196,-2.9747832"
       style="fill:#ffffff;fill-opacity:1;fill-rule:nonzero;stroke:none;stroke-width:56.10987091"
       id="path1748"
       inkscape:connector-curvature="0" />
    <path
       d="m 183.98641,51.105257 -0.95415,-2.974784 -3.02145,-0.954477 -3.02145,0.954477 -1.956,2.974784 0.95414,3.022512 2.97375,0.954468 h 3.02146 l 1.95599,-3.022503 v -0.954477"
       style="fill:#ffffff;fill-opacity:1;fill-rule:nonzero;stroke:none;stroke-width:56.10987091"
       id="path1750"
       inkscape:connector-curvature="0" />
    <path
       d="m 234.02806,51.105257 -0.95415,-2.974784 -3.02145,-0.954477 -2.97374,0.954477 -2.01961,2.974784 0.95414,3.022512 3.02145,0.954468 h 2.97376 l 2.0196,-3.022503 v -0.954477"
       style="fill:#ffffff;fill-opacity:1;fill-rule:nonzero;stroke:none;stroke-width:56.10987091"
       id="path1752"
       inkscape:connector-curvature="0" />
    <path
       d="m 234.02806,8.1172561 -0.95415,-3.0225023 -3.02145,-0.9544775 h -2.97374 l -2.01961,3.0225022 0.95414,2.9747835 3.02145,2.020316 2.97376,-0.954478 2.0196,-2.9747832"
       style="fill:#ffffff;fill-opacity:1;fill-rule:nonzero;stroke:none;stroke-width:56.10987091"
       id="path1754"
       inkscape:connector-curvature="0" />
    <path
       d="m 234.02806,-35.880893 -4.0392,-4.040611 -2.97375,0.954467 -2.01961,3.022513 0.95415,2.974783 3.02145,2.020306 2.97374,-0.954478 2.01961,-3.992893"
       style="fill:#ffffff;fill-opacity:1;fill-rule:nonzero;stroke:none;stroke-width:56.10987091"
       id="path1756"
       inkscape:connector-curvature="0" />
    <path
       d="m 234.02806,-78.924574 -0.95415,-2.974783 -3.02145,-0.954468 -2.97374,0.954468 -2.01961,2.974783 0.95414,3.022513 3.02145,0.954477 h 2.97376 l 2.0196,-3.022512 v -0.954478"
       style="fill:#ffffff;fill-opacity:1;fill-rule:nonzero;stroke:none;stroke-width:56.10987091"
       id="path1758"
       inkscape:connector-curvature="0" />
    <path
       d="m 273.01755,-78.924574 -0.95415,-2.974783 -3.02145,-0.954468 -2.97375,0.954468 -2.0196,2.974783 0.95414,3.022513 3.02146,0.954477 h 2.97375 l 2.0196,-3.022512 v -0.954478"
       style="fill:#ffffff;fill-opacity:1;fill-rule:nonzero;stroke:none;stroke-width:56.10987091"
       id="path1760"
       inkscape:connector-curvature="0" />
    <path
       d="m 277.0011,-35.880893 -3.9756,-4.040611 -3.02145,0.954467 -1.9719,3.022513 0.95414,2.974783 3.02146,2.020306 2.97375,-0.954478 2.0196,-3.992893"
       style="fill:#ffffff;fill-opacity:1;fill-rule:nonzero;stroke:none;stroke-width:56.10987091"
       id="path1762"
       inkscape:connector-curvature="0" />
    <path
       d="m 280.98465,8.1172561 -1.956,-3.0225023 -3.02145,-0.9544775 h -2.97374 l -0.95416,3.0225022 0.95416,2.9747835 5.99519,0.954477 c 0.31805,-0.954477 1.11317,-2.4179994 1.956,-2.9747829"
       style="fill:#ffffff;fill-opacity:1;fill-rule:nonzero;stroke:none;stroke-width:56.10987091"
       id="path1764"
       inkscape:connector-curvature="0" />
    <path
       d="m 284.01406,51.105257 -0.95415,-2.974784 -2.97375,-0.954477 -3.02145,0.954477 -0.95414,2.974784 0.95414,3.022512 4.99335,0.954468 2.01961,-3.022503 v -0.954477"
       style="fill:#ffffff;fill-opacity:1;fill-rule:nonzero;stroke:none;stroke-width:56.10987091"
       id="path1766"
       inkscape:connector-curvature="0" />
    <path
       d="m 178.99464,95.103406 -0.95414,-2.974774 -3.02145,-0.954477 c -1.11317,0.795398 -2.57619,2.640711 -2.97375,3.992882 l 1.95599,3.022513 h 2.97376 l 2.01959,-3.022513"
       style="fill:#ffffff;fill-opacity:1;fill-rule:nonzero;stroke:none;stroke-width:56.10987091"
       id="path1768"
       inkscape:connector-curvature="0" />
    <path
       d="m 233.01826,95.103406 -0.95415,-2.974774 -2.97374,-0.954477 c -1.11317,0.795398 -2.6398,2.640711 -3.02146,3.992882 l 2.01961,3.022513 h 2.97375 l 2.0196,-3.022513"
       style="fill:#ffffff;fill-opacity:1;fill-rule:nonzero;stroke:none;stroke-width:56.10987091"
       id="path1770"
       inkscape:connector-curvature="0" />
    <path
       d="m 286.98621,95.103406 -0.95414,-2.974774 -2.97375,-0.954477 -2.0196,3.992882 0.95414,3.022513 h 2.97375 l 2.0196,-3.022513"
       style="fill:#ffffff;fill-opacity:1;fill-rule:nonzero;stroke:none;stroke-width:56.10987091"
       id="path1772"
       inkscape:connector-curvature="0" />
    <path
       d="m 175.01109,138.14709 c -2.52847,-2.41801 -3.41901,-2.75208 -3.97559,-3.02251 l -0.95414,5.04281 3.97559,-0.95448 0.95414,-0.95446"
       style="fill:#ffffff;fill-opacity:1;fill-rule:nonzero;stroke:none;stroke-width:56.10987091"
       id="path1774"
       inkscape:connector-curvature="0" />
    <path
       d="m 232.00846,138.14709 -2.97376,-3.02251 -0.95414,5.04281 3.99151,-0.95448 v -0.95446"
       style="fill:#ffffff;fill-opacity:1;fill-rule:nonzero;stroke:none;stroke-width:56.10987091"
       id="path1776"
       inkscape:connector-curvature="0" />
    <path
       d="m 290.01562,138.14709 -3.03736,-3.02251 -0.95414,5.04281 4.03921,-0.95448 v -0.95446"
       style="fill:#ffffff;fill-opacity:1;fill-rule:nonzero;stroke:none;stroke-width:56.10987091"
       id="path1778"
       inkscape:connector-curvature="0" />
    <path
       d="m 170.01774,181.1335 -3.02145,-0.95448 0.95414,3.0225 2.0196,-2.0203"
       style="fill:#ffffff;fill-opacity:1;fill-rule:evenodd;stroke:none;stroke-width:56.10987091"
       id="path1780"
       inkscape:connector-curvature="0" />
    <path
       d="m 230.99866,181.1335 -2.97376,-0.95448 1.9719,3.0225 0.95414,-2.0203"
       style="fill:#ffffff;fill-opacity:1;fill-rule:evenodd;stroke:none;stroke-width:56.10987091"
       id="path1782"
       inkscape:connector-curvature="0" />
    <path
       d="m 292.98937,181.1335 -2.97375,-0.95448 1.95599,3.0225 0.95415,-2.0203"
       style="fill:#ffffff;fill-opacity:1;fill-rule:evenodd;stroke:none;stroke-width:56.10987091"
       id="path1784"
       inkscape:connector-curvature="0" />
    <path
       d="m 207.99744,-177.9753 -0.95416,-3.99288 -2.97374,-1.95669 h -3.97559 l -4.03921,1.95669 -0.95415,3.99288 0.95415,4.04062 c 1.62203,1.59079 4.81842,2.79979 7.01295,2.97479 l 3.02145,-1.95669 1.9719,-4.04061 v -0.95448"
       style="fill:#ffffff;fill-opacity:1;fill-rule:nonzero;stroke:none;stroke-width:56.10987091"
       id="path1786"
       inkscape:connector-curvature="0" />
    <path
       d="m 235.99201,-178.92977 -0.95415,-3.97699 -2.97375,-2.0203 h -3.99149 l -3.02146,2.0203 -1.95599,3.97699 0.95414,3.99289 c 1.62204,1.59079 4.81842,2.7998 7.01296,3.02251 l 3.02145,-2.02031 1.956,-4.04062 v -0.95447"
       style="fill:#ffffff;fill-opacity:1;fill-rule:nonzero;stroke:none;stroke-width:56.10987091"
       id="path1788"
       inkscape:connector-curvature="0" />
    <path
       d="m 267.0144,-178.92977 -0.95415,-3.97699 -3.97559,-2.0203 h -4.03921 l -2.97375,2.0203 -0.95414,3.97699 0.95414,3.99289 c 1.59023,1.59079 4.81842,2.7998 7.01296,3.02251 l 2.97374,-2.02031 2.01961,-4.04062 v -0.95447"
       style="fill:#ffffff;fill-opacity:1;fill-rule:nonzero;stroke:none;stroke-width:56.10987091"
       id="path1790"
       inkscape:connector-curvature="0" />
    <path
       d="m 204.01389,-149.9153 -2.01961,-4.04061 -2.97375,-1.95667 c -2.0196,0.31816 -4.48448,1.6226 -5.9952,2.97478 l -0.95414,3.99288 2.0196,3.02252 3.97559,0.95447 2.97375,-0.95447 c 0.95415,-0.63632 2.68751,-2.79981 3.02146,-3.9929"
       style="fill:#ffffff;fill-opacity:1;fill-rule:nonzero;stroke:none;stroke-width:56.10987091"
       id="path1792"
       inkscape:connector-curvature="0" />
    <path
       d="m 234.98221,-149.9153 -0.95415,-4.04061 -3.02146,-1.95667 -3.99149,0.95446 -3.02146,5.94957 2.0196,3.02251 3.02145,0.95448 3.99151,-0.95448 1.956,-3.02251 v -0.95448"
       style="fill:#ffffff;fill-opacity:1;fill-rule:nonzero;stroke:none;stroke-width:56.10987091"
       id="path1794"
       inkscape:connector-curvature="0" />
    <path
       d="m 268.0242,-149.9153 -0.95415,-4.04061 -3.02145,-1.95667 c -1.11317,0.31816 -2.86243,0.47723 -3.9756,0.95446 -0.95414,0.31816 -2.13092,1.43172 -3.02146,1.95669 v 3.99288 l 0.95415,3.02251 4.03921,0.95448 2.97374,-0.95448 c 0.63611,-1.11355 2.01961,-3.26112 3.02146,-3.99289"
       style="fill:#ffffff;fill-opacity:1;fill-rule:nonzero;stroke:none;stroke-width:56.10987091"
       id="path1796"
       inkscape:connector-curvature="0" />
    <path
       d="m 200.98448,-117.92763 -1.956,-3.02251 -3.02145,-0.95447 h -2.97375 l -2.0196,2.97478 v 3.0225 l 3.02145,2.97479 h 2.97375 l 3.02145,-1.95668 0.95415,-3.03841"
       style="fill:#ffffff;fill-opacity:1;fill-rule:nonzero;stroke:none;stroke-width:56.10987091"
       id="path1798"
       inkscape:connector-curvature="0" />
    <path
       d="m 234.02806,-117.92763 -0.95415,-3.02251 -3.02145,-1.95668 -2.97374,0.95448 -2.01961,2.97478 v 3.02251 l 3.02145,2.97479 h 2.97375 l 3.02146,-1.95668 v -3.03841"
       style="fill:#ffffff;fill-opacity:1;fill-rule:nonzero;stroke:none;stroke-width:56.10987091"
       id="path1800"
       inkscape:connector-curvature="0" />
    <path
       d="m 269.98815,-117.92763 -0.95414,-3.02251 -2.97376,-1.95668 -3.97559,0.95448 -2.01961,2.97478 c 0.31805,2.02031 1.68566,4.48604 3.02145,6.0132 h 3.97561 l 2.97374,-4.99509"
       style="fill:#ffffff;fill-opacity:1;fill-rule:nonzero;stroke:none;stroke-width:56.10987091"
       id="path1802"
       inkscape:connector-curvature="0" />
    <path
       d="m 108.02703,225.13165 c 0.63609,-1.5908 1.11317,-3.53156 2.01961,-4.99509 0.79512,-1.27264 2.08321,-2.75207 2.97374,-3.97698 0.95414,-0.31816 5.15238,-2.35438 5.99521,-2.02031 h 283.97858 v -451.09003 l -0.95414,-3.9929 -3.02145,-3.0225 c -0.79512,-0.47724 -3.86428,-1.5908 -4.99335,-1.97259 h -146.9254 l -4.03921,0.95448 c -1.95599,2.13167 -3.92789,5.28143 -4.99335,7.96987 v 17.00399 l 21.99142,21.99907 h -60.98091 l 21.99142,-21.99907 v -25.98402 l 0.63609,-4.04061 c 0.47708,-2.75207 -0.0572,-1.43171 1.68566,-3.97698 l 2.6398,-3.99289 c 5.50223,-3.30885 7.79217,-3.59519 12.0063,-4.99509 h 164.99052 l 5.99521,0.95448 5.94749,3.97698 4.03921,4.99509 0.95414,7.01539 v 460.06847 h 58.96131 l 4.99335,0.95448 4.0392,2.97478 c 0.63611,1.27264 2.41718,5.44051 1.9719,7.0154 V 257 H 108 v -32.04493"
       style="fill:#ffffff;fill-opacity:1;fill-rule:nonzero;stroke:none;stroke-width:56.10987091"
       id="path1804"
       inkscape:connector-curvature="0" />
  </g>
</svg>
