<?xml version="1.0" encoding="UTF-8" standalone="no"?>
<!-- Created with Inkscape (http://www.inkscape.org/) -->

<svg
   xmlns:dc="http://purl.org/dc/elements/1.1/"
   xmlns:cc="http://creativecommons.org/ns#"
   xmlns:rdf="http://www.w3.org/1999/02/22-rdf-syntax-ns#"
   xmlns:svg="http://www.w3.org/2000/svg"
   xmlns="http://www.w3.org/2000/svg"
   xmlns:sodipodi="http://sodipodi.sourceforge.net/DTD/sodipodi-0.dtd"
   xmlns:inkscape="http://www.inkscape.org/namespaces/inkscape"
   width="602mm"
   height="602mm"
   viewBox="0 0 602 601.99999"
   version="1.1"
   id="svg8781"
   inkscape:version="0.92.2 (5c3e80d, 2017-08-06)"
   sodipodi:docname="11.svg">
  <defs
     id="defs8775">
    <pattern
       y="0"
       x="0"
       height="6"
       width="6"
       patternUnits="userSpaceOnUse"
       id="EMFhbasepattern" />
    <pattern
       y="0"
       x="0"
       height="6"
       width="6"
       patternUnits="userSpaceOnUse"
       id="EMFhbasepattern-2" />
    <pattern
       y="0"
       x="0"
       height="6"
       width="6"
       patternUnits="userSpaceOnUse"
       id="EMFhbasepattern-6" />
    <pattern
       y="0"
       x="0"
       height="6"
       width="6"
       patternUnits="userSpaceOnUse"
       id="EMFhbasepattern-8" />
    <pattern
       y="0"
       x="0"
       height="6"
       width="6"
       patternUnits="userSpaceOnUse"
       id="EMFhbasepattern-0" />
    <pattern
       y="0"
       x="0"
       height="6"
       width="6"
       patternUnits="userSpaceOnUse"
       id="EMFhbasepattern-7" />
    <pattern
       y="0"
       x="0"
       height="6"
       width="6"
       patternUnits="userSpaceOnUse"
       id="EMFhbasepattern-5" />
    <pattern
       y="0"
       x="0"
       height="6"
       width="6"
       patternUnits="userSpaceOnUse"
       id="EMFhbasepattern-82" />
    <pattern
       y="0"
       x="0"
       height="6"
       width="6"
       patternUnits="userSpaceOnUse"
       id="EMFhbasepattern-84" />
    <pattern
       y="0"
       x="0"
       height="6"
       width="6"
       patternUnits="userSpaceOnUse"
       id="EMFhbasepattern-86" />
    <pattern
       y="0"
       x="0"
       height="6"
       width="6"
       patternUnits="userSpaceOnUse"
       id="EMFhbasepattern-23" />
  </defs>
  <sodipodi:namedview
     id="base"
     pagecolor="#ffffff"
     bordercolor="#666666"
     borderopacity="1.0"
     inkscape:pageopacity="0.0"
     inkscape:pageshadow="2"
     inkscape:zoom="0.1207226"
     inkscape:cx="2550.2171"
     inkscape:cy="607.27983"
     inkscape:document-units="mm"
     inkscape:current-layer="layer1"
     showgrid="false"
     showguides="true"
     inkscape:window-width="1920"
     inkscape:window-height="1057"
     inkscape:window-x="-8"
     inkscape:window-y="-8"
     inkscape:window-maximized="1"
     inkscape:snap-global="false"
     inkscape:measure-start="0,0"
     inkscape:measure-end="0,0"
     fit-margin-top="0"
     fit-margin-left="0"
     fit-margin-right="0"
     fit-margin-bottom="0" />
  <metadata
     id="metadata8778">
    <rdf:RDF>
      <cc:Work
         rdf:about="">
        <dc:format>image/svg+xml</dc:format>
        <dc:type
           rdf:resource="http://purl.org/dc/dcmitype/StillImage" />
        <dc:title></dc:title>
      </cc:Work>
    </rdf:RDF>
  </metadata>
  <g
     inkscape:label="Layer 1"
     inkscape:groupmode="layer"
     id="layer1"
     transform="translate(-179.2,397.3)">
    <path
       d="m 197.40882,154.5619 c -1.3527,-9.4252 -16.1876,-104.27773 -16.1876,-105.83383 V -62.1059 c 0,-38.57928 -4.35,-74.09289 6.5912,-107.76699 11.4584,-35.1367 -21.8479,-121.77655 0,-151.8196 84.9634,-116.72832 153.6449,-53.7184 258.4906,-63.85886 38.7849,-3.77009 70.8804,-10.74876 110.7885,-10.74876 17.124,0 37.5687,9.05088 54.9725,10.74876 77.5711,-17.92128 118.6489,-11.36374 158.6499,44.4282 6.0873,32.82516 -3.5542,90.45936 -3.5542,122.67086 0,17.3572 -9.6415,38.5806 -11.4584,56.2666 -9.363,90.59969 43.1825,193.13276 17.2168,281.84749 -9.8272,98.0049 -123.9816,73.8109 -215.8213,73.8109 -17.1239,0 -54.5521,10.2273 -72.05,10.2273 -53.897,0 -92.8688,-20.9881 -145.1293,-20.9881 -10.0526,0 -34.2466,10.468 -44.0711,8.6364 -46.1771,0 -92.028,7.6872 -98.4376,-36.7878"
       style="fill:#782d00;fill-opacity:1;fill-rule:nonzero;stroke:none;stroke-width:46.97400665"
       id="path6282"
       inkscape:connector-curvature="0" />
    <path
       id="path842"
       d="m 386.41323,-298.8775 c 0,-2.85905 -5.70938,-5.70464 -5.70938,-5.70464 -2.86145,0 -8.57085,-2.85906 -11.43229,-2.85906 l -11.43227,2.85906 c 0,0 -8.57082,5.70464 -8.57082,5.70464 v 2.85906 c 2.86144,2.85906 5.70939,5.70465 8.57082,5.70465 2.86145,0 5.70939,0 8.57083,0 8.57084,-2.85906 14.28562,-2.85906 19.99905,-8.56371 z"
       style="fill:#ffffff;fill-opacity:1;fill-rule:nonzero;stroke:none;stroke-width:35.69689941"
       inkscape:connector-curvature="0" />
    <path
       id="path844"
       d="m 306.41971,-333.1322 2.86143,-2.85906 c 5.7094,-2.85906 11.43229,-5.70465 14.28564,-5.70465 2.86143,0 2.86143,2.85906 5.70938,2.85906 h 2.86144 l 2.86144,5.70465 2.86144,2.85905 c 0,2.85906 0,8.5637 -2.86144,8.5637 0,8.56361 -5.70938,17.12731 -8.57083,22.83604 -11.43228,0 -25.71249,8.56361 -28.56853,19.98098 -2.86144,-5.70465 -2.86144,-11.42276 -2.86144,-14.27234 v -11.42276 c 0,-2.85905 2.86144,-14.27373 2.86144,-14.27373 0,-2.85906 2.86144,-5.70455 2.86144,-8.5636 2.86144,-2.85906 2.86144,-5.70465 5.70939,-5.70465 z"
       style="fill:#ffffff;fill-opacity:1;fill-rule:nonzero;stroke:none;stroke-width:35.69689941"
       inkscape:connector-curvature="0" />
    <path
       id="path846"
       d="m 414.98177,-318.85987 h -2.86145 c -2.86143,-2.85905 -17.14166,-5.70464 -19.99905,-5.70464 -5.70938,0 -8.57083,2.85905 -14.28426,2.85905 2.86143,0 17.14165,2.85906 17.14165,5.70465 5.70939,2.85906 8.57084,11.42276 8.57084,14.27234 0,14.27234 -8.57084,22.83604 -19.99906,25.6911 -5.7094,0 -8.57084,2.85906 -11.43228,2.85906 0,2.85906 19.99771,11.42276 22.85509,11.42276 2.86146,0 8.57085,0 11.43229,-2.85906 8.57082,0 25.71249,-14.27373 25.71249,-22.83744 v -8.5637 c 0,-8.5637 -8.57084,-19.98097 -17.14167,-22.83604 z"
       style="fill:#ffffff;fill-opacity:1;fill-rule:nonzero;stroke:none;stroke-width:35.69689941"
       inkscape:connector-curvature="0" />
    <path
       id="path848"
       d="m 346.41647,-7.7149133 c 5.70939,-8.5636917 17.14166,-17.1273747 28.56853,-22.8360497 0,0 2.86144,-2.859056 2.86144,-5.704627 v -2.859055 c -2.86144,-2.859056 -5.70939,-2.859056 -8.57082,-5.704627 -2.86145,0 -5.70939,-2.859055 -8.57083,-5.704626 -5.70939,-5.704626 -8.57085,-17.126067 -8.57085,-22.836 v -11.422758 c 0,-2.859056 5.70941,-17.127404 8.57085,-19.982364 8.57083,-8.5637 17.14165,-14.27244 28.56988,-19.98108 2.86144,0 8.57083,0 11.43228,-2.85905 l 2.86143,-2.85906 v -2.85905 c -2.86143,0 -5.70938,-2.85906 -5.70938,-5.70465 -2.86145,0 -5.70939,-2.85906 -11.43227,-2.85906 l -2.86145,2.85906 c 28.56989,-11.42276 42.85415,-34.25471 42.85415,-65.65445 0,-17.1274 -11.43226,-34.25341 -25.71248,-45.67208 14.28426,-2.85906 28.56988,-14.27234 37.14071,-28.54607 0,0 2.86145,-14.27234 2.86145,-17.12741 0,-11.42265 -11.43228,-28.54467 -25.7125,-31.39964 -5.70939,-2.85905 -14.28427,-2.85905 -19.9977,-2.85905 h -11.43228 c -11.43227,0 -28.56854,5.70454 -34.28332,11.42265 8.57082,-11.42265 28.56988,-22.83604 45.71155,-22.83604 59.99447,0 97.13518,48.52715 97.13518,105.6179 51.42498,11.42276 39.99675,71.36318 108.5634,71.36318 5.7094,0 22.85511,-5.70464 22.85511,-5.70464 v 11.42276 2.85905 c -8.57084,8.5637 -34.28332,19.98237 -45.71155,19.98237 -11.43227,0 -25.71115,-2.85905 -37.13936,-8.5637 -11.43228,-2.85906 -19.99906,-17.1274 -25.7125,-25.69101 -11.43227,-17.1274 -19.9977,-31.39974 -34.28333,-42.81851 l 8.57083,14.27374 c 0,2.85905 0,2.85905 0,2.85905 14.28562,17.12741 19.99906,34.25471 31.42594,51.38212 5.70938,8.5637 14.28562,14.27233 22.85644,22.83604 19.99772,14.27233 28.56854,31.399734 37.13937,51.382105 0,2.859055 0,2.859055 2.86145,2.859055 0,2.859056 -2.86145,2.859056 -2.86145,5.704647 0,0 -2.86145,0 -2.86145,-2.859056 -28.56853,-11.422758 -57.13841,-25.691106 -79.99351,-48.527141 -14.28427,-11.42266 -34.28332,-42.81841 -45.7102,-59.94572 h -2.86144 c 37.14071,114.182873 139.98933,99.909159 139.98933,222.654417 0,31.399722 -28.56853,68.509483 -51.42498,85.636843 -22.8551,14.27236 -48.5676,25.69106 -77.13613,22.83604 h -2.86144 c -34.28333,-2.85905 -51.42499,-5.70462 -82.85091,-17.12736 h -2.86145 l -5.70938,-2.85906 v -2.85905 l 2.86144,-2.85906 -2.86144,-2.85907 -2.86145,-2.85905 c -5.7094,5.70462 -5.7094,5.70462 -8.57083,11.42275 l -8.57083,-2.85906 5.70938,-5.70464 v -5.70462 h -2.86143 -2.86145 v 0 l -5.70939,11.42275 H 332.116 l 5.70939,-11.42275 v -2.85906 l -2.86144,-2.85905 -2.86144,2.85905 v 2.85906 l -5.7094,8.56369 h -8.57082 v -2.85907 c 8.57082,-11.42273 14.28561,-22.83604 25.71249,-34.253382 5.70939,-5.704636 17.14166,-8.563692 25.71249,-8.563692 14.28427,0 19.99906,2.859056 31.42593,11.422748 0,0 2.86144,2.859056 2.86144,5.704626 11.43229,8.56369 37.13937,19.98104 48.5676,19.98104 h 14.28426 c 5.70939,0 8.57084,0 11.43228,0 l 5.70939,-2.85906 c 0,0 -2.86144,-2.85906 -2.86144,-2.85906 h -2.86145 c -5.70939,0 -11.43227,2.85906 -19.99906,0 -22.85509,-2.85906 -57.13842,-39.963411 -57.13842,-62.799461 0,-34.254738 14.28427,-59.9457846 51.42499,-59.9457846 14.28427,0 25.71249,8.5636821 34.28333,17.1273636 l 22.85509,28.544716 2.86144,-2.859056 C 494.951,-2.0264755 477.80933,-47.699902 469.2385,-90.518322 c 0,11.422758 -2.86144,39.963404 -8.57083,51.382102 0,5.704626 -5.70939,14.272358 -11.43228,17.127364 -19.99771,17.1273743 -42.85415,31.399732 -68.56529,42.81843 5.70939,5.704627 5.70939,17.127364 5.70939,22.83604 0,5.704627 -2.86145,17.127364 -8.57084,19.982381 -17.14166,-11.422748 -31.42592,-34.254739 -37.14072,-54.237119 0,-2.8590556 0,-8.5636819 2.86145,-11.4227376 0,-2.8590658 0,-2.8590658 2.86145,-5.7046363 z"
       style="fill:#ffffff;fill-opacity:1;fill-rule:evenodd;stroke:none;stroke-width:35.69689941"
       inkscape:connector-curvature="0" />
    <path
       id="path850"
       d="m 346.41647,77.921927 c -2.86145,2.859056 -8.57083,5.704626 -14.28427,8.563682 l -25.71249,2.859066 c 0,0 -2.86145,-2.859066 -2.86145,-2.859066 l 5.70939,-8.563682 c 0,0 0,-2.859056 0,-2.859056 l -2.86144,-2.859056 h -2.86145 c -2.86143,2.859056 -5.70938,8.563683 -5.70938,11.422738 h -5.70939 l 5.70939,-11.422738 -2.86145,-2.859055 h -2.86143 v 0 c -2.86145,2.859055 -5.70939,5.704626 -8.57084,11.422738 l -2.86144,-2.859056 2.86144,-8.563682 c 0,0 0,-2.859056 0,-5.704627 h -2.86144 c 0,0 -2.86145,0 -5.70939,2.859056 l -2.86144,8.563682 -5.70939,-2.859056 5.70939,-11.422737 c 2.86144,-11.422748 14.28426,-19.982381 25.71249,-22.83605 2.86145,0 5.70939,0 8.57083,0 11.43228,-2.859056 19.99771,-2.859056 31.42594,0 z"
       style="fill:#ffffff;fill-opacity:1;fill-rule:nonzero;stroke:none;stroke-width:35.69689941"
       inkscape:connector-curvature="0" />
    <path
       id="path852"
       d="m 289.27805,-241.78675 c 0,5.70465 2.86144,17.12741 2.86144,22.83604 l -14.28427,8.5637 -2.86144,-22.83604 z"
       style="fill:#ffffff;fill-opacity:1;fill-rule:nonzero;stroke:none;stroke-width:35.69689941"
       inkscape:connector-curvature="0" />
    <path
       id="path854"
       d="m 377.8424,-250.35035 h -2.86144 l -2.86145,2.85906 -2.86145,5.70454 c -5.70938,-19.98237 -19.99905,-48.52704 -42.85415,-48.52704 -8.57083,0 -14.28426,5.70464 -19.9977,11.42275 -2.86145,5.70465 -11.43228,17.12731 -11.43228,19.98237 0,45.67208 11.43228,77.07312 45.7102,105.6179 2.86145,2.85905 14.28563,5.70454 19.99905,5.70454 h 8.57084 c 25.71249,0 45.71019,-22.83604 48.5676,-45.67208 0,-5.70454 0,-8.5636 0,-11.42265 0,-19.98108 -19.99906,-42.81712 -39.99676,-45.67208 z"
       style="fill:#ffffff;fill-opacity:1;fill-rule:nonzero;stroke:none;stroke-width:35.69689941"
       inkscape:connector-curvature="0" />
    <path
       id="path856"
       d="m 332.1322,-41.969652 h 2.86144 2.86144 l 5.70939,2.859056 c 0,2.859056 0,2.859056 2.86145,2.859056 v 0 h 2.86144 c 0,-11.422738 -11.43228,-22.83604 -11.43228,-34.254788 v -11.422658 c 0,-14.272438 11.43228,-34.254804 25.7125,-39.963444 -2.86145,-2.85905 -11.43227,-5.70464 -14.28562,-8.5637 -11.43228,-5.70464 -22.8551,-14.27234 -31.42594,-25.691 -14.28427,8.5637 -25.71248,22.83733 -25.71248,39.96334 v 8.5637 c 0,2.85906 0,2.85906 0,5.70465 0,-2.85906 2.86144,-2.85906 2.86144,-2.85906 2.86145,0 2.86145,2.85906 2.86145,2.85906 0,2.85905 -2.86145,8.563696 -5.70939,8.563696 v 11.422758 c 0,0 2.86144,5.704546 5.70939,5.704546 h 2.86143 c 2.86145,2.859056 2.86145,11.422758 5.70939,11.422758 2.86145,0 5.70939,0 8.57083,2.859056 v 2.859086 c 0,2.859055 2.86145,2.859055 2.86145,5.704626 0,0 2.86143,2.859066 2.86143,2.859066 2.86146,0 2.86146,0 5.7094,0 0,0 2.86145,5.704626 2.86145,5.704626 l 2.86143,2.859056 z"
       style="fill:#ffffff;fill-opacity:1;fill-rule:nonzero;stroke:none;stroke-width:35.69689941"
       inkscape:connector-curvature="0" />
    <path
       id="path858"
       d="m 640.6794,132.1577 c -11.43227,11.42274 -31.42592,17.12737 -48.56758,17.12737 -14.28562,0 -34.28332,-2.85906 -48.56759,-5.70463 28.56854,-17.12736 54.28102,-62.800804 54.28102,-94.200526 V 32.25254 c 0,-11.422738 -2.86143,-22.83604 -5.70938,-31.3997217 11.43226,-5.7046362 22.8551,-8.563692 34.28332,-8.563692 22.85509,0 28.56854,11.4227478 28.56854,31.3997317 0,5.704626 -5.70939,19.98238 -8.57083,22.837387 l 11.43227,-8.563682 c 2.86144,5.704626 2.86144,8.563682 2.86144,11.422737 0,5.704637 -11.43227,17.127375 -11.43227,19.982381 h 5.70939 c 2.86144,0 8.57082,-2.859056 11.43227,-5.704626 0,17.126027 -11.43227,31.399732 -28.56989,37.108415 2.86144,0 5.70939,2.85905 8.57083,2.85905 2.86145,0 8.57084,-5.704638 11.43228,-8.563694 0,2.859056 0,5.704644 0,8.563694 0,8.56368 -5.70938,17.12737 -14.28561,22.83604 0,0 -11.43229,2.85906 -11.43229,2.85906 2.86145,2.85905 5.70939,2.85905 8.57084,2.85905 z"
       style="fill:#ffffff;fill-opacity:1;fill-rule:evenodd;stroke:none;stroke-width:35.69689941"
       inkscape:connector-curvature="0" />
  </g>
</svg>
