<?xml version="1.0" encoding="UTF-8" standalone="no"?>
<!-- Created with Inkscape (http://www.inkscape.org/) -->

<svg
   xmlns:dc="http://purl.org/dc/elements/1.1/"
   xmlns:cc="http://creativecommons.org/ns#"
   xmlns:rdf="http://www.w3.org/1999/02/22-rdf-syntax-ns#"
   xmlns:svg="http://www.w3.org/2000/svg"
   xmlns="http://www.w3.org/2000/svg"
   xmlns:sodipodi="http://sodipodi.sourceforge.net/DTD/sodipodi-0.dtd"
   xmlns:inkscape="http://www.inkscape.org/namespaces/inkscape"
   width="978mm"
   height="602mm"
   viewBox="0 0 978 602.00001"
   version="1.1"
   id="svg8781"
   inkscape:version="0.92.2 (5c3e80d, 2017-08-06)"
   sodipodi:docname="22.svg">
  <defs
     id="defs8775" />
  <sodipodi:namedview
     id="base"
     pagecolor="#ffffff"
     bordercolor="#666666"
     borderopacity="1.0"
     inkscape:pageopacity="0.0"
     inkscape:pageshadow="2"
     inkscape:zoom="0.18958994"
     inkscape:cx="1555.9759"
     inkscape:cy="1087.4795"
     inkscape:document-units="mm"
     inkscape:current-layer="layer1"
     showgrid="false"
     showguides="true"
     inkscape:window-width="1920"
     inkscape:window-height="1057"
     inkscape:window-x="-8"
     inkscape:window-y="-8"
     inkscape:window-maximized="1"
     inkscape:snap-global="true"
     fit-margin-top="0"
     fit-margin-left="0"
     fit-margin-right="0"
     fit-margin-bottom="0" />
  <metadata
     id="metadata8778">
    <rdf:RDF>
      <cc:Work
         rdf:about="">
        <dc:format>image/svg+xml</dc:format>
        <dc:type
           rdf:resource="http://purl.org/dc/dcmitype/StillImage" />
        <dc:title></dc:title>
      </cc:Work>
    </rdf:RDF>
  </metadata>
  <g
     inkscape:label="Layer 1"
     inkscape:groupmode="layer"
     id="layer1"
     transform="translate(-84.340927,375.44855)">
    <path
       d="m 223.30196,214.60415 -90.85521,-45.4375 c -4.3649,-8.6365 -45.427597,-89.2918 -45.427597,-90.875 v -112.7546 c 0,-39.2477 -6.1462,-187.84306 5.0856,-222.10206 24.656897,-75.1852 -4.9904,-111.2177 153.936807,-106.9484 34.2026,0.952 78.4785,3.3593 113.5445,0 17.8934,-1.7273 38.8558,-10.9351 56.4133,-10.9351 h 56.3643 c 12.1428,0 125.9702,14.7786 130.4316,20.1999 14.343,-17.3696 105.1016,-6.814 130.3827,-9.2621 17.8444,-1.7273 38.8558,-10.9351 56.4119,-10.9351 h 56.3657 c 17.8444,0 39.0951,9.167 57.22783,10.9351 58.763,5.6579 96.5635,0.544 135.46691,57.1926 7.1524,33.1071 22.6907,79.7918 22.6907,112.8022 0,17.8497 -9.2058,39.105 -10.9327,57.2416 -8.825,91.59446 16.501,193.84116 -11.7485,282.74946 -12.4284,52.1549 -36.2654,72.0189 -135.46691,79.0722 h -57.22783 c -17.5575,0 -38.5199,-9.1669 -56.3657,-10.935 -61.5926,-5.9435 -130.622,0 -192.696,0 l -6.7173,-3.3594 c -1.8221,4.2163 -55.2126,14.2985 -61.4486,14.2985 h -56.3656 c -17.5562,0 -38.5199,-9.1669 -56.3644,-10.935 -61.5451,-5.9436 -130.622,0 -192.696,0"
       style="fill:#782d00;fill-opacity:1;fill-rule:nonzero;stroke:none;stroke-width:47.97531128"
       id="path6315"
       inkscape:connector-curvature="0" />
    <path
       d="m 644.9148,-143.85494 1.70648,-5.13287 c 3.42684,-10.22414 14.09582,-17.08 24.81474,-17.08 11.05745,0 22.02472,6.21494 25.64717,17.08 l 1.72036,5.13287 v 6.85308 c 0,11.98597 -12.72231,24.76267 -24.81474,24.76267 -9.73943,0 -20.50691,-5.13288 -25.64717,-13.65069 -3.03837,-5.03576 -3.42684,-12.23567 -3.42684,-17.9609"
       style="fill:#ffffff;fill-opacity:1;fill-rule:nonzero;stroke:none;stroke-width:48.94169617"
       id="path5842"
       inkscape:connector-curvature="0" />
    <path
       d="m 586.76955,-21.603686 -41.01382,-35.040899 34.16154,-48.744305 -1.70648,-4.2589 -21.33935,-9.39177 -57.3128,40.179324 c -3.81531,-1.817319 -8.56015,-9.544374 -8.56015,-13.706166 0,-5.632292 2.88575,-13.012538 7.72772,-16.247638 l 44.44067,-30.78339 c 2.24755,-0.97109 11.55689,-4.2589 13.70734,-4.2589 1.51225,0 3.57945,0.55491 5.13332,0.83237 l 58.09668,9.39177 c 4.35638,0.83236 10.57186,3.71787 13.70735,6.85308 2.05332,2.01153 4.10665,5.67391 5.38305,8.22647 1.10991,2.24738 2.63602,4.64734 3.1771,7.14442 l 12.81943,52.120899 70.08783,-18.791884 c 2.59442,3.079727 4.3009,7.976765 4.3009,11.985965 0,4.300518 -5.82701,13.06802 -9.44809,15.366716 l -5.09169,1.720211 -65.87852,17.96091 c -1.24865,0.277451 -3.07999,0.832354 -4.25926,0.832354 l -5.96575,-0.832354 c -1.76198,-0.69363 -8.46304,-6.117838 -9.3926,-7.685448 l -1.72034,-6.020718 -3.42685,-18.793274 -37.63832,41.892602"
       style="fill:#ffffff;fill-opacity:1;fill-rule:nonzero;stroke:none;stroke-width:48.94169617"
       id="path5844"
       inkscape:connector-curvature="0" />
    <path
       d="m 540.61547,-49.841446 -21.38789,17.128554 c -9.64233,7.005685 -20.80105,23.1478839 -23.05277,35.0408988 L 485.02025,60.468244 440.57959,52.782807 c -2.15045,-0.277453 -3.8708,-0.832365 -5.96575,-0.832365 -5.13332,0 -17.86395,5.632293 -21.38791,9.447276 -2.78864,2.982617 -5.96575,10.473837 -6.85367,14.485807 l 77.81972,13.706166 c 3.71819,0.416177 11.11294,-0.09987 14.537,-1.720201 4.60611,-2.150264 12.23672,-9.544384 13.70735,-14.535762 l 20.50692,-53.881336 c 0.83243,-1.914419 3.32971,-4.1063 5.13331,-5.091255 h 4.25927 l 3.42684,0.832355 49.58092,47.862006 v 65.824292 c 0.0472,3.57914 1.76198,11.5559 3.42684,14.53437 l 3.42683,4.00918 c 5.63278,6.60339 13.99732,11.84724 23.05138,11.40332 V 61.388 c 0,-3.176836 -1.76198,-11.1536 -3.42684,-13.706166 L 616.7301,42.548952 581.63763,-1.8878879 V -15.594054 l -41.01522,-34.208544"
       style="fill:#ffffff;fill-opacity:1;fill-rule:nonzero;stroke:none;stroke-width:48.94169617"
       id="path5846"
       inkscape:connector-curvature="0" />
    <path
       d="m 351.69271,184.43139 c -8.9625,-0.13873 -19.43031,-0.0472 -28.24019,-1.70633 l 47.8675,-83.785202 h 215.44953 v 29.902482 c 0.55497,4.45311 1.10992,10.47383 2.59442,14.53436 5.09169,13.899 21.4864,23.93169 35.87635,23.93169 2.74701,0 5.827,-0.5549 8.56015,-0.83237 V 98.939858 h 108.60576 l 47.8675,83.785202 c -9.15672,0.83236 -19.03906,2.24736 -28.24019,1.70633 H 351.68716"
       style="fill:#ffffff;fill-opacity:1;fill-rule:nonzero;stroke:none;stroke-width:48.94169617"
       id="path5848"
       inkscape:connector-curvature="0" />
    <path
       d="m 826.15425,-250.73949 -45.32166,77.81444 c 73.75746,10.1825 118.00251,70.71716 118.00251,142.756396 0,66.411108 -56.77451,115.302457 -117.12152,127.389689 l 44.44067,77.814425 c 95.83211,-28.04217 158.18668,-117.699657 158.18668,-216.313328 0,-94.062052 -67.83612,-183.669552 -158.18668,-209.461622"
       style="fill:#ffffff;fill-opacity:1;fill-rule:nonzero;stroke:none;stroke-width:48.94169617"
       id="path5850"
       inkscape:connector-curvature="0" />
    <path
       d="m 323.45252,-258.42213 c 9.15673,-0.83234 18.9905,-2.24739 28.24019,-1.70636 h 410.345 c 8.96249,0.13876 19.4303,0.049 28.24019,1.70636 l -47.86611,83.7838 H 371.32002 l -47.8675,-83.7838"
       style="fill:#ffffff;fill-opacity:1;fill-rule:nonzero;stroke:none;stroke-width:48.94169617"
       id="path5852"
       inkscape:connector-curvature="0" />
    <path
       d="M 332.84927,97.221035 287.52761,175.03546 C 197.22699,149.24483 129.34093,59.635889 129.34093,-34.426165 c 0,-98.563725 62.40312,-188.269765 158.18668,-216.313325 l 44.49061,77.81444 c -60.39696,12.08306 -117.17146,60.97856 -117.17146,127.38967 0,72.039242 44.24504,132.578054 118.00251,142.756415"
       style="fill:#ffffff;fill-opacity:1;fill-rule:nonzero;stroke:none;stroke-width:48.94169617"
       id="path5854"
       inkscape:connector-curvature="0" />
  </g>
</svg>
