<?xml version="1.0" encoding="UTF-8" standalone="no"?>
<!-- Created with Inkscape (http://www.inkscape.org/) -->

<svg
   xmlns:dc="http://purl.org/dc/elements/1.1/"
   xmlns:cc="http://creativecommons.org/ns#"
   xmlns:rdf="http://www.w3.org/1999/02/22-rdf-syntax-ns#"
   xmlns:svg="http://www.w3.org/2000/svg"
   xmlns="http://www.w3.org/2000/svg"
   xmlns:sodipodi="http://sodipodi.sourceforge.net/DTD/sodipodi-0.dtd"
   xmlns:inkscape="http://www.inkscape.org/namespaces/inkscape"
   width="978mm"
   height="602mm"
   viewBox="0 0 978 602.00001"
   version="1.1"
   id="svg8781"
   inkscape:version="0.92.2 (5c3e80d, 2017-08-06)"
   sodipodi:docname="22.svg">
  <defs
     id="defs8775">
    <pattern
       y="0"
       x="0"
       height="6"
       width="6"
       patternUnits="userSpaceOnUse"
       id="EMFhbasepattern" />
    <pattern
       y="0"
       x="0"
       height="6"
       width="6"
       patternUnits="userSpaceOnUse"
       id="EMFhbasepattern-3" />
  </defs>
  <sodipodi:namedview
     id="base"
     pagecolor="#ffffff"
     bordercolor="#666666"
     borderopacity="1.0"
     inkscape:pageopacity="0.0"
     inkscape:pageshadow="2"
     inkscape:zoom="0.26812066"
     inkscape:cx="2006.8252"
     inkscape:cy="805.47898"
     inkscape:document-units="mm"
     inkscape:current-layer="layer1"
     showgrid="false"
     showguides="true"
     inkscape:window-width="1920"
     inkscape:window-height="1057"
     inkscape:window-x="-8"
     inkscape:window-y="-8"
     inkscape:window-maximized="1"
     inkscape:snap-global="true"
     fit-margin-top="0"
     fit-margin-left="0"
     fit-margin-right="0"
     fit-margin-bottom="0" />
  <metadata
     id="metadata8778">
    <rdf:RDF>
      <cc:Work
         rdf:about="">
        <dc:format>image/svg+xml</dc:format>
        <dc:type
           rdf:resource="http://purl.org/dc/dcmitype/StillImage" />
        <dc:title></dc:title>
      </cc:Work>
    </rdf:RDF>
  </metadata>
  <g
     inkscape:label="Layer 1"
     inkscape:groupmode="layer"
     id="layer1"
     transform="translate(-84.340927,375.44855)">
    <path
       d="m 223.30196,214.60415 -90.85521,-45.4375 c -4.3649,-8.6365 -45.427596,-89.2918 -45.427596,-90.875 v -112.7546 c 0,-39.2477 -6.146203,-187.84306 5.0856,-222.10206 24.656896,-75.1852 -4.9904,-111.2177 153.936806,-106.9484 34.2026,0.952 78.4785,3.3593 113.5445,0 17.8934,-1.7273 38.8558,-10.9351 56.4133,-10.9351 h 56.3643 c 12.1428,0 125.9702,14.7786 130.4316,20.1999 14.343,-17.3696 105.1016,-6.814 130.3827,-9.2621 17.8444,-1.7273 38.8558,-10.9351 56.4119,-10.9351 h 56.3657 c 17.8444,0 39.0951,9.167 57.22783,10.9351 58.763,5.6579 96.5635,0.544 135.46691,57.1926 7.1524,33.1071 22.6907,79.7918 22.6907,112.8022 0,17.8497 -9.2058,39.105 -10.9327,57.2416 -8.825,91.59446 16.501,193.84116 -11.7485,282.74946 -12.4284,52.1549 -36.2654,72.0189 -135.46691,79.0722 h -57.22783 c -17.5575,0 -38.5199,-9.1669 -56.3657,-10.935 -61.5926,-5.9435 -130.622,0 -192.696,0 l -6.7173,-3.3594 c -1.8221,4.2163 -55.2126,14.2985 -61.4486,14.2985 h -56.3656 c -17.5562,0 -38.5199,-9.1669 -56.3644,-10.935 -61.5451,-5.9436 -130.622,0 -192.696,0"
       style="fill:#782d00;fill-opacity:1;fill-rule:nonzero;stroke:none;stroke-width:47.97531128"
       id="path6315"
       inkscape:connector-curvature="0" />
    <path
       d="m 585.56256,-106.44817 c -10.37824,-6.60463 -44.88308,-15.4196 -57.26759,-15.4196 h -18.7946 c -23.59244,0 -51.88423,6.70176 -72.68648,17.96432 14.78204,3.4272 31.71743,6.798894 45.32429,13.653276 l 11.11359,5.96637 C 429.23,-62.206846 373.38178,-32.445764 319.6869,8.9650094 c 9.35152,5.4807256 27.65495,10.2260746 38.47301,10.2260746 h 13.65264 c 8.17217,0 20.16542,-3.871207 27.3608,-7.686905 79.24504,-16.4463671 164.11763,-32.013042 245.41888,-29.075645 l 14.53647,-17.083247 h 10.22561 l -26.47975,29.0756551 c 4.99487,0.1387456 14.92911,0.4162568 19.67701,-0.8325235 11.15522,-3.0386834 30.8364,-17.7201166 32.45142,-29.9081586 l 11.11359,-2.594677 -11.94608,20.557616 c 41.31037,-1.665037 81.39838,-11.308361 120.5554,-23.984808 7.14544,-2.303296 13.74977,-4.259714 21.38915,-5.092227 l 26.48115,-0.832524 c 0.69373,-0.277501 1.9147,-0.555013 2.59456,-0.832513 l 3.37154,-2.594678 c 0.97122,-0.832513 1.80371,-2.344925 2.59456,-3.42719 l -3.42704,-3.371693 -3.42703,-0.832525 -35.04597,-3.42719 c -1.24872,-0.555012 -3.08017,-1.110025 -4.25952,-1.720536 l -0.83247,-0.832513 C 802.62722,-103.82713 755.49227,-128.59589 712.17425,-128.59589 h -16.24999 c -6.60433,0 -14.53786,3.37169 -21.38916,4.30133 l -88.93646,17.96432"
       style="fill:#ffffff;fill-opacity:1;fill-rule:nonzero;stroke:none;stroke-width:48.94777679"
       id="path6158"
       inkscape:connector-curvature="0" />
    <path
       d="m 597.55442,-127.83969 c 43.85636,3.8157 52.51969,-36.27137 53.84195,-36.75978 l 6.85406,1.70667 -11.94606,22.22264 c 23.78808,-0.97127 53.35217,-6.41038 74.35006,-17.96432 19.04017,-7.63141 37.93327,-16.00514 56.43512,-24.76737 1.10996,-0.69377 14.29227,-8.51943 14.53785,-8.56105 9.69837,-2.05354 31.96162,-1.70667 42.7783,-2.59468 1.41521,-0.97126 2.8443,-3.57982 3.42704,-5.09222 -0.13875,-1.91479 -1.24873,-4.64822 -2.59456,-6.02188 l -4.25952,-0.83251 -11.11359,0.83251 h -19.67564 l -2.59455,-1.70665 c -35.43723,-40.18698 -85.26525,-57.27022 -137.63786,-57.27022 -43.70929,0 -120.01707,26.04113 -161.57302,40.18698 -13.65265,-2.15067 -28.09615,-3.42721 -41.94721,-3.42721 -10.57248,0 -78.99945,11.89111 -82.03523,19.67793 19.97117,2.2478 38.7172,10.42032 56.38656,19.67792 -42.82825,29.36841 -86.14628,90.946899 -105.96899,138.476667 -6.95119,1.387526 -12.1403,4.301333 -19.67701,4.301333 -4.06528,0 -12.0432,-2.788931 -15.41751,-5.133856 -9.39314,-4.74534 -28.87869,-8.561048 -39.35405,-8.561048 -8.81039,0 -19.77413,2.442052 -28.19327,5.133856 28.34035,3.427192 60.25342,20.46187 79.53918,41.313647 3.23278,3.5243172 8.07504,7.6313965 9.39313,12.52937067 45.9112,-35.88007867 92.31356,-61.03873767 145.32304,-84.63225767 -1.51235,-1.24878 -18.25765,-5.244853 -21.34199,-5.96637 l -34.21349,-5.133857 c 8.8104,-7.728525 19.38288,-13.847535 29.9068,-18.796835 23.64101,-10.32321 53.5478,-20.50905 79.53779,-20.50905 h 22.22164 c 13.5139,0 28.68304,2.30329 41.89864,5.09222 l 22.22164,-7.6869 18.79597,-18.79684 h 7.72818 l -25.64867,29.07565"
       style="fill:#ffffff;fill-opacity:1;fill-rule:nonzero;stroke:none;stroke-width:48.94777679"
       id="path6160"
       inkscape:connector-curvature="0" />
    <path
       d="m 763.4355,-65.430074 10.22562,-11.114096 14.53646,11.114096 h -24.76624"
       style="fill:#782d00;fill-opacity:1;fill-rule:nonzero;stroke:none;stroke-width:48.94777679"
       id="path6166"
       inkscape:connector-curvature="0" />
    <path
       d="m 760.84094,-209.04615 h -24.76763 l 11.1136,-10.32321 13.65264,10.32321"
       style="fill:#782d00;fill-opacity:1;fill-rule:nonzero;stroke:none;stroke-width:48.94777679"
       id="path6168"
       inkscape:connector-curvature="0" />
    <path
       style="fill:#ffffff;fill-opacity:1;fill-rule:nonzero;stroke:none;stroke-width:48.94775772"
       d="m 135.84093,92.75155 v 51.2997 c 24.22928,22.4211 51.97211,35.9002 85.50016,35.9002 33.52792,0 61.27044,-13.4793 85.49965,-35.9002 24.22927,22.4211 51.9721,35.9002 85.50015,35.9002 33.52791,0 61.27042,-13.4793 85.49964,-35.9002 24.22928,22.4211 51.97211,35.9002 85.50016,35.9002 33.52805,0 61.27089,-13.4791 85.50013,-35.9002 24.2293,22.4211 51.97213,35.9002 85.50018,35.9002 33.52793,0 61.27041,-13.4793 85.49966,-35.9002 24.22924,22.4211 51.9721,35.9002 85.50016,35.9002 33.52802,0 61.27086,-13.4791 85.50013,-35.9002 v -51.2997 c -24.22927,22.4183 -51.97211,35.9002 -85.50013,35.9002 -33.52792,0 -61.27097,-13.482 -85.50016,-35.9002 v -10e-5 c -24.22917,22.418 -51.97187,35.9003 -85.49966,35.9003 -33.52805,0 -61.27088,-13.4819 -85.50018,-35.9002 -24.22924,22.4183 -51.97208,35.9002 -85.50013,35.9002 -33.52792,0 -61.27094,-13.482 -85.50016,-35.9002 v -10e-5 c -24.22914,22.418 -51.97186,35.9003 -85.49964,35.9003 -33.52792,0 -61.27094,-13.482 -85.50015,-35.9002 v -10e-5 c -24.22915,22.418 -51.97185,35.9003 -85.49965,35.9003 -33.52805,0 -61.27088,-13.4819 -85.50016,-35.9002 z"
       id="path861-4"
       inkscape:connector-curvature="0"
       sodipodi:nodetypes="ccscscscscsccsccscsccsccsc" />
    <path
       sodipodi:nodetypes="ccscscscscsccsccscsccsccsc"
       inkscape:connector-curvature="0"
       id="path1542"
       d="m 135.84093,7.25155 v 51.2997 c 24.22928,22.4211 51.97211,35.9002 85.50016,35.9002 33.52792,0 61.27044,-13.4793 85.49965,-35.9002 24.22927,22.4211 51.9721,35.9002 85.50015,35.9002 33.52791,0 61.27042,-13.4793 85.49964,-35.9002 24.22928,22.4211 51.97211,35.9002 85.50016,35.9002 33.52805,0 61.27089,-13.4791 85.50013,-35.9002 24.2293,22.4211 51.97213,35.9002 85.50018,35.9002 33.52793,0 61.27041,-13.4793 85.49966,-35.9002 24.22924,22.4211 51.9721,35.9002 85.50016,35.9002 33.52802,0 61.27086,-13.4791 85.50013,-35.9002 V 7.25155 c -24.22927,22.4183 -51.97211,35.9002 -85.50013,35.9002 -33.52792,0 -61.27097,-13.482 -85.50016,-35.9002 v -10e-5 c -24.22917,22.418 -51.97187,35.9003 -85.49966,35.9003 -33.52805,0 -61.27088,-13.4819 -85.50018,-35.9002 -24.22924,22.4183 -51.97208,35.9002 -85.50013,35.9002 -33.52792,0 -61.27094,-13.482 -85.50016,-35.9002 v -10e-5 c -24.22914,22.418 -51.97186,35.9003 -85.49964,35.9003 -33.52792,0 -61.27094,-13.482 -85.50015,-35.9002 v -10e-5 c -24.22915,22.418 -51.97185,35.9003 -85.49965,35.9003 -33.52805,0 -61.27088,-13.4819 -85.50016,-35.9002 z"
       style="fill:#ffffff;fill-opacity:1;fill-rule:nonzero;stroke:none;stroke-width:48.94775772" />
  </g>
</svg>
