<?xml version="1.0" encoding="UTF-8" standalone="no"?>
<!-- Created with Inkscape (http://www.inkscape.org/) -->

<svg
   xmlns:dc="http://purl.org/dc/elements/1.1/"
   xmlns:cc="http://creativecommons.org/ns#"
   xmlns:rdf="http://www.w3.org/1999/02/22-rdf-syntax-ns#"
   xmlns:svg="http://www.w3.org/2000/svg"
   xmlns="http://www.w3.org/2000/svg"
   xmlns:sodipodi="http://sodipodi.sourceforge.net/DTD/sodipodi-0.dtd"
   xmlns:inkscape="http://www.inkscape.org/namespaces/inkscape"
   width="602mm"
   height="602mm"
   viewBox="0 0 602 601.99999"
   version="1.1"
   id="svg8781"
   inkscape:version="0.92.2 (5c3e80d, 2017-08-06)"
   sodipodi:docname="11.svg">
  <defs
     id="defs8775">
    <pattern
       y="0"
       x="0"
       height="6"
       width="6"
       patternUnits="userSpaceOnUse"
       id="EMFhbasepattern" />
    <pattern
       y="0"
       x="0"
       height="6"
       width="6"
       patternUnits="userSpaceOnUse"
       id="EMFhbasepattern-2" />
    <pattern
       y="0"
       x="0"
       height="6"
       width="6"
       patternUnits="userSpaceOnUse"
       id="EMFhbasepattern-6" />
  </defs>
  <sodipodi:namedview
     id="base"
     pagecolor="#ffffff"
     bordercolor="#666666"
     borderopacity="1.0"
     inkscape:pageopacity="0.0"
     inkscape:pageshadow="2"
     inkscape:zoom="0.21461795"
     inkscape:cx="700.00769"
     inkscape:cy="1093.4868"
     inkscape:document-units="mm"
     inkscape:current-layer="layer1"
     showgrid="false"
     showguides="false"
     inkscape:window-width="1920"
     inkscape:window-height="1057"
     inkscape:window-x="-8"
     inkscape:window-y="-8"
     inkscape:window-maximized="1"
     inkscape:snap-global="false"
     inkscape:measure-start="0,0"
     inkscape:measure-end="0,0"
     fit-margin-top="0"
     fit-margin-left="0"
     fit-margin-right="0"
     fit-margin-bottom="0" />
  <metadata
     id="metadata8778">
    <rdf:RDF>
      <cc:Work
         rdf:about="">
        <dc:format>image/svg+xml</dc:format>
        <dc:type
           rdf:resource="http://purl.org/dc/dcmitype/StillImage" />
        <dc:title></dc:title>
      </cc:Work>
    </rdf:RDF>
  </metadata>
  <g
     inkscape:label="Layer 1"
     inkscape:groupmode="layer"
     id="layer1"
     transform="translate(-179.2,397.3)">
    <path
       d="m 197.40882,154.5619 c -1.3527,-9.4252 -16.1876,-104.27769 -16.1876,-105.83379 V -62.10583 c 0,-38.5793 -4.35,-74.09291 6.5912,-107.76701 11.4584,-35.1367 -21.8479,-121.77655 0,-151.8196 84.9634,-116.72832 153.6449,-53.7184 258.4906,-63.85886 38.7849,-3.77009 70.8804,-10.74876 110.7885,-10.74876 17.124,0 37.5687,9.05088 54.9725,10.74876 77.5711,-17.92128 118.6489,-11.36374 158.6499,44.4282 6.0873,32.82516 -3.5542,90.45936 -3.5542,122.67086 0,17.3572 -9.6415,38.5806 -11.4584,56.2666 -9.363,90.59971 43.1825,193.13275 17.2168,281.84744 -9.8272,98.0049 -123.9816,73.8109 -215.8213,73.8109 -17.1239,0 -54.5521,10.2273 -72.05,10.2273 -53.897,0 -92.8688,-20.9881 -145.1293,-20.9881 -10.0526,0 -34.2466,10.468 -44.0711,8.6364 -46.1771,0 -92.028,7.6872 -98.4376,-36.7878"
       style="fill:#782d00;fill-opacity:1;fill-rule:nonzero;stroke:none;stroke-width:46.97400665"
       id="path6282"
       inkscape:connector-curvature="0" />
    <path
       d="m 372.06962,-179.30016 5.02549,-15.04026 -4.19483,-14.94503 v -10.03144 l -20.90215,9.14834 -30.91574,10.85933 5.8146,-12.51514 7.51747,-9.14833 3.36417,-6.66463 -3.36417,1.65581 -14.16411,5.83672 2.49196,-15.81986 -9.23415,4.96742 -2.49199,2.52511 -8.34812,9.14833 c -4.001,5.64355 -8.40349,11.38368 -11.72614,17.47567 l -20.07287,39.18468 -29.25442,37.53163 -4.98395,4.96742 -0.83067,4.18092 c 0.0499,2.67689 1.70286,7.93407 3.36418,9.97624 1.4675,1.84898 6.00843,4.48447 8.34812,5.00882 v 9.203523 l 25.93456,39.136387 c 6.6868,8.913756 18.46139,12.51514 29.25442,12.51514 1.56441,0 15.33536,-5.450366 15.87251,-6.664629 l 10.89549,-8.320431 v 6.664629 l -10.89549,8.320431 -3.32263,3.353007 c -1.66132,0.55194 -10.59091,3.311612 -10.89548,3.311612 h -8.34812 c -6.20226,0 -18.41294,-8.030659 -22.56348,-12.515139 l -3.36416,-0.827901 -0.83065,2.483712 v 2.525106 l 2.5335,3.311613 0.83066,2.525106 v 4.967424 l -0.83066,2.525106 0.83066,3.311613 c 0.41533,0.8279 2.58889,3.601374 3.32264,4.180907 v 2.483712 l 2.49197,3.353017 6.74218,3.311612 3.32265,-0.82791 3.32263,-0.827901 c 0.55377,0.137985 2.10433,0.551941 2.53351,0.827901 l 1.66132,2.483712 2.49197,1.6558108 4.19484,-0.8279006 4.19481,-2.4837122 3.32266,-3.311612 c 3.66873,-0.689926 7.71127,-1.379841 10.89546,-3.353017 l 1.66132,-3.353007 2.49198,-5.795324 2.53351,-4.180918 3.32264,-2.483712 h 2.5335 l 2.49198,-0.8279 3.32264,-3.353007 9.17879,-1.655811 c 4.54092,-33.051292 7.82204,-114.587379 23.44397,-139.169219"
       style="fill:#ffffff;fill-opacity:1;fill-rule:nonzero;stroke:none;stroke-width:48.75859833"
       id="path5926"
       inkscape:connector-curvature="0" />
    <path
       d="m 406.35507,38.191501 15.87252,-66.639343 -4.1533,66.639343 -2.5335,55.833823 15.04185,-48.337158 -2.49198,84.991214 c 10.35554,-12.26677 19.7323,-25.40974 29.25581,-38.308489 19.29068,22.001539 39.90209,43.078589 61.04929,63.329109 L 512.53961,89.887179 531.78183,153.21768 548.485,139.00394 568.60633,155.7 575.2516,149.03538 585.31642,155.7 c -2.78271,-9.63127 13.67818,-77.883656 13.38745,-100.811063 l 3.32264,31.639713 c 26.12838,-51.014042 32.81934,-68.829139 32.62413,-130.844649 l 13.38746,21.660725 9.17878,-55.005922 30.91575,22.538299 c -5.08086,-18.351869 -11.57385,-36.411199 -18.3631,-54.178013 l -0.83066,-4.18092 v -34.99962 l 17.53382,33.34382 c -2.63042,-32.07851 20.07288,-70.09584 49.32731,-83.3354 -13.81662,-2.82867 -38.28923,-14.7491 -45.9576,-27.50296 -9.91253,2.96665 -48.64477,-10.95592 -59.38935,-14.16544 l 15.04324,-1.65578 -9.17878,-8.32045 c -30.71917,-1.50399 -67.3,-22.48859 -88.64378,-44.19906 -1.246,0.41395 -11.03394,4.181 -11.67077,4.181 -11.42156,0 -25.88472,-4.13955 -35.11611,-10.80422 l -20.90353,14.11717 4.98394,-5.79533 c 0.83066,-5.98848 2.53351,-13.24645 2.53351,-19.1798 0,-1.50399 -2.87961,-12.90142 -3.36417,-14.99196 l -1.66131,-6.66457 c -0.55378,-0.55196 -1.89668,-2.09739 -2.49197,-2.52512 -0.69223,-0.41394 -4.19484,-1.24184 -5.0255,-1.65578 l -3.36416,-1.65578 -3.32265,-5.00889 c -7.37901,16.69613 -22.76005,30.03359 -41.80706,30.03359 h -10.06482 l -6.10535,-2.2353 c -12.6537,-4.58106 -25.34756,-14.55462 -29.84142,-27.79413 -0.0969,9.39671 0.69221,20.10288 3.36417,29.15742 l 8.34813,7.49246 c -16.55642,1.37985 -23.83439,-15.23616 -34.28545,-24.14436 -1.91052,2.04216 -5.85616,10.03136 -5.85616,12.51513 0,5.50552 4.19484,14.11707 7.51747,18.35181 -4.09793,-3.60138 -12.11378,-6.7198 -17.53245,-6.7198 -6.45145,0 -25.49431,8.37568 -30.96558,10.85935 3.9041,-0.55196 8.69423,-1.65578 12.55679,-1.65578 1.91052,0 30.32875,12.90151 35.94539,14.99335 -10.25864,9.97623 -25.54276,13.77074 -36.77604,22.48858 -13.91908,10.76278 -27.25254,23.99816 -38.48582,37.48196 l 73.60192,-37.48196 -23.44258,26.67643 16.75163,0.82791 -15.87251,20.8342 50.15796,-17.52397 c -11.33849,80.02655 -36.04368,160.78303 -25.1039,245.870823 l 26.76384,-44.150718 19.2436,66.639343"
       style="fill:#ffffff;fill-opacity:1;fill-rule:nonzero;stroke:none;stroke-width:48.75859833"
       id="path5928"
       inkscape:connector-curvature="0" />
    <path
       d="m 300.12902,-183.4866 c -1.66133,3.25643 -1.66133,6.47145 -1.66133,10.03144 0,1.37984 3.61337,6.52663 5.02549,7.49253 -11.13083,10.16941 -21.7342,23.26823 -30.08509,35.82752 l 4.98396,2.48371 c 8.44504,-18.49674 26.27512,-35.09621 42.68619,-46.63305 l -20.952,-9.20353"
       style="fill:#782d00;fill-opacity:1;fill-rule:nonzero;stroke:none;stroke-width:48.75859833"
       id="path5930"
       inkscape:connector-curvature="0" />
    <path
       d="m 401.32405,-205.97522 5.02549,1.65581 4.19483,-5.83672 3.32264,-4.13952 4.19482,-2.5251 c 0.69222,-0.68993 1.91052,-1.65581 2.49198,-2.48371 0.83065,-1.10387 1.75822,-2.92526 2.49197,-4.18092 2.53352,-4.37409 4.25021,-11.72864 5.02549,-16.64772 v -5.00889 c -1.10754,-8.56882 -2.14586,-17.37906 -4.15329,-25.80025 -0.41533,-1.37975 -1.10755,-3.89109 -1.70285,-5.00879 -0.41533,-0.82789 -1.85515,-2.48367 -2.49198,-3.31156 l -2.53351,-2.52512 -4.98395,-1.65588 h -5.85615 c -2.935,1.50409 -5.91152,3.60148 -8.34812,5.83678 -0.69222,1.10382 -2.00743,2.96663 -2.53352,4.13955 -0.27688,0.82789 -0.55377,2.42845 -0.83066,3.35301 l -1.66131,9.97623 -1.66132,7.49246 -0.83066,5.83678 1.66131,3.35301 c 5.21932,10.128 1.91052,21.22328 5.85616,32.46897 0.41533,0.82791 2.83808,4.27751 3.32263,5.00882"
       style="fill:#782d00;fill-opacity:1;fill-rule:nonzero;stroke:none;stroke-width:48.75859833"
       id="path5932"
       inkscape:connector-curvature="0" />
  </g>
</svg>
