<?xml version="1.0" encoding="UTF-8" standalone="no"?>
<!-- Created with Inkscape (http://www.inkscape.org/) -->

<svg
   xmlns:dc="http://purl.org/dc/elements/1.1/"
   xmlns:cc="http://creativecommons.org/ns#"
   xmlns:rdf="http://www.w3.org/1999/02/22-rdf-syntax-ns#"
   xmlns:svg="http://www.w3.org/2000/svg"
   xmlns="http://www.w3.org/2000/svg"
   xmlns:sodipodi="http://sodipodi.sourceforge.net/DTD/sodipodi-0.dtd"
   xmlns:inkscape="http://www.inkscape.org/namespaces/inkscape"
   width="602mm"
   height="602mm"
   viewBox="0 0 602 601.99999"
   version="1.1"
   id="svg8781"
   inkscape:version="0.92.2 (5c3e80d, 2017-08-06)"
   sodipodi:docname="11.svg">
  <defs
     id="defs8775">
    <pattern
       y="0"
       x="0"
       height="6"
       width="6"
       patternUnits="userSpaceOnUse"
       id="EMFhbasepattern" />
    <pattern
       y="0"
       x="0"
       height="6"
       width="6"
       patternUnits="userSpaceOnUse"
       id="EMFhbasepattern-2" />
    <pattern
       y="0"
       x="0"
       height="6"
       width="6"
       patternUnits="userSpaceOnUse"
       id="EMFhbasepattern-6" />
    <pattern
       y="0"
       x="0"
       height="6"
       width="6"
       patternUnits="userSpaceOnUse"
       id="EMFhbasepattern-8" />
    <pattern
       y="0"
       x="0"
       height="6"
       width="6"
       patternUnits="userSpaceOnUse"
       id="EMFhbasepattern-0" />
    <pattern
       y="0"
       x="0"
       height="6"
       width="6"
       patternUnits="userSpaceOnUse"
       id="EMFhbasepattern-7" />
    <pattern
       y="0"
       x="0"
       height="6"
       width="6"
       patternUnits="userSpaceOnUse"
       id="EMFhbasepattern-5" />
    <pattern
       y="0"
       x="0"
       height="6"
       width="6"
       patternUnits="userSpaceOnUse"
       id="EMFhbasepattern-82" />
  </defs>
  <sodipodi:namedview
     id="base"
     pagecolor="#ffffff"
     bordercolor="#666666"
     borderopacity="1.0"
     inkscape:pageopacity="0.0"
     inkscape:pageshadow="2"
     inkscape:zoom="0.2414452"
     inkscape:cx="1351.5267"
     inkscape:cy="1226.6196"
     inkscape:document-units="mm"
     inkscape:current-layer="layer1"
     showgrid="false"
     showguides="true"
     inkscape:window-width="1920"
     inkscape:window-height="1057"
     inkscape:window-x="-8"
     inkscape:window-y="-8"
     inkscape:window-maximized="1"
     inkscape:snap-global="false"
     inkscape:measure-start="0,0"
     inkscape:measure-end="0,0"
     fit-margin-top="0"
     fit-margin-left="0"
     fit-margin-right="0"
     fit-margin-bottom="0" />
  <metadata
     id="metadata8778">
    <rdf:RDF>
      <cc:Work
         rdf:about="">
        <dc:format>image/svg+xml</dc:format>
        <dc:type
           rdf:resource="http://purl.org/dc/dcmitype/StillImage" />
        <dc:title></dc:title>
      </cc:Work>
    </rdf:RDF>
  </metadata>
  <g
     inkscape:label="Layer 1"
     inkscape:groupmode="layer"
     id="layer1"
     transform="translate(-179.2,397.3)">
    <path
       d="m 197.40882,154.5619 c -1.3527,-9.4252 -16.1876,-104.27771 -16.1876,-105.83381 V -62.10588 c 0,-38.57928 -4.35,-74.09289 6.5912,-107.76699 11.4584,-35.1367 -21.8479,-121.77655 0,-151.8196 84.9634,-116.72832 153.6449,-53.7184 258.4906,-63.85886 38.7849,-3.77009 70.88045,-10.74876 110.78855,-10.74876 17.124,0 37.5687,9.05088 54.9725,10.74876 77.57111,-17.92128 118.64891,-11.36374 158.64991,44.4282 6.0873,32.82516 -3.5542,90.45936 -3.5542,122.67086 0,17.3572 -9.6415,38.5806 -11.4584,56.2666 -9.363,90.59969 43.1825,193.13276 17.2168,281.84747 -9.8272,98.0049 -123.98161,73.8109 -215.82131,73.8109 -17.1239,0 -54.55215,10.2273 -72.05005,10.2273 -53.897,0 -92.8688,-20.9881 -145.1293,-20.9881 -10.0526,0 -34.2466,10.468 -44.0711,8.6364 -46.1771,0 -92.028,7.6872 -98.4376,-36.7878"
       style="fill:#782d00;fill-opacity:1;fill-rule:nonzero;stroke:none;stroke-width:46.97400665"
       id="path6282"
       inkscape:connector-curvature="0" />
    <path
       d="m 667.96526,-174.27521 c 1.6635,-7.24816 3.28642,-16.69782 2.52906,-24.18668 2.33972,0.27045 5.20689,-0.13523 7.49252,-0.81136 l 3.34052,-3.34011 c 0.54098,0.54091 3.81389,3.19136 4.152,3.34011 l 5.00403,0.81136 c 1.08196,0 2.96185,-0.54091 4.15199,-0.81136 l 3.34053,-3.34011 c 0.54098,0.54091 3.86798,3.19136 4.19256,3.34011 l 4.96347,0.81136 c 1.21719,0 3.00241,-0.54091 4.15199,-0.81136 l 3.3811,-3.34011 c 0.40573,0.54091 3.81388,3.19136 4.15199,3.34011 l 5.00403,0.81136 c 1.08196,0 2.96185,-0.54091 4.152,-0.81136 l 3.34052,-3.34011 2.47497,2.47466 0.81146,3.3401 v 11.6836 c 0,0.27045 -2.28562,10.64235 -2.52906,11.64304 l -4.15199,-0.81137 c -1.08195,-0.54091 -3.05652,-1.81204 -4.152,-2.47464 l -4.20608,2.47464 c -1.08196,0.27046 -2.96185,0.81137 -4.152,0.81137 l -5.00403,-0.81137 c -0.27049,-0.13522 -3.67864,-2.71805 -4.15199,-3.3401 l -3.34053,3.3401 c -1.21719,0.27046 -3.00242,0.81137 -4.152,0.81137 l -5.00403,-0.81137 c -0.27048,-0.13522 -3.67863,-2.71805 -4.15199,-3.3401 l -3.34053,3.3401 c -1.21719,0.27046 -3.00241,0.81137 -4.19256,0.81137 l -5.00403,-0.81137 c -0.27049,-0.13522 -3.67864,-2.71805 -4.15199,-3.3401 l -3.34053,3.3401 h -1.6635"
       style="fill:#ffffff;fill-opacity:1;fill-rule:nonzero;stroke:none;stroke-width:47.70806503"
       id="path6872"
       inkscape:connector-curvature="0" />
    <path
       d="m 669.63416,-207.62216 c 0.0474,-12.49496 -4.67944,-24.32867 -9.15602,-35.82566 4.39544,-0.27045 8.96668,-0.81136 13.36212,-0.81136 13.0781,0 26.2414,3.3401 38.31194,8.34349 4.67944,3.05614 12.87523,9.77691 14.98098,15.02777 l 4.19257,9.96622 -3.34053,3.3401 c -1.2172,0.27046 -3.00242,0.81137 -4.152,0.81137 l -5.00403,-0.81137 c -0.27049,-0.13522 -3.71921,-2.71805 -4.15199,-3.3401 l -3.3811,3.3401 c -1.08195,0.27046 -2.96184,0.81137 -4.15199,0.81137 l -4.96346,-0.81137 c -0.27049,-0.13522 -3.71921,-2.71805 -4.19257,-3.3401 l -3.34052,3.3401 c -1.2172,0.27046 -3.00242,0.81137 -4.152,0.81137 l -5.00403,-0.81137 c -0.27049,-0.13522 -3.67864,-2.71805 -4.15199,-3.3401 l -3.34053,3.3401 c -1.21719,0.27046 -3.00242,0.81137 -4.15199,0.81137 -1.2172,0 -3.00242,-0.67613 -4.19257,-0.81137"
       style="fill:#ffffff;fill-opacity:1;fill-rule:nonzero;stroke:none;stroke-width:47.70806503"
       id="path6874"
       inkscape:connector-curvature="0" />
    <path
       d="m 507.94177,-119.27168 c -3.15119,3.96215 -7.83063,9.96622 -11.64451,13.30632 -39.59946,35.827017 -65.41215,93.311964 -75.00095,145.024072 h -73.38072 c -9.58881,-51.712108 -35.40149,-109.197055 -75.00095,-145.024072 -3.81389,-3.3401 -8.49333,-9.34417 -11.64452,-13.30632 -16.07917,-34.5383 -26.67012,-55.24288 -26.67012,-95.02798 0,-24.23536 7.9253,-48.80339 17.46135,-70.79528 l 1.66351,-2.52877 c 2.15038,-3.48892 4.24666,-7.58621 6.68105,-10.83169 7.5331,-9.87154 19.5617,-19.74988 30.86946,-24.99808 24.33176,-10.25018 54.10439,-20.84652 80.82185,-20.84652 h 21.66069 c 38.64599,0 52.81686,12.88707 84.21108,20.84652 11.26583,5.2468 23.28226,15.12245 30.82076,24.99808 2.43439,3.24548 4.53068,7.34277 6.68106,10.83169 l 1.6635,2.52877 c 9.6429,26.95337 17.46136,48.99401 17.46136,78.33148 0,28.62346 -10.87362,63.73512 -26.67013,87.49178"
       style="fill:#ffffff;fill-opacity:1;fill-rule:nonzero;stroke:none;stroke-width:47.70806503"
       id="path6876"
       inkscape:connector-curvature="0" />
    <path
       d="m 367.9574,155.7 h 33.3025 l 16.69859,-49.99473 H 351.25882 L 367.9574,155.7"
       style="fill:#ffffff;fill-opacity:1;fill-rule:nonzero;stroke:none;stroke-width:47.70806503"
       id="path6878"
       inkscape:connector-curvature="0" />
    <path
       d="m 557.94285,22.364954 h 20.03912 l 9.96748,-29.9595147 h -39.98219 l 9.96748,29.9595147"
       style="fill:#ffffff;fill-opacity:1;fill-rule:nonzero;stroke:none;stroke-width:47.70806503"
       id="path6880"
       inkscape:connector-curvature="0" />
    <path
       d="m 667.96526,-44.278911 h 13.3621 l 6.68106,-19.989241 h -26.67013 l 6.62697,19.989241"
       style="fill:#ffffff;fill-opacity:1;fill-rule:nonzero;stroke:none;stroke-width:47.70806503"
       id="path6882"
       inkscape:connector-curvature="0" />
    <path
       d="m 546.30105,-44.278911 c -2.86718,-23.518654 -13.59744,-49.996083 -27.4816,-69.172599 11.49575,-18.70052 20.51653,-40.93183 25.00122,-62.49375 l 75.0023,60.01233 c -14.74295,20.751916 -26.14673,46.225962 -29.19919,71.654019 h -43.32273"
       style="fill:#ffffff;fill-opacity:1;fill-rule:nonzero;stroke:none;stroke-width:47.70806503"
       id="path6884"
       inkscape:connector-curvature="0" />
    <path
       d="m 635.47422,-135.10945 6.68106,-7.49158 c 1.52826,-2.96145 7.05974,-12.17041 7.49252,-15.02641 L 545.4463,-235.9603 c 0.94671,10.16906 1.6635,20.65725 1.6635,30.86553 0,6.15282 -1.08194,12.98179 -1.6635,19.13056 l 79.20028,63.35107 10.83305,-12.49496"
       style="fill:#ffffff;fill-opacity:1;fill-rule:nonzero;stroke:none;stroke-width:47.70806503"
       id="path6886"
       inkscape:connector-curvature="0" />
    <path
       d="m 647.16336,-242.63645 c 7.20852,11.35905 10.83305,35.01429 10.83305,48.372 0,8.87088 -2.47497,19.8459 -5.00403,28.33679 l -110.02104,-82.52895 c -1.96104,-7.96487 -4.09789,-17.4605 -7.49252,-24.998 10.30559,-3.00205 21.75671,-4.15157 32.49103,-4.15157 17.27202,0 40.50695,4.24619 55.87068,12.49502 5.30156,2.81272 12.64532,8.01895 16.65124,12.49497 2.09629,2.37998 4.81469,7.3969 6.68106,9.96621"
       style="fill:#ffffff;fill-opacity:1;fill-rule:nonzero;stroke:none;stroke-width:47.70806503"
       id="path6888"
       inkscape:connector-curvature="0" />
    <path
       d="m 660.47408,-85.973409 c -1.35243,-14.216401 -7.01916,-29.291501 -14.16952,-41.647181 7.30318,-9.7769 16.88929,-25.42671 19.17897,-37.4957 l 4.15198,-0.81137 3.34054,-3.3401 c 0.54097,0.67614 3.86797,3.19136 4.15199,3.3401 l 5.00403,0.81137 c 1.2172,0 3.00242,-0.54092 4.19257,-0.81137 l 3.34053,-3.3401 c 0.54097,0.67614 3.81388,3.19136 4.15199,3.3401 l 5.00403,0.81137 c 1.08195,0 2.96184,-0.54092 4.15199,-0.81137 l 3.34053,-3.3401 c 0.54097,0.67614 3.81389,3.19136 4.15199,3.3401 l 5.00403,0.81137 c 1.2172,0 3.00242,-0.54092 4.15199,-0.81137 l 3.34053,-3.3401 2.47497,2.47466 4.19256,2.52873 -5.81549,9.96623 -4.20609,5.86883 c -16.26986,15.74312 -28.76912,39.78647 -30.82076,62.446428 h -28.3404"
       style="fill:#ffffff;fill-opacity:1;fill-rule:nonzero;stroke:none;stroke-width:47.70806503"
       id="path6890"
       inkscape:connector-curvature="0" />
    <path
       d="m 337.94674,-117.60163 c 16.74728,46.511289 21.6607,90.925206 21.6607,139.966584 -7.34376,-43.936564 -22.99555,-93.072607 -50.00109,-129.137614 -10.3056,-16.41112 -20.84923,-40.31114 -20.84923,-60.01369 v -15.83777 c 0,-4.24613 1.2172,-16.79247 3.34054,-20.84657 10.06215,-44.65192 33.54188,-88.73179 67.51113,-119.97869 l 12.49655,3.34011 c -22.51949,42.9345 -37.50047,100.03813 -41.65112,148.31546 -0.67622,17.9365 1.6635,37.21039 7.49252,54.19354"
       style="fill:#782d00;fill-opacity:1;fill-rule:nonzero;stroke:none;stroke-width:47.70806503"
       id="path6892"
       inkscape:connector-curvature="0" />
    <path
       d="m 395.439,-320.11066 11.68508,-2.47461 c 34.49536,35.20629 55.24991,83.72165 64.17196,131.61765 1.62293,6.39624 1.6635,14.35975 1.6635,20.84793 0,21.22791 -5.86959,43.3632 -16.69858,61.68238 -21.99474,36.493684 -39.40877,88.826488 -46.66056,130.80767 0.0474,-45.463277 3.34053,-99.27411 18.32016,-142.49532 1.7717,-9.45236 4.20609,-22.18262 4.20609,-31.62821 0,-2.6775 -0.54097,-5.67954 -0.81146,-8.3435 3.71921,-35.20633 -22.1381,-125.7029 -35.83156,-160.00311"
       style="fill:#782d00;fill-opacity:1;fill-rule:nonzero;stroke:none;stroke-width:47.70806503"
       id="path6894"
       inkscape:connector-curvature="0" />
  </g>
</svg>
