<?xml version="1.0" encoding="UTF-8" standalone="no"?>
<!-- Created with Inkscape (http://www.inkscape.org/) -->

<svg
   xmlns:dc="http://purl.org/dc/elements/1.1/"
   xmlns:cc="http://creativecommons.org/ns#"
   xmlns:rdf="http://www.w3.org/1999/02/22-rdf-syntax-ns#"
   xmlns:svg="http://www.w3.org/2000/svg"
   xmlns="http://www.w3.org/2000/svg"
   xmlns:sodipodi="http://sodipodi.sourceforge.net/DTD/sodipodi-0.dtd"
   xmlns:inkscape="http://www.inkscape.org/namespaces/inkscape"
   width="602mm"
   height="602mm"
   viewBox="0 0 602 602"
   version="1.1"
   id="svg8781"
   inkscape:version="0.92.2 (5c3e80d, 2017-08-06)"
   sodipodi:docname="11.svg">
  <defs
     id="defs8775" />
  <sodipodi:namedview
     id="base"
     pagecolor="#ffffff"
     bordercolor="#666666"
     borderopacity="1.0"
     inkscape:pageopacity="0.0"
     inkscape:pageshadow="2"
     inkscape:zoom="0.21461796"
     inkscape:cx="1061.4378"
     inkscape:cy="1445.3506"
     inkscape:document-units="mm"
     inkscape:current-layer="layer1"
     showgrid="false"
     showguides="true"
     inkscape:window-width="1920"
     inkscape:window-height="1057"
     inkscape:window-x="-8"
     inkscape:window-y="-8"
     inkscape:window-maximized="1"
     inkscape:snap-global="true"
     inkscape:measure-start="0,0"
     inkscape:measure-end="0,0" />
  <metadata
     id="metadata8778">
    <rdf:RDF>
      <cc:Work
         rdf:about="">
        <dc:format>image/svg+xml</dc:format>
        <dc:type
           rdf:resource="http://purl.org/dc/dcmitype/StillImage" />
        <dc:title></dc:title>
      </cc:Work>
    </rdf:RDF>
  </metadata>
  <g
     inkscape:label="Layer 1"
     inkscape:groupmode="layer"
     id="layer1"
     transform="translate(0,305)">
    <path
       d="M 18.208834,246.8619 C 16.856104,237.4367 2.0211745,142.58417 2.0211745,141.02807 V 30.19417 c 0,-38.5793 -4.34995,-74.0929 6.59124,-107.767 11.4584095,-35.1367 -21.8478905,-121.77652 0,-151.81957 84.9633195,-116.72832 153.6448155,-53.7184 258.4905655,-63.85886 38.7849,-3.77009 70.8804,-10.74876 110.7885,-10.74876 17.124,0 37.5687,9.05088 54.9725,10.74876 77.5711,-17.92128 118.6489,-11.36374 158.6499,44.4282 6.0873,32.82516 -3.5542,90.45936 -3.5542,122.67083 0,17.3572 -9.6415,38.5806 -11.4584,56.2666 -9.363,90.5997 43.18245,193.1327 17.2168,281.84743 -9.8272,98.0049 -123.9816,73.8109 -215.8213,73.8109 -17.1239,0 -54.5521,10.2273 -72.05,10.2273 -53.897,0 -92.86885,-20.9881 -145.12928,-20.9881 -10.05264,0 -34.24659,10.468 -44.07111,8.6364 -46.177126,0 -92.028006,7.6872 -98.437556,-36.7878"
       style="fill:#782d00;fill-opacity:1;fill-rule:nonzero;stroke:none;stroke-width:46.97400665"
       id="path6282"
       inkscape:connector-curvature="0" />
    <path
       style="fill:#ffffff;fill-opacity:1;fill-rule:nonzero;stroke:none;stroke-width:47.09017944"
       d="m 300.9998,-254.79978 c -11.4329,0.0488 -15.266,9.65419 -15.9582,11.91503 0,0 -5.0272,15.28019 -5.0416,30.15475 -0.023,23.94426 6.199,48.73574 20.9998,67.93022 h 5e-4 c 14.8008,-19.19448 21.0229,-43.98596 20.9997,-67.93022 -0.014,-14.87456 -5.0415,-30.15475 -5.0415,-30.15475 -0.6923,-2.26084 -4.5258,-11.86623 -15.9587,-11.91503 z"
       id="path853"
       inkscape:connector-curvature="0"
       sodipodi:nodetypes="ccsccscc" />
    <path
       inkscape:connector-curvature="0"
       id="path855"
       style="fill:#ffffff;fill-opacity:1;fill-rule:nonzero;stroke:none;stroke-width:47.11132431"
       d="m 364.0151,223.97547 c -15.4592,15.63375 -41.0989,25.75859 -63.0151,25.19395 -21.8227,0.66743 -47.6508,-9.65096 -63.0152,-25.19395 -16.9675,14.97434 -40.2986,25.19395 -63.0165,25.19395 -22.6229,0 -46.8959,-8.94349 -62.9683,-25.19395 V 190.4 c 16.0724,16.24645 40.3454,25.19395 62.9683,25.19395 22.7179,0 46.049,-10.22495 63.0165,-25.19395 15.3644,15.54031 41.1925,25.90008 63.0152,25.19395 21.9162,0.53395 47.5559,-9.55753 63.0151,-25.19395 16.9676,14.97434 40.2986,25.19395 62.9697,25.19395 22.5762,0 46.9895,-8.99689 63.0152,-25.19395 v 33.57547 c -16.0257,16.19974 -40.439,25.19395 -63.0152,25.19395 -22.6711,0 -46.0021,-10.22495 -62.9697,-25.19395" />
    <path
       inkscape:connector-curvature="0"
       id="path857"
       style="fill:#ffffff;fill-opacity:1;fill-rule:nonzero;stroke:none;stroke-width:47.06019592"
       d="M 364.0151,127.6 C 348.5559,143.15322 322.9162,153.25476 301,152.69134 279.1773,153.49052 253.3492,143.06131 237.9848,127.6 c -16.9675,14.94186 -40.2986,25.09134 -63.0165,25.09134 -22.6229,0 -46.8959,-8.88412 -62.9683,-25.09134 v 41.86597 c 16.0724,16.21121 40.3454,25.09268 62.9683,25.09268 22.7179,0 46.049,-9.31036 63.0165,-24.24689 15.3644,15.45999 41.1925,24.99811 63.0152,24.24689 21.9162,0.53278 47.5559,-8.69766 63.0151,-24.24689 16.9676,14.94319 40.2986,24.24689 62.9697,24.24689 22.5762,0 46.9895,-8.92409 63.0152,-25.09268 V 127.6 c -16.0257,16.16325 -40.439,25.09134 -63.0152,25.09134 -22.6711,0 -46.0021,-10.14948 -62.9697,-25.09134" />
    <path
       style="fill:#ffffff;fill-opacity:1;fill-rule:nonzero;stroke:none;stroke-width:47.07762527"
       d="m 202.9192,-195.79977 c -34.8163,0 -68.5967,27.8396 -67.091,64.63016 13.1232,-9.8012 32.2744,-15.96905 48.6477,-15.96905 28.0881,0 51.1884,11.68446 68.7379,33.58762 12.9898,18.371255 22.1604,38.438128 26.8175,60.484162 6.3082,31.84459 9.2282,66.562609 8.3747,99.06683 -1.8996,-50.5470601 -50.1096,-156.519062 -110.6578,-156.159992 -27.998,0.16604 -45.562,24.900485 -48.6482,44.468094 28.3487,-7.694216 45.3016,-5.848747 45.3016,-5.848747 24.3453,0.256699 50.9069,19.362025 63.7046,39.429135 29.0283,45.976219 50.576,100.14963 50.2946,155.311438 h 25.1985 c -0.2814,-55.161808 21.2663,-109.335219 50.2946,-155.311438 12.7978,-20.06711 39.3593,-39.172436 63.7046,-39.429135 0,0 16.953,-1.845469 45.3017,5.848747 -3.0863,-19.567609 -20.6502,-44.302044 -48.6482,-44.468094 -60.5483,-0.35907 -108.7582,105.6129319 -110.6579,156.159992 -0.8535,-32.504221 2.0665,-67.22224 8.3747,-99.06683 4.6571,-22.046034 13.8277,-42.112907 26.8175,-60.484162 17.5496,-21.90316 40.6498,-33.58762 68.7379,-33.58762 16.3733,0 35.5245,6.16785 48.6477,15.96905 1.5057,-36.79056 -32.2746,-64.63016 -67.091,-64.63016 -80.126,0 -97.9533,115.101213 -98.0808,166.233262 -0.1276,-51.132049 -17.9549,-166.233262 -98.0809,-166.233262 z"
       id="path900"
       inkscape:connector-curvature="0"
       sodipodi:nodetypes="scscccsccccccccscccscscs" />
  </g>
</svg>
