<?xml version="1.0" encoding="UTF-8" standalone="no"?>
<!-- Created with Inkscape (http://www.inkscape.org/) -->

<svg
   xmlns:dc="http://purl.org/dc/elements/1.1/"
   xmlns:cc="http://creativecommons.org/ns#"
   xmlns:rdf="http://www.w3.org/1999/02/22-rdf-syntax-ns#"
   xmlns:svg="http://www.w3.org/2000/svg"
   xmlns="http://www.w3.org/2000/svg"
   xmlns:sodipodi="http://sodipodi.sourceforge.net/DTD/sodipodi-0.dtd"
   xmlns:inkscape="http://www.inkscape.org/namespaces/inkscape"
   width="602mm"
   height="602mm"
   viewBox="0 0 602 601.99999"
   version="1.1"
   id="svg8781"
   inkscape:version="0.92.2 (5c3e80d, 2017-08-06)"
   sodipodi:docname="11.svg">
  <defs
     id="defs8775">
    <pattern
       y="0"
       x="0"
       height="6"
       width="6"
       patternUnits="userSpaceOnUse"
       id="EMFhbasepattern" />
    <pattern
       y="0"
       x="0"
       height="6"
       width="6"
       patternUnits="userSpaceOnUse"
       id="EMFhbasepattern-2" />
    <pattern
       y="0"
       x="0"
       height="6"
       width="6"
       patternUnits="userSpaceOnUse"
       id="EMFhbasepattern-6" />
    <pattern
       y="0"
       x="0"
       height="6"
       width="6"
       patternUnits="userSpaceOnUse"
       id="EMFhbasepattern-8" />
    <pattern
       y="0"
       x="0"
       height="6"
       width="6"
       patternUnits="userSpaceOnUse"
       id="EMFhbasepattern-0" />
    <pattern
       y="0"
       x="0"
       height="6"
       width="6"
       patternUnits="userSpaceOnUse"
       id="EMFhbasepattern-7" />
    <pattern
       y="0"
       x="0"
       height="6"
       width="6"
       patternUnits="userSpaceOnUse"
       id="EMFhbasepattern-5" />
    <pattern
       y="0"
       x="0"
       height="6"
       width="6"
       patternUnits="userSpaceOnUse"
       id="EMFhbasepattern-82" />
    <pattern
       y="0"
       x="0"
       height="6"
       width="6"
       patternUnits="userSpaceOnUse"
       id="EMFhbasepattern-84" />
    <pattern
       y="0"
       x="0"
       height="6"
       width="6"
       patternUnits="userSpaceOnUse"
       id="EMFhbasepattern-86" />
    <pattern
       y="0"
       x="0"
       height="6"
       width="6"
       patternUnits="userSpaceOnUse"
       id="EMFhbasepattern-23" />
  </defs>
  <sodipodi:namedview
     id="base"
     pagecolor="#ffffff"
     bordercolor="#666666"
     borderopacity="1.0"
     inkscape:pageopacity="0.0"
     inkscape:pageshadow="2"
     inkscape:zoom="0.1207226"
     inkscape:cx="1204.156"
     inkscape:cy="607.27983"
     inkscape:document-units="mm"
     inkscape:current-layer="layer1"
     showgrid="false"
     showguides="true"
     inkscape:window-width="1920"
     inkscape:window-height="1057"
     inkscape:window-x="-8"
     inkscape:window-y="-8"
     inkscape:window-maximized="1"
     inkscape:snap-global="false"
     inkscape:measure-start="0,0"
     inkscape:measure-end="0,0"
     fit-margin-top="0"
     fit-margin-left="0"
     fit-margin-right="0"
     fit-margin-bottom="0" />
  <metadata
     id="metadata8778">
    <rdf:RDF>
      <cc:Work
         rdf:about="">
        <dc:format>image/svg+xml</dc:format>
        <dc:type
           rdf:resource="http://purl.org/dc/dcmitype/StillImage" />
        <dc:title></dc:title>
      </cc:Work>
    </rdf:RDF>
  </metadata>
  <g
     inkscape:label="Layer 1"
     inkscape:groupmode="layer"
     id="layer1"
     transform="translate(-179.2,397.3)">
    <path
       d="m 197.40882,154.5619 c -1.3527,-9.4252 -16.1876,-104.27773 -16.1876,-105.83383 V -62.1059 c 0,-38.57928 -4.35,-74.09289 6.5912,-107.76699 11.4584,-35.1367 -21.8479,-121.77655 0,-151.8196 84.9634,-116.72832 153.6449,-53.7184 258.4906,-63.85886 38.7849,-3.77009 70.8804,-10.74876 110.7885,-10.74876 17.124,0 37.5687,9.05088 54.9725,10.74876 77.5711,-17.92128 118.6489,-11.36374 158.6499,44.4282 6.0873,32.82516 -3.5542,90.45936 -3.5542,122.67086 0,17.3572 -9.6415,38.5806 -11.4584,56.2666 -9.363,90.59969 43.1825,193.13276 17.2168,281.84749 -9.8272,98.0049 -123.9816,73.8109 -215.8213,73.8109 -17.1239,0 -54.5521,10.2273 -72.05,10.2273 -53.897,0 -92.8688,-20.9881 -145.1293,-20.9881 -10.0526,0 -34.2466,10.468 -44.0711,8.6364 -46.1771,0 -92.028,7.6872 -98.4376,-36.7878"
       style="fill:#782d00;fill-opacity:1;fill-rule:nonzero;stroke:none;stroke-width:46.97400665"
       id="path6282"
       inkscape:connector-curvature="0" />
    <path
       d="m 301,-165.61825 c 2.6615,56.76036 16.25631,116.6062 44.42446,166.6816351 26.76591,47.0827829 62.22074,92.1073139 104.40081,126.8935749 8.03745,5.42065 18.54573,14.30707 27.04662,18.93517 l 18.03196,7.56769 9.01731,3.79048 c 19.29253,6.54719 41.48093,9.4497 61.84734,9.4497 7.46806,0 15.69486,-1.32535 23.16956,-1.86874 4.06507,-0.92773 18.40405,-3.27359 21.29992,-5.69897 3.21763,-1.86873 19.85264,-10.98708 21.25489,-13.22691 7.70642,-6.26887 23.49531,-19.96363 28.9613,-28.42595 l 1.91999,-5.65921 -2.33047,-1.68318 0.39724,-0.26507 -100.47874,-66.298927 -5.78643,1.921751 -17.42418,26.51082 c -6.81927,9.582221 -21.25357,15.148666 -32.83837,15.148666 l -11.5861,-3.79048 c -4.6212,-2.849484 -9.44103,-9.250889 -13.54582,-13.278608 L 362.84071,-150.48551 c -2.0524,-4.16161 -3.87969,-14.72853 -2.56882,-22.72299 l 2.56882,-7.56777 c 3.41624,-6.123 11.40073,-13.32623 17.37784,-17.06645 l 13.54583,-1.86865 h 25.13192 l 5.78644,-3.79048 1.91999,-5.69901 -7.70643,-113.61495 -9.66612,-7.56767 c -30.22321,3.45912 -74.9734,31.32572 -85.06324,60.59461 -3.60164,8.23039 -21.16088,55.68563 -19.33888,62.51113 l -3.82673,41.65949"
       style="fill:#ffffff;fill-opacity:1;fill-rule:nonzero;stroke:none;stroke-width:46.73368835"
       id="path6434"
       inkscape:connector-curvature="0" />
    <path
       d="m 453.65597,-320.93916 c -0.52965,2.42536 -5.78644,25.62151 -5.78644,26.55724 v 26.50947 c 0,6.49424 8.46118,51.47765 13.54582,53.02034 l -15.46183,13.27857 -5.78644,-3.83025 -9.66612,-123.10573 5.79968,-3.79048 17.37651,11.35825"
       style="fill:#ffffff;fill-opacity:1;fill-rule:nonzero;stroke:none;stroke-width:46.73368835"
       id="path6436"
       inkscape:connector-curvature="0" />
    <path
       d="M 673.99867,97.61325 672.07869,76.806695 C 657.64438,71.107726 643.53713,64.41475 629.52389,57.870208 623.40642,55.948457 606.26162,42.862031 602.47726,38.93504 598.46516,34.773467 592.53307,25.001712 588.93145,19.998553 h -5.78644 l -13.49948,7.567698 v 5.659218 L 674,97.607943"
       style="fill:#ffffff;fill-opacity:1;fill-rule:nonzero;stroke:none;stroke-width:46.73368835"
       id="path6438"
       inkscape:connector-curvature="0" />
  </g>
</svg>
