<?xml version="1.0" encoding="UTF-8" standalone="no"?>
<!-- Created with Inkscape (http://www.inkscape.org/) -->

<svg
   xmlns:dc="http://purl.org/dc/elements/1.1/"
   xmlns:cc="http://creativecommons.org/ns#"
   xmlns:rdf="http://www.w3.org/1999/02/22-rdf-syntax-ns#"
   xmlns:svg="http://www.w3.org/2000/svg"
   xmlns="http://www.w3.org/2000/svg"
   xmlns:sodipodi="http://sodipodi.sourceforge.net/DTD/sodipodi-0.dtd"
   xmlns:inkscape="http://www.inkscape.org/namespaces/inkscape"
   width="978mm"
   height="602mm"
   viewBox="0 0 978 602.00001"
   version="1.1"
   id="svg8781"
   inkscape:version="0.92.2 (5c3e80d, 2017-08-06)"
   sodipodi:docname="22.svg">
  <defs
     id="defs8775">
    <pattern
       y="0"
       x="0"
       height="6"
       width="6"
       patternUnits="userSpaceOnUse"
       id="EMFhbasepattern" />
    <pattern
       y="0"
       x="0"
       height="6"
       width="6"
       patternUnits="userSpaceOnUse"
       id="EMFhbasepattern-3" />
    <pattern
       y="0"
       x="0"
       height="6"
       width="6"
       patternUnits="userSpaceOnUse"
       id="EMFhbasepattern-2" />
    <pattern
       y="0"
       x="0"
       height="6"
       width="6"
       patternUnits="userSpaceOnUse"
       id="EMFhbasepattern-33" />
    <pattern
       y="0"
       x="0"
       height="6"
       width="6"
       patternUnits="userSpaceOnUse"
       id="EMFhbasepattern-1" />
    <pattern
       y="0"
       x="0"
       height="6"
       width="6"
       patternUnits="userSpaceOnUse"
       id="EMFhbasepattern-4" />
    <pattern
       y="0"
       x="0"
       height="6"
       width="6"
       patternUnits="userSpaceOnUse"
       id="EMFhbasepattern-7" />
  </defs>
  <sodipodi:namedview
     id="base"
     pagecolor="#ffffff"
     bordercolor="#666666"
     borderopacity="1.0"
     inkscape:pageopacity="0.0"
     inkscape:pageshadow="2"
     inkscape:zoom="0.26812066"
     inkscape:cx="1917.1197"
     inkscape:cy="1043.0518"
     inkscape:document-units="mm"
     inkscape:current-layer="layer1"
     showgrid="false"
     showguides="true"
     inkscape:window-width="1920"
     inkscape:window-height="1057"
     inkscape:window-x="-8"
     inkscape:window-y="-8"
     inkscape:window-maximized="1"
     inkscape:snap-global="false"
     fit-margin-top="0"
     fit-margin-left="0"
     fit-margin-right="0"
     fit-margin-bottom="0" />
  <metadata
     id="metadata8778">
    <rdf:RDF>
      <cc:Work
         rdf:about="">
        <dc:format>image/svg+xml</dc:format>
        <dc:type
           rdf:resource="http://purl.org/dc/dcmitype/StillImage" />
        <dc:title></dc:title>
      </cc:Work>
    </rdf:RDF>
  </metadata>
  <g
     inkscape:label="Layer 1"
     inkscape:groupmode="layer"
     id="layer1"
     transform="translate(-84.340927,375.44855)">
    <path
       d="m 223.30195,214.60415 -90.8552,-45.4375 c -4.3649,-8.6365 -45.427597,-89.29177 -45.427597,-90.87497 v -112.7546 c 0,-39.2477 -6.1462,-187.843 5.0856,-222.102 24.656897,-75.1852 -4.9904,-111.2177 153.936797,-106.9484 34.2026,0.952 78.4785,3.3593 113.5445,0 17.8934,-1.7273 38.8558,-10.9351 56.4133,-10.9351 h 56.3643 c 12.1428,0 125.9702,14.7786 130.4316,20.1999 14.343,-17.3696 105.1016,-6.814 130.3827,-9.2621 17.8444,-1.7273 38.8558,-10.9351 56.4119,-10.9351 h 56.3657 c 17.8444,0 39.0951,9.167 57.2278,10.9351 58.763,5.6579 96.5635,0.544 135.46695,57.1926 7.1524,33.1071 22.6907,79.7918 22.6907,112.8022 0,17.8497 -9.2058,39.105 -10.9327,57.2416 -8.825,91.5944 16.501,193.8411 -11.7485,282.74937 -12.4284,52.1549 -36.2654,72.0189 -135.46695,79.0722 h -57.2278 c -17.5575,0 -38.5199,-9.1669 -56.3657,-10.935 -61.5926,-5.9435 -130.622,0 -192.696,0 l -6.7173,-3.3594 c -1.8221,4.2163 -55.2126,14.2985 -61.4486,14.2985 h -56.3656 c -17.5562,0 -38.5199,-9.1669 -56.3644,-10.935 -61.5451,-5.9436 -130.622,0 -192.696,0"
       style="fill:#782d00;fill-opacity:1;fill-rule:nonzero;stroke:none;stroke-width:47.97531128"
       id="path6315"
       inkscape:connector-curvature="0" />
    <path
       id="path842"
       d="m 365.7169,105.30192 c 0,-40.767789 -32.027,-61.150997 -66.96606,-61.150997 -2.91617,0 -14.55748,2.916612 -14.55748,2.916612 -26.20429,11.652656 -40.76177,32.033106 -40.76177,61.152365 0,29.12063 29.11495,55.32742 58.2313,55.32742 34.93905,0 64.05401,-26.20679 64.05401,-58.2399 z"
       style="fill:#ffffff;fill-opacity:1;fill-rule:nonzero;stroke:none;stroke-width:36.39753342"
       inkscape:connector-curvature="0" />
    <path
       id="path844"
       d="m 930.56175,105.30192 c 0,-23.295684 -14.55886,-46.591367 -34.93905,-55.32742 -11.65095,-5.819449 -23.29225,-5.819449 -34.93907,-5.819449 0,0 -11.65093,2.916604 -14.55748,2.916604 -23.29361,11.652656 -37.85109,32.033115 -37.85109,61.152375 0,29.12063 29.11633,55.32742 58.23129,55.32742 34.93905,0 64.0554,-26.20679 64.0554,-58.2399 z"
       style="fill:#ffffff;fill-opacity:1;fill-rule:nonzero;stroke:none;stroke-width:36.39753342"
       inkscape:connector-curvature="0" />
    <path
       id="path846"
       d="M 400.65596,-43.209602 H 703.45927 V -247.04855 H 400.65596 Z"
       style="fill:#ffffff;fill-opacity:1;fill-rule:nonzero;stroke:none;stroke-width:36.39753342"
       inkscape:connector-curvature="0" />
    <path
       id="path848"
       d="M 750.04376,-43.209602 H 933.47241 V -206.28076 H 750.04376 Z"
       style="fill:#ffffff;fill-opacity:1;fill-rule:nonzero;stroke:none;stroke-width:36.39753342"
       inkscape:connector-curvature="0" />
    <path
       id="path850"
       d="m 980.05828,105.30192 h -26.20429 c -2.91617,-43.678883 -37.8511,-84.44667 -84.43559,-84.44667 -43.67382,0 -84.43559,37.855303 -84.43559,84.44667 H 386.09847 c 0,-43.678883 -34.93905,-84.44667 -78.61286,-84.44667 -52.40721,0 -81.52355,34.942829 -87.34626,84.44667 h -58.2313 c -2.91617,-2.91661 -8.73476,-2.91661 -11.65095,-5.81945 l -2.91617,-2.916603 V 90.746418 79.093762 c 0,-2.916603 0,-8.736052 0,-11.652656 2.91617,-5.819449 8.73477,-8.736052 14.55748,-8.736052 v -78.624481 c 37.84973,-168.894733 8.73476,-139.775473 180.51662,-139.775473 2.91617,0 11.65094,0 14.55748,2.9166 11.65094,5.81945 23.29362,23.29569 20.38157,34.94422 v 101.918782 h 625.98682 v 101.920165 5.819449 c -2.9162,2.916603 -5.81859,8.736052 -8.73476,11.652654 l -5.81859,2.9166 c -2.91618,0 -5.81859,0 -8.73477,2.9166 z"
       style="fill:#ffffff;fill-opacity:1;fill-rule:nonzero;stroke:none;stroke-width:36.39753342"
       inkscape:connector-curvature="0" />
    <path
       id="path852"
       d="m 196.84572,-57.769232 v 5.819449 c 0,2.916603 2.91617,5.819449 5.81859,8.736053 l 2.91617,2.916602 h 5.81859 116.46261 c 8.73476,2.916604 23.29361,-11.652655 23.29361,-23.295683 v -46.592739 c 0,-11.65266 -14.55885,-23.29568 -23.29361,-23.29568 h -96.08103 c -8.73476,0 -20.38158,11.65265 -20.38158,20.38458 z"
       style="fill:#782d00;fill-opacity:1;fill-rule:nonzero;stroke:none;stroke-width:36.39753342"
       inkscape:connector-curvature="0" />
  </g>
</svg>
