<?xml version="1.0" encoding="UTF-8" standalone="no"?>
<!-- Created with Inkscape (http://www.inkscape.org/) -->

<svg
   xmlns:dc="http://purl.org/dc/elements/1.1/"
   xmlns:cc="http://creativecommons.org/ns#"
   xmlns:rdf="http://www.w3.org/1999/02/22-rdf-syntax-ns#"
   xmlns:svg="http://www.w3.org/2000/svg"
   xmlns="http://www.w3.org/2000/svg"
   xmlns:sodipodi="http://sodipodi.sourceforge.net/DTD/sodipodi-0.dtd"
   xmlns:inkscape="http://www.inkscape.org/namespaces/inkscape"
   width="990mm"
   height="602mm"
   viewBox="0 0 990 602.00001"
   version="1.1"
   id="svg8781"
   inkscape:version="0.92.2 (5c3e80d, 2017-08-06)"
   sodipodi:docname="44.svg">
  <defs
     id="defs8775">
    <pattern
       y="0"
       x="0"
       height="6"
       width="6"
       patternUnits="userSpaceOnUse"
       id="EMFhbasepattern" />
  </defs>
  <sodipodi:namedview
     id="base"
     pagecolor="#ffffff"
     bordercolor="#666666"
     borderopacity="1.0"
     inkscape:pageopacity="0.0"
     inkscape:pageshadow="2"
     inkscape:zoom="0.18958994"
     inkscape:cx="2050.4782"
     inkscape:cy="920.31832"
     inkscape:document-units="mm"
     inkscape:current-layer="layer1"
     showgrid="false"
     showguides="true"
     inkscape:window-width="1920"
     inkscape:window-height="1057"
     inkscape:window-x="-8"
     inkscape:window-y="-8"
     inkscape:window-maximized="1"
     inkscape:snap-global="true"
     fit-margin-top="0"
     fit-margin-left="0"
     fit-margin-right="0"
     fit-margin-bottom="0" />
  <metadata
     id="metadata8778">
    <rdf:RDF>
      <cc:Work
         rdf:about="">
        <dc:format>image/svg+xml</dc:format>
        <dc:type
           rdf:resource="http://purl.org/dc/dcmitype/StillImage" />
        <dc:title></dc:title>
      </cc:Work>
    </rdf:RDF>
  </metadata>
  <g
     inkscape:label="Layer 1"
     inkscape:groupmode="layer"
     id="layer1"
     transform="translate(-84.340927,375.44855)">
    <path
       id="path833"
       d="m 223.83414,216.72381 -88.25095,-5.87768 C 132.63686,202.02266 88.516928,81.43573 88.516928,78.49411 V -33.267968 c 0,-41.17711 -8.825026,-188.233062 2.946344,-223.526932 26.475288,-73.52802 -2.946344,-111.76342 155.909548,-105.88022 32.35821,0 76.48229,2.9458 111.78268,0 17.65018,-2.9458 41.18331,-11.7693 58.8335,-11.7693 h 55.89273 c 11.77143,0 126.4921,14.7054 129.43288,20.5886 14.70941,-17.6469 105.90113,-5.8777 132.37642,-8.8235 17.65018,-2.9458 38.24114,-11.7692 55.89134,-11.7692 h 55.89133 c 17.65019,0 38.24255,8.8234 55.89273,11.7692 58.83351,5.8777 117.66707,-23.5301 155.90817,32.3523 5.8788,35.29385 2.9464,102.93998 2.9464,138.23246 0,17.64694 -8.8252,38.23549 -8.8252,55.88243 -8.8251,91.174912 38.2426,211.76184 11.7714,302.93675 -14.708,49.99919 -61.7742,52.93942 -161.79243,58.82266 h -55.89134 c -17.65019,0 -38.24115,-8.82347 -55.89134,-8.82347 -61.77567,-5.87768 -132.37642,0 -194.1507,0 l -5.87876,-5.87768 c -2.94632,5.87768 -55.89272,14.70532 -61.77566,14.70532 h -55.89134 c -17.65019,0 -38.24254,-8.82347 -55.89273,-8.82347 -61.77428,-5.87768 -132.37503,0 -194.1507,0 z"
       style="fill:#782d00;fill-opacity:1;fill-rule:nonzero;stroke:none;stroke-width:36.76783752"
       inkscape:connector-curvature="0" />
    <path
       id="path835"
       d="M 849.11496,-94.665777 978.39251,69.813547 c 8.81451,5.869711 17.62901,32.308343 17.62901,46.995083 0,23.49686 -14.69037,46.9937 -38.19526,58.74282 h 70.51464 v -514 h -70.51464 l -85.20641,85.1773 c 5.87171,2.94179 11.7573,14.68537 11.7573,23.49686 v 8.81149 c 0,5.86971 -5.87172,17.62298 -11.7573,23.49684 -20.56765,14.68537 -32.31938,41.11983 -32.31938,64.61669 0,5.8697 2.94278,38.183593 8.81449,38.183593 z"
       style="fill:#ffffff;fill-opacity:1;fill-rule:nonzero;stroke:none;stroke-width:36.7208252"
       inkscape:connector-curvature="0" />
    <path
       id="path837"
       d="m 299.68123,43.379077 c -11.7573,14.686748 -41.13389,29.372096 -61.70153,29.372096 -26.44351,0 -44.07252,-8.811481 -64.63877,-26.434469 V 175.55145 h 478.9177 l 73.45327,-44.05746 c 32.31939,-11.75327 55.82566,-67.554298 55.82566,-99.862646 0,-38.183592 -14.69177,-73.428168 -44.07252,-99.86265 -17.62901,-11.753275 -23.50488,-35.245964 -23.50488,-55.806564 0,-26.43449 11.7573,-49.93133 35.25663,-64.61669 l 73.45466,-29.37071 c 2.9428,-2.9418 8.81451,-11.75328 8.81451,-17.62299 0,-5.8697 -5.87171,-14.68674 -8.81451,-17.62299 l -52.88702,-35.24596 h -67.5774 l -49.9484,85.17729 H 514.16519 l -85.20503,158.605468 c 20.56626,17.622978 38.19527,29.37071 67.57602,29.37071 20.56765,0 47.01115,-11.753275 61.70153,-29.37071 h 8.81451 V 2.2592457 c 20.56763,11.7532753 32.31938,17.6229873 55.82426,17.6229873 23.50628,0 47.01115,-11.7532853 61.70153,-26.434481 h 11.75731 v 49.931325 h -11.75731 c -11.7573,14.686748 -41.13388,29.372096 -61.70153,29.372096 -23.50488,0 -49.94839,-8.811481 -64.63877,-29.372096 -14.69038,14.686748 -44.07252,29.372096 -61.70153,29.372096 -23.50489,0 -52.88564,-8.811481 -67.57602,-29.372096 -14.69176,14.686748 -41.13528,29.372096 -61.70152,29.372096 -23.50489,0 -52.88703,-8.811481 -67.57741,-29.372096 z"
       style="fill:#ffffff;fill-opacity:1;fill-rule:nonzero;stroke:none;stroke-width:36.7208252"
       inkscape:connector-curvature="0" />
    <path
       id="path839"
       d="m 558.23771,-30.049092 v 23.496844 c -14.69038,17.622987 -41.13388,29.372098 -61.70153,29.372098 -29.38075,0 -47.00976,-8.811483 -67.57602,-29.372098 -14.69176,17.622987 -41.13528,29.372098 -61.70152,29.372098 -26.44352,0 -47.01115,-8.811483 -67.57741,-29.372098 -14.69038,17.622987 -38.19665,29.372098 -58.7629,29.372098 -29.38214,0 -49.9484,-8.811483 -67.5774,-29.372098 v -23.496844 c 17.629,17.622977 38.19526,26.4344713 67.5774,26.4344713 20.56625,0 44.07252,-11.7532853 58.7629,-26.4344713 20.56626,17.622977 41.13389,26.4344713 67.57741,26.4344713 20.56624,0 47.00976,-11.7532853 61.70152,-26.4344713 20.56626,17.622977 38.19527,26.4344713 67.57602,26.4344713 20.56765,0 47.01115,-11.7532853 61.70153,-26.4344713 z"
       style="fill:#ffffff;fill-opacity:1;fill-rule:evenodd;stroke:none;stroke-width:36.7208252"
       inkscape:connector-curvature="0" />
    <path
       id="path841"
       d="M 684.57801,8.1345002 V 34.567584 c -14.69038,14.686747 -38.19525,26.43448 -58.7629,26.43448 -29.38075,0 -49.94839,-8.811493 -67.5774,-26.43448 -14.69038,14.686747 -41.13388,26.43448 -61.70153,26.43448 -29.38075,0 -47.00976,-8.811493 -67.57602,-26.43448 -14.69176,14.686747 -41.13528,26.43448 -61.70152,26.43448 -26.44352,0 -47.01115,-8.811493 -67.57741,-26.43448 -14.69038,14.686747 -38.19665,26.43448 -58.7629,26.43448 -29.38214,0 -49.9484,-8.811493 -67.5774,-26.43448 V 8.1345002 c 17.629,17.6229778 38.19526,26.4330838 67.5774,26.4330838 20.56625,0 44.07252,-11.753276 58.7629,-26.4330838 20.56626,17.6229778 41.13389,26.4330838 67.57741,26.4330838 20.56624,0 47.00976,-11.753276 61.70152,-26.4330838 20.56626,17.6229778 38.19527,26.4330838 67.57602,26.4330838 20.56765,0 47.01115,-11.753276 61.70153,-26.4330838 17.62901,17.6229778 38.19665,26.4330838 67.5774,26.4330838 20.56765,0 44.07252,-11.753276 58.7629,-26.4330838 z"
       style="fill:#ffffff;fill-opacity:1;fill-rule:evenodd;stroke:none;stroke-width:36.7208252"
       inkscape:connector-curvature="0" />
  </g>
</svg>
