<?xml version="1.0" encoding="UTF-8" standalone="no"?>
<!-- Created with Inkscape (http://www.inkscape.org/) -->

<svg
   xmlns:dc="http://purl.org/dc/elements/1.1/"
   xmlns:cc="http://creativecommons.org/ns#"
   xmlns:rdf="http://www.w3.org/1999/02/22-rdf-syntax-ns#"
   xmlns:svg="http://www.w3.org/2000/svg"
   xmlns="http://www.w3.org/2000/svg"
   xmlns:sodipodi="http://sodipodi.sourceforge.net/DTD/sodipodi-0.dtd"
   xmlns:inkscape="http://www.inkscape.org/namespaces/inkscape"
   width="978mm"
   height="602mm"
   viewBox="0 0 978 602.00001"
   version="1.1"
   id="svg8781"
   inkscape:version="0.92.2 (5c3e80d, 2017-08-06)"
   sodipodi:docname="22.svg">
  <defs
     id="defs8775">
    <pattern
       y="0"
       x="0"
       height="6"
       width="6"
       patternUnits="userSpaceOnUse"
       id="EMFhbasepattern" />
    <pattern
       y="0"
       x="0"
       height="6"
       width="6"
       patternUnits="userSpaceOnUse"
       id="EMFhbasepattern-3" />
    <pattern
       y="0"
       x="0"
       height="6"
       width="6"
       patternUnits="userSpaceOnUse"
       id="EMFhbasepattern-2" />
    <pattern
       y="0"
       x="0"
       height="6"
       width="6"
       patternUnits="userSpaceOnUse"
       id="EMFhbasepattern-33" />
    <pattern
       y="0"
       x="0"
       height="6"
       width="6"
       patternUnits="userSpaceOnUse"
       id="EMFhbasepattern-1" />
    <pattern
       y="0"
       x="0"
       height="6"
       width="6"
       patternUnits="userSpaceOnUse"
       id="EMFhbasepattern-4" />
  </defs>
  <sodipodi:namedview
     id="base"
     pagecolor="#ffffff"
     bordercolor="#666666"
     borderopacity="1.0"
     inkscape:pageopacity="0.0"
     inkscape:pageshadow="2"
     inkscape:zoom="0.26812066"
     inkscape:cx="1885.6395"
     inkscape:cy="1043.0518"
     inkscape:document-units="mm"
     inkscape:current-layer="layer1"
     showgrid="false"
     showguides="true"
     inkscape:window-width="1920"
     inkscape:window-height="1057"
     inkscape:window-x="-8"
     inkscape:window-y="-8"
     inkscape:window-maximized="1"
     inkscape:snap-global="false"
     fit-margin-top="0"
     fit-margin-left="0"
     fit-margin-right="0"
     fit-margin-bottom="0" />
  <metadata
     id="metadata8778">
    <rdf:RDF>
      <cc:Work
         rdf:about="">
        <dc:format>image/svg+xml</dc:format>
        <dc:type
           rdf:resource="http://purl.org/dc/dcmitype/StillImage" />
        <dc:title></dc:title>
      </cc:Work>
    </rdf:RDF>
  </metadata>
  <g
     inkscape:label="Layer 1"
     inkscape:groupmode="layer"
     id="layer1"
     transform="translate(-84.340927,375.44855)">
    <path
       d="m 223.30195,214.60415 -90.8552,-45.4375 c -4.3649,-8.6365 -45.427597,-89.29177 -45.427597,-90.87497 v -112.7546 c 0,-39.2477 -6.1462,-187.843 5.0856,-222.102 24.656897,-75.1852 -4.9904,-111.2177 153.936797,-106.9484 34.2026,0.952 78.4785,3.3593 113.5445,0 17.8934,-1.7273 38.8558,-10.9351 56.4133,-10.9351 h 56.3643 c 12.1428,0 125.9702,14.7786 130.4316,20.1999 14.343,-17.3696 105.1016,-6.814 130.3827,-9.2621 17.8444,-1.7273 38.8558,-10.9351 56.4119,-10.9351 h 56.3657 c 17.8444,0 39.0951,9.167 57.2278,10.9351 58.763,5.6579 96.5635,0.544 135.46695,57.1926 7.1524,33.1071 22.6907,79.7918 22.6907,112.8022 0,17.8497 -9.2058,39.105 -10.9327,57.2416 -8.825,91.5944 16.501,193.8411 -11.7485,282.74937 -12.4284,52.1549 -36.2654,72.0189 -135.46695,79.0722 h -57.2278 c -17.5575,0 -38.5199,-9.1669 -56.3657,-10.935 -61.5926,-5.9435 -130.622,0 -192.696,0 l -6.7173,-3.3594 c -1.8221,4.2163 -55.2126,14.2985 -61.4486,14.2985 h -56.3656 c -17.5562,0 -38.5199,-9.1669 -56.3644,-10.935 -61.5451,-5.9436 -130.622,0 -192.696,0"
       style="fill:#782d00;fill-opacity:1;fill-rule:nonzero;stroke:none;stroke-width:47.97531128"
       id="path6315"
       inkscape:connector-curvature="0" />
    <path
       d="m 834.77504,120.82067 c 0,-21.31799 20.01214,-42.780205 41.86566,-42.780205 21.75655,0 43.61006,19.621958 43.61006,41.908155 0,21.60641 -18.41319,43.60283 -41.04194,43.60283 -24.03403,0 -44.43378,-18.169 -44.43378,-42.73078"
       style="fill:#ffffff;fill-opacity:1;fill-rule:nonzero;stroke:none;stroke-width:48.45160294"
       id="path7392"
       inkscape:connector-curvature="0" />
    <path
       d="m 671.43111,120.82067 c 0,-21.31799 20.25445,-42.780205 41.91415,-42.780205 21.75655,0 43.61007,19.621958 43.61007,41.908155 0,5.61688 -1.11258,13.70571 -3.44074,18.79659 -5.57247,12.35986 -23.93704,24.80624 -37.60162,24.80624 -23.64627,0 -44.48226,-18.5082 -44.48226,-42.73078"
       style="fill:#ffffff;fill-opacity:1;fill-rule:nonzero;stroke:none;stroke-width:48.45160294"
       id="path7394"
       inkscape:connector-curvature="0" />
    <path
       d="m 223.45895,120.82067 c 0,-7.64937 3.87615,-20.39651 8.52835,-26.500904 5.66862,-7.415912 23.98553,-16.279301 33.33759,-16.279301 22.62875,0 42.73786,19.378877 42.73786,41.908155 0,22.28483 -17.54099,43.60283 -41.04194,43.60283 -23.93705,0 -43.56158,-18.5082 -43.56158,-42.73078"
       style="fill:#ffffff;fill-opacity:1;fill-rule:nonzero;stroke:none;stroke-width:48.45160294"
       id="path7396"
       inkscape:connector-curvature="0" />
    <path
       d="m 904.01806,-92.930712 c 2.42294,0.549327 5.37881,0.961326 7.70423,1.744116 2.56852,0.961326 10.99934,5.713001 12.79181,7.704307 1.55074,1.647981 3.0534,4.84781 4.26487,6.825389 l 42.78635,87.20567 11.09686,11.920399 c 6.10541,6.784186 10.75761,19.185238 9.40055,28.245023 V 77.2151 c 1.01642,-0.274668 2.32541,0.274659 3.14954,0.549327 l 2.85835,1.098655 3.39128,4.257278 0.8791,4.312219 v 25.628851 c -0.6318,1.09865 -1.7925,3.3921 -2.56856,4.25728 l -3.39129,2.56811 -4.31293,0.82399 h -50.44221 c -4.60275,-39.970411 -27.28053,-63.272859 -68.37096,-63.272859 -29.31558,0 -63.37992,33.138157 -59.8911,63.272859 H 778.33058 C 779.49809,89.558474 746.78587,52.980167 714.22378,57.437951 H 650.06837 V 120.71081 H 329.43758 c 1.40514,-38.370491 -32.02928,-63.272859 -67.54724,-63.272859 -29.80016,0 -63.47688,32.5078 -59.84262,63.272859 H 165.26981 L 159.31,119.88682 c -1.93807,-0.68666 -8.23715,-5.90526 -9.40054,-7.7043 l -2.56853,-5.96021 v -260.74493 c 0,-9.3523 8.43082,-17.92593 17.92846,-17.92593 h 577.15493 c 9.49669,2.12865 17.97709,6.68806 17.97709,17.92593 V 17.3206 h 21.32045 v -92.340503 c 0,-11.233734 8.48026,-15.79452 17.97709,-17.973976 h 104.32488"
       style="fill:#ffffff;fill-opacity:1;fill-rule:nonzero;stroke:none;stroke-width:48.45160294"
       id="path7398"
       inkscape:connector-curvature="0" />
    <path
       d="m 925.387,-0.5902086 5.13705,-0.8239958 3.39129,-2.5681021 c 1.20872,-2.2797084 2.56853,-6.8803205 2.56853,-9.3934925 l -0.82413,-2.609297 -22.24113,-43.554772 c -2.51908,-6.097529 -12.21082,-11.961594 -18.80068,-11.961594 h -73.55568 c -6.3966,0 -17.9286,7.264848 -17.9286,14.533814 v 39.290617 c 0,7.7455106 9.49668,19.428328 17.9286,17.1019268 h 104.32489"
       style="fill:#782d00;fill-opacity:1;fill-rule:nonzero;stroke:none;stroke-width:48.45160294"
       id="path7400"
       inkscape:connector-curvature="0" />
  </g>
</svg>
