<?xml version="1.0" encoding="UTF-8" standalone="no"?>
<!-- Created with Inkscape (http://www.inkscape.org/) -->

<svg
   xmlns:dc="http://purl.org/dc/elements/1.1/"
   xmlns:cc="http://creativecommons.org/ns#"
   xmlns:rdf="http://www.w3.org/1999/02/22-rdf-syntax-ns#"
   xmlns:svg="http://www.w3.org/2000/svg"
   xmlns="http://www.w3.org/2000/svg"
   xmlns:sodipodi="http://sodipodi.sourceforge.net/DTD/sodipodi-0.dtd"
   xmlns:inkscape="http://www.inkscape.org/namespaces/inkscape"
   width="978mm"
   height="602mm"
   viewBox="0 0 978 602.00001"
   version="1.1"
   id="svg8781"
   inkscape:version="0.92.2 (5c3e80d, 2017-08-06)"
   sodipodi:docname="22.svg">
  <defs
     id="defs8775">
    <pattern
       y="0"
       x="0"
       height="6"
       width="6"
       patternUnits="userSpaceOnUse"
       id="EMFhbasepattern" />
    <pattern
       y="0"
       x="0"
       height="6"
       width="6"
       patternUnits="userSpaceOnUse"
       id="EMFhbasepattern-3" />
    <pattern
       y="0"
       x="0"
       height="6"
       width="6"
       patternUnits="userSpaceOnUse"
       id="EMFhbasepattern-2" />
  </defs>
  <sodipodi:namedview
     id="base"
     pagecolor="#ffffff"
     bordercolor="#666666"
     borderopacity="1.0"
     inkscape:pageopacity="0.0"
     inkscape:pageshadow="2"
     inkscape:zoom="0.18958994"
     inkscape:cx="1458.5509"
     inkscape:cy="886.14281"
     inkscape:document-units="mm"
     inkscape:current-layer="layer1"
     showgrid="false"
     showguides="true"
     inkscape:window-width="1920"
     inkscape:window-height="1057"
     inkscape:window-x="-8"
     inkscape:window-y="-8"
     inkscape:window-maximized="1"
     inkscape:snap-global="true"
     fit-margin-top="0"
     fit-margin-left="0"
     fit-margin-right="0"
     fit-margin-bottom="0" />
  <metadata
     id="metadata8778">
    <rdf:RDF>
      <cc:Work
         rdf:about="">
        <dc:format>image/svg+xml</dc:format>
        <dc:type
           rdf:resource="http://purl.org/dc/dcmitype/StillImage" />
        <dc:title></dc:title>
      </cc:Work>
    </rdf:RDF>
  </metadata>
  <g
     inkscape:label="Layer 1"
     inkscape:groupmode="layer"
     id="layer1"
     transform="translate(-84.340927,375.44855)">
    <path
       d="m 223.30195,214.60415 -90.8552,-45.4375 c -4.3649,-8.6365 -45.427597,-89.2918 -45.427597,-90.875 v -112.7546 c 0,-39.2477 -6.1462,-187.843 5.0856,-222.102 24.656897,-75.1852 -4.9904,-111.2177 153.936797,-106.9484 34.2026,0.952 78.4785,3.3593 113.5445,0 17.8934,-1.7273 38.8558,-10.9351 56.4133,-10.9351 h 56.3643 c 12.1428,0 125.9702,14.7786 130.4316,20.1999 14.343,-17.3696 105.1016,-6.814 130.3827,-9.2621 17.8444,-1.7273 38.8558,-10.9351 56.4119,-10.9351 h 56.3657 c 17.8444,0 39.0951,9.167 57.2278,10.9351 58.763,5.6579 96.5635,0.544 135.46695,57.1926 7.1524,33.1071 22.6907,79.7918 22.6907,112.8022 0,17.8497 -9.2058,39.105 -10.9327,57.2416 -8.825,91.5944 16.501,193.8411 -11.7485,282.7494 -12.4284,52.1549 -36.2654,72.0189 -135.46695,79.0722 h -57.2278 c -17.5575,0 -38.5199,-9.1669 -56.3657,-10.935 -61.5926,-5.9435 -130.622,0 -192.696,0 l -6.7173,-3.3594 c -1.8221,4.2163 -55.2126,14.2985 -61.4486,14.2985 h -56.3656 c -17.5562,0 -38.5199,-9.1669 -56.3644,-10.935 -61.5451,-5.9436 -130.622,0 -192.696,0"
       style="fill:#782d00;fill-opacity:1;fill-rule:nonzero;stroke:none;stroke-width:47.97531128"
       id="path6315"
       inkscape:connector-curvature="0" />
    <path
       d="m 868.88999,101.69901 c 0,-15.69962 -7.07365,-26.16604 -20.49708,-33.627132 -1.84052,-0.961487 -9.1614,-3.969546 -11.09807,-3.969546 h -9.44983 c -17.10448,0 -35.0317,16.911091 -35.0317,34.209521 v 9.395057 c 0,17.73521 20.30204,32.51319 36.77607,32.51319 h 9.39489 c 10.42504,0 29.89748,-20.68972 29.89748,-30.81686 v -7.7056"
       style="fill:#ffffff;fill-opacity:1;fill-rule:nonzero;stroke:none;stroke-width:48.4552269"
       id="path7088"
       inkscape:connector-curvature="0" />
    <path
       d="m 868.88999,-216.31522 c 0,-16.23256 -13.22703,-34.20948 -30.76828,-34.20948 -2.47234,0 -15.11837,1.68942 -17.10449,2.56853 -7.41702,3.29644 -19.67295,18.12252 -19.67295,26.50526 v 7.7056 c 0,6.20841 5.5765,18.99475 10.27395,23.06457 5.28805,4.56017 17.0564,8.52972 23.93637,8.52972 18.75133,0 33.33677,-15.79577 33.33677,-34.16146"
       style="fill:#ffffff;fill-opacity:1;fill-rule:nonzero;stroke:none;stroke-width:48.4552269"
       id="path7090"
       inkscape:connector-curvature="0" />
    <path
       d="m 803.08864,-70.124658 -23.11364,-58.146302 23.11364,-10.27412 113.6741,282.15784 c 2.6097,4.60137 8.33729,8.52971 13.70776,8.52971 5.04083,0 11.38651,-3.04927 13.66655,-7.65065 l 1.09882,-4.02449 c 0.13735,-0.82412 0.54941,-1.09883 0.54941,-1.99163 0,-1.23619 -0.82412,-5.71395 -1.70317,-6.82652 L 880.80117,-26.510464 v -3.433863 l 4.31286,-2.568535 c 0.82412,0.549421 2.76079,1.744404 3.3926,2.568535 l 28.1998,69.243173 2.56849,5.13706 c 1.49713,0.961477 8.81801,4.257985 10.27395,4.257985 5.96108,0 12.3617,-3.681096 14.24618,-9.395045 l 1.23616,-3.392657 V 29.903791 L 874.917,-143.66428 h 116.29205 c 1.09881,0.27471 2.51354,-0.27471 3.3926,-0.54942 4.98588,-1.7032 8.81795,-4.79367 11.13925,-9.69723 v -6.00239 l -0.8241,-5.13706 c -1.9366,-4.16185 -9.0103,-8.81817 -13.66655,-8.52972 H 823.64478 c -10.80962,0 -21.70853,2.41744 -31.64184,6.84026 l -45.30428,19.67191 -2.56848,2.56853 c -0.41206,1.09884 -1.37352,5.76889 -0.82412,6.82653 l 32.46459,78.643715 c 0.96146,2.568525 4.409,6.496865 6.8264,7.705586 l 4.02443,1.098842 c 0.68675,0.274711 1.23616,0.549411 1.9916,0.549411 5.04083,0 11.33156,-3.049264 13.66655,-7.650641 l 1.09882,-4.02449 c 0.2747,-0.824132 0.54941,-1.098842 0.54941,-1.991647 l -0.82411,-6.840248"
       style="fill:#ffffff;fill-opacity:1;fill-rule:nonzero;stroke:none;stroke-width:48.4552269"
       id="path7092"
       inkscape:connector-curvature="0" />
    <path
       d="m 634.65905,87.162785 c 2.03282,2.321292 3.3926,6.400716 3.3926,9.44999 l -0.82411,5.082115 -3.43381,4.31294 -20.54515,17.92888 -4.25792,2.56854 h -5.13697 c -1.49715,0 -3.5849,-0.54942 -5.08204,-0.82414 l -29.07198,-17.05668 c -9.25754,5.27442 -21.07807,9.2989 -31.64184,10.21918 l -21.3679,36.77668 H 428.60044 L 360.2306,-15.379255 h 130.77996 c -2.08775,-6.304575 -3.3926,-13.857697 -3.3926,-20.496047 0,-19.916409 9.9855,-31.255026 24.76049,-42.787313 -4.69744,5.32936 -5.08204,14.440085 -5.08204,21.417699 0,2.911908 2.47235,10.219177 4.25793,12.787702 0.96146,0.961487 2.28005,2.664685 3.3926,3.447601 l 4.25792,1.689459 h 4.31286 c 2.32125,-0.824121 5.7688,-3.63989 6.82641,-5.961182 l 0.82411,-4.312938 c 0.96146,0.961487 2.28005,1.840553 3.3926,2.568535 l 4.25792,1.744403 h 4.31287 l 4.25791,-1.744403 c 1.23618,-0.961487 4.12057,-5.040911 4.25792,-6.82652 1.09882,2.376226 4.46395,5.082116 6.82641,6.002388 h 4.25792 l 4.31286,-1.744403 c 1.401,-0.961478 5.08203,-4.065696 5.13697,-5.961183 0,-3.488807 0.54942,-7.801745 0,-11.139458 -0.68675,-4.257985 -3.77718,-10.75486 -6.00228,-14.536235 3.73597,3.049274 9.0103,6.689174 11.96338,10.274121 4.50515,5.480454 9.39489,19.431551 9.39489,26.505314 0,8.186325 -5.48036,19.431542 -9.39489,26.505305 8.14498,-6.098548 23.16033,-11.098253 33.33677,-11.098253 10.12285,0 20.3501,2.032853 29.94416,5.137061 2.37619,1.098842 5.08204,4.409088 5.96109,6.826529 v 4.257985 l -1.70317,4.2579943 -3.43381,3.4476012 c -7.74666,3.4888067 -17.97666,6.8265197 -26.45542,6.8265197 -11.23541,0 -23.64656,-2.8569744 -33.38621,-8.5709231 l 14.53736,18.8491639 c 4.45021,22.774753 11.13928,45.015204 26.5035,62.992171 3.29645,3.777246 6.68905,9.601083 11.13926,12.210814"
       style="fill:#ffffff;fill-opacity:1;fill-rule:evenodd;stroke:none;stroke-width:48.4552269"
       id="path7094"
       inkscape:connector-curvature="0" />
    <path
       d="m 479.02245,-94.933634 2.56849,3.433863 0.82411,4.257994 -1.70316,4.257984 c -1.49714,1.59332 -4.65624,3.392658 -6.88135,3.447602 H 290.04085 L 195.11807,-314.64324 h 154.76441 l -7.70545,-6.00236 -2.5685,-3.43383 -0.8241,-4.25804 c 0.68675,-2.37625 3.14536,-5.38433 5.08203,-6.82647 l 3.44754,-0.82422 h 264.17647 l 94.92278,235.15515 H 471.31012 l 7.65053,5.961189"
       style="fill:#ffffff;fill-opacity:1;fill-rule:nonzero;stroke:none;stroke-width:48.4552269"
       id="path7096"
       inkscape:connector-curvature="0" />
    <path
       d="M 150.74093,-327.47217 355.0744,176.95145 h 24.80993 l -207.77413,-513 -21.36927,8.57088"
       style="fill:#ffffff;fill-opacity:1;fill-rule:nonzero;stroke:none;stroke-width:48.4552269"
       id="path7098"
       inkscape:connector-curvature="0" />
    <path
       d="m 437.98159,38.465105 -1.70316,5.137061 c 0,3.969545 3.20031,9.395044 6.82641,11.098242 h 3.43381 c 24.17812,2.815769 48.89053,-12.980001 58.14533,-35.081727 l 7.65052,4.312939 c -10.3701,24.565862 -40.1206,42.15548 -66.67354,39.297136 -2.91187,0.686766 -10.90577,-3.008068 -12.84244,-5.137061 -1.49713,-1.648253 -5.13696,-9.642288 -5.13696,-11.96358 v -5.961192 l 2.56848,-5.961182 c 4.35406,-8.818167 22.773,-23.501366 31.64047,-27.3775115 5.81,-2.5685352 16.81466,-5.1370604 23.11363,-5.1370604 3.87334,0 8.04885,0.5494212 11.96339,0.8241318 v 8.5297171 c -3.63984,-0.27471 -7.51317,-0.824131 -11.13927,-0.824131 -13.18582,0 -30.96332,8.776951 -40.17005,17.976966 -2.4174,2.417432 -5.52155,7.554492 -7.70545,10.274121"
       style="fill:#782d00;fill-opacity:1;fill-rule:nonzero;stroke:none;stroke-width:48.4552269"
       id="path7100"
       inkscape:connector-curvature="0" />
    <path
       d="m 557.71294,37.592898 c -1.09882,-2.376235 -2.08776,-5.521649 -3.44754,-7.705585 -5.42542,-8.680812 -16.86274,-15.99082 -27.37706,-15.360357 v 5.961182 l 5.13698,0.824132 v 5.13706 c 0.82412,1.991637 4.16177,6.593015 6.0023,7.705586 l 3.3926,1.098833 c 3.96948,0.549421 6.24952,-0.549412 8.57078,-0.274701 l 1.70317,4.257984 6.8264,-0.824121 -0.82412,-0.824132"
       style="fill:#782d00;fill-opacity:1;fill-rule:nonzero;stroke:none;stroke-width:48.4552269"
       id="path7102"
       inkscape:connector-curvature="0" />
  </g>
</svg>
