<?xml version="1.0" encoding="UTF-8" standalone="no"?>
<!-- Created with Inkscape (http://www.inkscape.org/) -->

<svg
   xmlns:dc="http://purl.org/dc/elements/1.1/"
   xmlns:cc="http://creativecommons.org/ns#"
   xmlns:rdf="http://www.w3.org/1999/02/22-rdf-syntax-ns#"
   xmlns:svg="http://www.w3.org/2000/svg"
   xmlns="http://www.w3.org/2000/svg"
   xmlns:sodipodi="http://sodipodi.sourceforge.net/DTD/sodipodi-0.dtd"
   xmlns:inkscape="http://www.inkscape.org/namespaces/inkscape"
   width="978mm"
   height="602mm"
   viewBox="0 0 978 602.00001"
   version="1.1"
   id="svg8781"
   inkscape:version="0.92.2 (5c3e80d, 2017-08-06)"
   sodipodi:docname="22.svg">
  <defs
     id="defs8775">
    <pattern
       y="0"
       x="0"
       height="6"
       width="6"
       patternUnits="userSpaceOnUse"
       id="EMFhbasepattern" />
    <pattern
       y="0"
       x="0"
       height="6"
       width="6"
       patternUnits="userSpaceOnUse"
       id="EMFhbasepattern-3" />
  </defs>
  <sodipodi:namedview
     id="base"
     pagecolor="#ffffff"
     bordercolor="#666666"
     borderopacity="1.0"
     inkscape:pageopacity="0.0"
     inkscape:pageshadow="2"
     inkscape:zoom="0.18958994"
     inkscape:cx="2349.2671"
     inkscape:cy="820.46931"
     inkscape:document-units="mm"
     inkscape:current-layer="layer1"
     showgrid="false"
     showguides="true"
     inkscape:window-width="1920"
     inkscape:window-height="1057"
     inkscape:window-x="-8"
     inkscape:window-y="-8"
     inkscape:window-maximized="1"
     inkscape:snap-global="true"
     fit-margin-top="0"
     fit-margin-left="0"
     fit-margin-right="0"
     fit-margin-bottom="0" />
  <metadata
     id="metadata8778">
    <rdf:RDF>
      <cc:Work
         rdf:about="">
        <dc:format>image/svg+xml</dc:format>
        <dc:type
           rdf:resource="http://purl.org/dc/dcmitype/StillImage" />
        <dc:title></dc:title>
      </cc:Work>
    </rdf:RDF>
  </metadata>
  <g
     inkscape:label="Layer 1"
     inkscape:groupmode="layer"
     id="layer1"
     transform="translate(-84.340927,375.44855)">
    <path
       d="m 223.30196,214.60415 -90.85521,-45.4375 c -4.3649,-8.6365 -45.427597,-89.2918 -45.427597,-90.875 v -112.7546 c 0,-39.2477 -6.1462,-187.843 5.0856,-222.102 24.656897,-75.1852 -4.9904,-111.2177 153.936807,-106.9484 34.2026,0.952 78.4785,3.3593 113.5445,0 17.8934,-1.7273 38.8558,-10.9351 56.4133,-10.9351 h 56.3643 c 12.1428,0 125.9702,14.7786 130.4316,20.1999 14.343,-17.3696 105.1016,-6.814 130.3827,-9.2621 17.8444,-1.7273 38.8558,-10.9351 56.4119,-10.9351 h 56.3657 c 17.8444,0 39.0951,9.167 57.22783,10.9351 58.763,5.6579 96.5635,0.544 135.46691,57.1926 7.1524,33.1071 22.6907,79.7918 22.6907,112.8022 0,17.8497 -9.2058,39.105 -10.9327,57.2416 -8.825,91.5944 16.501,193.8411 -11.7485,282.7494 -12.4284,52.1549 -36.2654,72.0189 -135.46691,79.0722 h -57.22783 c -17.5575,0 -38.5199,-9.1669 -56.3657,-10.935 -61.5926,-5.9435 -130.622,0 -192.696,0 l -6.7173,-3.3594 c -1.8221,4.2163 -55.2126,14.2985 -61.4486,14.2985 h -56.3656 c -17.5562,0 -38.5199,-9.1669 -56.3644,-10.935 -61.5451,-5.9436 -130.622,0 -192.696,0"
       style="fill:#782d00;fill-opacity:1;fill-rule:nonzero;stroke:none;stroke-width:47.97531128"
       id="path6315"
       inkscape:connector-curvature="0" />
    <path
       d="m 656.24372,-113.7657 c 1.38745,0 3.0524,-0.55506 4.3011,-0.83257 1.38745,-0.97139 5.13358,-5.28716 5.13358,-6.85519 v -5.13444 c -1.38745,-1.66524 -4.16236,-5.28714 -5.96605,-5.96711 l -3.46863,-0.55504 -5.96604,1.41542 c -1.94244,1.95666 -3.60738,5.09283 -4.3011,7.68785 -0.0971,4.60709 3.60737,8.75625 7.76973,10.28278 h 2.49741"
       style="fill:#ffffff;fill-opacity:1;fill-rule:nonzero;stroke:none;stroke-width:48.95043182"
       id="path6216"
       inkscape:connector-curvature="0" />
    <path
       d="m 334.77096,-227.48691 c -14.15201,-1.11009 -29.41399,1.24892 -42.73354,5.96712 l 94.02767,-91.49601 88.9357,-2.53952 c 16.74655,-0.55504 33.86772,-9.74153 53.84704,-8.56202 l 27.36056,26.53406 c 10.26715,-2.01217 25.69562,-6.85518 35.92115,-6.85518 54.47138,0 135.87323,56.15148 170.14331,94.04231 l -11.09963,11.11546 -82.08169,-58.10956 -76.11564,47.87808 -29.89961,-6.85518 78.65469,-52.13685 -51.29412,-22.2739 -82.0817,70.98315 -23.11496,-1.70684 63.29559,-66.67709 -53.01456,-6.85518 -71.80067,70.98445 -43.60764,2.53952 72.67477,-70.93596 -58.14814,-2.59501 -59.8547,67.55835"
       style="fill:#ffffff;fill-opacity:1;fill-rule:nonzero;stroke:none;stroke-width:48.95043182"
       id="path6218"
       inkscape:connector-curvature="0" />
    <path
       d="m 631.4777,-65.006446 c -42.08144,31.77121 -92.94545,47.045513 -145.36341,47.045513 -70.87107,0 -146.20975,-27.855076 -146.20975,-109.462437 0,-28.00219 15.13711,-58.69791 35.87952,-76.95707 25.40426,-5.53687 51.09988,-6.02261 76.98975,-6.02261 19.97931,0 39.40365,4.26027 58.9806,7.72947 59.77146,10.51869 122.7618,13.07201 181.25681,28.1978 -9.85092,8.42332 -10.82214,22.42091 -7.63099,34.21912 l -2.49742,3.42759 c -1.94243,0.41634 -4.16236,1.1101 -5.96605,0.83257 -5.82729,-9.3946 -13.73577,-11.11534 -23.93356,-11.11534 -12.07083,0 -20.52042,14.00038 -20.52042,24.7702 0,5.67569 4.99483,13.80759 9.43468,17.13527 -6.10479,4.94012 -9.71217,11.059839 -11.93209,18.504774 0,1.110195 -1.38746,1.706945 -1.38746,2.844843 v 8.56203 c 0,0.971383 1.66495,9.255889 2.63617,10.282777"
       style="fill:#ffffff;fill-opacity:1;fill-rule:nonzero;stroke:none;stroke-width:48.95043182"
       id="path6220"
       inkscape:connector-curvature="0" />
    <path
       d="M 135.56053,-82.972778 C 131.39817,-5.1844435 186.85465,50.4286 263.80276,50.4286 c 9.43468,0 43.3579,-6.313939 49.57369,-12.822195 l 1.66494,-53.018121 41.90107,-25.651487 c -22.03275,-18.897512 -35.87953,-58.012348 -35.87953,-86.355967 0,-31.47838 15.16486,-63.98495 37.58609,-85.52469 -7.3535,-0.27762 -14.83186,-0.83268 -22.21311,-0.83268 -87.90899,0 -162.60944,54.24204 -200.93088,130.856467"
       style="fill:#ffffff;fill-opacity:1;fill-rule:nonzero;stroke:none;stroke-width:48.95043182"
       id="path6222"
       inkscape:connector-curvature="0" />
    <path
       d="m 634.03061,-41.948579 c -40.23613,24.427584 -89.08834,36.8127396 -135.97035,36.8127396 -43.91288,0 -82.6783,-23.1064706 -121.38823,-23.1064706 -36.80911,0 -47.03464,28.10069659 -47.03464,59.871906 0,12.586374 6.24354,25.945633 13.59704,35.884271 L 238.09327,173.54867 h 34.21458 L 374.89609,70.940079 343.23443,28.203404 l 47.92261,-35.9328646 19.61857,10.282777 -41.84557,38.4778816 65.83463,63.249522 -35.10255,69.27073 11.09962,-0.83262 48.75509,-82.929753 -53.84704,-47.045433 24.76603,-39.3591567 12.07083,1.7069456 c 13.45829,46.6527191 68.0823,73.5295111 103.42072,100.0621471 4.85608,31.2827 63.97543,53.06666 85.55033,65.84452 l 8.46346,-13.65488 C 545.0394,100.89892 596.58326,109.02523 538.18539,68.393662 L 470.64419,21.34822 C 467.5918,19.238939 460.51579,9.205884 457.87963,5.9767084 c 4.85608,0.4163355 32.0224,2.1509835 35.10255,3.4275926 50.94726,20.511449 105.03016,39.212044 154.71483,62.416953 65.44615,30.498656 20.31231,61.634266 130.00431,92.328596 l 9.43468,-9.39466 C 755.57145,146.096 681.46761,83.036571 681.95322,47.886383 641.13436,37.270577 600.70399,25.759696 561.39747,10.241072 c 6.93726,3.330484 16.10832,5.967109 23.93355,5.967109 16.05283,0 33.86772,-4.204658 47.03464,-13.6548646 l 20.50655,-15.3714104 c 66.18149,18.5047776 163.7749,58.99063 218.01042,103.441172 l 9.43468,-11.115409 C 854.13608,47.539453 818.93641,39.463065 784.52758,21.349619 773.5667,15.618431 763.92391,6.3195376 752.90754,0.83677 742.08541,-4.6029939 728.93236,-6.7955809 717.86049,-11.985524 693.92693,-23.19808 670.38187,-36.610123 646.89229,-48.750959 l -12.76456,6.79968"
       style="fill:#ffffff;fill-opacity:1;fill-rule:evenodd;stroke:none;stroke-width:48.95043182"
       id="path6224"
       inkscape:connector-curvature="0" />
    <path
       d="m 822.12754,-216.37425 -2.49741,-4.26027 -101.76964,56.44432 -11.93209,-0.83257 -1.66495,20.51144 c -12.34833,19.48457 -26.87495,40.14313 -48.69958,49.591834 -8.46346,2.983554 -13.73578,9.838739 -13.73578,18.847607 0,25.407267 53.15331,41.317124 72.67477,43.61792 h 2.49741 c 30.8847,5.037329 60.93692,11.212556 91.47475,17.966432 l 3.46863,-11.157051 C 887.76792,24.680004 946.11031,92.238345 990.64754,171.05499 1002.4409,113.53385 860.50449,-10.664411 815.37066,-39.303554 l 1.38745,-11.115447 -120.59738,-44.499095 c 4.43985,-3.27488 11.93209,-16.840944 13.73579,-22.225194 l 121.44371,-81.21603 -4.3011,-7.68775 164.16339,-133.40148 h -11.93209 l -156.4769,123.1215"
       style="fill:#ffffff;fill-opacity:1;fill-rule:evenodd;stroke:none;stroke-width:48.95043182"
       id="path6226"
       inkscape:connector-curvature="0" />
  </g>
</svg>
