<?xml version="1.0" encoding="UTF-8" standalone="no"?>
<!-- Created with Inkscape (http://www.inkscape.org/) -->

<svg
   xmlns:dc="http://purl.org/dc/elements/1.1/"
   xmlns:cc="http://creativecommons.org/ns#"
   xmlns:rdf="http://www.w3.org/1999/02/22-rdf-syntax-ns#"
   xmlns:svg="http://www.w3.org/2000/svg"
   xmlns="http://www.w3.org/2000/svg"
   xmlns:sodipodi="http://sodipodi.sourceforge.net/DTD/sodipodi-0.dtd"
   xmlns:inkscape="http://www.inkscape.org/namespaces/inkscape"
   width="978mm"
   height="602mm"
   viewBox="0 0 978 602.00001"
   version="1.1"
   id="svg8781"
   inkscape:version="0.92.2 (5c3e80d, 2017-08-06)"
   sodipodi:docname="33.svg">
  <defs
     id="defs8775" />
  <sodipodi:namedview
     id="base"
     pagecolor="#ffffff"
     bordercolor="#666666"
     borderopacity="1.0"
     inkscape:pageopacity="0.0"
     inkscape:pageshadow="2"
     inkscape:zoom="0.18958994"
     inkscape:cx="1771.2401"
     inkscape:cy="715.92034"
     inkscape:document-units="mm"
     inkscape:current-layer="layer1"
     showgrid="false"
     showguides="true"
     inkscape:window-width="1920"
     inkscape:window-height="1057"
     inkscape:window-x="-8"
     inkscape:window-y="-8"
     inkscape:window-maximized="1"
     inkscape:snap-global="true"
     fit-margin-top="0"
     fit-margin-left="0"
     fit-margin-right="0"
     fit-margin-bottom="0" />
  <metadata
     id="metadata8778">
    <rdf:RDF>
      <cc:Work
         rdf:about="">
        <dc:format>image/svg+xml</dc:format>
        <dc:type
           rdf:resource="http://purl.org/dc/dcmitype/StillImage" />
        <dc:title></dc:title>
      </cc:Work>
    </rdf:RDF>
  </metadata>
  <g
     inkscape:label="Layer 1"
     inkscape:groupmode="layer"
     id="layer1"
     transform="translate(-84.340927,375.44855)">
    <path
       d="M 223.28997,214.60641 120.87312,193.44798 C 116.50819,184.81217 87.006137,79.83876 87.006137,78.25575 V -34.48989 c 0,-39.24468 -6.13267,-187.78067 5.14001,-222.08457 24.609523,-75.13018 -5.03123,-111.20888 153.889073,-106.93988 34.25181,0.9519 78.52802,3.3999 113.59434,0 17.84456,-1.7272 38.80848,-10.9342 56.36476,-10.9342 h 56.36611 c 12.18375,0 126.01877,14.825 130.43131,20.1983 14.34309,-17.3193 105.10379,-6.8135 130.43129,-9.2614 17.84592,-1.7272 38.80847,-10.9342 56.36611,-10.9342 h 56.36476 c 17.84592,0 39.09675,9.207 57.22959,10.9342 58.76343,5.6575 96.5643,0.544 135.46801,57.23706 7.1525,33.05544 22.6894,79.73644 22.6894,112.74428 0,17.84826 -9.165,39.10188 -10.9326,57.23709 -8.7843,91.63482 16.5024,193.82573 -11.7487,282.72701 -12.4285,52.19839 -36.2656,72.06076 -135.46795,79.11357 h -57.22823 c -17.55764,0 -38.5202,-9.207 -56.36612,-10.93416 -61.54557,-5.94308 -130.62302,0 -192.69754,0 l -6.71738,-3.35913 c -1.82212,4.17511 -55.21302,14.29737 -61.40143,14.29737 h -56.41372 c -17.55764,0 -38.52019,-9.207 -56.36475,-10.93416 -61.54693,-5.94308 -130.62439,0 -192.69756,0"
       style="fill:#782d00;fill-opacity:1;fill-rule:nonzero;stroke:none;stroke-width:47.97359467"
       id="path5950"
       inkscape:connector-curvature="0" />
    <path
       d="m 494.49654,-127.77641 61.54462,138.403709 51.27722,12.796789 c 4.65031,9.196845 6.85309,21.421726 6.85309,31.630633 0,25.590863 -23.69621,53.434079 -48.73586,58.035219 L 325.20872,179.75145 H 147.34093 L 199.53054,31.955288 h 39.3346 l 46.14554,-118.707243 h 43.6042 l 15.39771,-41.023095 h 150.47715"
       style="fill:#ffffff;fill-opacity:1;fill-rule:nonzero;stroke:none;stroke-width:47.94623184"
       id="path5952"
       inkscape:connector-curvature="0" />
    <path
       d="m 660.37277,-69.644735 -3.45374,1.670926 -2.54272,3.39617 v 4.265599 l 0.81585,8.58554 0.81584,7.66177 -103.42058,8.5312 L 504.715,-143.1706 H 400.38203 l 32.52365,-87.07795 h 124.81476 l 21.34523,70.01692 h 38.51876 l 24.75273,-35.84732 h 112.86942 l 16.26115,37.57259 36.7443,23.91315 -33.33814,46.103775 -114.54871,18.833833"
       style="fill:#ffffff;fill-opacity:1;fill-rule:nonzero;stroke:none;stroke-width:47.94623184"
       id="path5954"
       inkscape:connector-curvature="0" />
    <path
       d="m 559.49491,-20.139349 7.66893,17.9236688 106.00954,26.5010372 c 4.2152,0.2717 8.63436,0.81508 12.80876,0.81508 8.444,0 17.74871,-1.35847 25.66377,-4.26559 l 2.5835,-4.2656 -1.72686,-2.581089 -60.67983,-29.042751 c -0.95182,-1.38564 -3.83447,-5.556145 -4.31038,-6.805935 -0.40793,-1.35847 -0.67987,-3.790135 -0.81585,-5.13502"
       style="fill:#ffffff;fill-opacity:1;fill-rule:nonzero;stroke:none;stroke-width:47.94623184"
       id="path5956"
       inkscape:connector-curvature="0"
       sodipodi:nodetypes="cccscccccc" />
    <path
       d="m 940.7977,133.60013 61.5432,46.14996 H 747.5798 c 15.58943,-17.68322 26.47824,-41.35727 26.47824,-64.93625 0,-12.98698 -7.47858,-39.106294 -15.35012,-49.505381 l 43.60418,6.805935 15.35013,30.767996"
       style="fill:#ffffff;fill-opacity:1;fill-rule:nonzero;stroke:none;stroke-width:47.94623184"
       id="path5958"
       inkscape:connector-curvature="0"
       sodipodi:nodetypes="cccsccc" />
    <path
       d="m 748.39428,-50.044717 15.39907,-22.1879 -87.20702,15.383323 c -0.67987,-0.407539 -3.54893,1.35847 -4.26958,1.725255 l -0.81586,3.409765 v 3.396171 l 2.58352,2.540344 3.39935,0.815081 70.94451,-5.13502"
       style="fill:#ffffff;fill-opacity:1;fill-rule:nonzero;stroke:none;stroke-width:47.94623184"
       id="path5960"
       inkscape:connector-curvature="0" />
    <path
       d="m 745.85293,6.3616987 c 7.24741,2.2007199 16.26115,8.5855293 16.26115,17.0610313 v 6.84669 c 0,8.816474 -8.91991,17.108578 -17.12459,18.786296 l 68.40315,10.256454 15.39771,30.71909 c 30.26785,7.430835 92.24351,18.30675 118.8183,29.04274 1.08779,0.40754 50.51167,37.85922 54.73225,41.02174 v -303.2609 l -30.79536,-63.16345 h -61.54462 l -30.74784,47.82769 h -35.06501 l -88.07046,122.972824 -87.20702,7.716109 c 1.78126,3.110896 7.43779,8.001395 11.12269,8.531191 l 65.81285,25.6384192"
       style="fill:#ffffff;fill-opacity:1;fill-rule:nonzero;stroke:none;stroke-width:47.94623184"
       id="path5962"
       inkscape:connector-curvature="0" />
  </g>
</svg>
