<?xml version="1.0" encoding="UTF-8" standalone="no"?>
<!-- Created with Inkscape (http://www.inkscape.org/) -->

<svg
   xmlns:dc="http://purl.org/dc/elements/1.1/"
   xmlns:cc="http://creativecommons.org/ns#"
   xmlns:rdf="http://www.w3.org/1999/02/22-rdf-syntax-ns#"
   xmlns:svg="http://www.w3.org/2000/svg"
   xmlns="http://www.w3.org/2000/svg"
   xmlns:sodipodi="http://sodipodi.sourceforge.net/DTD/sodipodi-0.dtd"
   xmlns:inkscape="http://www.inkscape.org/namespaces/inkscape"
   width="602mm"
   height="602mm"
   viewBox="0 0 602 602"
   version="1.1"
   id="svg8781"
   inkscape:version="0.92.2 (5c3e80d, 2017-08-06)"
   sodipodi:docname="11.svg">
  <defs
     id="defs8775" />
  <sodipodi:namedview
     id="base"
     pagecolor="#ffffff"
     bordercolor="#666666"
     borderopacity="1.0"
     inkscape:pageopacity="0.0"
     inkscape:pageshadow="2"
     inkscape:zoom="0.24748737"
     inkscape:cx="1171.6625"
     inkscape:cy="1115.6476"
     inkscape:document-units="mm"
     inkscape:current-layer="layer1"
     showgrid="false"
     showguides="false"
     inkscape:window-width="1920"
     inkscape:window-height="1057"
     inkscape:window-x="-8"
     inkscape:window-y="-8"
     inkscape:window-maximized="1" />
  <metadata
     id="metadata8778">
    <rdf:RDF>
      <cc:Work
         rdf:about="">
        <dc:format>image/svg+xml</dc:format>
        <dc:type
           rdf:resource="http://purl.org/dc/dcmitype/StillImage" />
        <dc:title></dc:title>
      </cc:Work>
    </rdf:RDF>
  </metadata>
  <g
     inkscape:label="Layer 1"
     inkscape:groupmode="layer"
     id="layer1"
     transform="translate(0,305)">
    <path
       d="M 18.208834,246.8619 C 16.856103,237.4367 2.021174,142.5842 2.021174,141.0281 V 30.19418 c 0,-38.57923 -4.349946,-74.09291 6.591244,-107.76701 11.458405,-35.13668 -21.847897,-121.77648 0,-151.81953 84.963313,-116.72832 153.644812,-53.7184 258.490582,-63.85886 38.78486,-3.77009 70.88035,-10.74876 110.7885,-10.74876 17.12396,0 37.56873,9.05088 54.97252,10.74876 77.57104,-17.92128 118.64891,-11.36374 158.6499,44.4282 6.08728,32.82516 -3.55423,90.45936 -3.55423,122.67088 0,17.35711 -9.64151,38.58056 -11.45841,56.26655 -9.363,90.59973 43.18255,193.13269 17.21679,281.84739 -9.82717,98.0049 -123.98158,73.8109 -215.82126,73.8109 -17.12396,0 -54.55211,10.2273 -72.05007,10.2273 -53.89696,0 -92.86881,-20.9881 -145.12924,-20.9881 -10.05264,0 -34.24659,10.468 -44.07111,8.6364 -46.177127,0 -92.028006,7.6872 -98.437556,-36.7878"
       style="fill:#782d00;fill-opacity:1;fill-rule:nonzero;stroke:none;stroke-width:46.97400665"
       id="path6282"
       inkscape:connector-curvature="0" />
    <path
       d="m 67.6,163.6 c 8.428348,-9.7353 14.1,-16.4239 14.1,-30.0387 0,-11.6054 -4.379043,-26.2972 -14.1,-33.3613"
       style="fill:#ffffff;fill-opacity:1;fill-rule:nonzero;stroke:none;stroke-width:46.66035461"
       id="path6287"
       inkscape:connector-curvature="0"
       sodipodi:nodetypes="csc" />
    <path
       d="M 121.01168,-149.86744 51,-253.99998 183.54227,-112.36605 c 2.1079,2.57141 3.64574,6.7864 4.16277,10.00727 -1.19315,7.15751 -5.70062,13.93462 -13.33018,15.01089 17.49164,7.99256 23.61915,19.7322 31.66235,35.81673 3.03591,7.99256 4.16279,17.34769 4.16279,25.8585 0,27.40135 -12.85956,51.24779 -34.18787,68.3622 -31.3349,29.92636 -83.341856,103.10526 -83.341856,148.32086 0,20.0596 3.977175,36.893 12.528116,54.9896 H 86.817185 c -6.032058,-12.8172 -10.80468,-29.0847 -10.80468,-43.3467 v -15.8048 c 0,-8.7481 3.791577,-22.4905 6.641894,-30.8608 8.086934,-15.1965 11.692912,-44.5145 11.692912,-61.6753 4.069982,-24.5489 7.344539,-40.4001 21.654429,-61.67652 5.14383,-4.86445 11.63989,-21.41554 11.63989,-28.2894 v -11.6906 c 0,-6.21644 -2.71774,-15.85124 -4.95822,-21.65016 L 96.82112,-88.98616 c -1.736705,-2.14726 -3.314313,-10.98811 -3.314313,-13.37395 v -10.00726 c 0,-7.89978 7.768753,-22.02393 13.328853,-27.49412 L 95.142742,-163.195"
       style="fill:#ffffff;fill-opacity:1;fill-rule:nonzero;stroke:none;stroke-width:46.76409149"
       id="path6289"
       inkscape:connector-curvature="0"
       sodipodi:nodetypes="ccccccscsccsscccssccsscc" />
    <path
       sodipodi:nodetypes="csc"
       inkscape:connector-curvature="0"
       id="path862"
       style="fill:#ffffff;fill-opacity:1;fill-rule:nonzero;stroke:none;stroke-width:46.66035461"
       d="m 534.4,163.6 c -8.42835,-9.7353 -14.1,-16.4239 -14.1,-30.0387 0,-11.6054 4.37904,-26.2972 14.1,-33.3613" />
    <path
       sodipodi:nodetypes="ccccccscsccsscccssccsscc"
       inkscape:connector-curvature="0"
       id="path864"
       style="fill:#ffffff;fill-opacity:1;fill-rule:nonzero;stroke:none;stroke-width:46.76409149"
       d="M 480.98832,-149.86744 551,-253.99998 418.45773,-112.36605 c -2.1079,2.57141 -3.64574,6.7864 -4.16277,10.00727 1.19315,7.15751 5.70062,13.93462 13.33018,15.01089 -17.49164,7.99256 -23.61915,19.7322 -31.66235,35.81673 -3.03591,7.99256 -4.16279,17.34769 -4.16279,25.8585 0,27.40135 12.85956,51.24779 34.18787,68.3622 31.3349,29.92636 83.34186,103.10526 83.34186,148.32086 0,20.0596 -3.97718,36.893 -12.52812,54.9896 h 18.3812 c 6.03206,-12.8172 10.80468,-29.0847 10.80468,-43.3467 v -15.8048 c 0,-8.7481 -3.79157,-22.4905 -6.64189,-30.8608 -8.08693,-15.1965 -11.69291,-44.5145 -11.69291,-61.6753 -4.06998,-24.5489 -7.34454,-40.4001 -21.65443,-61.67652 -5.14383,-4.86445 -11.63989,-21.41554 -11.63989,-28.2894 v -11.6906 c 0,-6.21644 2.71774,-15.85124 4.95822,-21.65016 l 25.86229,-59.99188 c 1.7367,-2.14726 3.31431,-10.98811 3.31431,-13.37395 v -10.00726 c 0,-7.89978 -7.76875,-22.02393 -13.32885,-27.49412 l 11.69292,-23.33351" />
    <path
       style="fill:#ffffff;fill-opacity:1;fill-rule:nonzero;stroke:none;stroke-width:46.84608078"
       d="m 209,-245.79993 v 41.60005 l 8.4,6.00015 V 212.6 h 16.80001 v -63.19975 c 0,-11.08001 8.91981,-20.00033 19.99981,-20.00033 h 93.60049 c 11.07999,0 19.99981,8.92032 19.99981,20.00033 V 212.6 h 16.80001 v -410.79973 l 8.4,-6.00015 v -41.60005 H 351.2001 v 47.6002 h -8.4 v -47.6002 h -37.60029 v 47.6002 h -8.4 v -47.6002 h -37.59978 v 47.6002 h -8.4 v -47.6002 z"
       id="path866"
       inkscape:connector-curvature="0"
       sodipodi:nodetypes="cccccsssscccccccccccccccccc" />
    <path
       style="opacity:1;fill:#782d00;fill-opacity:1;fill-rule:nonzero;stroke:none;stroke-width:0.38520744;stroke-linecap:butt;stroke-linejoin:miter;stroke-miterlimit:4;stroke-dasharray:none;stroke-opacity:1;paint-order:stroke fill markers"
       d="m 276,-77.399946 v -41.099794 c 0,-5.81702 4.68313,-10.50015 10.50013,-10.50015 5.817,0 10.49962,4.68313 10.49962,10.50015 v 41.099794 z"
       id="rect903"
       inkscape:connector-curvature="0"
       sodipodi:nodetypes="cssscc" />
    <path
       sodipodi:nodetypes="cssscc"
       inkscape:connector-curvature="0"
       id="path929"
       d="m 326.00014,-77.399946 v -41.099794 c 0,-5.81702 -4.68314,-10.50015 -10.50014,-10.50015 -5.817,0 -10.49962,4.68313 -10.49962,10.50015 v 41.099794 z"
       style="opacity:1;fill:#782d00;fill-opacity:1;fill-rule:nonzero;stroke:none;stroke-width:0.38520744;stroke-linecap:butt;stroke-linejoin:miter;stroke-miterlimit:4;stroke-dasharray:none;stroke-opacity:1;paint-order:stroke fill markers" />
  </g>
</svg>
