<?xml version="1.0" encoding="UTF-8" standalone="no"?>
<!-- Created with Inkscape (http://www.inkscape.org/) -->

<svg
   xmlns:dc="http://purl.org/dc/elements/1.1/"
   xmlns:cc="http://creativecommons.org/ns#"
   xmlns:rdf="http://www.w3.org/1999/02/22-rdf-syntax-ns#"
   xmlns:svg="http://www.w3.org/2000/svg"
   xmlns="http://www.w3.org/2000/svg"
   xmlns:sodipodi="http://sodipodi.sourceforge.net/DTD/sodipodi-0.dtd"
   xmlns:inkscape="http://www.inkscape.org/namespaces/inkscape"
   width="978mm"
   height="602mm"
   viewBox="0 0 978 602.00001"
   version="1.1"
   id="svg8781"
   inkscape:version="0.92.2 (5c3e80d, 2017-08-06)"
   sodipodi:docname="22.svg">
  <defs
     id="defs8775">
    <pattern
       y="0"
       x="0"
       height="6"
       width="6"
       patternUnits="userSpaceOnUse"
       id="EMFhbasepattern" />
  </defs>
  <sodipodi:namedview
     id="base"
     pagecolor="#ffffff"
     bordercolor="#666666"
     borderopacity="1.0"
     inkscape:pageopacity="0.0"
     inkscape:pageshadow="2"
     inkscape:zoom="0.18958994"
     inkscape:cx="715.84193"
     inkscape:cy="1087.4795"
     inkscape:document-units="mm"
     inkscape:current-layer="layer1"
     showgrid="false"
     showguides="true"
     inkscape:window-width="1920"
     inkscape:window-height="1057"
     inkscape:window-x="-8"
     inkscape:window-y="-8"
     inkscape:window-maximized="1"
     inkscape:snap-global="true"
     fit-margin-top="0"
     fit-margin-left="0"
     fit-margin-right="0"
     fit-margin-bottom="0" />
  <metadata
     id="metadata8778">
    <rdf:RDF>
      <cc:Work
         rdf:about="">
        <dc:format>image/svg+xml</dc:format>
        <dc:type
           rdf:resource="http://purl.org/dc/dcmitype/StillImage" />
        <dc:title></dc:title>
      </cc:Work>
    </rdf:RDF>
  </metadata>
  <g
     inkscape:label="Layer 1"
     inkscape:groupmode="layer"
     id="layer1"
     transform="translate(-84.340927,375.44855)">
    <path
       d="m 223.30196,214.60415 -90.85521,-45.4375 c -4.3649,-8.6365 -45.427597,-89.2918 -45.427597,-90.875 v -112.7546 c 0,-39.2477 -6.1462,-187.84306 5.0856,-222.10206 24.656897,-75.1852 -4.9904,-111.2177 153.936807,-106.9484 34.2026,0.952 78.4785,3.3593 113.5445,0 17.8934,-1.7273 38.8558,-10.9351 56.4133,-10.9351 h 56.3643 c 12.1428,0 125.9702,14.7786 130.4316,20.1999 14.343,-17.3696 105.1016,-6.814 130.3827,-9.2621 17.8444,-1.7273 38.8558,-10.9351 56.4119,-10.9351 h 56.3657 c 17.8444,0 39.0951,9.167 57.22783,10.9351 58.763,5.6579 96.5635,0.544 135.46691,57.1926 7.1524,33.1071 22.6907,79.7918 22.6907,112.8022 0,17.8497 -9.2058,39.105 -10.9327,57.2416 -8.825,91.59446 16.501,193.84116 -11.7485,282.74946 -12.4284,52.1549 -36.2654,72.0189 -135.46691,79.0722 h -57.22783 c -17.5575,0 -38.5199,-9.1669 -56.3657,-10.935 -61.5926,-5.9435 -130.622,0 -192.696,0 l -6.7173,-3.3594 c -1.8221,4.2163 -55.2126,14.2985 -61.4486,14.2985 h -56.3656 c -17.5562,0 -38.5199,-9.1669 -56.3644,-10.935 -61.5451,-5.9436 -130.622,0 -192.696,0"
       style="fill:#782d00;fill-opacity:1;fill-rule:nonzero;stroke:none;stroke-width:47.97531128"
       id="path6315"
       inkscape:connector-curvature="0" />
    <path
       id="path840"
       d="m 480.37153,108.53693 20.99749,17.99911 -38.99493,17.9991 -3.00429,3.00457 v 3.00458 h 3.00429 l 35.99488,-3.00458 5.99443,3.00458 -17.99745,20.99801 v 3.00458 l 3.0043,3.00457 v 0 l 29.99621,-20.99943 c 0,0 3.0043,0 5.99443,0 0,0 5.99442,-3.00457 5.99442,-3.00457 l 5.99442,5.99497 c 3.0043,3.00458 14.9974,17.99911 17.99745,17.99911 h 3.00429 c 0,-3.00457 0,-3.00457 0,-5.99498 l -8.99872,-20.99801 c 26.99617,-8.99955 62.98963,-20.99943 86.98716,-35.9982 3.0043,-3.00458 5.99443,-8.99956 5.99443,-12.00413 v -5.994982 l -3.0043,-5.99498 -5.99443,-8.999549 c 20.99608,8.999549 65.98967,17.999111 89.98579,20.999431 8.99872,0 17.99745,0 26.99617,0 20.99749,0 59.99099,-5.994983 80.98848,-12.004132 8.99872,-3.004569 20.99607,-8.999549 29.9948,-17.999108 5.99442,5.99498 14.99739,8.999559 20.99749,8.999559 3.00429,0 8.99872,0 12.00302,0 5.99441,-3.004579 20.99606,-8.999559 26.99615,-12.004128 l -14.99882,20.999428 -26.99615,14.998781 v 5.99498 c 0,0 3.0043,0 3.0043,0 l 35.99487,-12.00413 5.99443,-3.004571 -5.99443,12.004121 -5.99442,12.00413 v 3.00458 l 5.99442,3.00457 14.9974,-20.99943 17.99744,-14.998782 -3.00429,26.998662 v 3.00458 h 3.00429 5.99443 l 14.99881,-26.997252 5.99443,-20.999428 23.99618,-35.998207 v -5.994979 -3.00457 c 0,-3.004579 -3.00436,-8.999559 -5.99449,-8.999559 l -3.0043,-3.004569 h -5.99443 l -8.99871,5.994979 -3.0043,3.00457 h -3.0043 l -3.0043,-3.00457 -3.00429,-3.004579 3.00429,-3.00457 12.00302,-15.0002084 c 5.99443,-12.0041186 14.9974,-23.9983276 17.99745,-35.9967866 0,-12.004129 3.00436,-23.999748 3.00436,-35.998207 3.0042,-23.998337 -8.99879,-53.997314 -26.99623,-71.996424 -23.99612,-17.99911 -47.99365,-32.99789 -80.98848,-35.99821 l -14.9974,-20.99798 -29.99621,8.99953 -17.99603,-20.99941 -32.99625,12.00408 -23.99611,-26.99863 -35.99489,12.00408 -14.9974,-20.99939 -29.99479,8.99951 -14.99881,-20.99939 -17.99744,5.99494 h -5.99442 c -3.0043,0 -12.00302,-5.99494 -14.99739,-5.99494 -3.00431,-5.99494 -3.00431,-8.99951 -3.00431,-12.00408 v -5.99504 c 5.99443,-12.00408 14.9974,-20.99799 23.99612,-26.99722 20.99749,-15.00015 47.99365,-20.99939 74.98981,-20.99939 3.0043,0 3.0043,-3.00457 3.0043,-3.00457 v -3.00457 -3.00457 l -14.99882,-5.99504 -17.99743,5.99504 -8.99873,-12.00418 -14.99739,8.99951 -8.99871,-8.99951 -12.00303,15.00025 -12.00302,-8.99961 -12.00302,14.99875 c -12.00302,3.00457 -29.99479,12.00418 -38.99351,20.99949 -5.99442,5.99494 -17.99744,23.99835 -17.99744,32.99786 v 12.00418 c 0,15.00015 12.00302,32.99927 26.99616,41.99738 38.99351,29.99899 89.9858,50.99842 140.97808,59.99655 32.99483,5.99498 68.98971,15.0002 101.98455,26.99866 3.00429,0 5.99443,3.00458 5.99443,5.99498 l -3.00431,3.00458 v 0 l -26.99474,17.999097 -20.99748,-8.999547 -23.99612,17.999106 -23.99613,-12.004129 -23.99753,17.997688 -29.99478,-12.004128 -20.99749,8.999549 -23.99612,-12.004129 -29.99479,14.998789 -23.99754,-8.999559 -26.99473,12.004128 -26.99617,-8.999549 -32.99484,14.998779 -20.99748,-12.004129 -26.99616,14.998789 c -8.99873,3.004569 -17.99745,5.994969 -23.99612,5.994969 -3.0043,0 -5.99443,3.00458 -5.99443,3.00458 l -5.99442,-3.00458 c -3.0043,-3.004569 -12.00301,-5.994969 -14.9974,-5.994969 -3.00429,0 -5.99442,3.004569 -5.99442,3.004569 h -5.99442 l -3.0043,-3.004569 -14.99882,-12.004129 c -3.00429,-3.004579 -8.9987,-5.994979 -8.9987,-5.994979 h -5.99443 c -3.0043,0 -8.99872,5.994979 -12.00302,5.994979 l -8.99872,8.999549 c -5.99442,5.99498 -14.9974,8.999549 -23.99612,8.999549 -3.0043,0 -5.99443,0 -8.99872,0 -5.99442,0 -14.9974,-3.004569 -23.99612,-3.004569 -5.99443,0 -12.00302,0 -17.99744,3.004569 -44.9936,-5.994969 -62.99105,-8.999549 -101.98456,-29.997557 l -3.00428,-3.004579 h -3.00431 l -3.0043,3.004579 -14.99739,20.998008 -3.00429,3.00458 c 0,3.004569 0,5.994969 3.00429,8.999549 l 8.99873,5.99498 3.00429,15.000198 5.99442,-12.004129 5.99443,14.998779 8.99871,-14.998779 26.99474,-3.004579 c 5.99443,3.004579 12.00302,3.004579 14.99882,5.99498 3.0043,3.004579 5.99442,8.999549 8.99873,12.004128 l 3.00429,17.999109 8.99872,-14.998789 c 3.0043,0 5.99442,0 8.99872,0 5.99443,0 14.9974,0 20.99607,-5.99497 0,0 5.99443,0 5.99443,0 h 5.99442 c 5.99441,0 14.99739,0 23.99611,3.00457 l 5.99442,26.9986572 12.00302,-12.0041282 c 3.0043,3.004579 3.0043,5.994979 5.99443,5.994979 l 5.99443,5.9949799 c 0,0 5.99441,0 5.99441,0 14.99882,3.0045695 29.99622,5.9949796 41.99498,8.9995491 l -3.00429,14.998779 c -14.99882,5.994979 -32.99626,8.999559 -47.99366,12.004128 -3.0043,0 -8.99872,0 -12.00302,0 -3.0043,0 -12.00302,0 -14.99739,-3.004569 l -5.99443,-3.00458 -5.99442,-3.004569 c 0,-3.00458 -3.0043,-5.99498 -3.0043,-8.999559 -5.99441,3.004579 -12.003,8.999559 -14.99739,14.998788 L 270.33714,12.493989 c -3.00429,8.999559 -5.99442,14.998788 -8.99872,23.998337 -8.99871,0 -17.99744,3.00457 -26.99616,3.00457 h -5.99443 -3.00429 l -3.0043,-3.00457 c -3.00429,-5.994979 -8.99872,-12.004128 -12.00302,-14.998778 l -12.00301,14.998778 h -23.99612 l -8.99872,-14.998778 -5.99442,14.998778 h -8.99873 l -3.00429,3.00457 3.00429,32.997887 c 0,0 3.0043,3.004579 5.99443,5.994979 l 5.99442,-3.004569 32.99484,-17.999108 c 23.99611,3.004579 50.99227,5.994979 74.98839,5.994979 h 35.99489 c 47.99223,0 98.98593,-8.999559 146.97815,-17.999108 29.9948,20.999428 68.98972,44.997766 104.98461,53.997314 l -26.99617,12.00413 -12.00301,3.00458 c -3.0043,0 -5.99442,0 -8.99872,0 l -26.99616,-12.00413 c 0,0 0,0 0,0 -3.0043,0 -3.0043,0 -3.0043,0 l -3.0043,3.00457 z"
       style="fill:#ffffff;fill-opacity:1;fill-rule:nonzero;stroke:none;stroke-width:37.49640274"
       inkscape:connector-curvature="0" />
    <path
       id="path842"
       d="M 432.3793,90.537829 447.3767,75.53904 h 3.0043 l 12.00302,14.998789 h 3.00429 c 3.00431,0 3.00431,-3.004579 3.00431,-3.004579 l -5.99443,-14.998779 8.99871,-5.99498 -20.99606,-12.004128 -20.99749,5.994979 -29.9948,12.004129 v 3.004569 h 3.0043 l 23.99613,-5.994969 5.99441,3.004569 -5.99441,17.999109 v 0 z"
       style="fill:#ffffff;fill-opacity:1;fill-rule:nonzero;stroke:none;stroke-width:37.49640274"
       inkscape:connector-curvature="0" />
    <path
       id="path844"
       d="m 360.38954,-62.453146 3.0043,3.004569 c 3.00429,0 3.00429,3.00458 5.99443,3.00458 l 3.00428,5.994979 h 5.99442 3.0043 5.99442 l 3.00431,-3.004579 c -3.00431,-8.999549 -12.00303,-12.004129 -17.99745,-12.004129 -3.00428,0 -12.00301,3.00458 -12.00301,3.00458 z"
       style="fill:#782d00;fill-opacity:1;fill-rule:nonzero;stroke:none;stroke-width:37.49640274"
       inkscape:connector-curvature="0" />
  </g>
</svg>
