<?xml version="1.0" encoding="UTF-8" standalone="no"?>
<!-- Created with Inkscape (http://www.inkscape.org/) -->

<svg
   xmlns:dc="http://purl.org/dc/elements/1.1/"
   xmlns:cc="http://creativecommons.org/ns#"
   xmlns:rdf="http://www.w3.org/1999/02/22-rdf-syntax-ns#"
   xmlns:svg="http://www.w3.org/2000/svg"
   xmlns="http://www.w3.org/2000/svg"
   xmlns:sodipodi="http://sodipodi.sourceforge.net/DTD/sodipodi-0.dtd"
   xmlns:inkscape="http://www.inkscape.org/namespaces/inkscape"
   width="702mm"
   height="522mm"
   viewBox="0 0 702 522"
   version="1.1"
   id="svg850"
   inkscape:version="0.92.2 (5c3e80d, 2017-08-06)"
   sodipodi:docname="SADC_road_sign_GLS-6.svg">
  <defs
     id="defs844" />
  <sodipodi:namedview
     id="base"
     pagecolor="#ffffff"
     bordercolor="#666666"
     borderopacity="1.0"
     inkscape:pageopacity="0.0"
     inkscape:pageshadow="2"
     inkscape:zoom="0.25"
     inkscape:cx="2006.3622"
     inkscape:cy="706.31394"
     inkscape:document-units="mm"
     inkscape:current-layer="layer1"
     showgrid="false"
     fit-margin-top="0"
     fit-margin-left="0"
     fit-margin-right="0"
     fit-margin-bottom="0"
     inkscape:window-width="1920"
     inkscape:window-height="1057"
     inkscape:window-x="-8"
     inkscape:window-y="-8"
     inkscape:window-maximized="1"
     inkscape:snap-global="true"
     inkscape:lockguides="true" />
  <metadata
     id="metadata847">
    <rdf:RDF>
      <cc:Work
         rdf:about="">
        <dc:format>image/svg+xml</dc:format>
        <dc:type
           rdf:resource="http://purl.org/dc/dcmitype/StillImage" />
        <dc:title></dc:title>
      </cc:Work>
    </rdf:RDF>
  </metadata>
  <g
     inkscape:label="Layer 1"
     inkscape:groupmode="layer"
     id="layer1"
     transform="translate(-442.50989,247.83554)">
    <path
       style="fill:#000000;fill-opacity:1;fill-rule:nonzero;stroke:none;stroke-width:42.99787521"
       d="m 680.23784,119.15716 -12.7279,-12.7279 40.6001,-40.600112 h 170.7999 l 40.6001,40.600112 -12.7279,12.7279 -36.3281,-36.328012 h -153.8882 z"
       id="path841"
       inkscape:connector-curvature="0"
       sodipodi:nodetypes="ccccccccc" />
    <path
       style="fill:#000000;fill-opacity:1;fill-rule:nonzero;stroke:none;stroke-width:42.87234497"
       d="m 443.50989,23.164218 v 33.73024 h 183.7536 c -20.8811,15.8916 -34.3639,41.0043 -34.3638,69.269682 1e-4,48.04885 38.9515,87.00005 87.0004,86.99985 28.2593,-4e-5 53.3673,-13.47733 69.2593,-34.35087 v 94.35134 h 35.2501 V 91.764168 h -35.2501 v 35.231442 c -0.4463,37.87279 -31.2808,68.43803 -69.2593,68.4382 -38.2567,1.1e-4 -69.27,-31.01297 -69.2702,-69.26967 -1e-4,-38.243272 30.9913,-69.247672 69.2294,-69.269682 h 227.3008 c 38.2381,0.022 69.2295,31.02641 69.2294,69.269682 -2e-4,38.2567 -31.0135,69.26977 -69.2702,69.26967 -37.9786,-1.7e-4 -68.813,-30.5654 -69.2594,-68.4382 V 91.764168 h -35.25 V 273.16446 h 35.25 v -94.35134 c 15.892,20.87353 41.0001,34.35082 69.2594,34.35087 48.0488,2e-4 87.0003,-38.95099 87.0003,-86.99985 2e-4,-28.265382 -13.4827,-53.378082 -34.3637,-69.269682 h 183.75361 v -33.73024 z"
       id="path11"
       inkscape:connector-curvature="0"
       sodipodi:nodetypes="ccccccccccccccccccccccccccccc" />
    <path
       sodipodi:nodetypes="ccccccccc"
       inkscape:connector-curvature="0"
       id="path852"
       d="m 680.23784,-92.82847 -12.7279,12.7279 40.6001,40.60011 h 170.7999 l 40.6001,-40.60011 -12.7279,-12.7279 -36.3281,36.32801 h -153.8882 z"
       style="fill:#000000;fill-opacity:1;fill-rule:nonzero;stroke:none;stroke-width:42.99787521" />
    <path
       sodipodi:nodetypes="ccccccccccccccccccccccccccccc"
       inkscape:connector-curvature="0"
       id="path854"
       d="M 443.50989,3.1644701 V -30.56577 h 183.7536 c -20.8811,-15.8916 -34.3639,-41.0043 -34.3638,-69.26968 1e-4,-48.04885 38.9515,-87.00005 87.0004,-86.99985 28.2593,4e-5 53.3673,13.47733 69.2593,34.35087 v -94.35134 h 35.2501 v 181.40029 h -35.2501 v -35.23144 c -0.4463,-37.87279 -31.2808,-68.43803 -69.2593,-68.4382 -38.2567,-1.1e-4 -69.27,31.01297 -69.2702,69.26967 -1e-4,38.24327 30.9913,69.24767 69.2294,69.26968 h 227.3008 c 38.2381,-0.022 69.2295,-31.02641 69.2294,-69.26968 -2e-4,-38.2567 -31.0135,-69.26977 -69.2702,-69.26967 -37.9786,1.7e-4 -68.813,30.5654 -69.2594,68.4382 v 35.23144 h -35.25 v -181.40029 h 35.25 v 94.35134 c 15.892,-20.87353 41.0001,-34.35082 69.2594,-34.35087 48.0488,-2e-4 87.0003,38.95099 87.0003,86.99985 2e-4,28.26538 -13.4827,53.37808 -34.3637,69.26968 H 1143.5095 V 3.1644701 Z"
       style="fill:#000000;fill-opacity:1;fill-rule:nonzero;stroke:none;stroke-width:42.87234497" />
  </g>
</svg>
