<?xml version="1.0" encoding="UTF-8" standalone="no"?>
<!-- Created with Inkscape (http://www.inkscape.org/) -->

<svg
   xmlns:dc="http://purl.org/dc/elements/1.1/"
   xmlns:cc="http://creativecommons.org/ns#"
   xmlns:rdf="http://www.w3.org/1999/02/22-rdf-syntax-ns#"
   xmlns:svg="http://www.w3.org/2000/svg"
   xmlns="http://www.w3.org/2000/svg"
   xmlns:sodipodi="http://sodipodi.sourceforge.net/DTD/sodipodi-0.dtd"
   xmlns:inkscape="http://www.inkscape.org/namespaces/inkscape"
   width="1402mm"
   height="282mm"
   viewBox="0 0 1402 282"
   version="1.1"
   id="svg850"
   inkscape:version="0.92.2 (5c3e80d, 2017-08-06)"
   sodipodi:docname="22.svg">
  <defs
     id="defs844" />
  <sodipodi:namedview
     id="base"
     pagecolor="#ffffff"
     bordercolor="#666666"
     borderopacity="1.0"
     inkscape:pageopacity="0.0"
     inkscape:pageshadow="2"
     inkscape:zoom="0.12374369"
     inkscape:cx="3569.7687"
     inkscape:cy="-147.32341"
     inkscape:document-units="mm"
     inkscape:current-layer="layer1"
     showgrid="false"
     fit-margin-top="0"
     fit-margin-left="0"
     fit-margin-right="0"
     fit-margin-bottom="0"
     inkscape:window-width="1920"
     inkscape:window-height="1057"
     inkscape:window-x="-8"
     inkscape:window-y="-8"
     inkscape:window-maximized="1"
     inkscape:snap-global="false" />
  <metadata
     id="metadata847">
    <rdf:RDF>
      <cc:Work
         rdf:about="">
        <dc:format>image/svg+xml</dc:format>
        <dc:type
           rdf:resource="http://purl.org/dc/dcmitype/StillImage" />
        <dc:title></dc:title>
      </cc:Work>
    </rdf:RDF>
  </metadata>
  <g
     inkscape:label="Layer 1"
     inkscape:groupmode="layer"
     id="layer1"
     transform="translate(0,-15)">
    <path
       style="fill:#00559b;fill-opacity:1;fill-rule:nonzero;stroke:none;stroke-width:77.77305603"
       d="m 1,156 v 80.00038 C 40.66486,272.04009 86.09724,296 141.00032,296 c 54.90292,0 100.33466,-23.95902 139.99952,-59.9985 l 8.7e-4,-0.003 v 0.003 C 320.66572,272.04098 366.09745,296 421.00021,296 475.90329,296 521.33567,272.04009 561.00053,236.00038 600.66539,272.03984 646.09709,296 701.00003,296 755.9031,296 801.33547,272.04009 841.00034,236.00038 880.66541,272.04009 926.09761,296 981.00071,296 1035.9036,296 1081.3353,272.03984 1121.0002,236.00038 1160.6652,272.04009 1206.0974,296 1261.0006,296 1315.9034,296 1361.3351,272.03984 1401,236.00038 V 156 c -39.6648,35.96945 -85.0968,60 -139.9994,60 -54.9032,0 -100.3355,-24.03014 -140.0005,-60 -39.6647,35.96945 -85.0967,60 -139.99949,60 -54.9031,0 -100.3353,-24.03014 -140.00032,-60 -39.66487,35.96986 -85.09706,60 -140.00029,60 -54.90259,0 -100.33465,-24.03055 -139.99952,-60 -39.66486,35.96986 -85.09722,60 -140.00032,60 -54.90259,0 -100.33464,-24.03055 -139.9995,-60 v 8.5e-4 L 280.99984,156 C 241.33498,191.96945 195.90308,216 141.00032,216 86.09724,216 40.66486,191.96986 1,156 Z"
       id="path880"
       inkscape:connector-curvature="0"
       sodipodi:nodetypes="ccscccscscscsccscscscscccsc" />
    <path
       sodipodi:nodetypes="ccscccscscscsccscscscscccsc"
       inkscape:connector-curvature="0"
       id="path938"
       d="M 1,16 V 96.00038 C 40.66486,132.04009 86.09724,156 141.00032,156 c 54.90292,0 100.33466,-23.95902 139.99952,-59.9985 l 8.7e-4,-0.003 v 0.003 C 320.66572,132.04098 366.09745,156 421.00021,156 475.90329,156 521.33567,132.04009 561.00053,96.00038 600.66539,132.03984 646.09709,156 701.00003,156 755.9031,156 801.33547,132.04009 841.00034,96.00038 880.66541,132.04009 926.09761,156 981.00071,156 1035.9036,156 1081.3353,132.03984 1121.0002,96.00038 1160.6652,132.04009 1206.0974,156 1261.0006,156 1315.9034,156 1361.3351,132.03984 1401,96.00038 V 16 c -39.6648,35.96945 -85.0968,60 -139.9994,60 -54.9032,0 -100.3355,-24.03014 -140.0005,-60 -39.6647,35.96945 -85.0967,60 -139.99949,60 C 926.09751,76 880.66531,51.96986 841.00029,16 801.33542,51.96986 755.90323,76 701,76 646.09741,76 600.66535,51.96945 561.00048,16 521.33562,51.96986 475.90326,76 421.00016,76 366.09757,76 320.66552,51.96945 281.00066,16 v 8.5e-4 L 280.99984,16 C 241.33498,51.96945 195.90308,76 141.00032,76 86.09724,76 40.66486,51.96986 1,16 Z"
       style="fill:#00559b;fill-opacity:1;fill-rule:nonzero;stroke:none;stroke-width:77.77305603" />
  </g>
</svg>
