<?xml version="1.0" encoding="UTF-8" standalone="no"?>
<!-- Created with Inkscape (http://www.inkscape.org/) -->

<svg
   xmlns:dc="http://purl.org/dc/elements/1.1/"
   xmlns:cc="http://creativecommons.org/ns#"
   xmlns:rdf="http://www.w3.org/1999/02/22-rdf-syntax-ns#"
   xmlns:svg="http://www.w3.org/2000/svg"
   xmlns="http://www.w3.org/2000/svg"
   xmlns:sodipodi="http://sodipodi.sourceforge.net/DTD/sodipodi-0.dtd"
   xmlns:inkscape="http://www.inkscape.org/namespaces/inkscape"
   width="222mm"
   height="302mm"
   viewBox="0 0 222 302"
   version="1.1"
   id="svg850"
   inkscape:version="0.92.2 (5c3e80d, 2017-08-06)"
   sodipodi:docname="22.svg">
  <defs
     id="defs844" />
  <sodipodi:namedview
     id="base"
     pagecolor="#ffffff"
     bordercolor="#666666"
     borderopacity="1.0"
     inkscape:pageopacity="0.0"
     inkscape:pageshadow="2"
     inkscape:zoom="0.5"
     inkscape:cx="748.73208"
     inkscape:cy="512.80914"
     inkscape:document-units="mm"
     inkscape:current-layer="layer1"
     showgrid="false"
     fit-margin-top="0"
     fit-margin-left="0"
     fit-margin-right="0"
     fit-margin-bottom="0"
     inkscape:window-width="1920"
     inkscape:window-height="1057"
     inkscape:window-x="-8"
     inkscape:window-y="-8"
     inkscape:window-maximized="1"
     inkscape:snap-global="true"
     inkscape:lockguides="true" />
  <metadata
     id="metadata847">
    <rdf:RDF>
      <cc:Work
         rdf:about="">
        <dc:format>image/svg+xml</dc:format>
        <dc:type
           rdf:resource="http://purl.org/dc/dcmitype/StillImage" />
        <dc:title></dc:title>
      </cc:Work>
    </rdf:RDF>
  </metadata>
  <g
     inkscape:label="Layer 1"
     inkscape:groupmode="layer"
     id="layer1"
     transform="translate(-65.889884,11.83554)">
    <path
       d="m 174.65447,282.67473 c 5.95144,-5.84509 12.28754,-2.56597 15.00196,-6.01989 1.7419,-0.13983 3.7015,-0.48942 5.44341,-0.48942 7.99088,0 17.33172,6.16672 23.9872,9.49618 l 5.0079,3.50286 1.52417,-1.50323 c 0,-4.46771 -9.92876,-4.21601 -13.49236,-11.49441 l 3.48376,-0.98583 h 4.49987 c 1.74191,0 5.51597,1.97167 7.99088,1.97167 l 3.48377,-0.98584 c -4.35468,-2.29328 -10.93033,-5.99192 -16.00353,-5.99192 -2.10478,0 -6.38691,0.98583 -7.47561,0.98583 -2.6854,0 -6.09658,-0.71314 -8.49894,-1.99962 -1.37898,-5.79615 -2.9757,-11.5923 -5.44337,-16.99412 -1.37903,-2.16744 -2.46767,-5.52347 -3.04829,-7.99155 -0.72581,-6.11777 -2.46768,-12.50542 -2.46768,-18.5239 0,-6.90784 3.41118,-12.08592 8.5062,-16.5005 4.7902,-2.63589 9.36989,-5.97095 13.9786,-8.97879 l 2.97575,-1.99964 c 21.46147,-20.79272 51.95168,-66.59628 51.95168,-97.50185 0,-12.57953 -0.9435,-24.24594 -3.99184,-36.504555 -1.74186,-3.00644 -2.46763,-7.05466 -2.46763,-10.50788 0,-8.139075 3.55632,-11.000795 7.98364,-17.980645 1.45153,-0.349585 2.17734,0.04965 2.46767,0.48942 l 0.72577,5.502495 c 0,-1.25851 1.45157,-2.761735 1.45157,-3.992275 v -7.49794 c 0,-2.321255 -0.72581,-5.180875 -1.0161,-7.497935 l 0.72577,-1.503225 c 1.30642,-1.307455 4.7902,-3.94334 6.4595,-4.51666 l 3.99182,-0.489425 c 1.08867,0 3.55635,1.230545 4.49987,0.985835 -5.66113,-6.92881 -11.75046,-12.06144 -20.48168,-14.478485 -2.68537,-0.139835 -7.18524,-3.649685 -8.98521,-5.52347 -3.33863,-4.1461 -10.06661,-7.991555 -15.48826,-7.991555 -5.08049,0 -11.1916,1.873785 -14.49393,6.019885 l 0.72581,1.97167 c 6.09659,0.419505 14.16006,4.216015 17.46239,9.520645 -5.7337,5.131935 -10.47308,15.21891 -10.47308,22.98813 v 6.509305 c 0,1.552165 5.08049,16.97034 5.51597,17.48773 l -0.72582,2.51702 -1.52412,1.99964 -1.95964,0.985835 h -2.0322 c -6.09659,-1.25851 -13.26009,-1.99964 -19.45828,-1.99964 -79.6041,0 -123.492349,60.08418 -144.380439,132.00887 l -2.975743,5.99192 c 0,0.71315 -0.725764,1.79687 -0.725764,2.51702 l 0.725764,2.48906 1.524169,1.99964 2.975698,3.00644 c 1.161287,21.08847 3.556364,43.90391 10.502134,63.98137 l 1.016098,1.50323 2.032195,0.48942 1.451574,-0.98584 1.52417,-1.50322 h 2.032195 l 2.032194,0.48942 c 0,0.69918 0.943503,1.58013 1.524124,1.99964 h 1.959646 c 0.725764,-0.41951 1.306385,-1.30746 1.524124,-1.99964 5.878891,-14.23168 12.519801,-28.14243 22.484851,-40.00671 h 1.9596 c -0.72576,5.00608 -1.08869,10.50718 -1.45157,15.51466 0,3.23018 0,6.83093 -0.72577,9.9891 0,1.38436 -1.37902,3.18123 -1.95964,4.51666 -1.37898,0.7621 -3.19344,1.55216 -4.49987,2.48905 -1.37898,1.03478 -8.01265,8.50964 -8.01265,10.01427 v 2.48905 l 2.0322,3.50286 c 0,-0.90892 2.39507,-5.37664 2.9757,-5.99191 l 5.00793,-5.5025 c 1.9596,-0.27967 7.37396,0.27967 8.98521,1.50323 2.10479,1.62907 4.28213,3.45391 6.53206,4.9851 2.0322,1.40534 4.35473,2.81068 6.45951,3.99927 2.83056,1.55217 5.73371,2.02061 6.96754,5.5025 l 1.52412,1.0138 c 0.79837,-0.79007 1.37903,-2.41914 1.52417,-3.50286 -1.37897,-2.04858 -2.46767,-3.62871 -3.48376,-4.48869 -1.52417,-1.25852 -3.84666,-2.04858 -5.51597,-3.50286 l 0.72577,-2.02061 c 2.32252,0.20975 4.7176,-0.48943 6.96753,-0.48943 1.95965,0 4.0644,0.34959 6.02404,0.48943 0.72577,0.27966 1.74186,0.81103 2.46767,1.0138 0,-0.27967 -0.87095,-2.93653 -1.01609,-2.98547 -2.90315,-1.72696 -18.1519,-3.27913 -20.96797,-3.50286 l -2.9757,-0.48942 -2.54027,-1.99964 c -0.72576,-0.71316 -1.37898,-1.69899 -1.9596,-2.48906 0,-1.08372 -0.72576,-2.44011 -0.72576,-3.50286 0,-8.43553 2.46762,-18.74554 5.44337,-26.51476 13.89878,-1.95069 27.62336,-6.87986 39.96172,-13.49195 l 4.49987,-0.98583 1.52417,0.98583 v 1.50323 l -0.72582,2.48905 c 9.04332,14.77424 14.59554,32.04033 14.49393,49.50289 l -1.01609,2.51702 c -2.0322,2.56597 -5.66111,2.95751 -8.5062,3.97131 -1.74186,0.62925 -5.95144,3.06238 -6.96753,4.51666 l 1.52417,2.51702"
       style="fill:#000000;fill-opacity:1;fill-rule:nonzero;stroke:none;stroke-width:25.13030243"
       id="path5124"
       inkscape:connector-curvature="0" />
  </g>
</svg>
