<?xml version="1.0" encoding="UTF-8" standalone="no"?>
<!-- Created with Inkscape (http://www.inkscape.org/) -->

<svg
   xmlns:dc="http://purl.org/dc/elements/1.1/"
   xmlns:cc="http://creativecommons.org/ns#"
   xmlns:rdf="http://www.w3.org/1999/02/22-rdf-syntax-ns#"
   xmlns:svg="http://www.w3.org/2000/svg"
   xmlns="http://www.w3.org/2000/svg"
   xmlns:sodipodi="http://sodipodi.sourceforge.net/DTD/sodipodi-0.dtd"
   xmlns:inkscape="http://www.inkscape.org/namespaces/inkscape"
   width="900mm"
   height="364mm"
   viewBox="0 0 900 364"
   version="1.1"
   id="svg8"
   inkscape:version="0.92.2 (5c3e80d, 2017-08-06)"
   sodipodi:docname="11.svg">
  <defs
     id="defs2" />
  <sodipodi:namedview
     id="base"
     pagecolor="#ffffff"
     bordercolor="#666666"
     borderopacity="1.0"
     inkscape:pageopacity="0.0"
     inkscape:pageshadow="2"
     inkscape:zoom="0.17500001"
     inkscape:cx="1916.7621"
     inkscape:cy="754.51286"
     inkscape:document-units="mm"
     inkscape:current-layer="layer1"
     showgrid="false"
     fit-margin-top="0"
     fit-margin-left="0"
     fit-margin-right="0"
     fit-margin-bottom="0"
     inkscape:window-width="1920"
     inkscape:window-height="1057"
     inkscape:window-x="-8"
     inkscape:window-y="-8"
     inkscape:window-maximized="1"
     inkscape:snap-global="false" />
  <metadata
     id="metadata5">
    <rdf:RDF>
      <cc:Work
         rdf:about="">
        <dc:format>image/svg+xml</dc:format>
        <dc:type
           rdf:resource="http://purl.org/dc/dcmitype/StillImage" />
        <dc:title></dc:title>
      </cc:Work>
    </rdf:RDF>
  </metadata>
  <g
     inkscape:label="Layer 1"
     inkscape:groupmode="layer"
     id="layer1"
     transform="translate(0,67)">
    <rect
       style="opacity:1;fill:#ffffff;fill-opacity:1;fill-rule:nonzero;stroke:none;stroke-width:0.99077666;stroke-linecap:square;stroke-linejoin:miter;stroke-miterlimit:0;stroke-dasharray:0.99077657, 0.99077656999999997;stroke-dashoffset:21.31999969;stroke-opacity:1;paint-order:stroke fill markers"
       id="rect815"
       width="900"
       height="364"
       x="0"
       y="-67" />
    <rect
       y="-67"
       x="0"
       height="364"
       width="900"
       id="rect817"
       style="opacity:1;fill:#000000;fill-opacity:1;fill-rule:nonzero;stroke:none;stroke-width:0.99077666;stroke-linecap:square;stroke-linejoin:miter;stroke-miterlimit:0;stroke-dasharray:0.99077657, 0.99077657;stroke-dashoffset:21.31999969;stroke-opacity:1;paint-order:stroke fill markers"
       rx="50"
       ry="50" />
    <rect
       ry="25"
       rx="25"
       style="opacity:1;fill:#ffffff;fill-opacity:1;fill-rule:nonzero;stroke:none;stroke-width:0.89428943;stroke-linecap:square;stroke-linejoin:miter;stroke-miterlimit:0;stroke-dasharray:0.89428937, 0.89428936999999997;stroke-dashoffset:21.31999969;stroke-opacity:1;paint-order:stroke fill markers"
       id="rect819"
       width="850"
       height="314"
       x="25"
       y="-42.000061" />
    <g
       aria-label="Acidente"
       style="font-style:normal;font-variant:normal;font-weight:bold;font-stretch:normal;font-size:194.9150238px;line-height:0;font-family:'DIN 1451 Engschrift';-inkscape-font-specification:'DIN 1451 Engschrift Bold';letter-spacing:0.06879167px;word-spacing:0px;fill:#000000;fill-opacity:1;stroke:none;stroke-width:1.01518238"
       id="text848" />
    <path
       inkscape:connector-curvature="0"
       style="fill:#000000;fill-opacity:1;fill-rule:nonzero;stroke:none;stroke-width:0.76660854"
       d="m 492.28359,25.000004 -41.79963,1.56616 c -12.47939,0.65652 -22.4246,0.8767 -41.41033,4.73742 -5.87759,0.97051 -4.12857,0.74 -5.81993,1.187329 -2.43391,0.54819 -4.73423,1.57959 -7.46098,3.00654 -2.7666,1.73984 -5.2814,3.35242 -6.30504,4.22084 h 0.0118 L 339.15799,83.112552 220.3007,101.29103 c -1.5372,0.29507 -2.95052,0.74502 -4.19388,1.40746 -1.75844,0.83814 -3.01442,1.80171 -4.19239,2.78494 -1.45212,1.3976 -2.06416,2.79479 -2.81489,4.19239 -0.3091,0.71302 -0.51725,1.4266 -0.67977,2.13963 -5.74673,23.57336 -3.37126,35.38889 9.0885,55.26767 l -4.23731,3.57252 h 25.6784 a 54.352552,54.352552 0 0 1 -0.0733,-2.06925 54.352552,54.352552 0 0 1 54.35285,-54.35285 54.352552,54.352552 0 0 1 54.35284,54.35285 54.352552,54.352552 0 0 1 -1.01665,10.34923 h 214.56057 a 54.352552,54.352552 0 0 1 -1.04061,-10.34923 54.352552,54.352552 0 0 1 54.35285,-54.35285 54.352552,54.352552 0 0 1 54.35284,54.35285 54.352552,54.352552 0 0 1 -1.01665,10.34923 h 1.47183 c 21.08206,-20.37722 29.83939,-54.2778 23.03718,-82.542178 l -3.5186,-0.703723 -61.54282,-58.786336 c -2.17402,-1.91252 -4.94168,-4.41398 -6.17179,-5.173109 -1.4902,-0.87553 -3.99242,-2.23063 -7.11658,-2.53787 0,0 -11.17224,-1.43269 -13.65521,-1.68146 -18.32594,-2.02231 -18.57735,-1.36778 -25.48825,-1.8072 l -41.25161,-0.70374 z"
       id="path13379-7" />
    <circle
       style="opacity:1;fill:#000000;fill-opacity:1;fill-rule:nonzero;stroke:none;stroke-width:1.83986068;stroke-linejoin:miter;stroke-miterlimit:4;stroke-dasharray:none;stroke-dashoffset:0;stroke-opacity:1"
       id="circle5498"
       cx="293.2287"
       cy="168.58609"
       r="36.413906" />
    <circle
       r="36.413906"
       cy="168.58609"
       cx="614.43774"
       id="circle5559"
       style="opacity:1;fill:#000000;fill-opacity:1;fill-rule:nonzero;stroke:none;stroke-width:1.83986068;stroke-linejoin:miter;stroke-miterlimit:4;stroke-dasharray:none;stroke-dashoffset:0;stroke-opacity:1" />
    <path
       inkscape:connector-curvature="0"
       id="path13381-3-9"
       style="fill:#ffffff;fill-opacity:1;fill-rule:nonzero;stroke:none;stroke-width:0.76660854"
       d="m 497.57697,35.886043 c 1.50875,0.1869 3.32731,0.20717 4.21856,0.72659 0.91695,0.40033 2.93398,1.96315 2.91083,2.10196 0.68043,0.50473 1.67233,2.29349 2.02297,3.68088 0.28453,1.41478 0.23441,2.8632 0,4.32988 l -7.0537,34.6974 c -0.32373,1.482169 -0.77535,2.708349 -1.39276,3.60276 -0.88653,1.726248 -2.50221,2.821279 -2.50221,2.821279 -1.32134,0.665245 -2.64558,0.607056 -3.84333,0.781832 h -106.2613 c -1.09748,-0.08085 -2.05919,0.137052 -3.51274,-0.726638 -1.02052,-0.718616 -3.54121,-2.876473 -3.54121,-2.876473 0,0 -1.3385,-0.974051 -2.10111,-3.60276 -0.21413,-1.26467 -0.0793,-2.44204 0,-3.63319 0.11406,-0.7624 0.19716,-1.60343 1.61769,-4.04249 l 1.5461,-1.96097 c 5.12692,-4.67258 28.28594,-28.14305 35.68241,-29.97915 4.78332,-1.18757 9.03178,-2.07307 15.48625,-3.02337 17.20493,-2.53301 57.8433,-2.66473 66.71411,-2.89754"
       sodipodi:nodetypes="ccccccccccccccccssc" />
    <path
       inkscape:connector-curvature="0"
       id="path13383-8-6"
       style="fill:#ffffff;fill-opacity:1;fill-rule:nonzero;stroke:none;stroke-width:0.76660854"
       d="m 582.51874,36.393153 c 1.54003,0.24831 3.29279,0.28482 4.62019,0.74522 4.15893,1.64805 4.89618,2.07982 6.70868,3.76105 l 23.53877,24.9723 c 0.86236,0.77839 2.95024,3.55099 3.61996,5.1969 3.95122,10.36684 -0.0745,17.431443 -11.2674,17.560001 h -88.634 c -1.39323,-0.180798 -4.21893,-0.697753 -4.21893,-0.697753 0,0 -1.61004,-0.451215 -2.8009,-2.219943 -0.64779,-0.95357 -1.25415,-1.690206 -2.09997,-3.683775 -0.24542,-1.07104 -0.51355,-2.10527 0,-4.39006 l 5.6043,-33.70786 c 0.45383,-1.46016 0.40361,-2.83662 1.41554,-4.39 0.87609,-0.96116 1.18933,-1.81677 2.80319,-2.9164 0.66823,-0.61414 2.42997,-0.68191 4.21696,-0.73679 h 42.20953"
       sodipodi:nodetypes="cccccccccccccccc" />
  </g>
</svg>
