<?xml version="1.0" encoding="UTF-8" standalone="no"?>
<!-- Created with Inkscape (http://www.inkscape.org/) -->

<svg
   xmlns:dc="http://purl.org/dc/elements/1.1/"
   xmlns:cc="http://creativecommons.org/ns#"
   xmlns:rdf="http://www.w3.org/1999/02/22-rdf-syntax-ns#"
   xmlns:svg="http://www.w3.org/2000/svg"
   xmlns="http://www.w3.org/2000/svg"
   xmlns:sodipodi="http://sodipodi.sourceforge.net/DTD/sodipodi-0.dtd"
   xmlns:inkscape="http://www.inkscape.org/namespaces/inkscape"
   width="900mm"
   height="364mm"
   viewBox="0 0 900 364"
   version="1.1"
   id="svg8"
   inkscape:version="0.92.4 (5da689c313, 2019-01-14)"
   sodipodi:docname="11.svg">
  <defs
     id="defs2" />
  <sodipodi:namedview
     id="base"
     pagecolor="#ffffff"
     bordercolor="#666666"
     borderopacity="1.0"
     inkscape:pageopacity="0.0"
     inkscape:pageshadow="2"
     inkscape:zoom="0.35000001"
     inkscape:cx="2267.7481"
     inkscape:cy="728.16374"
     inkscape:document-units="mm"
     inkscape:current-layer="layer1"
     showgrid="false"
     fit-margin-top="0"
     fit-margin-left="0"
     fit-margin-right="0"
     fit-margin-bottom="0"
     inkscape:window-width="1920"
     inkscape:window-height="1057"
     inkscape:window-x="-8"
     inkscape:window-y="-8"
     inkscape:window-maximized="1"
     inkscape:snap-global="false" />
  <metadata
     id="metadata5">
    <rdf:RDF>
      <cc:Work
         rdf:about="">
        <dc:format>image/svg+xml</dc:format>
        <dc:type
           rdf:resource="http://purl.org/dc/dcmitype/StillImage" />
        <dc:title></dc:title>
      </cc:Work>
    </rdf:RDF>
  </metadata>
  <g
     inkscape:label="Layer 1"
     inkscape:groupmode="layer"
     id="layer1"
     transform="translate(0,67)">
    <rect
       style="opacity:1;fill:#ffffff;fill-opacity:1;fill-rule:nonzero;stroke:none;stroke-width:0.99077666;stroke-linecap:square;stroke-linejoin:miter;stroke-miterlimit:0;stroke-dasharray:0.99077657, 0.99077656999999997;stroke-dashoffset:21.31999969;stroke-opacity:1;paint-order:stroke fill markers"
       id="rect815"
       width="900"
       height="364"
       x="0"
       y="-67" />
    <rect
       y="-67"
       x="0"
       height="364"
       width="900"
       id="rect817"
       style="opacity:1;fill:#000000;fill-opacity:1;fill-rule:nonzero;stroke:none;stroke-width:0.99077666;stroke-linecap:square;stroke-linejoin:miter;stroke-miterlimit:0;stroke-dasharray:0.99077657, 0.99077657;stroke-dashoffset:21.31999969;stroke-opacity:1;paint-order:stroke fill markers"
       rx="50"
       ry="50" />
    <rect
       ry="25"
       rx="25"
       style="opacity:1;fill:#ffffff;fill-opacity:1;fill-rule:nonzero;stroke:none;stroke-width:0.89428943;stroke-linecap:square;stroke-linejoin:miter;stroke-miterlimit:0;stroke-dasharray:0.89428937, 0.89428936999999986;stroke-dashoffset:21.31999969;stroke-opacity:1;paint-order:stroke fill markers"
       id="rect819"
       width="850"
       height="314"
       x="25"
       y="-42.000061" />
    <g
       aria-label="Acidente"
       style="font-style:normal;font-variant:normal;font-weight:bold;font-stretch:normal;font-size:194.9150238px;line-height:0;font-family:'DIN 1451 Engschrift';-inkscape-font-specification:'DIN 1451 Engschrift Bold';letter-spacing:0.06879167px;word-spacing:0px;fill:#000000;fill-opacity:1;stroke:none;stroke-width:1.01518238"
       id="text848" />
    <path
       d="m 593.31686,31.412007 v 32.527529 l 9.83008,8.690518 v -55.15596 l 0.5839,-3.478139 1.75172,-2.919549 3.47912,-2.3122648 3.47911,-1.1678 3.47912,0.583876 2.89521,2.3123128 2.33562,2.89419 1.14447,3.503498 v 84.789242 l 0.5839,1.1678 4.06304,11.60419 2.91955,11.60619 1.72834,12.21333 c 1.14446,22.23722 -3.01684,40.11837 -13.33253,59.82528 -49.85114,85.8111 -176.38884,65.34904 -197.26352,-31.94367 h 9.85344 l 3.47911,11.60424 0.5839,1.75175 17.9795,-7.56554 -1.72837,-5.79045 27.27335,-1.75168 26.66514,-3.48006 22.62643,-3.47819 3.50345,-1.1678 3.47911,-2.91955 1.72837,-3.48006 1.1678,-4.06207 -1.1678,-4.06399 -1.72837,-3.47821 -2.89521,-2.89619 -4.08735,-1.16773 h -4.06304 l -22.04251,3.50341 -26.68947,2.87085 -26.68944,1.75172 v -2.31031 l 1.75172,-10.46168 2.89521,-10.46165 -17.97949,-6.95825 -3.47911,11.02031 -1.72837,11.62948 -0.60726,8.12605 -9.85344,-0.58395 c 2.67624,-54.667318 42.57659,-97.633229 97.46393,-102.791086 -2.47437,-0.623597 -4.80955,-1.38633 -6.95822,-2.3356 -2.18257,-0.886457 -4.57557,-2.056403 -5.79043,-5.206535 -0.81545,-1.493595 -1.4401,-4.655205 -0.5839,-6.983612 0.30046,-1.323029 2.76395,-4.134751 3.49833,-4.661203 l 33.04514,12.206428 c 15.23027,-12.52876 46.47972,-33.0424138 53.40362,-1.151414"
       style="fill:#000000;fill-opacity:1;fill-rule:evenodd;stroke:none;stroke-width:0.64516085"
       id="path8184"
       inkscape:connector-curvature="0"
       sodipodi:nodetypes="cccccccccccccccccccccccccccccccccccccccccccccccccccccc" />
    <path
       d="m 370.50738,94.717331 6.95823,34.255909 2.33563,11.04555 -17.9795,-2.31219 -26.12988,-4.6713 -6.37433,-20.31416 -10.43734,12.77199 -23.21033,5.23186 c 66.61415,19.75553 144.37118,24.30418 212.90738,12.77199 l 16.25208,-2.31031 h 2.31132 l 2.33562,1.73224 1.16783,2.31226 -0.58393,2.3356 -1.72836,2.31034 -1.7517,0.60341 -19.73124,3.47819 -26.68945,2.89614 c -68.77946,7.20148 -148.84782,-1.71283 -214.0995,-24.96206 l -24.91341,-9.31916 -2.35996,-1.73232 -0.56054,-2.91947 1.1678,-2.31232 1.75172,-1.73219 2.87088,-0.60336 1.75173,0.60336 24.93772,9.26849 8.70998,2.89619 1.7517,-2.89619 2.89521,-2.31031 20.87471,-13.94179 16.836,-38.927137 c 0.43638,-1.858136 1.72837,-3.478211 1.72837,-3.478211 0.89599,-1.108377 1.01589,-1.537658 3.50345,-4.03863 1.1717,-1.167801 2.19485,-2.335625 4.6226,-3.503425 1.56689,-0.760636 3.23249,-1.422565 5.23084,-1.751725 22.74808,-5.011943 32.89348,21.458559 33.6477,39.511059"
       style="fill:#000000;fill-opacity:1;fill-rule:nonzero;stroke:none;stroke-width:0.64516085"
       id="path8186"
       inkscape:connector-curvature="0"
       sodipodi:nodetypes="ccccccccccccccccccccccccccccccccccccc" />
    <path
       d="m 384.42384,164.39698 -27.24904,-3.48007 -26.71378,-4.64601 -20.29078,38.90192 -12.18909,56.93099 2.89521,1.14839 h 5.23084 l 5.20653,-1.14839 4.08735,-2.89419 3.47911,-3.50347 2.31131,-4.62258 13.3569,-41.26281 19.70688,-27.88168 L 382.69645,255 h 4.6226 l 4.64692,-1.75172 3.47911,-2.89619 2.33565,-3.47814 1.1678,-4.64794 v -4.64587 l -14.52469,-73.18316"
       style="fill:#000000;fill-opacity:1;fill-rule:nonzero;stroke:none;stroke-width:0.64516085"
       id="path8188"
       inkscape:connector-curvature="0" />
    <path
       d="m 454.63874,79.607716 13.91648,13.941815 -6.37433,8.125979 -5.81476,9.29395 -0.56054,1.75168 -17.9795,-6.95821 3.47912,-6.983536 5.79042,-9.877728 7.54213,-9.29395"
       style="fill:#ffffff;fill-opacity:1;fill-rule:evenodd;stroke:none;stroke-width:0.64516085"
       id="path8190"
       inkscape:connector-curvature="0" />
    <path
       d="m 459.84524,74.961802 13.35692,13.939864 1.72641,-1.751749 8.70995,-6.374328 9.26954,-5.229912 -7.51779,-18.003805 -10.4617,5.790452 -9.26954,6.981613 -5.81474,4.647865"
       style="fill:#ffffff;fill-opacity:1;fill-rule:evenodd;stroke:none;stroke-width:0.64516085"
       id="path8192"
       inkscape:connector-curvature="0" />
    <path
       d="m 491.76555,55.206248 7.54215,18.003805 2.31129,-1.148318 9.87778,-2.335673 10.43734,-1.1678 V 48.827994 l -11.60514,1.14839 -11.60519,2.919549 -6.95823,2.312265"
       style="fill:#ffffff;fill-opacity:1;fill-rule:evenodd;stroke:none;stroke-width:0.64516085"
       id="path8194"
       inkscape:connector-curvature="0" />
    <path
       d="m 528.89236,48.831944 v 19.73017 h 2.33563 l 10.43734,1.751823 10.43737,2.896116 6.95822,-18.003805 -11.02126,-3.480114 -11.60517,-2.310314 -7.54213,-0.583876"
       style="fill:#ffffff;fill-opacity:1;fill-rule:evenodd;stroke:none;stroke-width:0.64516085"
       id="path8196"
       inkscape:connector-curvature="0" />
    <path
       d="m 566.04349,57.541872 -7.56647,18.003805 1.75173,1.167849 9.29385,5.229888 8.10172,6.958252 13.94081,-13.939864 -9.29387,-7.542201 -9.85345,-6.399614 -6.37432,-3.478115"
       style="fill:#ffffff;fill-opacity:1;fill-rule:evenodd;stroke:none;stroke-width:0.64516085"
       id="path8198"
       inkscape:connector-curvature="0" />
    <path
       d="m 596.18774,79.607716 -13.33258,13.941815 1.16782,1.732242 6.37433,8.735237 5.2065,8.70998 18.00383,-6.95818 -5.79043,-10.487037 -6.39864,-9.852491 -5.23083,-5.81569"
       style="fill:#ffffff;fill-opacity:1;fill-rule:evenodd;stroke:none;stroke-width:0.64516085"
       id="path8200"
       inkscape:connector-curvature="0" />
    <path
       d="m 615.91893,112.13726 -17.39557,6.95825 0.5839,2.33555 2.31131,10.46173 1.16781,10.43632 h 19.70688 l -1.14447,-11.60412 -2.89519,-11.62948 -2.33564,-6.95825"
       style="fill:#ffffff;fill-opacity:1;fill-rule:evenodd;stroke:none;stroke-width:0.64516085"
       id="path8202"
       inkscape:connector-curvature="0" />
    <path
       d="m 622.29326,149.31272 h -19.70688 v 2.31031 l -1.16781,10.46168 -2.89521,9.85437 17.39557,7.56556 3.47914,-11.02031 2.33562,-11.62948 0.56054,-7.54213"
       style="fill:#ffffff;fill-opacity:1;fill-rule:evenodd;stroke:none;stroke-width:0.64516085"
       id="path8204"
       inkscape:connector-curvature="0" />
    <path
       d="m 613.60764,185.87895 -18.00383,-7.54211 -1.14444,2.31224 -5.23086,9.31721 -6.37433,8.12608 13.33258,13.35787 7.54213,-8.70993 6.39866,-9.8778 3.47912,-6.98356"
       style="fill:#ffffff;fill-opacity:1;fill-rule:evenodd;stroke:none;stroke-width:0.64516085"
       id="path8206"
       inkscape:connector-curvature="0" />
    <path
       d="m 577.62432,202.74031 13.94081,13.93979 -5.81476,4.64787 -9.85344,6.95825 -9.85344,5.22986 -7.56647,-17.41985 9.29386,-5.22987 8.12605,-6.39969 1.72836,-1.73224"
       style="fill:#ffffff;fill-opacity:1;fill-rule:evenodd;stroke:none;stroke-width:0.64516085"
       id="path8208"
       inkscape:connector-curvature="0" />
    <path
       d="m 552.1027,218.43183 6.95822,18.0038 -6.95822,2.31227 -11.60517,2.33567 -11.60517,1.14832 v -19.17166 l 10.43734,-1.14834 10.43737,-2.3356 2.33563,-1.14839"
       style="fill:#ffffff;fill-opacity:1;fill-rule:evenodd;stroke:none;stroke-width:0.64516085"
       id="path8210"
       inkscape:connector-curvature="0" />
    <path
       d="m 521.93411,223.0544 v 19.17161 l -7.54213,-0.58388 -11.60516,-1.75167 -11.02127,-3.45483 7.54215,-18.0038 9.87778,2.89614 10.43734,1.73226 h 2.31129"
       style="fill:#ffffff;fill-opacity:1;fill-rule:evenodd;stroke:none;stroke-width:0.64516085"
       id="path8212"
       inkscape:connector-curvature="0" />
    <path
       d="m 492.90904,216.09623 -7.51782,17.41985 -6.39866,-2.91955 -10.43734,-6.3743 -8.70998,-7.54213 13.35692,-13.93979 8.70995,6.95818 8.68564,5.22986 2.31129,1.16788"
       style="fill:#ffffff;fill-opacity:1;fill-rule:evenodd;stroke:none;stroke-width:0.64516085"
       id="path8214"
       inkscape:connector-curvature="0" />
    <path
       d="m 468.55522,198.09237 -13.91648,13.35787 -4.64692,-5.23182 -6.95825,-9.8778 -5.2065,-10.46167 17.97949,-7.54211 4.62261,9.29385 6.37432,8.70993 1.75173,1.75175"
       style="fill:#ffffff;fill-opacity:1;fill-rule:evenodd;stroke:none;stroke-width:0.64516085"
       id="path8216"
       inkscape:connector-curvature="0" />
    <circle
       style="fill:#000000;fill-opacity:1;stroke:none;stroke-width:5.19354534;stroke-miterlimit:4;stroke-dasharray:none;stroke-opacity:1"
       id="path16161"
       cx="334.48401"
       cy="31.387157"
       r="17.935472" />
    <circle
       r="16.322571"
       cy="-8.677433"
       cx="586.3548"
       id="circle16172"
       style="fill:#000000;fill-opacity:1;stroke:none;stroke-width:5.19354534;stroke-miterlimit:4;stroke-dasharray:none;stroke-opacity:1" />
  </g>
</svg>
