<?xml version="1.0" encoding="UTF-8" standalone="no"?>
<!-- Created with Inkscape (http://www.inkscape.org/) -->

<svg
   xmlns:dc="http://purl.org/dc/elements/1.1/"
   xmlns:cc="http://creativecommons.org/ns#"
   xmlns:rdf="http://www.w3.org/1999/02/22-rdf-syntax-ns#"
   xmlns:svg="http://www.w3.org/2000/svg"
   xmlns="http://www.w3.org/2000/svg"
   xmlns:sodipodi="http://sodipodi.sourceforge.net/DTD/sodipodi-0.dtd"
   xmlns:inkscape="http://www.inkscape.org/namespaces/inkscape"
   width="900mm"
   height="364mm"
   viewBox="0 0 900 364"
   version="1.1"
   id="svg8"
   inkscape:version="0.92.4 (5da689c313, 2019-01-14)"
   sodipodi:docname="11.svg">
  <defs
     id="defs2" />
  <sodipodi:namedview
     id="base"
     pagecolor="#ffffff"
     bordercolor="#666666"
     borderopacity="1.0"
     inkscape:pageopacity="0.0"
     inkscape:pageshadow="2"
     inkscape:zoom="0.24748738"
     inkscape:cx="1714.3903"
     inkscape:cy="509.86027"
     inkscape:document-units="mm"
     inkscape:current-layer="layer1"
     showgrid="false"
     fit-margin-top="0"
     fit-margin-left="0"
     fit-margin-right="0"
     fit-margin-bottom="0"
     inkscape:window-width="1920"
     inkscape:window-height="1057"
     inkscape:window-x="-8"
     inkscape:window-y="-8"
     inkscape:window-maximized="1"
     inkscape:snap-global="false" />
  <metadata
     id="metadata5">
    <rdf:RDF>
      <cc:Work
         rdf:about="">
        <dc:format>image/svg+xml</dc:format>
        <dc:type
           rdf:resource="http://purl.org/dc/dcmitype/StillImage" />
        <dc:title></dc:title>
      </cc:Work>
    </rdf:RDF>
  </metadata>
  <g
     inkscape:label="Layer 1"
     inkscape:groupmode="layer"
     id="layer1"
     transform="translate(0,67)">
    <rect
       style="opacity:1;fill:#ffffff;fill-opacity:1;fill-rule:nonzero;stroke:none;stroke-width:0.99077666;stroke-linecap:square;stroke-linejoin:miter;stroke-miterlimit:0;stroke-dasharray:0.99077657, 0.99077656999999997;stroke-dashoffset:21.31999969;stroke-opacity:1;paint-order:stroke fill markers"
       id="rect815"
       width="900"
       height="364"
       x="0"
       y="-67" />
    <rect
       y="-67"
       x="0"
       height="364"
       width="900"
       id="rect817"
       style="opacity:1;fill:#000000;fill-opacity:1;fill-rule:nonzero;stroke:none;stroke-width:0.99077666;stroke-linecap:square;stroke-linejoin:miter;stroke-miterlimit:0;stroke-dasharray:0.99077657, 0.99077657;stroke-dashoffset:21.31999969;stroke-opacity:1;paint-order:stroke fill markers"
       rx="50"
       ry="50" />
    <rect
       ry="25"
       rx="25"
       style="opacity:1;fill:#ffffff;fill-opacity:1;fill-rule:nonzero;stroke:none;stroke-width:0.89428943;stroke-linecap:square;stroke-linejoin:miter;stroke-miterlimit:0;stroke-dasharray:0.89428937, 0.89428936999999986;stroke-dashoffset:21.31999969;stroke-opacity:1;paint-order:stroke fill markers"
       id="rect819"
       width="850"
       height="314"
       x="25"
       y="-42.000061" />
    <g
       aria-label="Acidente"
       style="font-style:normal;font-variant:normal;font-weight:bold;font-stretch:normal;font-size:194.9150238px;line-height:0;font-family:'DIN 1451 Engschrift';-inkscape-font-specification:'DIN 1451 Engschrift Bold';letter-spacing:0.06879167px;word-spacing:0px;fill:#000000;fill-opacity:1;stroke:none;stroke-width:1.01518238"
       id="text848" />
    <path
       d="m 395.40004,196.65237 3.38055,36.65833 -5.4266,8.12764 -0.68201,5.42646 2.04605,0.68221 h 4.74458 l 4.06484,-0.68221 -0.68202,-6.10866 2.72809,-3.38268 0.68201,-13.58362 -1.36403,-8.80935 -1.36405,-6.10867 -3.38282,-6.79299 -4.74459,-5.42646"
       style="fill:#000000;fill-opacity:1;fill-rule:evenodd;stroke:none;stroke-width:0.78125054"
       id="path8252"
       inkscape:connector-curvature="0" />
    <path
       d="m 391.98862,99.663078 16.9641,-2.045906 29.83839,-4.062757 29.86796,-6.792757 29.15634,-7.445435 -0.68199,-2.727875 -0.65929,-5.426694 -20.37423,6.108427 -29.15637,8.127403 -29.1859,6.138191 -29.83839,4.064883 -29.86566,2.698819 -30.52043,1.363701 L 313.97688,94.23662 299.0588,86.761658 C 276.69309,75.906144 279.67806,52.974327 242.7626,57.605194 l -2.69851,-6.108662 -2.04612,6.108662 -4.09212,-5.426458 c -3.06904,32.282134 -15.17492,15.202209 -15.60231,56.293954 l -2.69854,19.01218 v 4.06276 l 2.04609,3.38291 1.34127,1.36394 3.38281,2.02323 3.41013,1.36417 4.06252,-0.65929 3.38289,-2.04614 0.68195,-0.68197 14.26566,-25.09368 12.87197,21.00163 10.17345,14.26536 7.47496,12.19016 3.38053,6.11079 2.72809,4.77425 2.70078,2.02323 4.06259,47.48456 v 8.15695 l -2.02333,7.44541 -3.4101,6.79064 -4.06486,4.74685 -3.38053,2.69858 v 2.72811 h 6.10862 L 282.77444,255 h 12.21955 l 2.70078,-3.38268 0.68204,-2.04638 v -1.34102 l -0.68204,-2.04591 h 2.72808 v -6.79086 l 3.38056,-37.96558 0.68199,-10.88528 1.34133,-10.14402 1.36403,-3.40984 2.72807,-2.70095 3.38055,-0.68197 h 4.09214 v 0.68197 c 36.82909,13.04481 60.13145,-4.40362 71.21425,3.38268 9.60515,9.40512 26.00318,21.25631 27.79234,36.62928 v 0.68173 l 1.36406,8.80961 v 14.26559 l -4.06257,10.82812 -0.68202,5.42693 h 6.79063 l 5.42889,-2.02347 0.68202,-0.6822 v -1.36394 l -2.04605,-5.42646 v -0.6822 l 0.68204,-2.02323 1.36401,-2.04614 v -19.01245 l 1.36403,-20.99927 c -14.69296,-10.40103 19.26709,-56.60789 -4.09209,-86.16192 h 0.68201 l 3.41008,-2.04588 3.38055,-0.65953 4.06486,0.65953 c 6.13819,5.00126 10.57132,12.21919 8.12741,20.34683 l -7.44537,33.93025 -1.36405,8.83677 0.68201,9.49158 v 2.70071 l 2.04605,4.74473 2.69854,2.72811 4.09214,2.02323 4.71728,0.70488 4.06483,-1.36417 0.70477,-0.68221 c -18.24402,-15.45875 2.61444,-49.67364 -4.77414,-76.67034 l -0.65929,-2.0232 -2.04605,-4.77404 -4.06483,-4.7447 -3.38056,-2.02323 -5.42891,-0.68221 h -4.77414 l -4.74458,2.04638 -3.38282,3.38032 c -7.61589,-7.67292 -22.98863,-11.792132 -33.21894,-9.51898 l 5.39932,-0.659057"
       style="fill:#000000;fill-opacity:1;fill-rule:evenodd;stroke:none;stroke-width:0.78125054"
       id="path8258"
       inkscape:connector-curvature="0" />
    <path
       d="m 548.6714,47.425507 -6.76335,12.874491 -35.94929,16.281972 -1.36405,-4.744489 0.68203,-4.746851 2.04605,-4.092049 3.35327,-3.353622 1.36406,-1.363938 19.66493,-8.836537 14.26555,-26.457883 3.41012,-4.71732 c 26.42829,-19.97644 39.30254,16.482286 43.39468,36.601661 l -35.94927,9.491341 -8.15473,-16.936776"
       style="fill:#000000;fill-opacity:1;fill-rule:evenodd;stroke:none;stroke-width:0.78125054"
       id="path8260"
       inkscape:connector-curvature="0" />
    <path
       d="m 500.53681,113.2134 c -5.96766,-6.67938 -9.49141,-3.04208 -13.58355,2.72808 l 0.68202,2.69837 1.36403,2.72809 7.47269,8.1274 2.70081,1.36394 h 3.38055 l 2.04605,-1.36394 c 61.92289,-56.350614 13.58357,-32.252577 85.47984,-39.329744 13.66997,-7.870632 10.28715,-15.402051 5.39934,-27.819692 l -35.26498,9.491577 2.72809,4.744489 c -39.55719,-3.323622 -24.72322,6.592915 -62.40489,36.63143"
       style="fill:#000000;fill-opacity:1;fill-rule:nonzero;stroke:none;stroke-width:0.78125054"
       id="path8262"
       inkscape:connector-curvature="0" />
    <circle
       style="fill:#000000;fill-opacity:1;stroke:none;stroke-width:6.28906584;stroke-miterlimit:4;stroke-dasharray:none;stroke-opacity:1"
       id="path43504"
       cx="543.12524"
       cy="-8.1249838"
       r="16.87501" />
    <path
       sodipodi:nodetypes="ccccccccccccc"
       inkscape:connector-curvature="0"
       id="path43553"
       style="fill:#000000;fill-opacity:1;fill-rule:evenodd;stroke:none;stroke-width:0.78125054"
       d="m 607.85232,77.946144 76.52281,12.752838 -14.13548,84.925268 -203.52822,-33.87638 5.97746,-35.91235 10.31918,1.95543 c -9.52167,10.88172 -0.46576,19.72936 8.11462,27.17644 2.19818,1.79032 4.12106,2.65961 6.10985,3.38977 1.59739,0.64016 3.18758,0.79913 4.77409,0.70582 2.69716,-0.26574 3.39248,-0.71716 4.71746,-1.36275 1.92324,-1.04268 2.94142,-1.87347 4.06356,-2.72858 L 546.7646,99.030716 c 24.24223,-3.68882 54.51037,11.383234 61.0837,-21.010163" />
    <path
       inkscape:connector-curvature="0"
       id="path43559"
       style="fill:#ffffff;fill-opacity:1;fill-rule:evenodd;stroke:none;stroke-width:0.78125054"
       d="m 550.25467,107.08796 -21.08736,21.05786 14.17994,2.36031 15.01885,-14.57573 39.60349,6.16394 2.49616,-14.99672"
       sodipodi:nodetypes="cccccc" />
    <rect
       style="fill:#ffffff;fill-opacity:1;stroke:none;stroke-width:6.28906679;stroke-miterlimit:4;stroke-dasharray:none;stroke-opacity:1"
       id="rect43567"
       width="27.656269"
       height="17.343761"
       x="-682.24487"
       y="5.3058348"
       transform="matrix(-0.98642926,-0.16418685,-0.16418685,0.98642926,0,0)" />
    <rect
       y="5.3058348"
       x="-645.60413"
       height="17.343761"
       width="27.656269"
       id="rect43571"
       style="fill:#ffffff;fill-opacity:1;stroke:none;stroke-width:6.28906679;stroke-miterlimit:4;stroke-dasharray:none;stroke-opacity:1"
       transform="matrix(-0.98642926,-0.16418685,-0.16418685,0.98642926,0,0)" />
    <rect
       y="-17.428335"
       x="-682.24487"
       height="17.343761"
       width="27.656269"
       id="rect43584"
       style="fill:#ffffff;fill-opacity:1;stroke:none;stroke-width:6.28906679;stroke-miterlimit:4;stroke-dasharray:none;stroke-opacity:1"
       transform="matrix(-0.98642926,-0.16418685,-0.16418685,0.98642926,0,0)" />
    <rect
       style="fill:#ffffff;fill-opacity:1;stroke:none;stroke-width:6.28906679;stroke-miterlimit:4;stroke-dasharray:none;stroke-opacity:1"
       id="rect43586"
       width="27.656269"
       height="17.343761"
       x="-645.60413"
       y="-17.428335"
       transform="matrix(-0.98642926,-0.16418685,-0.16418685,0.98642926,0,0)" />
    <circle
       r="50.781277"
       cy="204.21828"
       cx="573.90656"
       id="circle43672"
       style="fill:#000000;fill-opacity:1;stroke:none;stroke-width:6.28906584;stroke-miterlimit:4;stroke-dasharray:none;stroke-opacity:1" />
    <circle
       r="42.187523"
       style="fill:#ffffff;fill-opacity:1;stroke:none;stroke-width:6.28906584;stroke-miterlimit:4;stroke-dasharray:none;stroke-opacity:1"
       id="circle43674"
       cx="573.90656"
       cy="204.21828" />
    <circle
       r="8.4375048"
       cy="204.21828"
       cx="573.90656"
       id="circle43676"
       style="fill:#000000;fill-opacity:1;stroke:none;stroke-width:6.28906584;stroke-miterlimit:4;stroke-dasharray:none;stroke-opacity:1" />
  </g>
</svg>
