<?xml version="1.0" encoding="UTF-8" standalone="no"?>
<!-- Created with Inkscape (http://www.inkscape.org/) -->

<svg
   xmlns:dc="http://purl.org/dc/elements/1.1/"
   xmlns:cc="http://creativecommons.org/ns#"
   xmlns:rdf="http://www.w3.org/1999/02/22-rdf-syntax-ns#"
   xmlns:svg="http://www.w3.org/2000/svg"
   xmlns="http://www.w3.org/2000/svg"
   xmlns:sodipodi="http://sodipodi.sourceforge.net/DTD/sodipodi-0.dtd"
   xmlns:inkscape="http://www.inkscape.org/namespaces/inkscape"
   width="900mm"
   height="260mm"
   viewBox="0 0 900 260"
   version="1.1"
   id="svg8"
   inkscape:version="0.92.4 (5da689c313, 2019-01-14)"
   sodipodi:docname="11.svg">
  <defs
     id="defs2" />
  <sodipodi:namedview
     id="base"
     pagecolor="#ffffff"
     bordercolor="#666666"
     borderopacity="1.0"
     inkscape:pageopacity="0.0"
     inkscape:pageshadow="2"
     inkscape:zoom="0.24748737"
     inkscape:cx="1674.5407"
     inkscape:cy="350.58896"
     inkscape:document-units="mm"
     inkscape:current-layer="layer1"
     showgrid="false"
     fit-margin-top="0"
     fit-margin-left="0"
     fit-margin-right="0"
     fit-margin-bottom="0"
     inkscape:window-width="1920"
     inkscape:window-height="1057"
     inkscape:window-x="-8"
     inkscape:window-y="-8"
     inkscape:window-maximized="1"
     inkscape:snap-global="false" />
  <metadata
     id="metadata5">
    <rdf:RDF>
      <cc:Work
         rdf:about="">
        <dc:format>image/svg+xml</dc:format>
        <dc:type
           rdf:resource="http://purl.org/dc/dcmitype/StillImage" />
        <dc:title></dc:title>
      </cc:Work>
    </rdf:RDF>
  </metadata>
  <g
     inkscape:label="Layer 1"
     inkscape:groupmode="layer"
     id="layer1"
     transform="translate(0,-37)">
    <rect
       style="opacity:1;fill:#ffffff;fill-opacity:1;fill-rule:nonzero;stroke:none;stroke-width:0.83735913;stroke-linecap:square;stroke-linejoin:miter;stroke-miterlimit:0;stroke-dasharray:0.83735903, 0.83735903000000000;stroke-dashoffset:21.31999969;stroke-opacity:1;paint-order:stroke fill markers"
       id="rect815"
       width="900"
       height="260"
       x="0"
       y="37" />
    <rect
       y="37"
       x="0"
       height="260"
       width="900"
       id="rect817"
       style="opacity:1;fill:#000000;fill-opacity:1;fill-rule:nonzero;stroke:none;stroke-width:0.83735913;stroke-linecap:square;stroke-linejoin:miter;stroke-miterlimit:0;stroke-dasharray:0.83735903, 0.83735903;stroke-dashoffset:21.31999969;stroke-opacity:1;paint-order:stroke fill markers"
       rx="50"
       ry="50" />
    <rect
       ry="30"
       rx="30"
       style="opacity:1;fill:#ffffff;fill-opacity:1;fill-rule:nonzero;stroke:none;stroke-width:0.75294697;stroke-linecap:square;stroke-linejoin:miter;stroke-miterlimit:0;stroke-dasharray:0.75294689, 0.75294689000000004;stroke-dashoffset:21.31999969;stroke-opacity:1;paint-order:stroke fill markers"
       id="rect819"
       width="860"
       height="220"
       x="21.511898"
       y="56.999939" />
    <g
       aria-label="Acidente"
       style="font-style:normal;font-variant:normal;font-weight:bold;font-stretch:normal;font-size:194.9150238px;line-height:0;font-family:'DIN 1451 Engschrift';-inkscape-font-specification:'DIN 1451 Engschrift Bold';letter-spacing:0.06879167px;word-spacing:0px;fill:#000000;fill-opacity:1;stroke:none;stroke-width:1.01518238"
       id="text848" />
    <g
       aria-label="3.8 m"
       style="font-style:normal;font-variant:normal;font-weight:bold;font-stretch:normal;font-size:193.46829224px;line-height:0;font-family:'DIN 1451 Mittelschrift';-inkscape-font-specification:'DIN 1451 Mittelschrift Bold';letter-spacing:0px;word-spacing:0px;fill:#000000;fill-opacity:1;stroke:none;stroke-width:1.00764728"
       id="text830"
       transform="translate(9.84643,-650.35688)">
      <path
         d="m 298.45534,822.50009 v -13.51926 h 5.28248 q 7.63024,0 12.03231,-4.26151 4.47543,-4.33495 4.47543,-10.94769 0,-6.53917 -4.62217,-11.02111 -4.62217,-4.48195 -11.00516,-4.48195 -4.84225,0 -9.17096,3.23292 -4.3287,3.23283 -5.57595,9.69857 h -15.33386 q 0.88042,-11.31503 9.46444,-19.76458 8.58403,-8.52304 20.02939,-8.52304 14.30672,0 22.89073,9.47823 8.6574,9.40465 8.6574,21.08711 0,6.17182 -2.42115,12.04972 -2.42113,5.80448 -9.02422,10.06601 6.74982,4.33501 9.68454,10.65376 2.93471,6.31882 2.93471,12.78456 0,14.98871 -9.39107,23.8791 -9.39106,8.89039 -23.03746,8.89039 -10.85843,0 -19.58919,-6.98001 -8.6574,-7.05358 -10.78506,-20.49935 h 15.33386 q 2.12766,5.51056 5.72268,8.89039 3.59502,3.30633 10.19812,3.30633 6.38299,0 11.29863,-4.48194 4.91563,-4.55536 4.91563,-12.49064 0,-8.0087 -4.91563,-12.49056 -4.84228,-4.55545 -11.59211,-4.55545 z"
         style="font-style:normal;font-variant:normal;font-weight:bold;font-stretch:normal;font-family:'DIN 1451 Mittelschrift';-inkscape-font-specification:'DIN 1451 Mittelschrift Bold';fill:#000000;fill-opacity:1;stroke:none;stroke-width:0.78315711"
         id="path832"
         inkscape:connector-curvature="0" />
      <path
         d="M 354.58166,870.91963 V 855.637 h 15.33386 v 15.28263 z"
         style="font-style:normal;font-variant:normal;font-weight:bold;font-stretch:normal;font-family:'DIN 1451 Mittelschrift';-inkscape-font-specification:'DIN 1451 Mittelschrift Bold';fill:#000000;fill-opacity:1;stroke:none;stroke-width:0.78315711"
         id="path834"
         inkscape:connector-curvature="0" />
      <path
         d="m 401.02342,793.6247 q 0,7.56786 4.69554,11.46196 4.7689,3.89417 10.63831,3.89417 5.86942,0 10.56495,-3.89417 4.76891,-3.8941 4.76891,-11.46196 0,-7.49435 -4.76891,-11.38853 -4.69553,-3.9676 -10.56495,-3.9676 -5.86941,0 -10.63831,3.9676 -4.69554,3.89418 -4.69554,11.38853 z M 383.782,839.6931 q 0,-15.65006 12.61925,-24.09959 -4.7689,-4.26153 -7.77698,-9.40467 -2.9347,-5.2167 -2.9347,-12.27022 0,-12.93149 8.80412,-21.96879 8.8775,-9.03739 21.86358,-9.03739 12.98609,0 21.79021,9.03739 8.8775,9.0373 8.8775,21.96879 0,7.05352 -3.00808,12.27022 -3.00807,5.14314 -7.63023,9.40467 12.54587,8.52304 12.54587,24.09959 0,14.25402 -9.68454,23.21783 -9.61117,8.89039 -22.89073,8.89039 -13.35293,0 -22.96409,-8.89039 -9.61118,-8.96381 -9.61118,-23.21783 z m 15.33386,-0.147 q 0,7.34744 5.13574,12.1968 5.2091,4.77578 12.10567,4.77578 6.8232,0 12.03231,-4.77578 5.28247,-4.84936 5.28247,-12.1968 0,-7.34743 -5.28247,-12.19672 -5.20911,-4.84929 -12.03231,-4.84929 -6.89657,0 -12.10567,4.84929 -5.13574,4.84929 -5.13574,12.19672 z"
         style="font-style:normal;font-variant:normal;font-weight:bold;font-stretch:normal;font-family:'DIN 1451 Mittelschrift';-inkscape-font-specification:'DIN 1451 Mittelschrift Bold';fill:#000000;fill-opacity:1;stroke:none;stroke-width:0.78315711"
         id="path836"
         inkscape:connector-curvature="0" />
      <path
         d="m 499.10509,871.02354 v -76.88885 h 15.45901 v 8.2222 h 0.29588 q 7.3227,-9.11112 19.971,-9.11112 8.06236,0 12.79623,2.8889 4.73386,2.8889 8.87598,7.11115 9.09791,-10.00005 24.26106,-10.00005 8.94997,0 17.23423,6.81481 8.35823,6.81481 8.35823,19.85184 v 51.11112 H 590.89769 V 825.2458 q 0,-7.77777 -4.36403,-12.14819 -4.36404,-4.37033 -10.79914,-4.37033 -6.65699,0 -11.02103,4.37033 -4.29006,4.37042 -4.29006,12.14819 v 45.77774 H 545.03837 V 825.2458 q 0,-7.77777 -4.36404,-12.14819 -4.36403,-4.37033 -10.79912,-4.37033 -6.657,0 -11.02103,4.37033 -4.29008,4.37042 -4.29008,12.14819 v 45.77774 z"
         style="font-style:normal;font-variant:normal;font-weight:bold;font-stretch:normal;font-family:'DIN 1451 Mittelschrift';-inkscape-font-specification:'DIN 1451 Mittelschrift Bold';fill:#000000;fill-opacity:1;stroke:none;stroke-width:0.78955019"
         id="path838"
         inkscape:connector-curvature="0" />
      <path
         style="opacity:1;fill:#000000;fill-opacity:1;fill-rule:nonzero;stroke:none;stroke-width:2.49849844;stroke-linecap:square;stroke-linejoin:miter;stroke-miterlimit:4;stroke-dasharray:none;stroke-dashoffset:21.31999969;stroke-opacity:1;paint-order:stroke fill markers"
         d="m 134.15357,747.35688 93.19796,70 -93.19796,70 z"
         id="rect841"
         inkscape:connector-curvature="0"
         sodipodi:nodetypes="cccc" />
      <path
         sodipodi:nodetypes="cccc"
         inkscape:connector-curvature="0"
         id="path844"
         d="m 746.15357,747.35688 -93.19797,70 93.19797,70 z"
         style="opacity:1;fill:#000000;fill-opacity:1;fill-rule:nonzero;stroke:none;stroke-width:2.49849844;stroke-linecap:square;stroke-linejoin:miter;stroke-miterlimit:4;stroke-dasharray:none;stroke-dashoffset:21.31999969;stroke-opacity:1;paint-order:stroke fill markers" />
    </g>
  </g>
</svg>
