<?xml version="1.0" encoding="UTF-8" standalone="no"?>
<!-- Created with Inkscape (http://www.inkscape.org/) -->

<svg
   xmlns:dc="http://purl.org/dc/elements/1.1/"
   xmlns:cc="http://creativecommons.org/ns#"
   xmlns:rdf="http://www.w3.org/1999/02/22-rdf-syntax-ns#"
   xmlns:svg="http://www.w3.org/2000/svg"
   xmlns="http://www.w3.org/2000/svg"
   xmlns:sodipodi="http://sodipodi.sourceforge.net/DTD/sodipodi-0.dtd"
   xmlns:inkscape="http://www.inkscape.org/namespaces/inkscape"
   width="900mm"
   height="364mm"
   viewBox="0 0 900 364"
   version="1.1"
   id="svg8"
   inkscape:version="0.92.2 (5c3e80d, 2017-08-06)"
   sodipodi:docname="11.svg">
  <defs
     id="defs2" />
  <sodipodi:namedview
     id="base"
     pagecolor="#ffffff"
     bordercolor="#666666"
     borderopacity="1.0"
     inkscape:pageopacity="0.0"
     inkscape:pageshadow="2"
     inkscape:zoom="0.17500001"
     inkscape:cx="1871.4187"
     inkscape:cy="699.31598"
     inkscape:document-units="mm"
     inkscape:current-layer="layer1"
     showgrid="false"
     fit-margin-top="0"
     fit-margin-left="0"
     fit-margin-right="0"
     fit-margin-bottom="0"
     inkscape:window-width="1920"
     inkscape:window-height="1057"
     inkscape:window-x="-8"
     inkscape:window-y="-8"
     inkscape:window-maximized="1"
     inkscape:snap-global="false"
     showguides="false"
     inkscape:measure-start="0,0"
     inkscape:measure-end="0,0" />
  <metadata
     id="metadata5">
    <rdf:RDF>
      <cc:Work
         rdf:about="">
        <dc:format>image/svg+xml</dc:format>
        <dc:type
           rdf:resource="http://purl.org/dc/dcmitype/StillImage" />
        <dc:title></dc:title>
      </cc:Work>
    </rdf:RDF>
  </metadata>
  <g
     inkscape:label="Layer 1"
     inkscape:groupmode="layer"
     id="layer1"
     transform="translate(0,67)">
    <rect
       style="opacity:1;fill:#ffffff;fill-opacity:1;fill-rule:nonzero;stroke:none;stroke-width:0.99077666;stroke-linecap:square;stroke-linejoin:miter;stroke-miterlimit:0;stroke-dasharray:0.99077657, 0.99077656999999997;stroke-dashoffset:21.31999969;stroke-opacity:1;paint-order:stroke fill markers"
       id="rect815"
       width="900"
       height="364"
       x="0"
       y="-67" />
    <rect
       y="-67"
       x="0"
       height="364"
       width="900"
       id="rect817"
       style="opacity:1;fill:#000000;fill-opacity:1;fill-rule:nonzero;stroke:none;stroke-width:0.99077666;stroke-linecap:square;stroke-linejoin:miter;stroke-miterlimit:0;stroke-dasharray:0.99077657, 0.99077657;stroke-dashoffset:21.31999969;stroke-opacity:1;paint-order:stroke fill markers"
       rx="50"
       ry="50" />
    <rect
       ry="25"
       rx="25"
       style="opacity:1;fill:#ffffff;fill-opacity:1;fill-rule:nonzero;stroke:none;stroke-width:0.89428943;stroke-linecap:square;stroke-linejoin:miter;stroke-miterlimit:0;stroke-dasharray:0.89428937, 0.89428936999999997;stroke-dashoffset:21.31999969;stroke-opacity:1;paint-order:stroke fill markers"
       id="rect819"
       width="850"
       height="314"
       x="25"
       y="-42.000061" />
    <g
       aria-label="Acidente"
       style="font-style:normal;font-variant:normal;font-weight:bold;font-stretch:normal;font-size:194.9150238px;line-height:0;font-family:'DIN 1451 Engschrift';-inkscape-font-specification:'DIN 1451 Engschrift Bold';letter-spacing:0.06879167px;word-spacing:0px;fill:#000000;fill-opacity:1;stroke:none;stroke-width:1.01518238"
       id="text848" />
    <path
       inkscape:connector-curvature="0"
       style="font-style:normal;font-variant:normal;font-weight:normal;font-stretch:normal;font-size:236.25559998px;line-height:125%;font-family:'DIN 1451 Engschrift';-inkscape-font-specification:'DIN 1451 Engschrift';letter-spacing:0px;word-spacing:0px;fill:#000000;fill-opacity:1;fill-rule:nonzero;stroke:none;stroke-width:0.74074155px;stroke-linecap:butt;stroke-linejoin:miter;stroke-opacity:1"
       d="m 363.70389,18.414539 c -10.66964,0 -19.25928,8.589641 -19.25928,19.259286 v 93.036845 h -7.18607 V 80.043666 c 0,-6.401803 -5.15349,-11.555288 -11.55526,-11.555288 h -74.81491 c -1.44216,0 -8.98721,3.093168 -11.99942,8.741328 l -22.51885,47.555044 -4.51824,4.51822 c -1.43866,1.46458 -2.73753,2.77863 -3.92649,5.33425 -1.59179,3.42093 -2.4392,5.84926 -2.66638,11.18486 v 17.25985 C 202.29261,163.41162 200,165.87546 200,168.93264 v 15.85224 h 29.04229 a 38.518571,38.518571 0 0 1 -0.005,-0.1476 38.518571,38.518571 0 0 1 38.51855,-38.51864 38.518571,38.518571 0 0 1 38.51855,38.51864 38.518571,38.518571 0 0 1 -0.008,0.1476 h 19.26655 c 2.29403,-43.83237 48.31215,-42.19945 81.11101,-38.9628 v 38.9628 h 174.15378 a 38.518571,38.518571 0 0 1 -0.005,-0.1476 38.518571,38.518571 0 0 1 38.51856,-38.51864 38.518571,38.518571 0 0 1 38.52001,38.51864 38.518571,38.518571 0 0 1 -0.008,0.1476 H 700 V 37.673825 C 699.99958,27.00418 691.40994,18.414539 680.74028,18.414539 Z"
       id="path14783" />
    <path
       inkscape:connector-curvature="0"
       id="path14879"
       style="font-style:normal;font-variant:normal;font-weight:normal;font-stretch:normal;font-size:236.25559998px;line-height:125%;font-family:'DIN 1451 Engschrift';-inkscape-font-specification:'DIN 1451 Engschrift';letter-spacing:0px;word-spacing:0px;fill:#ffffff;fill-opacity:1;fill-rule:nonzero;stroke:none;stroke-width:0.74074155px;stroke-linecap:butt;stroke-linejoin:miter;stroke-opacity:1"
       d="m 447.94072,32.933026 -19.7926,14.51853 v 25.03707 L 443.99999,60.636745 V 170.26649 h 23.70375 V 32.933026"
       sodipodi:nodetypes="ccccccc" />
    <path
       style="font-style:normal;font-variant:normal;font-weight:normal;font-stretch:normal;font-size:236.25559998px;line-height:125%;font-family:'DIN 1451 Engschrift';-inkscape-font-specification:'DIN 1451 Engschrift';letter-spacing:0px;word-spacing:0px;fill:#ffffff;fill-opacity:1;fill-rule:nonzero;stroke:none;stroke-width:19.25928116;stroke-linecap:butt;stroke-linejoin:miter;stroke-miterlimit:4;stroke-dasharray:none;stroke-opacity:1"
       d="m 253.54838,80.562717 h 62.59964 c 4.92444,0 8.88889,3.964446 8.88889,8.8889 v 20.518553 c 0,4.9244 -3.96445,8.88887 -8.88889,8.88887 h -72.2293 c -6.6837,0 -8.68453,-6.4611 -7.4074,-9.18503 l 9.48149,-20.222393 c 2.09051,-4.458674 2.63111,-8.8889 7.55557,-8.8889 z"
       id="rect15007"
       inkscape:connector-curvature="0"
       sodipodi:nodetypes="sssssssss" />
    <circle
       style="font-style:normal;font-variant:normal;font-weight:normal;font-stretch:normal;font-size:236.25559998px;line-height:125%;font-family:'DIN 1451 Engschrift';-inkscape-font-specification:'DIN 1451 Engschrift';letter-spacing:0px;word-spacing:0px;fill:#000000;fill-opacity:1;fill-rule:nonzero;stroke:none;stroke-width:19.25928116;stroke-linecap:butt;stroke-linejoin:miter;stroke-miterlimit:4;stroke-dasharray:none;stroke-opacity:1"
       id="circle4244"
       cx="267.55536"
       cy="184.63701"
       r="26.962997" />
    <circle
       r="26.962997"
       cy="184.63701"
       cx="363.85178"
       id="circle4258"
       style="font-style:normal;font-variant:normal;font-weight:normal;font-stretch:normal;font-size:236.25559998px;line-height:125%;font-family:'DIN 1451 Engschrift';-inkscape-font-specification:'DIN 1451 Engschrift';letter-spacing:0px;word-spacing:0px;fill:#000000;fill-opacity:1;fill-rule:nonzero;stroke:none;stroke-width:19.25928116;stroke-linecap:butt;stroke-linejoin:miter;stroke-miterlimit:4;stroke-dasharray:none;stroke-opacity:1" />
    <circle
       r="26.962997"
       cy="184.63701"
       cx="619.11145"
       id="circle4289"
       style="font-style:normal;font-variant:normal;font-weight:normal;font-stretch:normal;font-size:236.25559998px;line-height:125%;font-family:'DIN 1451 Engschrift';-inkscape-font-specification:'DIN 1451 Engschrift';letter-spacing:0px;word-spacing:0px;fill:#000000;fill-opacity:1;fill-rule:nonzero;stroke:none;stroke-width:19.25928116;stroke-linecap:butt;stroke-linejoin:miter;stroke-miterlimit:4;stroke-dasharray:none;stroke-opacity:1" />
    <path
       d="m 641.71718,121.52476 h 3.65355 v 15.11235 h -4.98215 c -2.98928,0 -5.64632,-0.27688 -7.97126,-0.83041 -2.32497,-0.66427 -4.5946,-1.93739 -6.8089,-3.81947 -2.2143,-1.88218 -3.76424,-3.9303 -4.64995,-6.14467 -0.88569,-2.32489 -1.32858,-5.14811 -1.32858,-8.46955 V 70.710965 H 611.8521 V 55.451698 h 7.77779 V 33.673952 h 15.94269 v 21.777746 h 9.8351 v 15.259267 h -9.8351 v 43.838915 c 0,2.65709 0.33213,4.48384 0.99643,5.4802 0.77506,0.99646 2.49104,1.49468 5.14817,1.49468 z"
       id="path4296"
       inkscape:connector-curvature="0"
       sodipodi:nodetypes="sccscscsccccccccccscs"
       style="font-style:normal;font-variant:normal;font-weight:normal;font-stretch:normal;font-size:224.19358826px;line-height:125%;font-family:'DIN 1451 Engschrift';-inkscape-font-specification:'DIN 1451 Engschrift';letter-spacing:0px;word-spacing:0px;fill:#ffffff;fill-opacity:1;fill-rule:nonzero;stroke:none;stroke-width:0.74074155px;stroke-linecap:butt;stroke-linejoin:miter;stroke-opacity:1" />
    <path
       style="font-style:normal;font-variant:normal;font-weight:normal;font-stretch:normal;font-size:236.25559998px;line-height:125%;font-family:'DIN 1451 Engschrift';-inkscape-font-specification:'DIN 1451 Engschrift';letter-spacing:0px;word-spacing:0px;fill:#ffffff;fill-opacity:1;fill-rule:nonzero;stroke:none;stroke-width:5.96296978;stroke-linecap:butt;stroke-linejoin:miter;stroke-miterlimit:4;stroke-dasharray:none;stroke-opacity:1"
       d="m 538.22201,31.007095 c 21.91381,0 39.55561,17.84003 39.55561,40.000046 V 131.4516 c 0,22.16005 -17.6418,40.0001 -39.55561,40.0001 -21.91379,0 -39.55566,-17.84005 -39.55566,-40.0001 V 71.007141 c 0,-22.160016 17.64187,-40.000046 39.55566,-40.000046 z"
       id="rect7204"
       inkscape:connector-curvature="0" />
    <path
       style="font-style:normal;font-variant:normal;font-weight:normal;font-stretch:normal;font-size:236.25559998px;line-height:125%;font-family:'DIN 1451 Engschrift';-inkscape-font-specification:'DIN 1451 Engschrift';letter-spacing:0px;word-spacing:0px;fill:#000000;fill-opacity:1;fill-rule:nonzero;stroke:none;stroke-width:5.96296978;stroke-linecap:butt;stroke-linejoin:miter;stroke-miterlimit:4;stroke-dasharray:none;stroke-opacity:1"
       d="m 538.22186,54.710972 c 8.78201,0 15.85195,7.268155 15.85195,16.296304 v 60.444534 c 0,9.02821 -7.06994,16.29631 -15.85195,16.29631 -8.78192,0 -15.85185,-7.2681 -15.85185,-16.29631 V 71.007276 c 0,-9.028149 7.06993,-16.296304 15.85185,-16.296304 z"
       id="rect7212"
       inkscape:connector-curvature="0" />
  </g>
</svg>
