<?xml version="1.0" encoding="UTF-8" standalone="no"?>
<!-- Created with Inkscape (http://www.inkscape.org/) -->

<svg
   xmlns:dc="http://purl.org/dc/elements/1.1/"
   xmlns:cc="http://creativecommons.org/ns#"
   xmlns:rdf="http://www.w3.org/1999/02/22-rdf-syntax-ns#"
   xmlns:svg="http://www.w3.org/2000/svg"
   xmlns="http://www.w3.org/2000/svg"
   xmlns:sodipodi="http://sodipodi.sourceforge.net/DTD/sodipodi-0.dtd"
   xmlns:inkscape="http://www.inkscape.org/namespaces/inkscape"
   width="900mm"
   height="364mm"
   viewBox="0 0 900 364"
   version="1.1"
   id="svg8"
   inkscape:version="0.92.2 (5c3e80d, 2017-08-06)"
   sodipodi:docname="11.svg">
  <defs
     id="defs2" />
  <sodipodi:namedview
     id="base"
     pagecolor="#ffffff"
     bordercolor="#666666"
     borderopacity="1.0"
     inkscape:pageopacity="0.0"
     inkscape:pageshadow="2"
     inkscape:zoom="0.24748738"
     inkscape:cx="1917.8359"
     inkscape:cy="615.91592"
     inkscape:document-units="mm"
     inkscape:current-layer="layer1"
     showgrid="false"
     fit-margin-top="0"
     fit-margin-left="0"
     fit-margin-right="0"
     fit-margin-bottom="0"
     inkscape:window-width="1920"
     inkscape:window-height="1057"
     inkscape:window-x="-8"
     inkscape:window-y="-8"
     inkscape:window-maximized="1"
     inkscape:snap-global="false" />
  <metadata
     id="metadata5">
    <rdf:RDF>
      <cc:Work
         rdf:about="">
        <dc:format>image/svg+xml</dc:format>
        <dc:type
           rdf:resource="http://purl.org/dc/dcmitype/StillImage" />
        <dc:title></dc:title>
      </cc:Work>
    </rdf:RDF>
  </metadata>
  <g
     inkscape:label="Layer 1"
     inkscape:groupmode="layer"
     id="layer1"
     transform="translate(0,67)">
    <rect
       style="opacity:1;fill:#ffffff;fill-opacity:1;fill-rule:nonzero;stroke:none;stroke-width:0.99077666;stroke-linecap:square;stroke-linejoin:miter;stroke-miterlimit:0;stroke-dasharray:0.99077657, 0.99077656999999997;stroke-dashoffset:21.31999969;stroke-opacity:1;paint-order:stroke fill markers"
       id="rect815"
       width="900"
       height="364"
       x="0"
       y="-67" />
    <rect
       y="-67"
       x="0"
       height="364"
       width="900"
       id="rect817"
       style="opacity:1;fill:#000000;fill-opacity:1;fill-rule:nonzero;stroke:none;stroke-width:0.99077666;stroke-linecap:square;stroke-linejoin:miter;stroke-miterlimit:0;stroke-dasharray:0.99077657, 0.99077657;stroke-dashoffset:21.31999969;stroke-opacity:1;paint-order:stroke fill markers"
       rx="50"
       ry="50" />
    <rect
       ry="25"
       rx="25"
       style="opacity:1;fill:#ffffff;fill-opacity:1;fill-rule:nonzero;stroke:none;stroke-width:0.89428943;stroke-linecap:square;stroke-linejoin:miter;stroke-miterlimit:0;stroke-dasharray:0.89428937, 0.89428936999999997;stroke-dashoffset:21.31999969;stroke-opacity:1;paint-order:stroke fill markers"
       id="rect819"
       width="850"
       height="314"
       x="25"
       y="-42.000061" />
    <g
       aria-label="Acidente"
       style="font-style:normal;font-variant:normal;font-weight:bold;font-stretch:normal;font-size:194.9150238px;line-height:0;font-family:'DIN 1451 Engschrift';-inkscape-font-specification:'DIN 1451 Engschrift Bold';letter-spacing:0.06879167px;word-spacing:0px;fill:#000000;fill-opacity:1;stroke:none;stroke-width:1.01518238"
       id="text848" />
    <path
       inkscape:connector-curvature="0"
       style="fill:#000000;fill-opacity:1;fill-rule:evenodd;stroke:none;stroke-width:1.04166663"
       d="m 150.72817,22.395789 c -9.53327,0.85437 -7.36913,0.39134 -18.69713,2.81374 -12.48736,2.96968 -14.00492,3.7922 -19.21996,5.62338 l 7.50122,14.12555 c -0.18897,-0.0197 -0.47354,0.15237 -0.52897,0.27048 -19.47323,39.54594 -29.512602,82.620311 -13.11646,139.556881 h 89.74205 a 49.375003,49.375003 0 0 1 -0.0547,-1.55637 49.375003,49.375003 0 0 1 49.3754,-49.37544 49.375003,49.375003 0 0 1 49.37338,49.37544 49.375003,49.375003 0 0 1 -0.0772,1.55842 l 252.42512,0.002 a 49.375003,49.375003 0 0 1 -0.0547,-1.56044 49.375003,49.375003 0 0 1 49.37543,-49.37543 49.375003,49.375003 0 0 1 49.37334,49.37543 49.375003,49.375003 0 0 1 -0.0772,1.56248 h 84.66189 l 70.83331,-6.54094 c -4.12874,-44.51228 9.85476,-93.925511 -17.8548,-133.249921 h 2.75063 c 5.35846,-0.0118 6.73015,-5.73016 6.56129,-8.43909 -0.0925,-1.38315 -0.70858,-2.56555 -1.87378,-3.74961 -0.64208,-0.7302 -1.80771,-1.49488 -3.64582,-1.97957 l -17.81209,-5.62543 c -5.65886,-1.60701 -11.22374,-2.5789 -18.77248,-2.81169 z"
       id="path8418" />
    <rect
       style="fill:#000000;fill-opacity:1;stroke:none;stroke-width:27.08333206;stroke-miterlimit:4;stroke-dasharray:none;stroke-opacity:1"
       id="rect34417"
       width="76.875008"
       height="31.250004"
       x="394.27029"
       y="14.999989"
       rx="11.458333"
       ry="10.416666" />
    <rect
       style="fill:#ffffff;fill-opacity:1;stroke:none;stroke-width:27.08333206;stroke-miterlimit:4;stroke-dasharray:none;stroke-opacity:1"
       id="rect34488"
       width="56.250004"
       height="131.25002"
       x="127.18694"
       y="39.270893"
       rx="10.416666"
       ry="10.416666" />
    <rect
       rx="7.2916665"
       y="39.270893"
       x="195.10356"
       height="61.041668"
       width="56.45834"
       id="rect34508"
       style="fill:#ffffff;fill-opacity:1;stroke:none;stroke-width:27.08333206;stroke-miterlimit:4;stroke-dasharray:none;stroke-opacity:1"
       ry="7.2916665" />
    <rect
       style="fill:#ffffff;fill-opacity:1;stroke:none;stroke-width:27.08333206;stroke-miterlimit:4;stroke-dasharray:none;stroke-opacity:1"
       id="rect34512"
       width="118.95834"
       height="61.041668"
       x="263.22852"
       y="39.270893"
       rx="7.2916665"
       ry="7.2916665" />
    <rect
       ry="7.2916665"
       rx="7.2916665"
       y="39.270893"
       x="393.85361"
       height="61.041668"
       width="118.95834"
       id="rect34588"
       style="fill:#ffffff;fill-opacity:1;stroke:none;stroke-width:27.08333206;stroke-miterlimit:4;stroke-dasharray:none;stroke-opacity:1" />
    <rect
       style="fill:#ffffff;fill-opacity:1;stroke:none;stroke-width:27.08333206;stroke-miterlimit:4;stroke-dasharray:none;stroke-opacity:1"
       id="rect34590"
       width="118.95834"
       height="61.041668"
       x="524.4787"
       y="39.270893"
       rx="7.2916665"
       ry="7.2916665" />
    <path
       style="fill:#ffffff;fill-opacity:1;stroke:none;stroke-width:27.08333206;stroke-miterlimit:4;stroke-dasharray:none;stroke-opacity:1"
       d="M 773.85867,100.31224 H 662.76588 c -4.24481,0 -7.66197,-3.252081 -7.66197,-7.291691 v -46.45831 c 0,-4.0396 3.41716,-7.29169 7.66197,-7.29169 h 90.88448 c 5.48177,0 7.2528,3.5398 8.75,7.29169 l 17.70831,44.37508 c 0.83409,2.09 -0.83331,9.374921 -6.25,9.374921 z"
       id="rect34592"
       inkscape:connector-curvature="0"
       sodipodi:nodetypes="sssssssss" />
    <circle
       r="31.770834"
       cy="183.22917"
       cx="245.72849"
       id="circle34644"
       style="fill:#000000;fill-opacity:1;stroke:none;stroke-width:27.08333206;stroke-miterlimit:4;stroke-dasharray:none;stroke-opacity:1" />
    <circle
       style="fill:#000000;fill-opacity:1;stroke:none;stroke-width:27.08333206;stroke-miterlimit:4;stroke-dasharray:none;stroke-opacity:1"
       id="circle34657"
       cx="596.77026"
       cy="183.22917"
       r="31.770834" />
  </g>
</svg>
