<?xml version="1.0" encoding="UTF-8" standalone="no"?>
<!-- Created with Inkscape (http://www.inkscape.org/) -->

<svg
   xmlns:dc="http://purl.org/dc/elements/1.1/"
   xmlns:cc="http://creativecommons.org/ns#"
   xmlns:rdf="http://www.w3.org/1999/02/22-rdf-syntax-ns#"
   xmlns:svg="http://www.w3.org/2000/svg"
   xmlns="http://www.w3.org/2000/svg"
   xmlns:sodipodi="http://sodipodi.sourceforge.net/DTD/sodipodi-0.dtd"
   xmlns:inkscape="http://www.inkscape.org/namespaces/inkscape"
   width="900mm"
   height="300mm"
   viewBox="0 0 900 300"
   version="1.1"
   id="svg8"
   inkscape:version="0.92.2 (5c3e80d, 2017-08-06)"
   sodipodi:docname="11.svg">
  <defs
     id="defs2" />
  <sodipodi:namedview
     id="base"
     pagecolor="#ffffff"
     bordercolor="#666666"
     borderopacity="1.0"
     inkscape:pageopacity="0.0"
     inkscape:pageshadow="2"
     inkscape:zoom="0.24748737"
     inkscape:cx="1759.3599"
     inkscape:cy="640.75572"
     inkscape:document-units="mm"
     inkscape:current-layer="text835"
     showgrid="false"
     fit-margin-top="0"
     fit-margin-left="0"
     fit-margin-right="0"
     fit-margin-bottom="0"
     inkscape:window-width="1920"
     inkscape:window-height="1057"
     inkscape:window-x="-8"
     inkscape:window-y="-8"
     inkscape:window-maximized="1"
     inkscape:snap-global="false" />
  <metadata
     id="metadata5">
    <rdf:RDF>
      <cc:Work
         rdf:about="">
        <dc:format>image/svg+xml</dc:format>
        <dc:type
           rdf:resource="http://purl.org/dc/dcmitype/StillImage" />
        <dc:title></dc:title>
      </cc:Work>
    </rdf:RDF>
  </metadata>
  <g
     inkscape:label="Layer 1"
     inkscape:groupmode="layer"
     id="layer1"
     transform="translate(0,3)">
    <rect
       style="opacity:1;fill:#ffffff;fill-opacity:1;fill-rule:nonzero;stroke:none;stroke-width:0.89946795;stroke-linecap:square;stroke-linejoin:miter;stroke-miterlimit:0;stroke-dasharray:0.89946789, 0.89946789;stroke-dashoffset:21.31999969;stroke-opacity:1;paint-order:stroke fill markers"
       id="rect815"
       width="900"
       height="300"
       x="0"
       y="-3" />
    <rect
       y="-3"
       x="0"
       height="300"
       width="900"
       id="rect817"
       style="opacity:1;fill:#000000;fill-opacity:1;fill-rule:nonzero;stroke:none;stroke-width:0.89946795;stroke-linecap:square;stroke-linejoin:miter;stroke-miterlimit:0;stroke-dasharray:0.89946789, 0.89946789;stroke-dashoffset:21.31999969;stroke-opacity:1;paint-order:stroke fill markers"
       rx="50"
       ry="50" />
    <rect
       ry="25"
       rx="25"
       style="opacity:1;fill:#ffffff;fill-opacity:1;fill-rule:nonzero;stroke:none;stroke-width:0.79796398;stroke-linecap:square;stroke-linejoin:miter;stroke-miterlimit:0;stroke-dasharray:0.79796391, 0.79796391;stroke-dashoffset:21.31999969;stroke-opacity:1;paint-order:stroke fill markers"
       id="rect819"
       width="850"
       height="250"
       x="24.999996"
       y="22" />
    <g
       aria-label="Blind People"
       style="font-style:normal;font-variant:normal;font-weight:bold;font-stretch:normal;font-size:166.41960144px;line-height:0;font-family:'DIN 1451 Engschrift';-inkscape-font-specification:'DIN 1451 Engschrift Bold';letter-spacing:0px;word-spacing:0px;fill:#000000;fill-opacity:1;stroke:none;stroke-width:0.8667686"
       id="text835">
      <path
         d="m 171.12788,90.99941 q 4.82616,0 9.65233,2.16345 4.82617,2.16346 10.1516,7.48888 5.32543,5.32543 5.32543,16.47554 v 8.4874 q 0,12.64789 -9.98518,17.97332 9.98518,5.82469 9.98518,18.47258 v 12.98072 q 0,11.64938 -7.48889,19.30468 -7.48888,7.6553 -19.30467,7.6553 H 145 V 90.99941 Z m 9.48591,32.95108 v -6.82321 q 0,-5.159 -2.99555,-8.15456 -2.99555,-2.99555 -7.98814,-2.99555 h -8.98666 v 30.62121 h 9.48592 q 5.49185,0 7.98814,-3.3284 2.49629,-3.49481 2.49629,-9.31949 z m 0,51.09081 v -12.98072 q 0,-5.32543 -2.99555,-8.32098 -2.82913,-3.16198 -7.98814,-3.16198 h -8.98666 v 35.6138 h 9.15308 q 4.82617,0 7.82172,-3.16198 2.99555,-3.16197 2.99555,-7.98814 z"
         style="fill:#000000;fill-opacity:1;stroke:none;stroke-width:0.8667686"
         id="path1196"
         inkscape:connector-curvature="0" />
      <path
         d="m 226.26997,90.99941 v 88.20238 q 0,3.99407 1.33136,5.82469 1.33136,1.83062 5.32543,1.83062 h 1.16493 v 15.14418 h -3.49481 q -3.82765,0 -7.15604,-0.8321 -3.32839,-0.8321 -6.65679,-3.32839 -3.32839,-2.66271 -4.99259,-6.65678 -1.49777,-4.16049 -1.49777,-8.82024 V 90.99941 Z"
         style="fill:#000000;fill-opacity:1;stroke:none;stroke-width:0.8667686"
         id="path1198"
         inkscape:connector-curvature="0" />
      <path
         d="m 243.77263,202.00128 v -79.21573 h 15.97629 v 79.21573 z m 0,-95.35843 V 90.99941 h 15.97629 v 15.64344 z"
         style="fill:#000000;fill-opacity:1;stroke:none;stroke-width:0.8667686"
         id="path1200"
         inkscape:connector-curvature="0" />
      <path
         d="m 318.77586,129.94159 q 1.33136,1.99704 1.83062,4.82617 0.49926,2.82913 0.49926,5.65827 v 61.57525 h -15.97628 v -55.75057 q 0,-8.82024 -7.82172,-8.82024 -3.49482,0 -5.65827,2.66272 -2.16346,2.66271 -2.16346,6.15752 v 55.75057 h -15.97628 v -79.21573 h 15.97628 v 7.6553 q 5.32543,-8.65382 14.81135,-8.65382 9.65234,0 14.4785,8.15456 z"
         style="fill:#000000;fill-opacity:1;stroke:none;stroke-width:0.8667686"
         id="path1202"
         inkscape:connector-curvature="0" />
      <path
         d="m 366.22885,202.00128 v -8.15456 q -2.32987,3.99407 -6.15752,6.65678 -3.82765,2.4963 -8.4874,2.4963 -10.81728,0 -13.64641,-5.82469 -2.82913,-5.9911 -3.16197,-8.4874 -0.16642,-2.66271 -0.16642,-6.98962 v -42.76984 q 0,-7.15604 4.82617,-12.14863 4.82617,-4.99259 12.14863,-4.99259 4.49333,0 8.32098,2.32988 3.99407,2.32987 6.32394,6.15752 V 90.99941 h 15.97629 v 111.00187 z m -1.16493,-60.74315 q -2.32988,-3.99408 -6.82321,-3.99408 -2.32987,0 -4.32691,1.33136 -1.83061,1.16494 -2.49629,2.99555 -0.66568,1.6642 -0.8321,3.66124 0,1.83061 0,2.82913 v 28.45775 q 0,1.6642 0,3.32839 0.16642,1.6642 1.6642,4.32691 1.49777,2.66272 6.15752,2.66272 4.82617,0 6.32395,-2.66272 1.49777,-2.66271 1.49777,-5.32543 v -2.32987 -28.45775 q 0,-1.6642 -0.16642,-3.32839 0,-1.83062 -0.99851,-3.49481 z"
         style="fill:#000000;fill-opacity:1;stroke:none;stroke-width:0.8667686"
         id="path1204"
         inkscape:connector-curvature="0" />
      <path
         d="M 435.7422,202.00128 V 90.99941 h 25.96146 q 4.82616,0 9.65233,1.99703 4.82617,1.99704 7.98814,5.32543 3.3284,3.16197 5.49185,7.6553 2.32988,4.49333 2.32988,8.65382 v 16.1427 q 0,6.15753 -1.6642,10.98369 -1.6642,4.82617 -5.82469,8.98666 -3.99407,3.99407 -8.82024,5.82469 -4.65974,1.66419 -10.98369,1.66419 h -8.32098 v 43.76836 z m 33.61676,-61.90809 q 1.49777,-1.49778 1.83061,-3.16197 0.49926,-1.6642 0.49926,-4.16049 v -1.99704 -14.47851 q 0,-4.65974 -2.82913,-7.6553 -2.82913,-2.99555 -7.6553,-2.99555 h -9.65234 v 37.61083 h 8.32098 q 3.32839,0 5.32543,-0.49926 2.16345,-0.66568 4.16049,-2.66271 z"
         style="fill:#000000;fill-opacity:1;stroke:none;stroke-width:0.8667686"
         id="path1206"
         inkscape:connector-curvature="0" />
      <path
         d="m 518.9442,186.8571 q 3.49481,0 5.65827,-2.16346 2.16345,-2.16345 2.66271,-5.65827 h 15.80986 v 1.83062 q 0,3.66123 -1.66419,7.32246 -1.49778,3.66123 -6.49037,9.3195 -4.99259,5.49185 -15.64344,5.49185 -6.8232,0 -12.64789,-3.66123 -5.65827,-3.66124 -7.82172,-7.98814 -2.16346,-4.49333 -2.82913,-7.98815 -0.49926,-3.66123 -0.49926,-7.15604 v -30.12195 q 0,-9.81875 6.98962,-16.9748 7.15604,-7.32246 16.9748,-7.32246 10.15159,0 16.80838,7.15604 6.8232,6.98963 6.8232,17.14122 v 21.96739 h -31.61972 v 11.81579 q 0,2.4963 2.32987,4.82617 2.4963,2.16346 5.15901,2.16346 z m 0.33284,-49.42663 q -3.16197,0 -5.49185,2.16346 -2.32987,2.16345 -2.32987,7.6553 v 7.82172 h 15.64344 v -7.82172 q 0,-4.32691 -1.83061,-6.98962 -1.83062,-2.82914 -5.99111,-2.82914 z"
         style="fill:#000000;fill-opacity:1;stroke:none;stroke-width:0.8667686"
         id="path1208"
         inkscape:connector-curvature="0" />
      <path
         d="m 559.63637,130.94011 q 3.49481,-4.32691 8.15456,-6.65678 4.82617,-2.4963 10.31802,-2.4963 6.15752,0 10.81727,2.32988 4.82617,2.16345 8.98666,7.6553 4.16049,5.49184 4.16049,14.31208 v 31.61973 q 0,8.98666 -3.99407,14.4785 -3.99407,5.32543 -8.98666,8.15456 -4.99259,2.66272 -10.15159,2.66272 -7.15605,0 -13.14715,-3.49481 -5.82469,-3.66124 -8.15456,-7.98815 -2.16346,-4.49332 -2.66272,-7.32246 -0.49925,-2.99555 -0.49925,-6.49036 v -31.61973 q 0,-8.98666 5.159,-15.14418 z m 18.80542,6.32394 q -3.66123,0 -5.82469,2.4963 -2.16345,2.49629 -2.16345,6.32394 v 31.61973 q 0,3.82765 1.99703,6.65678 2.16346,2.66272 5.99111,2.66272 5.15901,0 6.32394,-2.99556 1.33136,-2.99555 1.33136,-6.65678 v -31.28689 q 0,-3.66123 -2.16346,-6.15752 -1.99703,-2.66272 -5.49184,-2.66272 z"
         style="fill:#000000;fill-opacity:1;stroke:none;stroke-width:0.8667686"
         id="path1210"
         inkscape:connector-curvature="0" />
      <path
         d="M 614.9657,233.621 V 122.78555 h 15.97629 v 7.6553 q 2.49629,-3.99407 6.49036,-6.32394 3.99407,-2.4963 8.65382,-2.4963 6.98962,0 11.64937,5.32543 4.82617,5.15901 4.82617,12.31505 v 45.59897 q 0,3.49481 -0.66568,6.15753 -0.66568,2.49629 -4.16049,7.15604 -3.49481,4.65975 -11.31653,4.65975 -10.48444,0 -15.47702,-8.82024 V 233.621 Z m 23.79801,-96.19053 q -3.66123,0 -5.82469,2.66272 -1.99703,2.49629 -1.99703,6.15752 v 30.95405 q 0,4.32691 1.99703,7.15604 1.99704,2.66272 6.49037,2.66272 4.65974,0 5.82468,-3.16198 1.33136,-3.16197 1.33136,-6.65678 v -30.95405 q 0,-3.66123 -2.16346,-6.15752 -1.99703,-2.66272 -5.65826,-2.66272 z"
         style="fill:#000000;fill-opacity:1;stroke:none;stroke-width:0.8667686"
         id="path1212"
         inkscape:connector-curvature="0" />
      <path
         d="m 691.23266,90.99941 v 88.20238 q 0,3.99407 1.33136,5.82469 1.33135,1.83062 5.32542,1.83062 h 1.16494 v 15.14418 h -3.49481 q -3.82765,0 -7.15604,-0.8321 -3.3284,-0.8321 -6.65679,-3.32839 -3.32839,-2.66271 -4.99259,-6.65678 -1.49777,-4.16049 -1.49777,-8.82024 V 90.99941 Z"
         style="fill:#000000;fill-opacity:1;stroke:none;stroke-width:0.8667686"
         id="path1214"
         inkscape:connector-curvature="0" />
      <path
         d="m 730.86913,186.8571 q 3.49481,0 5.65826,-2.16346 2.16346,-2.16345 2.66272,-5.65827 h 15.80986 v 1.83062 q 0,3.66123 -1.6642,7.32246 -1.49777,3.66123 -6.49036,9.3195 -4.99259,5.49185 -15.64344,5.49185 -6.82321,0 -12.64789,-3.66123 -5.65827,-3.66124 -7.82172,-7.98814 -2.16346,-4.49333 -2.82914,-7.98815 -0.49926,-3.66123 -0.49926,-7.15604 v -30.12195 q 0,-9.81875 6.98963,-16.9748 7.15604,-7.32246 16.9748,-7.32246 10.15159,0 16.80838,7.15604 6.8232,6.98963 6.8232,17.14122 v 21.96739 h -31.61972 v 11.81579 q 0,2.4963 2.32987,4.82617 2.49629,2.16346 5.15901,2.16346 z m 0.33284,-49.42663 q -3.16198,0 -5.49185,2.16346 -2.32987,2.16345 -2.32987,7.6553 v 7.82172 h 15.64344 v -7.82172 q 0,-4.32691 -1.83062,-6.98962 -1.83061,-2.82914 -5.9911,-2.82914 z"
         style="fill:#000000;fill-opacity:1;stroke:none;stroke-width:0.8667686"
         id="path1216"
         inkscape:connector-curvature="0" />
    </g>
  </g>
</svg>
