<?xml version="1.0" encoding="UTF-8" standalone="no"?>
<!-- Created with Inkscape (http://www.inkscape.org/) -->

<svg
   xmlns:dc="http://purl.org/dc/elements/1.1/"
   xmlns:cc="http://creativecommons.org/ns#"
   xmlns:rdf="http://www.w3.org/1999/02/22-rdf-syntax-ns#"
   xmlns:svg="http://www.w3.org/2000/svg"
   xmlns="http://www.w3.org/2000/svg"
   xmlns:sodipodi="http://sodipodi.sourceforge.net/DTD/sodipodi-0.dtd"
   xmlns:inkscape="http://www.inkscape.org/namespaces/inkscape"
   width="908.79999"
   height="1255.1899"
   viewBox="0 0 240.45332 332.10234"
   version="1.1"
   id="svg4543"
   inkscape:version="0.92.1 r15371"
   sodipodi:docname="SADC_road_sign_R2.1.svg">
  <defs
     id="defs4537" />
  <sodipodi:namedview
     id="base"
     pagecolor="#ffffff"
     bordercolor="#666666"
     borderopacity="1.0"
     inkscape:pageopacity="0.0"
     inkscape:pageshadow="2"
     inkscape:zoom="0.37934028"
     inkscape:cx="192.50851"
     inkscape:cy="464.06524"
     inkscape:document-units="px"
     inkscape:current-layer="layer1"
     showgrid="false"
     inkscape:snap-global="false"
     units="px"
     fit-margin-top="0"
     fit-margin-left="0"
     fit-margin-right="0"
     fit-margin-bottom="0"
     inkscape:measure-start="0,0"
     inkscape:measure-end="0,0"
     inkscape:window-width="1920"
     inkscape:window-height="1057"
     inkscape:window-x="-8"
     inkscape:window-y="-8"
     inkscape:window-maximized="1" />
  <metadata
     id="metadata4540">
    <rdf:RDF>
      <cc:Work
         rdf:about="">
        <dc:format>image/svg+xml</dc:format>
        <dc:type
           rdf:resource="http://purl.org/dc/dcmitype/StillImage" />
        <dc:title></dc:title>
      </cc:Work>
    </rdf:RDF>
  </metadata>
  <g
     inkscape:label="Layer 1"
     inkscape:groupmode="layer"
     id="layer1"
     transform="translate(-83.449585,43.145735)">
    <rect
       style="fill:#e20a16;fill-opacity:1;stroke:none;stroke-width:15.61041641;stroke-linecap:square;stroke-linejoin:round;stroke-miterlimit:4;stroke-dasharray:none;stroke-opacity:1;paint-order:normal"
       id="rect4485"
       width="89.429169"
       height="119.06248"
       x="158.96167"
       y="169.7883" />
    <rect
       y="169.7883"
       x="158.96167"
       height="119.06248"
       width="89.429169"
       id="rect4487"
       style="fill:#ffffff;fill-opacity:1;stroke:none;stroke-width:15.61041641;stroke-linecap:square;stroke-linejoin:round;stroke-miterlimit:4;stroke-dasharray:none;stroke-opacity:1;paint-order:normal"
       rx="11.90625"
       ry="11.906247" />
    <rect
       y="173.75705"
       x="162.93042"
       height="111.12498"
       width="81.491669"
       id="rect4490"
       style="fill:#e20a16;fill-opacity:1;stroke:none;stroke-width:15.61041737;stroke-linecap:square;stroke-linejoin:round;stroke-miterlimit:4;stroke-dasharray:none;stroke-opacity:1;paint-order:normal"
       rx="7.9375"
       ry="7.9374981" />
    <path
       sodipodi:nodetypes="cccc"
       style="opacity:1;fill:none;fill-opacity:1;stroke:#000000;stroke-width:15.875;stroke-linecap:butt;stroke-linejoin:round;stroke-miterlimit:4;stroke-dasharray:none;stroke-dashoffset:0;stroke-opacity:1"
       inkscape:transform-center-y="122.39878"
       d="M 203.67616,159.20576 91.492337,-35.102403 l 224.367733,1.3e-4 z"
       id="path4501"
       inkscape:connector-curvature="0"
       inkscape:transform-center-x="-0.0013776848" />
    <path
       inkscape:transform-center-x="-0.0013776848"
       inkscape:connector-curvature="0"
       id="path4575"
       d="M 203.67616,159.20576 91.492337,-35.102403 l 224.367733,1.3e-4 z"
       inkscape:transform-center-y="122.39878"
       style="opacity:1;fill:none;fill-opacity:1;stroke:#fffff4;stroke-width:13.75833321;stroke-linecap:butt;stroke-linejoin:round;stroke-miterlimit:4;stroke-dasharray:none;stroke-dashoffset:0;stroke-opacity:1"
       sodipodi:nodetypes="cccc" />
    <path
       sodipodi:nodetypes="cccc"
       style="opacity:1;fill:#e20a16;fill-opacity:1;stroke:#e20a16;stroke-width:5.82083321;stroke-linecap:butt;stroke-linejoin:round;stroke-miterlimit:4;stroke-dasharray:none;stroke-dashoffset:0;stroke-opacity:1"
       inkscape:transform-center-y="122.39847"
       d="M 203.6762,159.20528 91.492617,-35.102403 l 224.367223,1.4e-4 z"
       id="path4577"
       inkscape:connector-curvature="0"
       inkscape:transform-center-x="-0.0013812723" />
    <path
       style="fill:#ffffff;fill-opacity:1;stroke:none;stroke-width:5.82083321;stroke-linecap:square;stroke-linejoin:round;stroke-miterlimit:4;stroke-dasharray:none;stroke-opacity:1;paint-order:normal"
       d="m 275.53202,-11.819147 -143.71167,9e-5 71.8559,124.457947 z"
       id="path4579"
       inkscape:connector-curvature="0"
       sodipodi:nodetypes="cccc" />
    <path
       d="m 203.52278,200.41348 c 0.18326,-0.181 1.68421,-1.72404 1.77992,-1.78737 0.43891,-0.27829 4.25421,-1.48422 4.76505,-1.48422 2.04326,0 4.45375,0.95705 5.9463,2.37858 l 9.21878,6.53684 -1.18917,-3.55982 c 0.37512,0.37558 1.37289,0.85522 1.78783,1.19007 0.53487,0.4231 1.20524,0.80545 1.78783,1.19008 l 1.48467,-0.30318 c 0.69437,0.25567 1.43669,0.52717 2.08332,0.8937 l 1.77992,1.78739 c 1.26112,1.66747 6.13786,8.53238 7.43888,9.51407 0.0793,0.15838 0.23146,0.6946 0.29525,0.8937 0.0882,0.92536 -0.19908,2.86548 -0.29525,3.86301 l -0.89391,0.59052 -1.48467,0.59955 c -0.24751,-0.0452 -1.23713,-0.51131 -1.48466,-0.59955 l -4.46171,-2.67384 -1.19733,0.29413 h -1.48465 l -0.89391,-0.88691 -1.18919,1.19009 -0.29525,2.07471 c 0.74232,5.68298 -3.99082,16.72154 -7.14359,21.41467 l 4.46974,5.65106 c 0.39909,0.55885 1.21314,1.49326 1.48465,2.08378 0.34323,0.73531 0.72627,2.98514 0.59866,3.86324 0.25544,4.67728 1.04551,9.26656 -0.90184,13.38524 h -1.18126 l -1.18917,-1.19008 c -0.35929,-0.55885 -0.71043,-1.74892 -0.89391,-2.37835 l 1.18917,-1.78739 c 0.35906,-1.34845 0.59073,-3.08086 0.59073,-4.46167 0,-1.95481 -0.51878,-4.23023 -1.48465,-5.94634 l -0.89392,-1.19007 -4.75706,-3.2725 c -0.57468,0.64708 -1.78784,8.69188 -1.78784,9.81727 0,1.37334 0.41495,3.08107 0.59866,4.46188 l 0.29525,0.88691 0.89393,0.30318 1.18917,0.59051 1.77992,2.37835 -2.07517,1.19008 h -1.78785 l -0.59865,-1.48421 -0.886,-1.4842 -1.78783,-1.19008 -0.59866,-0.89369 c 0.27941,-2.01816 0.89391,-4.53362 0.89391,-6.545 v -6.83232 c 0,-1.05433 -0.1991,-2.22632 -0.29525,-3.27227 l -0.59866,-0.8937 c -0.10405,-0.2466 -0.224,-0.90952 -0.29526,-1.19008 -3.31239,0.181 -6.83229,-0.181 -10.11272,-0.59955 -2.33064,-0.64709 -4.66128,-1.65164 -6.84028,-2.67384 l -2.37852,2.96932 c -0.63849,0.79866 -2.13899,1.85072 -2.97716,2.3865 -0.27941,0.181 -0.64662,0.37556 -0.89392,0.5905 -0.51087,0.45477 -0.99776,1.00683 -1.48465,1.48421 l -0.30318,0.8937 0.30318,0.89368 2.08332,3.86302 0.59073,0.89369 0.30341,0.89368 c 0.1199,0.25567 0.50273,0.91859 0.59074,1.1901 l -0.29525,0.89368 -1.78785,1.19008 -0.89392,0.59052 -1.48465,2.37858 c -0.24752,-0.49549 -0.73441,-1.26928 -0.89391,-1.78738 l -0.19911,-1.38013 -0.095,-0.6946 0.59074,-0.89369 1.49257,-0.59957 v -0.88689 l -0.30318,-0.8937 c -0.54277,-0.40726 -1.4446,-1.80323 -1.7799,-2.37857 l -0.89393,1.4842 c -0.31923,0.95704 -0.36719,3.44015 -0.29525,4.46189 l 1.18918,3.86302 c 0.17648,0.52715 0.35114,1.30999 0.59074,1.78738 0.28734,0.56788 0.83011,1.24438 1.18916,1.7806 l 2.09125,0.89369 1.77992,2.08377 -0.59074,1.48421 -1.18918,0.30318 -2.38651,-0.30318 -0.29527,-2.08378 -0.89392,-0.59052 -2.08308,-0.89368 v -2.96909 c -0.10405,-1.17424 -0.98964,-3.81528 -1.48467,-4.75694 -0.5188,-0.98871 -1.43669,-2.05209 -2.08308,-2.97723 l -0.29528,-1.48421 c 0.0793,-0.24661 0.75817,-1.52493 0.88601,-1.78738 0.40703,-2.01138 0.80613,-3.87117 0.59866,-5.94634 -0.0882,-0.34389 -0.1516,-0.8688 -0.29526,-1.19008 -0.31924,-0.70137 -0.80613,-1.4118 -1.18918,-2.08377 -0.9498,-1.51589 -1.70797,-3.61571 -2.08332,-5.34765 0,-3.00914 -0.0476,-5.96218 0.59074,-8.92335 -3.05699,2.86524 -4.51762,5.94633 -5.25192,10.0089 l -0.39911,2.17878 c 0,1.23759 0.17648,3.97478 0.89392,5.06033 -0.43893,3.48789 -1.52448,7.85385 -4.46174,10.10483 0.6145,-0.8869 1.48466,-3.44807 1.48466,-4.4619 v -2.66591 c 0,-1.60412 -0.98985,-4.18225 -2.07517,-5.35559 -0.62265,-0.8937 -1.49258,-3.45599 -1.49258,-4.46167 0,-5.5074 1.99531,-9.35457 7.14356,-11.5974 2.26678,-0.58146 5.69091,-2.33061 7.4309,-3.87115 0.98171,-0.67876 3.68753,-2.37044 4.75708,-2.67384 0.83803,-0.23078 2.09915,-0.20363 2.98513,-0.29639 3.14475,-0.15838 6.36135,-0.39821 9.5141,-0.29413 0.31132,-7.07169 1.89169,-14.16738 5.06036,-20.52074"
       style="fill:#ffffff;fill-opacity:1;fill-rule:evenodd;stroke:none;stroke-width:7.98163462"
       id="path42441"
       inkscape:connector-curvature="0" />
    <path
       d="m 211.84762,213.20007 -2.0831,5.94632 c 2.92926,-1.38918 5.93835,-3.47996 8.33283,-5.65107 -0.28734,-0.0453 -2.85742,-0.59052 -2.97715,-0.59052 -1.05365,0 -2.21884,0.20363 -3.27247,0.29639"
       style="fill:#e20a16;fill-opacity:1;fill-rule:nonzero;stroke:none;stroke-width:7.98163462"
       id="path42445"
       inkscape:connector-curvature="0" />
    <path
       d="m 219.58182,211.70749 3.8711,-3.86324 c -3.472,-1.43669 -6.96797,-3.3044 -10.11275,-5.34767 0.008,1.72403 -0.14252,5.5074 -0.89392,7.13574 2.34662,0.70137 4.73313,1.59507 7.1356,2.07471"
       style="fill:#e20a16;fill-opacity:1;fill-rule:nonzero;stroke:none;stroke-width:7.98163462"
       id="path42447"
       inkscape:connector-curvature="0" />
    <ellipse
       style="opacity:1;fill:#ffffff;fill-opacity:1;stroke:none;stroke-width:3.09208632;stroke-linejoin:round;stroke-miterlimit:4;stroke-dasharray:none;stroke-opacity:1"
       id="path45700"
       cx="210.58188"
       cy="192.1456"
       rx="4.1010418"
       ry="4.1010408" />
  </g>
</svg>
