<?xml version="1.0" encoding="UTF-8" standalone="no"?>
<!-- Created with Inkscape (http://www.inkscape.org/) -->

<svg
   xmlns:dc="http://purl.org/dc/elements/1.1/"
   xmlns:cc="http://creativecommons.org/ns#"
   xmlns:rdf="http://www.w3.org/1999/02/22-rdf-syntax-ns#"
   xmlns:svg="http://www.w3.org/2000/svg"
   xmlns="http://www.w3.org/2000/svg"
   xmlns:sodipodi="http://sodipodi.sourceforge.net/DTD/sodipodi-0.dtd"
   xmlns:inkscape="http://www.inkscape.org/namespaces/inkscape"
   width="400"
   height="800"
   viewBox="0 0 105.83333 211.66667"
   version="1.1"
   id="svg32762"
   inkscape:version="0.92.1 r15371"
   sodipodi:docname="Tram 3.svg">
  <defs
     id="defs32756">
    <pattern
       y="0"
       x="0"
       height="6"
       width="6"
       patternUnits="userSpaceOnUse"
       id="EMFhbasepattern" />
  </defs>
  <sodipodi:namedview
     id="base"
     pagecolor="#ffffff"
     bordercolor="#666666"
     borderopacity="1.0"
     inkscape:pageopacity="0.0"
     inkscape:pageshadow="2"
     inkscape:zoom="0.63753455"
     inkscape:cx="21.96416"
     inkscape:cy="361.41029"
     inkscape:document-units="px"
     inkscape:current-layer="layer1"
     showgrid="false"
     units="px"
     fit-margin-top="0"
     fit-margin-left="0"
     fit-margin-right="0"
     fit-margin-bottom="0"
     inkscape:snap-global="false"
     showguides="false"
     inkscape:window-width="1920"
     inkscape:window-height="1057"
     inkscape:window-x="-8"
     inkscape:window-y="-8"
     inkscape:window-maximized="1" />
  <metadata
     id="metadata32759">
    <rdf:RDF>
      <cc:Work
         rdf:about="">
        <dc:format>image/svg+xml</dc:format>
        <dc:type
           rdf:resource="http://purl.org/dc/dcmitype/StillImage" />
        <dc:title></dc:title>
      </cc:Work>
    </rdf:RDF>
  </metadata>
  <g
     inkscape:label="Layer 1"
     inkscape:groupmode="layer"
     id="layer1"
     transform="translate(-82.020839,304.92712)">
    <rect
       style="opacity:1;fill:#00559b;fill-opacity:1;stroke:none;stroke-width:0.77721179;stroke-linejoin:round;stroke-miterlimit:4;stroke-dasharray:none;stroke-opacity:1"
       id="rect42652"
       width="105.83334"
       height="211.66667"
       x="82.020836"
       y="-304.92712" />
    <rect
       y="-304.92712"
       x="82.020836"
       height="211.66667"
       width="105.83334"
       id="rect42712"
       style="opacity:1;fill:#ffffff;fill-opacity:1;stroke:none;stroke-width:0.77721179;stroke-linejoin:round;stroke-miterlimit:4;stroke-dasharray:none;stroke-opacity:1"
       rx="10.583333"
       ry="10.583333" />
    <path
       style="opacity:1;fill:#00559b;fill-opacity:1;stroke:none;stroke-width:0.71865827;stroke-linejoin:round;stroke-miterlimit:4;stroke-dasharray:none;stroke-opacity:1"
       d="m 182.56253,-250.68756 v -43.65625 c 0,-2.93159 -2.36009,-5.29167 -5.29167,-5.29167 H 92.604171 c -2.931583,0 -5.291666,2.36008 -5.291666,5.29167 v 43.65625 z"
       id="rect42714"
       inkscape:connector-curvature="0"
       sodipodi:nodetypes="csssscc" />
    <path
       style="opacity:1;fill:#00559b;fill-opacity:1;stroke:none;stroke-width:3.83478808;stroke-linejoin:round;stroke-miterlimit:4;stroke-dasharray:none;stroke-opacity:1"
       d="M 87.312504,-152.79174 H 182.56253 V -245.3959 H 87.312504 Z"
       id="rect42722"
       inkscape:connector-curvature="0" />
    <circle
       style="opacity:1;fill:#ffffff;fill-opacity:1;stroke:none;stroke-width:2.64878964;stroke-linejoin:round;stroke-miterlimit:4;stroke-dasharray:none;stroke-opacity:1"
       id="path82310"
       cx="134.9375"
       cy="-275.1615"
       r="21.166666" />
    <path
       d="m 120.71615,-281.66647 h 1.86378 v 11.14612 h 3.69101 v 1.86378 h -5.55479 z"
       style="font-style:normal;font-variant:normal;font-weight:normal;font-stretch:normal;font-size:18.27232933px;line-height:1.25;font-family:'DIN 1451 Std';-inkscape-font-specification:'DIN 1451 Std';letter-spacing:0px;word-spacing:0px;fill:#000000;fill-opacity:1;stroke:none;stroke-width:0.09516838"
       id="path24389"
       inkscape:connector-curvature="0" />
    <path
       d="m 127.34958,-278.59672 q 0,-0.78571 0.27409,-1.3887 0.27408,-0.60298 0.71262,-0.9867 0.45681,-0.40199 1.00498,-0.60299 0.56644,-0.201 1.13288,-0.201 0.56645,0 1.11462,0.201 0.56644,0.201 1.00497,0.60299 0.45681,0.38372 0.7309,0.9867 0.27408,0.60299 0.27408,1.3887 v 6.8704 q 0,0.80398 -0.27408,1.40697 -0.27409,0.58471 -0.7309,0.9867 -0.43853,0.38372 -1.00497,0.58472 -0.54817,0.20099 -1.11462,0.20099 -0.56644,0 -1.13288,-0.20099 -0.54817,-0.201 -1.00498,-0.58472 -0.43854,-0.40199 -0.71262,-0.9867 -0.27409,-0.60299 -0.27409,-1.40697 z m 1.86378,6.8704 q 0,0.67607 0.36545,1.00497 0.38372,0.31063 0.89534,0.31063 0.51163,0 0.87708,-0.31063 0.38371,-0.3289 0.38371,-1.00497 v -6.8704 q 0,-0.67608 -0.38371,-0.98671 -0.36545,-0.3289 -0.87708,-0.3289 -0.51162,0 -0.89534,0.3289 -0.36545,0.31063 -0.36545,0.98671 z"
       style="font-style:normal;font-variant:normal;font-weight:normal;font-stretch:normal;font-size:18.27232933px;line-height:1.25;font-family:'DIN 1451 Std';-inkscape-font-specification:'DIN 1451 Std';letter-spacing:0px;word-spacing:0px;fill:#000000;fill-opacity:1;stroke:none;stroke-width:0.09516838"
       id="path24391"
       inkscape:connector-curvature="0" />
    <path
       d="m 135.1296,-278.59672 q 0,-0.78571 0.27408,-1.3887 0.27409,-0.60298 0.71263,-0.9867 0.4568,-0.40199 1.00497,-0.60299 0.56645,-0.201 1.13289,-0.201 0.56644,0 1.11461,0.201 0.56644,0.201 1.00498,0.60299 0.45681,0.38372 0.73089,0.9867 0.27409,0.60299 0.27409,1.3887 v 0.6578 h -1.86378 v -0.6578 q 0,-0.67608 -0.38372,-0.98671 -0.36545,-0.3289 -0.87707,-0.3289 -0.51163,0 -0.89535,0.3289 -0.36544,0.31063 -0.36544,0.98671 v 6.8704 q 0,0.67607 0.36544,1.00497 0.38372,0.31063 0.89535,0.31063 0.51162,0 0.87707,-0.31063 0.38372,-0.3289 0.38372,-1.00497 v -2.4485 h -1.48006 v -1.64451 h 3.34384 v 4.09301 q 0,0.80398 -0.27409,1.40697 -0.27408,0.58471 -0.73089,0.9867 -0.43854,0.38372 -1.00498,0.58472 -0.54817,0.20099 -1.11461,0.20099 -0.56644,0 -1.13289,-0.20099 -0.54817,-0.201 -1.00497,-0.58472 -0.43854,-0.40199 -0.71263,-0.9867 -0.27408,-0.60299 -0.27408,-1.40697 z"
       style="font-style:normal;font-variant:normal;font-weight:normal;font-stretch:normal;font-size:18.27232933px;line-height:1.25;font-family:'DIN 1451 Std';-inkscape-font-specification:'DIN 1451 Std';letter-spacing:0px;word-spacing:0px;fill:#000000;fill-opacity:1;stroke:none;stroke-width:0.09516838"
       id="path24393"
       inkscape:connector-curvature="0" />
    <path
       d="m 142.90961,-278.59672 q 0,-0.78571 0.27409,-1.3887 0.27408,-0.60298 0.71262,-0.9867 0.45681,-0.40199 1.00498,-0.60299 0.56644,-0.201 1.13288,-0.201 0.56644,0 1.11461,0.201 0.56645,0.201 1.00498,0.60299 0.45681,0.38372 0.7309,0.9867 0.27408,0.60299 0.27408,1.3887 v 6.8704 q 0,0.80398 -0.27408,1.40697 -0.27409,0.58471 -0.7309,0.9867 -0.43853,0.38372 -1.00498,0.58472 -0.54817,0.20099 -1.11461,0.20099 -0.56644,0 -1.13288,-0.20099 -0.54817,-0.201 -1.00498,-0.58472 -0.43854,-0.40199 -0.71262,-0.9867 -0.27409,-0.60299 -0.27409,-1.40697 z m 1.86378,6.8704 q 0,0.67607 0.36545,1.00497 0.38372,0.31063 0.89534,0.31063 0.51163,0 0.87707,-0.31063 0.38372,-0.3289 0.38372,-1.00497 v -6.8704 q 0,-0.67608 -0.38372,-0.98671 -0.36544,-0.3289 -0.87707,-0.3289 -0.51162,0 -0.89534,0.3289 -0.36545,0.31063 -0.36545,0.98671 z"
       style="font-style:normal;font-variant:normal;font-weight:normal;font-stretch:normal;font-size:18.27232933px;line-height:1.25;font-family:'DIN 1451 Std';-inkscape-font-specification:'DIN 1451 Std';letter-spacing:0px;word-spacing:0px;fill:#000000;fill-opacity:1;stroke:none;stroke-width:0.09516838"
       id="path24395"
       inkscape:connector-curvature="0" />
    <path
       d="m 116.84,-171.78882 h 2.96334 l -4.7625,10.00125 h -2.96334 l 4.7625,-7.72583 z"
       style="fill:#ffffff;fill-opacity:1;fill-rule:evenodd;stroke:none;stroke-width:1.8925916"
       id="path5758"
       inkscape:connector-curvature="0"
       sodipodi:nodetypes="cccccc" />
    <path
       style="fill:#ffffff;fill-opacity:1;stroke:none;stroke-width:1.57364833;stroke-miterlimit:4;stroke-dasharray:none;stroke-opacity:1"
       d="m 120.06792,-236.40007 -4.31271,4.31266 0.68265,0.91286 1.81766,-1.81773 15.90411,3.63002 1.4e-4,4.07469 h -16.81706 l -4.31291,3.175 h -1.11105 c -1.90553,0 -3.43958,1.53405 -3.43958,3.43958 v 46.69896 l 2.24896,2.24896 h 3.88917 v -4.23333 h 40.64041 v 4.23333 h 3.88917 l 2.24896,-2.24896 v -46.69896 c 0,-1.90553 -1.53405,-3.43958 -3.43958,-3.43958 h -1.11104 l -4.31292,-3.175 h -16.81707 l 1.5e-4,-4.07469 15.9041,-3.63002 1.81767,1.81773 0.68265,-0.91286 -4.31271,-4.31266 z"
       id="path24260"
       inkscape:connector-curvature="0"
       sodipodi:nodetypes="ccccccccssccccccccssccccccccc" />
    <path
       sodipodi:nodetypes="cccccc"
       inkscape:connector-curvature="0"
       id="path24323"
       d="m 134.93752,-230.71163 -15.54685,-3.41312 1.12706,-1.13766 h 28.83958 l 1.12707,1.13766 z"
       style="fill:#00559b;fill-opacity:1;fill-rule:evenodd;stroke:none;stroke-width:1.89358807" />
    <circle
       style="fill:#00559b;fill-opacity:1;stroke:none;stroke-width:0.923329;stroke-miterlimit:4;stroke-dasharray:none;stroke-opacity:1"
       id="path24386"
       cx="118.69209"
       cy="-184.27722"
       r="2.9104166" />
    <circle
       r="2.9104166"
       cy="-184.27722"
       cx="151.18292"
       id="circle24408"
       style="fill:#00559b;fill-opacity:1;stroke:none;stroke-width:0.923329;stroke-miterlimit:4;stroke-dasharray:none;stroke-opacity:1" />
    <rect
       style="fill:#00559b;fill-opacity:1;stroke:none;stroke-width:1.69659448;stroke-miterlimit:4;stroke-dasharray:none;stroke-opacity:1"
       id="rect24419"
       width="48.365833"
       height="22.013332"
       x="110.75459"
       y="-211.84683"
       rx="1.9579166"
       ry="1.9579166" />
    <rect
       style="fill:#00559b;fill-opacity:1;stroke:none;stroke-width:0.77956909;stroke-miterlimit:4;stroke-dasharray:none;stroke-opacity:1"
       id="rect24439"
       width="8.8370829"
       height="5.4504166"
       x="117.21043"
       y="-219.70496" />
    <rect
       y="-219.70496"
       x="128.32292"
       height="5.4504166"
       width="24.341667"
       id="rect24441"
       style="fill:#00559b;fill-opacity:1;stroke:none;stroke-width:1.29382432;stroke-miterlimit:4;stroke-dasharray:none;stroke-opacity:1" />
    <path
       sodipodi:nodetypes="cccccc"
       inkscape:connector-curvature="0"
       id="path24485"
       style="fill:#ffffff;fill-opacity:1;fill-rule:evenodd;stroke:none;stroke-width:1.8925916"
       d="m 153.035,-171.78882 h -2.96333 l 4.7625,10.00125 h 2.96334 l -4.76251,-7.72583 z" />
    <path
       sodipodi:nodetypes="cssccc"
       inkscape:connector-curvature="0"
       id="path42724"
       d="M 132.29168,-98.552154 H 92.604172 c -2.931583,0 -5.291666,-2.360076 -5.291666,-5.291666 v -43.65625 h 44.979174 z"
       style="opacity:1;fill:#00559b;fill-opacity:1;stroke:none;stroke-width:0.71865827;stroke-linejoin:round;stroke-miterlimit:4;stroke-dasharray:none;stroke-opacity:1" />
    <path
       style="opacity:1;fill:#ffd70a;fill-opacity:1;stroke:none;stroke-width:0.71865827;stroke-linejoin:round;stroke-miterlimit:4;stroke-dasharray:none;stroke-opacity:1"
       d="m 137.58334,-98.552154 h 39.68752 c 2.93158,0 5.29167,-2.360076 5.29167,-5.291666 v -43.65625 h -44.97919 z"
       id="path42729"
       inkscape:connector-curvature="0"
       sodipodi:nodetypes="cssccc" />
    <g
       aria-label="3"
       style="font-style:normal;font-variant:normal;font-weight:normal;font-stretch:normal;font-size:40.95078659px;line-height:1.25;font-family:'DIN 1451 Mittelschrift';-inkscape-font-specification:'DIN 1451 Mittelschrift';letter-spacing:0px;word-spacing:0px;fill:#ffffff;fill-opacity:1;stroke:none;stroke-width:1.02376962"
       id="text24563"
       transform="translate(55.757621,-4.3299665)">
      <path
         d="m 52.164488,-117.29646 v -3.67917 h 1.439676 q 2.079533,0 3.279263,-1.15974 1.219725,-1.17974 1.219725,-2.97933 0,-1.7796 -1.259716,-2.99933 -1.259717,-1.21972 -2.999325,-1.21972 -1.319704,0 -2.499438,0.8798 -1.179735,0.8798 -1.519658,2.63941 h -4.17906 q 0.239946,-3.07931 2.57942,-5.37879 2.339473,-2.31948 5.458771,-2.31948 3.899123,0 6.238597,2.57942 2.359469,2.55942 2.359469,5.73871 0,1.67962 -0.659852,3.27926 -0.659851,1.57964 -2.459446,2.73938 1.839586,1.17974 2.639406,2.89935 0.79982,1.71961 0.79982,3.47922 0,4.07908 -2.559424,6.49854 -2.559424,2.41945 -6.278587,2.41945 -2.959335,0 -5.338799,-1.89957 -2.359469,-1.91957 -2.939339,-5.57875 h 4.17906 q 0.579869,1.49967 1.559649,2.41946 0.979779,0.8998 2.779375,0.8998 1.739608,0 3.079307,-1.21973 1.339698,-1.23972 1.339698,-3.39923 0,-2.17951 -1.339698,-3.39924 -1.319703,-1.23972 -3.159289,-1.23972 z"
         style="font-style:normal;font-variant:normal;font-weight:normal;font-stretch:normal;font-family:'DIN 1451 Mittelschrift';-inkscape-font-specification:'DIN 1451 Mittelschrift';fill:#ffffff;stroke:none;stroke-width:1.02376962"
         id="path24571"
         inkscape:connector-curvature="0" />
    </g>
    <g
       aria-label="5
"
       style="font-style:normal;font-variant:normal;font-weight:normal;font-stretch:normal;font-size:41.31318283px;line-height:1.25;font-family:'DIN 1451 Mittelschrift';-inkscape-font-specification:'DIN 1451 Mittelschrift';letter-spacing:0px;word-spacing:0px;fill:#000000;fill-opacity:1;stroke:none;stroke-width:1.03282952"
       id="text24567"
       transform="translate(57.178236,-6.4049865)">
      <path
         d="m 95.047558,-115.5419 v -15.89589 h 15.653822 v 4.21604 H 99.021531 v 6.63673 q 2.017249,-1.61379 4.700179,-1.61379 1.67432,0 3.04604,0.64552 1.3919,0.64552 2.1988,1.51293 1.21035,1.31121 1.755,2.86449 0.56483,1.53311 0.56483,5.18432 0,2.96535 -0.44379,4.41777 -0.42362,1.43224 -1.37173,2.64259 -0.90776,1.14983 -2.54173,2.13828 -1.63397,0.98845 -3.83276,0.98845 -2.84432,0 -5.48691,-1.75501 -2.642592,-1.755 -3.106558,-5.87018 h 4.216043 q 0.74638,3.42932 4.216045,3.42932 3.08638,0 3.61087,-2.11811 0.52448,-2.11811 0.52448,-4.19587 0,-2.44087 -0.82707,-4.05466 -0.82707,-1.6138 -3.42932,-1.6138 -2.44086,0 -3.792419,2.44087 z"
         style="font-style:normal;font-variant:normal;font-weight:normal;font-stretch:normal;font-family:'DIN 1451 Mittelschrift';-inkscape-font-specification:'DIN 1451 Mittelschrift';fill:#000000;stroke:none;stroke-width:1.03282952"
         id="path24574"
         inkscape:connector-curvature="0" />
    </g>
  </g>
</svg>
