<?xml version="1.0" encoding="UTF-8" standalone="no"?>
<!-- Created with Inkscape (http://www.inkscape.org/) -->

<svg
   xmlns:dc="http://purl.org/dc/elements/1.1/"
   xmlns:cc="http://creativecommons.org/ns#"
   xmlns:rdf="http://www.w3.org/1999/02/22-rdf-syntax-ns#"
   xmlns:svg="http://www.w3.org/2000/svg"
   xmlns="http://www.w3.org/2000/svg"
   xmlns:sodipodi="http://sodipodi.sourceforge.net/DTD/sodipodi-0.dtd"
   xmlns:inkscape="http://www.inkscape.org/namespaces/inkscape"
   width="900mm"
   height="364mm"
   viewBox="0 0 900 364"
   version="1.1"
   id="svg8"
   inkscape:version="0.92.2 (5c3e80d, 2017-08-06)"
   sodipodi:docname="22.svg">
  <defs
     id="defs2" />
  <sodipodi:namedview
     id="base"
     pagecolor="#ffffff"
     bordercolor="#666666"
     borderopacity="1.0"
     inkscape:pageopacity="0.0"
     inkscape:pageshadow="2"
     inkscape:zoom="0.24748738"
     inkscape:cx="1977.3736"
     inkscape:cy="576.93963"
     inkscape:document-units="mm"
     inkscape:current-layer="layer1"
     showgrid="false"
     fit-margin-top="0"
     fit-margin-left="0"
     fit-margin-right="0"
     fit-margin-bottom="0"
     inkscape:window-width="1920"
     inkscape:window-height="1057"
     inkscape:window-x="-8"
     inkscape:window-y="-8"
     inkscape:window-maximized="1"
     inkscape:snap-global="false" />
  <metadata
     id="metadata5">
    <rdf:RDF>
      <cc:Work
         rdf:about="">
        <dc:format>image/svg+xml</dc:format>
        <dc:type
           rdf:resource="http://purl.org/dc/dcmitype/StillImage" />
        <dc:title></dc:title>
      </cc:Work>
    </rdf:RDF>
  </metadata>
  <g
     inkscape:label="Layer 1"
     inkscape:groupmode="layer"
     id="layer1"
     transform="translate(0,67)">
    <rect
       style="opacity:1;fill:#ffd70a;fill-opacity:1;fill-rule:nonzero;stroke:none;stroke-width:0.99077666;stroke-linecap:square;stroke-linejoin:miter;stroke-miterlimit:0;stroke-dasharray:0.99077657, 0.99077657;stroke-dashoffset:21.31999969;stroke-opacity:1;paint-order:stroke fill markers"
       id="rect815"
       width="900"
       height="364"
       x="0"
       y="-67" />
    <rect
       y="-67"
       x="0"
       height="364"
       width="900"
       id="rect817"
       style="opacity:1;fill:#000000;fill-opacity:1;fill-rule:nonzero;stroke:none;stroke-width:0.99077666;stroke-linecap:square;stroke-linejoin:miter;stroke-miterlimit:0;stroke-dasharray:0.99077657, 0.99077657;stroke-dashoffset:21.31999969;stroke-opacity:1;paint-order:stroke fill markers"
       rx="50"
       ry="50" />
    <rect
       ry="25"
       rx="25"
       style="opacity:1;fill:#ffd70a;fill-opacity:1;fill-rule:nonzero;stroke:none;stroke-width:0.89428943;stroke-linecap:square;stroke-linejoin:miter;stroke-miterlimit:0;stroke-dasharray:0.89428937, 0.89428937;stroke-dashoffset:21.31999969;stroke-opacity:1;paint-order:stroke fill markers"
       id="rect819"
       width="850"
       height="314"
       x="25"
       y="-42.000061" />
    <g
       aria-label="Acidente"
       style="font-style:normal;font-variant:normal;font-weight:bold;font-stretch:normal;font-size:194.9150238px;line-height:0;font-family:'DIN 1451 Engschrift';-inkscape-font-specification:'DIN 1451 Engschrift Bold';letter-spacing:0.06879167px;word-spacing:0px;fill:#000000;fill-opacity:1;stroke:none;stroke-width:1.01518238"
       id="text848" />
    <path
       d="m 350.90611,93.182003 c 87.9511,40.979397 46.1436,168.432897 -49.026,150.009497 -101.1851,-29.3734 -67.674,-172.392997 35.8672,-154.797797 l 27.4957,-83.6890992 1.179,-2.9837 3.0077,-5.3878 4.7874,-4.7863 5.3637,-3.5591998 5.9653,-1.804601 6.592,-1.183 h 22.1068 l 2.9827,1.183 3.0077,1.804601 1.179,2.9816998 v 2.9817 l -1.7805,3.0097 -2.4062,1.7845 -2.9827,0.602 h -22.1068 l -4.7873,0.582 -4.1858,2.4041 -2.9826,2.9837 -1.8047,4.1867996 -7.1684,20.3261996 0.602,2.3801 1.2031,1.2031 1.7805,0.602 h 145.2483 l 5.9904,-15.54 v -1.203 l -0.602,-1.7846 -1.8046,-1.2032 -34.0626,-6.5668996 -1.2031,-0.601 V 5.3119038 l 1.8047,-2.3821 2.3811,-1.8047 h 61.5832 l 2.3812,0.601 1.8046,1.8046 0.602,2.3822 v 4.1846992 l -0.602,2.3822 -1.8046,1.8046 -2.3812,0.602 h -9.5746 l -1.7785,0.602 -1.2031,1.7846 -6.592,16.7408 22.1319,56.1946 c 67.0474,-21.2286 125.3723,51.181497 92.6381,112.364797 -34.3633,65.8694 -132.5406,51.8833 -147.6294,-20.9278 h -32.8595 l -5.4139,-0.602 -4.7622,-2.3801 -4.1858,-3.5852 -1.8046,-1.8047 -93.8412,-106.375397 -8.3465,26.2936"
       style="fill:#000000;fill-opacity:1;fill-rule:evenodd;stroke:none;stroke-width:0.66666681"
       id="path28262"
       inkscape:connector-curvature="0" />
    <path
       d="m 346.11881,108.1204 c 70.8321,35.8421 31.8068,138.5061 -44.8402,118.3542 -76.3212,-27.4205 -47.1713,-136.123797 31.6814,-122.539 l -20.3272,61.5563 v 3.5852 l 1.203,2.4062 2.3812,2.3801 3.0077,0.602 2.9576,-0.602 2.4062,-1.7846 1.177,-2.4061 20.3523,-61.5583"
       style="fill:#ffd70a;fill-opacity:1;fill-rule:evenodd;stroke:none;stroke-width:0.66666681"
       id="path28264"
       inkscape:connector-curvature="0" />
    <path
       d="m 563.07641,104.5372 c 53.1868,-13.310197 96.7487,39.3491 74.1406,89.0529 -28.0721,52.5089 -102.0122,45.6674 -118.9557,-11.9548 h 70.5313 l 2.9826,-1.8046 1.8047,-2.3801 0.601,-2.9837 -0.601,-2.9816 -2.4062,-2.4062 -2.9827,-1.183 -25.1146,-63.3609"
       style="fill:#ffd70a;fill-opacity:1;fill-rule:evenodd;stroke:none;stroke-width:0.66666681"
       id="path28266"
       inkscape:connector-curvature="0" />
    <path
       d="m 549.94271,109.899 23.3099,57.9991 h -57.9991 c 0,-23.6108 13.6852,-46.9948 34.6892,-57.9991"
       style="fill:#ffd70a;fill-opacity:1;fill-rule:nonzero;stroke:none;stroke-width:0.66666681"
       id="path28268"
       inkscape:connector-curvature="0" />
    <path
       d="M 514.67711,47.741203 468.63371,167.8981 365.84451,53.129103 l -0.601,-0.602 v -1.7845 l 0.601,-1.8047 2.3811,-1.2031 h 146.4515"
       style="fill:#ffd70a;fill-opacity:1;fill-rule:evenodd;stroke:none;stroke-width:0.66666681"
       id="path28270"
       inkscape:connector-curvature="0" />
    <path
       d="m 544.55391,94.962603 -16.718,-41.8335 -3.0078,7.1683 -41.2309,107.600697 h 15.5399 c 0.626,-31.2544 17.2945,-58.7751 45.4168,-72.935497"
       style="fill:#ffd70a;fill-opacity:1;fill-rule:nonzero;stroke:none;stroke-width:0.66666681"
       id="path28272"
       inkscape:connector-curvature="0" />
  </g>
</svg>
