<?xml version="1.0" encoding="UTF-8" standalone="no"?>
<!-- Created with Inkscape (http://www.inkscape.org/) -->

<svg
   xmlns:dc="http://purl.org/dc/elements/1.1/"
   xmlns:cc="http://creativecommons.org/ns#"
   xmlns:rdf="http://www.w3.org/1999/02/22-rdf-syntax-ns#"
   xmlns:svg="http://www.w3.org/2000/svg"
   xmlns="http://www.w3.org/2000/svg"
   xmlns:sodipodi="http://sodipodi.sourceforge.net/DTD/sodipodi-0.dtd"
   xmlns:inkscape="http://www.inkscape.org/namespaces/inkscape"
   width="900mm"
   height="364mm"
   viewBox="0 0 900 364"
   version="1.1"
   id="svg8"
   inkscape:version="0.92.2 (5c3e80d, 2017-08-06)"
   sodipodi:docname="22.svg">
  <defs
     id="defs2" />
  <sodipodi:namedview
     id="base"
     pagecolor="#ffffff"
     bordercolor="#666666"
     borderopacity="1.0"
     inkscape:pageopacity="0.0"
     inkscape:pageshadow="2"
     inkscape:zoom="0.17500001"
     inkscape:cx="2458.628"
     inkscape:cy="701.97523"
     inkscape:document-units="mm"
     inkscape:current-layer="layer1"
     showgrid="false"
     fit-margin-top="0"
     fit-margin-left="0"
     fit-margin-right="0"
     fit-margin-bottom="0"
     inkscape:window-width="1920"
     inkscape:window-height="1057"
     inkscape:window-x="-8"
     inkscape:window-y="-8"
     inkscape:window-maximized="1"
     inkscape:snap-global="false" />
  <metadata
     id="metadata5">
    <rdf:RDF>
      <cc:Work
         rdf:about="">
        <dc:format>image/svg+xml</dc:format>
        <dc:type
           rdf:resource="http://purl.org/dc/dcmitype/StillImage" />
        <dc:title></dc:title>
      </cc:Work>
    </rdf:RDF>
  </metadata>
  <g
     inkscape:label="Layer 1"
     inkscape:groupmode="layer"
     id="layer1"
     transform="translate(0,67)">
    <rect
       style="opacity:1;fill:#ffd70a;fill-opacity:1;fill-rule:nonzero;stroke:none;stroke-width:0.99077666;stroke-linecap:square;stroke-linejoin:miter;stroke-miterlimit:0;stroke-dasharray:0.99077657, 0.99077656999999997;stroke-dashoffset:21.31999969;stroke-opacity:1;paint-order:stroke fill markers"
       id="rect815"
       width="900"
       height="364"
       x="0"
       y="-67" />
    <rect
       y="-67"
       x="0"
       height="364"
       width="900"
       id="rect817"
       style="opacity:1;fill:#000000;fill-opacity:1;fill-rule:nonzero;stroke:none;stroke-width:0.99077666;stroke-linecap:square;stroke-linejoin:miter;stroke-miterlimit:0;stroke-dasharray:0.99077657, 0.99077657;stroke-dashoffset:21.31999969;stroke-opacity:1;paint-order:stroke fill markers"
       rx="50"
       ry="50" />
    <rect
       ry="25"
       rx="25"
       style="opacity:1;fill:#ffd70a;fill-opacity:1;fill-rule:nonzero;stroke:none;stroke-width:0.89428943;stroke-linecap:square;stroke-linejoin:miter;stroke-miterlimit:0;stroke-dasharray:0.89428937, 0.89428936999999997;stroke-dashoffset:21.31999969;stroke-opacity:1;paint-order:stroke fill markers"
       id="rect819"
       width="850"
       height="314"
       x="25"
       y="-42.000061" />
    <g
       aria-label="Acidente"
       style="font-style:normal;font-variant:normal;font-weight:bold;font-stretch:normal;font-size:194.9150238px;line-height:0;font-family:'DIN 1451 Engschrift';-inkscape-font-specification:'DIN 1451 Engschrift Bold';letter-spacing:0.06879167px;word-spacing:0px;fill:#000000;fill-opacity:1;stroke:none;stroke-width:1.01518238"
       id="text848" />
    <path
       inkscape:connector-curvature="0"
       style="fill:#000000;fill-opacity:1;fill-rule:nonzero;stroke:none;stroke-width:0.71189034"
       d="m 296.23172,24.590164 c -25.01384,0.0298 -44.27118,6.16489 -63.78509,16.65851 l 5.12504,10.25012 -14.66465,50.473296 -0.71189,6.40703 v 49.61959 h -2.49163 c -2.24097,1.4459 -2.52353,2.01692 -3.2035,5.12505 v 10.8202 c 0.88614,3.75356 4.03957,5.1343 5.69513,5.12645 h 25.70313 c 8.18376,-30.65108 6.3471,-34.17863 18.75388,-34.17077 3.87675,0.003 29.36797,0.003 33.2447,0 12.40678,-0.008 10.57152,3.51965 18.75527,34.17077 h 195.34994 c 8.18377,-30.65112 6.34851,-34.17863 18.75528,-34.17077 3.87674,0.003 29.36795,0.003 33.24472,0 12.40678,-0.008 10.57011,3.51969 18.75387,34.17077 h 86.92711 c 3.73158,-0.0108 8.7271,-2.79671 9.54932,-7.04801 5.48669,-27.84025 0.94121,-113.052616 -12.81403,-140.384236 -0.71366,-1.08415 -0.43477,-1.10832 -3.78329,-3.84448 -1.14515,-0.79642 -1.73267,-1.53835 -4.48546,-2.49164 -1.63387,-0.43168 -3.05403,-0.56548 -4.4841,-0.71188 z"
       id="path8933" />
    <circle
       style="fill:#000000;fill-opacity:1;fill-rule:nonzero;stroke:none;stroke-width:18.50915146;stroke-miterlimit:4;stroke-dasharray:none;stroke-opacity:1"
       id="path36514"
       cx="283.27509"
       cy="178.92767"
       r="26.482323" />
    <circle
       r="26.482323"
       cy="178.92767"
       cx="549.3797"
       id="circle36525"
       style="fill:#000000;fill-opacity:1;fill-rule:nonzero;stroke:none;stroke-width:18.50915146;stroke-miterlimit:4;stroke-dasharray:none;stroke-opacity:1" />
    <path
       style="fill:#ffd70a;fill-opacity:1;fill-rule:nonzero;stroke:none;stroke-width:18.50915146;stroke-miterlimit:4;stroke-dasharray:none;stroke-opacity:1"
       d="m 263.05286,45.946644 h 53.1115 c 5.91583,0 10.67837,4.76253 10.67837,10.67835 v 31.6791 c 0,5.91582 -4.76254,10.67836 -10.67837,10.67836 h -72.33253 c -5.91583,0 -12.39351,-7.15228 -10.67835,-12.814 l 7.33247,-24.20429 c 3.32667,-10.98121 16.33652,-16.01752 22.56691,-16.01752 z"
       id="rect36553"
       inkscape:connector-curvature="0"
       sodipodi:nodetypes="sssssssss" />
    <path
       style="fill:#ffd70a;fill-opacity:1;fill-rule:nonzero;stroke:none;stroke-width:18.50915146;stroke-miterlimit:4;stroke-dasharray:none;stroke-opacity:1"
       d="m 651.05257,37.759894 h -23.64944 c -5.91579,0 -10.67837,4.76254 -10.67837,10.67836 v 39.86584 c 0,5.91582 4.76258,10.67836 10.67837,10.67836 h 35.75158 c 5.91581,0 11.74789,-5.99903 10.67836,-11.81737 l -7.1189,-38.72683 c -0.36778,-2.0009 -5.27825,-10.67836 -15.6616,-10.67836 z"
       id="rect36574"
       inkscape:connector-curvature="0"
       sodipodi:nodetypes="sssssssss" />
    <rect
       style="fill:#ffd70a;fill-opacity:1;fill-rule:nonzero;stroke:none;stroke-width:18.50915146;stroke-miterlimit:4;stroke-dasharray:none;stroke-opacity:1"
       id="rect36604"
       width="50.971352"
       height="116.75002"
       x="334.47418"
       y="-162.69662"
       rx="10.678355"
       ry="10.678355"
       transform="scale(1,-1)" />
    <rect
       style="fill:#ffd70a;fill-opacity:1;fill-rule:nonzero;stroke:none;stroke-width:18.50915146;stroke-miterlimit:4;stroke-dasharray:none;stroke-opacity:1"
       id="rect36624"
       width="66.917709"
       height="61.222572"
       x="393.07697"
       y="-98.98246"
       rx="10.678355"
       ry="10.678355"
       transform="scale(1,-1)" />
    <rect
       ry="10.678355"
       rx="10.678355"
       y="-98.98246"
       x="467.62616"
       height="61.222572"
       width="66.917709"
       id="rect36626"
       style="fill:#ffd70a;fill-opacity:1;fill-rule:nonzero;stroke:none;stroke-width:18.50915146;stroke-miterlimit:4;stroke-dasharray:none;stroke-opacity:1"
       transform="scale(1,-1)" />
    <rect
       style="fill:#ffd70a;fill-opacity:1;fill-rule:nonzero;stroke:none;stroke-width:18.50915146;stroke-miterlimit:4;stroke-dasharray:none;stroke-opacity:1"
       id="rect36628"
       width="66.917709"
       height="61.222572"
       x="542.17542"
       y="-98.98246"
       rx="10.678355"
       ry="10.678355"
       transform="scale(1,-1)" />
  </g>
</svg>
