<?xml version="1.0" encoding="UTF-8" standalone="no"?>
<!-- Created with Inkscape (http://www.inkscape.org/) -->

<svg
   xmlns:dc="http://purl.org/dc/elements/1.1/"
   xmlns:cc="http://creativecommons.org/ns#"
   xmlns:rdf="http://www.w3.org/1999/02/22-rdf-syntax-ns#"
   xmlns:svg="http://www.w3.org/2000/svg"
   xmlns="http://www.w3.org/2000/svg"
   xmlns:sodipodi="http://sodipodi.sourceforge.net/DTD/sodipodi-0.dtd"
   xmlns:inkscape="http://www.inkscape.org/namespaces/inkscape"
   width="900mm"
   height="364mm"
   viewBox="0 0 900 364"
   version="1.1"
   id="svg8"
   inkscape:version="0.92.4 (5da689c313, 2019-01-14)"
   sodipodi:docname="22.svg">
  <defs
     id="defs2" />
  <sodipodi:namedview
     id="base"
     pagecolor="#ffffff"
     bordercolor="#666666"
     borderopacity="1.0"
     inkscape:pageopacity="0.0"
     inkscape:pageshadow="2"
     inkscape:zoom="0.24748738"
     inkscape:cx="2260.605"
     inkscape:cy="708.85098"
     inkscape:document-units="mm"
     inkscape:current-layer="layer1"
     showgrid="false"
     fit-margin-top="0"
     fit-margin-left="0"
     fit-margin-right="0"
     fit-margin-bottom="0"
     inkscape:window-width="1920"
     inkscape:window-height="1057"
     inkscape:window-x="-8"
     inkscape:window-y="-8"
     inkscape:window-maximized="1"
     inkscape:snap-global="false" />
  <metadata
     id="metadata5">
    <rdf:RDF>
      <cc:Work
         rdf:about="">
        <dc:format>image/svg+xml</dc:format>
        <dc:type
           rdf:resource="http://purl.org/dc/dcmitype/StillImage" />
        <dc:title></dc:title>
      </cc:Work>
    </rdf:RDF>
  </metadata>
  <g
     inkscape:label="Layer 1"
     inkscape:groupmode="layer"
     id="layer1"
     transform="translate(0,67)">
    <rect
       style="opacity:1;fill:#ffd70a;fill-opacity:1;fill-rule:nonzero;stroke:none;stroke-width:0.99077666;stroke-linecap:square;stroke-linejoin:miter;stroke-miterlimit:0;stroke-dasharray:0.99077657, 0.99077656999999997;stroke-dashoffset:21.31999969;stroke-opacity:1;paint-order:stroke fill markers"
       id="rect815"
       width="900"
       height="364"
       x="0"
       y="-67" />
    <rect
       y="-67"
       x="0"
       height="364"
       width="900"
       id="rect817"
       style="opacity:1;fill:#000000;fill-opacity:1;fill-rule:nonzero;stroke:none;stroke-width:0.99077666;stroke-linecap:square;stroke-linejoin:miter;stroke-miterlimit:0;stroke-dasharray:0.99077657, 0.99077657;stroke-dashoffset:21.31999969;stroke-opacity:1;paint-order:stroke fill markers"
       rx="50"
       ry="50" />
    <rect
       ry="25"
       rx="25"
       style="opacity:1;fill:#ffd70a;fill-opacity:1;fill-rule:nonzero;stroke:none;stroke-width:0.89428943;stroke-linecap:square;stroke-linejoin:miter;stroke-miterlimit:0;stroke-dasharray:0.89428937, 0.89428936999999997;stroke-dashoffset:21.31999969;stroke-opacity:1;paint-order:stroke fill markers"
       id="rect819"
       width="850"
       height="314"
       x="25"
       y="-42.000061" />
    <g
       aria-label="Acidente"
       style="font-style:normal;font-variant:normal;font-weight:bold;font-stretch:normal;font-size:194.9150238px;line-height:0;font-family:'DIN 1451 Engschrift';-inkscape-font-specification:'DIN 1451 Engschrift Bold';letter-spacing:0.06879167px;word-spacing:0px;fill:#000000;fill-opacity:1;stroke:none;stroke-width:1.01518238"
       id="text848" />
    <path
       inkscape:connector-curvature="0"
       style="fill:#000000;fill-opacity:1;fill-rule:evenodd;stroke:none;stroke-width:0.71065974"
       d="m 245.82678,123.59899 c -6.50391,0.58288 -5.02749,0.26698 -12.7558,1.9196 -8.5193,2.02602 -9.55462,2.58719 -13.1125,3.83646 l 5.11758,9.63692 c -0.12892,-0.0134 -0.32306,0.10395 -0.36088,0.18453 -13.28529,26.97956 -20.13448,56.36633 -8.94849,95.21036 h 61.22502 a 33.685275,33.685275 0 0 1 -0.0373,-1.06182 33.685275,33.685275 0 0 1 33.68554,-33.68556 33.685275,33.685275 0 0 1 33.68414,33.68556 33.685275,33.685275 0 0 1 -0.0526,1.06321 l 172.21286,0.001 a 33.685275,33.685275 0 0 1 -0.0373,-1.06461 33.685275,33.685275 0 0 1 33.68556,-33.68557 33.685275,33.685275 0 0 1 33.68415,33.68557 33.685275,33.685275 0 0 1 -0.0526,1.06598 h 57.75917 l 48.32484,-4.46245 c -2.81676,-30.36777 6.72325,-64.07912 -12.18114,-90.90751 h 1.87657 c 3.65573,-0.008 4.59154,-3.90933 4.47634,-5.75746 -0.0631,-0.94363 -0.48342,-1.75031 -1.27835,-2.55811 -0.43806,-0.49816 -1.23329,-1.01986 -2.48731,-1.35052 l -12.152,-3.83784 c -3.86066,-1.09638 -7.65721,-1.75943 -12.80721,-1.91825 z"
       id="path8418" />
    <rect
       style="fill:#000000;fill-opacity:1;stroke:none;stroke-width:18.47715378;stroke-miterlimit:4;stroke-dasharray:none;stroke-opacity:1"
       id="rect34417"
       width="52.446697"
       height="21.319796"
       x="411.97928"
       y="118.55333"
       rx="7.8172569"
       ry="7.1065974" />
    <rect
       style="fill:#ffd70a;fill-opacity:1;stroke:none;stroke-width:18.47715378;stroke-miterlimit:4;stroke-dasharray:none;stroke-opacity:1"
       id="rect34488"
       width="38.375629"
       height="89.543144"
       x="229.76619"
       y="135.11171"
       rx="7.1065974"
       ry="7.1065974" />
    <rect
       rx="4.9746184"
       y="135.11171"
       x="276.1012"
       height="41.644665"
       width="38.517765"
       id="rect34508"
       style="fill:#ffd70a;fill-opacity:1;stroke:none;stroke-width:18.47715378;stroke-miterlimit:4;stroke-dasharray:none;stroke-opacity:1"
       ry="4.9746184" />
    <rect
       style="fill:#ffd70a;fill-opacity:1;stroke:none;stroke-width:18.47715378;stroke-miterlimit:4;stroke-dasharray:none;stroke-opacity:1"
       id="rect34512"
       width="81.157349"
       height="41.644665"
       x="322.57831"
       y="135.11171"
       rx="4.9746184"
       ry="4.9746184" />
    <rect
       ry="4.9746184"
       rx="4.9746184"
       y="135.11171"
       x="411.6951"
       height="41.644665"
       width="81.157349"
       id="rect34588"
       style="fill:#ffd70a;fill-opacity:1;stroke:none;stroke-width:18.47715378;stroke-miterlimit:4;stroke-dasharray:none;stroke-opacity:1" />
    <rect
       style="fill:#ffd70a;fill-opacity:1;stroke:none;stroke-width:18.47715378;stroke-miterlimit:4;stroke-dasharray:none;stroke-opacity:1"
       id="rect34590"
       width="81.157349"
       height="41.644665"
       x="500.81192"
       y="135.11171"
       rx="4.9746184"
       ry="4.9746184" />
    <path
       style="fill:#ffd70a;fill-opacity:1;stroke:none;stroke-width:18.47715378;stroke-miterlimit:4;stroke-dasharray:none;stroke-opacity:1"
       d="M 670.94723,176.75614 H 595.156 c -2.89592,0 -5.22726,-2.21868 -5.22726,-4.97461 V 140.0861 c 0,-2.75593 2.33134,-4.97461 5.22726,-4.97461 h 62.00442 c 3.73985,0 4.9481,2.41497 5.96955,4.97461 l 12.08122,30.27418 c 0.56902,1.42587 -0.56854,6.39586 -4.26396,6.39586 z"
       id="rect34592"
       inkscape:connector-curvature="0"
       sodipodi:nodetypes="sssssssss" />
    <circle
       r="21.675123"
       cy="233.32487"
       cx="310.63919"
       id="circle34644"
       style="fill:#000000;fill-opacity:1;stroke:none;stroke-width:18.47715378;stroke-miterlimit:4;stroke-dasharray:none;stroke-opacity:1" />
    <circle
       style="fill:#000000;fill-opacity:1;stroke:none;stroke-width:18.47715378;stroke-miterlimit:4;stroke-dasharray:none;stroke-opacity:1"
       id="circle34657"
       cx="550.13165"
       cy="233.32487"
       r="21.675123" />
    <path
       d="M 339.19165,-8.9807016 H 320.65954 V -24.057687 h 53.08353 V -8.9807016 H 355.21095 V 87.763255 h -16.0193 z"
       style="font-style:normal;font-variant:normal;font-weight:normal;font-stretch:normal;font-size:220.99447632px;line-height:1.25;font-family:'DIN 1451 Std';-inkscape-font-specification:'DIN 1451 Std';letter-spacing:4.28999996px;word-spacing:0px;fill:#000000;fill-opacity:1;stroke:none;stroke-width:0.8179785"
       id="path841"
       inkscape:connector-curvature="0" />
    <path
       d="m 381.08127,2.3270478 q 0,-6.753251 2.35577,-11.9359684 2.3558,-5.1826864 6.12503,-8.4808064 3.92631,-3.45514 8.63785,-5.18269 4.86863,-1.72758 9.73722,-1.72758 4.86862,0 9.58017,1.72758 4.86862,1.72755 8.63785,5.18269 3.92631,3.29812 6.28208,8.4808064 2.35577,5.1827174 2.35577,11.9359684 V 61.378535 q 0,6.910298 -2.35577,12.092989 -2.35577,5.025669 -6.28208,8.480795 -3.76923,3.298088 -8.63785,5.025669 -4.71155,1.727555 -9.58017,1.727555 -4.86859,0 -9.73722,-1.727555 -4.71154,-1.727581 -8.63785,-5.025669 -3.76923,-3.455126 -6.12503,-8.480795 -2.35577,-5.182691 -2.35577,-12.092989 z m 16.01929,59.0514872 q 0,5.810936 3.14104,8.637853 3.29809,2.669896 7.69554,2.669896 4.39745,0 7.53849,-2.669896 3.29809,-2.826917 3.29809,-8.637853 V 2.3270478 q 0,-5.810936 -3.29809,-8.480832 -3.14104,-2.8269174 -7.53849,-2.8269174 -4.39745,0 -7.69554,2.8269174 -3.14104,2.669896 -3.14104,8.480832 z"
       style="font-style:normal;font-variant:normal;font-weight:normal;font-stretch:normal;font-size:220.99447632px;line-height:1.25;font-family:'DIN 1451 Std';-inkscape-font-specification:'DIN 1451 Std';letter-spacing:4.28999996px;word-spacing:0px;fill:#000000;fill-opacity:1;stroke:none;stroke-width:0.8179785"
       id="path843"
       inkscape:connector-curvature="0" />
    <path
       d="m 503.76764,62.634945 q 0,5.496814 -2.04168,10.208387 -2.04167,4.711547 -5.65386,8.32372 -3.45513,3.455163 -8.16671,5.49684 -4.71154,2.041651 -10.05131,2.041651 -5.33977,0 -10.05131,-2.041651 -4.71158,-2.041677 -8.32376,-5.49684 -3.45513,-3.612173 -5.49681,-8.32372 -2.04168,-4.711573 -2.04168,-10.208387 v -86.692632 h 16.0193 v 85.122126 q 0,5.967957 2.82694,8.794901 2.82692,2.826944 7.06732,2.826944 4.2404,0 7.06732,-2.826944 2.82694,-2.826944 2.82694,-8.794901 v -85.122126 h 16.0193 z"
       style="font-style:normal;font-variant:normal;font-weight:normal;font-stretch:normal;font-size:220.99447632px;line-height:1.25;font-family:'DIN 1451 Std';-inkscape-font-specification:'DIN 1451 Std';letter-spacing:4.28999996px;word-spacing:0px;fill:#000000;fill-opacity:1;stroke:none;stroke-width:0.8179785"
       id="path845"
       inkscape:connector-curvature="0" />
    <path
       d="m 537.87829,25.884807 h 9.10899 q 4.24041,0 6.75323,-1.099363 2.51285,-1.25641 3.76926,-3.455136 1.41346,-2.198725 1.88463,-5.339765 0.47114,-3.298087 0.47114,-7.5384902 0,-4.240402 -0.47114,-7.381442 -0.47117,-3.298088 -2.04168,-5.496814 -1.41349,-2.355773 -4.08336,-3.4551354 -2.66986,-1.099363 -7.06734,-1.099363 h -8.32373 z m -16.0193,-49.942494 h 25.75651 q 28.26934,0 28.26934,32.8238358 0,9.7372152 -3.14104,16.8045622 -2.984,6.910272 -10.67953,11.150675 l 17.2757,51.041869 h -16.96161 l -14.9199,-47.743782 h -9.58017 v 47.743782 h -16.0193 z"
       style="font-style:normal;font-variant:normal;font-weight:normal;font-stretch:normal;font-size:220.99447632px;line-height:1.25;font-family:'DIN 1451 Std';-inkscape-font-specification:'DIN 1451 Std';letter-spacing:4.28999996px;word-spacing:0px;fill:#000000;fill-opacity:1;stroke:none;stroke-width:0.8179785"
       id="path847"
       inkscape:connector-curvature="0" />
  </g>
</svg>
