<?xml version="1.0" encoding="UTF-8" standalone="no"?>
<!-- Created with Inkscape (http://www.inkscape.org/) -->

<svg
   xmlns:dc="http://purl.org/dc/elements/1.1/"
   xmlns:cc="http://creativecommons.org/ns#"
   xmlns:rdf="http://www.w3.org/1999/02/22-rdf-syntax-ns#"
   xmlns:svg="http://www.w3.org/2000/svg"
   xmlns="http://www.w3.org/2000/svg"
   xmlns:sodipodi="http://sodipodi.sourceforge.net/DTD/sodipodi-0.dtd"
   xmlns:inkscape="http://www.inkscape.org/namespaces/inkscape"
   width="1026mm"
   height="600mm"
   viewBox="0 0 1026 600"
   version="1.1"
   id="svg8"
   inkscape:version="0.92.2 (5c3e80d, 2017-08-06)"
   sodipodi:docname="11.svg">
  <defs
     id="defs2" />
  <sodipodi:namedview
     id="base"
     pagecolor="#ffffff"
     bordercolor="#666666"
     borderopacity="1.0"
     inkscape:pageopacity="0.0"
     inkscape:pageshadow="2"
     inkscape:zoom="0.24748737"
     inkscape:cx="2044.5838"
     inkscape:cy="891.67653"
     inkscape:document-units="mm"
     inkscape:current-layer="layer1"
     showgrid="false"
     fit-margin-top="0"
     fit-margin-left="0"
     fit-margin-right="0"
     fit-margin-bottom="0"
     inkscape:window-width="1920"
     inkscape:window-height="1057"
     inkscape:window-x="-8"
     inkscape:window-y="-8"
     inkscape:window-maximized="1" />
  <metadata
     id="metadata5">
    <rdf:RDF>
      <cc:Work
         rdf:about="">
        <dc:format>image/svg+xml</dc:format>
        <dc:type
           rdf:resource="http://purl.org/dc/dcmitype/StillImage" />
        <dc:title></dc:title>
      </cc:Work>
    </rdf:RDF>
  </metadata>
  <g
     inkscape:label="Layer 1"
     inkscape:groupmode="layer"
     id="layer1"
     transform="translate(0,303)">
    <rect
       style="opacity:1;fill:#ffd70a;fill-opacity:1;fill-rule:nonzero;stroke:none;stroke-width:5.65982962;stroke-linecap:butt;stroke-linejoin:miter;stroke-miterlimit:4;stroke-dasharray:none;stroke-opacity:1;paint-order:stroke fill markers"
       id="rect5660"
       width="1026"
       height="600"
       x="0"
       y="-303" />
    <rect
       y="-303"
       x="0"
       height="600"
       width="1026"
       id="rect5692"
       style="opacity:1;fill:#000000;fill-opacity:1;fill-rule:nonzero;stroke:none;stroke-width:5.65982962;stroke-linecap:butt;stroke-linejoin:miter;stroke-miterlimit:4;stroke-dasharray:none;stroke-opacity:1;paint-order:stroke fill markers"
       rx="80"
       ry="80" />
    <rect
       y="-283"
       x="20"
       height="560"
       width="986"
       id="rect5694"
       style="opacity:1;fill:#ffd70a;fill-opacity:1;fill-rule:nonzero;stroke:none;stroke-width:5.36026812;stroke-linecap:butt;stroke-linejoin:miter;stroke-miterlimit:4;stroke-dasharray:none;stroke-opacity:1;paint-order:stroke fill markers"
       rx="60"
       ry="60" />
    <g
       aria-label="ROAD"
       style="font-style:normal;font-variant:normal;font-weight:bold;font-stretch:normal;font-size:206.18556213px;line-height:0;font-family:'DIN 1451 Engschrift';-inkscape-font-specification:'DIN 1451 Engschrift Bold';letter-spacing:0px;word-spacing:0px;fill:#000000;fill-opacity:1;stroke:none;stroke-width:1.07388318"
       id="text5698">
      <path
         d="M 357.312,-44.237118 V -181.76289 h 34.43299 q 13.60825,0 22.8866,9.48454 9.27835,9.48453 9.27835,23.09278 v 12.78351 q 0,18.96907 -16.08247,29.07216 l 20.82474,63.092782 h -20.82474 l -18.5567,-58.969072 h -12.37114 v 58.969072 z m 43.71134,-80.618552 q 1.85567,-2.26804 2.47423,-5.15464 0.82474,-2.8866 0.82474,-6.39175 v -12.78351 q 0,-6.39175 -3.50515,-10.30928 -3.50516,-3.91752 -9.89691,-3.91752 h -14.02062 v 42.88659 h 13.81443 q 6.18557,0 10.30928,-4.32989 z"
         style="fill:#000000;fill-opacity:1;stroke:none;stroke-width:1.07388318"
         id="path5725"
         inkscape:connector-curvature="0" />
      <path
         d="m 447.02527,-168.7732 q 4.74227,-6.59794 11.95876,-10.30928 7.2165,-3.91752 15.05155,-3.91752 7.62887,0 14.2268,3.09278 6.80413,3.09279 11.13402,8.45361 4.53609,5.36083 6.18557,10.92784 1.64949,5.56701 1.64949,12.16494 v 70.103094 q 0,6.185567 -1.23712,10.927835 -1.03093,4.536083 -4.74227,10.309278 -3.71134,5.773196 -10.92783,9.896907 -7.2165,4.123712 -15.6701,4.123712 -9.69072,0 -17.93815,-4.948454 -8.04123,-4.948453 -11.3402,-11.13402 -3.09279,-6.391753 -3.71134,-10.103093 -0.61856,-3.917525 -0.61856,-9.072165 v -70.103094 q 0,-6.18556 1.23711,-10.92783 1.4433,-4.74227 4.74227,-9.48454 z m 38.14433,10.72165 q -4.12371,-5.56701 -10.72165,-5.56701 -3.50515,0 -7.01031,2.06186 -3.29897,1.85567 -4.74227,4.32989 -1.23711,2.26805 -1.64948,4.74227 -0.41237,2.47423 -0.41237,4.12371 v 70.103094 q 0,2.061856 0.20618,4.536083 0.41238,2.474227 3.29897,6.804123 3.09279,4.123712 10.30928,4.123712 3.71134,0 6.59794,-1.649485 3.09278,-1.85567 4.3299,-4.123711 1.4433,-2.268041 1.85567,-4.329897 0.41237,-2.061856 0.41237,-5.360825 v -70.103094 q 0,-4.12371 -0.41237,-5.77319 -0.20619,-1.64949 -2.06186,-3.91753 z"
         style="fill:#000000;fill-opacity:1;stroke:none;stroke-width:1.07388318"
         id="path5727"
         inkscape:connector-curvature="0" />
      <path
         d="m 516.54203,-44.237118 30.72165,-137.525772 h 17.1134 l 30.72165,137.525772 H 574.0678 l -5.56701,-29.484535 h -25.56701 l -5.56701,29.484535 z m 29.89691,-47.83505 h 18.5567 l -9.27835,-50.103092 z"
         style="fill:#000000;fill-opacity:1;stroke:none;stroke-width:1.07388318"
         id="path5729"
         inkscape:connector-curvature="0" />
      <path
         d="m 636.31652,-181.76289 q 13.19587,0 22.68041,9.48454 9.69072,9.27835 9.69072,22.47422 v 71.546394 q 0,14.845361 -9.27835,24.536082 -9.07217,9.484536 -23.71134,9.484536 H 605.1825 V -181.76289 Z m 12.98969,103.505154 v -71.546394 q 0,-5.77319 -4.3299,-9.48453 -4.12371,-3.91753 -10.10309,-3.91753 h -10.30928 v 100.618557 h 9.69072 q 15.05155,0 15.05155,-15.670103 z"
         style="fill:#000000;fill-opacity:1;stroke:none;stroke-width:1.07388318"
         id="path5731"
         inkscape:connector-curvature="0" />
    </g>
    <g
       aria-label="EXPERIMENT"
       style="font-style:normal;font-variant:normal;font-weight:bold;font-stretch:normal;font-size:209.89505005px;line-height:0;font-family:'DIN 1451 Engschrift';-inkscape-font-specification:'DIN 1451 Engschrift Bold';letter-spacing:-0.02645833px;word-spacing:0px;fill:#000000;fill-opacity:1;stroke:none;stroke-width:1.09320331"
       id="text5702">
      <path
         d="M 179.82009,156.85008 V 177 H 120 V 37.000002 h 59.82009 v 18.470764 h -40.08996 v 41.349325 h 35.26237 v 18.890559 h -35.26237 v 41.13943 z"
         style="letter-spacing:-0.02645833px;fill:#000000;fill-opacity:1;stroke:none;stroke-width:1.09320331"
         id="path5704"
         inkscape:connector-curvature="0" />
      <path
         d="M 245.50062,177 228.07933,129.56372 210.44814,177 h -21.1994 l 28.75563,-73.88306 -26.02699,-66.116938 h 20.9895 l 15.11245,41.139429 15.11244,-41.139429 h 20.98951 L 237.94439,103.11694 266.70002,177 Z"
         style="letter-spacing:-0.02645833px;fill:#000000;fill-opacity:1;stroke:none;stroke-width:1.09320331"
         id="path5706"
         inkscape:connector-curvature="0" />
      <path
         d="M 279.00818,177 V 37.000002 h 32.74363 q 6.08695,0 12.17391,2.51874 6.08696,2.518741 10.07496,6.716642 4.1979,3.988006 6.92654,9.655172 2.93853,5.667166 2.93853,10.914543 v 20.35982 q 0,7.766116 -2.09895,13.853071 -2.09895,6.08696 -7.34633,11.33433 -5.03748,5.03749 -11.12444,7.34633 -5.87706,2.09895 -13.85307,2.09895 H 298.94821 V 177 Z m 42.3988,-78.080959 q 1.88905,-1.889055 2.30884,-3.988006 0.62969,-2.09895 0.62969,-5.247376 v -2.51874 -18.26087 q 0,-5.877061 -3.56822,-9.655172 -3.56821,-3.778111 -9.65517,-3.778111 h -12.17391 v 47.436284 h 10.49475 q 4.1979,0 6.71664,-0.62969 2.72864,-0.83958 5.24738,-3.358319 z"
         style="letter-spacing:-0.02645833px;fill:#000000;fill-opacity:1;stroke:none;stroke-width:1.09320331"
         id="path5708"
         inkscape:connector-curvature="0" />
      <path
         d="M 417.9224,156.85008 V 177 H 358.10231 V 37.000002 h 59.82009 v 18.470764 h -40.08996 v 41.349325 h 35.26237 v 18.890559 h -35.26237 v 41.13943 z"
         style="letter-spacing:-0.02645833px;fill:#000000;fill-opacity:1;stroke:none;stroke-width:1.09320331"
         id="path5710"
         inkscape:connector-curvature="0" />
      <path
         d="M 436.16666,177 V 37.000002 h 35.05247 q 13.85308,0 23.29835,9.655172 9.44528,9.655172 9.44528,23.508246 v 13.013493 q 0,19.310347 -16.37181,29.595197 L 508.79035,177 h -21.1994 l -18.89056,-60.02998 h -12.5937 V 177 Z m 44.49775,-82.068965 q 1.88906,-2.308845 2.51874,-5.247376 0.83958,-2.938531 0.83958,-6.506746 V 70.16342 q 0,-6.506747 -3.56821,-10.494753 -3.56822,-3.988006 -10.07497,-3.988006 h -14.27286 v 43.65817 h 14.06297 q 6.29685,0 10.49475,-4.407796 z"
         style="letter-spacing:-0.02645833px;fill:#000000;fill-opacity:1;stroke:none;stroke-width:1.09320331"
         id="path5712"
         inkscape:connector-curvature="0" />
      <path
         d="M 522.84979,177 V 37.000002 h 19.73014 V 177 Z"
         style="letter-spacing:-0.02645833px;fill:#000000;fill-opacity:1;stroke:none;stroke-width:1.09320331"
         id="path5714"
         inkscape:connector-curvature="0" />
      <path
         d="M 634.53342,177 V 91.78261 L 614.59339,151.6027 H 604.51843 L 584.5784,91.78261 V 177 H 564.63837 V 37.000002 h 18.68066 l 26.65667,74.512738 26.02698,-74.512738 h 18.47077 V 177 Z"
         style="letter-spacing:-0.02645833px;fill:#000000;fill-opacity:1;stroke:none;stroke-width:1.09320331"
         id="path5716"
         inkscape:connector-curvature="0" />
      <path
         d="M 735.92274,156.85008 V 177 H 676.10265 V 37.000002 h 59.82009 v 18.470764 h -40.08995 v 41.349325 h 35.26236 v 18.890559 h -35.26236 v 41.13943 z"
         style="letter-spacing:-0.02645833px;fill:#000000;fill-opacity:1;stroke:none;stroke-width:1.09320331"
         id="path5718"
         inkscape:connector-curvature="0" />
      <path
         d="M 805.59127,177 774.31691,91.992505 V 177 H 754.37688 V 37.000002 h 18.89056 L 804.3319,121.7976 V 37.000002 h 19.94003 V 177 Z"
         style="letter-spacing:-0.02645833px;fill:#000000;fill-opacity:1;stroke:none;stroke-width:1.09320331"
         id="path5720"
         inkscape:connector-curvature="0" />
      <path
         d="M 862.13152,177 V 55.680661 H 838.62327 V 37.000002 h 67.37631 V 55.680661 H 882.07155 V 177 Z"
         style="letter-spacing:-0.02645833px;fill:#000000;fill-opacity:1;stroke:none;stroke-width:1.09320331"
         id="path5722"
         inkscape:connector-curvature="0" />
    </g>
  </g>
</svg>
