<?xml version="1.0" encoding="UTF-8" standalone="no"?>
<!-- Created with Inkscape (http://www.inkscape.org/) -->

<svg
   xmlns:dc="http://purl.org/dc/elements/1.1/"
   xmlns:cc="http://creativecommons.org/ns#"
   xmlns:rdf="http://www.w3.org/1999/02/22-rdf-syntax-ns#"
   xmlns:svg="http://www.w3.org/2000/svg"
   xmlns="http://www.w3.org/2000/svg"
   xmlns:sodipodi="http://sodipodi.sourceforge.net/DTD/sodipodi-0.dtd"
   xmlns:inkscape="http://www.inkscape.org/namespaces/inkscape"
   width="900mm"
   height="364mm"
   viewBox="0 0 900 364"
   version="1.1"
   id="svg8"
   inkscape:version="0.92.4 (5da689c313, 2019-01-14)"
   sodipodi:docname="22.svg">
  <defs
     id="defs2" />
  <sodipodi:namedview
     id="base"
     pagecolor="#ffffff"
     bordercolor="#666666"
     borderopacity="1.0"
     inkscape:pageopacity="0.0"
     inkscape:pageshadow="2"
     inkscape:zoom="0.24748738"
     inkscape:cx="1814.5465"
     inkscape:cy="804.7576"
     inkscape:document-units="mm"
     inkscape:current-layer="layer1"
     showgrid="false"
     fit-margin-top="0"
     fit-margin-left="0"
     fit-margin-right="0"
     fit-margin-bottom="0"
     inkscape:window-width="1920"
     inkscape:window-height="1057"
     inkscape:window-x="-8"
     inkscape:window-y="-8"
     inkscape:window-maximized="1"
     inkscape:snap-global="false" />
  <metadata
     id="metadata5">
    <rdf:RDF>
      <cc:Work
         rdf:about="">
        <dc:format>image/svg+xml</dc:format>
        <dc:type
           rdf:resource="http://purl.org/dc/dcmitype/StillImage" />
        <dc:title></dc:title>
      </cc:Work>
    </rdf:RDF>
  </metadata>
  <g
     inkscape:label="Layer 1"
     inkscape:groupmode="layer"
     id="layer1"
     transform="translate(0,67)">
    <rect
       style="opacity:1;fill:#ffd70a;fill-opacity:1;fill-rule:nonzero;stroke:none;stroke-width:0.99077666;stroke-linecap:square;stroke-linejoin:miter;stroke-miterlimit:0;stroke-dasharray:0.99077657, 0.99077656999999997;stroke-dashoffset:21.31999969;stroke-opacity:1;paint-order:stroke fill markers"
       id="rect815"
       width="900"
       height="364"
       x="0"
       y="-67" />
    <rect
       y="-67"
       x="0"
       height="364"
       width="900"
       id="rect817"
       style="opacity:1;fill:#000000;fill-opacity:1;fill-rule:nonzero;stroke:none;stroke-width:0.99077666;stroke-linecap:square;stroke-linejoin:miter;stroke-miterlimit:0;stroke-dasharray:0.99077657, 0.99077657;stroke-dashoffset:21.31999969;stroke-opacity:1;paint-order:stroke fill markers"
       rx="50"
       ry="50" />
    <rect
       ry="25"
       rx="25"
       style="opacity:1;fill:#ffd70a;fill-opacity:1;fill-rule:nonzero;stroke:none;stroke-width:0.89428943;stroke-linecap:square;stroke-linejoin:miter;stroke-miterlimit:0;stroke-dasharray:0.89428937, 0.89428936999999997;stroke-dashoffset:21.31999969;stroke-opacity:1;paint-order:stroke fill markers"
       id="rect819"
       width="850"
       height="314"
       x="25"
       y="-42.000061" />
    <g
       aria-label="Acidente"
       style="font-style:normal;font-variant:normal;font-weight:bold;font-stretch:normal;font-size:194.9150238px;line-height:0;font-family:'DIN 1451 Engschrift';-inkscape-font-specification:'DIN 1451 Engschrift Bold';letter-spacing:0.06879167px;word-spacing:0px;fill:#000000;fill-opacity:1;stroke:none;stroke-width:1.01518238"
       id="text848" />
    <path
       sodipodi:nodetypes="ccccccccccccccccccccccccc"
       inkscape:connector-curvature="0"
       id="path13401"
       d="m 497.3918,71.228171 c -1.03591,0.08342 -3.84109,0.811473 -4.98133,1.522065 -1.72775,1.076256 -3.15372,2.314869 -3.32089,3.320889 H 231.72071 v 10.723697 h 8.16384 C 230.01659,108.41028 215.74791,132.11431 216.5311,156.81024 L 216.5,183.10058 c 0.0442,2.7605 0.68742,4.43982 0.96886,4.84298 0.15402,0.22148 2.90523,2.90604 2.90523,2.90604 0.31936,0.43248 6.54976,4.51981 9.82458,6.77987 1.05923,0.62503 3.48789,1.59831 4.84298,1.9372 h 429.91673 c 1.35506,-0.33889 3.78375,-1.31217 4.84295,-1.9372 3.27482,-2.26006 9.50522,-6.34739 9.82457,-6.77987 0,0 2.75138,-2.68451 2.90523,-2.90604 0.28144,-0.40316 0.9246,-2.08248 0.96887,-4.84298 l -0.0311,-26.29034 c 0.78312,-24.69593 -13.48571,-48.39996 -23.35359,-70.015418 h 8.16383 V 76.071125 h -86.75852 c -0.16734,-1.00602 -1.59292,-2.244633 -3.32062,-3.320889 -1.14027,-0.710592 -3.94574,-1.438572 -4.98156,-1.522065 z"
       style="fill:#000000;fill-opacity:1;fill-rule:evenodd;stroke:none;stroke-width:0.69185174" />
    <path
       style="fill:#ffd70a;fill-opacity:1;stroke:none;stroke-width:5.56940699;stroke-miterlimit:4;stroke-dasharray:none;stroke-opacity:1"
       d="m 648.90053,86.794978 h -10.78604 c -2.29972,0 -4.15111,1.851383 -4.15111,4.151111 v 57.977171 c 0,2.2997 1.85139,4.15111 4.15111,4.15111 h 10.64766 c 0,0 10.11791,-1.16341 13.69875,-2.55999 1.59284,-0.62129 2.39642,-1.63921 3.32088,-2.55985 5.84717,-5.82325 6.15465,-14.56963 6.08829,-15.4629 -0.38703,-5.20791 -16.24155,-39.161222 -17.43472,-41.545541 -0.76623,-1.531218 -1.50548,-4.151111 -5.53482,-4.151111 z"
       id="rect13459"
       inkscape:connector-curvature="0"
       sodipodi:nodetypes="ssssscsssss" />
    <rect
       style="fill:#ffd70a;fill-opacity:1;stroke:none;stroke-width:5.56940699;stroke-miterlimit:4;stroke-dasharray:none;stroke-opacity:1"
       id="rect13471"
       width="44.693619"
       height="102.11732"
       x="581.93604"
       y="86.794945"
       rx="5.5348139" />
    <rect
       style="fill:#ffd70a;fill-opacity:1;stroke:none;stroke-width:5.56940699;stroke-miterlimit:4;stroke-dasharray:none;stroke-opacity:1"
       id="rect13518"
       width="77.902504"
       height="66.141022"
       x="496.56161"
       y="86.794945"
       rx="5.5348139" />
    <path
       sodipodi:nodetypes="ssssscsssss"
       inkscape:connector-curvature="0"
       id="path13549"
       d="m 251.09934,86.794978 h 10.78609 c 2.29971,0 4.15111,1.851383 4.15111,4.151111 v 57.977171 c 0,2.2997 -1.8514,4.15111 -4.15111,4.15111 h -10.6477 c 0,0 -10.11792,-1.16341 -13.6987,-2.55999 -1.59285,-0.62129 -2.39645,-1.63921 -3.32089,-2.55985 -5.84719,-5.82325 -6.15464,-14.56963 -6.0883,-15.4629 0.38702,-5.20791 16.24157,-39.161222 17.43468,-41.545541 0.76624,-1.531218 1.50549,-4.151111 5.53482,-4.151111 z"
       style="fill:#ffd70a;fill-opacity:1;stroke:none;stroke-width:5.56940699;stroke-miterlimit:4;stroke-dasharray:none;stroke-opacity:1" />
    <rect
       rx="5.5348139"
       y="86.794945"
       x="411.18719"
       height="66.141022"
       width="77.902504"
       id="rect13560"
       style="fill:#ffd70a;fill-opacity:1;stroke:none;stroke-width:5.56940699;stroke-miterlimit:4;stroke-dasharray:none;stroke-opacity:1" />
    <rect
       style="fill:#ffd70a;fill-opacity:1;stroke:none;stroke-width:5.56940699;stroke-miterlimit:4;stroke-dasharray:none;stroke-opacity:1"
       id="rect13562"
       width="77.902504"
       height="66.141022"
       x="325.81271"
       y="86.794945"
       rx="5.5348139" />
    <rect
       rx="5.5348139"
       y="86.794945"
       x="273.64709"
       height="102.11732"
       width="44.693619"
       id="rect13564"
       style="fill:#ffd70a;fill-opacity:1;stroke:none;stroke-width:5.56940699;stroke-miterlimit:4;stroke-dasharray:none;stroke-opacity:1" />
    <path
       style="fill:#000000;fill-opacity:1;stroke:none;stroke-width:5.56940699;stroke-miterlimit:4;stroke-dasharray:none;stroke-opacity:1"
       d="m 277.798,230.7 c -10.69872,0 -20.47879,-8.67307 -20.47879,-19.37186 0.007,-1.0202 0,-3.04443 0,-3.04443 h 128.54605 c 0,0 -0.007,2.02423 0,3.04443 0,10.69879 -9.78007,19.37186 -20.47882,19.37186 -8.3654,0 -15.72336,-5.30299 -18.54162,-12.73035 H 296.33965 C 293.52139,225.39701 286.16343,230.7 277.798,230.7 Z"
       id="path13586"
       inkscape:connector-curvature="0"
       sodipodi:nodetypes="sccccsccs" />
    <path
       sodipodi:nodetypes="sccccsccs"
       inkscape:connector-curvature="0"
       id="path14848"
       d="m 622.20189,230.7 c 10.69873,0 20.47883,-8.67307 20.47883,-19.37186 -0.007,-1.0202 0,-3.04443 0,-3.04443 h -128.5461 c 0,0 0.007,2.02423 0,3.04443 0,10.69879 9.78001,19.37186 20.47882,19.37186 8.36537,0 15.72336,-5.30299 18.54161,-12.73035 h 50.50523 c 2.81818,7.42736 10.17617,12.73035 18.54161,12.73035 z"
       style="fill:#000000;fill-opacity:1;stroke:none;stroke-width:5.56940699;stroke-miterlimit:4;stroke-dasharray:none;stroke-opacity:1" />
    <path
       style="fill:#000000;fill-opacity:1;stroke:none;stroke-width:5.56940699;stroke-miterlimit:4;stroke-dasharray:none;stroke-opacity:1"
       d="M 535.30523,-0.793608 473.59207,39.33381 535.30523,79.461202 597.01871,39.33381 Z m 0,5.2788231 L 588.89615,39.33381 535.30523,74.179604 481.71456,39.33381 Z"
       id="path14889"
       inkscape:connector-curvature="0"
       sodipodi:nodetypes="cccccccccc" />
  </g>
</svg>
