<?xml version="1.0" encoding="UTF-8" standalone="no"?>
<!-- Created with Inkscape (http://www.inkscape.org/) -->

<svg
   xmlns:dc="http://purl.org/dc/elements/1.1/"
   xmlns:cc="http://creativecommons.org/ns#"
   xmlns:rdf="http://www.w3.org/1999/02/22-rdf-syntax-ns#"
   xmlns:svg="http://www.w3.org/2000/svg"
   xmlns="http://www.w3.org/2000/svg"
   xmlns:sodipodi="http://sodipodi.sourceforge.net/DTD/sodipodi-0.dtd"
   xmlns:inkscape="http://www.inkscape.org/namespaces/inkscape"
   width="900.79999"
   height="900.79999"
   viewBox="0 0 900.80001 900.79999"
   id="svg5532"
   version="1.1"
   inkscape:version="0.91 r13725"
   sodipodi:docname="drawing 2.svg">
  <defs
     id="defs5534" />
  <sodipodi:namedview
     id="base"
     pagecolor="#ffffff"
     bordercolor="#666666"
     borderopacity="1.0"
     inkscape:pageopacity="0.0"
     inkscape:pageshadow="2"
     inkscape:zoom="0.69067761"
     inkscape:cx="466.403"
     inkscape:cy="352.5977"
     inkscape:document-units="px"
     inkscape:current-layer="layer1"
     showgrid="false"
     units="px"
     inkscape:window-width="1920"
     inkscape:window-height="1057"
     inkscape:window-x="-8"
     inkscape:window-y="-8"
     inkscape:window-maximized="1"
     fit-margin-top="0"
     fit-margin-left="0"
     fit-margin-right="0"
     fit-margin-bottom="0" />
  <metadata
     id="metadata5537">
    <rdf:RDF>
      <cc:Work
         rdf:about="">
        <dc:format>image/svg+xml</dc:format>
        <dc:type
           rdf:resource="http://purl.org/dc/dcmitype/StillImage" />
        <dc:title></dc:title>
      </cc:Work>
    </rdf:RDF>
  </metadata>
  <g
     inkscape:label="Layer 1"
     inkscape:groupmode="layer"
     id="layer1"
     transform="translate(310.76659,1951.3408)">
    <circle
       style="fill:#ffd70a;fill-opacity:1;stroke:none;stroke-width:10;stroke-miterlimit:4;stroke-dasharray:none;stroke-opacity:1"
       id="path6080"
       cx="139.63341"
       cy="-1500.9408"
       r="450" />
    <circle
       r="435"
       cy="-1500.9408"
       cx="139.63341"
       id="circle6082"
       style="fill:#000000;fill-opacity:1;stroke:none;stroke-width:10;stroke-miterlimit:4;stroke-dasharray:none;stroke-opacity:1" />
    <circle
       style="fill:#ffd70a;fill-opacity:1;stroke:none;stroke-width:12;stroke-miterlimit:2.61299992;stroke-dasharray:none;stroke-opacity:1"
       id="circle4140"
       cx="139.63341"
       cy="-1500.9408"
       r="405" />
    <path
       d="m -9.0079798,-1570.6678 c 131.9265498,61.4691 69.2153768,252.6493 -73.5390002,225.0143 -151.7776,-44.0602 -101.51089,-258.5895 53.800776,-232.1967 l 41.243492,-125.5337 1.768541,-4.4755 4.511603,-8.0817 7.180951,-7.1794 8.045681,-5.3388 8.947984,-2.7069 9.887915,-1.7745 33.160225,0 4.474003,1.7745 4.51159,2.7069 1.76855,4.4726 0,4.4724 -2.67087,4.5146 -3.60927,2.6768 -4.474003,0.9024 -33.160225,0 -7.180951,0.8723 -6.278637,3.6062 -4.473997,4.4756 -2.706954,6.2801 -10.752644,30.4894 0.902325,3.5701 1.80464,1.8047 2.670854,0.9023 217.872451,0 8.98559,-23.31 0,-1.8045 -0.90231,-2.6769 -2.70696,-1.8047 -51.0938,-9.8504 -1.80465,-0.9023 0,-2.7069 2.70695,-3.5731 3.57168,-2.707 92.37491,0 3.57167,0.9022 2.70697,2.707 0.9023,3.5732 0,6.2771 -0.9023,3.5732 -2.70697,2.707 -3.57167,0.9024 -14.36192,0 -2.66784,0.9023 -1.80465,2.6769 -9.8879,25.1113 33.1978,84.2918 c 100.57097,-31.8428 188.05833,76.7723 138.95713,168.5472 -51.54497,98.804 -198.81094,77.8249 -221.44411,-31.3917 l -49.28918,0 -8.12087,-0.9024 -7.14336,-3.5701 -6.27863,-5.3778 -2.70696,-2.707 -140.7617577,-159.5631 -12.5196785,39.4403"
       style="fill:#000000;fill-opacity:1;fill-rule:evenodd;stroke:none"
       id="path28262"
       inkscape:connector-curvature="0" />
    <path
       d="m -16.188942,-1548.2601 c 106.248063,53.7631 47.71012,207.759 -67.260353,177.5312 -114.481735,-41.1307 -70.756835,-204.1857 47.522139,-183.8084 l -30.490868,92.3344 0,5.3777 1.80464,3.6093 3.571683,3.5702 4.511582,0.9024 4.436412,-0.9024 3.609268,-2.6769 1.765535,-3.6092 30.528465,-92.3373"
       style="fill:#ffd70a;fill-opacity:1;fill-rule:evenodd;stroke:none"
       id="path28264"
       inkscape:connector-curvature="0" />
    <path
       d="m 309.24745,-1553.6349 c 79.78002,-19.9654 145.12296,59.0236 111.2108,133.5792 -42.10821,78.7634 -153.01824,68.5011 -178.43356,-17.9321 l 105.79689,0 4.474,-2.7069 2.70696,-3.5702 0.9023,-4.4755 -0.9023,-4.4725 -3.60928,-3.6092 -4.474,-1.7746 -37.67181,-95.0413"
       style="fill:#ffd70a;fill-opacity:1;fill-rule:evenodd;stroke:none"
       id="path28266"
       inkscape:connector-curvature="0" />
    <path
       d="m 289.54682,-1545.5923 34.96486,86.9986 -86.99859,0 c 0,-35.4161 20.52775,-70.4922 52.03373,-86.9986"
       style="fill:#ffd70a;fill-opacity:1;fill-rule:nonzero;stroke:none"
       id="path28268"
       inkscape:connector-curvature="0" />
    <path
       d="m 236.64836,-1638.8289 -69.065,180.2352 -154.183757,-172.1534 -0.902315,-0.9024 0,-2.6768 0.902315,-2.707 3.571682,-1.8047 219.677075,0"
       style="fill:#ffd70a;fill-opacity:1;fill-rule:evenodd;stroke:none"
       id="path28270"
       inkscape:connector-curvature="0" />
    <path
       d="m 281.46355,-1567.9969 -25.07696,-62.7502 -4.5116,10.7525 -61.84644,161.4009 23.30991,0 c 0.93842,-46.8815 25.94167,-88.1626 68.12509,-109.4032"
       style="fill:#ffd70a;fill-opacity:1;fill-rule:nonzero;stroke:none"
       id="path28272"
       inkscape:connector-curvature="0" />
  </g>
</svg>
