<?xml version="1.0" encoding="UTF-8" standalone="no"?>
<!-- Created with Inkscape (http://www.inkscape.org/) -->

<svg
   xmlns:dc="http://purl.org/dc/elements/1.1/"
   xmlns:cc="http://creativecommons.org/ns#"
   xmlns:rdf="http://www.w3.org/1999/02/22-rdf-syntax-ns#"
   xmlns:svg="http://www.w3.org/2000/svg"
   xmlns="http://www.w3.org/2000/svg"
   xmlns:sodipodi="http://sodipodi.sourceforge.net/DTD/sodipodi-0.dtd"
   xmlns:inkscape="http://www.inkscape.org/namespaces/inkscape"
   width="900.79999"
   height="900.79999"
   viewBox="0 0 900.80005 900.79997"
   id="svg4162"
   version="1.1"
   inkscape:version="0.91 r13725"
   sodipodi:docname="drawing 2.svg">
  <defs
     id="defs4164" />
  <sodipodi:namedview
     id="base"
     pagecolor="#ffffff"
     bordercolor="#666666"
     borderopacity="1.0"
     inkscape:pageopacity="0.0"
     inkscape:pageshadow="2"
     inkscape:zoom="0.70710678"
     inkscape:cx="612.61563"
     inkscape:cy="365.71682"
     inkscape:document-units="px"
     inkscape:current-layer="layer1"
     showgrid="false"
     units="px"
     fit-margin-top="0"
     fit-margin-left="0"
     fit-margin-right="0"
     fit-margin-bottom="0"
     inkscape:snap-global="true"
     inkscape:window-width="1920"
     inkscape:window-height="1057"
     inkscape:window-x="-8"
     inkscape:window-y="-8"
     inkscape:window-maximized="1"
     showguides="false" />
  <metadata
     id="metadata4167">
    <rdf:RDF>
      <cc:Work
         rdf:about="">
        <dc:format>image/svg+xml</dc:format>
        <dc:type
           rdf:resource="http://purl.org/dc/dcmitype/StillImage" />
        <dc:title></dc:title>
      </cc:Work>
    </rdf:RDF>
  </metadata>
  <g
     inkscape:label="Layer 1"
     inkscape:groupmode="layer"
     id="layer1"
     transform="translate(-369.52551,1108.7896)">
    <circle
       style="fill:#ffd70a;fill-opacity:1;stroke:none;stroke-width:10;stroke-miterlimit:4;stroke-dasharray:none;stroke-opacity:1"
       id="path6080"
       cx="819.92554"
       cy="-658.38959"
       r="450" />
    <circle
       r="435"
       cy="-658.38959"
       cx="819.92554"
       id="circle6082"
       style="fill:#000000;fill-opacity:1;stroke:none;stroke-width:10;stroke-miterlimit:4;stroke-dasharray:none;stroke-opacity:1" />
    <circle
       style="fill:#ffd70a;fill-opacity:1;stroke:none;stroke-width:12;stroke-miterlimit:2.61299992;stroke-dasharray:none;stroke-opacity:1"
       id="circle4140"
       cx="819.92554"
       cy="-658.38959"
       r="405" />
    <path
       d="m 1121.8255,-583.38971 c 5.2418,-0.0169 12.26,-3.92813 13.415,-9.9 7.7072,-39.10748 1.3221,-158.80699 -18,-197.2 -1.0025,-1.52293 -0.6113,-1.55646 -5.315,-5.4 -1.6086,-1.11872 -2.4331,-2.16095 -6.3,-3.5 -2.2951,-0.60642 -4.2912,-0.79423 -6.3,-0.99986 l -504.89998,0 c -35.13721,0.0418 -62.1886,8.65935 -89.6,23.39986 l 7.2,14.4 -20.6,70.9 -1,9 0,69.7 -3.5,0 c -3.14791,2.03106 -3.54484,2.834 -4.5,7.2 l 0,15.2 c 1.24475,5.27267 5.67443,7.21105 8,7.2"
       style="fill:#000000;fill-opacity:1;fill-rule:evenodd;stroke:none"
       id="path8933"
       inkscape:connector-curvature="0"
       sodipodi:nodetypes="cccccccccccccccc" />
    <path
       style="fill:#ffd70a;fill-opacity:1;fill-rule:evenodd;stroke:none"
       d="m 599.57513,-631.3901 c 17.48472,-0.0111 14.82426,4.95451 26.45,48.40039 l -99.59961,0 c 11.62574,-43.44588 8.96528,-48.41149 26.45,-48.40039 5.44572,0.004 41.25389,0.004 46.69961,0 z"
       id="path36445"
       inkscape:connector-curvature="0"
       sodipodi:nodetypes="ccccc" />
    <path
       sodipodi:nodetypes="ccccc"
       inkscape:connector-curvature="0"
       id="path36453"
       d="m 973.37513,-631.39005 c 17.48472,-0.0111 14.82426,4.95451 26.45,48.40039 l -99.59961,0 c 11.62574,-43.44588 8.96528,-48.41149 26.45,-48.40039 5.44572,0.004 41.25389,0.004 46.69961,0 z"
       style="fill:#ffd70a;fill-opacity:1;fill-rule:evenodd;stroke:none" />
    <circle
       style="fill:#000000;fill-opacity:1;stroke:none;stroke-width:26;stroke-miterlimit:4;stroke-dasharray:none;stroke-opacity:1"
       id="path36514"
       cx="576.22559"
       cy="-583.58966"
       r="37.200001" />
    <circle
       r="37.200001"
       cy="-583.58966"
       cx="950.02551"
       id="circle36525"
       style="fill:#000000;fill-opacity:1;stroke:none;stroke-width:26;stroke-miterlimit:4;stroke-dasharray:none;stroke-opacity:1" />
    <path
       style="fill:#ffd70a;fill-opacity:1;stroke:none;stroke-width:26;stroke-miterlimit:4;stroke-dasharray:none;stroke-opacity:1"
       d="m 547.81925,-770.38958 74.60627,0 c 8.31,0 15,6.69 15,15 l 0,44.5 c 0,8.31 -6.69,15 -15,15 l -101.60628,0 c -8.31,0 -17.4093,-10.04692 -14.99999,-17.99999 l 10.3,-34 c 4.673,-15.42542 22.94806,-22.50001 31.7,-22.50001 z"
       id="rect36553"
       inkscape:connector-curvature="0"
       sodipodi:nodetypes="sssssssss" />
    <path
       style="fill:#ffd70a;fill-opacity:1;stroke:none;stroke-width:26;stroke-miterlimit:4;stroke-dasharray:none;stroke-opacity:1"
       d="m 1092.8465,-781.88958 -33.2206,0 c -8.31,0 -15,6.69 -15,15 l 0,56 c 0,8.31 6.69,15 15,15 l 50.2206,0 c 8.31,0 16.5024,-8.42693 15,-16.59999 l -10,-54.40001 c -0.5166,-2.81066 -7.4144,-15 -22,-15 z"
       id="rect36574"
       inkscape:connector-curvature="0"
       sodipodi:nodetypes="sssssssss" />
    <rect
       style="fill:#ffd70a;fill-opacity:1;stroke:none;stroke-width:26;stroke-miterlimit:4;stroke-dasharray:none;stroke-opacity:1"
       id="rect36604"
       width="71.599998"
       height="164"
       x="648.14557"
       y="606.38965"
       rx="15"
       ry="15"
       transform="scale(1,-1)" />
    <rect
       style="fill:#ffd70a;fill-opacity:1;stroke:none;stroke-width:26;stroke-miterlimit:4;stroke-dasharray:none;stroke-opacity:1"
       id="rect36624"
       width="94"
       height="86"
       x="730.46558"
       y="695.88965"
       rx="15"
       ry="15"
       transform="scale(1,-1)" />
    <rect
       ry="15"
       rx="15"
       y="695.88965"
       x="835.18555"
       height="86"
       width="94"
       id="rect36626"
       style="fill:#ffd70a;fill-opacity:1;stroke:none;stroke-width:26;stroke-miterlimit:4;stroke-dasharray:none;stroke-opacity:1"
       transform="scale(1,-1)" />
    <rect
       style="fill:#ffd70a;fill-opacity:1;stroke:none;stroke-width:26;stroke-miterlimit:4;stroke-dasharray:none;stroke-opacity:1"
       id="rect36628"
       width="94"
       height="86"
       x="939.90558"
       y="695.88965"
       rx="15"
       ry="15"
       transform="scale(1,-1)" />
  </g>
</svg>
