<?xml version="1.0" encoding="UTF-8" standalone="no"?>
<!-- Created with Inkscape (http://www.inkscape.org/) -->

<svg
   xmlns:dc="http://purl.org/dc/elements/1.1/"
   xmlns:cc="http://creativecommons.org/ns#"
   xmlns:rdf="http://www.w3.org/1999/02/22-rdf-syntax-ns#"
   xmlns:svg="http://www.w3.org/2000/svg"
   xmlns="http://www.w3.org/2000/svg"
   xmlns:sodipodi="http://sodipodi.sourceforge.net/DTD/sodipodi-0.dtd"
   xmlns:inkscape="http://www.inkscape.org/namespaces/inkscape"
   width="900.79999"
   height="900.79999"
   viewBox="0 0 900.80001 900.79999"
   id="svg5532"
   version="1.1"
   inkscape:version="0.91 r13725"
   sodipodi:docname="drawing 2.svg">
  <defs
     id="defs5534" />
  <sodipodi:namedview
     id="base"
     pagecolor="#ffffff"
     bordercolor="#666666"
     borderopacity="1.0"
     inkscape:pageopacity="0.0"
     inkscape:pageshadow="2"
     inkscape:zoom="0.48838282"
     inkscape:cx="206.60744"
     inkscape:cy="427.61251"
     inkscape:document-units="px"
     inkscape:current-layer="layer1"
     showgrid="false"
     units="px"
     inkscape:window-width="1920"
     inkscape:window-height="1057"
     inkscape:window-x="-8"
     inkscape:window-y="-8"
     inkscape:window-maximized="1"
     fit-margin-top="0"
     fit-margin-left="0"
     fit-margin-right="0"
     fit-margin-bottom="0" />
  <metadata
     id="metadata5537">
    <rdf:RDF>
      <cc:Work
         rdf:about="">
        <dc:format>image/svg+xml</dc:format>
        <dc:type
           rdf:resource="http://purl.org/dc/dcmitype/StillImage" />
        <dc:title></dc:title>
      </cc:Work>
    </rdf:RDF>
  </metadata>
  <g
     inkscape:label="Layer 1"
     inkscape:groupmode="layer"
     id="layer1"
     transform="translate(-673.64063,3550.5608)">
    <circle
       style="fill:#ffd70a;fill-opacity:1;stroke:none;stroke-width:10;stroke-miterlimit:4;stroke-dasharray:none;stroke-opacity:1"
       id="path6080"
       cx="1124.0406"
       cy="-3100.1609"
       r="450" />
    <circle
       r="435"
       cy="-3100.1609"
       cx="1124.0406"
       id="circle6082"
       style="fill:#000000;fill-opacity:1;stroke:none;stroke-width:10;stroke-miterlimit:4;stroke-dasharray:none;stroke-opacity:1" />
    <circle
       style="fill:#ffd70a;fill-opacity:1;stroke:none;stroke-width:12;stroke-miterlimit:2.61299992;stroke-dasharray:none;stroke-opacity:1"
       id="circle4140"
       cx="1124.0406"
       cy="-3100.1609"
       r="405" />
    <path
       sodipodi:nodetypes="ccccccccccccccccccc"
       inkscape:connector-curvature="0"
       id="path4191"
       d="m 1001.2259,-3418.9109 c -22.18709,66.7405 -47.6567,147.3103 -75.2987,224.5403 -9.81859,25.69 -22.45551,31.526 -40.22749,31.5995 l -9.6591,0 0,43.8602 137.83999,0 0,-42.78 c -6.62,0 -12.2352,0.1686 -18.18604,-0.046 -29.96584,-3.1027 -11.7253,-40.524 -6.8935,-54.0145 l 47.91924,-146.3275 45.8071,146.4682 c 4.894,13.5878 22.9431,50.7798 -6.9374,53.8738 -6.1898,0.1185 -12.7983,0.046 -18.1896,0.046 l 0,42.7792 165.74,0 0,-44.329 c -19.1505,0.3176 -32.0792,-3.2169 -37.2743,-18.6122 l -73.6557,-237.058 z"
       style="fill:#000000;fill-opacity:1;fill-rule:nonzero;stroke:none" />
    <path
       style="fill:#000000;fill-opacity:1;fill-rule:nonzero;stroke:none"
       d="m 1246.8551,-2781.4108 c 22.1871,-66.7405 47.6567,-147.3103 75.2987,-224.5403 9.8186,-25.69 22.4555,-31.526 40.2275,-31.5995 l 9.6591,0 0,-43.8602 -137.84,0 0,42.78 c 6.62,0 12.2352,-0.1686 18.186,0.046 29.9659,3.1027 11.7253,40.524 6.8935,54.0145 l -47.9192,146.3275 -45.8071,-146.4682 c -4.894,-13.5878 -22.9431,-50.7798 6.9374,-53.8738 6.1898,-0.1185 12.7983,-0.046 18.1896,-0.046 l 0,-42.7792 -165.74,0 0,44.329 c 19.1505,-0.3176 32.0792,3.2169 37.2743,18.6122 l 73.6557,237.058 z"
       id="path5511"
       inkscape:connector-curvature="0"
       sodipodi:nodetypes="ccccccccccccccccccc" />
    <rect
       style="fill:#000000;fill-opacity:1;stroke:none;stroke-width:4;stroke-miterlimit:4;stroke-dasharray:none;stroke-opacity:1"
       id="rect6814"
       width="200"
       height="37.5"
       x="956.04065"
       y="-3250.1609" />
  </g>
</svg>
