<?xml version="1.0" encoding="UTF-8" standalone="no"?>
<!-- Created with Inkscape (http://www.inkscape.org/) -->

<svg
   xmlns:dc="http://purl.org/dc/elements/1.1/"
   xmlns:cc="http://creativecommons.org/ns#"
   xmlns:rdf="http://www.w3.org/1999/02/22-rdf-syntax-ns#"
   xmlns:svg="http://www.w3.org/2000/svg"
   xmlns="http://www.w3.org/2000/svg"
   xmlns:sodipodi="http://sodipodi.sourceforge.net/DTD/sodipodi-0.dtd"
   xmlns:inkscape="http://www.inkscape.org/namespaces/inkscape"
   width="900.79999"
   height="900.79999"
   viewBox="0 0 900.79999 900.79999"
   id="svg4146"
   version="1.1"
   inkscape:version="0.91 r13725"
   sodipodi:docname="drawing 2.svg">
  <defs
     id="defs4148" />
  <sodipodi:namedview
     id="base"
     pagecolor="#ffffff"
     bordercolor="#666666"
     borderopacity="1.0"
     inkscape:pageopacity="0.0"
     inkscape:pageshadow="2"
     inkscape:zoom="0.5"
     inkscape:cx="781.27093"
     inkscape:cy="161.37852"
     inkscape:document-units="px"
     inkscape:current-layer="layer1"
     showgrid="false"
     units="px"
     inkscape:window-width="1920"
     inkscape:window-height="1057"
     inkscape:window-x="-8"
     inkscape:window-y="-8"
     inkscape:window-maximized="1"
     fit-margin-top="0"
     fit-margin-left="0"
     fit-margin-right="0"
     fit-margin-bottom="0"
     inkscape:snap-global="true" />
  <metadata
     id="metadata4151">
    <rdf:RDF>
      <cc:Work
         rdf:about="">
        <dc:format>image/svg+xml</dc:format>
        <dc:type
           rdf:resource="http://purl.org/dc/dcmitype/StillImage" />
        <dc:title></dc:title>
      </cc:Work>
    </rdf:RDF>
  </metadata>
  <g
     inkscape:label="Layer 1"
     inkscape:groupmode="layer"
     id="layer1"
     transform="translate(-269.10547,9368.3262)">
    <circle
       style="fill:#ffd70a;fill-opacity:1;stroke:none;stroke-width:10;stroke-miterlimit:4;stroke-dasharray:none;stroke-opacity:1"
       id="path6080"
       cx="719.50549"
       cy="-8917.9258"
       r="450" />
    <circle
       r="435"
       cy="-8917.9258"
       cx="719.50549"
       id="circle6082"
       style="fill:#000000;fill-opacity:1;stroke:none;stroke-width:10;stroke-miterlimit:4;stroke-dasharray:none;stroke-opacity:1" />
    <circle
       style="fill:#ffd70a;fill-opacity:1;stroke:none;stroke-width:12;stroke-miterlimit:2.61299992;stroke-dasharray:none;stroke-opacity:1"
       id="circle4140"
       cx="719.50549"
       cy="-8917.9258"
       r="405" />
    <path
       sodipodi:nodetypes="ccccccccccccccccccccccccc"
       inkscape:connector-curvature="0"
       id="path13401"
       d="m 788.00555,-8980.426 c -1.4973,0.1207 -5.5519,1.1729 -7.2,2.2 -2.4973,1.5556 -4.5584,3.3459 -4.8,4.8 l -372.00008,0 0,15.5 11.8,0 c -14.2631,31.2429 -34.887,65.5046 -33.755,101.2 l -0.045,38 c 0.064,3.99 0.9936,6.4173 1.4004,7 0.2224,0.3202 4.1992,4.2004 4.1992,4.2004 0.4616,0.6251 9.467,6.5329 14.2004,9.7996 1.531,0.9034 5.0414,2.3102 7,2.8 l 621.40013,0 c 1.9586,-0.4898 5.469,-1.8966 7,-2.8 4.7334,-3.2667 13.7388,-9.1745 14.2004,-9.7996 0,0 3.9768,-3.8802 4.1992,-4.2004 0.4068,-0.5827 1.3364,-3.01 1.4004,-7 l -0.045,-38 c 1.132,-35.6954 -19.4921,-69.9571 -33.7551,-101.2 l 11.8,0 0,-15.5 -125.40047,0 c -0.2417,-1.4541 -2.3024,-3.2444 -4.79962,-4.8 -1.64816,-1.0271 -5.70316,-2.0793 -7.20036,-2.2 z"
       style="fill:#000000;fill-opacity:1;fill-rule:evenodd;stroke:none" />
    <path
       style="fill:#ffd70a;fill-opacity:1;stroke:none;stroke-width:8.05000019;stroke-miterlimit:4;stroke-dasharray:none;stroke-opacity:1"
       d="m 1006.9957,-8957.9258 -15.5901,0 c -3.324,0 -6,2.676 -6,6 l 0,83.8 c 0,3.324 2.676,6 6,6 l 15.3901,0 c 0,0 14.6244,-1.6816 19.8001,-3.7002 2.3023,-0.898 3.4638,-2.3693 4.8,-3.7 8.4515,-8.4169 8.8959,-21.0589 8.8,-22.35 -0.5594,-7.5275 -23.4755,-56.6035 -25.2001,-60.0498 -1.1075,-2.2132 -2.176,-6 -8,-6 z"
       id="rect13459"
       inkscape:connector-curvature="0"
       sodipodi:nodetypes="ssssscsssss" />
    <rect
       style="fill:#ffd70a;fill-opacity:1;stroke:none;stroke-width:8.05000019;stroke-miterlimit:4;stroke-dasharray:none;stroke-opacity:1"
       id="rect13471"
       width="64.599998"
       height="147.60001"
       x="910.20544"
       y="-8957.9258"
       rx="8" />
    <rect
       style="fill:#ffd70a;fill-opacity:1;stroke:none;stroke-width:8.05000019;stroke-miterlimit:4;stroke-dasharray:none;stroke-opacity:1"
       id="rect13518"
       width="112.6"
       height="95.599998"
       x="786.80554"
       y="-8957.9258"
       rx="8" />
    <path
       sodipodi:nodetypes="ssssscsssss"
       inkscape:connector-curvature="0"
       id="path13549"
       d="m 432.0153,-8957.9258 15.59017,0 c 3.324,0 6,2.676 6,6 l 0,83.8 c 0,3.324 -2.676,6 -6,6 l -15.39017,0 c 0,0 -14.62439,-1.6816 -19.80003,-3.7002 -2.3023,-0.898 -3.4638,-2.3693 -4.8,-3.7 -8.4515,-8.4169 -8.8959,-21.0589 -8.8,-22.35 0.5594,-7.5275 23.47549,-56.6035 25.20003,-60.0498 1.1075,-2.2132 2.176,-6 8,-6 z"
       style="fill:#ffd70a;fill-opacity:1;stroke:none;stroke-width:8.05000019;stroke-miterlimit:4;stroke-dasharray:none;stroke-opacity:1" />
    <rect
       rx="8"
       y="-8957.9258"
       x="663.40564"
       height="95.599998"
       width="112.6"
       id="rect13560"
       style="fill:#ffd70a;fill-opacity:1;stroke:none;stroke-width:8.05000019;stroke-miterlimit:4;stroke-dasharray:none;stroke-opacity:1" />
    <rect
       style="fill:#ffd70a;fill-opacity:1;stroke:none;stroke-width:8.05000019;stroke-miterlimit:4;stroke-dasharray:none;stroke-opacity:1"
       id="rect13562"
       width="112.6"
       height="95.599998"
       x="540.00568"
       y="-8957.9258"
       rx="8" />
    <rect
       rx="8"
       y="-8957.9258"
       x="464.60574"
       height="147.60001"
       width="64.599998"
       id="rect13564"
       style="fill:#ffd70a;fill-opacity:1;stroke:none;stroke-width:8.05000019;stroke-miterlimit:4;stroke-dasharray:none;stroke-opacity:1" />
    <path
       style="fill:#000000;fill-opacity:1;stroke:none;stroke-width:8.05000019;stroke-miterlimit:4;stroke-dasharray:none;stroke-opacity:1"
       d="m 470.60547,-8749.926 c -15.46391,0 -29.6,-12.536 -29.6,-28 0.0115,-1.4746 0,-4.4004 0,-4.4004 l 185.8,0 c 0,0 -0.0115,2.9258 0,4.4004 0,15.464 -14.13609,28 -29.6,28 -12.09134,0 -22.7265,-7.6649 -26.8,-18.4004 l -73,0 c -4.07349,10.7355 -14.70866,18.4004 -26.8,18.4004 z"
       id="path13586"
       inkscape:connector-curvature="0"
       sodipodi:nodetypes="sccccsccs" />
    <path
       sodipodi:nodetypes="sccccsccs"
       inkscape:connector-curvature="0"
       id="path14848"
       d="m 968.4056,-8749.926 c 15.4639,0 29.6,-12.536 29.6,-28 -0.012,-1.4746 0,-4.4004 0,-4.4004 l -185.80005,0 c 0,0 0.011,2.9258 0,4.4004 0,15.464 14.136,28 29.6,28 12.0913,0 22.7265,-7.6649 26.8,-18.4004 l 73.00005,0 c 4.0734,10.7355 14.7086,18.4004 26.8,18.4004 z"
       style="fill:#000000;fill-opacity:1;stroke:none;stroke-width:8.05000019;stroke-miterlimit:4;stroke-dasharray:none;stroke-opacity:1" />
    <path
       style="fill:#000000;fill-opacity:1;stroke:none;stroke-width:8.05000019;stroke-miterlimit:4;stroke-dasharray:none;stroke-opacity:1"
       d="m 842.80547,-9084.526 -89.2,58 89.2,58 89.20043,-58 z m 0,7.63 77.46013,50.37 -77.46013,50.366 -77.45977,-50.366 z"
       id="path14889"
       inkscape:connector-curvature="0"
       sodipodi:nodetypes="cccccccccc" />
  </g>
</svg>
