<?xml version="1.0" encoding="UTF-8" standalone="no"?>
<!-- Created with Inkscape (http://www.inkscape.org/) -->

<svg
   xmlns:osb="http://www.openswatchbook.org/uri/2009/osb"
   xmlns:dc="http://purl.org/dc/elements/1.1/"
   xmlns:cc="http://creativecommons.org/ns#"
   xmlns:rdf="http://www.w3.org/1999/02/22-rdf-syntax-ns#"
   xmlns:svg="http://www.w3.org/2000/svg"
   xmlns="http://www.w3.org/2000/svg"
   xmlns:sodipodi="http://sodipodi.sourceforge.net/DTD/sodipodi-0.dtd"
   xmlns:inkscape="http://www.inkscape.org/namespaces/inkscape"
   width="900.79999"
   height="900.79999"
   viewBox="0 0 900.79995 900.80002"
   id="svg4143"
   version="1.1"
   inkscape:version="0.92.1 r15371"
   sodipodi:docname="55.svg">
  <defs
     id="defs4145">
    <linearGradient
       id="linearGradient7315"
       osb:paint="solid">
      <stop
         style="stop-color:#ff0000;stop-opacity:1;"
         offset="0"
         id="stop7317" />
    </linearGradient>
  </defs>
  <sodipodi:namedview
     id="base"
     pagecolor="#ffffff"
     bordercolor="#666666"
     borderopacity="1.0"
     inkscape:pageopacity="0.0"
     inkscape:pageshadow="2"
     inkscape:zoom="0.81720458"
     inkscape:cx="635.82414"
     inkscape:cy="447.50928"
     inkscape:document-units="px"
     inkscape:current-layer="layer1"
     showgrid="false"
     units="px"
     fit-margin-top="0"
     fit-margin-left="0"
     fit-margin-right="0"
     fit-margin-bottom="0"
     inkscape:window-width="1920"
     inkscape:window-height="1057"
     inkscape:window-x="-8"
     inkscape:window-y="-8"
     inkscape:window-maximized="1" />
  <metadata
     id="metadata4148">
    <rdf:RDF>
      <cc:Work
         rdf:about="">
        <dc:format>image/svg+xml</dc:format>
        <dc:type
           rdf:resource="http://purl.org/dc/dcmitype/StillImage" />
        <dc:title></dc:title>
      </cc:Work>
    </rdf:RDF>
  </metadata>
  <g
     inkscape:label="Layer 1"
     inkscape:groupmode="layer"
     id="layer1"
     transform="translate(-576.12928,4661.612)">
    <circle
       style="fill:#e20a16;fill-opacity:1;stroke:none;stroke-width:8.05000019;stroke-miterlimit:4;stroke-dasharray:none;stroke-opacity:1"
       id="path4702"
       cx="1026.5293"
       cy="-4211.2119"
       r="450" />
    <circle
       cy="-4211.2119"
       cx="1026.5293"
       id="circle4704"
       style="fill:#ffd70a;fill-opacity:1;stroke:none;stroke-width:8.05000019;stroke-miterlimit:4;stroke-dasharray:none;stroke-opacity:1"
       r="375" />
    <path
       style="font-style:normal;font-variant:normal;font-weight:normal;font-stretch:normal;font-size:236.25559998px;line-height:125%;font-family:'DIN 1451 Engschrift';-inkscape-font-specification:'DIN 1451 Engschrift';letter-spacing:0px;word-spacing:0px;fill:#000000;fill-opacity:1;fill-rule:evenodd;stroke:none;stroke-width:1px;stroke-linecap:butt;stroke-linejoin:miter;stroke-opacity:1"
       d="m 943.68473,-4434.6699 c -10.2428,0 -18.4888,8.2461 -18.4888,18.4889 v 89.3153 h -6.8978 v -48.6403 c 0,-6.1457 -4.9476,-11.093 -11.0934,-11.093 h -71.8222 c -1.3844,0 -8.6282,2.9689 -11.52,8.3911 l -21.618,45.6533 -4.3375,4.3375 c -1.3811,1.406 -2.6275,2.6669 -3.7689,5.1203 -1.5281,3.2841 -2.3422,5.6158 -2.5603,10.738 v 16.5686 c -2.8477,0.3166 -5.0486,2.6826 -5.0486,5.6175 v 15.2181 h 120.32 c 2.2024,-42.0789 46.3798,-40.5114 77.8666,-37.4042 v 37.4042 h 281.81337 v -141.2264 c 0,-10.2428 -8.2461,-18.4889 -18.4889,-18.4889 z"
       id="path14783"
       inkscape:connector-curvature="0"
       sodipodi:nodetypes="ssccsssccccccscccccsss" />
    <path
       style="font-style:normal;font-variant:normal;font-weight:normal;font-stretch:normal;font-size:236.25559998px;line-height:125%;font-family:'DIN 1451 Engschrift';-inkscape-font-specification:'DIN 1451 Engschrift';letter-spacing:0px;word-spacing:0px;fill:#ffd70a;fill-opacity:1;stroke:none;stroke-width:26;stroke-linecap:butt;stroke-linejoin:miter;stroke-miterlimit:4;stroke-dasharray:none;stroke-opacity:1"
       d="m 837.93593,-4375.008 h 60.0955 c 4.7275,0 8.5333,3.8059 8.5333,8.5333 v 19.6978 c 0,4.7275 -3.8058,8.5333 -8.5333,8.5333 h -69.34 c -6.4163,0 -8.3371,-6.2026 -7.1111,-8.8176 l 9.1022,-19.4135 c 2.0069,-4.2803 2.5259,-8.5333 7.2534,-8.5333 z"
       id="rect15007"
       inkscape:connector-curvature="0"
       sodipodi:nodetypes="sssssssss" />
    <circle
       r="36.977783"
       cy="-4275.0967"
       cx="851.38263"
       id="circle4242"
       style="font-style:normal;font-variant:normal;font-weight:normal;font-stretch:normal;font-size:236.25559998px;line-height:125%;font-family:'DIN 1451 Engschrift';-inkscape-font-specification:'DIN 1451 Engschrift';letter-spacing:0px;word-spacing:0px;fill:#ffd70a;fill-opacity:1;stroke:none;stroke-width:26;stroke-linecap:butt;stroke-linejoin:miter;stroke-miterlimit:4;stroke-dasharray:none;stroke-opacity:1" />
    <circle
       style="font-style:normal;font-variant:normal;font-weight:normal;font-stretch:normal;font-size:236.25559998px;line-height:125%;font-family:'DIN 1451 Engschrift';-inkscape-font-specification:'DIN 1451 Engschrift';letter-spacing:0px;word-spacing:0px;fill:#000000;fill-opacity:1;stroke:none;stroke-width:26;stroke-linecap:butt;stroke-linejoin:miter;stroke-miterlimit:4;stroke-dasharray:none;stroke-opacity:1"
       id="circle4244"
       cx="851.38263"
       cy="-4275.0967"
       r="25.884445" />
    <circle
       r="25.884445"
       cy="-4275.0967"
       cx="943.82709"
       id="circle4258"
       style="font-style:normal;font-variant:normal;font-weight:normal;font-stretch:normal;font-size:236.25559998px;line-height:125%;font-family:'DIN 1451 Engschrift';-inkscape-font-specification:'DIN 1451 Engschrift';letter-spacing:0px;word-spacing:0px;fill:#000000;fill-opacity:1;stroke:none;stroke-width:26;stroke-linecap:butt;stroke-linejoin:miter;stroke-miterlimit:4;stroke-dasharray:none;stroke-opacity:1" />
    <circle
       style="font-style:normal;font-variant:normal;font-weight:normal;font-stretch:normal;font-size:236.25559998px;line-height:125%;font-family:'DIN 1451 Engschrift';-inkscape-font-specification:'DIN 1451 Engschrift';letter-spacing:0px;word-spacing:0px;fill:#ffd70a;fill-opacity:1;stroke:none;stroke-width:26;stroke-linecap:butt;stroke-linejoin:miter;stroke-miterlimit:4;stroke-dasharray:none;stroke-opacity:1"
       id="circle4287"
       cx="1188.876"
       cy="-4275.0967"
       r="36.977783" />
    <circle
       r="25.884445"
       cy="-4275.0967"
       cx="1188.876"
       id="circle4289"
       style="font-style:normal;font-variant:normal;font-weight:normal;font-stretch:normal;font-size:236.25559998px;line-height:125%;font-family:'DIN 1451 Engschrift';-inkscape-font-specification:'DIN 1451 Engschrift';letter-spacing:0px;word-spacing:0px;fill:#000000;fill-opacity:1;stroke:none;stroke-width:26;stroke-linecap:butt;stroke-linejoin:miter;stroke-miterlimit:4;stroke-dasharray:none;stroke-opacity:1" />
    <path
       style="fill:#000000;fill-opacity:1;stroke:none;stroke-width:3.5;stroke-miterlimit:4;stroke-dasharray:none;stroke-opacity:1"
       d="m 707.77923,-4271.2121 80,60 -80,60 z"
       id="rect5709"
       inkscape:connector-curvature="0"
       sodipodi:nodetypes="cccc" />
    <path
       sodipodi:nodetypes="cccc"
       inkscape:connector-curvature="0"
       id="path7199"
       d="m 1345.2793,-4271.2121 -80,60 80,60 z"
       style="fill:#000000;fill-opacity:1;stroke:none;stroke-width:3.5;stroke-miterlimit:4;stroke-dasharray:none;stroke-opacity:1" />
    <g
       style="font-style:normal;font-variant:normal;font-weight:normal;font-stretch:normal;font-size:139.41456604px;line-height:125%;font-family:'DIN 1451 Mittelschrift';-inkscape-font-specification:'DIN 1451 Mittelschrift';letter-spacing:0px;word-spacing:0px;fill:#000000;fill-opacity:1;stroke:none;stroke-width:1px;stroke-linecap:butt;stroke-linejoin:miter;stroke-opacity:1"
       id="text7210"
       transform="matrix(-1.66,0,0,1.66,2747.0199,2649.3279)">
      <path
         style="font-style:normal;font-variant:normal;font-weight:normal;font-stretch:normal;font-size:139.41456604px;line-height:125%;font-family:'DIN 1451 Mittelschrift';-inkscape-font-specification:'DIN 1451 Mittelschrift';letter-spacing:0px;word-spacing:0px;fill:#000000;fill-opacity:1;stroke:none;stroke-width:1px;stroke-linecap:butt;stroke-linejoin:miter;stroke-opacity:1"
         d="m 1012.3435,-3999.1205 v -68.7396 h -13.84073 v 7.3507 h -0.2648 q -6.5562,-8.1454 -17.8803,-8.1454 -7.2184,0 -11.4567,2.5828 -4.2382,2.5826 -7.9467,6.3573 -8.1455,-8.9401 -21.7213,-8.9401 -8.013,0 -15.43,6.0926 -7.4833,6.0926 -7.4833,17.7478 v 45.6939 h 13.8408 v -40.9258 q 0,-6.9536 3.907,-10.8607 3.9072,-3.9072 9.6687,-3.9072 5.9601,0 9.8672,3.9072 3.841,3.9071 3.841,10.8607 v 40.9258 h 13.7744 v -40.9258 q 0,-6.9536 3.9072,-10.8607 3.9072,-3.9072 9.6687,-3.9072 5.9601,0 9.8672,3.9072 3.8409,3.9071 3.8409,10.8607 v 40.9258 z"
         id="path7219"
         inkscape:connector-curvature="0" />
      <path
         d="m 1130.7173,-4095.4442 h 13.7161 l 13.6935,9.8552 v 17.5319 l -10.9594,-8.2259 v 76.1626 h -16.4502 v -95.3238"
         style="fill:#000000;fill-opacity:1;fill-rule:nonzero;stroke:none"
         id="path7970"
         inkscape:connector-curvature="0" />
    </g>
    <path
       inkscape:connector-curvature="0"
       id="path4147"
       style="fill:#000000;fill-opacity:1;fill-rule:nonzero;stroke:none"
       d="m 995.36313,-4149.2121 h -84.9098 v 85.2494 h 28.8734 l 3.0477,-3.4037 c 0.8634,-0.9853 1.9314,-1.8683 3.0618,-2.7201 0.5376,-0.4095 2.4014,-1.2996 3.5607,-1.7115 1.109,-0.5103 2.7301,-0.7697 3.9161,-1.0086 1.4847,-0.2751 2.8388,-0.3152 4.1205,-0.2139 10.0386,0.7372 12.9401,7.7437 13.9671,14.142 0.095,1.7899 6.0989,33.3389 -11.6362,41.1008 -10.8378,4.2297 -21.5473,-1.9226 -24.4526,-12.9027 h -27.5145 c 4.9846,43.8494 60.7541,57.0797 84.224,19.3541 20.25127,-41.3856 2.0365,-106.4264 -53.9894,-83.8822 v -26.8431 h 57.7312"
       sodipodi:nodetypes="ccccccccccccccccc" />
    <rect
       transform="rotate(45)"
       ry="34"
       rx="34"
       y="-4108.6416"
       x="-2285.9106"
       height="810"
       width="68"
       id="rect829"
       style="opacity:1;fill:none;fill-opacity:1;stroke:#000000;stroke-width:8;stroke-linejoin:round;stroke-miterlimit:4;stroke-dasharray:none;stroke-opacity:1" />
    <rect
       style="opacity:1;fill:none;fill-opacity:1;stroke:#000000;stroke-width:8;stroke-linejoin:round;stroke-miterlimit:4;stroke-dasharray:none;stroke-opacity:1"
       id="rect853"
       width="68"
       height="810"
       x="-3737.6418"
       y="-2656.9106"
       rx="34"
       ry="34"
       transform="matrix(-0.70710678,0.70710678,0.70710678,0.70710678,0,0)" />
    <rect
       style="opacity:1;fill:#e20a16;fill-opacity:1;stroke:none;stroke-width:8.3626976;stroke-linejoin:round;stroke-miterlimit:4;stroke-dasharray:none;stroke-opacity:1"
       id="rect855"
       width="68"
       height="810"
       x="-2285.9106"
       y="-4108.6416"
       rx="34"
       ry="34"
       transform="rotate(45)" />
    <rect
       transform="matrix(-0.70710678,0.70710678,0.70710678,0.70710678,0,0)"
       ry="34"
       rx="34"
       y="-2656.9106"
       x="-3737.6418"
       height="810"
       width="68"
       id="rect857"
       style="opacity:1;fill:#e20a16;fill-opacity:1;stroke:none;stroke-width:8.3626976;stroke-linejoin:round;stroke-miterlimit:4;stroke-dasharray:none;stroke-opacity:1" />
  </g>
</svg>
