<?xml version="1.0" encoding="UTF-8" standalone="no"?>
<svg xmlns="http://www.w3.org/2000/svg" width="900" height="1575" viewBox="0 0 238.12499 416.71876">
  <g transform="translate(0 119.71877)">
    <path fill="#b3b3b3" d="M238.125-.6562575c0-42.5369305-22.69318-81.8426805-59.53125-103.1111525-36.83807-21.26847-82.224437-21.26847-119.062503 0C22.693179-82.498938-.00000432-43.193188 0-.6562475V297h238.125z"/>
    <rect width="238.12502" height="178.59373" x="-238.12502" y="118.40623" fill="#e20a16" rx="21.166666" ry="21.166664" transform="scale(-1 1)"/>
    <rect width="216.95833" height="157.42706" x="-227.54163" y="128.98959" rx="10.583333" ry="10.583332" transform="scale(-1 1)"/>
    <circle cx="170.65625" cy="228.8698" r="38.364582" fill="#ffd70a"/>
    <path fill="#ffd70a" d="m96.2771768 260.91790273-12.28290458-4.72998155-7.1568649 11.04635673.70285215-13.143381-12.71730192-3.39306385 12.71729524-3.3930858-.7028588-13.14338013 7.15686502 11.04634414 12.28290804-4.72999238-8.2941111 10.22009375zm-33.07294-59.53128-12.28290458-4.72998155-7.1568649 11.04635673.70285215-13.143381-12.71730192-3.39306385 12.71729524-3.3930858-.7028588-13.14338013 7.15686502 11.04634414 12.28290804-4.72999238-8.2941111 10.22009375zm72.76042-26.45833-12.28290458-4.72998155-7.1568649 11.04635673.70285215-13.143381-12.71730192-3.39306385 12.71729524-3.3930858-.7028588-13.14338013 7.15686502 11.04634414 12.28290804-4.72999238-8.2941111 10.22009375z"/>
    <circle cx="119.0625" cy="-.65627211" r="119.0625" fill="#e20a16"/>
    <circle cx="119.0625" cy="-.65627211" r="99.21875" fill="#ffd70a"/>
    <rect width="48.947918" height="86.254166" x="149.48959" y="-43.783363" rx="24.473963" ry="24.473959"/>
    <rect width="20.055418" height="57.361668" x="163.93585" y="-29.337212" fill="#ffd70a" rx="10.027707" ry="10.027709"/>
    <path d="m41.010454-33.979813 11.769936-8.82468h12.243329v84.29625H50.321194v-67.134l-9.31074 7.35071v-15.68828"/>
    <rect width="48.947918" height="86.254166" x="84.666672" y="-43.783363" rx="24.473963" ry="24.473959"/>
    <rect width="20.055418" height="57.361668" x="99.112946" y="-29.337212" fill="#ffd70a" rx="10.027707" ry="10.027709"/>
  </g>
</svg>