<?xml version="1.0" encoding="UTF-8" standalone="no"?>
<!-- Created with Inkscape (http://www.inkscape.org/) -->

<svg
   xmlns:dc="http://purl.org/dc/elements/1.1/"
   xmlns:cc="http://creativecommons.org/ns#"
   xmlns:rdf="http://www.w3.org/1999/02/22-rdf-syntax-ns#"
   xmlns:svg="http://www.w3.org/2000/svg"
   xmlns="http://www.w3.org/2000/svg"
   xmlns:sodipodi="http://sodipodi.sourceforge.net/DTD/sodipodi-0.dtd"
   xmlns:inkscape="http://www.inkscape.org/namespaces/inkscape"
   width="600"
   height="800"
   viewBox="0 0 600.00001 800.00005"
   id="svg2"
   version="1.1"
   inkscape:version="0.91 r13725"
   sodipodi:docname="44.svg">
  <defs
     id="defs4">
    <pattern
       y="0"
       x="0"
       height="6"
       width="6"
       patternUnits="userSpaceOnUse"
       id="EMFhbasepattern" />
    <pattern
       y="0"
       x="0"
       height="6"
       width="6"
       patternUnits="userSpaceOnUse"
       id="EMFhbasepattern-6" />
    <pattern
       y="0"
       x="0"
       height="6"
       width="6"
       patternUnits="userSpaceOnUse"
       id="EMFhbasepattern-3" />
    <pattern
       y="0"
       x="0"
       height="6"
       width="6"
       patternUnits="userSpaceOnUse"
       id="EMFhbasepattern-0" />
    <pattern
       y="0"
       x="0"
       height="6"
       width="6"
       patternUnits="userSpaceOnUse"
       id="EMFhbasepattern-2" />
    <pattern
       y="0"
       x="0"
       height="6"
       width="6"
       patternUnits="userSpaceOnUse"
       id="EMFhbasepattern-65" />
  </defs>
  <sodipodi:namedview
     id="base"
     pagecolor="#ffffff"
     bordercolor="#666666"
     borderopacity="1.0"
     inkscape:pageopacity="0.0"
     inkscape:pageshadow="2"
     inkscape:zoom="0.5"
     inkscape:cx="520.97821"
     inkscape:cy="301.25066"
     inkscape:document-units="px"
     inkscape:current-layer="layer1"
     showgrid="false"
     fit-margin-top="0"
     fit-margin-left="0"
     fit-margin-right="0"
     fit-margin-bottom="0"
     units="px"
     inkscape:window-width="1920"
     inkscape:window-height="1057"
     inkscape:window-x="-8"
     inkscape:window-y="-8"
     inkscape:window-maximized="1"
     showguides="false" />
  <metadata
     id="metadata7">
    <rdf:RDF>
      <cc:Work
         rdf:about="">
        <dc:format>image/svg+xml</dc:format>
        <dc:type
           rdf:resource="http://purl.org/dc/dcmitype/StillImage" />
        <dc:title></dc:title>
      </cc:Work>
    </rdf:RDF>
  </metadata>
  <g
     inkscape:label="Layer 1"
     inkscape:groupmode="layer"
     id="layer1"
     transform="translate(-465.00007,2576.4814)">
    <rect
       style="opacity:1;fill:#ffd70a;fill-opacity:1;stroke:none;stroke-width:2.4000001;stroke-linejoin:miter;stroke-miterlimit:4;stroke-dasharray:none;stroke-dashoffset:0;stroke-opacity:1"
       id="rect4182"
       width="600"
       height="800"
       x="465.00006"
       y="-2576.4812" />
    <rect
       y="-2576.4812"
       x="465.00006"
       height="800"
       width="600"
       id="rect4184"
       style="opacity:1;fill:#000000;fill-opacity:1;stroke:none;stroke-width:2.4000001;stroke-linejoin:miter;stroke-miterlimit:4;stroke-dasharray:none;stroke-dashoffset:0;stroke-opacity:1"
       rx="106.4"
       ry="106.4" />
    <rect
       ry="80"
       rx="80"
       style="opacity:1;fill:#ffd70a;fill-opacity:1;stroke:none;stroke-width:2.4000001;stroke-linejoin:miter;stroke-miterlimit:4;stroke-dasharray:none;stroke-dashoffset:0;stroke-opacity:1"
       id="rect4195"
       width="547.20007"
       height="747.20007"
       x="491.40002"
       y="-2550.0811" />
    <path
       style="fill:#000000;fill-opacity:1;fill-rule:nonzero;stroke:none"
       d="m 645.80004,-2150.0813 140.78914,0 c 98.64029,1.9085 129.65479,131.8318 41.58789,177.1367 l 56.82294,122.0634 -64.0099,0 -52.81006,-111.7001 -61.58001,0 0,111.7001 -60.8,0 z"
       id="path6490"
       inkscape:connector-curvature="0"
       sodipodi:nodetypes="cccccccccc" />
    <path
       style="opacity:1;fill:#ffd70a;fill-opacity:1;stroke:none;stroke-width:25;stroke-linejoin:miter;stroke-miterlimit:4;stroke-dasharray:none;stroke-dashoffset:0;stroke-opacity:1"
       d="m 706.60004,-2023.2813 79.65002,0 c 18.3651,0 33.15,-14.7626 33.15,-33.1 0,-18.3374 -14.7849,-33.1 -33.15,-33.1 l -79.65002,0 z"
       id="rect13342"
       inkscape:connector-curvature="0"
       sodipodi:nodetypes="cssscc" />
    <path
       inkscape:connector-curvature="0"
       id="path13376"
       style="fill:#000000;fill-opacity:1;fill-rule:nonzero;stroke:none"
       d="m 699.09807,-2436.0481 10.7607,0 c 10.39811,-17.5947 34.89531,-24.1138 53.25701,-14.5495 17.6849,-45.1823 -55.62641,-72.6346 -64.01771,-23.1438 l 17.75351,0 1.0827,0.5414 2.6835,1.0827 2.1438,2.143 1.6241,2.7068 -0.5413,3.2258 -1.6061,2.6843 -2.1655,1.6241 -3.2248,0.5197 -12.36141,0 -2.7069,0.5414 -1.6061,2.1655 -1.0827,2.143 0,18.3165" />
    <path
       inkscape:connector-curvature="0"
       id="path13378"
       style="fill:#000000;fill-opacity:1;fill-rule:evenodd;stroke:none"
       d="m 800.22349,-2367.6543 20.4586,-33.9262 c -101.71011,-69.8601 -86.77721,-49.5133 -150.63792,55.9873 l 1.0828,0.5413 5.3921,1.0828 5.91,0 5.3687,-1.0828 5.3686,-2.6843 4.331,-3.767 3.7445,-4.3085 31.21941,-52.7841 67.76221,40.9415" />
    <path
       inkscape:connector-curvature="0"
       id="path13380"
       style="fill:#000000;fill-opacity:1;fill-rule:evenodd;stroke:none"
       d="m 807.21619,-2291.7263 c 9.5192,8.6845 8.1207,26.3244 -2.6852,33.3848 l -69.38631,-72.1609 -2.6834,-3.7671 -1.6242,-4.3084 -0.5413,-4.8498 0.5413,-4.8498 2.1421,-4.3085 3.2266,-3.7671 4.3075,-2.7068 4.8508,-1.6025 63.47631,0 20.9783,-35.5278 c 16.308,9.8801 48.9945,21.4294 39.2714,47.3704 l -2.6834,5.3912 -3.2483,4.3084 -4.8273,3.7671 -5.3921,2.1655 -5.3686,1.0611 -79.08601,0 38.73181,40.4002" />
    <path
       inkscape:connector-curvature="0"
       id="path13382"
       style="fill:#000000;fill-opacity:1;fill-rule:evenodd;stroke:none"
       d="m 832.50209,-2224.4153 c 59.64161,67.7848 154.51772,-19.3993 91.98881,-85.0862 -26.4138,-23.4822 -66.83651,-21.452 -89.82331,5.3686 -11.4357,12.0457 -13.3756,24.5199 -16.1511,39.8588 l -2.142,4.8499 -3.768,4.3084 -4.3075,3.2257 -4.8507,1.6241 -5.36871,0.5198 -86.59661,-89.3722 -53.8002,0 0,-7.5341 27.9711,-45.7688 0.5414,-2.1655 -0.5414,-2.6844 -2.1655,-1.0827 -2.142,-0.5414 -1.6061,0.5414 -46.8056,37.6933 -23.14381,0 -1.6061,9.1583 -0.5413,9.6996 0.5413,9.1357 1.6061,7.5567 8.6169,-4.8498 9.1348,-3.2257 5.39211,-1.6241 0,11.3012 c -124.85572,54.7917 27.9711,200.7377 77.4619,73.7625 l 9.13481,0 -2.142,7.5567 -3.24831,9.1582 -4.8273,8.6169 123.18472,0" />
    <path
       inkscape:connector-curvature="0"
       id="path13384"
       style="fill:#ffd70a;fill-opacity:1;fill-rule:nonzero;stroke:none"
       d="m 659.28527,-2270.1841 11.8417,-25.3093 c 36.4075,25.1514 9.9703,81.7477 -32.2786,70.5368 -49.76151,-14.8653 -31.35471,-86.3946 19.3541,-76.4694 l -12.9027,26.3921 -3.768,1.6025 -2.6834,3.2482 -2.1439,3.2257 -0.5414,4.3085 1.0647,3.767 1.6242,3.7671 3.2248,2.6843 c 11.663,7.5567 25.0837,-6.5867 17.2121,-17.7526" />
    <path
       inkscape:connector-curvature="0"
       id="path13386"
       style="fill:#ffd70a;fill-opacity:1;fill-rule:evenodd;stroke:none"
       d="m 866.94799,-2299.2605 c 14.6388,-7.7371 37.33151,-0.9474 46.78391,12.9028 12.2712,16.512 9.4055,38.9114 -5.3686,52.7842 -40.22061,33.1367 -89.55261,-21.249 -53.25881,-58.1528 l 15.0683,24.2265 -0.5413,4.3085 0.5413,3.7671 1.6061,3.767 c 6.1573,6.9703 10.6471,6.4514 18.29311,2.6844 l 2.6852,-3.2257 1.6241,-3.7671 0,-4.3085 -1.0827,-3.767 -2.1438,-3.2257 -3.2483,-2.7069 -3.7445,-1.0593 -2.16551,-0.5414 -15.0449,-23.6852" />
  </g>
</svg>
