<?xml version="1.0" encoding="UTF-8" standalone="no"?>
<!-- Created with Inkscape (http://www.inkscape.org/) -->

<svg
   width="900"
   height="675"
   viewBox="0 0 238.12499 178.59378"
   version="1.1"
   id="svg8"
   inkscape:version="1.4.2 (f4327f4, 2025-05-13)"
   sodipodi:docname="SADC_road_sign_TR562.svg"
   xmlns:inkscape="http://www.inkscape.org/namespaces/inkscape"
   xmlns:sodipodi="http://sodipodi.sourceforge.net/DTD/sodipodi-0.dtd"
   xmlns="http://www.w3.org/2000/svg"
   xmlns:svg="http://www.w3.org/2000/svg"
   xmlns:rdf="http://www.w3.org/1999/02/22-rdf-syntax-ns#"
   xmlns:cc="http://creativecommons.org/ns#"
   xmlns:dc="http://purl.org/dc/elements/1.1/">
  <defs
     id="defs2" />
  <sodipodi:namedview
     id="base"
     pagecolor="#ffffff"
     bordercolor="#666666"
     borderopacity="1.0"
     inkscape:pageopacity="0.0"
     inkscape:pageshadow="2"
     inkscape:zoom="0.39127903"
     inkscape:cx="500.9213"
     inkscape:cy="414.02679"
     inkscape:document-units="px"
     inkscape:current-layer="layer1"
     showgrid="false"
     units="px"
     inkscape:snap-global="false"
     inkscape:window-width="1920"
     inkscape:window-height="991"
     inkscape:window-x="-9"
     inkscape:window-y="-9"
     inkscape:window-maximized="1"
     fit-margin-top="0"
     fit-margin-left="0"
     fit-margin-right="0"
     fit-margin-bottom="0"
     showguides="false"
     inkscape:showpageshadow="2"
     inkscape:pagecheckerboard="0"
     inkscape:deskcolor="#d1d1d1" />
  <metadata
     id="metadata5">
    <rdf:RDF>
      <cc:Work
         rdf:about="">
        <dc:format>image/svg+xml</dc:format>
        <dc:type
           rdf:resource="http://purl.org/dc/dcmitype/StillImage" />
        <dc:title />
      </cc:Work>
    </rdf:RDF>
  </metadata>
  <g
     inkscape:label="Layer 1"
     inkscape:groupmode="layer"
     id="layer1"
     transform="translate(136.52585,860.27673)">
    <rect
       style="opacity:1;fill:#ffd70a;fill-opacity:1;stroke:none;stroke-width:8.77885628;stroke-linejoin:round;stroke-miterlimit:4;stroke-dasharray:none;stroke-opacity:1"
       id="rect4485"
       width="238.125"
       height="178.59375"
       x="-136.52585"
       y="-860.27673" />
    <rect
       y="-860.27673"
       x="-136.52585"
       height="178.59375"
       width="238.125"
       id="rect4487"
       style="opacity:1;fill:#e20a16;fill-opacity:1;stroke:none;stroke-width:8.77885628;stroke-linejoin:round;stroke-miterlimit:4;stroke-dasharray:none;stroke-opacity:1"
       rx="21.166666"
       ry="21.166666" />
    <rect
       ry="10.583333"
       rx="10.583333"
       style="opacity:1;fill:#ffd70a;fill-opacity:1;stroke:none;stroke-width:7.86738062;stroke-linejoin:round;stroke-miterlimit:4;stroke-dasharray:none;stroke-opacity:1"
       id="rect4489"
       width="216.95833"
       height="157.42708"
       x="-125.94253"
       y="-849.69336" />
    <path
       id="path235"
       style="fill:#000000;fill-opacity:1;fill-rule:evenodd;stroke-width:0.43198;stroke-linecap:round;stroke-linejoin:round;stroke-miterlimit:5.6;stroke-dasharray:0.43198, 3.45586;paint-order:stroke fill markers"
       d="m -32.750259,-830.51111 c -6.03669,0 -10.9266,4.7361 -11.17181,10.7104 h 7.50883 c 1.41276,0 2.55013,1.1374 2.55013,2.5502 0,1.4127 -1.13737,2.5501 -2.55013,2.5501 h -5.28705 c -1.23628,0 -2.23161,0.9953 -2.23161,2.2316 v 1.5218 5.8599 h 2.2303 2.3096 c 3.22836,-5.0843 8.86921,-7.8483 14.55495,-7.5953 2.26221,0.1007 4.54138,0.6782 6.66338,1.7511 0.74614,-1.7299 1.16072,-3.646 1.1607,-5.6625 0,-6.808 -6.80503,-13.9172 -15.04236,-13.9173 z m 7.71987,22.1778 c -4.2643,-0.1897 -8.48414,1.9071 -10.84543,5.8369 l -1.5926,2.6504 -18.10324,30.2097 c 4.42521,2.248 9.88977,0.7685 12.50946,-3.4473 l 7.45116,-11.9924 5.37291,-8.9429 26.8199569,16.1155 8.49585,-14.0287 -24.4356469,-14.6827 c -1.78629,-1.0733 -3.7341,-1.6322 -5.67242,-1.7185 z m -25.3971,17.2074 c -0.41125,0 -0.80953,0.1443 -1.13187,0.3997 l -18.5725,14.7353 h -8.68461 c -0.86544,0 -1.56246,3.2611 -1.56246,7.3115 0,4.0504 0.69702,7.3109 1.56246,7.3109 0,0 2.72719,-1.4787 4.14012,-2.1156 1.25532,-0.5659 3.24595,-1.3494 4.45601,-1.4747 v 3.8852 c -11.07084,2.927 -18.78233,12.9425 -18.78223,24.39369 1.9e-4,13.93477 11.29651,25.23111 25.23129,25.23132 11.81044,3e-5 22.04068,-8.1925 24.62178,-19.71745 h 3.13998 c -0.73305,3.69017 -2.18728,7.12537 -4.20827,10.15202 h 29.265227 20.0176429 c 4.7857171,6.04207 12.0706681,9.56526 19.7784551,9.56543 13.935034,1.5e-4 25.23177,-11.29628 25.23194,-25.23132 1.27e-4,-13.93529 -11.296694,-25.23209 -25.23194,-25.23189 -13.431169,2e-4 -24.5079581,10.5221 -25.1978951,23.93555 -0.322694,0.92937 -0.717811,1.88512 -1.139722,2.49641 -0.91477,1.32528 -2.185239,2.48393 -3.637432,3.17991 -0.992297,0.47562 -2.468208,0.72473 -3.250738,0.57611 l -34.3274779,-35.67228 h -21.13772 v -2.3555 l 11.02763,-18.5817 c 0.62706,-1.0579 0.066,-2.4219 -1.12399,-2.7323 -0.15786,-0.041 -0.3205,-0.062 -0.48368,-0.06 z m 58.6589199,1.1292 -8.37919,14.1112 H -24.532949 c -4.03059,0 -7.27484,3.245 -7.27484,7.2756 0,1.9754 0.77951,3.7622 2.04875,5.0707 l 28.1123979,28.99589 c 0.200242,-0.15736 0.393969,-0.32288 0.58068,-0.4961 3.774469,-3.5073 3.990742,-9.41049 0.483012,-13.18459 l -14.6453899,-15.7615 H 13.87894 v -0.024 c 3.855129,0.2612 7.53055,-1.6639 9.511057,-4.9816 2.906622,-4.8695 1.315301,-11.1733 -3.554198,-14.0799 z m -72.0027099,37.7106 c 1.15088,0 2.29824,0.1273 3.42114,0.3795 l -5.0452,10.0799 c -2.24547,0.70875 -3.77224,2.79149 -3.77244,5.14616 -1.2e-4,2.98058 2.41595,5.39691 5.3965,5.39711 2.98081,1.6e-4 5.39728,-2.41631 5.39715,-5.39711 -1.4e-4,-1.1002 -0.33652,-2.17403 -0.96408,-3.07769 l 4.76798,-9.52677 c 4.02513,2.938 6.40509,7.6217 6.40515,12.60509 3e-5,8.61907 -6.98712,15.60624 -15.6062,15.60624 -8.61908,0 -15.60623,-6.98717 -15.6062,-15.60624 2e-5,-8.61909 6.98715,-15.60619 15.6062,-15.60619 z m 92.614815,0 c 8.61902,0 15.606161,6.9871 15.606204,15.60619 0,8.61907 -6.987141,15.60624 -15.606204,15.60624 -8.619109,0 -15.606245,-6.98717 -15.606216,-15.60624 1.11e-4,-4.1727 1.671238,-8.17159 4.640168,-11.10359 l 5.859211,9.3583 c -0.19184,0.56166 -0.289709,1.15114 -0.289692,1.74466 -1.19e-4,2.98058 2.41597,5.39691 5.396529,5.39711 2.980773,1.6e-4 5.397274,-2.41631 5.397146,-5.39711 -1.7e-4,-2.94557 -2.362157,-5.34696 -5.307381,-5.39586 l -5.731401,-9.1545 c 1.799141,-0.6975 3.712016,-1.0552 5.641636,-1.0552 z"
       sodipodi:nodetypes="scsssssccccccccsccccccccccccccssccccccccccccccccscccccccccsscccccccccccccccccccssccsscccccsccc" />
  </g>
</svg>
