<?xml version="1.0" encoding="UTF-8" standalone="no"?>
<!-- Created with Inkscape (http://www.inkscape.org/) -->

<svg
   xmlns:dc="http://purl.org/dc/elements/1.1/"
   xmlns:cc="http://creativecommons.org/ns#"
   xmlns:rdf="http://www.w3.org/1999/02/22-rdf-syntax-ns#"
   xmlns:svg="http://www.w3.org/2000/svg"
   xmlns="http://www.w3.org/2000/svg"
   xmlns:sodipodi="http://sodipodi.sourceforge.net/DTD/sodipodi-0.dtd"
   xmlns:inkscape="http://www.inkscape.org/namespaces/inkscape"
   width="864.20001"
   height="755.22601"
   viewBox="0 0 228.65291 199.82022"
   version="1.1"
   id="svg4490"
   inkscape:version="0.92.2 (5c3e80d, 2017-08-06)"
   sodipodi:docname="11 SADC.svg">
  <defs
     id="defs4484" />
  <sodipodi:namedview
     id="base"
     pagecolor="#ffffff"
     bordercolor="#666666"
     borderopacity="1.0"
     inkscape:pageopacity="0.0"
     inkscape:pageshadow="2"
     inkscape:zoom="0.49497475"
     inkscape:cx="191.37756"
     inkscape:cy="403.53298"
     inkscape:document-units="px"
     inkscape:current-layer="layer1"
     showgrid="false"
     units="px"
     inkscape:window-width="1920"
     inkscape:window-height="1057"
     inkscape:window-x="-8"
     inkscape:window-y="-8"
     inkscape:window-maximized="1" />
  <metadata
     id="metadata4487">
    <rdf:RDF>
      <cc:Work
         rdf:about="">
        <dc:format>image/svg+xml</dc:format>
        <dc:type
           rdf:resource="http://purl.org/dc/dcmitype/StillImage" />
        <dc:title></dc:title>
      </cc:Work>
    </rdf:RDF>
  </metadata>
  <g
     inkscape:label="Layer 1"
     inkscape:groupmode="layer"
     id="layer1"
     transform="translate(0,-97.179783)">
    <path
       sodipodi:nodetypes="cccc"
       inkscape:connector-curvature="0"
       id="path4488"
       d="M 6.7199328,290.27958 114.32645,103.8995 221.93303,290.27956 Z"
       style="fill:#e20a16;fill-opacity:1;stroke:#e20a16;stroke-width:13.22916698;stroke-linejoin:round;stroke-miterlimit:4;stroke-dasharray:none;stroke-opacity:1" />
    <path
       style="fill:#ffd70a;fill-opacity:1;stroke:none;stroke-width:13.22916603;stroke-linejoin:round;stroke-miterlimit:4;stroke-dasharray:none;stroke-opacity:1"
       d="M 114.32653,130.35788 29.633631,277.05029 199.01937,277.0504 Z"
       id="rect5050"
       inkscape:connector-curvature="0"
       sodipodi:nodetypes="cccc" />
    <path
       d="m 120.65753,189.7458 c 0,-3.40994 -2.95878,-6.37693 -6.37694,-6.37693 -3.54372,0 -6.28502,3.03385 -6.28502,6.47722 0,3.36816 3.03388,6.27664 6.38523,6.27664 3.48521,0 6.27673,-2.95027 6.27673,-6.37693 z"
       style="fill:#000000;fill-opacity:1;fill-rule:nonzero;stroke:none;stroke-width:1.13664818;stroke-linecap:butt;stroke-linejoin:miter;stroke-miterlimit:3.86400008;stroke-dasharray:none;stroke-opacity:1"
       id="path6278"
       inkscape:connector-curvature="0" />
    <path
       d="m 95.041009,175.09474 4.2791,20.23401 c 0.23691,1.22021 1.329071,2.45717 2.499181,2.89177 0.41696,0.15044 0.94527,0.16726 1.3954,0.30087 h 39.47347 c 0.85288,-0.008 1.89766,0.11704 2.69108,0.39285 1.72945,0.60176 4.04526,2.69953 4.5885,4.48809 l -21.52956,1.19514 c -0.33405,0.0332 -0.87658,0.0251 -1.20351,0.10022 -2.18196,0.51819 -3.50179,2.72461 -3.48521,4.8809 l 0.0948,11.85959 h -19.03868 l 0.0948,-8.86753 c -0.0237,-1.97234 -1.01872,-4.44623 -2.69108,-5.58288 -1.84791,-1.50438 -8.115401,-5.39908 -8.675461,-8.56665 l -2.59086,-14.95196 c -0.0237,-0.42625 -0.0948,-0.87756 -0.0948,-1.30379 0,-3.35144 1.5802,-5.17342 4.18717,-7.07063 z"
       style="fill:#000000;fill-opacity:1;fill-rule:nonzero;stroke:none;stroke-width:1.13664818;stroke-linecap:butt;stroke-linejoin:miter;stroke-miterlimit:3.86400008;stroke-dasharray:none;stroke-opacity:1"
       id="path6280"
       inkscape:connector-curvature="0" />
    <path
       d="m 112.3834,234.69355 c 0.0237,-0.84412 1.07795,-1.69662 1.89766,-1.69662 l 0.69415,0.10022 c 0.21322,0.0836 0.99503,0.7104 1.09453,0.89426 l 0.21322,0.70204 5.08152,29.10154 c 0.73442,3.03385 2.91685,5.28208 6.17628,5.28208 0.56858,0 1.23667,-0.0751 1.79815,-0.20067 l -5.4826,-45.04787 H 104.8174 l -5.491131,45.04805 c 0.55911,0.12532 1.229571,0.20066 1.798151,0.20066 3.30966,0 5.43262,-2.20643 6.18481,-5.28207 z"
       style="fill:#000000;fill-opacity:1;fill-rule:nonzero;stroke:none;stroke-width:1.13664818;stroke-linecap:butt;stroke-linejoin:miter;stroke-miterlimit:3.86400008;stroke-dasharray:none;stroke-opacity:1"
       id="path6282"
       inkscape:connector-curvature="0" />
  </g>
</svg>
