<?xml version="1.0" encoding="UTF-8" standalone="no"?>
<!-- Created with Inkscape (http://www.inkscape.org/) -->

<svg
   xmlns:dc="http://purl.org/dc/elements/1.1/"
   xmlns:cc="http://creativecommons.org/ns#"
   xmlns:rdf="http://www.w3.org/1999/02/22-rdf-syntax-ns#"
   xmlns:svg="http://www.w3.org/2000/svg"
   xmlns="http://www.w3.org/2000/svg"
   xmlns:sodipodi="http://sodipodi.sourceforge.net/DTD/sodipodi-0.dtd"
   xmlns:inkscape="http://www.inkscape.org/namespaces/inkscape"
   width="864.20001"
   height="755.22601"
   viewBox="0 0 228.65291 199.82022"
   version="1.1"
   id="svg4490"
   inkscape:version="0.92.2 (5c3e80d, 2017-08-06)"
   sodipodi:docname="11 SADC.svg">
  <defs
     id="defs4484" />
  <sodipodi:namedview
     id="base"
     pagecolor="#ffffff"
     bordercolor="#666666"
     borderopacity="1.0"
     inkscape:pageopacity="0.0"
     inkscape:pageshadow="2"
     inkscape:zoom="0.49497475"
     inkscape:cx="55.796356"
     inkscape:cy="122.90135"
     inkscape:document-units="px"
     inkscape:current-layer="layer1"
     showgrid="false"
     units="px"
     inkscape:window-width="1920"
     inkscape:window-height="1057"
     inkscape:window-x="-8"
     inkscape:window-y="-8"
     inkscape:window-maximized="1"
     fit-margin-top="0"
     fit-margin-left="0"
     fit-margin-right="0"
     fit-margin-bottom="0" />
  <metadata
     id="metadata4487">
    <rdf:RDF>
      <cc:Work
         rdf:about="">
        <dc:format>image/svg+xml</dc:format>
        <dc:type
           rdf:resource="http://purl.org/dc/dcmitype/StillImage" />
        <dc:title></dc:title>
      </cc:Work>
    </rdf:RDF>
  </metadata>
  <g
     inkscape:label="Layer 1"
     inkscape:groupmode="layer"
     id="layer1"
     transform="translate(-130.42207,-54.218585)">
    <path
       sodipodi:nodetypes="cccc"
       inkscape:connector-curvature="0"
       id="path4488"
       d="M 137.142,247.31837 244.74851,60.938295 352.35509,247.31835 Z"
       style="fill:#e20a16;fill-opacity:1;stroke:#e20a16;stroke-width:13.22916698;stroke-linejoin:round;stroke-miterlimit:4;stroke-dasharray:none;stroke-opacity:1" />
    <path
       style="fill:#ffd70a;fill-opacity:1;stroke:none;stroke-width:13.22916603;stroke-linejoin:round;stroke-miterlimit:4;stroke-dasharray:none;stroke-opacity:1"
       d="m 244.74859,87.396675 -84.69289,146.692405 169.38573,1.1e-4 z"
       id="rect5050"
       inkscape:connector-curvature="0"
       sodipodi:nodetypes="cccc" />
    <path
       d="m 271.61452,174.49031 h -21.13679 l -5.58306,-7.17092 -3.8863,-14.35857 c -1.17035,-4.31258 -4.2457,-5.0982 -8.28244,-4.9812 h -13.85719 c -0.30088,-0.0502 -0.66809,0.0167 -0.96186,0.10022 -1.39541,0.3761 -2.65792,1.00292 -3.4184,2.29001 l -8.97611,13.0632 c -0.18953,0.30921 -0.59465,1.22023 -0.59465,1.58797 0,0.28415 0.21322,1.68825 0.49277,1.7969 l 4.38785,7.67239 h -0.80313 c -0.30088,-0.008 -0.87658,0.18384 -1.09454,0.40116 -0.21322,0.20896 -0.44302,0.90263 -0.49277,1.19515 0.0474,0.25906 0.31746,0.911 0.49277,1.09486 0.21322,0.21725 0.79366,0.40117 1.09454,0.40117 h 59.52382 z"
       style="fill:#000000;fill-opacity:1;fill-rule:evenodd;stroke:none;stroke-width:0.6936906;stroke-linecap:butt;stroke-linejoin:miter;stroke-miterlimit:3.86400008;stroke-dasharray:none;stroke-opacity:1"
       id="path6244"
       inkscape:connector-curvature="0" />
    <path
       d="m 234.02966,138.10916 c 0,-4.53824 -3.62711,-7.17092 -7.88134,-7.17092 -0.18952,0 -1.45463,0.35103 -1.69628,0.43459 -2.95027,0.98622 -4.78065,3.6189 -4.78065,6.73632 0,4.56332 3.61883,7.17928 7.87306,7.17928 3.43497,0 6.48544,-3.96155 6.48544,-7.17927 z"
       style="fill:#000000;fill-opacity:1;fill-rule:nonzero;stroke:none;stroke-width:0.6936906;stroke-linecap:butt;stroke-linejoin:miter;stroke-miterlimit:3.86400008;stroke-dasharray:none;stroke-opacity:1"
       id="path6254"
       inkscape:connector-curvature="0" />
    <path
       d="m 210.30225,165.82335 4.98107,8.66696 h 2.49065 l -1.88819,-16.64022 z"
       style="fill:#ffd70a;fill-opacity:1;fill-rule:nonzero;stroke:none;stroke-width:1.13664985;stroke-linecap:butt;stroke-linejoin:miter;stroke-miterlimit:3.86400008;stroke-dasharray:none;stroke-opacity:1"
       id="path6262"
       inkscape:connector-curvature="0" />
    <path
       d="m 240.60727,169.10793 3.8863,5.38238 h -8.27414 V 162.1376 l 0.0948,-0.30088 0.30087,-0.30088 h 0.39328 l 0.40986,0.39283 z"
       style="fill:#ffd70a;fill-opacity:1;fill-rule:nonzero;stroke:none;stroke-width:1.13664985;stroke-linecap:butt;stroke-linejoin:miter;stroke-miterlimit:3.86400008;stroke-dasharray:none;stroke-opacity:1"
       id="path6264"
       inkscape:connector-curvature="0" />
    <path
       d="m 213.687,226.11594 c 4.15378,0.20895 7.32982,-2.23988 7.9818,-6.37694 l 3.38476,-28.70877 c 0.0237,-0.35103 0.30087,-0.79398 0.60175,-0.99455 l 0.32694,-0.13362 0.76759,-0.0668 c 0.50226,0.19213 0.85999,0.68534 0.99503,1.19515 l 2.59111,28.60847 c 0.11845,3.86963 4.09524,6.6611 7.78088,6.47723 l -3.19262,-45.84225 h -17.94393 z"
       style="fill:#000000;fill-opacity:1;fill-rule:nonzero;stroke:none;stroke-width:0.6936906;stroke-linecap:butt;stroke-linejoin:miter;stroke-miterlimit:3.86400008;stroke-dasharray:none;stroke-opacity:1"
       id="path6266"
       inkscape:connector-curvature="0" />
    <path
       inkscape:connector-curvature="0"
       id="path835"
       d="m 271.64422,174.45925 15.12395,1e-5 10.69427,10.69426 v 15.12395 l -10.69428,10.69428 -15.12394,-10e-6 -10.69427,-10.69427 -10e-6,-15.12394 z"
       style="fill:#e20a16;fill-opacity:1;stroke:none;stroke-width:0.06638633"
       sodipodi:nodetypes="ccccccccc" />
    <path
       d="m 270.93573,189.8079 h -1.96408 v -0.44288 q 0,-0.67395 -0.32734,-1.15535 -0.3081,-0.50065 -1.05907,-0.50065 -0.40437,0 -0.67395,0.15405 -0.25032,0.15404 -0.40437,0.40437 -0.13479,0.23107 -0.19255,0.55842 -0.0578,0.30809 -0.0578,0.65469 0,0.40437 0.0192,0.69321 0.0385,0.26958 0.15405,0.48139 0.11553,0.19256 0.32735,0.3466 0.23106,0.15405 0.61618,0.30809 l 1.50194,0.59693 q 0.6547,0.25032 1.05907,0.59693 0.40437,0.32734 0.61618,0.78948 0.23107,0.44288 0.30809,1.03981 0.077,0.57767 0.077,1.32864 0,0.86651 -0.1733,1.61748 -0.1733,0.73172 -0.57767,1.27088 -0.38511,0.51991 -1.03981,0.828 -0.65469,0.30808 -1.59822,0.30808 -0.71246,0 -1.32864,-0.25032 -0.61619,-0.25032 -1.05907,-0.67395 -0.44288,-0.44288 -0.71246,-1.0398 -0.25032,-0.59693 -0.25032,-1.29014 v -0.73171 h 1.96408 v 0.61617 q 0,0.53917 0.30809,0.98205 0.32735,0.42363 1.07832,0.42363 0.50065,0 0.77023,-0.1348 0.28883,-0.15405 0.42362,-0.40437 0.15405,-0.26957 0.19256,-0.65469 0.0385,-0.38512 0.0385,-0.84725 0,-0.53916 -0.0385,-0.88576 -0.0385,-0.34661 -0.1733,-0.55842 -0.11554,-0.21181 -0.3466,-0.3466 -0.21182,-0.13479 -0.57767,-0.28884 l -1.40567,-0.57767 q -1.27088,-0.5199 -1.71376,-1.36715 -0.42362,-0.86651 -0.42362,-2.15664 0,-0.77023 0.21181,-1.46344 0.21181,-0.6932 0.61618,-1.19385 0.42363,-0.50065 1.05906,-0.78948 0.63544,-0.3081 1.48269,-0.3081 0.73172,0 1.32865,0.26959 0.61618,0.26958 1.03981,0.71245 0.44288,0.44289 0.67395,1.0013 0.23106,0.53916 0.23106,1.11683 z"
       style="font-style:normal;font-variant:normal;font-weight:normal;font-stretch:normal;font-size:290.05523682px;line-height:1.25;font-family:'DIN 1451 Std';-inkscape-font-specification:'DIN 1451 Std';letter-spacing:5.6500001px;word-spacing:0px;fill:#ffffff;fill-opacity:1;stroke:none;stroke-width:0.10029012"
       id="path921"
       inkscape:connector-curvature="0" />
    <path
       d="m 274.06898,187.70902 h -2.27217 v -1.84854 h 6.50843 v 1.84854 h -2.27218 v 11.86152 h -1.96408 z"
       style="font-style:normal;font-variant:normal;font-weight:normal;font-stretch:normal;font-size:290.05523682px;line-height:1.25;font-family:'DIN 1451 Std';-inkscape-font-specification:'DIN 1451 Std';letter-spacing:5.6500001px;word-spacing:0px;fill:#ffffff;fill-opacity:1;stroke:none;stroke-width:0.10029012"
       id="path923"
       inkscape:connector-curvature="0" />
    <path
       d="m 279.20619,189.09544 q 0,-0.828 0.28883,-1.46344 0.28884,-0.63543 0.75098,-1.03981 0.48139,-0.42362 1.05906,-0.63543 0.59693,-0.21182 1.19385,-0.21182 0.59693,0 1.1746,0.21182 0.59693,0.21181 1.05906,0.63543 0.4814,0.40438 0.77023,1.03981 0.28884,0.63544 0.28884,1.46344 v 7.24014 q 0,0.84725 -0.28884,1.48269 -0.28883,0.61618 -0.77023,1.03981 -0.46213,0.40437 -1.05906,0.61618 -0.57767,0.21181 -1.1746,0.21181 -0.59692,0 -1.19385,-0.21181 -0.57767,-0.21181 -1.05906,-0.61618 -0.46214,-0.42363 -0.75098,-1.03981 -0.28883,-0.63544 -0.28883,-1.48269 z m 1.96408,7.24014 q 0,0.71246 0.38511,1.05906 0.40437,0.32736 0.94353,0.32736 0.53916,0 0.92428,-0.32736 0.40437,-0.3466 0.40437,-1.05906 v -7.24014 q 0,-0.71246 -0.40437,-1.03981 -0.38512,-0.34661 -0.92428,-0.34661 -0.53916,0 -0.94353,0.34661 -0.38511,0.32735 -0.38511,1.03981 z"
       style="font-style:normal;font-variant:normal;font-weight:normal;font-stretch:normal;font-size:290.05523682px;line-height:1.25;font-family:'DIN 1451 Std';-inkscape-font-specification:'DIN 1451 Std';letter-spacing:5.6500001px;word-spacing:0px;fill:#ffffff;fill-opacity:1;stroke:none;stroke-width:0.10029012"
       id="path925"
       inkscape:connector-curvature="0" />
    <path
       d="m 287.89563,185.86048 h 2.94612 q 0.80874,0 1.42492,0.21181 0.61618,0.21182 1.11683,0.75097 0.50065,0.53917 0.69321,1.27088 0.19256,0.71246 0.19256,1.94482 0,0.90502 -0.11554,1.55972 -0.0963,0.63543 -0.44288,1.19385 -0.40437,0.67395 -1.07832,1.05907 -0.67395,0.36585 -1.77152,0.36585 h -1.0013 v 5.35309 h -1.96408 z m 1.96408,6.50842 h 0.94353 q 0.59693,0 0.92427,-0.1733 0.32735,-0.1733 0.4814,-0.46213 0.15404,-0.30809 0.1733,-0.73172 0.0385,-0.42362 0.0385,-0.94353 0,-0.48139 -0.0385,-0.90501 -0.0192,-0.44289 -0.1733,-0.75098 -0.1348,-0.32735 -0.44289,-0.50065 -0.30809,-0.19256 -0.88576,-0.19256 h -1.02055 z"
       style="font-style:normal;font-variant:normal;font-weight:normal;font-stretch:normal;font-size:290.05523682px;line-height:1.25;font-family:'DIN 1451 Std';-inkscape-font-specification:'DIN 1451 Std';letter-spacing:5.6500001px;word-spacing:0px;fill:#ffffff;fill-opacity:1;stroke:none;stroke-width:0.10029012"
       id="path927"
       inkscape:connector-curvature="0" />
  </g>
</svg>
