<?xml version="1.0" encoding="UTF-8" standalone="no"?>
<!-- Created with Inkscape (http://www.inkscape.org/) -->

<svg
   xmlns:dc="http://purl.org/dc/elements/1.1/"
   xmlns:cc="http://creativecommons.org/ns#"
   xmlns:rdf="http://www.w3.org/1999/02/22-rdf-syntax-ns#"
   xmlns:svg="http://www.w3.org/2000/svg"
   xmlns="http://www.w3.org/2000/svg"
   xmlns:sodipodi="http://sodipodi.sourceforge.net/DTD/sodipodi-0.dtd"
   xmlns:inkscape="http://www.inkscape.org/namespaces/inkscape"
   width="864.20001"
   height="755.22601"
   viewBox="0 0 228.65291 199.82022"
   version="1.1"
   id="svg4490"
   inkscape:version="0.92.2 (5c3e80d, 2017-08-06)"
   sodipodi:docname="11 SADC.svg">
  <defs
     id="defs4484" />
  <sodipodi:namedview
     id="base"
     pagecolor="#ffffff"
     bordercolor="#666666"
     borderopacity="1.0"
     inkscape:pageopacity="0.0"
     inkscape:pageshadow="2"
     inkscape:zoom="0.49497475"
     inkscape:cx="191.37756"
     inkscape:cy="180.02796"
     inkscape:document-units="px"
     inkscape:current-layer="layer1"
     showgrid="false"
     units="px"
     inkscape:window-width="1920"
     inkscape:window-height="1057"
     inkscape:window-x="-8"
     inkscape:window-y="-8"
     inkscape:window-maximized="1" />
  <metadata
     id="metadata4487">
    <rdf:RDF>
      <cc:Work
         rdf:about="">
        <dc:format>image/svg+xml</dc:format>
        <dc:type
           rdf:resource="http://purl.org/dc/dcmitype/StillImage" />
        <dc:title></dc:title>
      </cc:Work>
    </rdf:RDF>
  </metadata>
  <g
     inkscape:label="Layer 1"
     inkscape:groupmode="layer"
     id="layer1"
     transform="translate(0,-97.179783)">
    <path
       sodipodi:nodetypes="cccc"
       inkscape:connector-curvature="0"
       id="path4488"
       d="M 6.7199328,290.27958 114.32645,103.8995 221.93303,290.27956 Z"
       style="fill:#e20a16;fill-opacity:1;stroke:#e20a16;stroke-width:13.22916698;stroke-linejoin:round;stroke-miterlimit:4;stroke-dasharray:none;stroke-opacity:1" />
    <path
       style="fill:#ffd70a;fill-opacity:1;stroke:none;stroke-width:13.22916603;stroke-linejoin:round;stroke-miterlimit:4;stroke-dasharray:none;stroke-opacity:1"
       d="M 114.32653,130.35788 29.633631,277.05029 199.01937,277.0504 Z"
       id="rect5050"
       inkscape:connector-curvature="0"
       sodipodi:nodetypes="cccc" />
    <path
       d="m 137.10835,251.43532 -19.13818,7.672 0.89311,2.29816 19.04626,-7.78064 -0.80309,-2.18966"
       style="fill:#000000;fill-opacity:1;fill-rule:nonzero;stroke:none;stroke-width:8.35729504"
       id="path6422"
       inkscape:connector-curvature="0" />
    <path
       d="m 137.91073,230.90978 -25.82397,25.80734 1.6962,1.59623 25.81568,-25.80734 -1.6891,-1.59623"
       style="fill:#000000;fill-opacity:1;fill-rule:nonzero;stroke:none;stroke-width:8.35729504"
       id="path6424"
       inkscape:connector-curvature="0" />
    <path
       d="m 154.15731,261.40555 -40.87563,5.77491 0.40036,2.39018 40.8671,-5.77489 -0.39325,-2.3902"
       style="fill:#000000;fill-opacity:1;fill-rule:nonzero;stroke:none;stroke-width:8.35729504"
       id="path6426"
       inkscape:connector-curvature="0" />
    <path
       d="m 152.26022,241.86621 c -1.58723,0 -2.925,0.90259 -3.7859,2.19795 -0.14214,0.20137 -0.52591,0.70194 -0.50222,0.99451 0.0711,0.66853 0.18951,1.42069 0.18951,2.08922 0,0.50151 -0.0948,1.00279 -0.0948,1.49602 0,1.88027 2.08235,2.79134 3.69398,2.79134 h 1.6891 l 0.66805,-0.20136 c 1.80518,-0.54322 3.31778,-2.33157 3.31778,-4.2873 v -0.9945 c 0,-2.3401 -3.10054,-4.08674 -5.18147,-4.08674"
       style="fill:#000000;fill-opacity:1;fill-rule:nonzero;stroke:none;stroke-width:8.35729504"
       id="path6428"
       inkscape:connector-curvature="0" />
    <path
       d="m 173.29549,265.58421 h -2.59073 c -0.56856,0 -1.31954,-0.20137 -1.89757,-0.29258 -1.92126,-2.03094 -3.38482,-5.68294 -3.38482,-8.47428 0,-1.29537 1.29584,-2.28987 2.49052,-2.28987 2.13921,0 4.47125,0.39278 6.37663,1.39558 -0.0237,0.11608 -0.18952,0.70193 -0.18952,0.79385 0,3.02532 2.88331,2.8331 2.88331,4.58815 0,1.61305 -1.98072,4.27893 -3.68545,4.27893"
       style="fill:#000000;fill-opacity:1;fill-rule:nonzero;stroke:none;stroke-width:8.35729504"
       id="path6430"
       inkscape:connector-curvature="0" />
    <path
       d="m 51.17036,255.62231 h 51.74009 v -14.34947 l -5.081267,-23.02435 c -0.18952,-3.35128 -4.479537,-6.4017 -7.671998,-6.27633 H 76.401129 l -2.799681,4.78038 h 15.853803 c 0.819673,-0.0426 2.072873,0.45958 2.690944,1.00279 0.518811,0.44301 1.11106,1.39558 1.193975,2.08922 l 2.791152,12.7616 H 64.432244 l -13.263068,23.016"
       style="fill:#000000;fill-opacity:1;fill-rule:nonzero;stroke:none;stroke-width:8.35729504"
       id="path6432"
       inkscape:connector-curvature="0" />
    <path
       d="m 102.91045,259.60874 c -0.0711,0.43448 -0.2677,1.22003 -0.49275,1.59623 -0.443,0.72705 -1.80518,1.67986 -2.69095,1.48773 v 6.38497 H 91.745598 V 262.6927 H 60.046282 v 6.38497 h -7.97286 v -6.38497 c -0.267697,0.0592 -0.627784,0 -0.869422,-0.0995 l -0.525918,-0.19189 c -0.928646,-0.49322 -1.854924,-1.70496 -1.795699,-2.7915 h 54.029967"
       style="fill:#000000;fill-opacity:1;fill-rule:nonzero;stroke:none;stroke-width:8.35729504"
       id="path6434"
       inkscape:connector-curvature="0" />
    <path
       d="m 155.75354,221.93406 c -0.60172,1.23685 -3.10054,4.28729 -4.58804,4.28729 -1.22003,0 -1.35506,-0.90259 -1.99706,-1.58794 -0.45248,-0.50152 -1.93784,-1.15323 -2.59074,-0.80238 -1.70567,-0.76898 -2.18895,-2.69104 -2.18895,-4.38757 0,-3.46828 5.13978,-4.64667 7.77244,-4.78038 2.28135,0.83578 3.8944,2.79968 3.8944,5.2818 0,0.60173 -0.008,1.46262 -0.30086,1.98901"
       style="fill:#000000;fill-opacity:1;fill-rule:nonzero;stroke:none;stroke-width:8.35729504"
       id="path6436"
       inkscape:connector-curvature="0" />
  </g>
</svg>
