<?xml version="1.0" encoding="UTF-8" standalone="no"?>
<!-- Created with Inkscape (http://www.inkscape.org/) -->

<svg
   xmlns:dc="http://purl.org/dc/elements/1.1/"
   xmlns:cc="http://creativecommons.org/ns#"
   xmlns:rdf="http://www.w3.org/1999/02/22-rdf-syntax-ns#"
   xmlns:svg="http://www.w3.org/2000/svg"
   xmlns="http://www.w3.org/2000/svg"
   xmlns:sodipodi="http://sodipodi.sourceforge.net/DTD/sodipodi-0.dtd"
   xmlns:inkscape="http://www.inkscape.org/namespaces/inkscape"
   width="864.20001"
   height="755.22601"
   viewBox="0 0 228.65291 199.82022"
   version="1.1"
   id="svg4490"
   inkscape:version="0.92.2 (5c3e80d, 2017-08-06)"
   sodipodi:docname="11 SADC.svg">
  <defs
     id="defs4484" />
  <sodipodi:namedview
     id="base"
     pagecolor="#ffffff"
     bordercolor="#666666"
     borderopacity="1.0"
     inkscape:pageopacity="0.0"
     inkscape:pageshadow="2"
     inkscape:zoom="0.7"
     inkscape:cx="479.16834"
     inkscape:cy="185.83887"
     inkscape:document-units="px"
     inkscape:current-layer="layer1"
     showgrid="false"
     units="px"
     inkscape:window-width="1920"
     inkscape:window-height="1057"
     inkscape:window-x="-8"
     inkscape:window-y="-8"
     inkscape:window-maximized="1" />
  <metadata
     id="metadata4487">
    <rdf:RDF>
      <cc:Work
         rdf:about="">
        <dc:format>image/svg+xml</dc:format>
        <dc:type
           rdf:resource="http://purl.org/dc/dcmitype/StillImage" />
        <dc:title></dc:title>
      </cc:Work>
    </rdf:RDF>
  </metadata>
  <g
     inkscape:label="Layer 1"
     inkscape:groupmode="layer"
     id="layer1"
     transform="translate(0,-97.179783)">
    <path
       sodipodi:nodetypes="cccc"
       inkscape:connector-curvature="0"
       id="path4488"
       d="M 6.7199328,290.27958 114.32645,103.8995 221.93303,290.27956 Z"
       style="fill:#e20a16;fill-opacity:1;stroke:#e20a16;stroke-width:13.22916698;stroke-linejoin:round;stroke-miterlimit:4;stroke-dasharray:none;stroke-opacity:1" />
    <path
       style="fill:#ffd70a;fill-opacity:1;stroke:none;stroke-width:13.22916603;stroke-linejoin:round;stroke-miterlimit:4;stroke-dasharray:none;stroke-opacity:1"
       d="M 114.32653,130.35788 29.633631,277.05029 199.01937,277.0504 Z"
       id="rect5050"
       inkscape:connector-curvature="0"
       sodipodi:nodetypes="cccc" />
    <path
       d="m 159.14474,254.82727 0.59464,0.0924 0.40038,0.30088 c 0.0474,0.15873 0.16584,0.34257 0.18953,0.50154 v 0.30088 c -0.40038,4.74718 4.03674,9.8621 8.87589,9.8621 5.22366,0 10.16302,-3.53531 10.16302,-9.16843 0,-5.18177 -4.03673,-10.0376 -9.46935,-9.87043 l -11.06565,-6.56913 c -0.49278,-0.29259 -1.32908,-0.55153 -1.89766,-0.60176 l -50.54742,-2.28998 v -15.25283 l 0.0948,-0.59346 0.40038,-0.50155 c 3.73609,-3.86125 3.4852,-2.44878 3.4852,-7.47178 H 86.540659 v 21.32887 h -7.97325 V 223.035 c -0.0237,-0.17531 -0.0474,-0.44302 -0.0948,-0.60176 -0.0474,-0.14925 -0.21322,-0.3511 -0.30088,-0.50154 -0.36011,-0.20848 -0.78655,-0.3928 -1.19403,-0.49301 -0.96897,-0.14215 -2.39044,0.41791 -2.39044,1.59631 v 11.85962 h -14.25828 c -0.16583,0.0261 -0.43354,0.0426 -0.59227,0.0924 l -0.50226,0.30087 -0.40038,0.60176 -0.0948,0.59346 v 10.76476 c 1.30301,-0.56835 3.35988,-1.19522 4.78893,-1.19522 5.60816,0 11.93488,5.14837 11.26632,11.1659 h 4.58826 c -0.23691,-6.66944 5.59964,-11.1659 11.85955,-11.1659 5.14003,0 9.126771,4.71376 10.271761,9.26871 v 0.30088 h 3.18409 l 8.87589,-9.56959 0.60175,-0.50154 c 0.0711,-0.0332 0.98555,-0.24236 1.19404,-0.29259 h 8.47479 v 7.97326 h -5.08151 c -0.11846,-0.0332 -0.2914,0.0261 -0.40038,0.0663 l -0.40038,0.13267 -0.49278,0.3928 -0.30798,0.60175 -0.39328,1.79697 -4.98106,-0.70196 -0.50225,0.0995 -0.30088,0.40109 c -0.76759,1.17839 -1.2959,3.2762 -1.2959,4.6803 v 1.69652 c 0,0.49301 0.21322,1.19522 0.30088,1.69652 l 35.3865,4.98118 c -0.25823,-0.819 -0.49277,-1.93888 -0.49277,-2.79147 0,-2.03105 0.53542,-4.19556 1.68917,-5.88382 l -16.44804,-2.28998 3.29307,-3.19264 0.40038,-0.0924 h 25.32393"
       style="fill:#000000;fill-opacity:1;fill-rule:nonzero;stroke:none;stroke-width:8.35770702"
       id="path6444"
       inkscape:connector-curvature="0" />
    <path
       d="m 72.308179,257.21756 c 0,-4.31256 -3.8029,-8.77557 -8.27413,-8.77557 -5.51624,0 -9.17676,3.70245 -9.17676,9.1684 0,4.52989 4.13695,8.27413 8.57501,8.27413 4.71359,0 8.87588,-3.85292 8.87588,-8.66696"
       style="fill:#000000;fill-opacity:1;fill-rule:nonzero;stroke:none;stroke-width:8.35770702"
       id="path6446"
       inkscape:connector-curvature="0" />
    <path
       d="m 69.115559,257.21756 c 0,-3.56037 -2.90027,-5.58293 -6.1848,-5.58293 -2.64938,0 -4.9813,3.13415 -4.9813,5.68324 0,2.57416 2.42384,5.37401 5.08151,5.37401 h 1.1964 c 2.49065,0 4.88938,-3.10906 4.88938,-5.47432"
       style="fill:#ffd70a;fill-opacity:1;fill-rule:nonzero;stroke:none;stroke-width:8.35770702"
       id="path6448"
       inkscape:connector-curvature="0" />
    <path
       d="m 99.219889,257.21756 c 0,-4.24571 -3.70245,-8.77557 -8.17391,-8.77557 -5.39898,0 -9.26869,3.72754 -9.26869,9.1684 0,4.54659 4.28763,8.27413 8.67546,8.27413 4.80551,0 8.76714,-3.84455 8.76714,-8.66696"
       style="fill:#000000;fill-opacity:1;fill-rule:nonzero;stroke:none;stroke-width:8.35770702"
       id="path6450"
       inkscape:connector-curvature="0" />
    <path
       d="m 96.035569,257.21756 c 0,-2.61595 -1.65364,-4.74715 -4.18717,-5.38234 l -0.80313,-0.20137 h -1.19404 c -0.23691,0 -1.23667,0.35939 -1.46174,0.46813 -2.21512,1.00285 -3.41816,2.74967 -3.41816,5.21521 0,2.57416 2.39849,5.374 5.08128,5.374 h 1.1964 c 0.23691,0 1.23668,-0.3594 1.46174,-0.45961 2.04692,-0.92774 3.32624,-2.7246 3.32624,-5.01463"
       style="fill:#ffd70a;fill-opacity:1;fill-rule:nonzero;stroke:none;stroke-width:8.35770702"
       id="path6452"
       inkscape:connector-curvature="0" />
    <path
       d="m 175.39212,256.41524 c 0,-2.38195 -1.23668,-4.25407 -3.4518,-5.14834 -0.23691,-0.0829 -1.33618,-0.42621 -1.53045,-0.42621 h -1.19403 c -0.23691,0 -1.23668,0.3594 -1.46174,0.45961 -2.08009,0.94433 -3.42669,2.90847 -3.42669,5.2152 0,2.62432 2.35727,5.38237 5.08151,5.38237 h 1.20351 c 0.21322,0 1.22957,-0.3594 1.45464,-0.45961 2.07297,-0.94433 3.32647,-2.74135 3.32647,-5.023"
       style="fill:#ffd70a;fill-opacity:1;fill-rule:nonzero;stroke:none;stroke-width:8.35770702"
       id="path6454"
       inkscape:connector-curvature="0" />
    <path
       d="M 91.346849,234.89414 H 103.21161 V 218.35005 H 91.346849 Z"
       style="fill:#ffd70a;fill-opacity:1;fill-rule:nonzero;stroke:none;stroke-width:8.35770702"
       id="path6456"
       inkscape:connector-curvature="0" />
    <path
       d="m 65.922709,257.21756 c 0,-1.42928 -1.09453,-2.39029 -2.49041,-2.39029 -1.30302,0 -2.29094,1.22862 -2.29094,2.4906 0,0.96944 0.84341,1.73846 1.65364,2.08956 0.0948,0.0426 0.14215,0.0995 0.23692,0.0995 h 0.80313 c 1.02819,0 2.08955,-1.30372 2.08955,-2.28998"
       style="fill:#000000;fill-opacity:1;fill-rule:nonzero;stroke:none;stroke-width:8.35770702"
       id="path6458"
       inkscape:connector-curvature="0" />
    <path
       d="m 92.943399,257.21756 -0.14215,-0.53494 c -0.0474,-0.17532 -0.26771,-0.82753 -0.36721,-0.96115 -0.37669,-0.50983 -1.37172,-0.89434 -1.99005,-0.89434 -0.96897,0 -1.56362,0.50983 -2.03033,1.32054 l -0.26771,0.46814 v 0.70197 c 0,0.56006 0.61833,1.59631 1.104,1.88889 l 0.52595,0.20138 c 0.11845,0.0426 0.16583,0.0995 0.26771,0.0995 h 0.69415 c 0.66809,0 1.5873,-0.61858 1.89766,-1.19522 0.0168,-0.0332 0.16583,-0.62687 0.18953,-0.70197 l 0.0948,-0.3928"
       style="fill:#000000;fill-opacity:1;fill-rule:nonzero;stroke:none;stroke-width:8.35770702"
       id="path6460"
       inkscape:connector-curvature="0" />
    <path
       d="m 172.29971,256.41524 -0.14214,-0.52665 c -0.0474,-0.18479 -0.25824,-0.83583 -0.36722,-0.96944 -0.37668,-0.50155 -1.36224,-0.89435 -1.99005,-0.89435 l -0.79365,0.0995 c -0.84341,0.30088 -1.49728,1.5378 -1.49728,2.3903 0,0.97773 0.8434,1.74675 1.65601,2.09785 0.0948,0.0332 0.14214,0.0924 0.23691,0.0924 h 0.70126 c 0.66098,0 1.5873,-0.61858 1.88818,-1.18669 0.0237,-0.0426 0.18953,-0.62687 0.18953,-0.70197 l 0.0948,-0.40109"
       style="fill:#000000;fill-opacity:1;fill-rule:nonzero;stroke:none;stroke-width:8.35770702"
       id="path6462"
       inkscape:connector-curvature="0" />
    <path
       d="m 162.32906,250.53977 1.49491,-1.4961 0.18953,-0.50154 v -0.3928 l -0.30088,-0.40109 -6.07606,-3.58546 c -0.49278,-0.29259 -1.33618,-0.55153 -1.89766,-0.60176 l -24.72218,-1.09477 -0.40038,0.0995 -0.30088,0.30088 c -0.21322,0.3928 -0.0948,6.32679 -0.0948,7.17091 l 0.0948,0.40109 0.30088,0.30087 0.40038,0.0995 h 30.70632 l 0.59465,-0.30087"
       style="fill:#ffd70a;fill-opacity:1;fill-rule:nonzero;stroke:none;stroke-width:8.35770702"
       id="path6464"
       inkscape:connector-curvature="0" />
  </g>
</svg>
