<?xml version="1.0" encoding="UTF-8" standalone="no"?>
<!-- Created with Inkscape (http://www.inkscape.org/) -->

<svg
   xmlns:dc="http://purl.org/dc/elements/1.1/"
   xmlns:cc="http://creativecommons.org/ns#"
   xmlns:rdf="http://www.w3.org/1999/02/22-rdf-syntax-ns#"
   xmlns:svg="http://www.w3.org/2000/svg"
   xmlns="http://www.w3.org/2000/svg"
   xmlns:sodipodi="http://sodipodi.sourceforge.net/DTD/sodipodi-0.dtd"
   xmlns:inkscape="http://www.inkscape.org/namespaces/inkscape"
   width="864.20001"
   height="755.22601"
   viewBox="0 0 228.65291 199.82022"
   version="1.1"
   id="svg4490"
   inkscape:version="0.92.1 r15371"
   sodipodi:docname="66.svg">
  <defs
     id="defs4484" />
  <sodipodi:namedview
     id="base"
     pagecolor="#ffffff"
     bordercolor="#666666"
     borderopacity="1.0"
     inkscape:pageopacity="0.0"
     inkscape:pageshadow="2"
     inkscape:zoom="0.7"
     inkscape:cx="554.53333"
     inkscape:cy="446.60227"
     inkscape:document-units="px"
     inkscape:current-layer="layer1"
     showgrid="false"
     units="px"
     inkscape:window-width="1920"
     inkscape:window-height="1057"
     inkscape:window-x="-8"
     inkscape:window-y="-8"
     inkscape:window-maximized="1" />
  <metadata
     id="metadata4487">
    <rdf:RDF>
      <cc:Work
         rdf:about="">
        <dc:format>image/svg+xml</dc:format>
        <dc:type
           rdf:resource="http://purl.org/dc/dcmitype/StillImage" />
        <dc:title></dc:title>
      </cc:Work>
    </rdf:RDF>
  </metadata>
  <g
     inkscape:label="Layer 1"
     inkscape:groupmode="layer"
     id="layer1"
     transform="translate(0,-97.179783)">
    <path
       sodipodi:nodetypes="cccc"
       inkscape:connector-curvature="0"
       id="path4488"
       d="M 6.7199328,290.27957 114.32645,103.89949 221.93303,290.27955 Z"
       style="fill:#e20a16;fill-opacity:1;stroke:#e20a16;stroke-width:13.22916698;stroke-linejoin:round;stroke-miterlimit:4;stroke-dasharray:none;stroke-opacity:1" />
    <path
       style="fill:#ffd70a;fill-opacity:1;stroke:none;stroke-width:13.22916603;stroke-linejoin:round;stroke-miterlimit:4;stroke-dasharray:none;stroke-opacity:1"
       d="m 114.32653,130.35801 -84.692897,146.6924 169.385737,-2e-5 z"
       id="rect5050"
       inkscape:connector-curvature="0"
       sodipodi:nodetypes="cccc" />
    <path
       d="m 96.036679,214.06544 c -1.721048,-3.09476 -1.897928,-5.37156 -1.897928,-8.9301 0,-2.23463 1.078045,-3.71877 1.938568,-5.77632 l 4.789761,-5.00051 c 2.61407,-1.29019 2.18477,-1.75399 5.02568,-2.36113 l 5.66677,0.008 c 1.02785,0.3373 1.67802,0.59871 2.7489,0.68304 l 11.12271,9.9926 c -1.2645,-0.69991 -3.34791,-1.24801 -4.78976,-1.24801 h -2.70682 c -7.57258,0 -12.91046,7.81699 -12.91046,14.79074 0,2.24307 1.25733,5.98712 2.71544,7.69894 l -6.87246,-4.78968 -4.837561,-5.06798"
       style="fill:#000000;fill-opacity:1;fill-rule:evenodd;stroke:none;stroke-width:8.43257809"
       id="path5730"
       inkscape:connector-curvature="0"
       sodipodi:nodetypes="csccccccsssccc" />
    <path
       d="m 116.27495,229.96085 c -2.36165,-2.47075 -3.95481,-5.92811 -3.95481,-9.36859 0,-7.45441 5.80158,-13.5343 13.3235,-13.5343 2.45368,0 4.97501,0.82639 7.07492,2.08284 l 0.56411,0.33731 9.1746,8.04468 c -0.97765,-0.624 -4.00525,-1.92263 -5.15213,-1.92263 h -2.5046 c -5.37156,0 -12.0755,6.07146 -12.0755,11.45145 v 2.49605 c 0,2.48761 1.33141,5.21133 2.91788,7.08336 l -8.84592,-6.22324 -0.52348,-0.44693"
       style="fill:#000000;fill-opacity:1;fill-rule:nonzero;stroke:none;stroke-width:8.43257809"
       id="path5732"
       inkscape:connector-curvature="0" />
    <path
       d="m 133.18228,242.1122 8.91333,6.38346 c 2.20868,1.54315 5.37994,2.91767 8.11209,2.91767 0.3466,0 3.17892,0.0507 3.3393,0 4.5873,-1.37452 7.90963,-4.21629 7.90963,-9.36859 0,-4.5789 -3.92111,-10.7937 -6.87246,-13.95593 l -6.45105,-5.61609 c -1.50112,-0.70833 -3.35602,-1.04563 -5.00034,-1.04563 -7.4208,0 -12.69962,6.11362 -12.69962,13.32347 0,1.75398 1.26449,6.4172 2.74912,7.36165"
       style="fill:#000000;fill-opacity:1;fill-rule:nonzero;stroke:none;stroke-width:8.43257809"
       id="path5734"
       inkscape:connector-curvature="0" />
    <path
       d="m 153.33618,231.6305 h -2.29472 c -3.54153,0 -7.70741,3.18751 -8.94681,6.45936 -0.24381,0.63243 -0.62388,3.82838 -0.62388,4.57889 0,0.37105 0.14343,0.87698 0.19123,1.24801 3.90438,-0.29516 8.41566,-2.87551 10.2034,-6.45092 0.3466,-0.69148 0.60714,-1.75398 0.83422,-2.50448 0.26055,-0.86855 0.7936,-2.41171 0.62389,-3.33086"
       style="fill:#ffd70a;fill-opacity:1;fill-rule:nonzero;stroke:none;stroke-width:8.43257809"
       id="path5736"
       inkscape:connector-curvature="0" />
    <path
       inkscape:connector-curvature="0"
       id="path8748"
       style="fill:#000000;fill-opacity:1;fill-rule:evenodd;stroke:none;stroke-width:8.43257809"
       d="m 96.070209,179.15457 h 4.762501 v 89.95833 h -4.762501"
       sodipodi:nodetypes="cccc" />
  </g>
</svg>
