<?xml version="1.0" encoding="UTF-8" standalone="no"?>
<!-- Created with Inkscape (http://www.inkscape.org/) -->

<svg
   xmlns:dc="http://purl.org/dc/elements/1.1/"
   xmlns:cc="http://creativecommons.org/ns#"
   xmlns:rdf="http://www.w3.org/1999/02/22-rdf-syntax-ns#"
   xmlns:svg="http://www.w3.org/2000/svg"
   xmlns="http://www.w3.org/2000/svg"
   xmlns:sodipodi="http://sodipodi.sourceforge.net/DTD/sodipodi-0.dtd"
   xmlns:inkscape="http://www.inkscape.org/namespaces/inkscape"
   width="864.20001"
   height="755.22601"
   viewBox="0 0 228.65291 199.82022"
   version="1.1"
   id="svg4490"
   inkscape:version="0.92.2 (5c3e80d, 2017-08-06)"
   sodipodi:docname="11 SADC.svg">
  <defs
     id="defs4484" />
  <sodipodi:namedview
     id="base"
     pagecolor="#ffffff"
     bordercolor="#666666"
     borderopacity="1.0"
     inkscape:pageopacity="0.0"
     inkscape:pageshadow="2"
     inkscape:zoom="0.7"
     inkscape:cx="75.075671"
     inkscape:cy="144.81089"
     inkscape:document-units="px"
     inkscape:current-layer="layer1"
     showgrid="false"
     units="px"
     inkscape:window-width="1920"
     inkscape:window-height="1057"
     inkscape:window-x="-8"
     inkscape:window-y="-8"
     inkscape:window-maximized="1"
     fit-margin-top="0"
     fit-margin-left="0"
     fit-margin-right="0"
     fit-margin-bottom="0" />
  <metadata
     id="metadata4487">
    <rdf:RDF>
      <cc:Work
         rdf:about="">
        <dc:format>image/svg+xml</dc:format>
        <dc:type
           rdf:resource="http://purl.org/dc/dcmitype/StillImage" />
        <dc:title></dc:title>
      </cc:Work>
    </rdf:RDF>
  </metadata>
  <g
     inkscape:label="Layer 1"
     inkscape:groupmode="layer"
     id="layer1"
     transform="translate(-114.27061,-55.506773)">
    <path
       sodipodi:nodetypes="cccc"
       inkscape:connector-curvature="0"
       id="path4488"
       d="M 120.99054,248.60656 228.59705,62.226485 336.20363,248.60654 Z"
       style="fill:#e20a16;fill-opacity:1;stroke:#e20a16;stroke-width:13.22916698;stroke-linejoin:round;stroke-miterlimit:4;stroke-dasharray:none;stroke-opacity:1" />
    <path
       style="fill:#ffd70a;fill-opacity:1;stroke:none;stroke-width:13.22916603;stroke-linejoin:round;stroke-miterlimit:4;stroke-dasharray:none;stroke-opacity:1"
       d="m 228.59713,88.684865 -84.69289,146.692405 169.38573,1.1e-4 z"
       id="rect5050"
       inkscape:connector-curvature="0"
       sodipodi:nodetypes="cccc" />
    <path
       d="m 228.64702,181.06331 -13.85627,-12.36044 -2.09656,15.84543 h -17.04896 l -8.86693,-9.26824 c -0.62778,-0.51817 -0.90258,-1.50431 -0.90258,-2.28989 0,-0.55991 0.16583,-1.23688 0.50222,-1.69654 l 7.47988,-10.85613 c 0.46906,-0.71036 1.77912,-1.65474 2.59073,-1.89711 0.33403,-0.10021 0.92865,-0.12532 1.29585,-0.10021 h 12.26027 c 0.63489,-0.008 1.5209,0.12532 2.09656,0.40114 l 0.59225,0.39283 c 0.18952,0.14214 0.45248,0.30086 0.60173,0.50144 l 18.04346,17.34139 -2.69118,3.98643"
       style="fill:#000000;fill-opacity:1;fill-rule:nonzero;stroke:none;stroke-width:8.3572979"
       id="path6334"
       inkscape:connector-curvature="0" />
    <path
       d="m 211.09678,149.67329 c 0,-3.5602 -2.79968,-6.37661 -6.37663,-6.37661 -3.4097,0 -6.27643,3.00863 -6.27643,6.37661 0,3.41816 2.93353,6.37663 6.37664,6.37663 3.40993,0 6.27642,-3.04205 6.27642,-6.37663"
       style="fill:#000000;fill-opacity:1;fill-rule:nonzero;stroke:none;stroke-width:8.3572979"
       id="path6342"
       inkscape:connector-curvature="0" />
    <path
       d="m 195.05085,167.11498 -3.98655,5.87518 5.68298,5.88354 -1.6962,-11.75872"
       style="fill:#ffd70a;fill-opacity:1;fill-rule:nonzero;stroke:none;stroke-width:8.3572979"
       id="path6344"
       inkscape:connector-curvature="0" />
    <path
       d="m 271.71232,224.31233 c 0.32692,0.12532 0.73439,0.50145 0.90259,0.79395 l 0.11845,0.40114 c 0.0711,0.58498 -0.11845,1.08645 -0.32692,1.39567 -0.16583,0.13361 -1.01157,0.55991 -1.20346,0.50145 h -37.58273 c -0.18952,0.0583 -1.01867,-0.36774 -1.19634,-0.50145 -0.21321,-0.3092 -0.40036,-0.81065 -0.40036,-1.19509 0,-0.20065 0.36719,-0.91931 0.50223,-1.09481 0.82678,-0.56832 13.33817,-4.57144 15.15163,-5.18153 v -4.28729 h 9.47718 v 4.28729 l 14.55015,4.88067"
       style="fill:#000000;fill-opacity:1;fill-rule:nonzero;stroke:none;stroke-width:8.3572979"
       id="path6358"
       inkscape:connector-curvature="0" />
    <path
       d="m 193.15375,227.40453 c 3.54331,0.28411 6.52706,-2.06425 7.07857,-5.58267 l 2.99181,-25.41455 c 0.0948,-0.50144 0.59461,-1.00287 1.09447,-1.09481 l 0.50223,0.10021 c 0.37667,0.16725 0.64437,0.63515 0.79361,0.99451 l 2.29793,25.21397 c 0.14214,3.28442 3.61035,6.17604 6.87814,5.78324 l -2.89159,-40.45758 h -15.85381 l -2.8916,40.45768"
       style="fill:#000000;fill-opacity:1;fill-rule:nonzero;stroke:none;stroke-width:8.3572979"
       id="path6360"
       inkscape:connector-curvature="0" />
    <path
       inkscape:connector-curvature="0"
       id="path835"
       d="m 242.59608,165.92314 h 19.72689 l 13.94905,13.94904 v 19.72689 l -13.94906,13.94906 -19.72688,-10e-6 -13.94905,-13.94905 -1e-5,-19.72688 z"
       style="fill:#e20a16;fill-opacity:1;stroke:none;stroke-width:0.08659086"
       sodipodi:nodetypes="ccccccccc" />
    <path
       d="m 241.67197,185.94311 h -2.56185 v -0.57767 q 0,-0.87907 -0.42697,-1.50697 -0.40186,-0.65303 -1.38139,-0.65303 -0.52744,0 -0.87906,0.20094 -0.32651,0.20092 -0.52744,0.52744 -0.17581,0.30139 -0.25116,0.72837 -0.0754,0.40185 -0.0754,0.85394 0,0.52744 0.0251,0.90418 0.0502,0.35163 0.20093,0.62791 0.1507,0.25116 0.42698,0.45209 0.30139,0.20092 0.80371,0.40186 l 1.95906,0.7786 q 0.85395,0.3265 1.38139,0.77859 0.52744,0.42698 0.80372,1.02977 0.30139,0.57767 0.40185,1.35627 0.10047,0.75348 0.10047,1.73301 0,1.13022 -0.22605,2.10976 -0.22604,0.95441 -0.75348,1.65766 -0.50232,0.67814 -1.35627,1.08 -0.85395,0.40185 -2.08464,0.40185 -0.9293,0 -1.73301,-0.3265 -0.80372,-0.32651 -1.38139,-0.87907 -0.57767,-0.57767 -0.9293,-1.35627 -0.32651,-0.7786 -0.32651,-1.68278 v -0.95441 h 2.56185 v 0.80371 q 0,0.70325 0.40186,1.28093 0.42697,0.55255 1.4065,0.55255 0.65302,0 1.00464,-0.17581 0.37675,-0.20094 0.55256,-0.52745 0.20093,-0.35162 0.25116,-0.85395 0.0502,-0.50232 0.0502,-1.10511 0,-0.70324 -0.0502,-1.15533 -0.0502,-0.45209 -0.22604,-0.72837 -0.1507,-0.27628 -0.45209,-0.45209 -0.27628,-0.17582 -0.75349,-0.37674 l -1.83348,-0.75349 q -1.65766,-0.67814 -2.23533,-1.78324 -0.55256,-1.13023 -0.55256,-2.81301 0,-1.00464 0.27628,-1.90883 0.27628,-0.90418 0.80372,-1.5572 0.55255,-0.65302 1.38138,-1.02976 0.82884,-0.40186 1.93395,-0.40186 0.95441,0 1.73301,0.35163 0.80371,0.35163 1.35627,0.92929 0.57767,0.57768 0.87906,1.30604 0.3014,0.70326 0.3014,1.45674 z"
       style="font-style:normal;font-variant:normal;font-weight:normal;font-stretch:normal;font-size:290.05523682px;line-height:1.25;font-family:'DIN 1451 Std';-inkscape-font-specification:'DIN 1451 Std';letter-spacing:5.6500001px;word-spacing:0px;fill:#ffffff;fill-opacity:1;stroke:none;stroke-width:0.1308132"
       id="path921"
       inkscape:connector-curvature="0" />
    <path
       d="m 245.75882,183.20544 h -2.96371 v -2.41114 h 8.48925 v 2.41114 h -2.9637 v 15.47155 h -2.56184 z"
       style="font-style:normal;font-variant:normal;font-weight:normal;font-stretch:normal;font-size:290.05523682px;line-height:1.25;font-family:'DIN 1451 Std';-inkscape-font-specification:'DIN 1451 Std';letter-spacing:5.6500001px;word-spacing:0px;fill:#ffffff;fill-opacity:1;stroke:none;stroke-width:0.1308132"
       id="path923"
       inkscape:connector-curvature="0" />
    <path
       d="m 252.45952,185.01381 q 0,-1.07999 0.37674,-1.90883 0.37674,-0.82883 0.97953,-1.35627 0.6279,-0.55256 1.38139,-0.82883 0.7786,-0.27628 1.5572,-0.27628 0.7786,0 1.53208,0.27628 0.7786,0.27627 1.38139,0.82883 0.6279,0.52744 1.00464,1.35627 0.37675,0.82884 0.37675,1.90883 v 9.44367 q 0,1.1051 -0.37675,1.93393 -0.37674,0.80372 -1.00464,1.35629 -0.60279,0.52743 -1.38139,0.8037 -0.75348,0.27628 -1.53208,0.27628 -0.7786,0 -1.5572,-0.27628 -0.75349,-0.27627 -1.38139,-0.8037 -0.60279,-0.55257 -0.97953,-1.35629 -0.37674,-0.82883 -0.37674,-1.93393 z m 2.56184,9.44367 q 0,0.92929 0.50233,1.38138 0.52744,0.42698 1.23069,0.42698 0.70325,0 1.20557,-0.42698 0.52744,-0.45209 0.52744,-1.38138 v -9.44367 q 0,-0.9293 -0.52744,-1.35628 -0.50232,-0.45209 -1.20557,-0.45209 -0.70325,0 -1.23069,0.45209 -0.50233,0.42698 -0.50233,1.35628 z"
       style="font-style:normal;font-variant:normal;font-weight:normal;font-stretch:normal;font-size:290.05523682px;line-height:1.25;font-family:'DIN 1451 Std';-inkscape-font-specification:'DIN 1451 Std';letter-spacing:5.6500001px;word-spacing:0px;fill:#ffffff;fill-opacity:1;stroke:none;stroke-width:0.1308132"
       id="path925"
       inkscape:connector-curvature="0" />
    <path
       d="m 263.79357,180.7943 h 3.84277 q 1.05488,0 1.85859,0.27628 0.80372,0.27628 1.45674,0.97953 0.65302,0.70325 0.90418,1.65766 0.25116,0.9293 0.25116,2.53673 0,1.18046 -0.1507,2.0344 -0.12558,0.82884 -0.57767,1.5572 -0.52744,0.87907 -1.4065,1.3814 -0.87907,0.4772 -2.31069,0.4772 h -1.30603 v 6.98229 h -2.56185 z m 2.56185,8.48925 h 1.23069 q 0.7786,0 1.20557,-0.22604 0.42697,-0.22605 0.6279,-0.60279 0.20093,-0.40186 0.22605,-0.95441 0.0502,-0.55256 0.0502,-1.23069 0,-0.62791 -0.0502,-1.18046 -0.0251,-0.57768 -0.22605,-0.97953 -0.17581,-0.42698 -0.57767,-0.65302 -0.40186,-0.25117 -1.15534,-0.25117 h -1.33115 z"
       style="font-style:normal;font-variant:normal;font-weight:normal;font-stretch:normal;font-size:290.05523682px;line-height:1.25;font-family:'DIN 1451 Std';-inkscape-font-specification:'DIN 1451 Std';letter-spacing:5.6500001px;word-spacing:0px;fill:#ffffff;fill-opacity:1;stroke:none;stroke-width:0.1308132"
       id="path927"
       inkscape:connector-curvature="0" />
  </g>
</svg>
