<?xml version="1.0" encoding="UTF-8" standalone="no"?>
<!-- Created with Inkscape (http://www.inkscape.org/) -->

<svg
   xmlns:dc="http://purl.org/dc/elements/1.1/"
   xmlns:cc="http://creativecommons.org/ns#"
   xmlns:rdf="http://www.w3.org/1999/02/22-rdf-syntax-ns#"
   xmlns:svg="http://www.w3.org/2000/svg"
   xmlns="http://www.w3.org/2000/svg"
   xmlns:sodipodi="http://sodipodi.sourceforge.net/DTD/sodipodi-0.dtd"
   xmlns:inkscape="http://www.inkscape.org/namespaces/inkscape"
   width="864.20001"
   height="755.22601"
   viewBox="0 0 228.65291 199.82022"
   version="1.1"
   id="svg4490"
   inkscape:version="0.92.2 (5c3e80d, 2017-08-06)"
   sodipodi:docname="11 SADC.svg">
  <defs
     id="defs4484" />
  <sodipodi:namedview
     id="base"
     pagecolor="#ffffff"
     bordercolor="#666666"
     borderopacity="1.0"
     inkscape:pageopacity="0.0"
     inkscape:pageshadow="2"
     inkscape:zoom="0.49497475"
     inkscape:cx="627.2013"
     inkscape:cy="309.55943"
     inkscape:document-units="px"
     inkscape:current-layer="layer1"
     showgrid="false"
     units="px"
     inkscape:window-width="1920"
     inkscape:window-height="1057"
     inkscape:window-x="-8"
     inkscape:window-y="-8"
     inkscape:window-maximized="1" />
  <metadata
     id="metadata4487">
    <rdf:RDF>
      <cc:Work
         rdf:about="">
        <dc:format>image/svg+xml</dc:format>
        <dc:type
           rdf:resource="http://purl.org/dc/dcmitype/StillImage" />
        <dc:title></dc:title>
      </cc:Work>
    </rdf:RDF>
  </metadata>
  <g
     inkscape:label="Layer 1"
     inkscape:groupmode="layer"
     id="layer1"
     transform="translate(0,-97.179783)">
    <path
       sodipodi:nodetypes="cccc"
       inkscape:connector-curvature="0"
       id="path4488"
       d="M 6.7199328,290.27958 114.32645,103.8995 221.93303,290.27956 Z"
       style="fill:#e20a16;fill-opacity:1;stroke:#e20a16;stroke-width:13.22916698;stroke-linejoin:round;stroke-miterlimit:4;stroke-dasharray:none;stroke-opacity:1" />
    <path
       style="fill:#ffd70a;fill-opacity:1;stroke:none;stroke-width:13.22916603;stroke-linejoin:round;stroke-miterlimit:4;stroke-dasharray:none;stroke-opacity:1"
       d="M 114.32653,130.35788 29.633631,277.05029 199.01937,277.0504 Z"
       id="rect5050"
       inkscape:connector-curvature="0"
       sodipodi:nodetypes="cccc" />
    <path
       d="m 148.07328,231.20228 -67.393251,3.49335 -1.09448,-19.93216 c -0.0166,-1.68817 0.68464,-2.38183 1.78859,-3.49335 0.2369,-0.0583 0.43353,-0.29252 0.60173,-0.42623 0.87653,-0.72709 1.5209,-1.83024 1.6962,-2.95848 l 3.09225,-20.3333 c 0.8102,-3.80257 3.49333,-6.51034 7.47135,-6.77777 l 34.691131,-1.78845 c 3.75249,-0.41787 6.91984,2.54897 8.0816,5.88354 l 5.18147,19.93215 c 0.27481,0.96944 1.36218,2.70777 2.39032,2.98356 l 0.30087,0.20065 c 1.26978,0.54324 2.02312,1.96397 2.09656,3.28442 z"
       style="fill:#000000;fill-opacity:1;fill-rule:nonzero;stroke:none;stroke-width:0.69365567;stroke-linecap:butt;stroke-linejoin:miter;stroke-miterlimit:3.86400008;stroke-dasharray:none;stroke-opacity:1"
       id="path6368"
       inkscape:connector-curvature="0" />
    <path
       d="m 135.91321,205.59552 -45.864741,2.39019 2.69094,-17.64226 c 0.28428,-1.22852 1.11106,-2.45705 2.29793,-2.99192 l 0.66095,-0.19212 c 0.25111,-0.0751 0.56856,-0.15043 0.83626,-0.10021 l 30.804791,-1.59625 c 1.77201,-0.2758 3.55183,1.2536 3.98655,2.89162 z"
       style="fill:#ffd70a;fill-opacity:1;fill-rule:nonzero;stroke:none;stroke-width:0.69365567;stroke-linecap:butt;stroke-linejoin:miter;stroke-miterlimit:3.86400008;stroke-dasharray:none;stroke-opacity:1"
       id="path6370"
       inkscape:connector-curvature="0" />
    <path
       d="m 132.72075,241.57368 0.59225,11.85065 11.8675,-0.59338 -0.60173,-11.9593 c 0.18952,0.0332 0.42642,-0.0251 0.60173,-0.0668 1.06131,-0.23405 1.73884,-0.72709 2.39008,-1.58789 l 0.40036,-0.53485 c 0.24164,-0.4931 0.39325,-1.34552 0.40036,-1.89711 l -0.0948,-0.79395 -67.393251,3.485 0.0948,0.8023 c 0.16583,1.79682 1.43798,3.29278 3.21757,3.65214 0.30086,0.0583 0.66095,0.17554 0.96892,0.13361 l 0.60173,11.85901 11.85896,-0.60173 -0.60172,-11.95929 z"
       style="fill:#000000;fill-opacity:1;fill-rule:nonzero;stroke:none;stroke-width:0.69365567;stroke-linecap:butt;stroke-linejoin:miter;stroke-miterlimit:3.86400008;stroke-dasharray:none;stroke-opacity:1"
       id="path6372"
       inkscape:connector-curvature="0" />
    <path
       d="m 46.089099,258.80643 h 5.68228 v 11.86068 h -5.68228 z"
       style="fill:#000000;fill-opacity:1;fill-rule:nonzero;stroke:none;stroke-width:0.69365567;stroke-linecap:butt;stroke-linejoin:miter;stroke-miterlimit:3.86400008;stroke-dasharray:none;stroke-opacity:1"
       id="path6374"
       inkscape:connector-curvature="0" />
    <path
       d="m 57.555289,258.80643 h 5.68228 v 11.86068 h -5.68228 z"
       style="fill:#000000;fill-opacity:1;fill-rule:nonzero;stroke:none;stroke-width:0.69365567;stroke-linecap:butt;stroke-linejoin:miter;stroke-miterlimit:3.86400008;stroke-dasharray:none;stroke-opacity:1"
       id="path6376"
       inkscape:connector-curvature="0" />
    <path
       d="m 69.013189,260.40267 h 5.68227 v 11.85985 h -5.68227 z"
       style="fill:#000000;fill-opacity:1;fill-rule:nonzero;stroke:none;stroke-width:0.69365567;stroke-linecap:butt;stroke-linejoin:miter;stroke-miterlimit:3.86400008;stroke-dasharray:none;stroke-opacity:1"
       id="path6378"
       inkscape:connector-curvature="0" />
    <path
       d="m 80.479369,262.70093 h 5.68228 v 11.95846 h -5.68228 z"
       style="fill:#000000;fill-opacity:1;fill-rule:nonzero;stroke:none;stroke-width:0.69365567;stroke-linecap:butt;stroke-linejoin:miter;stroke-miterlimit:3.86400008;stroke-dasharray:none;stroke-opacity:1"
       id="path6380"
       inkscape:connector-curvature="0" />
    <path
       d="m 91.945559,261.10469 h 5.68228 v 11.95763 h -5.68228 z"
       style="fill:#000000;fill-opacity:1;fill-rule:nonzero;stroke:none;stroke-width:0.69365567;stroke-linecap:butt;stroke-linejoin:miter;stroke-miterlimit:3.86400008;stroke-dasharray:none;stroke-opacity:1"
       id="path6382"
       inkscape:connector-curvature="0" />
    <path
       d="m 103.41175,259.60874 h 5.68251 v 11.85984 h -5.68251 z"
       style="fill:#000000;fill-opacity:1;fill-rule:nonzero;stroke:none;stroke-width:0.69365567;stroke-linecap:butt;stroke-linejoin:miter;stroke-miterlimit:3.86400008;stroke-dasharray:none;stroke-opacity:1"
       id="path6384"
       inkscape:connector-curvature="0" />
    <path
       d="m 114.87793,258.80643 h 67.69246 v 7.87224 h -67.69246 z m 67.68583,0 z"
       style="fill:#000000;fill-opacity:1;fill-rule:nonzero;stroke:none;stroke-width:0.69365567;stroke-linecap:butt;stroke-linejoin:miter;stroke-miterlimit:3.86400008;stroke-dasharray:none;stroke-opacity:1"
       id="path6386"
       inkscape:connector-curvature="0" />
  </g>
</svg>
